<svg width="3" height="12" viewBox="0 0 3 12" fill="none" xmlns="http://www.w3.org/2000/svg">
<path d="M2.5 10.6154C2.5 10.9826 2.3683 11.3348 2.13388 11.5945C1.89946 11.8541 1.58152 12 1.25 12C0.918479 12 0.600537 11.8541 0.366116 11.5945C0.131696 11.3348 0 10.9826 0 10.6154C0 10.2482 0.131696 9.89598 0.366116 9.63631C0.600537 9.37665 0.918479 9.23077 1.25 9.23077C1.58152 9.23077 1.89946 9.37665 2.13388 9.63631C2.3683 9.89598 2.5 10.2482 2.5 10.6154ZM2.5 6C2.5 6.36722 2.3683 6.71941 2.13388 6.97907C1.89946 7.23874 1.58152 7.38462 1.25 7.38462C0.918479 7.38462 0.600537 7.23874 0.366116 6.97907C0.131696 6.71941 0 6.36722 0 6C0 5.63278 0.131696 5.28059 0.366116 5.02093C0.600537 4.76126 0.918479 4.61538 1.25 4.61538C1.58152 4.61538 1.89946 4.76126 2.13388 5.02093C2.3683 5.28059 2.5 5.63278 2.5 6ZM2.5 1.38462C2.5 1.75184 2.3683 2.10402 2.13388 2.36369C1.89946 2.62335 1.58152 2.76923 1.25 2.76923C0.918479 2.76923 0.600537 2.62335 0.366116 2.36369C0.131696 2.10402 0 1.75184 0 1.38462C0 1.01739 0.131696 0.66521 0.366116 0.405544C0.600537 0.145879 0.918479 0 1.25 0C1.58152 0 1.89946 0.145879 2.13388 0.405544C2.3683 0.66521 2.5 1.01739 2.5 1.38462Z" fill="black"/>
</svg>
