<svg width="20" height="20" viewBox="0 0 20 20" fill="none" xmlns="http://www.w3.org/2000/svg">
<path d="M9.22156 2.79961C9.45947 2.77328 9.67719 2.65352 9.8268 2.46667C9.97641 2.27982 10.0457 2.04119 10.0193 1.80327C9.99302 1.56535 9.87326 1.34764 9.68641 1.19803C9.49956 1.04841 9.26093 0.979151 9.02301 1.00548C4.50883 1.50455 1 5.32925 1 9.97521C1 14.9596 5.04039 19 10.0248 19C14.6689 19 18.4927 15.4921 18.9945 10.9815C19.0209 10.7436 18.9518 10.5049 18.8022 10.3179C18.6527 10.131 18.435 10.0111 18.1971 9.98469C17.9592 9.95824 17.7205 10.0274 17.5336 10.1769C17.3467 10.3264 17.2268 10.5441 17.2003 10.782C16.9925 12.6142 16.0916 14.2974 14.6825 15.4865C13.2733 16.6757 11.4626 17.2807 9.6216 17.1775C7.78062 17.0743 6.04886 16.2708 4.78139 14.9316C3.51392 13.5924 2.80677 11.8191 2.80495 9.97521C2.80481 8.19937 3.45915 6.48576 4.6429 5.162C5.82664 3.83823 7.45674 2.99717 9.22156 2.79961ZM12.5219 1.3033C12.2938 1.24575 12.0523 1.27953 11.8487 1.39745C11.6452 1.51537 11.4957 1.70811 11.4322 1.9346C11.3687 2.16109 11.3961 2.40344 11.5086 2.61002C11.6211 2.8166 11.8098 2.97109 12.0346 3.04057C12.2945 3.11397 12.5478 3.20121 12.7945 3.30229C13.0161 3.39288 13.2647 3.39172 13.4854 3.29906C13.7062 3.20639 13.8811 3.02982 13.9717 2.80818C14.0623 2.58654 14.0612 2.33799 13.9685 2.11721C13.8758 1.89642 13.6993 1.72149 13.4776 1.6309C13.1654 1.50394 12.8464 1.39457 12.5219 1.3033ZM14.8521 3.379C14.9323 3.29171 15.0289 3.22106 15.1363 3.1711C15.2438 3.12114 15.3601 3.09283 15.4785 3.0878C15.5969 3.08278 15.7152 3.10112 15.8265 3.14179C15.9378 3.18247 16.04 3.24467 16.1273 3.32485C16.3186 3.49993 16.5018 3.68283 16.6769 3.87356C16.8387 4.04996 16.9238 4.28341 16.9135 4.52256C16.9032 4.76171 16.7983 4.98696 16.6219 5.14876C16.4455 5.31056 16.212 5.39566 15.9729 5.38534C15.7337 5.37501 15.5085 5.27011 15.3467 5.09371C15.2068 4.94129 15.0605 4.79495 14.9081 4.6551C14.8206 4.57505 14.7499 4.47857 14.6997 4.37115C14.6496 4.26374 14.6211 4.14751 14.6159 4.02909C14.6107 3.91067 14.6289 3.79239 14.6694 3.681C14.71 3.56962 14.772 3.4664 14.8521 3.379ZM9.12228 4.56034C9.36164 4.56034 9.59118 4.65542 9.76043 4.82467C9.92968 4.99392 10.0248 5.22347 10.0248 5.46282V9.97521H12.7322C12.9715 9.97521 13.2011 10.0703 13.3703 10.2395C13.5396 10.4088 13.6347 10.6383 13.6347 10.8777C13.6347 11.117 13.5396 11.3466 13.3703 11.5158C13.2011 11.6851 12.9715 11.7802 12.7322 11.7802H9.12228C8.88293 11.7802 8.65339 11.6851 8.48414 11.5158C8.31489 11.3466 8.21981 11.117 8.21981 10.8777V5.46282C8.21981 5.22347 8.31489 4.99392 8.48414 4.82467C8.65339 4.65542 8.88293 4.56034 9.12228 4.56034ZM17.1904 6.02506C17.4119 5.93449 17.6604 5.93562 17.8811 6.0282C18.1018 6.12077 18.2766 6.29722 18.3673 6.51872C18.4949 6.83207 18.6049 7.15235 18.6967 7.47806C18.7323 7.59319 18.7444 7.7143 18.7325 7.83422C18.7205 7.95414 18.6846 8.07045 18.627 8.17628C18.5693 8.28212 18.4911 8.37534 18.3968 8.45044C18.3026 8.52554 18.1942 8.581 18.0782 8.61355C17.9622 8.6461 17.8408 8.65508 17.7212 8.63996C17.6017 8.62484 17.4863 8.58592 17.382 8.52551C17.2778 8.4651 17.1866 8.38441 17.1141 8.28821C17.0415 8.19201 16.9889 8.08225 16.9594 7.96539C16.8862 7.7062 16.7985 7.4513 16.6968 7.2019C16.6061 6.98049 16.6071 6.73216 16.6995 6.51148C16.7919 6.29081 16.9682 6.11585 17.1895 6.02506" fill="black"/>
</svg>
