<svg width="23" height="21" viewBox="0 0 23 21" fill="none" xmlns="http://www.w3.org/2000/svg">
<g clip-path="url(#clip0_798_4074)">
<path d="M15.6406 4.15366L17.8458 6.35887M17.0583 2.21095L11.0927 8.17658C10.7835 8.48371 10.5732 8.87617 10.4885 9.30366L9.9375 12.062L12.6958 11.5099C13.1229 11.4245 13.5146 11.2151 13.8229 10.9068L19.7885 4.94116C19.9678 4.76189 20.11 4.54907 20.207 4.31485C20.3041 4.08062 20.354 3.82958 20.354 3.57606C20.354 3.32253 20.3041 3.07149 20.207 2.83727C20.11 2.60304 19.9678 2.39022 19.7885 2.21095C19.6093 2.03168 19.3965 1.88948 19.1622 1.79246C18.928 1.69544 18.677 1.64551 18.4234 1.64551C18.1699 1.64551 17.9189 1.69544 17.6846 1.79246C17.4504 1.88948 17.2376 2.03168 17.0583 2.21095Z" stroke="#4D4D4D" stroke-width="1.5" stroke-linecap="round" stroke-linejoin="round"/>
<path d="M18.271 14.1452V17.2702C18.271 17.8227 18.0515 18.3526 17.6608 18.7433C17.2701 19.134 16.7402 19.3535 16.1877 19.3535H4.72933C4.17679 19.3535 3.64689 19.134 3.25619 18.7433C2.86549 18.3526 2.646 17.8227 2.646 17.2702V5.81185C2.646 5.25931 2.86549 4.72941 3.25619 4.33871C3.64689 3.94801 4.17679 3.72852 4.72933 3.72852H7.85433" stroke="#4D4D4D" stroke-width="1.5" stroke-linecap="round" stroke-linejoin="round"/>
</g>
<defs>
<clipPath id="clip0_798_4074">
<rect width="21.7082" height="19.7082" fill="white" transform="translate(0.645996 0.645508)"/>
</clipPath>
</defs>
</svg>
