<svg width="40" height="40" viewBox="0 0 40 40" fill="none" xmlns="http://www.w3.org/2000/svg">
<path d="M19.455 12.037C17.995 12.037 15.735 10.377 13.355 10.437C10.215 10.477 7.33498 12.257 5.71498 15.077C2.45498 20.737 4.87498 29.097 8.05498 33.697C9.61498 35.937 11.455 38.457 13.895 38.377C16.235 38.277 17.115 36.857 19.955 36.857C22.775 36.857 23.575 38.377 26.055 38.317C28.575 38.277 30.175 36.037 31.715 33.777C33.495 31.177 34.235 28.657 34.275 28.517C34.215 28.497 29.375 26.637 29.315 21.037C29.275 16.357 33.135 14.117 33.315 14.017C31.115 10.797 27.735 10.437 26.555 10.357C23.475 10.117 20.895 12.037 19.455 12.037ZM24.655 7.31699C25.955 5.75699 26.815 3.57699 26.575 1.41699C24.715 1.49699 22.475 2.65699 21.135 4.21699C19.935 5.59699 18.895 7.81699 19.175 9.93699C21.235 10.097 23.355 8.87699 24.655 7.31699Z" fill="black"/>
</svg>
