<svg width="15" height="15" viewBox="0 0 15 15" fill="none" xmlns="http://www.w3.org/2000/svg">
<path d="M3.28125 5C3.28125 4.54416 3.46233 4.10699 3.78466 3.78466C4.10699 3.46233 4.54416 3.28125 5 3.28125C5.45584 3.28125 5.89301 3.46233 6.21534 3.78466C6.53767 4.10699 6.71875 4.54416 6.71875 5C6.71875 5.45584 6.53767 5.89301 6.21534 6.21534C5.89301 6.53767 5.45584 6.71875 5 6.71875C4.54416 6.71875 4.10699 6.53767 3.78466 6.21534C3.46233 5.89301 3.28125 5.45584 3.28125 5ZM5 2.5C4.33696 2.5 3.70107 2.76339 3.23223 3.23223C2.76339 3.70107 2.5 4.33696 2.5 5C2.5 5.66304 2.76339 6.29893 3.23223 6.76777C3.70107 7.23661 4.33696 7.5 5 7.5C5.66304 7.5 6.29893 7.23661 6.76777 6.76777C7.23661 6.29893 7.5 5.66304 7.5 5C7.5 4.33696 7.23661 3.70107 6.76777 3.23223C6.29893 2.76339 5.66304 2.5 5 2.5ZM9.53125 5.625C9.53125 5.33492 9.64648 5.05672 9.8516 4.8516C10.0567 4.64648 10.3349 4.53125 10.625 4.53125C10.9151 4.53125 11.1933 4.64648 11.3984 4.8516C11.6035 5.05672 11.7187 5.33492 11.7187 5.625C11.7187 5.91508 11.6035 6.19328 11.3984 6.3984C11.1933 6.60352 10.9151 6.71875 10.625 6.71875C10.3349 6.71875 10.0567 6.60352 9.8516 6.3984C9.64648 6.19328 9.53125 5.91508 9.53125 5.625ZM10.625 3.75C10.1277 3.75 9.6508 3.94754 9.29917 4.29917C8.94754 4.65081 8.75 5.12772 8.75 5.625C8.75 6.12228 8.94754 6.59919 9.29917 6.95083C9.6508 7.30246 10.1277 7.5 10.625 7.5C11.1223 7.5 11.5992 7.30246 11.9508 6.95083C12.3025 6.59919 12.5 6.12228 12.5 5.625C12.5 5.12772 12.3025 4.65081 11.9508 4.29917C11.5992 3.94754 11.1223 3.75 10.625 3.75ZM10.625 12.1875C9.945 12.1875 9.39937 12.0775 8.96375 11.8994L9.02187 11.8244C9.17625 11.6209 9.29469 11.4172 9.38531 11.2241C9.70406 11.335 10.1091 11.4062 10.6247 11.4062C11.9609 11.4062 12.5537 10.9272 12.8319 10.5216C12.9903 10.2885 13.0895 10.0203 13.1209 9.74031C13.1227 9.72202 13.124 9.70368 13.1247 9.68531V9.60938C13.1247 9.39375 12.9497 9.21875 12.7341 9.21875H9.64469C9.58088 8.9298 9.44609 8.6613 9.2525 8.4375H12.7344C13.0452 8.4375 13.3432 8.56096 13.563 8.78073C13.7828 9.0005 13.9062 9.29857 13.9062 9.60938V9.70219L13.9053 9.72906C13.9043 9.75115 13.9022 9.78021 13.8991 9.81625C13.8547 10.2274 13.7097 10.6213 13.4769 10.9631C13.0316 11.6119 12.1791 12.1875 10.6244 12.1875M2.10937 8.4375C1.79857 8.4375 1.5005 8.56096 1.28073 8.78073C1.06097 9.0005 0.9375 9.29857 0.9375 9.60938V10.0166L0.93875 10.0469C0.94 10.0719 0.942708 10.105 0.946875 10.1462C0.955937 10.2281 0.973125 10.3406 1.00687 10.4744C1.09655 10.8266 1.25594 11.1573 1.47562 11.4469C2.02469 12.1706 3.07062 12.8125 5 12.8125C6.92937 12.8125 7.97562 12.1706 8.52406 11.4469C8.7439 11.1572 8.9034 10.8264 8.99312 10.4741C9.02687 10.3406 9.04406 10.2281 9.05312 10.1459C9.05774 10.1029 9.06087 10.0598 9.0625 10.0166V9.60938C9.0625 9.45548 9.03219 9.3031 8.9733 9.16092C8.9144 9.01874 8.82808 8.88955 8.71927 8.78073C8.61045 8.67192 8.48126 8.5856 8.33908 8.5267C8.1969 8.46781 8.04452 8.4375 7.89062 8.4375H2.10937ZM1.71906 10.0075L1.71875 9.9975V9.60938C1.71875 9.39375 1.89375 9.21875 2.10937 9.21875H7.89062C8.10625 9.21875 8.28125 9.39375 8.28125 9.60938V9.9975L8.28094 10.0075C8.27416 10.1003 8.2591 10.1924 8.23594 10.2825C8.17187 10.5334 8.05817 10.7688 7.90156 10.975C7.53219 11.4625 6.74219 12.0312 5 12.0312C3.25781 12.0312 2.46781 11.4625 2.09844 10.975C1.94187 10.7689 1.82817 10.5336 1.76406 10.2828C1.74088 10.1926 1.72582 10.1004 1.71906 10.0075Z" fill="#4D4D4D"/>
</svg>
