<svg width="659" height="433" viewBox="0 0 659 433" fill="none" xmlns="http://www.w3.org/2000/svg">
<rect x="0.0288086" y="0.112061" width="658" height="432" fill="black"/>
<rect x="0.0288086" y="0.112061" width="658" height="432" fill="url(#paint0_linear_78_243)"/>
<path d="M380.491 220.523C379.756 220.523 379.021 220.523 379.021 220.523C382.697 213.906 384.167 205.819 384.167 197.732C384.167 169.06 361.377 146.269 332.705 146.269C304.033 146.269 281.242 169.06 281.242 197.732C281.242 199.938 281.242 202.879 281.977 205.084C260.657 206.555 244.483 224.199 244.483 245.52C244.483 267.575 262.863 285.955 284.918 285.955H380.491C398.871 285.955 413.574 271.251 413.574 252.871C413.574 235.227 398.871 220.523 380.491 220.523Z" fill="url(#paint1_linear_78_243)"/>
<defs>
<linearGradient id="paint0_linear_78_243" x1="0.0344886" y1="0.0242069" x2="396.4" y2="603.854" gradientUnits="userSpaceOnUse">
<stop stop-color="#F272A8"/>
<stop offset="1" stop-color="#4353FF"/>
</linearGradient>
<linearGradient id="paint1_linear_78_243" x1="329.029" y1="146.269" x2="400.841" y2="285.955" gradientUnits="userSpaceOnUse">
<stop stop-color="white"/>
<stop offset="1" stop-color="white" stop-opacity="0.3"/>
</linearGradient>
</defs>
</svg>
