<?xml version="1.0" standalone="no"?>
<!DOCTYPE svg PUBLIC "-//W3C//DTD SVG 20010904//EN"
 "http://www.w3.org/TR/2001/REC-SVG-20010904/DTD/svg10.dtd">
<svg version="1.0" xmlns="http://www.w3.org/2000/svg"
 width="512.000000pt" height="512.000000pt" viewBox="0 0 512.000000 512.000000"
 preserveAspectRatio="xMidYMid meet">

<g transform="translate(0.000000,512.000000) scale(0.100000,-0.100000)"
fill="#000000" stroke="none">
<path d="M2368 4845 c-121 -39 -239 -160 -274 -282 -24 -84 -16 -211 19 -287
72 -156 210 -246 378 -248 171 -1 310 86 381 239 99 210 9 458 -200 556 -58
27 -79 32 -162 34 -64 2 -110 -2 -142 -12z m268 -170 c94 -58 146 -177 124
-282 -23 -108 -106 -190 -214 -213 -106 -22 -223 30 -281 124 -24 40 -30 62
-34 123 -4 92 14 145 70 203 62 63 108 81 205 78 70 -3 87 -7 130 -33z"/>
<path d="M780 4208 c-30 -32 -28 -101 5 -133 13 -14 36 -25 50 -25 38 0 75 41
75 85 0 37 -14 74 -34 87 -23 16 -75 8 -96 -14z"/>
<path d="M3846 4099 c-22 -18 -26 -28 -26 -74 0 -46 4 -56 26 -74 15 -12 34
-21 44 -21 10 0 29 9 44 21 22 18 26 28 26 74 0 46 -4 56 -26 74 -15 12 -34
21 -44 21 -10 0 -29 -9 -44 -21z"/>
<path d="M590 4007 c-13 -7 -31 -24 -39 -38 -44 -78 89 -150 154 -84 40 39 32
96 -16 120 -34 18 -66 19 -99 2z"/>
<path d="M984 4006 c-33 -15 -44 -33 -44 -71 0 -39 31 -66 82 -72 43 -5 50 -3
79 26 25 26 30 37 24 59 -14 59 -80 86 -141 58z"/>
<path d="M2254 3989 c-17 -19 -19 -38 -19 -219 0 -181 2 -200 19 -219 28 -31
73 -27 136 14 76 49 134 49 210 0 68 -43 110 -46 139 -9 20 25 21 40 21 214 0
174 -1 189 -21 214 -29 37 -68 34 -139 -10 -44 -27 -69 -36 -104 -36 -35 0
-59 9 -103 36 -67 41 -111 46 -139 15z m272 -196 l84 5 0 -34 c0 -32 -1 -33
-26 -24 -32 13 -129 13 -172 1 l-32 -10 0 39 0 39 31 -11 c18 -6 66 -9 115 -5z"/>
<path d="M1979 3966 c-81 -33 -119 -59 -176 -119 -59 -62 -105 -148 -123 -227
-8 -38 -11 -152 -8 -373 l3 -317 -218 0 -218 0 -24 -25 -25 -24 0 -249 c0
-237 1 -251 21 -276 19 -25 25 -26 110 -26 l89 0 0 -965 0 -965 -385 0 c-372
0 -386 -1 -405 -20 -25 -25 -26 -74 -2 -98 18 -18 56 -19 643 -25 794 -9 1674
-9 2468 0 587 6 625 7 643 25 22 22 23 66 2 96 l-15 22 -390 0 -389 0 0 965 0
965 89 0 c85 0 91 1 110 26 20 25 21 39 21 276 l0 249 -25 24 -24 25 -218 0
-218 0 3 332 c3 309 1 336 -17 397 -37 120 -130 229 -244 286 -38 19 -85 35
-103 35 -57 0 -89 -50 -68 -105 4 -10 37 -30 73 -47 83 -37 145 -96 182 -173
l29 -60 0 -308 0 -308 -25 -24 c-29 -30 -74 -32 -106 -6 -23 18 -24 25 -29
189 -6 195 -12 212 -81 212 -66 0 -71 -18 -67 -234 l3 -186 -370 0 -370 0 3
191 c4 218 0 229 -68 229 -64 0 -70 -15 -70 -184 0 -157 -10 -205 -48 -225
-34 -18 -71 -13 -97 14 l-25 24 0 300 c0 345 5 369 86 460 43 48 130 101 165
101 33 0 69 39 69 76 0 73 -60 92 -161 50z m1671 -1336 l0 -150 -1155 0 -1155
0 0 150 0 150 1155 0 1155 0 0 -150z m-220 -1265 l0 -955 -935 0 -935 0 0 955
0 955 935 0 935 0 0 -955z"/>
<path d="M1730 2160 c-20 -20 -20 -33 -20 -795 0 -762 0 -775 20 -795 20 -20
33 -20 764 -20 717 0 745 1 767 19 l24 19 0 775 c0 748 -1 776 -19 796 -19 21
-19 21 -768 21 -735 0 -748 0 -768 -20z m1410 -795 l0 -665 -645 0 -645 0 0
665 0 665 645 0 645 0 0 -665z"/>
<path d="M3626 3879 c-45 -36 -33 -106 23 -129 60 -24 122 4 136 62 6 22 1 33
-23 58 -38 37 -95 41 -136 9z"/>
<path d="M4018 3870 c-24 -25 -29 -36 -23 -58 14 -57 71 -83 133 -61 89 31 58
149 -38 149 -33 0 -48 -6 -72 -30z"/>
<path d="M786 3809 c-22 -18 -26 -28 -26 -74 0 -46 4 -56 26 -74 59 -46 124
-7 124 74 0 81 -65 120 -124 74z"/>
<path d="M3840 3692 c-15 -12 -24 -33 -27 -64 -5 -43 -3 -50 26 -79 26 -25 37
-30 59 -24 58 14 83 67 62 130 -18 55 -76 73 -120 37z"/>
<path d="M2441 3364 c-17 -21 -21 -41 -21 -94 0 -78 16 -106 67 -116 26 -5 37
-1 57 19 23 23 26 34 26 100 0 60 -4 77 -20 95 -30 32 -82 30 -109 -4z"/>
<path d="M785 2085 c-53 -52 -19 -155 50 -155 44 0 75 38 75 92 0 47 -35 88
-75 88 -14 0 -37 -11 -50 -25z"/>
<path d="M565 1865 c-55 -54 -13 -125 73 -125 38 0 53 5 70 23 29 31 29 77 -1
105 -34 32 -109 31 -142 -3z"/>
<path d="M966 1869 c-34 -27 -36 -77 -3 -107 17 -16 36 -22 69 -22 62 0 92 25
92 75 0 27 -6 43 -23 56 -32 26 -100 25 -135 -2z"/>
<path d="M804 1695 c-36 -15 -44 -31 -44 -89 0 -52 31 -86 76 -86 45 0 74 36
74 91 -1 72 -47 109 -106 84z"/>
<path d="M4231 1674 c-47 -60 -11 -154 58 -154 65 0 98 111 48 158 -33 31 -80
29 -106 -4z"/>
<path d="M4011 1454 c-25 -32 -26 -46 -6 -83 17 -33 33 -41 84 -41 54 0 91 31
91 76 0 52 -28 74 -94 74 -47 0 -57 -4 -75 -26z"/>
<path d="M4412 1457 c-50 -54 -9 -127 73 -127 75 0 118 65 78 118 -17 23 -29
27 -74 30 -47 2 -58 -1 -77 -21z"/>
<path d="M4253 1290 c-29 -12 -43 -40 -43 -90 0 -76 67 -114 124 -69 22 17 26
28 26 69 0 73 -49 114 -107 90z"/>
</g>
</svg>
