<svg width="25" height="26" viewBox="0 0 25 26" fill="none" xmlns="http://www.w3.org/2000/svg">
<path d="M4.83333 3C3.81667 3 2.84165 3.40387 2.12276 4.12276C1.40387 4.84165 1 5.81667 1 6.83333V17.5667C1 18.5833 1.40387 19.5584 2.12276 20.2772C2.84165 20.9961 3.81667 21.4 4.83333 21.4H8.98407C8.84236 20.8987 8.7474 20.3854 8.7004 19.8667H4.83333C4.22334 19.8667 3.63832 19.6243 3.20699 19.193C2.77565 18.7617 2.53333 18.1767 2.53333 17.5667V6.83333C2.53333 6.22334 2.77565 5.63832 3.20699 5.20699C3.63832 4.77565 4.22334 4.53333 4.83333 4.53333H15.5667C16.1767 4.53333 16.7617 4.77565 17.193 5.20699C17.6243 5.63832 17.8667 6.22334 17.8667 6.83333V10.7004C18.3941 10.7495 18.9052 10.844 19.4 10.9841V6.83333C19.4 5.81667 18.9961 4.84165 18.2772 4.12276C17.5584 3.40387 16.5833 3 15.5667 3H4.83333ZM12.2501 12.2H7.51667C6.45867 12.2 5.54173 13.0663 5.72267 14.1105C5.96493 15.5105 6.6856 17.0024 8.83073 17.4379C9.25692 15.3181 10.481 13.4431 12.2501 12.2ZM12.5 8.36667C12.5 8.66871 12.4405 8.96779 12.3249 9.24684C12.2093 9.52589 12.0399 9.77944 11.8263 9.99301C11.6128 10.2066 11.3592 10.376 11.0802 10.4916C10.8011 10.6072 10.502 10.6667 10.2 10.6667C9.89796 10.6667 9.59888 10.6072 9.31983 10.4916C9.04078 10.376 8.78723 10.2066 8.57365 9.99301C8.36008 9.77944 8.19066 9.52589 8.07508 9.24684C7.95949 8.96779 7.9 8.66871 7.9 8.36667C7.9 7.75667 8.14232 7.17165 8.57365 6.74032C9.00499 6.30899 9.59 6.06667 10.2 6.06667C10.81 6.06667 11.395 6.30899 11.8263 6.74032C12.2577 7.17165 12.5 7.75667 12.5 8.36667ZM24 19.1C24 20.93 23.273 22.685 21.979 23.979C20.685 25.273 18.93 26 17.1 26C15.27 26 13.515 25.273 12.221 23.979C10.927 22.685 10.2 20.93 10.2 19.1C10.2 17.27 10.927 15.515 12.221 14.221C13.515 12.927 15.27 12.2 17.1 12.2C18.93 12.2 20.685 12.927 21.979 14.221C23.273 15.515 24 17.27 24 19.1ZM17.8667 16.0333C17.8667 15.83 17.7859 15.635 17.6421 15.4912C17.4983 15.3474 17.3033 15.2667 17.1 15.2667C16.8967 15.2667 16.7017 15.3474 16.5579 15.4912C16.4141 15.635 16.3333 15.83 16.3333 16.0333V18.3333H14.0333C13.83 18.3333 13.635 18.4141 13.4912 18.5579C13.3474 18.7017 13.2667 18.8967 13.2667 19.1C13.2667 19.3033 13.3474 19.4983 13.4912 19.6421C13.635 19.7859 13.83 19.8667 14.0333 19.8667H16.3333V22.1667C16.3333 22.37 16.4141 22.565 16.5579 22.7088C16.7017 22.8526 16.8967 22.9333 17.1 22.9333C17.3033 22.9333 17.4983 22.8526 17.6421 22.7088C17.7859 22.565 17.8667 22.37 17.8667 22.1667V19.8667H20.1667C20.37 19.8667 20.565 19.7859 20.7088 19.6421C20.8526 19.4983 20.9333 19.3033 20.9333 19.1C20.9333 18.8967 20.8526 18.7017 20.7088 18.5579C20.565 18.4141 20.37 18.3333 20.1667 18.3333H17.8667V16.0333Z" fill="black" fill-opacity="0.7"/>
</svg>
