<svg width="285" height="26" viewBox="0 0 285 26" fill="none" xmlns="http://www.w3.org/2000/svg">
<path d="M0.92 16.92C1.06 16.9267 1.24333 16.9333 1.47 16.94C1.69667 16.9467 1.92 16.95 2.14 16.95C2.45333 16.95 2.75333 16.9467 3.04 16.94C3.32667 16.9333 3.53 16.93 3.65 16.93C4.45667 16.93 5.06 17.1133 5.46 17.48C5.86 17.8467 6.06 18.32 6.06 18.9C6.06 19.14 6.02 19.3933 5.94 19.66C5.86 19.92 5.72 20.1633 5.52 20.39C5.32667 20.61 5.06 20.79 4.72 20.93C4.38 21.07 3.95 21.14 3.43 21.14H2.47V20.94H3.33C3.80333 20.94 4.16333 20.85 4.41 20.67C4.66333 20.49 4.83333 20.2533 4.92 19.96C5.01333 19.6667 5.06 19.35 5.06 19.01C5.06 18.3767 4.93333 17.9033 4.68 17.59C4.43333 17.2767 4.00667 17.12 3.4 17.12C3.09333 17.12 2.89333 17.1767 2.8 17.29C2.70667 17.4033 2.66 17.6333 2.66 17.98V22.94C2.66 23.18 2.68333 23.36 2.73 23.48C2.78333 23.6 2.88333 23.68 3.03 23.72C3.17667 23.76 3.39 23.7867 3.67 23.8V24C3.49667 23.9867 3.27667 23.98 3.01 23.98C2.74333 23.9733 2.47333 23.97 2.2 23.97C1.94 23.97 1.69667 23.9733 1.47 23.98C1.24333 23.98 1.06 23.9867 0.92 24V23.8C1.14667 23.7867 1.31667 23.76 1.43 23.72C1.55 23.68 1.63 23.6 1.67 23.48C1.71 23.36 1.73 23.18 1.73 22.94V17.98C1.73 17.7333 1.71 17.5533 1.67 17.44C1.63 17.32 1.55 17.24 1.43 17.2C1.31667 17.1533 1.14667 17.1267 0.92 17.12V16.92ZM9.74961 18.71C9.92961 18.71 10.0863 18.7467 10.2196 18.82C10.3596 18.8933 10.4663 18.99 10.5396 19.11C10.6196 19.2233 10.6596 19.3533 10.6596 19.5C10.6596 19.6667 10.6063 19.8133 10.4996 19.94C10.3996 20.0667 10.2629 20.13 10.0896 20.13C9.94961 20.13 9.82628 20.0867 9.71961 20C9.61294 19.9067 9.55961 19.7767 9.55961 19.61C9.55961 19.4833 9.59294 19.3767 9.65961 19.29C9.73294 19.1967 9.81294 19.1233 9.89961 19.07C9.85294 19.0033 9.78294 18.97 9.68961 18.97C9.48294 18.97 9.29294 19.0333 9.11961 19.16C8.94628 19.28 8.79961 19.4367 8.67961 19.63C8.55961 19.8233 8.46628 20.03 8.39961 20.25C8.33294 20.4633 8.29961 20.6633 8.29961 20.85V22.97C8.29961 23.2967 8.39294 23.5167 8.57961 23.63C8.77294 23.7367 9.03294 23.79 9.35961 23.79V24C9.20628 23.9933 8.98961 23.9867 8.70961 23.98C8.42961 23.9667 8.13294 23.96 7.81961 23.96C7.59294 23.96 7.36628 23.9667 7.13961 23.98C6.91961 23.9867 6.75294 23.9933 6.63961 24V23.79C6.91294 23.79 7.10628 23.74 7.21961 23.64C7.33961 23.54 7.39961 23.35 7.39961 23.07V19.94C7.39961 19.64 7.34628 19.42 7.23961 19.28C7.13294 19.1333 6.93294 19.06 6.63961 19.06V18.85C6.85294 18.87 7.05961 18.88 7.25961 18.88C7.45294 18.88 7.63628 18.87 7.80961 18.85C7.98961 18.8233 8.15294 18.7867 8.29961 18.74V19.99C8.37294 19.7967 8.47628 19.6033 8.60961 19.41C8.74961 19.21 8.91628 19.0433 9.10961 18.91C9.30294 18.7767 9.51628 18.71 9.74961 18.71ZM13.3474 18.71C13.7741 18.71 14.1574 18.8033 14.4974 18.99C14.8374 19.1767 15.1074 19.47 15.3074 19.87C15.5141 20.27 15.6174 20.79 15.6174 21.43C15.6174 22.07 15.5141 22.59 15.3074 22.99C15.1074 23.3833 14.8374 23.6733 14.4974 23.86C14.1574 24.0467 13.7741 24.14 13.3474 24.14C12.9274 24.14 12.5441 24.0467 12.1974 23.86C11.8574 23.6733 11.5841 23.3833 11.3774 22.99C11.1774 22.59 11.0774 22.07 11.0774 21.43C11.0774 20.79 11.1774 20.27 11.3774 19.87C11.5841 19.47 11.8574 19.1767 12.1974 18.99C12.5441 18.8033 12.9274 18.71 13.3474 18.71ZM13.3474 18.91C12.9674 18.91 12.6541 19.1067 12.4074 19.5C12.1674 19.8933 12.0474 20.5367 12.0474 21.43C12.0474 22.3233 12.1674 22.9667 12.4074 23.36C12.6541 23.7467 12.9674 23.94 13.3474 23.94C13.7274 23.94 14.0374 23.7467 14.2774 23.36C14.5241 22.9667 14.6474 22.3233 14.6474 21.43C14.6474 20.5367 14.5241 19.8933 14.2774 19.5C14.0374 19.1067 13.7274 18.91 13.3474 18.91ZM19.7359 16.18C19.9226 16.18 20.0993 16.1933 20.2659 16.22C20.4326 16.2467 20.5859 16.2833 20.7259 16.33C20.8659 16.37 20.9826 16.42 21.0759 16.48C21.1826 16.5467 21.2659 16.6267 21.3259 16.72C21.3859 16.8067 21.4159 16.91 21.4159 17.03C21.4159 17.21 21.3526 17.3633 21.2259 17.49C21.0993 17.6167 20.9493 17.68 20.7759 17.68C20.6026 17.68 20.4526 17.6167 20.3259 17.49C20.1993 17.3633 20.1359 17.2133 20.1359 17.04C20.1359 16.92 20.1659 16.81 20.2259 16.71C20.2859 16.61 20.3659 16.5333 20.4659 16.48C20.3793 16.4267 20.2693 16.39 20.1359 16.37C20.0026 16.3433 19.8693 16.33 19.7359 16.33C19.3893 16.33 19.0993 16.4 18.8659 16.54C18.6326 16.68 18.4493 16.8667 18.3159 17.1C18.2226 17.2667 18.1526 17.48 18.1059 17.74C18.0659 18 18.0459 18.3733 18.0459 18.86H19.6559C19.9226 18.86 20.1526 18.8567 20.3459 18.85C20.5393 18.8433 20.7126 18.8333 20.8659 18.82C21.0193 18.8 21.1693 18.7733 21.3159 18.74V23.07C21.3159 23.35 21.3726 23.54 21.4859 23.64C21.6059 23.74 21.8026 23.79 22.0759 23.79V24C21.9626 23.9933 21.7893 23.9867 21.5559 23.98C21.3293 23.9667 21.0993 23.96 20.8659 23.96C20.6393 23.96 20.4093 23.9667 20.1759 23.98C19.9426 23.9867 19.7693 23.9933 19.6559 24V23.79C19.9293 23.79 20.1226 23.74 20.2359 23.64C20.3559 23.54 20.4159 23.35 20.4159 23.07V19.94C20.4159 19.64 20.3626 19.42 20.2559 19.28C20.1493 19.1333 19.9493 19.06 19.6559 19.06H18.0459V23.07C18.0459 23.3567 18.1226 23.55 18.2759 23.65C18.4293 23.7433 18.6393 23.79 18.9059 23.79V24C18.7726 23.9933 18.5826 23.9867 18.3359 23.98C18.0959 23.9667 17.8493 23.96 17.5959 23.96C17.3493 23.96 17.1126 23.9667 16.8859 23.98C16.6659 23.9867 16.4993 23.9933 16.3859 24V23.79C16.6593 23.79 16.8526 23.74 16.9659 23.64C17.0859 23.54 17.1459 23.35 17.1459 23.07V19.06H16.3459V18.86H17.1459C17.1459 18.4333 17.1993 18.05 17.3059 17.71C17.4193 17.37 17.6059 17.0767 17.8659 16.83C18.0593 16.65 18.3093 16.4967 18.6159 16.37C18.9226 16.2433 19.2959 16.18 19.7359 16.18ZM24.1769 16.16V23.07C24.1769 23.35 24.2335 23.54 24.3469 23.64C24.4669 23.74 24.6635 23.79 24.9369 23.79V24C24.8235 23.9933 24.6502 23.9867 24.4169 23.98C24.1902 23.9667 23.9602 23.96 23.7269 23.96C23.5002 23.96 23.2702 23.9667 23.0369 23.98C22.8035 23.9867 22.6302 23.9933 22.5169 24V23.79C22.7902 23.79 22.9835 23.74 23.0969 23.64C23.2169 23.54 23.2769 23.35 23.2769 23.07V17.36C23.2769 17.06 23.2235 16.84 23.1169 16.7C23.0102 16.5533 22.8102 16.48 22.5169 16.48V16.27C22.7302 16.29 22.9369 16.3 23.1369 16.3C23.3302 16.3 23.5135 16.29 23.6869 16.27C23.8669 16.2433 24.0302 16.2067 24.1769 16.16ZM27.7805 18.71C28.3672 18.71 28.8239 18.89 29.1505 19.25C29.4839 19.6033 29.6505 20.1567 29.6505 20.91H26.1205L26.1105 20.72H28.6905C28.7039 20.3933 28.6772 20.0933 28.6105 19.82C28.5439 19.54 28.4372 19.3167 28.2905 19.15C28.1505 18.9833 27.9672 18.9 27.7405 18.9C27.4339 18.9 27.1605 19.0533 26.9205 19.36C26.6872 19.6667 26.5472 20.1533 26.5005 20.82L26.5305 20.86C26.5172 20.96 26.5072 21.07 26.5005 21.19C26.4939 21.31 26.4905 21.43 26.4905 21.55C26.4905 22.0033 26.5639 22.3933 26.7105 22.72C26.8572 23.0467 27.0472 23.2967 27.2805 23.47C27.5205 23.6367 27.7672 23.72 28.0205 23.72C28.2205 23.72 28.4105 23.69 28.5905 23.63C28.7705 23.5633 28.9372 23.4567 29.0905 23.31C29.2439 23.1633 29.3772 22.9667 29.4905 22.72L29.6905 22.8C29.6172 23.02 29.4972 23.2333 29.3305 23.44C29.1639 23.6467 28.9539 23.8167 28.7005 23.95C28.4472 24.0767 28.1539 24.14 27.8205 24.14C27.3405 24.14 26.9272 24.03 26.5805 23.81C26.2405 23.59 25.9772 23.2867 25.7905 22.9C25.6105 22.5067 25.5205 22.0567 25.5205 21.55C25.5205 20.9633 25.6139 20.46 25.8005 20.04C25.9872 19.6133 26.2505 19.2867 26.5905 19.06C26.9305 18.8267 27.3272 18.71 27.7805 18.71Z" fill="#00744F"/>
<path d="M119.87 16.92V17.12C119.743 17.1467 119.607 17.2233 119.46 17.35C119.32 17.4767 119.193 17.69 119.08 17.99L116.73 24.05C116.717 24.05 116.703 24.05 116.69 24.05C116.677 24.05 116.663 24.05 116.65 24.05C116.637 24.05 116.623 24.05 116.61 24.05C116.597 24.05 116.583 24.05 116.57 24.05L114.13 17.76C114.03 17.5067 113.917 17.34 113.79 17.26C113.663 17.1733 113.547 17.1267 113.44 17.12V16.92C113.573 16.9267 113.737 16.9333 113.93 16.94C114.13 16.9467 114.323 16.95 114.51 16.95C114.77 16.95 115.013 16.9467 115.24 16.94C115.467 16.9333 115.65 16.9267 115.79 16.92V17.12C115.563 17.1267 115.39 17.1533 115.27 17.2C115.157 17.2467 115.093 17.33 115.08 17.45C115.073 17.5633 115.113 17.7333 115.2 17.96L117.06 22.89L116.9 23.06L118.64 18.54C118.78 18.18 118.847 17.9 118.84 17.7C118.833 17.4933 118.757 17.3467 118.61 17.26C118.463 17.1733 118.25 17.1267 117.97 17.12V16.92C118.163 16.9267 118.36 16.9333 118.56 16.94C118.76 16.9467 118.947 16.95 119.12 16.95C119.293 16.95 119.437 16.9467 119.55 16.94C119.663 16.9333 119.77 16.9267 119.87 16.92ZM121.923 18.71C122.51 18.71 122.966 18.89 123.293 19.25C123.626 19.6033 123.793 20.1567 123.793 20.91H120.263L120.253 20.72H122.833C122.846 20.3933 122.82 20.0933 122.753 19.82C122.686 19.54 122.58 19.3167 122.433 19.15C122.293 18.9833 122.11 18.9 121.883 18.9C121.576 18.9 121.303 19.0533 121.063 19.36C120.83 19.6667 120.69 20.1533 120.643 20.82L120.673 20.86C120.66 20.96 120.65 21.07 120.643 21.19C120.636 21.31 120.633 21.43 120.633 21.55C120.633 22.0033 120.706 22.3933 120.853 22.72C121 23.0467 121.19 23.2967 121.423 23.47C121.663 23.6367 121.91 23.72 122.163 23.72C122.363 23.72 122.553 23.69 122.733 23.63C122.913 23.5633 123.08 23.4567 123.233 23.31C123.386 23.1633 123.52 22.9667 123.633 22.72L123.833 22.8C123.76 23.02 123.64 23.2333 123.473 23.44C123.306 23.6467 123.096 23.8167 122.843 23.95C122.59 24.0767 122.296 24.14 121.963 24.14C121.483 24.14 121.07 24.03 120.723 23.81C120.383 23.59 120.12 23.2867 119.933 22.9C119.753 22.5067 119.663 22.0567 119.663 21.55C119.663 20.9633 119.756 20.46 119.943 20.04C120.13 19.6133 120.393 19.2867 120.733 19.06C121.073 18.8267 121.47 18.71 121.923 18.71ZM127.662 18.71C127.842 18.71 127.998 18.7467 128.132 18.82C128.272 18.8933 128.378 18.99 128.452 19.11C128.532 19.2233 128.572 19.3533 128.572 19.5C128.572 19.6667 128.518 19.8133 128.412 19.94C128.312 20.0667 128.175 20.13 128.002 20.13C127.862 20.13 127.738 20.0867 127.632 20C127.525 19.9067 127.472 19.7767 127.472 19.61C127.472 19.4833 127.505 19.3767 127.572 19.29C127.645 19.1967 127.725 19.1233 127.812 19.07C127.765 19.0033 127.695 18.97 127.602 18.97C127.395 18.97 127.205 19.0333 127.032 19.16C126.858 19.28 126.712 19.4367 126.592 19.63C126.472 19.8233 126.378 20.03 126.312 20.25C126.245 20.4633 126.212 20.6633 126.212 20.85V22.97C126.212 23.2967 126.305 23.5167 126.492 23.63C126.685 23.7367 126.945 23.79 127.272 23.79V24C127.118 23.9933 126.902 23.9867 126.622 23.98C126.342 23.9667 126.045 23.96 125.732 23.96C125.505 23.96 125.278 23.9667 125.052 23.98C124.832 23.9867 124.665 23.9933 124.552 24V23.79C124.825 23.79 125.018 23.74 125.132 23.64C125.252 23.54 125.312 23.35 125.312 23.07V19.94C125.312 19.64 125.258 19.42 125.152 19.28C125.045 19.1333 124.845 19.06 124.552 19.06V18.85C124.765 18.87 124.972 18.88 125.172 18.88C125.365 18.88 125.548 18.87 125.722 18.85C125.902 18.8233 126.065 18.7867 126.212 18.74V19.99C126.285 19.7967 126.388 19.6033 126.522 19.41C126.662 19.21 126.828 19.0433 127.022 18.91C127.215 18.7767 127.428 18.71 127.662 18.71ZM130.145 16.35C130.318 16.35 130.468 16.4133 130.595 16.54C130.722 16.6667 130.785 16.8167 130.785 16.99C130.785 17.1633 130.722 17.3133 130.595 17.44C130.468 17.5667 130.318 17.63 130.145 17.63C129.972 17.63 129.822 17.5667 129.695 17.44C129.568 17.3133 129.505 17.1633 129.505 16.99C129.505 16.8167 129.568 16.6667 129.695 16.54C129.822 16.4133 129.972 16.35 130.145 16.35ZM130.665 18.74V23.07C130.665 23.35 130.722 23.54 130.835 23.64C130.955 23.74 131.152 23.79 131.425 23.79V24C131.312 23.9933 131.138 23.9867 130.905 23.98C130.678 23.9667 130.448 23.96 130.215 23.96C129.988 23.96 129.758 23.9667 129.525 23.98C129.292 23.9867 129.118 23.9933 129.005 24V23.79C129.278 23.79 129.472 23.74 129.585 23.64C129.705 23.54 129.765 23.35 129.765 23.07V19.94C129.765 19.64 129.712 19.42 129.605 19.28C129.498 19.1333 129.298 19.06 129.005 19.06V18.85C129.218 18.87 129.425 18.88 129.625 18.88C129.818 18.88 130.002 18.87 130.175 18.85C130.355 18.8233 130.518 18.7867 130.665 18.74ZM135.295 16.18C135.481 16.18 135.658 16.1933 135.825 16.22C135.991 16.2467 136.145 16.2833 136.285 16.33C136.425 16.37 136.541 16.42 136.635 16.48C136.741 16.5467 136.825 16.6267 136.885 16.72C136.945 16.8067 136.975 16.91 136.975 17.03C136.975 17.21 136.911 17.3633 136.785 17.49C136.658 17.6167 136.508 17.68 136.335 17.68C136.161 17.68 136.011 17.6167 135.885 17.49C135.758 17.3633 135.695 17.2133 135.695 17.04C135.695 16.92 135.725 16.81 135.785 16.71C135.845 16.61 135.925 16.5333 136.025 16.48C135.938 16.4267 135.828 16.39 135.695 16.37C135.561 16.3433 135.428 16.33 135.295 16.33C134.948 16.33 134.658 16.4 134.425 16.54C134.191 16.68 134.008 16.8667 133.875 17.1C133.781 17.2667 133.711 17.48 133.665 17.74C133.625 18 133.605 18.3733 133.605 18.86H135.215C135.481 18.86 135.711 18.8567 135.905 18.85C136.098 18.8433 136.271 18.8333 136.425 18.82C136.578 18.8 136.728 18.7733 136.875 18.74V23.07C136.875 23.35 136.931 23.54 137.045 23.64C137.165 23.74 137.361 23.79 137.635 23.79V24C137.521 23.9933 137.348 23.9867 137.115 23.98C136.888 23.9667 136.658 23.96 136.425 23.96C136.198 23.96 135.968 23.9667 135.735 23.98C135.501 23.9867 135.328 23.9933 135.215 24V23.79C135.488 23.79 135.681 23.74 135.795 23.64C135.915 23.54 135.975 23.35 135.975 23.07V19.94C135.975 19.64 135.921 19.42 135.815 19.28C135.708 19.1333 135.508 19.06 135.215 19.06H133.605V23.07C133.605 23.3567 133.681 23.55 133.835 23.65C133.988 23.7433 134.198 23.79 134.465 23.79V24C134.331 23.9933 134.141 23.9867 133.895 23.98C133.655 23.9667 133.408 23.96 133.155 23.96C132.908 23.96 132.671 23.9667 132.445 23.98C132.225 23.9867 132.058 23.9933 131.945 24V23.79C132.218 23.79 132.411 23.74 132.525 23.64C132.645 23.54 132.705 23.35 132.705 23.07V19.06H131.905V18.86H132.705C132.705 18.4333 132.758 18.05 132.865 17.71C132.978 17.37 133.165 17.0767 133.425 16.83C133.618 16.65 133.868 16.4967 134.175 16.37C134.481 16.2433 134.855 16.18 135.295 16.18ZM140.645 18.71C140.859 18.71 141.065 18.7367 141.265 18.79C141.465 18.8433 141.645 18.9233 141.805 19.03C141.959 19.13 142.075 19.2467 142.155 19.38C142.235 19.5067 142.275 19.6467 142.275 19.8C142.275 19.98 142.225 20.12 142.125 20.22C142.025 20.3133 141.899 20.36 141.745 20.36C141.599 20.36 141.469 20.3167 141.355 20.23C141.249 20.1433 141.195 20.02 141.195 19.86C141.195 19.7067 141.235 19.5833 141.315 19.49C141.402 19.3967 141.502 19.3367 141.615 19.31C141.549 19.19 141.429 19.09 141.255 19.01C141.089 18.93 140.909 18.89 140.715 18.89C140.549 18.89 140.382 18.93 140.215 19.01C140.049 19.09 139.895 19.2233 139.755 19.41C139.615 19.59 139.502 19.84 139.415 20.16C139.329 20.4733 139.285 20.8667 139.285 21.34C139.285 21.9267 139.352 22.3933 139.485 22.74C139.619 23.0867 139.792 23.3367 140.005 23.49C140.225 23.6367 140.465 23.71 140.725 23.71C140.899 23.71 141.075 23.6767 141.255 23.61C141.435 23.5433 141.605 23.4367 141.765 23.29C141.925 23.1367 142.062 22.9333 142.175 22.68L142.365 22.75C142.299 22.9633 142.189 23.18 142.035 23.4C141.882 23.6133 141.682 23.79 141.435 23.93C141.189 24.07 140.885 24.14 140.525 24.14C140.112 24.14 139.739 24.0333 139.405 23.82C139.072 23.6067 138.805 23.3033 138.605 22.91C138.412 22.51 138.315 22.0367 138.315 21.49C138.315 20.9433 138.412 20.4633 138.605 20.05C138.805 19.63 139.082 19.3033 139.435 19.07C139.789 18.83 140.192 18.71 140.645 18.71ZM144.429 24.07C144.155 24.07 143.919 24.02 143.719 23.92C143.519 23.8133 143.365 23.6667 143.259 23.48C143.159 23.2933 143.109 23.0767 143.109 22.83C143.109 22.5367 143.175 22.2967 143.309 22.11C143.449 21.9233 143.625 21.7733 143.839 21.66C144.052 21.5467 144.275 21.4533 144.509 21.38C144.749 21.3 144.975 21.2267 145.189 21.16C145.402 21.0867 145.575 21.0033 145.709 20.91C145.849 20.8167 145.919 20.6933 145.919 20.54V19.92C145.919 19.64 145.875 19.4267 145.789 19.28C145.709 19.1333 145.599 19.0367 145.459 18.99C145.319 18.9367 145.162 18.91 144.989 18.91C144.822 18.91 144.642 18.9333 144.449 18.98C144.262 19.0267 144.112 19.1233 143.999 19.27C144.125 19.2967 144.235 19.3633 144.329 19.47C144.422 19.5767 144.469 19.7133 144.469 19.88C144.469 20.0467 144.415 20.18 144.309 20.28C144.202 20.3733 144.065 20.42 143.899 20.42C143.705 20.42 143.562 20.36 143.469 20.24C143.382 20.1133 143.339 19.9733 143.339 19.82C143.339 19.6467 143.382 19.5067 143.469 19.4C143.555 19.2933 143.665 19.1933 143.799 19.1C143.952 18.9933 144.149 18.9033 144.389 18.83C144.635 18.75 144.912 18.71 145.219 18.71C145.492 18.71 145.725 18.7433 145.919 18.81C146.112 18.87 146.272 18.96 146.399 19.08C146.572 19.24 146.685 19.4367 146.739 19.67C146.792 19.8967 146.819 20.17 146.819 20.49V23.27C146.819 23.4367 146.842 23.5567 146.889 23.63C146.942 23.7033 147.022 23.74 147.129 23.74C147.202 23.74 147.272 23.7233 147.339 23.69C147.405 23.6567 147.485 23.6033 147.579 23.53L147.689 23.7C147.549 23.8067 147.415 23.8967 147.289 23.97C147.162 24.0367 146.992 24.07 146.779 24.07C146.585 24.07 146.425 24.0367 146.299 23.97C146.172 23.9033 146.075 23.8067 146.009 23.68C145.949 23.5467 145.919 23.38 145.919 23.18C145.739 23.48 145.522 23.7033 145.269 23.85C145.022 23.9967 144.742 24.07 144.429 24.07ZM144.789 23.67C145.009 23.67 145.212 23.6067 145.399 23.48C145.592 23.3533 145.765 23.1633 145.919 22.91V20.95C145.839 21.0633 145.722 21.16 145.569 21.24C145.415 21.3133 145.249 21.39 145.069 21.47C144.889 21.5433 144.715 21.6333 144.549 21.74C144.389 21.84 144.255 21.9733 144.149 22.14C144.042 22.3067 143.989 22.5233 143.989 22.79C143.989 23.0567 144.059 23.27 144.199 23.43C144.345 23.59 144.542 23.67 144.789 23.67ZM149.599 17.19V18.86H151.079V19.06H149.599V22.93C149.599 23.2433 149.656 23.4633 149.769 23.59C149.883 23.7167 150.039 23.78 150.239 23.78C150.439 23.78 150.613 23.7 150.759 23.54C150.906 23.3733 151.033 23.0967 151.139 22.71L151.339 22.76C151.273 23.1467 151.139 23.4733 150.939 23.74C150.746 24.0067 150.446 24.14 150.039 24.14C149.813 24.14 149.626 24.11 149.479 24.05C149.333 23.9967 149.203 23.9167 149.089 23.81C148.943 23.6567 148.839 23.4733 148.779 23.26C148.726 23.0467 148.699 22.7633 148.699 22.41V19.06H147.739V18.86H148.699V17.33C148.866 17.3233 149.026 17.31 149.179 17.29C149.333 17.27 149.473 17.2367 149.599 17.19ZM152.664 16.35C152.838 16.35 152.988 16.4133 153.114 16.54C153.241 16.6667 153.304 16.8167 153.304 16.99C153.304 17.1633 153.241 17.3133 153.114 17.44C152.988 17.5667 152.838 17.63 152.664 17.63C152.491 17.63 152.341 17.5667 152.214 17.44C152.088 17.3133 152.024 17.1633 152.024 16.99C152.024 16.8167 152.088 16.6667 152.214 16.54C152.341 16.4133 152.491 16.35 152.664 16.35ZM153.184 18.74V23.07C153.184 23.35 153.241 23.54 153.354 23.64C153.474 23.74 153.671 23.79 153.944 23.79V24C153.831 23.9933 153.658 23.9867 153.424 23.98C153.198 23.9667 152.968 23.96 152.734 23.96C152.508 23.96 152.278 23.9667 152.044 23.98C151.811 23.9867 151.638 23.9933 151.524 24V23.79C151.798 23.79 151.991 23.74 152.104 23.64C152.224 23.54 152.284 23.35 152.284 23.07V19.94C152.284 19.64 152.231 19.42 152.124 19.28C152.018 19.1333 151.818 19.06 151.524 19.06V18.85C151.738 18.87 151.944 18.88 152.144 18.88C152.338 18.88 152.521 18.87 152.694 18.85C152.874 18.8233 153.038 18.7867 153.184 18.74ZM156.904 18.71C157.331 18.71 157.714 18.8033 158.054 18.99C158.394 19.1767 158.664 19.47 158.864 19.87C159.071 20.27 159.174 20.79 159.174 21.43C159.174 22.07 159.071 22.59 158.864 22.99C158.664 23.3833 158.394 23.6733 158.054 23.86C157.714 24.0467 157.331 24.14 156.904 24.14C156.484 24.14 156.101 24.0467 155.754 23.86C155.414 23.6733 155.141 23.3833 154.934 22.99C154.734 22.59 154.634 22.07 154.634 21.43C154.634 20.79 154.734 20.27 154.934 19.87C155.141 19.47 155.414 19.1767 155.754 18.99C156.101 18.8033 156.484 18.71 156.904 18.71ZM156.904 18.91C156.524 18.91 156.211 19.1067 155.964 19.5C155.724 19.8933 155.604 20.5367 155.604 21.43C155.604 22.3233 155.724 22.9667 155.964 23.36C156.211 23.7467 156.524 23.94 156.904 23.94C157.284 23.94 157.594 23.7467 157.834 23.36C158.081 22.9667 158.204 22.3233 158.204 21.43C158.204 20.5367 158.081 19.8933 157.834 19.5C157.594 19.1067 157.284 18.91 156.904 18.91ZM163.293 18.71C163.546 18.71 163.756 18.7433 163.923 18.81C164.096 18.8767 164.239 18.97 164.353 19.09C164.479 19.2233 164.569 19.39 164.623 19.59C164.676 19.79 164.703 20.06 164.703 20.4V23.07C164.703 23.35 164.759 23.54 164.873 23.64C164.993 23.74 165.189 23.79 165.463 23.79V24C165.349 23.9933 165.176 23.9867 164.943 23.98C164.709 23.9667 164.483 23.96 164.263 23.96C164.043 23.96 163.826 23.9667 163.613 23.98C163.406 23.9867 163.249 23.9933 163.143 24V23.79C163.383 23.79 163.553 23.74 163.653 23.64C163.753 23.54 163.803 23.35 163.803 23.07V20.18C163.803 19.9733 163.786 19.7833 163.753 19.61C163.719 19.4367 163.643 19.2967 163.523 19.19C163.409 19.0833 163.233 19.03 162.993 19.03C162.713 19.03 162.466 19.11 162.253 19.27C162.046 19.43 161.883 19.65 161.763 19.93C161.649 20.2033 161.593 20.51 161.593 20.85V23.07C161.593 23.35 161.643 23.54 161.743 23.64C161.843 23.74 162.013 23.79 162.253 23.79V24C162.146 23.9933 161.986 23.9867 161.773 23.98C161.566 23.9667 161.353 23.96 161.133 23.96C160.913 23.96 160.686 23.9667 160.453 23.98C160.219 23.9867 160.046 23.9933 159.933 24V23.79C160.206 23.79 160.399 23.74 160.513 23.64C160.633 23.54 160.693 23.35 160.693 23.07V19.94C160.693 19.64 160.639 19.42 160.533 19.28C160.426 19.1333 160.226 19.06 159.933 19.06V18.85C160.146 18.87 160.353 18.88 160.553 18.88C160.746 18.88 160.929 18.87 161.103 18.85C161.283 18.8233 161.446 18.7867 161.593 18.74V19.92C161.766 19.4667 162.006 19.1533 162.313 18.98C162.626 18.8 162.953 18.71 163.293 18.71Z" fill="#318181"/>
<path d="M246.47 16.92V17.12C246.243 17.1267 246.07 17.1533 245.95 17.2C245.837 17.24 245.76 17.32 245.72 17.44C245.68 17.5533 245.66 17.7333 245.66 17.98V22.94C245.66 23.18 245.68 23.36 245.72 23.48C245.76 23.6 245.837 23.68 245.95 23.72C246.07 23.76 246.243 23.7867 246.47 23.8V24C246.317 23.9867 246.123 23.98 245.89 23.98C245.663 23.9733 245.433 23.97 245.2 23.97C244.94 23.97 244.697 23.9733 244.47 23.98C244.243 23.98 244.06 23.9867 243.92 24V23.8C244.147 23.7867 244.317 23.76 244.43 23.72C244.55 23.68 244.63 23.6 244.67 23.48C244.71 23.36 244.73 23.18 244.73 22.94V17.98C244.73 17.7333 244.71 17.5533 244.67 17.44C244.63 17.32 244.55 17.24 244.43 17.2C244.317 17.1533 244.147 17.1267 243.92 17.12V16.92C244.06 16.9267 244.243 16.9333 244.47 16.94C244.697 16.9467 244.94 16.95 245.2 16.95C245.433 16.95 245.663 16.9467 245.89 16.94C246.123 16.9333 246.317 16.9267 246.47 16.92ZM250.539 18.71C250.792 18.71 251.002 18.7433 251.169 18.81C251.342 18.8767 251.485 18.97 251.599 19.09C251.725 19.2233 251.815 19.39 251.869 19.59C251.922 19.79 251.949 20.06 251.949 20.4V23.07C251.949 23.35 252.005 23.54 252.119 23.64C252.239 23.74 252.435 23.79 252.709 23.79V24C252.595 23.9933 252.422 23.9867 252.189 23.98C251.955 23.9667 251.729 23.96 251.509 23.96C251.289 23.96 251.072 23.9667 250.859 23.98C250.652 23.9867 250.495 23.9933 250.389 24V23.79C250.629 23.79 250.799 23.74 250.899 23.64C250.999 23.54 251.049 23.35 251.049 23.07V20.18C251.049 19.9733 251.032 19.7833 250.999 19.61C250.965 19.4367 250.889 19.2967 250.769 19.19C250.655 19.0833 250.479 19.03 250.239 19.03C249.959 19.03 249.712 19.11 249.499 19.27C249.292 19.43 249.129 19.65 249.009 19.93C248.895 20.2033 248.839 20.51 248.839 20.85V23.07C248.839 23.35 248.889 23.54 248.989 23.64C249.089 23.74 249.259 23.79 249.499 23.79V24C249.392 23.9933 249.232 23.9867 249.019 23.98C248.812 23.9667 248.599 23.96 248.379 23.96C248.159 23.96 247.932 23.9667 247.699 23.98C247.465 23.9867 247.292 23.9933 247.179 24V23.79C247.452 23.79 247.645 23.74 247.759 23.64C247.879 23.54 247.939 23.35 247.939 23.07V19.94C247.939 19.64 247.885 19.42 247.779 19.28C247.672 19.1333 247.472 19.06 247.179 19.06V18.85C247.392 18.87 247.599 18.88 247.799 18.88C247.992 18.88 248.175 18.87 248.349 18.85C248.529 18.8233 248.692 18.7867 248.839 18.74V19.92C249.012 19.4667 249.252 19.1533 249.559 18.98C249.872 18.8 250.199 18.71 250.539 18.71ZM254.755 17.19V18.86H256.235V19.06H254.755V22.93C254.755 23.2433 254.812 23.4633 254.925 23.59C255.039 23.7167 255.195 23.78 255.395 23.78C255.595 23.78 255.769 23.7 255.915 23.54C256.062 23.3733 256.189 23.0967 256.295 22.71L256.495 22.76C256.429 23.1467 256.295 23.4733 256.095 23.74C255.902 24.0067 255.602 24.14 255.195 24.14C254.969 24.14 254.782 24.11 254.635 24.05C254.489 23.9967 254.359 23.9167 254.245 23.81C254.099 23.6567 253.995 23.4733 253.935 23.26C253.882 23.0467 253.855 22.7633 253.855 22.41V19.06H252.895V18.86H253.855V17.33C254.022 17.3233 254.182 17.31 254.335 17.29C254.489 17.27 254.629 17.2367 254.755 17.19ZM259.111 18.71C259.697 18.71 260.154 18.89 260.481 19.25C260.814 19.6033 260.981 20.1567 260.981 20.91H257.451L257.441 20.72H260.021C260.034 20.3933 260.007 20.0933 259.941 19.82C259.874 19.54 259.767 19.3167 259.621 19.15C259.481 18.9833 259.297 18.9 259.071 18.9C258.764 18.9 258.491 19.0533 258.251 19.36C258.017 19.6667 257.877 20.1533 257.831 20.82L257.861 20.86C257.847 20.96 257.837 21.07 257.831 21.19C257.824 21.31 257.821 21.43 257.821 21.55C257.821 22.0033 257.894 22.3933 258.041 22.72C258.187 23.0467 258.377 23.2967 258.611 23.47C258.851 23.6367 259.097 23.72 259.351 23.72C259.551 23.72 259.741 23.69 259.921 23.63C260.101 23.5633 260.267 23.4567 260.421 23.31C260.574 23.1633 260.707 22.9667 260.821 22.72L261.021 22.8C260.947 23.02 260.827 23.2333 260.661 23.44C260.494 23.6467 260.284 23.8167 260.031 23.95C259.777 24.0767 259.484 24.14 259.151 24.14C258.671 24.14 258.257 24.03 257.911 23.81C257.571 23.59 257.307 23.2867 257.121 22.9C256.941 22.5067 256.851 22.0567 256.851 21.55C256.851 20.9633 256.944 20.46 257.131 20.04C257.317 19.6133 257.581 19.2867 257.921 19.06C258.261 18.8267 258.657 18.71 259.111 18.71ZM264.849 18.71C265.029 18.71 265.186 18.7467 265.319 18.82C265.459 18.8933 265.566 18.99 265.639 19.11C265.719 19.2233 265.759 19.3533 265.759 19.5C265.759 19.6667 265.706 19.8133 265.599 19.94C265.499 20.0667 265.363 20.13 265.189 20.13C265.049 20.13 264.926 20.0867 264.819 20C264.713 19.9067 264.659 19.7767 264.659 19.61C264.659 19.4833 264.693 19.3767 264.759 19.29C264.833 19.1967 264.913 19.1233 264.999 19.07C264.953 19.0033 264.883 18.97 264.789 18.97C264.583 18.97 264.393 19.0333 264.219 19.16C264.046 19.28 263.899 19.4367 263.779 19.63C263.659 19.8233 263.566 20.03 263.499 20.25C263.433 20.4633 263.399 20.6633 263.399 20.85V22.97C263.399 23.2967 263.493 23.5167 263.679 23.63C263.873 23.7367 264.133 23.79 264.459 23.79V24C264.306 23.9933 264.089 23.9867 263.809 23.98C263.529 23.9667 263.233 23.96 262.919 23.96C262.693 23.96 262.466 23.9667 262.239 23.98C262.019 23.9867 261.853 23.9933 261.739 24V23.79C262.013 23.79 262.206 23.74 262.319 23.64C262.439 23.54 262.499 23.35 262.499 23.07V19.94C262.499 19.64 262.446 19.42 262.339 19.28C262.233 19.1333 262.033 19.06 261.739 19.06V18.85C261.953 18.87 262.159 18.88 262.359 18.88C262.553 18.88 262.736 18.87 262.909 18.85C263.089 18.8233 263.253 18.7867 263.399 18.74V19.99C263.473 19.7967 263.576 19.6033 263.709 19.41C263.849 19.21 264.016 19.0433 264.209 18.91C264.403 18.7767 264.616 18.71 264.849 18.71ZM268.427 18.71C269.014 18.71 269.47 18.89 269.797 19.25C270.13 19.6033 270.297 20.1567 270.297 20.91H266.767L266.757 20.72H269.337C269.35 20.3933 269.324 20.0933 269.257 19.82C269.19 19.54 269.084 19.3167 268.937 19.15C268.797 18.9833 268.614 18.9 268.387 18.9C268.08 18.9 267.807 19.0533 267.567 19.36C267.334 19.6667 267.194 20.1533 267.147 20.82L267.177 20.86C267.164 20.96 267.154 21.07 267.147 21.19C267.14 21.31 267.137 21.43 267.137 21.55C267.137 22.0033 267.21 22.3933 267.357 22.72C267.504 23.0467 267.694 23.2967 267.927 23.47C268.167 23.6367 268.414 23.72 268.667 23.72C268.867 23.72 269.057 23.69 269.237 23.63C269.417 23.5633 269.584 23.4567 269.737 23.31C269.89 23.1633 270.024 22.9667 270.137 22.72L270.337 22.8C270.264 23.02 270.144 23.2333 269.977 23.44C269.81 23.6467 269.6 23.8167 269.347 23.95C269.094 24.0767 268.8 24.14 268.467 24.14C267.987 24.14 267.574 24.03 267.227 23.81C266.887 23.59 266.624 23.2867 266.437 22.9C266.257 22.5067 266.167 22.0567 266.167 21.55C266.167 20.9633 266.26 20.46 266.447 20.04C266.634 19.6133 266.897 19.2867 267.237 19.06C267.577 18.8267 267.974 18.71 268.427 18.71ZM272.846 18.71C273.112 18.71 273.339 18.7533 273.526 18.84C273.712 18.9267 273.849 19.0067 273.936 19.08C274.156 19.26 274.289 19.14 274.336 18.72H274.566C274.552 18.9067 274.542 19.13 274.536 19.39C274.529 19.6433 274.526 19.9867 274.526 20.42H274.296C274.256 20.1733 274.186 19.9333 274.086 19.7C273.992 19.4667 273.852 19.2767 273.666 19.13C273.479 18.9767 273.236 18.9 272.936 18.9C272.702 18.9 272.506 18.9667 272.346 19.1C272.192 19.2267 272.116 19.4167 272.116 19.67C272.116 19.87 272.176 20.0433 272.296 20.19C272.416 20.33 272.572 20.4633 272.766 20.59C272.959 20.71 273.169 20.8433 273.396 20.99C273.649 21.15 273.879 21.3133 274.086 21.48C274.292 21.6467 274.456 21.83 274.576 22.03C274.702 22.23 274.766 22.4667 274.766 22.74C274.766 23.0467 274.686 23.3033 274.526 23.51C274.366 23.7167 274.156 23.8733 273.896 23.98C273.642 24.0867 273.362 24.14 273.056 24.14C272.909 24.14 272.769 24.1267 272.636 24.1C272.509 24.08 272.386 24.0467 272.266 24C272.199 23.9667 272.129 23.9267 272.056 23.88C271.989 23.8333 271.922 23.7833 271.856 23.73C271.789 23.6767 271.729 23.68 271.676 23.74C271.622 23.7933 271.582 23.9033 271.556 24.07H271.326C271.339 23.8567 271.349 23.5967 271.356 23.29C271.362 22.9833 271.366 22.5767 271.366 22.07H271.596C271.642 22.4433 271.709 22.77 271.796 23.05C271.882 23.33 272.019 23.55 272.206 23.71C272.392 23.8633 272.652 23.94 272.986 23.94C273.119 23.94 273.252 23.91 273.386 23.85C273.526 23.79 273.642 23.69 273.736 23.55C273.829 23.41 273.876 23.2233 273.876 22.99C273.876 22.6967 273.769 22.4567 273.556 22.27C273.342 22.0833 273.072 21.8867 272.746 21.68C272.506 21.5267 272.279 21.3733 272.066 21.22C271.859 21.0667 271.689 20.8933 271.556 20.7C271.429 20.5067 271.366 20.2733 271.366 20C271.366 19.7 271.432 19.4567 271.566 19.27C271.706 19.0767 271.889 18.9367 272.116 18.85C272.342 18.7567 272.586 18.71 272.846 18.71ZM277.138 17.19V18.86H278.618V19.06H277.138V22.93C277.138 23.2433 277.195 23.4633 277.308 23.59C277.422 23.7167 277.578 23.78 277.778 23.78C277.978 23.78 278.152 23.7 278.298 23.54C278.445 23.3733 278.572 23.0967 278.678 22.71L278.878 22.76C278.812 23.1467 278.678 23.4733 278.478 23.74C278.285 24.0067 277.985 24.14 277.578 24.14C277.352 24.14 277.165 24.11 277.018 24.05C276.872 23.9967 276.742 23.9167 276.628 23.81C276.482 23.6567 276.378 23.4733 276.318 23.26C276.265 23.0467 276.238 22.7633 276.238 22.41V19.06H275.278V18.86H276.238V17.33C276.405 17.3233 276.565 17.31 276.718 17.29C276.872 17.27 277.012 17.2367 277.138 17.19ZM280.853 18.71C281.12 18.71 281.347 18.7533 281.533 18.84C281.72 18.9267 281.857 19.0067 281.943 19.08C282.163 19.26 282.297 19.14 282.343 18.72H282.573C282.56 18.9067 282.55 19.13 282.543 19.39C282.537 19.6433 282.533 19.9867 282.533 20.42H282.303C282.263 20.1733 282.193 19.9333 282.093 19.7C282 19.4667 281.86 19.2767 281.673 19.13C281.487 18.9767 281.243 18.9 280.943 18.9C280.71 18.9 280.513 18.9667 280.353 19.1C280.2 19.2267 280.123 19.4167 280.123 19.67C280.123 19.87 280.183 20.0433 280.303 20.19C280.423 20.33 280.58 20.4633 280.773 20.59C280.967 20.71 281.177 20.8433 281.403 20.99C281.657 21.15 281.887 21.3133 282.093 21.48C282.3 21.6467 282.463 21.83 282.583 22.03C282.71 22.23 282.773 22.4667 282.773 22.74C282.773 23.0467 282.693 23.3033 282.533 23.51C282.373 23.7167 282.163 23.8733 281.903 23.98C281.65 24.0867 281.37 24.14 281.063 24.14C280.917 24.14 280.777 24.1267 280.643 24.1C280.517 24.08 280.393 24.0467 280.273 24C280.207 23.9667 280.137 23.9267 280.063 23.88C279.997 23.8333 279.93 23.7833 279.863 23.73C279.797 23.6767 279.737 23.68 279.683 23.74C279.63 23.7933 279.59 23.9033 279.563 24.07H279.333C279.347 23.8567 279.357 23.5967 279.363 23.29C279.37 22.9833 279.373 22.5767 279.373 22.07H279.603C279.65 22.4433 279.717 22.77 279.803 23.05C279.89 23.33 280.027 23.55 280.213 23.71C280.4 23.8633 280.66 23.94 280.993 23.94C281.127 23.94 281.26 23.91 281.393 23.85C281.533 23.79 281.65 23.69 281.743 23.55C281.837 23.41 281.883 23.2233 281.883 22.99C281.883 22.6967 281.777 22.4567 281.563 22.27C281.35 22.0833 281.08 21.8867 280.753 21.68C280.513 21.5267 280.287 21.3733 280.073 21.22C279.867 21.0667 279.697 20.8933 279.563 20.7C279.437 20.5067 279.373 20.2733 279.373 20C279.373 19.7 279.44 19.4567 279.573 19.27C279.713 19.0767 279.897 18.9367 280.123 18.85C280.35 18.7567 280.593 18.71 280.853 18.71Z" fill="black" fill-opacity="0.7"/>
<rect x="10" y="0.5" width="9" height="9" rx="4.5" fill="#318181"/>
<rect x="10" y="0.5" width="9" height="9" rx="4.5" stroke="#318181"/>
<mask id="path-5-inside-1_250_215" fill="white">
<path d="M13.5096 7L11.5 4.65189L11.7887 4.31503L13.5096 6.32581L17.2117 2L17.5 2.33733L13.5096 7Z"/>
</mask>
<path d="M13.5096 7L11.5 4.65189L11.7887 4.31503L13.5096 6.32581L17.2117 2L17.5 2.33733L13.5096 7Z" fill="white"/>
<path d="M13.5096 7L-38.1535 51.2146L13.5096 111.581L65.1726 51.2146L13.5096 7ZM11.5 4.65189L-40.1324 -39.5984L-78.0296 4.6209L-40.1631 48.8665L11.5 4.65189ZM11.7887 4.31503L63.4518 -39.8995L11.8249 -100.224L-39.8437 -39.9353L11.7887 4.31503ZM13.5096 6.32581L-38.1535 50.5404L13.5096 110.907L65.1726 50.5404L13.5096 6.32581ZM17.2117 2L68.9053 -42.1788L17.2479 -102.623L-34.4514 -42.2146L17.2117 2ZM17.5 2.33733L69.1631 46.5519L106.977 2.36827L69.1936 -41.8415L17.5 2.33733ZM65.1726 -37.2146L63.1631 -39.5627L-40.1631 48.8665L-38.1535 51.2146L65.1726 -37.2146ZM63.1324 48.9022L63.4211 48.5654L-39.8437 -39.9353L-40.1324 -39.5984L63.1324 48.9022ZM-39.8744 48.5296L-38.1535 50.5404L65.1726 -37.8888L63.4518 -39.8995L-39.8744 48.5296ZM65.1726 50.5404L68.8748 46.2146L-34.4514 -42.2146L-38.1535 -37.8888L65.1726 50.5404ZM-34.4819 46.1788L-34.1936 46.5162L69.1936 -41.8415L68.9053 -42.1788L-34.4819 46.1788ZM-34.1631 -41.8772L-38.1535 -37.2146L65.1726 51.2146L69.1631 46.5519L-34.1631 -41.8772Z" fill="white" mask="url(#path-5-inside-1_250_215)"/>
<circle cx="138.893" cy="5" r="4.5" fill="white" stroke="#318181"/>
<circle cx="263.285" cy="5" r="5" fill="white"/>
<circle cx="263.285" cy="5" r="4.5" stroke="black" stroke-opacity="0.7"/>
<line x1="23.5" y1="5.5" x2="128.5" y2="5.49999" stroke="#318181"/>
<line x1="149.5" y1="5.5" x2="254.5" y2="5.5" stroke="black" stroke-opacity="0.7"/>
</svg>
