<svg width="284" height="26" viewBox="0 0 284 26" fill="none" xmlns="http://www.w3.org/2000/svg">
<path d="M0.42 16.92C0.56 16.9267 0.743333 16.9333 0.97 16.94C1.19667 16.9467 1.42 16.95 1.64 16.95C1.95333 16.95 2.25333 16.9467 2.54 16.94C2.82667 16.9333 3.03 16.93 3.15 16.93C3.95667 16.93 4.56 17.1133 4.96 17.48C5.36 17.8467 5.56 18.32 5.56 18.9C5.56 19.14 5.52 19.3933 5.44 19.66C5.36 19.92 5.22 20.1633 5.02 20.39C4.82667 20.61 4.56 20.79 4.22 20.93C3.88 21.07 3.45 21.14 2.93 21.14H1.97V20.94H2.83C3.30333 20.94 3.66333 20.85 3.91 20.67C4.16333 20.49 4.33333 20.2533 4.42 19.96C4.51333 19.6667 4.56 19.35 4.56 19.01C4.56 18.3767 4.43333 17.9033 4.18 17.59C3.93333 17.2767 3.50667 17.12 2.9 17.12C2.59333 17.12 2.39333 17.1767 2.3 17.29C2.20667 17.4033 2.16 17.6333 2.16 17.98V22.94C2.16 23.18 2.18333 23.36 2.23 23.48C2.28333 23.6 2.38333 23.68 2.53 23.72C2.67667 23.76 2.89 23.7867 3.17 23.8V24C2.99667 23.9867 2.77667 23.98 2.51 23.98C2.24333 23.9733 1.97333 23.97 1.7 23.97C1.44 23.97 1.19667 23.9733 0.97 23.98C0.743333 23.98 0.56 23.9867 0.42 24V23.8C0.646667 23.7867 0.816667 23.76 0.93 23.72C1.05 23.68 1.13 23.6 1.17 23.48C1.21 23.36 1.23 23.18 1.23 22.94V17.98C1.23 17.7333 1.21 17.5533 1.17 17.44C1.13 17.32 1.05 17.24 0.93 17.2C0.816667 17.1533 0.646667 17.1267 0.42 17.12V16.92ZM9.24961 18.71C9.42961 18.71 9.58628 18.7467 9.71961 18.82C9.85961 18.8933 9.96628 18.99 10.0396 19.11C10.1196 19.2233 10.1596 19.3533 10.1596 19.5C10.1596 19.6667 10.1063 19.8133 9.99961 19.94C9.89961 20.0667 9.76294 20.13 9.58961 20.13C9.44961 20.13 9.32628 20.0867 9.21961 20C9.11294 19.9067 9.05961 19.7767 9.05961 19.61C9.05961 19.4833 9.09294 19.3767 9.15961 19.29C9.23294 19.1967 9.31294 19.1233 9.39961 19.07C9.35294 19.0033 9.28294 18.97 9.18961 18.97C8.98294 18.97 8.79294 19.0333 8.61961 19.16C8.44628 19.28 8.29961 19.4367 8.17961 19.63C8.05961 19.8233 7.96628 20.03 7.89961 20.25C7.83294 20.4633 7.79961 20.6633 7.79961 20.85V22.97C7.79961 23.2967 7.89294 23.5167 8.07961 23.63C8.27294 23.7367 8.53294 23.79 8.85961 23.79V24C8.70628 23.9933 8.48961 23.9867 8.20961 23.98C7.92961 23.9667 7.63294 23.96 7.31961 23.96C7.09294 23.96 6.86628 23.9667 6.63961 23.98C6.41961 23.9867 6.25294 23.9933 6.13961 24V23.79C6.41294 23.79 6.60628 23.74 6.71961 23.64C6.83961 23.54 6.89961 23.35 6.89961 23.07V19.94C6.89961 19.64 6.84628 19.42 6.73961 19.28C6.63294 19.1333 6.43294 19.06 6.13961 19.06V18.85C6.35294 18.87 6.55961 18.88 6.75961 18.88C6.95294 18.88 7.13628 18.87 7.30961 18.85C7.48961 18.8233 7.65294 18.7867 7.79961 18.74V19.99C7.87294 19.7967 7.97628 19.6033 8.10961 19.41C8.24961 19.21 8.41628 19.0433 8.60961 18.91C8.80294 18.7767 9.01628 18.71 9.24961 18.71ZM12.8474 18.71C13.2741 18.71 13.6574 18.8033 13.9974 18.99C14.3374 19.1767 14.6074 19.47 14.8074 19.87C15.0141 20.27 15.1174 20.79 15.1174 21.43C15.1174 22.07 15.0141 22.59 14.8074 22.99C14.6074 23.3833 14.3374 23.6733 13.9974 23.86C13.6574 24.0467 13.2741 24.14 12.8474 24.14C12.4274 24.14 12.0441 24.0467 11.6974 23.86C11.3574 23.6733 11.0841 23.3833 10.8774 22.99C10.6774 22.59 10.5774 22.07 10.5774 21.43C10.5774 20.79 10.6774 20.27 10.8774 19.87C11.0841 19.47 11.3574 19.1767 11.6974 18.99C12.0441 18.8033 12.4274 18.71 12.8474 18.71ZM12.8474 18.91C12.4674 18.91 12.1541 19.1067 11.9074 19.5C11.6674 19.8933 11.5474 20.5367 11.5474 21.43C11.5474 22.3233 11.6674 22.9667 11.9074 23.36C12.1541 23.7467 12.4674 23.94 12.8474 23.94C13.2274 23.94 13.5374 23.7467 13.7774 23.36C14.0241 22.9667 14.1474 22.3233 14.1474 21.43C14.1474 20.5367 14.0241 19.8933 13.7774 19.5C13.5374 19.1067 13.2274 18.91 12.8474 18.91ZM19.2359 16.18C19.4226 16.18 19.5993 16.1933 19.7659 16.22C19.9326 16.2467 20.0859 16.2833 20.2259 16.33C20.3659 16.37 20.4826 16.42 20.5759 16.48C20.6826 16.5467 20.7659 16.6267 20.8259 16.72C20.8859 16.8067 20.9159 16.91 20.9159 17.03C20.9159 17.21 20.8526 17.3633 20.7259 17.49C20.5993 17.6167 20.4493 17.68 20.2759 17.68C20.1026 17.68 19.9526 17.6167 19.8259 17.49C19.6993 17.3633 19.6359 17.2133 19.6359 17.04C19.6359 16.92 19.6659 16.81 19.7259 16.71C19.7859 16.61 19.8659 16.5333 19.9659 16.48C19.8793 16.4267 19.7693 16.39 19.6359 16.37C19.5026 16.3433 19.3693 16.33 19.2359 16.33C18.8893 16.33 18.5993 16.4 18.3659 16.54C18.1326 16.68 17.9493 16.8667 17.8159 17.1C17.7226 17.2667 17.6526 17.48 17.6059 17.74C17.5659 18 17.5459 18.3733 17.5459 18.86H19.1559C19.4226 18.86 19.6526 18.8567 19.8459 18.85C20.0393 18.8433 20.2126 18.8333 20.3659 18.82C20.5193 18.8 20.6693 18.7733 20.8159 18.74V23.07C20.8159 23.35 20.8726 23.54 20.9859 23.64C21.1059 23.74 21.3026 23.79 21.5759 23.79V24C21.4626 23.9933 21.2893 23.9867 21.0559 23.98C20.8293 23.9667 20.5993 23.96 20.3659 23.96C20.1393 23.96 19.9093 23.9667 19.6759 23.98C19.4426 23.9867 19.2693 23.9933 19.1559 24V23.79C19.4293 23.79 19.6226 23.74 19.7359 23.64C19.8559 23.54 19.9159 23.35 19.9159 23.07V19.94C19.9159 19.64 19.8626 19.42 19.7559 19.28C19.6493 19.1333 19.4493 19.06 19.1559 19.06H17.5459V23.07C17.5459 23.3567 17.6226 23.55 17.7759 23.65C17.9293 23.7433 18.1393 23.79 18.4059 23.79V24C18.2726 23.9933 18.0826 23.9867 17.8359 23.98C17.5959 23.9667 17.3493 23.96 17.0959 23.96C16.8493 23.96 16.6126 23.9667 16.3859 23.98C16.1659 23.9867 15.9993 23.9933 15.8859 24V23.79C16.1593 23.79 16.3526 23.74 16.4659 23.64C16.5859 23.54 16.6459 23.35 16.6459 23.07V19.06H15.8459V18.86H16.6459C16.6459 18.4333 16.6993 18.05 16.8059 17.71C16.9193 17.37 17.1059 17.0767 17.3659 16.83C17.5593 16.65 17.8093 16.4967 18.1159 16.37C18.4226 16.2433 18.7959 16.18 19.2359 16.18ZM23.6769 16.16V23.07C23.6769 23.35 23.7335 23.54 23.8469 23.64C23.9669 23.74 24.1635 23.79 24.4369 23.79V24C24.3235 23.9933 24.1502 23.9867 23.9169 23.98C23.6902 23.9667 23.4602 23.96 23.2269 23.96C23.0002 23.96 22.7702 23.9667 22.5369 23.98C22.3035 23.9867 22.1302 23.9933 22.0169 24V23.79C22.2902 23.79 22.4835 23.74 22.5969 23.64C22.7169 23.54 22.7769 23.35 22.7769 23.07V17.36C22.7769 17.06 22.7235 16.84 22.6169 16.7C22.5102 16.5533 22.3102 16.48 22.0169 16.48V16.27C22.2302 16.29 22.4369 16.3 22.6369 16.3C22.8302 16.3 23.0135 16.29 23.1869 16.27C23.3669 16.2433 23.5302 16.2067 23.6769 16.16ZM27.2805 18.71C27.8672 18.71 28.3239 18.89 28.6505 19.25C28.9839 19.6033 29.1505 20.1567 29.1505 20.91H25.6205L25.6105 20.72H28.1905C28.2039 20.3933 28.1772 20.0933 28.1105 19.82C28.0439 19.54 27.9372 19.3167 27.7905 19.15C27.6505 18.9833 27.4672 18.9 27.2405 18.9C26.9339 18.9 26.6605 19.0533 26.4205 19.36C26.1872 19.6667 26.0472 20.1533 26.0005 20.82L26.0305 20.86C26.0172 20.96 26.0072 21.07 26.0005 21.19C25.9939 21.31 25.9905 21.43 25.9905 21.55C25.9905 22.0033 26.0639 22.3933 26.2105 22.72C26.3572 23.0467 26.5472 23.2967 26.7805 23.47C27.0205 23.6367 27.2672 23.72 27.5205 23.72C27.7205 23.72 27.9105 23.69 28.0905 23.63C28.2705 23.5633 28.4372 23.4567 28.5905 23.31C28.7439 23.1633 28.8772 22.9667 28.9905 22.72L29.1905 22.8C29.1172 23.02 28.9972 23.2333 28.8305 23.44C28.6639 23.6467 28.4539 23.8167 28.2005 23.95C27.9472 24.0767 27.6539 24.14 27.3205 24.14C26.8405 24.14 26.4272 24.03 26.0805 23.81C25.7405 23.59 25.4772 23.2867 25.2905 22.9C25.1105 22.5067 25.0205 22.0567 25.0205 21.55C25.0205 20.9633 25.1139 20.46 25.3005 20.04C25.4872 19.6133 25.7505 19.2867 26.0905 19.06C26.4305 18.8267 26.8272 18.71 27.2805 18.71Z" fill="#00744F"/>
<path d="M119.37 16.92V17.12C119.243 17.1467 119.107 17.2233 118.96 17.35C118.82 17.4767 118.693 17.69 118.58 17.99L116.23 24.05C116.217 24.05 116.203 24.05 116.19 24.05C116.177 24.05 116.163 24.05 116.15 24.05C116.137 24.05 116.123 24.05 116.11 24.05C116.097 24.05 116.083 24.05 116.07 24.05L113.63 17.76C113.53 17.5067 113.417 17.34 113.29 17.26C113.163 17.1733 113.047 17.1267 112.94 17.12V16.92C113.073 16.9267 113.237 16.9333 113.43 16.94C113.63 16.9467 113.823 16.95 114.01 16.95C114.27 16.95 114.513 16.9467 114.74 16.94C114.967 16.9333 115.15 16.9267 115.29 16.92V17.12C115.063 17.1267 114.89 17.1533 114.77 17.2C114.657 17.2467 114.593 17.33 114.58 17.45C114.573 17.5633 114.613 17.7333 114.7 17.96L116.56 22.89L116.4 23.06L118.14 18.54C118.28 18.18 118.347 17.9 118.34 17.7C118.333 17.4933 118.257 17.3467 118.11 17.26C117.963 17.1733 117.75 17.1267 117.47 17.12V16.92C117.663 16.9267 117.86 16.9333 118.06 16.94C118.26 16.9467 118.447 16.95 118.62 16.95C118.793 16.95 118.937 16.9467 119.05 16.94C119.163 16.9333 119.27 16.9267 119.37 16.92ZM121.423 18.71C122.01 18.71 122.466 18.89 122.793 19.25C123.126 19.6033 123.293 20.1567 123.293 20.91H119.763L119.753 20.72H122.333C122.346 20.3933 122.32 20.0933 122.253 19.82C122.186 19.54 122.08 19.3167 121.933 19.15C121.793 18.9833 121.61 18.9 121.383 18.9C121.076 18.9 120.803 19.0533 120.563 19.36C120.33 19.6667 120.19 20.1533 120.143 20.82L120.173 20.86C120.16 20.96 120.15 21.07 120.143 21.19C120.136 21.31 120.133 21.43 120.133 21.55C120.133 22.0033 120.206 22.3933 120.353 22.72C120.5 23.0467 120.69 23.2967 120.923 23.47C121.163 23.6367 121.41 23.72 121.663 23.72C121.863 23.72 122.053 23.69 122.233 23.63C122.413 23.5633 122.58 23.4567 122.733 23.31C122.886 23.1633 123.02 22.9667 123.133 22.72L123.333 22.8C123.26 23.02 123.14 23.2333 122.973 23.44C122.806 23.6467 122.596 23.8167 122.343 23.95C122.09 24.0767 121.796 24.14 121.463 24.14C120.983 24.14 120.57 24.03 120.223 23.81C119.883 23.59 119.62 23.2867 119.433 22.9C119.253 22.5067 119.163 22.0567 119.163 21.55C119.163 20.9633 119.256 20.46 119.443 20.04C119.63 19.6133 119.893 19.2867 120.233 19.06C120.573 18.8267 120.97 18.71 121.423 18.71ZM127.162 18.71C127.342 18.71 127.498 18.7467 127.632 18.82C127.772 18.8933 127.878 18.99 127.952 19.11C128.032 19.2233 128.072 19.3533 128.072 19.5C128.072 19.6667 128.018 19.8133 127.912 19.94C127.812 20.0667 127.675 20.13 127.502 20.13C127.362 20.13 127.238 20.0867 127.132 20C127.025 19.9067 126.972 19.7767 126.972 19.61C126.972 19.4833 127.005 19.3767 127.072 19.29C127.145 19.1967 127.225 19.1233 127.312 19.07C127.265 19.0033 127.195 18.97 127.102 18.97C126.895 18.97 126.705 19.0333 126.532 19.16C126.358 19.28 126.212 19.4367 126.092 19.63C125.972 19.8233 125.878 20.03 125.812 20.25C125.745 20.4633 125.712 20.6633 125.712 20.85V22.97C125.712 23.2967 125.805 23.5167 125.992 23.63C126.185 23.7367 126.445 23.79 126.772 23.79V24C126.618 23.9933 126.402 23.9867 126.122 23.98C125.842 23.9667 125.545 23.96 125.232 23.96C125.005 23.96 124.778 23.9667 124.552 23.98C124.332 23.9867 124.165 23.9933 124.052 24V23.79C124.325 23.79 124.518 23.74 124.632 23.64C124.752 23.54 124.812 23.35 124.812 23.07V19.94C124.812 19.64 124.758 19.42 124.652 19.28C124.545 19.1333 124.345 19.06 124.052 19.06V18.85C124.265 18.87 124.472 18.88 124.672 18.88C124.865 18.88 125.048 18.87 125.222 18.85C125.402 18.8233 125.565 18.7867 125.712 18.74V19.99C125.785 19.7967 125.888 19.6033 126.022 19.41C126.162 19.21 126.328 19.0433 126.522 18.91C126.715 18.7767 126.928 18.71 127.162 18.71ZM129.645 16.35C129.818 16.35 129.968 16.4133 130.095 16.54C130.222 16.6667 130.285 16.8167 130.285 16.99C130.285 17.1633 130.222 17.3133 130.095 17.44C129.968 17.5667 129.818 17.63 129.645 17.63C129.472 17.63 129.322 17.5667 129.195 17.44C129.068 17.3133 129.005 17.1633 129.005 16.99C129.005 16.8167 129.068 16.6667 129.195 16.54C129.322 16.4133 129.472 16.35 129.645 16.35ZM130.165 18.74V23.07C130.165 23.35 130.222 23.54 130.335 23.64C130.455 23.74 130.652 23.79 130.925 23.79V24C130.812 23.9933 130.638 23.9867 130.405 23.98C130.178 23.9667 129.948 23.96 129.715 23.96C129.488 23.96 129.258 23.9667 129.025 23.98C128.792 23.9867 128.618 23.9933 128.505 24V23.79C128.778 23.79 128.972 23.74 129.085 23.64C129.205 23.54 129.265 23.35 129.265 23.07V19.94C129.265 19.64 129.212 19.42 129.105 19.28C128.998 19.1333 128.798 19.06 128.505 19.06V18.85C128.718 18.87 128.925 18.88 129.125 18.88C129.318 18.88 129.502 18.87 129.675 18.85C129.855 18.8233 130.018 18.7867 130.165 18.74ZM134.795 16.18C134.981 16.18 135.158 16.1933 135.325 16.22C135.491 16.2467 135.645 16.2833 135.785 16.33C135.925 16.37 136.041 16.42 136.135 16.48C136.241 16.5467 136.325 16.6267 136.385 16.72C136.445 16.8067 136.475 16.91 136.475 17.03C136.475 17.21 136.411 17.3633 136.285 17.49C136.158 17.6167 136.008 17.68 135.835 17.68C135.661 17.68 135.511 17.6167 135.385 17.49C135.258 17.3633 135.195 17.2133 135.195 17.04C135.195 16.92 135.225 16.81 135.285 16.71C135.345 16.61 135.425 16.5333 135.525 16.48C135.438 16.4267 135.328 16.39 135.195 16.37C135.061 16.3433 134.928 16.33 134.795 16.33C134.448 16.33 134.158 16.4 133.925 16.54C133.691 16.68 133.508 16.8667 133.375 17.1C133.281 17.2667 133.211 17.48 133.165 17.74C133.125 18 133.105 18.3733 133.105 18.86H134.715C134.981 18.86 135.211 18.8567 135.405 18.85C135.598 18.8433 135.771 18.8333 135.925 18.82C136.078 18.8 136.228 18.7733 136.375 18.74V23.07C136.375 23.35 136.431 23.54 136.545 23.64C136.665 23.74 136.861 23.79 137.135 23.79V24C137.021 23.9933 136.848 23.9867 136.615 23.98C136.388 23.9667 136.158 23.96 135.925 23.96C135.698 23.96 135.468 23.9667 135.235 23.98C135.001 23.9867 134.828 23.9933 134.715 24V23.79C134.988 23.79 135.181 23.74 135.295 23.64C135.415 23.54 135.475 23.35 135.475 23.07V19.94C135.475 19.64 135.421 19.42 135.315 19.28C135.208 19.1333 135.008 19.06 134.715 19.06H133.105V23.07C133.105 23.3567 133.181 23.55 133.335 23.65C133.488 23.7433 133.698 23.79 133.965 23.79V24C133.831 23.9933 133.641 23.9867 133.395 23.98C133.155 23.9667 132.908 23.96 132.655 23.96C132.408 23.96 132.171 23.9667 131.945 23.98C131.725 23.9867 131.558 23.9933 131.445 24V23.79C131.718 23.79 131.911 23.74 132.025 23.64C132.145 23.54 132.205 23.35 132.205 23.07V19.06H131.405V18.86H132.205C132.205 18.4333 132.258 18.05 132.365 17.71C132.478 17.37 132.665 17.0767 132.925 16.83C133.118 16.65 133.368 16.4967 133.675 16.37C133.981 16.2433 134.355 16.18 134.795 16.18ZM140.145 18.71C140.359 18.71 140.565 18.7367 140.765 18.79C140.965 18.8433 141.145 18.9233 141.305 19.03C141.459 19.13 141.575 19.2467 141.655 19.38C141.735 19.5067 141.775 19.6467 141.775 19.8C141.775 19.98 141.725 20.12 141.625 20.22C141.525 20.3133 141.399 20.36 141.245 20.36C141.099 20.36 140.969 20.3167 140.855 20.23C140.749 20.1433 140.695 20.02 140.695 19.86C140.695 19.7067 140.735 19.5833 140.815 19.49C140.902 19.3967 141.002 19.3367 141.115 19.31C141.049 19.19 140.929 19.09 140.755 19.01C140.589 18.93 140.409 18.89 140.215 18.89C140.049 18.89 139.882 18.93 139.715 19.01C139.549 19.09 139.395 19.2233 139.255 19.41C139.115 19.59 139.002 19.84 138.915 20.16C138.829 20.4733 138.785 20.8667 138.785 21.34C138.785 21.9267 138.852 22.3933 138.985 22.74C139.119 23.0867 139.292 23.3367 139.505 23.49C139.725 23.6367 139.965 23.71 140.225 23.71C140.399 23.71 140.575 23.6767 140.755 23.61C140.935 23.5433 141.105 23.4367 141.265 23.29C141.425 23.1367 141.562 22.9333 141.675 22.68L141.865 22.75C141.799 22.9633 141.689 23.18 141.535 23.4C141.382 23.6133 141.182 23.79 140.935 23.93C140.689 24.07 140.385 24.14 140.025 24.14C139.612 24.14 139.239 24.0333 138.905 23.82C138.572 23.6067 138.305 23.3033 138.105 22.91C137.912 22.51 137.815 22.0367 137.815 21.49C137.815 20.9433 137.912 20.4633 138.105 20.05C138.305 19.63 138.582 19.3033 138.935 19.07C139.289 18.83 139.692 18.71 140.145 18.71ZM143.929 24.07C143.655 24.07 143.419 24.02 143.219 23.92C143.019 23.8133 142.865 23.6667 142.759 23.48C142.659 23.2933 142.609 23.0767 142.609 22.83C142.609 22.5367 142.675 22.2967 142.809 22.11C142.949 21.9233 143.125 21.7733 143.339 21.66C143.552 21.5467 143.775 21.4533 144.009 21.38C144.249 21.3 144.475 21.2267 144.689 21.16C144.902 21.0867 145.075 21.0033 145.209 20.91C145.349 20.8167 145.419 20.6933 145.419 20.54V19.92C145.419 19.64 145.375 19.4267 145.289 19.28C145.209 19.1333 145.099 19.0367 144.959 18.99C144.819 18.9367 144.662 18.91 144.489 18.91C144.322 18.91 144.142 18.9333 143.949 18.98C143.762 19.0267 143.612 19.1233 143.499 19.27C143.625 19.2967 143.735 19.3633 143.829 19.47C143.922 19.5767 143.969 19.7133 143.969 19.88C143.969 20.0467 143.915 20.18 143.809 20.28C143.702 20.3733 143.565 20.42 143.399 20.42C143.205 20.42 143.062 20.36 142.969 20.24C142.882 20.1133 142.839 19.9733 142.839 19.82C142.839 19.6467 142.882 19.5067 142.969 19.4C143.055 19.2933 143.165 19.1933 143.299 19.1C143.452 18.9933 143.649 18.9033 143.889 18.83C144.135 18.75 144.412 18.71 144.719 18.71C144.992 18.71 145.225 18.7433 145.419 18.81C145.612 18.87 145.772 18.96 145.899 19.08C146.072 19.24 146.185 19.4367 146.239 19.67C146.292 19.8967 146.319 20.17 146.319 20.49V23.27C146.319 23.4367 146.342 23.5567 146.389 23.63C146.442 23.7033 146.522 23.74 146.629 23.74C146.702 23.74 146.772 23.7233 146.839 23.69C146.905 23.6567 146.985 23.6033 147.079 23.53L147.189 23.7C147.049 23.8067 146.915 23.8967 146.789 23.97C146.662 24.0367 146.492 24.07 146.279 24.07C146.085 24.07 145.925 24.0367 145.799 23.97C145.672 23.9033 145.575 23.8067 145.509 23.68C145.449 23.5467 145.419 23.38 145.419 23.18C145.239 23.48 145.022 23.7033 144.769 23.85C144.522 23.9967 144.242 24.07 143.929 24.07ZM144.289 23.67C144.509 23.67 144.712 23.6067 144.899 23.48C145.092 23.3533 145.265 23.1633 145.419 22.91V20.95C145.339 21.0633 145.222 21.16 145.069 21.24C144.915 21.3133 144.749 21.39 144.569 21.47C144.389 21.5433 144.215 21.6333 144.049 21.74C143.889 21.84 143.755 21.9733 143.649 22.14C143.542 22.3067 143.489 22.5233 143.489 22.79C143.489 23.0567 143.559 23.27 143.699 23.43C143.845 23.59 144.042 23.67 144.289 23.67ZM149.099 17.19V18.86H150.579V19.06H149.099V22.93C149.099 23.2433 149.156 23.4633 149.269 23.59C149.383 23.7167 149.539 23.78 149.739 23.78C149.939 23.78 150.113 23.7 150.259 23.54C150.406 23.3733 150.533 23.0967 150.639 22.71L150.839 22.76C150.773 23.1467 150.639 23.4733 150.439 23.74C150.246 24.0067 149.946 24.14 149.539 24.14C149.313 24.14 149.126 24.11 148.979 24.05C148.833 23.9967 148.703 23.9167 148.589 23.81C148.443 23.6567 148.339 23.4733 148.279 23.26C148.226 23.0467 148.199 22.7633 148.199 22.41V19.06H147.239V18.86H148.199V17.33C148.366 17.3233 148.526 17.31 148.679 17.29C148.833 17.27 148.973 17.2367 149.099 17.19ZM152.164 16.35C152.338 16.35 152.488 16.4133 152.614 16.54C152.741 16.6667 152.804 16.8167 152.804 16.99C152.804 17.1633 152.741 17.3133 152.614 17.44C152.488 17.5667 152.338 17.63 152.164 17.63C151.991 17.63 151.841 17.5667 151.714 17.44C151.588 17.3133 151.524 17.1633 151.524 16.99C151.524 16.8167 151.588 16.6667 151.714 16.54C151.841 16.4133 151.991 16.35 152.164 16.35ZM152.684 18.74V23.07C152.684 23.35 152.741 23.54 152.854 23.64C152.974 23.74 153.171 23.79 153.444 23.79V24C153.331 23.9933 153.158 23.9867 152.924 23.98C152.698 23.9667 152.468 23.96 152.234 23.96C152.008 23.96 151.778 23.9667 151.544 23.98C151.311 23.9867 151.138 23.9933 151.024 24V23.79C151.298 23.79 151.491 23.74 151.604 23.64C151.724 23.54 151.784 23.35 151.784 23.07V19.94C151.784 19.64 151.731 19.42 151.624 19.28C151.518 19.1333 151.318 19.06 151.024 19.06V18.85C151.238 18.87 151.444 18.88 151.644 18.88C151.838 18.88 152.021 18.87 152.194 18.85C152.374 18.8233 152.538 18.7867 152.684 18.74ZM156.404 18.71C156.831 18.71 157.214 18.8033 157.554 18.99C157.894 19.1767 158.164 19.47 158.364 19.87C158.571 20.27 158.674 20.79 158.674 21.43C158.674 22.07 158.571 22.59 158.364 22.99C158.164 23.3833 157.894 23.6733 157.554 23.86C157.214 24.0467 156.831 24.14 156.404 24.14C155.984 24.14 155.601 24.0467 155.254 23.86C154.914 23.6733 154.641 23.3833 154.434 22.99C154.234 22.59 154.134 22.07 154.134 21.43C154.134 20.79 154.234 20.27 154.434 19.87C154.641 19.47 154.914 19.1767 155.254 18.99C155.601 18.8033 155.984 18.71 156.404 18.71ZM156.404 18.91C156.024 18.91 155.711 19.1067 155.464 19.5C155.224 19.8933 155.104 20.5367 155.104 21.43C155.104 22.3233 155.224 22.9667 155.464 23.36C155.711 23.7467 156.024 23.94 156.404 23.94C156.784 23.94 157.094 23.7467 157.334 23.36C157.581 22.9667 157.704 22.3233 157.704 21.43C157.704 20.5367 157.581 19.8933 157.334 19.5C157.094 19.1067 156.784 18.91 156.404 18.91ZM162.793 18.71C163.046 18.71 163.256 18.7433 163.423 18.81C163.596 18.8767 163.739 18.97 163.853 19.09C163.979 19.2233 164.069 19.39 164.123 19.59C164.176 19.79 164.203 20.06 164.203 20.4V23.07C164.203 23.35 164.259 23.54 164.373 23.64C164.493 23.74 164.689 23.79 164.963 23.79V24C164.849 23.9933 164.676 23.9867 164.443 23.98C164.209 23.9667 163.983 23.96 163.763 23.96C163.543 23.96 163.326 23.9667 163.113 23.98C162.906 23.9867 162.749 23.9933 162.643 24V23.79C162.883 23.79 163.053 23.74 163.153 23.64C163.253 23.54 163.303 23.35 163.303 23.07V20.18C163.303 19.9733 163.286 19.7833 163.253 19.61C163.219 19.4367 163.143 19.2967 163.023 19.19C162.909 19.0833 162.733 19.03 162.493 19.03C162.213 19.03 161.966 19.11 161.753 19.27C161.546 19.43 161.383 19.65 161.263 19.93C161.149 20.2033 161.093 20.51 161.093 20.85V23.07C161.093 23.35 161.143 23.54 161.243 23.64C161.343 23.74 161.513 23.79 161.753 23.79V24C161.646 23.9933 161.486 23.9867 161.273 23.98C161.066 23.9667 160.853 23.96 160.633 23.96C160.413 23.96 160.186 23.9667 159.953 23.98C159.719 23.9867 159.546 23.9933 159.433 24V23.79C159.706 23.79 159.899 23.74 160.013 23.64C160.133 23.54 160.193 23.35 160.193 23.07V19.94C160.193 19.64 160.139 19.42 160.033 19.28C159.926 19.1333 159.726 19.06 159.433 19.06V18.85C159.646 18.87 159.853 18.88 160.053 18.88C160.246 18.88 160.429 18.87 160.603 18.85C160.783 18.8233 160.946 18.7867 161.093 18.74V19.92C161.266 19.4667 161.506 19.1533 161.813 18.98C162.126 18.8 162.453 18.71 162.793 18.71Z" fill="black" fill-opacity="0.7"/>
<path d="M245.97 16.92V17.12C245.743 17.1267 245.57 17.1533 245.45 17.2C245.337 17.24 245.26 17.32 245.22 17.44C245.18 17.5533 245.16 17.7333 245.16 17.98V22.94C245.16 23.18 245.18 23.36 245.22 23.48C245.26 23.6 245.337 23.68 245.45 23.72C245.57 23.76 245.743 23.7867 245.97 23.8V24C245.817 23.9867 245.623 23.98 245.39 23.98C245.163 23.9733 244.933 23.97 244.7 23.97C244.44 23.97 244.197 23.9733 243.97 23.98C243.743 23.98 243.56 23.9867 243.42 24V23.8C243.647 23.7867 243.817 23.76 243.93 23.72C244.05 23.68 244.13 23.6 244.17 23.48C244.21 23.36 244.23 23.18 244.23 22.94V17.98C244.23 17.7333 244.21 17.5533 244.17 17.44C244.13 17.32 244.05 17.24 243.93 17.2C243.817 17.1533 243.647 17.1267 243.42 17.12V16.92C243.56 16.9267 243.743 16.9333 243.97 16.94C244.197 16.9467 244.44 16.95 244.7 16.95C244.933 16.95 245.163 16.9467 245.39 16.94C245.623 16.9333 245.817 16.9267 245.97 16.92ZM250.039 18.71C250.292 18.71 250.502 18.7433 250.669 18.81C250.842 18.8767 250.985 18.97 251.099 19.09C251.225 19.2233 251.315 19.39 251.369 19.59C251.422 19.79 251.449 20.06 251.449 20.4V23.07C251.449 23.35 251.505 23.54 251.619 23.64C251.739 23.74 251.935 23.79 252.209 23.79V24C252.095 23.9933 251.922 23.9867 251.689 23.98C251.455 23.9667 251.229 23.96 251.009 23.96C250.789 23.96 250.572 23.9667 250.359 23.98C250.152 23.9867 249.995 23.9933 249.889 24V23.79C250.129 23.79 250.299 23.74 250.399 23.64C250.499 23.54 250.549 23.35 250.549 23.07V20.18C250.549 19.9733 250.532 19.7833 250.499 19.61C250.465 19.4367 250.389 19.2967 250.269 19.19C250.155 19.0833 249.979 19.03 249.739 19.03C249.459 19.03 249.212 19.11 248.999 19.27C248.792 19.43 248.629 19.65 248.509 19.93C248.395 20.2033 248.339 20.51 248.339 20.85V23.07C248.339 23.35 248.389 23.54 248.489 23.64C248.589 23.74 248.759 23.79 248.999 23.79V24C248.892 23.9933 248.732 23.9867 248.519 23.98C248.312 23.9667 248.099 23.96 247.879 23.96C247.659 23.96 247.432 23.9667 247.199 23.98C246.965 23.9867 246.792 23.9933 246.679 24V23.79C246.952 23.79 247.145 23.74 247.259 23.64C247.379 23.54 247.439 23.35 247.439 23.07V19.94C247.439 19.64 247.385 19.42 247.279 19.28C247.172 19.1333 246.972 19.06 246.679 19.06V18.85C246.892 18.87 247.099 18.88 247.299 18.88C247.492 18.88 247.675 18.87 247.849 18.85C248.029 18.8233 248.192 18.7867 248.339 18.74V19.92C248.512 19.4667 248.752 19.1533 249.059 18.98C249.372 18.8 249.699 18.71 250.039 18.71ZM254.255 17.19V18.86H255.735V19.06H254.255V22.93C254.255 23.2433 254.312 23.4633 254.425 23.59C254.539 23.7167 254.695 23.78 254.895 23.78C255.095 23.78 255.269 23.7 255.415 23.54C255.562 23.3733 255.689 23.0967 255.795 22.71L255.995 22.76C255.929 23.1467 255.795 23.4733 255.595 23.74C255.402 24.0067 255.102 24.14 254.695 24.14C254.469 24.14 254.282 24.11 254.135 24.05C253.989 23.9967 253.859 23.9167 253.745 23.81C253.599 23.6567 253.495 23.4733 253.435 23.26C253.382 23.0467 253.355 22.7633 253.355 22.41V19.06H252.395V18.86H253.355V17.33C253.522 17.3233 253.682 17.31 253.835 17.29C253.989 17.27 254.129 17.2367 254.255 17.19ZM258.611 18.71C259.197 18.71 259.654 18.89 259.981 19.25C260.314 19.6033 260.481 20.1567 260.481 20.91H256.951L256.941 20.72H259.521C259.534 20.3933 259.507 20.0933 259.441 19.82C259.374 19.54 259.267 19.3167 259.121 19.15C258.981 18.9833 258.797 18.9 258.571 18.9C258.264 18.9 257.991 19.0533 257.751 19.36C257.517 19.6667 257.377 20.1533 257.331 20.82L257.361 20.86C257.347 20.96 257.337 21.07 257.331 21.19C257.324 21.31 257.321 21.43 257.321 21.55C257.321 22.0033 257.394 22.3933 257.541 22.72C257.687 23.0467 257.877 23.2967 258.111 23.47C258.351 23.6367 258.597 23.72 258.851 23.72C259.051 23.72 259.241 23.69 259.421 23.63C259.601 23.5633 259.767 23.4567 259.921 23.31C260.074 23.1633 260.207 22.9667 260.321 22.72L260.521 22.8C260.447 23.02 260.327 23.2333 260.161 23.44C259.994 23.6467 259.784 23.8167 259.531 23.95C259.277 24.0767 258.984 24.14 258.651 24.14C258.171 24.14 257.757 24.03 257.411 23.81C257.071 23.59 256.807 23.2867 256.621 22.9C256.441 22.5067 256.351 22.0567 256.351 21.55C256.351 20.9633 256.444 20.46 256.631 20.04C256.817 19.6133 257.081 19.2867 257.421 19.06C257.761 18.8267 258.157 18.71 258.611 18.71ZM264.349 18.71C264.529 18.71 264.686 18.7467 264.819 18.82C264.959 18.8933 265.066 18.99 265.139 19.11C265.219 19.2233 265.259 19.3533 265.259 19.5C265.259 19.6667 265.206 19.8133 265.099 19.94C264.999 20.0667 264.863 20.13 264.689 20.13C264.549 20.13 264.426 20.0867 264.319 20C264.213 19.9067 264.159 19.7767 264.159 19.61C264.159 19.4833 264.193 19.3767 264.259 19.29C264.333 19.1967 264.413 19.1233 264.499 19.07C264.453 19.0033 264.383 18.97 264.289 18.97C264.083 18.97 263.893 19.0333 263.719 19.16C263.546 19.28 263.399 19.4367 263.279 19.63C263.159 19.8233 263.066 20.03 262.999 20.25C262.933 20.4633 262.899 20.6633 262.899 20.85V22.97C262.899 23.2967 262.993 23.5167 263.179 23.63C263.373 23.7367 263.633 23.79 263.959 23.79V24C263.806 23.9933 263.589 23.9867 263.309 23.98C263.029 23.9667 262.733 23.96 262.419 23.96C262.193 23.96 261.966 23.9667 261.739 23.98C261.519 23.9867 261.353 23.9933 261.239 24V23.79C261.513 23.79 261.706 23.74 261.819 23.64C261.939 23.54 261.999 23.35 261.999 23.07V19.94C261.999 19.64 261.946 19.42 261.839 19.28C261.733 19.1333 261.533 19.06 261.239 19.06V18.85C261.453 18.87 261.659 18.88 261.859 18.88C262.053 18.88 262.236 18.87 262.409 18.85C262.589 18.8233 262.753 18.7867 262.899 18.74V19.99C262.973 19.7967 263.076 19.6033 263.209 19.41C263.349 19.21 263.516 19.0433 263.709 18.91C263.903 18.7767 264.116 18.71 264.349 18.71ZM267.927 18.71C268.514 18.71 268.97 18.89 269.297 19.25C269.63 19.6033 269.797 20.1567 269.797 20.91H266.267L266.257 20.72H268.837C268.85 20.3933 268.824 20.0933 268.757 19.82C268.69 19.54 268.584 19.3167 268.437 19.15C268.297 18.9833 268.114 18.9 267.887 18.9C267.58 18.9 267.307 19.0533 267.067 19.36C266.834 19.6667 266.694 20.1533 266.647 20.82L266.677 20.86C266.664 20.96 266.654 21.07 266.647 21.19C266.64 21.31 266.637 21.43 266.637 21.55C266.637 22.0033 266.71 22.3933 266.857 22.72C267.004 23.0467 267.194 23.2967 267.427 23.47C267.667 23.6367 267.914 23.72 268.167 23.72C268.367 23.72 268.557 23.69 268.737 23.63C268.917 23.5633 269.084 23.4567 269.237 23.31C269.39 23.1633 269.524 22.9667 269.637 22.72L269.837 22.8C269.764 23.02 269.644 23.2333 269.477 23.44C269.31 23.6467 269.1 23.8167 268.847 23.95C268.594 24.0767 268.3 24.14 267.967 24.14C267.487 24.14 267.074 24.03 266.727 23.81C266.387 23.59 266.124 23.2867 265.937 22.9C265.757 22.5067 265.667 22.0567 265.667 21.55C265.667 20.9633 265.76 20.46 265.947 20.04C266.134 19.6133 266.397 19.2867 266.737 19.06C267.077 18.8267 267.474 18.71 267.927 18.71ZM272.346 18.71C272.612 18.71 272.839 18.7533 273.026 18.84C273.212 18.9267 273.349 19.0067 273.436 19.08C273.656 19.26 273.789 19.14 273.836 18.72H274.066C274.052 18.9067 274.042 19.13 274.036 19.39C274.029 19.6433 274.026 19.9867 274.026 20.42H273.796C273.756 20.1733 273.686 19.9333 273.586 19.7C273.492 19.4667 273.352 19.2767 273.166 19.13C272.979 18.9767 272.736 18.9 272.436 18.9C272.202 18.9 272.006 18.9667 271.846 19.1C271.692 19.2267 271.616 19.4167 271.616 19.67C271.616 19.87 271.676 20.0433 271.796 20.19C271.916 20.33 272.072 20.4633 272.266 20.59C272.459 20.71 272.669 20.8433 272.896 20.99C273.149 21.15 273.379 21.3133 273.586 21.48C273.792 21.6467 273.956 21.83 274.076 22.03C274.202 22.23 274.266 22.4667 274.266 22.74C274.266 23.0467 274.186 23.3033 274.026 23.51C273.866 23.7167 273.656 23.8733 273.396 23.98C273.142 24.0867 272.862 24.14 272.556 24.14C272.409 24.14 272.269 24.1267 272.136 24.1C272.009 24.08 271.886 24.0467 271.766 24C271.699 23.9667 271.629 23.9267 271.556 23.88C271.489 23.8333 271.422 23.7833 271.356 23.73C271.289 23.6767 271.229 23.68 271.176 23.74C271.122 23.7933 271.082 23.9033 271.056 24.07H270.826C270.839 23.8567 270.849 23.5967 270.856 23.29C270.862 22.9833 270.866 22.5767 270.866 22.07H271.096C271.142 22.4433 271.209 22.77 271.296 23.05C271.382 23.33 271.519 23.55 271.706 23.71C271.892 23.8633 272.152 23.94 272.486 23.94C272.619 23.94 272.752 23.91 272.886 23.85C273.026 23.79 273.142 23.69 273.236 23.55C273.329 23.41 273.376 23.2233 273.376 22.99C273.376 22.6967 273.269 22.4567 273.056 22.27C272.842 22.0833 272.572 21.8867 272.246 21.68C272.006 21.5267 271.779 21.3733 271.566 21.22C271.359 21.0667 271.189 20.8933 271.056 20.7C270.929 20.5067 270.866 20.2733 270.866 20C270.866 19.7 270.932 19.4567 271.066 19.27C271.206 19.0767 271.389 18.9367 271.616 18.85C271.842 18.7567 272.086 18.71 272.346 18.71ZM276.638 17.19V18.86H278.118V19.06H276.638V22.93C276.638 23.2433 276.695 23.4633 276.808 23.59C276.922 23.7167 277.078 23.78 277.278 23.78C277.478 23.78 277.652 23.7 277.798 23.54C277.945 23.3733 278.072 23.0967 278.178 22.71L278.378 22.76C278.312 23.1467 278.178 23.4733 277.978 23.74C277.785 24.0067 277.485 24.14 277.078 24.14C276.852 24.14 276.665 24.11 276.518 24.05C276.372 23.9967 276.242 23.9167 276.128 23.81C275.982 23.6567 275.878 23.4733 275.818 23.26C275.765 23.0467 275.738 22.7633 275.738 22.41V19.06H274.778V18.86H275.738V17.33C275.905 17.3233 276.065 17.31 276.218 17.29C276.372 17.27 276.512 17.2367 276.638 17.19ZM280.353 18.71C280.62 18.71 280.847 18.7533 281.033 18.84C281.22 18.9267 281.357 19.0067 281.443 19.08C281.663 19.26 281.797 19.14 281.843 18.72H282.073C282.06 18.9067 282.05 19.13 282.043 19.39C282.037 19.6433 282.033 19.9867 282.033 20.42H281.803C281.763 20.1733 281.693 19.9333 281.593 19.7C281.5 19.4667 281.36 19.2767 281.173 19.13C280.987 18.9767 280.743 18.9 280.443 18.9C280.21 18.9 280.013 18.9667 279.853 19.1C279.7 19.2267 279.623 19.4167 279.623 19.67C279.623 19.87 279.683 20.0433 279.803 20.19C279.923 20.33 280.08 20.4633 280.273 20.59C280.467 20.71 280.677 20.8433 280.903 20.99C281.157 21.15 281.387 21.3133 281.593 21.48C281.8 21.6467 281.963 21.83 282.083 22.03C282.21 22.23 282.273 22.4667 282.273 22.74C282.273 23.0467 282.193 23.3033 282.033 23.51C281.873 23.7167 281.663 23.8733 281.403 23.98C281.15 24.0867 280.87 24.14 280.563 24.14C280.417 24.14 280.277 24.1267 280.143 24.1C280.017 24.08 279.893 24.0467 279.773 24C279.707 23.9667 279.637 23.9267 279.563 23.88C279.497 23.8333 279.43 23.7833 279.363 23.73C279.297 23.6767 279.237 23.68 279.183 23.74C279.13 23.7933 279.09 23.9033 279.063 24.07H278.833C278.847 23.8567 278.857 23.5967 278.863 23.29C278.87 22.9833 278.873 22.5767 278.873 22.07H279.103C279.15 22.4433 279.217 22.77 279.303 23.05C279.39 23.33 279.527 23.55 279.713 23.71C279.9 23.8633 280.16 23.94 280.493 23.94C280.627 23.94 280.76 23.91 280.893 23.85C281.033 23.79 281.15 23.69 281.243 23.55C281.337 23.41 281.383 23.2233 281.383 22.99C281.383 22.6967 281.277 22.4567 281.063 22.27C280.85 22.0833 280.58 21.8867 280.253 21.68C280.013 21.5267 279.787 21.3733 279.573 21.22C279.367 21.0667 279.197 20.8933 279.063 20.7C278.937 20.5067 278.873 20.2733 278.873 20C278.873 19.7 278.94 19.4567 279.073 19.27C279.213 19.0767 279.397 18.9367 279.623 18.85C279.85 18.7567 280.093 18.71 280.353 18.71Z" fill="black" fill-opacity="0.7"/>
<circle cx="14" cy="5" r="4.5" fill="white" stroke="#00744F"/>
<circle cx="138.393" cy="5" r="5" fill="white"/>
<circle cx="138.393" cy="5" r="4.5" stroke="black" stroke-opacity="0.7"/>
<circle cx="262.785" cy="5" r="5" fill="white"/>
<circle cx="262.785" cy="5" r="4.5" stroke="black" stroke-opacity="0.7"/>
<line x1="23" y1="5.5" x2="128" y2="5.49999" stroke="black" stroke-opacity="0.7"/>
<line x1="149" y1="5.5" x2="254" y2="5.5" stroke="black" stroke-opacity="0.7"/>
</svg>
