<svg width="101" height="81" viewBox="0 0 101 81" fill="none" xmlns="http://www.w3.org/2000/svg">
<path d="M80.4418 19.9848C80.1676 20.2569 79.9827 20.5869 79.9059 20.9409L78.8366 21.4576V19.0158L78.8566 19.0393L80.5639 17.9674C81.1774 18.0478 81.8047 17.964 82.361 17.7273C83.2383 17.3221 83.8764 15.9308 83.8764 15.9308C83.8764 15.9308 81.7877 15.7271 81.0798 16.4817C80.6929 16.8728 80.4862 17.3725 80.4991 17.886L78.8366 18.9343V17.1313C79.148 17.0065 79.4232 16.8235 79.6422 16.5959C79.8612 16.3682 80.0185 16.1015 80.1028 15.815C80.4069 14.801 78.7893 12.8008 78.7893 12.8008C78.7893 12.8008 77.1019 14.8567 77.4508 15.8986C77.53 16.1786 77.6884 16.4375 77.9119 16.6522C78.1354 16.8668 78.4171 17.0307 78.732 17.1292V21.0438L77.5306 20.1863C77.5568 19.9128 77.5153 19.6376 77.4087 19.3789C77.3022 19.1202 77.133 18.8839 76.9125 18.6856C76.1049 17.9031 73.949 17.961 73.949 17.961C73.949 17.961 74.8587 19.526 75.6314 20.0469C76.3093 20.5036 77.244 20.3171 77.4683 20.2613L78.732 21.1682V22.3559H76.8552L77.6203 26.4763H79.9209L80.686 22.3559H78.8466V21.5691L80.023 21.0031C80.6337 21.1539 81.287 21.1121 81.865 20.8852C82.5283 20.56 83.1122 20.1276 83.5847 19.6117C83.5847 19.6117 81.3141 19.1144 80.4418 19.9848Z" fill="#6688CC"/>
<path d="M66.3047 11.7812H41.0613V13.5456H66.3047V11.7812Z" fill="white"/>
<path d="M66.3047 14.4268H41.0613V16.1911H66.3047V14.4268Z" fill="white"/>
<path d="M66.3047 17.0723H41.0613V18.8366H66.3047V17.0723Z" fill="white"/>
<path d="M66.3047 19.7197H41.0613V21.4841H66.3047V19.7197Z" fill="white"/>
<path d="M66.3047 22.3652H41.0613V24.1296H66.3047V22.3652Z" fill="white"/>
<path d="M66.3047 25.0107H41.0613V26.7751H66.3047V25.0107Z" fill="white"/>
<path d="M66.3047 27.6562H41.0613V29.4206H66.3047V27.6562Z" fill="white"/>
<path d="M66.3047 30.3018H41.0613V32.0661H66.3047V30.3018Z" fill="white"/>
<path d="M66.3047 32.9473H41.0613V34.7116H66.3047V32.9473Z" fill="white"/>
<path d="M66.3047 35.5928H41.0613V37.3571H66.3047V35.5928Z" fill="white"/>
<path d="M66.3047 38.2383H41.0613V40.0027H66.3047V38.2383Z" fill="white"/>
<path d="M66.3047 40.8838H41.0613V42.6482H66.3047V40.8838Z" fill="white"/>
<path d="M66.3047 43.5312H41.0613V45.2956H66.3047V43.5312Z" fill="white"/>
<path d="M39.3914 11.7812H14.1479V13.5456H39.3914V11.7812Z" fill="white"/>
<path d="M39.3914 14.4268H14.1479V16.1911H39.3914V14.4268Z" fill="white"/>
<path d="M39.3914 17.0723H14.1479V18.8366H39.3914V17.0723Z" fill="white"/>
<path d="M39.3914 19.7197H14.1479V21.4841H39.3914V19.7197Z" fill="white"/>
<path d="M39.3914 22.3652H14.1479V24.1296H39.3914V22.3652Z" fill="white"/>
<path d="M39.3914 25.0107H14.1479V26.7751H39.3914V25.0107Z" fill="white"/>
<path d="M39.3914 27.6562H14.1479V29.4206H39.3914V27.6562Z" fill="white"/>
<path d="M39.3914 30.3018H14.1479V32.0661H39.3914V30.3018Z" fill="white"/>
<path d="M39.3914 32.9473H14.1479V34.7116H39.3914V32.9473Z" fill="white"/>
<path d="M39.3914 35.5928H14.1479V37.3571H39.3914V35.5928Z" fill="white"/>
<path d="M39.3914 38.2383H14.1479V40.0027H39.3914V38.2383Z" fill="white"/>
<path d="M39.3914 40.8838H14.1479V42.6482H39.3914V40.8838Z" fill="white"/>
<path d="M39.3914 43.5312H14.1479V45.2956H39.3914V43.5312Z" fill="white"/>
<path d="M67.5585 10.04H12.8918V11.3263H67.5585V10.04Z" stroke="#263238" stroke-width="0.2" stroke-miterlimit="10"/>
<path d="M12.9292 53.7012H10.4368V79.9996H12.9292V53.7012Z" stroke="#263238" stroke-width="0.2" stroke-miterlimit="10"/>
<path d="M70.4221 53.7012H67.9297V79.9996H70.4221V53.7012Z" stroke="#263238" stroke-width="0.2" stroke-miterlimit="10"/>
<path d="M13.7616 47.2695H67.2319C68.1891 47.2695 69.107 47.5966 69.7839 48.1788C70.4607 48.7609 70.8409 49.5505 70.8409 50.3738V55.0409H10.155V50.376C10.1547 49.9683 10.2477 49.5646 10.4288 49.1878C10.6099 48.8111 10.8754 48.4687 11.2103 48.1803C11.5452 47.8918 11.9429 47.6629 12.3807 47.5066C12.8184 47.3504 13.2876 47.2698 13.7616 47.2695Z" fill="#6688CC" stroke="#6688CC" stroke-width="0.2" stroke-miterlimit="10"/>
<path d="M15.2273 52.79H69.0989" stroke="#263238" stroke-width="0.2" stroke-miterlimit="10"/>
<path d="M11.0474 52.79H12.5403" stroke="#263238" stroke-width="0.2" stroke-miterlimit="10"/>
<path d="M8.44288 66.4229H5.95044V79.9998H8.44288V66.4229Z" stroke="#263238" stroke-width="0.2" stroke-miterlimit="10"/>
<path d="M25.2268 66.4229H22.7344V79.9998H25.2268V66.4229Z" stroke="#263238" stroke-width="0.2" stroke-miterlimit="10"/>
<path d="M9.27526 59.9912H22.0241C22.9813 59.9912 23.8992 60.3183 24.5761 60.9004C25.2529 61.4826 25.6331 62.2722 25.6331 63.0955V67.7626H5.6687V63.0955C5.6687 62.2725 6.0486 61.4833 6.72489 60.9012C7.40118 60.3191 8.31851 59.9918 9.27526 59.9912Z" fill="#6688CC" stroke="#6688CC" stroke-width="0.2" stroke-miterlimit="10"/>
<path d="M89.0333 28.6182H77.4011V76.2113H89.0333V28.6182Z" stroke="#263238" stroke-width="0.2" stroke-miterlimit="10"/>
<path d="M95.3467 28.6182H90.3618V76.2113H95.3467" stroke="#263238" stroke-width="0.2" stroke-miterlimit="10"/>
<path d="M75.574 79.929V26.4746H91.1916" stroke="#263238" stroke-width="0.2" stroke-miterlimit="10"/>
<path d="M88.0338 49.6279H86.7053V54.0592H88.0338V49.6279Z" stroke="#263238" stroke-width="0.2" stroke-miterlimit="10"/>
<path d="M92.6871 49.6279H91.3586V54.0592H92.6871V49.6279Z" stroke="#263238" stroke-width="0.2" stroke-miterlimit="10"/>
<path d="M60.0514 21.4299C60.0514 21.4299 60.1012 22.5576 59.8021 23.2243C59.503 23.891 59.6575 25.3124 59.7548 25.5611C59.852 25.8098 59.4631 26.648 59.4631 26.648L60.3853 27.7328C60.3853 27.7328 61.4521 26.3543 61.9855 25.604C62.5189 24.8536 63.304 24.1848 63.0523 23.7667C62.8005 23.3487 62.0353 22.5147 61.9855 22.3068C61.9356 22.0988 61.487 21.8908 61.487 21.8908L60.7118 23.3915C60.7118 23.3915 60.5673 22.3068 60.5673 21.8072C60.5673 21.3077 60.1984 21.0548 60.0514 21.4299Z" fill="white"/>
<mask id="mask0_500_189" style="mask-type:luminance" maskUnits="userSpaceOnUse" x="59" y="21" width="5" height="7">
<path d="M60.0514 21.4299C60.0514 21.4299 60.1012 22.5576 59.8021 23.2243C59.503 23.891 59.6575 25.3124 59.7548 25.5611C59.852 25.8098 59.4631 26.648 59.4631 26.648L60.3853 27.7328C60.3853 27.7328 61.4521 26.3543 61.9855 25.604C62.5189 24.8536 63.304 24.1848 63.0523 23.7667C62.8005 23.3487 62.0353 22.5147 61.9855 22.3068C61.9356 22.0988 61.487 21.8908 61.487 21.8908L60.7118 23.3915C60.7118 23.3915 60.5673 22.3068 60.5673 21.8072C60.5673 21.3077 60.1984 21.0548 60.0514 21.4299Z" fill="white"/>
</mask>
<g mask="url(#mask0_500_189)">
<path opacity="0.15" d="M60.0514 21.4299C60.0514 21.4299 60.1012 22.5576 59.8021 23.2243C59.503 23.891 59.6575 25.3124 59.7548 25.5611C59.852 25.8098 59.4631 26.648 59.4631 26.648L60.3853 27.7328C60.3853 27.7328 61.4521 26.3543 61.9855 25.604C62.5189 24.8536 63.304 24.1848 63.0523 23.7667C62.8005 23.3487 62.0353 22.5147 61.9855 22.3068C61.9356 22.0988 61.487 21.8908 61.487 21.8908L60.7118 23.3915C60.7118 23.3915 60.5673 22.3068 60.5673 21.8072C60.5673 21.3077 60.1984 21.0548 60.0514 21.4299Z" fill="#FFBF9D" stroke="#263238" stroke-width="0.2" stroke-linecap="round" stroke-linejoin="round"/>
</g>
<path d="M60.0514 21.4299C60.0514 21.4299 60.1012 22.5576 59.8021 23.2243C59.503 23.891 59.6575 25.3124 59.7548 25.5611C59.852 25.8098 59.4631 26.648 59.4631 26.648L60.3853 27.7328C60.3853 27.7328 61.4521 26.3543 61.9855 25.604C62.5189 24.8536 63.304 24.1848 63.0523 23.7667C62.8005 23.3487 62.0353 22.5147 61.9855 22.3068C61.9356 22.0988 61.487 21.8908 61.487 21.8908L60.7118 23.3915C60.7118 23.3915 60.5673 22.3068 60.5673 21.8072C60.5673 21.3077 60.1984 21.0548 60.0514 21.4299Z" stroke="#263238" stroke-width="0.2" stroke-linecap="round" stroke-linejoin="round"/>
<path d="M59.276 26.4033L61.2176 28.0712C61.2176 28.0712 55.1037 36.7945 54.4731 37.0432C53.8425 37.2919 51.4647 35.6218 51.4647 35.6218L49.8621 28.0241C49.8621 28.0241 52.0006 29.0124 52.7284 30.0543C53.4562 31.0962 53.9397 31.1969 53.9397 31.1969L59.276 26.4033Z" fill="white"/>
<mask id="mask1_500_189" style="mask-type:luminance" maskUnits="userSpaceOnUse" x="49" y="26" width="13" height="12">
<path d="M59.276 26.4023L61.2176 28.0702C61.2176 28.0702 55.1037 36.7935 54.4731 37.0422C53.8425 37.2909 51.4647 35.6208 51.4647 35.6208L49.8621 28.0231C49.8621 28.0231 52.0006 29.0114 52.7284 30.0533C53.4562 31.0952 53.9397 31.196 53.9397 31.196L59.276 26.4023Z" fill="white"/>
</mask>
<g mask="url(#mask1_500_189)">
<path d="M53.571 33.5525C53.3791 33.5525 53.1846 32.83 53.1846 32.4419C53.1846 32.0539 52.1528 32.7764 52.1528 32.7764L50.9938 31.4451L50.6174 31.6016L51.4649 35.6191C51.4649 35.6191 53.8426 37.287 54.4732 37.0362C55.1038 36.7854 60.5573 29.0032 61.1629 28.1436C59.6725 29.2305 53.7405 33.5525 53.571 33.5525Z" fill="#6688CC"/>
<path opacity="0.5" d="M53.571 33.5525C53.3791 33.5525 53.1846 32.83 53.1846 32.4419C53.1846 32.0539 52.1528 32.7764 52.1528 32.7764L50.9938 31.4451L50.6174 31.6016L51.4649 35.6191C51.4649 35.6191 53.8426 37.287 54.4732 37.0362C55.1038 36.7854 60.5573 29.0032 61.1629 28.1436C59.6725 29.2305 53.7405 33.5525 53.571 33.5525Z" fill="white"/>
</g>
<path d="M59.276 26.4033L61.2176 28.0712C61.2176 28.0712 55.1037 36.7945 54.4731 37.0432C53.8425 37.2919 51.4647 35.6218 51.4647 35.6218L49.8621 28.0241C49.8621 28.0241 52.0006 29.0124 52.7284 30.0543C53.4562 31.0962 53.9397 31.1969 53.9397 31.1969L59.276 26.4033Z" stroke="#263238" stroke-width="0.2" stroke-linecap="round" stroke-linejoin="round"/>
<path d="M53.0375 33.9342C53.1621 32.9694 53.9398 31.1943 53.9398 31.1943C53.9398 31.1943 52.9129 32.4335 52.6013 33.0766" stroke="#263238" stroke-width="0.2" stroke-linecap="round" stroke-linejoin="round"/>
<path d="M48.0526 76.569C48.8441 77.1514 49.752 77.6054 50.732 77.9089C52.4144 78.4448 53.1621 78.7664 53.4114 79.2488C53.6606 79.7311 53.4114 79.9991 53.4114 79.9991H42.7562C42.7562 79.9991 42.1954 79.2488 43.1301 77.7481C44.0647 76.2474 48.0526 76.569 48.0526 76.569Z" fill="white" stroke="#263238" stroke-width="0.2" stroke-linecap="round" stroke-linejoin="round"/>
<path d="M48.434 76.8857C48.434 76.8857 47.5641 77.2137 47.8358 77.3531C48.1074 77.4924 48.8128 77.1666 48.8128 77.1666C48.8128 77.1666 47.9454 77.7283 48.3791 77.7754C48.8128 77.8226 49.4658 77.4946 49.4658 77.4946C49.4658 77.4946 48.8676 78.1485 49.1393 78.1956C49.411 78.2428 50.1164 77.7669 50.1164 77.7669" stroke="#263238" stroke-width="0.2" stroke-linecap="round" stroke-linejoin="round"/>
<path d="M42.6589 79.3241L53.4113 79.249" stroke="#263238" stroke-width="0.2" stroke-linecap="round" stroke-linejoin="round"/>
<path d="M52.165 53.6838C52.165 53.6838 50.9188 62.4199 50.7319 64.5102C50.5449 66.6004 48.8625 70.2449 48.551 71.1561C48.2323 72.3006 48.0238 73.4658 47.9279 74.6398C47.9865 75.1462 48.0907 75.6479 48.2394 76.1405C48.2394 76.1405 48.3641 76.6229 47.1802 76.8372C45.9962 77.0516 43.8154 77.3732 43.8154 77.3732C43.8154 77.3732 43.0053 77.1588 43.0676 75.1222C43.1299 73.0855 43.2546 69.3338 43.8154 67.5652C44.3762 65.7965 45.1239 62.9023 45.3108 62.3128C45.4978 61.7232 45.0616 52.0223 45.0616 52.0223L52.0404 51.9688L52.165 53.6838Z" fill="#263238" stroke="#263238" stroke-width="0.2" stroke-linecap="round" stroke-linejoin="round"/>
<path d="M43.13 76.569C43.9215 77.1514 44.8294 77.6054 45.8094 77.9089C47.4918 78.4448 48.2395 78.7664 48.4888 79.2488C48.738 79.7311 48.4888 79.9991 48.4888 79.9991H37.8336C37.8336 79.9991 37.2728 79.2488 38.2075 77.7481C39.1421 76.2474 43.13 76.569 43.13 76.569Z" fill="white" stroke="#263238" stroke-width="0.2" stroke-linecap="round" stroke-linejoin="round"/>
<path d="M44.4138 77.3086C44.4138 77.3086 43.0554 77.9625 43.2722 78.0546C43.4891 78.1468 44.8475 77.5873 44.8475 77.5873C44.8475 77.5873 44.0873 78.3355 44.5209 78.2883C44.9546 78.2412 45.4456 77.7759 45.4456 77.7759C45.4456 77.7759 45.0095 78.5692 45.336 78.477C45.6063 78.364 45.8471 78.205 46.0438 78.0096" stroke="#263238" stroke-width="0.2" stroke-linecap="round" stroke-linejoin="round"/>
<path d="M37.699 79.1074L48.4887 79.2489" stroke="#263238" stroke-width="0.2" stroke-linecap="round" stroke-linejoin="round"/>
<path d="M39.5782 51.4326C39.5782 51.4326 39.9521 59.7936 39.8898 61.4015C39.8275 63.0093 38.8305 64.778 38.7059 66.7074C38.5813 68.6369 37.689 76.2239 37.689 77.0815C37.689 77.939 37.7313 78.1019 37.7936 78.2627C37.856 78.4235 39.3913 78.0698 40.2637 77.8018C41.136 77.5338 44.1319 77.2637 44.1319 77.2637C44.1319 77.2637 43.6334 76.4619 43.6334 75.8723C43.6334 75.2828 43.5088 74.3181 43.6334 73.9965C43.7581 73.6749 44.5058 66.9754 45.0043 65.7427C45.5028 64.51 46.3751 60.4367 46.4374 58.8824C46.4997 57.3282 47.2475 52.0758 47.2475 52.0758C47.2475 52.0758 42.2576 52.2366 39.5782 51.4326Z" fill="#263238" stroke="#263238" stroke-width="0.2" stroke-linecap="round" stroke-linejoin="round"/>
<path d="M47.4644 57.8102C47.4943 57.4886 47.5117 57.1885 47.5117 56.9141" stroke="white" stroke-width="0.2" stroke-linecap="round" stroke-linejoin="round"/>
<path d="M44.1321 76.7166V75.083C44.1321 74.2641 44.977 70.1758 45.7148 66.542C46.2631 63.8493 46.9859 61.0559 47.3224 58.9014" stroke="white" stroke-width="0.2" stroke-linecap="round" stroke-linejoin="round"/>
<path d="M40.8893 25.2155C40.8893 25.2155 38.6087 27.0099 38.4143 27.145C38.2199 27.28 36.4727 29.7304 35.9891 30.6909C35.5056 31.6513 35.9393 33.4457 36.2384 34.9785C36.5375 36.5114 38.4218 41.4465 38.4218 41.4465L37.9357 53.9236C37.9357 53.9236 41.2831 55.1349 43.1698 55.4243C45.0566 55.7137 48.07 55.5915 48.07 55.5915L48.7006 52.8796L49.4757 55.465C49.4757 55.465 52.4342 55.1735 53.7926 53.8807L52.1451 37.9799L51.2229 30.8431C51.2229 30.8431 50.9737 29.128 50.4951 28.3819C50.0166 27.6359 47.3895 26.1695 45.5451 25.595C43.7007 25.0204 40.8893 25.2155 40.8893 25.2155Z" fill="white"/>
<mask id="mask2_500_189" style="mask-type:luminance" maskUnits="userSpaceOnUse" x="35" y="25" width="19" height="31">
<path d="M40.8893 25.2155C40.8893 25.2155 38.6087 27.0099 38.4143 27.145C38.2199 27.28 36.4727 29.7304 35.9891 30.6909C35.5056 31.6513 35.9393 33.4457 36.2384 34.9785C36.5375 36.5114 38.4218 41.4465 38.4218 41.4465L37.9357 53.9236C37.9357 53.9236 41.2831 55.1349 43.1698 55.4243C45.0566 55.7137 48.07 55.5915 48.07 55.5915L48.7006 52.8796L49.4757 55.465C49.4757 55.465 52.4342 55.1735 53.7926 53.8807L52.1451 37.9799L51.2229 30.8431C51.2229 30.8431 50.9737 29.128 50.4951 28.3819C50.0166 27.6359 47.3895 26.1695 45.5451 25.595C43.7007 25.0204 40.8893 25.2155 40.8893 25.2155Z" fill="white"/>
</mask>
<g mask="url(#mask2_500_189)">
<path d="M42.8061 36.0507L37.9708 33.834L38.1751 32.2325C38.1751 32.2325 36.4903 32.0053 36.8766 31.062C37.2629 30.1187 38.8182 28.3329 39.1347 27.7305C39.4513 27.1281 41.196 26.0154 41.196 26.0154L41.8914 25.1836C41.2907 25.1836 40.8944 25.2179 40.8944 25.2179C40.8944 25.2179 38.6138 27.0123 38.4194 27.1473C38.225 27.2824 36.4778 29.7328 35.9943 30.6932C35.5107 31.6537 35.9444 33.4481 36.2435 34.9809C36.5426 36.5138 38.4269 41.4489 38.4269 41.4489L37.9408 53.926C37.9408 53.926 38.7359 54.2133 39.7703 54.5413C39.6282 49.9835 39.374 41.3245 39.4687 41.2023C39.5983 41.0373 41.854 38.3746 42.497 37.7722C43.1401 37.1698 39.6631 37.9373 39.855 37.8279C40.047 37.7186 42.8061 36.0507 42.8061 36.0507Z" fill="#6688CC"/>
<path opacity="0.5" d="M42.8061 36.0507L37.9708 33.834L38.1751 32.2325C38.1751 32.2325 36.4903 32.0053 36.8766 31.062C37.2629 30.1187 38.8182 28.3329 39.1347 27.7305C39.4513 27.1281 41.196 26.0154 41.196 26.0154L41.8914 25.1836C41.2907 25.1836 40.8944 25.2179 40.8944 25.2179C40.8944 25.2179 38.6138 27.0123 38.4194 27.1473C38.225 27.2824 36.4778 29.7328 35.9943 30.6932C35.5107 31.6537 35.9444 33.4481 36.2435 34.9809C36.5426 36.5138 38.4269 41.4489 38.4269 41.4489L37.9408 53.926C37.9408 53.926 38.7359 54.2133 39.7703 54.5413C39.6282 49.9835 39.374 41.3245 39.4687 41.2023C39.5983 41.0373 41.854 38.3746 42.497 37.7722C43.1401 37.1698 39.6631 37.9373 39.855 37.8279C40.047 37.7186 42.8061 36.0507 42.8061 36.0507Z" fill="white"/>
<path d="M47.4294 34.0674C47.4294 34.0674 49.0969 47.848 48.7006 52.8838L47.4294 34.0674Z" fill="white"/>
<path d="M47.4294 34.0674C47.4294 34.0674 49.0969 47.848 48.7006 52.8838" stroke="#263238" stroke-width="0.2" stroke-linecap="round" stroke-linejoin="round"/>
<path d="M40.0769 45.752L45.1241 46.3415V47.467L40.1392 46.7703L40.0769 45.752Z" stroke="#263238" stroke-width="0.2" stroke-linecap="round" stroke-linejoin="round"/>
<path d="M52.7259 46.5018L51.1681 46.9842L50.9812 45.9123L52.2274 45.5371" stroke="#263238" stroke-width="0.2" stroke-linecap="round" stroke-linejoin="round"/>
</g>
<path d="M40.8893 25.2155C40.8893 25.2155 38.6087 27.0099 38.4143 27.145C38.2199 27.28 36.4727 29.7304 35.9891 30.6909C35.5056 31.6513 35.9393 33.4457 36.2384 34.9785C36.5375 36.5114 38.4218 41.4465 38.4218 41.4465L37.9357 53.9236C37.9357 53.9236 41.2831 55.1349 43.1698 55.4243C45.0566 55.7137 48.07 55.5915 48.07 55.5915L48.7006 52.8796L49.4757 55.465C49.4757 55.465 52.4342 55.1735 53.7926 53.8807L52.1451 37.9799L51.2229 30.8431C51.2229 30.8431 50.9737 29.128 50.4951 28.3819C50.0166 27.6359 47.3895 26.1695 45.5451 25.595C43.7007 25.0204 40.8893 25.2155 40.8893 25.2155Z" stroke="#263238" stroke-width="0.2" stroke-linecap="round" stroke-linejoin="round"/>
<path d="M40.5977 25.5459C40.5977 25.5459 44.9146 30.0115 45.6424 31.1799C46.3701 32.3483 47.4394 33.7675 47.4394 33.7675C47.4394 33.7675 47.4868 29.8014 46.8562 27.9663C46.2256 26.1311 45.5476 25.801 45.5476 25.801C45.1884 25.4841 44.7429 25.2494 44.2515 25.118C43.7602 24.9866 43.2385 24.9627 42.7337 25.0485C40.8893 25.2993 40.5977 25.5459 40.5977 25.5459Z" fill="white" stroke="#263238" stroke-width="0.2" stroke-linecap="round" stroke-linejoin="round"/>
<path d="M47.3248 30.7101L46.273 28.8471V27.2199L44.8174 25.9336L44.6729 28.0195L45.7396 29.0636L46.2381 32.0885C46.8438 32.9804 47.4469 33.78 47.4469 33.78C47.4469 33.78 47.4569 32.2836 47.3248 30.7101Z" fill="#263238" stroke="#263238" stroke-width="0.2" stroke-linecap="round" stroke-linejoin="round"/>
<path d="M45.448 26.886L46.8562 27.9708L45.6424 25.4668C45.6424 25.4668 45.109 26.6352 45.448 26.886Z" fill="white" stroke="#263238" stroke-width="0.2" stroke-linecap="round" stroke-linejoin="round"/>
<path d="M42.3923 15.9924C42.3923 15.9924 40.4532 16.7449 39.6282 18.0805C38.8032 19.4161 40.0145 21.0433 40.4033 21.4592C40.6823 21.747 40.9909 22.0125 41.3255 22.2524L41.7143 22.6276L41.7617 24.5056L45.2985 27.0932L46.268 24.422C46.268 24.422 47.918 24.1304 48.1623 23.588C48.4065 23.0457 47.6762 19.7077 47.4818 19.0388C47.2874 18.37 46.7067 17.0794 46.7067 17.0794C46.7067 17.0794 46.8986 16.4534 45.7845 15.8681C44.6704 15.2828 42.3923 15.9924 42.3923 15.9924Z" fill="white"/>
<mask id="mask3_500_189" style="mask-type:luminance" maskUnits="userSpaceOnUse" x="39" y="15" width="10" height="13">
<path d="M42.3923 15.9924C42.3923 15.9924 40.4532 16.7449 39.6282 18.0805C38.8032 19.4161 40.0145 21.0433 40.4033 21.4592C40.6823 21.747 40.9909 22.0125 41.3255 22.2524L41.7143 22.6276L41.7617 24.5056L45.2985 27.0932L46.268 24.422C46.268 24.422 47.918 24.1304 48.1623 23.588C48.4065 23.0457 47.6762 19.7077 47.4818 19.0388C47.2874 18.37 46.7067 17.0794 46.7067 17.0794C46.7067 17.0794 46.8986 16.4534 45.7845 15.8681C44.6704 15.2828 42.3923 15.9924 42.3923 15.9924Z" fill="white"/>
</mask>
<g mask="url(#mask3_500_189)">
<g opacity="0.15">
<path d="M42.3923 15.9924C42.3923 15.9924 40.4532 16.7449 39.6282 18.0805C38.8032 19.4161 40.0145 21.0433 40.4033 21.4592C40.6823 21.747 40.9909 22.0125 41.3255 22.2524L41.7143 22.6276L41.7617 24.5056L45.2985 27.0932L46.268 24.422C46.268 24.422 47.918 24.1304 48.1623 23.588C48.4065 23.0457 47.6762 19.7077 47.4818 19.0388C47.2874 18.37 46.7067 17.0794 46.7067 17.0794C46.7067 17.0794 46.8986 16.4534 45.7845 15.8681C44.6704 15.2828 42.3923 15.9924 42.3923 15.9924Z" fill="black"/>
<mask id="mask4_500_189" style="mask-type:luminance" maskUnits="userSpaceOnUse" x="39" y="15" width="10" height="13">
<path d="M42.3923 15.9924C42.3923 15.9924 40.4532 16.7449 39.6282 18.0805C38.8032 19.4161 40.0145 21.0433 40.4033 21.4592C40.6823 21.747 40.9909 22.0125 41.3255 22.2524L41.7143 22.6276L41.7617 24.5056L45.2985 27.0932L46.268 24.422C46.268 24.422 47.918 24.1304 48.1623 23.588C48.4065 23.0457 47.6762 19.7077 47.4818 19.0388C47.2874 18.37 46.7067 17.0794 46.7067 17.0794C46.7067 17.0794 46.8986 16.4534 45.7845 15.8681C44.6704 15.2828 42.3923 15.9924 42.3923 15.9924Z" fill="white"/>
</mask>
<g mask="url(#mask4_500_189)">
<path d="M43.7108 22.9087C43.5164 22.0768 44.2916 19.9073 43.4616 18.4731C42.7961 17.3261 40.8694 17.4011 40.1068 17.489C39.9261 17.6711 39.769 17.8695 39.6382 18.0807C38.8132 19.4163 40.0245 21.0435 40.4133 21.4594C40.6923 21.7472 41.001 22.0127 41.3355 22.2526L41.7243 22.6278L41.7717 24.5058L42.7487 25.2197C42.7487 24.9796 42.7487 24.7909 42.7487 24.6816C42.7487 24.315 44.6829 24.2936 45.1988 24.1285C45.7147 23.9634 43.9027 23.7405 43.7108 22.9087Z" fill="black"/>
<path opacity="0.5" d="M43.7108 22.9087C43.5164 22.0768 44.2916 19.9073 43.4616 18.4731C42.7961 17.3261 40.8694 17.4011 40.1068 17.489C39.9261 17.6711 39.769 17.8695 39.6382 18.0807C38.8132 19.4163 40.0245 21.0435 40.4133 21.4594C40.6923 21.7472 41.001 22.0127 41.3355 22.2526L41.7243 22.6278L41.7717 24.5058L42.7487 25.2197C42.7487 24.9796 42.7487 24.7909 42.7487 24.6816C42.7487 24.315 44.6829 24.2936 45.1988 24.1285C45.7147 23.9634 43.9027 23.7405 43.7108 22.9087Z" fill="black"/>
</g>
</g>
<g style="mix-blend-mode:multiply" opacity="0.22">
<path d="M43.7108 22.9087C43.5164 22.0768 44.2916 19.9073 43.4616 18.4731C42.7961 17.3261 40.8694 17.4011 40.1068 17.489C39.9261 17.6711 39.769 17.8695 39.6382 18.0807C38.8132 19.4163 40.0245 21.0435 40.4133 21.4594C40.6923 21.7472 41.001 22.0127 41.3355 22.2526L41.7243 22.6278L41.7717 24.5058L42.7487 25.2197C42.7487 24.9796 42.7487 24.7909 42.7487 24.6816C42.7487 24.315 44.6829 24.2936 45.1988 24.1285C45.7147 23.9634 43.9027 23.7405 43.7108 22.9087Z" fill="black"/>
</g>
</g>
<path d="M42.3923 15.9924C42.3923 15.9924 40.4532 16.7449 39.6282 18.0805C38.8032 19.4161 40.0145 21.0433 40.4033 21.4592C40.6823 21.747 40.9909 22.0125 41.3255 22.2524L41.7143 22.6276L41.7617 24.5056L45.2985 27.0932L46.268 24.422C46.268 24.422 47.918 24.1304 48.1623 23.588C48.4065 23.0457 47.6762 19.7077 47.4818 19.0388C47.2874 18.37 46.7067 17.0794 46.7067 17.0794C46.7067 17.0794 46.8986 16.4534 45.7845 15.8681C44.6704 15.2828 42.3923 15.9924 42.3923 15.9924Z" stroke="#263238" stroke-width="0.2" stroke-linecap="round" stroke-linejoin="round"/>
<path d="M42.9258 22.7119C42.9258 22.7119 43.1202 23.3808 43.4592 23.548C44.2433 23.9308 45.1297 24.1318 46.0314 24.1311" stroke="#263238" stroke-width="0.2" stroke-linecap="round" stroke-linejoin="round"/>
<path d="M47.4869 19.0391L47.1953 19.4978C47.1953 19.4978 48.3593 20.4176 48.3119 20.6662C48.2646 20.9149 47.3424 21.2108 47.3424 21.2108" fill="white"/>
<mask id="mask5_500_189" style="mask-type:luminance" maskUnits="userSpaceOnUse" x="47" y="19" width="2" height="3">
<path d="M47.4869 19.0391L47.1953 19.4978C47.1953 19.4978 48.3593 20.4176 48.3119 20.6662C48.2646 20.9149 47.3424 21.2108 47.3424 21.2108" fill="white"/>
</mask>
<g mask="url(#mask5_500_189)">
<path opacity="0.15" d="M47.4869 19.0391L47.1953 19.4978C47.1953 19.4978 48.3593 20.4176 48.3119 20.6662C48.2646 20.9149 47.3424 21.2108 47.3424 21.2108" fill="black"/>
</g>
<path d="M47.4869 19.0391L47.1953 19.4978C47.1953 19.4978 48.3593 20.4176 48.3119 20.6662C48.2646 20.9149 47.3424 21.2108 47.3424 21.2108" stroke="#263238" stroke-width="0.2" stroke-linecap="round" stroke-linejoin="round"/>
<path d="M46.0013 19.9482L46.0785 20.1155L45.438 20.3341L46.1109 20.3213" stroke="#263238" stroke-width="0.2" stroke-linecap="round" stroke-linejoin="round"/>
<path d="M46.096 19.3456C46.096 19.3456 45.2785 19.1527 44.937 19.7422" stroke="#263238" stroke-width="0.2" stroke-linecap="round" stroke-linejoin="round"/>
<path d="M47.791 21.7959C47.4188 21.8875 47.0341 21.9365 46.647 21.9417" stroke="#263238" stroke-width="0.2" stroke-linecap="round" stroke-linejoin="round"/>
<path d="M43.8029 17.3281C45.1115 16.6613 46.7141 17.0772 46.7141 17.0772C46.7141 17.0772 46.906 16.4534 45.7919 15.8681C44.6778 15.2828 42.3947 15.9924 42.3947 15.9924C42.3947 15.9924 40.4556 16.7449 39.6306 18.0805C38.8056 19.4161 40.0169 21.0433 40.4058 21.4592C40.6847 21.747 40.9934 22.0125 41.328 22.2524L41.7168 22.6276V22.7798C42.5044 22.6984 42.634 22.5869 42.634 22.5869C42.525 22.5891 42.4167 22.571 42.3165 22.5341C42.2163 22.4971 42.1265 22.442 42.0533 22.3725C41.7143 22.1217 41.0837 21.7036 41.2283 21.1205C41.3728 20.5374 41.956 20.5352 42.2477 20.7432C42.5393 20.9511 42.5393 20.994 42.8783 20.8697C43.2172 20.7453 42.7312 19.9928 42.7312 19.9928L43.2297 19.7013C43.7157 19.4097 43.8603 19.0753 43.4789 18.7837C43.0976 18.4922 42.4894 17.9969 43.8029 17.3281Z" fill="#263238" stroke="#263238" stroke-width="0.2" stroke-linecap="round" stroke-linejoin="round"/>
<path d="M41.2781 24.0898L40.5977 25.5498L44.4784 28.7634L45.4978 27.0526L41.2781 24.0898Z" fill="white" stroke="#263238" stroke-width="0.2" stroke-linecap="round" stroke-linejoin="round"/>
<path d="M51.4648 13.8361C51.4648 13.8361 53.9872 17.6757 54.376 19.5108C54.7648 21.3459 55.4926 23.7663 55.4926 23.7663L61.8483 23.1403C61.8483 23.1403 60.9261 18.0509 60.3529 16.3401C59.7796 14.6293 59.6251 14.252 59.6251 14.252C59.6251 14.252 52.5266 13.626 51.4648 13.8361Z" fill="#263238" stroke="#263238" stroke-width="0.2" stroke-linecap="round" stroke-linejoin="round"/>
<path d="M52.3396 26.6477C52.3396 26.6477 52.5888 25.147 52.5888 25.0184C52.5888 24.8897 52.5265 22.7588 52.5265 22.7588C52.5265 22.7588 53.4487 21.0437 53.5958 20.9644C53.7428 20.885 55.2931 20.214 55.3903 20.5056C55.4875 20.7971 55.0514 20.9236 54.9043 21.048C54.7573 21.1723 54.1292 21.4231 54.0793 21.5496C54.0295 21.6761 53.7403 22.6344 53.7403 22.6344C53.7403 22.6344 55.0015 21.8005 55.3405 21.8005C55.6795 21.8005 55.9711 22.4672 55.9711 22.4672C55.9711 22.4672 56.4097 23.0096 56.4097 23.3011C56.4097 23.5927 56.507 23.9271 56.2627 24.1372C56.0184 24.3473 55.9237 24.5124 55.5848 24.5124C55.2458 24.5124 54.8071 24.8468 54.8071 25.0955C54.8071 25.3442 54.8071 26.1803 54.5155 26.4311C54.0651 26.7571 53.596 27.0634 53.1098 27.3487L52.3396 26.6477Z" fill="white"/>
<mask id="mask6_500_189" style="mask-type:luminance" maskUnits="userSpaceOnUse" x="52" y="20" width="5" height="8">
<path d="M52.3396 26.6467C52.3396 26.6467 52.5888 25.146 52.5888 25.0174C52.5888 24.8887 52.5265 22.7578 52.5265 22.7578C52.5265 22.7578 53.4487 21.0427 53.5958 20.9634C53.7428 20.8841 55.2931 20.213 55.3903 20.5046C55.4875 20.7962 55.0514 20.9227 54.9043 21.047C54.7573 21.1713 54.1292 21.4222 54.0793 21.5487C54.0295 21.6751 53.7403 22.6334 53.7403 22.6334C53.7403 22.6334 55.0015 21.7995 55.3405 21.7995C55.6795 21.7995 55.9711 22.4662 55.9711 22.4662C55.9711 22.4662 56.4097 23.0086 56.4097 23.3002C56.4097 23.5917 56.507 23.9262 56.2627 24.1363C56.0184 24.3464 55.9237 24.5114 55.5848 24.5114C55.2458 24.5114 54.8071 24.8459 54.8071 25.0946C54.8071 25.3432 54.8071 26.1793 54.5155 26.4302C54.0651 26.7561 53.596 27.0624 53.1098 27.3477L52.3396 26.6467Z" fill="white"/>
</mask>
<g mask="url(#mask6_500_189)">
<path opacity="0.15" d="M52.3396 26.6467C52.3396 26.6467 52.5888 25.146 52.5888 25.0174C52.5888 24.8887 52.5265 22.7578 52.5265 22.7578C52.5265 22.7578 53.4487 21.0427 53.5958 20.9634C53.7428 20.8841 55.2931 20.213 55.3903 20.5046C55.4875 20.7962 55.0514 20.9227 54.9043 21.047C54.7573 21.1713 54.1292 21.4222 54.0793 21.5487C54.0295 21.6751 53.7403 22.6334 53.7403 22.6334C53.7403 22.6334 55.0015 21.7995 55.3405 21.7995C55.6795 21.7995 55.9711 22.4662 55.9711 22.4662C55.9711 22.4662 56.4097 23.0086 56.4097 23.3002C56.4097 23.5917 56.507 23.9262 56.2627 24.1363C56.0184 24.3464 55.9237 24.5114 55.5848 24.5114C55.2458 24.5114 54.8071 24.8459 54.8071 25.0946C54.8071 25.3432 54.8071 26.1793 54.5155 26.4302C54.0651 26.7561 53.596 27.0624 53.1098 27.3477L52.3396 26.6467Z" fill="#FFBF9D" stroke="#263238" stroke-width="0.2" stroke-linecap="round" stroke-linejoin="round"/>
</g>
<path d="M52.3396 26.6477C52.3396 26.6477 52.5888 25.147 52.5888 25.0184C52.5888 24.8897 52.5265 22.7588 52.5265 22.7588C52.5265 22.7588 53.4487 21.0437 53.5958 20.9644C53.7428 20.885 55.2931 20.214 55.3903 20.5056C55.4875 20.7971 55.0514 20.9236 54.9043 21.048C54.7573 21.1723 54.1292 21.4231 54.0793 21.5496C54.0295 21.6761 53.7403 22.6344 53.7403 22.6344C53.7403 22.6344 55.0015 21.8005 55.3405 21.8005C55.6795 21.8005 55.9711 22.4672 55.9711 22.4672C55.9711 22.4672 56.4097 23.0096 56.4097 23.3011C56.4097 23.5927 56.507 23.9271 56.2627 24.1372C56.0184 24.3473 55.9237 24.5124 55.5848 24.5124C55.2458 24.5124 54.8071 24.8468 54.8071 25.0955C54.8071 25.3442 54.8071 26.1803 54.5155 26.4311C54.0651 26.7571 53.596 27.0634 53.1098 27.3487L52.3396 26.6477Z" stroke="#263238" stroke-width="0.2" stroke-linecap="round" stroke-linejoin="round"/>
<path d="M56.4146 23.3076L54.7646 23.9765" stroke="#263238" stroke-width="0.2" stroke-linecap="round" stroke-linejoin="round"/>
<path d="M55.9761 22.4736L54.4258 23.2669" stroke="#263238" stroke-width="0.2" stroke-linecap="round" stroke-linejoin="round"/>
<path d="M62.09 22.098C62.09 22.098 61.0232 22.6404 61.0232 22.8912C61.0232 23.142 61.2724 23.1828 61.6039 23.0584C61.9354 22.9341 62.576 22.7647 62.576 22.4732C62.576 22.1816 62.4289 22.0551 62.09 22.098Z" fill="white"/>
<mask id="mask7_500_189" style="mask-type:luminance" maskUnits="userSpaceOnUse" x="61" y="22" width="2" height="2">
<path d="M62.09 22.098C62.09 22.098 61.0232 22.6404 61.0232 22.8912C61.0232 23.142 61.2724 23.1828 61.6039 23.0584C61.9354 22.9341 62.576 22.7647 62.576 22.4732C62.576 22.1816 62.4289 22.0551 62.09 22.098Z" fill="white"/>
</mask>
<g mask="url(#mask7_500_189)">
<path opacity="0.15" d="M62.09 22.098C62.09 22.098 61.0232 22.6404 61.0232 22.8912C61.0232 23.142 61.2724 23.1828 61.6039 23.0584C61.9354 22.9341 62.576 22.7647 62.576 22.4732C62.576 22.1816 62.4289 22.0551 62.09 22.098Z" fill="black" stroke="#263238" stroke-width="0.2" stroke-linecap="round" stroke-linejoin="round"/>
</g>
<path d="M62.09 22.098C62.09 22.098 61.0232 22.6404 61.0232 22.8912C61.0232 23.142 61.2724 23.1828 61.6039 23.0584C61.9354 22.9341 62.576 22.7647 62.576 22.4732C62.576 22.1816 62.4289 22.0551 62.09 22.098Z" stroke="#263238" stroke-width="0.2" stroke-linecap="round" stroke-linejoin="round"/>
<path d="M61.8957 21.5134C61.8957 21.5134 60.8762 21.7278 60.8289 22.0558C60.7815 22.3838 62.0901 22.1394 62.3817 22.0558C62.6733 21.9722 62.6733 21.3891 61.8957 21.5134Z" fill="white"/>
<mask id="mask8_500_189" style="mask-type:luminance" maskUnits="userSpaceOnUse" x="60" y="21" width="3" height="2">
<path d="M61.8957 21.5134C61.8957 21.5134 60.8762 21.7278 60.8289 22.0558C60.7815 22.3838 62.0901 22.1394 62.3817 22.0558C62.6733 21.9722 62.6733 21.3891 61.8957 21.5134Z" fill="white"/>
</mask>
<g mask="url(#mask8_500_189)">
<path opacity="0.15" d="M61.8957 21.5134C61.8957 21.5134 60.8762 21.7278 60.8289 22.0558C60.7815 22.3838 62.0901 22.1394 62.3817 22.0558C62.6733 21.9722 62.6733 21.3891 61.8957 21.5134Z" fill="black" stroke="#263238" stroke-width="0.2" stroke-linecap="round" stroke-linejoin="round"/>
</g>
<path d="M61.8957 21.5134C61.8957 21.5134 60.8762 21.7278 60.8289 22.0558C60.7815 22.3838 62.0901 22.1394 62.3817 22.0558C62.6733 21.9722 62.6733 21.3891 61.8957 21.5134Z" stroke="#263238" stroke-width="0.2" stroke-linecap="round" stroke-linejoin="round"/>
<path d="M62.4291 22.7588C62.4291 22.7588 61.2178 23.2604 61.1679 23.4277C61.1181 23.5949 61.0234 23.8436 61.5069 23.8436C61.9905 23.8436 62.9151 23.4277 62.9625 23.134C63.0099 22.8403 62.8179 22.7588 62.4291 22.7588Z" fill="white"/>
<mask id="mask9_500_189" style="mask-type:luminance" maskUnits="userSpaceOnUse" x="61" y="22" width="2" height="2">
<path d="M62.4291 22.7588C62.4291 22.7588 61.2178 23.2604 61.1679 23.4277C61.1181 23.5949 61.0234 23.8436 61.5069 23.8436C61.9905 23.8436 62.9151 23.4277 62.9625 23.134C63.0099 22.8403 62.8179 22.7588 62.4291 22.7588Z" fill="white"/>
</mask>
<g mask="url(#mask9_500_189)">
<path opacity="0.15" d="M62.4291 22.7588C62.4291 22.7588 61.2178 23.2604 61.1679 23.4277C61.1181 23.5949 61.0234 23.8436 61.5069 23.8436C61.9905 23.8436 62.9151 23.4277 62.9625 23.134C63.0099 22.8403 62.8179 22.7588 62.4291 22.7588Z" fill="black" stroke="#263238" stroke-width="0.2" stroke-linecap="round" stroke-linejoin="round"/>
</g>
<path d="M62.4291 22.7588C62.4291 22.7588 61.2178 23.2604 61.1679 23.4277C61.1181 23.5949 61.0234 23.8436 61.5069 23.8436C61.9905 23.8436 62.9151 23.4277 62.9625 23.134C63.0099 22.8403 62.8179 22.7588 62.4291 22.7588Z" stroke="#263238" stroke-width="0.2" stroke-linecap="round" stroke-linejoin="round"/>
<path d="M62.8104 23.3506C62.8104 23.3506 61.6888 23.7922 61.6439 23.9401C61.5991 24.0881 61.5093 24.3089 61.958 24.3089C62.4066 24.3089 63.259 23.9401 63.3039 23.6829C63.3487 23.4256 63.1693 23.3506 62.8104 23.3506Z" fill="white"/>
<mask id="mask10_500_189" style="mask-type:luminance" maskUnits="userSpaceOnUse" x="61" y="23" width="3" height="2">
<path d="M62.8104 23.3496C62.8104 23.3496 61.6888 23.7912 61.6439 23.9392C61.5991 24.0871 61.5093 24.3079 61.958 24.3079C62.4066 24.3079 63.259 23.9392 63.3039 23.6819C63.3487 23.4246 63.1693 23.3496 62.8104 23.3496Z" fill="white"/>
</mask>
<g mask="url(#mask10_500_189)">
<path opacity="0.15" d="M62.8104 23.3496C62.8104 23.3496 61.6888 23.7912 61.6439 23.9392C61.5991 24.0871 61.5093 24.3079 61.958 24.3079C62.4066 24.3079 63.259 23.9392 63.3039 23.6819C63.3487 23.4246 63.1693 23.3496 62.8104 23.3496Z" fill="black" stroke="#263238" stroke-width="0.2" stroke-linecap="round" stroke-linejoin="round"/>
</g>
<path d="M62.8104 23.3506C62.8104 23.3506 61.6888 23.7922 61.6439 23.9401C61.5991 24.0881 61.5093 24.3089 61.958 24.3089C62.4066 24.3089 63.259 23.9401 63.3039 23.6829C63.3487 23.4256 63.1693 23.3506 62.8104 23.3506Z" stroke="#263238" stroke-width="0.2" stroke-linecap="round" stroke-linejoin="round"/>
<path d="M53.3191 14.3828C53.3191 14.3828 55.343 17.4163 55.7168 18.649C56.0907 19.8818 56.4022 23.3119 56.4022 23.3119L60.4525 22.8831C60.4525 22.8831 60.3278 19.7746 59.767 18.2739C59.2062 16.7732 58.7701 14.8437 58.7701 14.8437L53.3191 14.3828Z" fill="#7D7D7D"/>
<path d="M56.6765 18.9574C56.6765 18.9574 56.2129 19.6992 56.4771 20.0143C56.7413 20.3294 57.3719 20.4709 57.4392 20.5567C57.5065 20.6424 57.9701 23.0671 57.9701 23.0671L59.3958 22.9535C59.3958 22.9535 58.7004 20.6982 58.8649 20.2716C59.0294 19.8449 59.4307 19.444 59.0319 19.0732C58.6331 18.7023 58.0025 18.445 57.6062 18.5008C57.2626 18.5953 56.9458 18.7509 56.6765 18.9574Z" fill="white"/>
<path d="M55.3828 14.6484C55.3828 14.6484 56.5443 17.221 56.4446 17.6734C56.3449 18.1257 56.0782 18.8718 56.6764 18.9597C57.2746 19.0476 57.5388 18.5609 57.7382 18.5888C57.9376 18.6167 58.2691 19.1591 58.5681 18.8461C58.8672 18.5331 59.1638 18.0185 58.6679 17.504C58.1719 16.9895 57.8055 16.7065 57.5388 16.1641C57.3351 15.7155 57.158 15.2582 57.0079 14.7942L55.3828 14.6484Z" fill="white"/>
<path d="M40.6452 27.9807C40.6452 27.9807 41.3729 27.9807 42.2478 28.6496C43.1226 29.3184 46.2357 32.0304 46.2357 32.0304L52.2998 26.3535L54.2937 27.9807L47.0981 37.0362C46.7552 37.1367 46.393 37.1797 46.0313 37.1627C45.4979 37.1199 37.3477 33.6576 37.3477 33.6576" fill="white"/>
<mask id="mask11_500_189" style="mask-type:luminance" maskUnits="userSpaceOnUse" x="37" y="26" width="18" height="12">
<path d="M40.6452 27.9807C40.6452 27.9807 41.3729 27.9807 42.2478 28.6496C43.1226 29.3184 46.2357 32.0304 46.2357 32.0304L52.2998 26.3535L54.2937 27.9807L47.0981 37.0362C46.7552 37.1367 46.393 37.1797 46.0313 37.1627C45.4979 37.1199 37.3477 33.6576 37.3477 33.6576" fill="white"/>
</mask>
<g mask="url(#mask11_500_189)">
<path d="M45.0642 35.7687C43.9676 35.7687 40.2937 33.9936 39.1347 33.2175C38.7432 32.9447 38.4179 32.6081 38.1776 32.2271L37.3477 33.657C37.3477 33.657 45.4979 37.1193 46.0313 37.1622C46.393 37.1791 46.7552 37.1362 47.0981 37.0357L52.2973 30.4756C50.423 32.0577 45.9266 35.7687 45.0642 35.7687Z" fill="#6688CC"/>
<path opacity="0.5" d="M45.0642 35.7687C43.9676 35.7687 40.2937 33.9936 39.1347 33.2175C38.7432 32.9447 38.4179 32.6081 38.1776 32.2271L37.3477 33.657C37.3477 33.657 45.4979 37.1193 46.0313 37.1622C46.393 37.1791 46.7552 37.1362 47.0981 37.0357L52.2973 30.4756C50.423 32.0577 45.9266 35.7687 45.0642 35.7687Z" fill="white"/>
</g>
<path d="M40.6452 27.9807C40.6452 27.9807 41.3729 27.9807 42.2478 28.6496C43.1226 29.3184 46.2357 32.0304 46.2357 32.0304L52.2998 26.3535L54.2937 27.9807L47.0981 37.0362C46.7552 37.1367 46.393 37.1797 46.0313 37.1627C45.4979 37.1199 37.3477 33.6576 37.3477 33.6576" stroke="#263238" stroke-width="0.2" stroke-linecap="round" stroke-linejoin="round"/>
<path d="M40.6452 35.1181L37.9783 35.0752" stroke="#263238" stroke-width="0.2" stroke-linecap="round" stroke-linejoin="round"/>
<path d="M46.2257 31.9492C46.2257 31.9492 44.6879 33.5314 44.501 34.3889" stroke="#263238" stroke-width="0.2" stroke-linecap="round" stroke-linejoin="round"/>
<path d="M45.747 32.1123C45.747 32.1123 44.4385 33.1306 44.127 33.6666" stroke="#263238" stroke-width="0.2" stroke-linecap="round" stroke-linejoin="round"/>
<path d="M2.95947 80H100" stroke="#263238" stroke-width="0.2" stroke-linecap="round" stroke-linejoin="round"/>
</svg>
