<svg width="303" height="301" viewBox="0 0 303 301" fill="none" xmlns="http://www.w3.org/2000/svg">
<g opacity="0.3">
<path d="M292.283 44.4473H237.896V115.871H292.283V44.4473Z" stroke="black" stroke-miterlimit="10"/>
<path d="M282.304 57.5527H247.876V102.766H282.304V57.5527Z" stroke="black" stroke-miterlimit="10"/>
</g>
<path d="M291.628 300H302.112" stroke="#263238" stroke-linecap="round" stroke-linejoin="round"/>
<path d="M9.8645 300H285.075" stroke="#263238" stroke-linecap="round" stroke-linejoin="round"/>
<g opacity="0.3">
<path d="M75.6857 21.8203H13.4946V196.815H75.6857V21.8203Z" stroke="black" stroke-miterlimit="10"/>
<path d="M13.8289 27.1407H75.5678L74.1131 22.3311" stroke="black" stroke-miterlimit="10"/>
<path d="M13.8289 32.9659H75.5678L74.1131 28.1562" stroke="black" stroke-miterlimit="10"/>
<path d="M13.8289 38.7921H75.5678L74.1131 33.9824" stroke="black" stroke-miterlimit="10"/>
<path d="M13.8289 44.6173H75.5678L74.1131 39.8076" stroke="black" stroke-miterlimit="10"/>
<path d="M13.8289 50.4425H75.5678L74.1131 45.6328" stroke="black" stroke-miterlimit="10"/>
<path d="M13.8289 56.2742H75.5678L74.1131 51.458" stroke="black" stroke-miterlimit="10"/>
<path d="M13.8289 62.0994H75.5678L74.1131 57.2832" stroke="black" stroke-miterlimit="10"/>
<path d="M13.8289 67.9249H75.5678L74.1131 63.1152" stroke="black" stroke-miterlimit="10"/>
<path d="M13.8289 73.7501H75.5678L74.1131 68.9404" stroke="black" stroke-miterlimit="10"/>
<path d="M13.8289 79.5753H75.5678L74.1131 74.7656" stroke="black" stroke-miterlimit="10"/>
<path d="M13.8289 85.4005H75.5678L74.1131 80.5908" stroke="black" stroke-miterlimit="10"/>
<path d="M13.8289 91.2257H75.5678L74.1131 86.416" stroke="black" stroke-miterlimit="10"/>
<path d="M13.8289 97.0508H75.5678L74.1131 92.2412" stroke="black" stroke-miterlimit="10"/>
<path d="M13.8289 102.883H75.5678L74.1131 98.0664" stroke="black" stroke-miterlimit="10"/>
<path d="M13.8289 108.709H75.5678L74.1131 103.893" stroke="black" stroke-miterlimit="10"/>
<path d="M13.8289 114.533H75.5678L74.1131 109.724" stroke="black" stroke-miterlimit="10"/>
<path d="M13.8289 120.358H75.5678L74.1131 115.549" stroke="black" stroke-miterlimit="10"/>
<path d="M13.8289 126.185H75.5678L74.1131 121.375" stroke="black" stroke-miterlimit="10"/>
<path d="M13.8289 132.01H75.5678L74.1131 127.2" stroke="black" stroke-miterlimit="10"/>
<path d="M13.8289 137.835H75.5678L74.1131 133.025" stroke="black" stroke-miterlimit="10"/>
<path d="M13.8289 143.66H75.5678L74.1131 138.851" stroke="black" stroke-miterlimit="10"/>
<path d="M13.8289 149.492H75.5678L74.1131 144.683" stroke="black" stroke-miterlimit="10"/>
<path d="M13.8289 155.317H75.5678L74.1131 150.508" stroke="black" stroke-miterlimit="10"/>
<path d="M13.8289 161.143H75.5678L74.1131 156.333" stroke="black" stroke-miterlimit="10"/>
<path d="M13.8289 166.968H75.5678L74.1131 162.158" stroke="black" stroke-miterlimit="10"/>
<path d="M13.8289 172.793H75.5678L74.1131 167.983" stroke="black" stroke-miterlimit="10"/>
<path d="M13.8289 178.618H75.5678L74.1131 173.809" stroke="black" stroke-miterlimit="10"/>
<path d="M13.8289 184.443H75.5678L74.1131 179.634" stroke="black" stroke-miterlimit="10"/>
<path d="M13.8289 190.275H75.5678L74.1131 185.459" stroke="black" stroke-miterlimit="10"/>
<path d="M142.569 21.8203H80.3774V196.815H142.569V21.8203Z" stroke="black" stroke-miterlimit="10"/>
<path d="M80.7117 27.1407H142.444L140.996 22.3311" stroke="black" stroke-miterlimit="10"/>
<path d="M80.7117 32.9659H142.444L140.996 28.1562" stroke="black" stroke-miterlimit="10"/>
<path d="M80.7117 38.7921H142.444L140.996 33.9824" stroke="black" stroke-miterlimit="10"/>
<path d="M80.7117 44.6173H142.444L140.996 39.8076" stroke="black" stroke-miterlimit="10"/>
<path d="M80.7117 50.4425H142.444L140.996 45.6328" stroke="black" stroke-miterlimit="10"/>
<path d="M80.7117 56.2742H142.444L140.996 51.458" stroke="black" stroke-miterlimit="10"/>
<path d="M80.7117 62.0994H142.444L140.996 57.2832" stroke="black" stroke-miterlimit="10"/>
<path d="M80.7117 67.9249H142.444L140.996 63.1152" stroke="black" stroke-miterlimit="10"/>
<path d="M80.7117 73.7501H142.444L140.996 68.9404" stroke="black" stroke-miterlimit="10"/>
<path d="M80.7117 79.5753H142.444L140.996 74.7656" stroke="black" stroke-miterlimit="10"/>
<path d="M80.7117 85.4005H142.444L140.996 80.5908" stroke="black" stroke-miterlimit="10"/>
<path d="M80.7117 91.2257H142.444L140.996 86.416" stroke="black" stroke-miterlimit="10"/>
<path d="M80.7117 97.0508H142.444L140.996 92.2412" stroke="black" stroke-miterlimit="10"/>
<path d="M80.7117 102.883H142.444L140.996 98.0664" stroke="black" stroke-miterlimit="10"/>
<path d="M80.7117 108.709H142.444L140.996 103.893" stroke="black" stroke-miterlimit="10"/>
<path d="M80.7117 114.533H142.444L140.996 109.724" stroke="black" stroke-miterlimit="10"/>
<path d="M80.7117 120.358H142.444L140.996 115.549" stroke="black" stroke-miterlimit="10"/>
<path d="M80.7117 126.185H142.444L140.996 121.375" stroke="black" stroke-miterlimit="10"/>
<path d="M80.7117 132.01H142.444L140.996 127.2" stroke="black" stroke-miterlimit="10"/>
<path d="M80.7117 137.835H142.444L140.996 133.025" stroke="black" stroke-miterlimit="10"/>
<path d="M80.7117 143.66H142.444L140.996 138.851" stroke="black" stroke-miterlimit="10"/>
<path d="M80.7117 149.492H142.444L140.996 144.683" stroke="black" stroke-miterlimit="10"/>
<path d="M80.7117 155.317H142.444L140.996 150.508" stroke="black" stroke-miterlimit="10"/>
<path d="M80.7117 161.143H142.444L140.996 156.333" stroke="black" stroke-miterlimit="10"/>
<path d="M80.7117 166.968H142.444L140.996 162.158" stroke="black" stroke-miterlimit="10"/>
<path d="M80.7117 172.793H142.444L140.996 167.983" stroke="black" stroke-miterlimit="10"/>
<path d="M80.7117 178.618H142.444L140.996 173.809" stroke="black" stroke-miterlimit="10"/>
<path d="M80.7117 184.443H142.444L140.996 179.634" stroke="black" stroke-miterlimit="10"/>
<path d="M80.7117 190.275H142.444L140.996 185.459" stroke="black" stroke-miterlimit="10"/>
</g>
<path d="M228.526 9.66602H63.2554V156.779H228.526V9.66602Z" fill="white" stroke="#263238" stroke-linecap="round" stroke-linejoin="round"/>
<path d="M228.526 9.66602H63.2554V32.6527H228.526V9.66602Z" fill="#318181" stroke="#263238" stroke-linecap="round" stroke-linejoin="round"/>
<path d="M228.526 9.66602H222.301V156.779H228.526V9.66602Z" fill="#DBDBDB" stroke="#263238" stroke-linecap="round" stroke-linejoin="round"/>
<path d="M228.526 31.7812H222.301V60.1738H228.526V31.7812Z" fill="#949494" stroke="#263238" stroke-linecap="round" stroke-linejoin="round"/>
<path d="M228.526 9.66602H63.2554V20.8383H228.526V9.66602Z" fill="#DBDBDB" stroke="#263238" stroke-linecap="round" stroke-linejoin="round"/>
<path d="M136.815 12.9297H71.6362V17.5821H136.815V12.9297Z" fill="white" stroke="#263238" stroke-linecap="round" stroke-linejoin="round"/>
<path d="M218.769 13.1455H224.49" stroke="#263238" stroke-linecap="round" stroke-linejoin="round"/>
<path d="M218.769 15.5635H224.49" stroke="#263238" stroke-linecap="round" stroke-linejoin="round"/>
<path d="M218.769 17.9814H224.49" stroke="#263238" stroke-linecap="round" stroke-linejoin="round"/>
<path d="M195.652 49.6895H90.8093V53.621H195.652V49.6895Z" fill="#DBDBDB" stroke="#A8A8A8" stroke-linecap="round" stroke-linejoin="round"/>
<path d="M142.791 49.6895H90.8093V53.621H142.791V49.6895Z" fill="#318181" stroke="#263238" stroke-linecap="round" stroke-linejoin="round"/>
<path d="M85.1347 61.9237C90.4437 61.9237 94.7474 57.6199 94.7474 52.311C94.7474 47.002 90.4437 42.6982 85.1347 42.6982C79.8257 42.6982 75.522 47.002 75.522 52.311C75.522 57.6199 79.8257 61.9237 85.1347 61.9237Z" fill="#318181" stroke="#263238" stroke-linecap="round" stroke-linejoin="round"/>
<path d="M85.1345 60.4819C89.6473 60.4819 93.3057 56.8236 93.3057 52.3108C93.3057 47.798 89.6473 44.1396 85.1345 44.1396C80.6217 44.1396 76.9634 47.798 76.9634 52.3108C76.9634 56.8236 80.6217 60.4819 85.1345 60.4819Z" fill="white" stroke="#263238" stroke-linecap="round" stroke-linejoin="round"/>
<path d="M143.23 61.9237C148.539 61.9237 152.843 57.6199 152.843 52.311C152.843 47.002 148.539 42.6982 143.23 42.6982C137.921 42.6982 133.618 47.002 133.618 52.311C133.618 57.6199 137.921 61.9237 143.23 61.9237Z" fill="#318181" stroke="#263238" stroke-linecap="round" stroke-linejoin="round"/>
<path d="M143.23 60.4819C147.743 60.4819 151.401 56.8236 151.401 52.3108C151.401 47.798 147.743 44.1396 143.23 44.1396C138.717 44.1396 135.059 47.798 135.059 52.3108C135.059 56.8236 138.717 60.4819 143.23 60.4819Z" fill="white" stroke="#263238" stroke-linecap="round" stroke-linejoin="round"/>
<path d="M201.332 61.9237C206.641 61.9237 210.945 57.6199 210.945 52.311C210.945 47.002 206.641 42.6982 201.332 42.6982C196.023 42.6982 191.72 47.002 191.72 52.311C191.72 57.6199 196.023 61.9237 201.332 61.9237Z" fill="#DBDBDB" stroke="#A8A8A8" stroke-linecap="round" stroke-linejoin="round"/>
<path d="M201.333 60.508C205.86 60.508 209.53 56.8379 209.53 52.3106C209.53 47.7834 205.86 44.1133 201.333 44.1133C196.805 44.1133 193.135 47.7834 193.135 52.3106C193.135 56.8379 196.805 60.508 201.333 60.508Z" fill="white" stroke="#A8A8A8" stroke-linecap="round" stroke-linejoin="round"/>
<path d="M83.4636 49.368C83.7898 49.4058 84.1183 49.3196 84.3841 49.1267C84.6498 48.9337 84.8335 48.6481 84.8986 48.3262H85.7767V56.6087H84.4661V50.292H83.457L83.4636 49.368Z" fill="#263238"/>
<path d="M142.817 49.414C142.405 49.414 142.162 49.6368 142.162 50.2331V51.1177H140.917V50.3445C140.917 49.034 141.573 48.2607 142.883 48.2607C144.194 48.2607 144.849 49.0208 144.849 50.3445C144.849 52.9655 142.261 53.9222 142.261 55.2852C142.254 55.344 142.254 55.4033 142.261 55.4621H144.718V56.6416H140.917V55.5866C140.917 53.149 143.499 52.7427 143.499 50.3445C143.492 49.6171 143.23 49.414 142.817 49.414Z" fill="#263238"/>
<path d="M201.896 50.3445C201.896 49.5975 201.634 49.3944 201.241 49.3944C200.848 49.3944 200.586 49.6171 200.586 50.2134V50.7442H199.354V50.3445C199.354 49.034 200.009 48.2607 201.32 48.2607C202.63 48.2607 203.285 49.0208 203.285 50.3445V50.5607C203.338 50.905 203.278 51.257 203.113 51.5641C202.949 51.8712 202.69 52.1169 202.375 52.2644C202.662 52.4379 202.891 52.6934 203.033 52.9982C203.174 53.303 203.221 53.643 203.167 53.9746V54.6299C203.167 55.9404 202.512 56.7136 201.202 56.7136C199.891 56.7136 199.236 55.9535 199.236 54.6299V53.9746H200.546V54.7479C200.546 55.3376 200.802 55.5604 201.202 55.5604C201.601 55.5604 201.857 55.3638 201.857 54.6299V53.9746C201.857 53.208 201.595 52.9197 201.005 52.9197H200.566V51.7402H201.071C201.555 51.7402 201.857 51.524 201.857 50.8621L201.896 50.3445Z" fill="#263238"/>
<path d="M126.469 84.8379H77.658V92.3865H126.469V84.8379Z" fill="white" stroke="#263238" stroke-linecap="round" stroke-linejoin="round"/>
<path d="M186.065 84.8379H137.254V92.3865H186.065V84.8379Z" fill="white" stroke="#263238" stroke-linecap="round" stroke-linejoin="round"/>
<path d="M159.907 99.6729H77.658V107.221H159.907V99.6729Z" fill="white" stroke="#263238" stroke-linecap="round" stroke-linejoin="round"/>
<path d="M159.907 113.965H77.658V121.513H159.907V113.965Z" fill="white" stroke="#263238" stroke-linecap="round" stroke-linejoin="round"/>
<path d="M79.6763 71.457C80.5216 71.457 80.9475 71.955 80.9475 72.8396V73.01H80.135V72.7807C80.135 72.3875 79.9778 72.2368 79.7025 72.2368C79.4273 72.2368 79.2701 72.3875 79.2701 72.7807C79.2701 73.9143 80.9607 74.124 80.9607 75.6966C80.9607 76.5746 80.5216 77.0792 79.6501 77.0792C78.7786 77.0792 78.3396 76.5746 78.3396 75.6966V75.3624H79.1587V75.7556C79.1587 76.1487 79.329 76.2863 79.6043 76.2863C79.8795 76.2863 80.0564 76.1487 80.0564 75.7556C80.0564 74.622 78.3658 74.4057 78.3658 72.8396C78.4051 71.9681 78.8376 71.457 79.6763 71.457Z" fill="#263238"/>
<path d="M81.2031 71.5166H83.9094V72.3029H83.0051V77.0208H82.1402V72.3029H81.2359L81.2031 71.5166Z" fill="#263238"/>
<path d="M85.1215 73.8362H86.3076V74.6226H85.1215V76.2345H86.609V77.0208H84.2566V71.5166H86.609V72.3029H85.1215V73.8362Z" fill="#263238"/>
<path d="M89.7084 72.8796V73.5938C89.7084 74.4718 89.2825 74.9502 88.3979 74.9502H87.9851V77.0208H87.1201V71.5166H88.3979C89.2825 71.5166 89.7084 71.9687 89.7084 72.8796ZM88.0113 72.3029V74.1639H88.4241C88.6993 74.1639 88.8435 74.0394 88.8435 73.6462V72.8206C88.8435 72.4274 88.6993 72.3029 88.4241 72.3029H88.0113Z" fill="#263238"/>
<path d="M92.9978 72.8667C92.9978 72.3752 92.8209 72.2114 92.5522 72.2114C92.2836 72.2114 92.1001 72.3621 92.1001 72.7553V73.1091H91.281V72.8143C91.2532 72.6326 91.2672 72.4469 91.3221 72.2714C91.377 72.096 91.4713 71.9354 91.5977 71.802C91.7242 71.6686 91.8795 71.5659 92.0517 71.5017C92.224 71.4375 92.4086 71.4135 92.5916 71.4316C93.4434 71.4316 93.9021 71.9296 93.9021 72.8143V72.9519C93.9376 73.1814 93.8973 73.4162 93.7873 73.6208C93.6773 73.8253 93.5037 73.9885 93.2927 74.0855C93.5019 74.19 93.6732 74.3575 93.7825 74.5643C93.8918 74.7711 93.9336 75.0069 93.9021 75.2387V75.6712C93.9021 76.5493 93.4631 77.0538 92.5916 77.0538C92.4086 77.0719 92.224 77.048 92.0517 76.9838C91.8795 76.9196 91.7242 76.8168 91.5977 76.6834C91.4713 76.55 91.377 76.3894 91.3221 76.214C91.2672 76.0386 91.2532 75.8529 91.281 75.6712V75.2453H92.1001V75.7564C92.1001 76.1495 92.277 76.2937 92.5522 76.2937C92.8274 76.2937 92.9978 76.1627 92.9978 75.6778V75.2453C92.9978 74.7342 92.8209 74.5442 92.4343 74.5442H92.1394V73.7578H92.4802C92.8012 73.7578 92.9978 73.6137 92.9978 73.1746V72.8667Z" fill="#263238"/>
<path d="M134.712 74.5898H141.265" stroke="#263238" stroke-miterlimit="10"/>
<path d="M110.467 74.5898H131.763" stroke="#263238" stroke-miterlimit="10"/>
<path d="M100.966 74.5898H107.518" stroke="#263238" stroke-miterlimit="10"/>
<path d="M77.2715 135.312H202.204" stroke="#263238" stroke-linecap="round" stroke-linejoin="round"/>
<path d="M145.773 226.237L152.417 283.809L159.547 283.317L161.27 239.277L165.699 238.786L193.502 240.509C194.964 240.18 196.443 239.933 197.932 239.768C198.915 239.768 200.147 237.062 194.243 234.605C188.339 232.148 147.47 224.271 146.513 224.271C145.557 224.271 145.773 226.237 145.773 226.237Z" fill="#263238" stroke="#263238" stroke-linecap="round" stroke-linejoin="round"/>
<path d="M184.401 218.092C184.401 218.092 158.845 209.632 133.945 215.143C131.908 215.595 127.543 267.564 127.543 267.564L134.188 269.53L144.521 228.438C144.521 228.438 187.821 240.987 196.68 239.755C205.54 238.523 184.401 218.092 184.401 218.092Z" fill="#263238" stroke="#263238" stroke-linecap="round" stroke-linejoin="round"/>
<path d="M191.536 131.276C191.536 131.276 189.571 136.439 189.571 138.896C189.63 140.564 190.02 142.203 190.717 143.719C190.717 143.719 186.858 147.906 187.572 149.492C188.011 150.481 189.977 150.848 189.977 150.848C189.977 150.848 191.7 159.943 193.175 160.435C194.649 160.926 200.802 159.694 200.802 159.694L199.753 172.144L211.961 161.778L210.978 153.915C210.978 153.915 213.927 149.728 217.373 144.813C220.82 139.899 218.848 132.016 216.882 128.327C214.916 124.638 199.904 117.01 189.82 129.559L191.536 131.276Z" fill="#9C9C9C" stroke="#263238" stroke-linecap="round" stroke-linejoin="round"/>
<path d="M231.344 135.417C231.029 134.31 234.502 133.995 233.238 131.309C231.973 128.622 228.185 128.786 228.349 126.892C228.513 124.999 229.765 125.156 227.556 123.098C225.348 121.041 223.625 122.155 222.97 120.104C222.314 118.053 221.869 115.995 221.869 115.995L220.447 114.894C219.51 114.167 218.645 114.894 218.16 115.438C216.849 115.864 215.644 117.568 214.425 117.404C212.616 117.181 212.164 112.437 208.528 112.66C204.891 112.883 206.273 118.76 204.917 118.308C203.561 117.856 200.848 116.048 197.237 116.952C193.627 117.856 197.237 121.244 195.881 121.021C194.525 120.798 186.622 119.213 185.941 121.244C185.259 123.275 190.233 125.988 190.233 125.988C190.233 125.988 184.132 124.179 185.941 127.567C186.514 128.574 187.315 129.432 188.28 130.072C189.245 130.713 190.347 131.118 191.497 131.256C191.497 131.256 189.073 132.154 190.056 133.261C190.908 134.218 193.692 134.441 194.42 134.48L194.551 134.618C194.315 135.208 193.535 137.665 196.444 138.425C197.231 138.628 197.873 138.759 198.41 138.844L198.849 139.329C198.569 139.984 198.339 140.658 198.161 141.347C197.709 143.379 201.32 144.512 202.676 144.512C204.032 144.512 205.16 149.027 204.032 150.41C203.912 150.557 203.822 150.726 203.768 150.909C203.714 151.091 203.697 151.282 203.718 151.471C203.508 151.701 203.331 151.884 203.24 152.009C202.584 152.795 201.975 155.481 202.761 155.94C203.548 156.399 206.693 155.94 206.693 155.94C206.693 155.94 207.165 159.728 208.587 160.049C210.008 160.37 211.109 158.941 211.588 157.834C212.066 156.726 213.324 159.413 215.218 159.099C217.112 158.784 217.898 157.362 218.533 156.255C219.169 155.147 219.792 157.205 222.793 156.569C225.794 155.934 224.529 151.517 224.529 151.517C224.529 151.517 227.373 153.096 228.952 151.838C230.531 150.58 231.003 147.73 231.16 145.836C231.318 143.942 233.847 146.308 233.847 142.835C233.847 139.362 231.671 136.518 231.344 135.417Z" fill="#263238"/>
<path d="M200.795 159.695L204.222 158.804L200.54 165.35L200.795 159.695Z" fill="#263238" stroke="#263238" stroke-linecap="round" stroke-linejoin="round"/>
<path d="M193.705 143.752C193.705 144.591 193.41 145.272 193.05 145.272C192.69 145.272 192.395 144.617 192.395 143.752C192.395 142.887 192.69 142.238 193.05 142.238C193.41 142.238 193.705 142.92 193.705 143.752Z" fill="#263238"/>
<path d="M192.192 139.965C192.192 139.965 193.502 139.401 195.029 140.725" stroke="#263238" stroke-linecap="round" stroke-linejoin="round"/>
<path d="M192.1 193.887L165.621 196.029L157.102 195.237C157.102 195.237 145.38 199.221 147.667 199.987C149.289 200.423 151.001 200.405 152.614 199.935C154.818 200.81 157.163 201.276 159.534 201.311C161.46 201.292 163.377 201.034 165.241 200.544L194.78 204.987L192.1 193.887Z" fill="#263238" stroke="#263238" stroke-linecap="round" stroke-linejoin="round"/>
<path d="M211.463 160.304C211.463 160.304 196.209 175.067 193.771 178.756C191.333 182.446 190.331 185.643 190.331 188.841C190.331 192.039 192.546 199.174 192.546 199.174L189.59 209.757L180.98 217.62L194.511 239.244C194.511 239.244 200.664 240.476 204.845 238.018C209.026 235.561 211.686 225.012 211.686 219.841C211.686 214.671 210.703 203.604 210.703 203.604C210.703 203.604 216.364 185.912 218.088 179.248C219.811 172.584 220.054 166.7 218.33 163.522C216.607 160.343 213.92 158.581 211.463 160.304Z" fill="white" stroke="#263238" stroke-linecap="round" stroke-linejoin="round"/>
<path d="M193.745 178.776C193.253 179.51 192.801 180.269 192.388 181.05C198.856 181.948 207.709 183.331 216.43 185.185C216.771 184.032 217.085 182.937 217.374 181.909C209.144 180.153 200.802 178.816 194.38 177.898C194.125 178.233 193.909 178.514 193.745 178.776Z" fill="#318181" stroke="#263238" stroke-linecap="round" stroke-linejoin="round"/>
<path d="M218.311 178.415C218.586 177.288 218.815 176.181 218.999 175.106L201.182 170.52C200.251 171.47 199.347 172.413 198.489 173.311L218.311 178.415Z" fill="#318181" stroke="#263238" stroke-linecap="round" stroke-linejoin="round"/>
<path d="M211.149 202.274L212.19 198.965C205.73 198.493 198.633 197.963 192.015 197.458C192.303 198.493 192.519 199.175 192.519 199.175L192.054 200.846C198.312 201.324 204.989 201.822 211.149 202.274Z" fill="#318181" stroke="#263238" stroke-linecap="round" stroke-linejoin="round"/>
<path d="M219.418 171.85C219.522 170.676 219.546 169.496 219.49 168.318L207.335 164.36L204.648 167.034L219.418 171.85Z" fill="#318181" stroke="#263238" stroke-linecap="round" stroke-linejoin="round"/>
<path d="M203.541 238.667C198.115 234.336 191.176 228.838 184.715 223.642L190.101 232.265L199.236 239.551C200.709 239.486 202.162 239.187 203.541 238.667Z" fill="#318181" stroke="#263238" stroke-linecap="round" stroke-linejoin="round"/>
<path d="M210.919 205.904C203.941 205.792 196.785 205.602 190.809 205.301L189.879 208.636C196.169 208.97 203.79 209.173 211.181 209.291C211.083 208.014 210.991 206.847 210.919 205.904Z" fill="#318181" stroke="#263238" stroke-linecap="round" stroke-linejoin="round"/>
<path d="M190.652 185.637C190.421 186.689 190.305 187.763 190.305 188.841V189.005C197.25 189.214 205.966 189.961 214.7 190.898C215.041 189.791 215.355 188.684 215.703 187.622C206.811 186.639 197.866 185.86 190.652 185.637Z" fill="#318181" stroke="#263238" stroke-linecap="round" stroke-linejoin="round"/>
<path d="M190.101 219.402C187.539 218.216 185.069 217.076 182.743 216.015L180.954 217.646L182.061 219.415L188.679 222.462C195.54 225.485 202.565 228.121 209.72 230.358C210.087 229.297 210.415 228.196 210.683 227.082C203.744 224.861 195.999 222.115 190.101 219.402Z" fill="#318181" stroke="#263238" stroke-linecap="round" stroke-linejoin="round"/>
<path d="M211.686 219.841C211.686 219.068 211.686 218.157 211.627 217.168C203.493 215.803 195.451 213.939 187.546 211.585L184.636 214.239C193.495 216.955 202.525 219.078 211.666 220.595C211.686 220.333 211.686 220.058 211.686 219.841Z" fill="#318181" stroke="#263238" stroke-linecap="round" stroke-linejoin="round"/>
<path d="M152.417 283.808L144.05 293.159C144.05 293.159 137.654 295.125 136.671 296.114C135.688 297.103 137.654 297.588 140.111 298.571C142.569 299.554 151.677 298.08 154.632 297.831C157.587 297.582 160.287 297.831 161.27 295.374C162.253 292.916 161.27 290.204 161.027 289.221C160.785 288.238 159.547 283.323 159.547 283.323L152.417 283.808Z" fill="#9C9C9C" stroke="#263238" stroke-linecap="round" stroke-linejoin="round"/>
<path d="M143.63 293.29C142.215 293.742 137.504 295.256 136.671 296.114C135.688 297.097 137.654 297.588 140.111 298.571C142.569 299.554 151.677 298.08 154.632 297.831C157.587 297.582 160.287 297.831 161.27 295.373C162.253 292.916 161.27 290.203 161.027 289.221C161.027 289.109 160.955 288.945 160.91 288.742C156.611 291.435 149.305 294.391 147.739 294.391C146.321 294.235 144.936 293.864 143.63 293.29Z" fill="#318181" stroke="#263238" stroke-linecap="round" stroke-linejoin="round"/>
<path d="M127.563 267.571C127.563 267.571 117.983 278.154 116.738 279.628C115.493 281.102 111.824 281.594 112.066 283.317C112.309 285.041 116.247 284.549 117.964 284.3C119.68 284.051 130.512 281.351 131.986 280.86C133.461 280.369 135.433 279.628 135.682 277.413C135.931 275.199 134.201 269.55 134.201 269.55L127.563 267.571Z" fill="#9C9C9C" stroke="#263238" stroke-linecap="round" stroke-linejoin="round"/>
<path d="M135.675 277.413C135.826 276.031 135.21 273.311 134.732 271.457C132.314 272.637 129.981 275.828 128.782 276.43C127.308 277.164 115.991 280.86 115.991 280.86L115.473 280.565C113.927 281.417 111.869 282.02 112.053 283.317C112.302 285.041 116.234 284.549 117.95 284.3C119.667 284.051 130.499 281.352 131.973 280.86C133.447 280.369 135.439 279.628 135.675 277.413Z" fill="#318181" stroke="#263238" stroke-linecap="round" stroke-linejoin="round"/>
<path d="M216.771 162.748C214.635 161.562 210.362 163.698 208.94 166.07L207.047 173.186L200.166 196.199L165.621 196.029C165.621 196.029 155.844 193.873 154.422 193.906C153 193.938 145.747 198.611 145.76 199.318C145.773 200.026 147.673 199.973 147.673 199.973L150.989 199.665L154.534 198.873C154.534 198.873 157.633 199.751 159.062 199.718C160.257 199.639 161.443 199.455 162.607 199.167C162.607 199.167 199.924 207.607 202.296 207.607C204.668 207.607 207.283 206.893 208.233 205.235C209.183 203.577 219.143 178.9 219.615 173.442C220.086 167.983 218.894 163.934 216.771 162.748Z" fill="#9C9C9C" stroke="#263238" stroke-linecap="round" stroke-linejoin="round"/>
<path d="M147.896 199.594C147.896 199.594 153.4 196.652 154.01 196.534" stroke="#263238" stroke-linecap="round" stroke-linejoin="round"/>
<path d="M153.158 194.941C153.158 194.941 146.913 198.493 146.546 199.836" stroke="#263238" stroke-linecap="round" stroke-linejoin="round"/>
<path d="M227.412 166.326L223.481 166.104C223.481 166.104 213.357 195.374 212.033 206.376C210.709 217.378 211.155 226.617 211.817 229.697C212.479 232.777 215.997 238.72 215.997 238.72L220.394 239.821C220.394 239.821 215.807 227.934 215.558 224.638C215.309 221.342 215.906 208.257 216.214 206.592C218.625 193.847 227.412 166.326 227.412 166.326Z" fill="#6E6E6E" stroke="#263238" stroke-linecap="round" stroke-linejoin="round"/>
<path d="M192.028 278.56C192.028 278.56 170.214 289.561 169.749 291.979C169.503 293.804 169.503 295.653 169.749 297.477L170.522 296.71L172.612 291.757L192.192 282.517L192.028 278.56Z" fill="#6E6E6E" stroke="#263238" stroke-linecap="round" stroke-linejoin="round"/>
<path d="M173.74 296.6C173.741 297.079 173.6 297.549 173.334 297.948C173.069 298.348 172.69 298.66 172.247 298.844C171.805 299.029 171.317 299.078 170.846 298.985C170.375 298.892 169.943 298.662 169.603 298.323C169.263 297.984 169.032 297.552 168.938 297.082C168.844 296.611 168.891 296.123 169.075 295.68C169.258 295.236 169.569 294.857 169.967 294.591C170.366 294.324 170.835 294.182 171.315 294.182C171.957 294.182 172.573 294.436 173.027 294.889C173.482 295.343 173.738 295.958 173.74 296.6Z" fill="#263238" stroke="#263238" stroke-linecap="round" stroke-linejoin="round"/>
<path d="M198.377 278.56C198.377 278.56 220.165 289.561 220.604 291.979C220.85 293.804 220.85 295.653 220.604 297.477L219.831 296.723L217.74 291.77L198.161 282.53L198.377 278.56Z" fill="#6E6E6E" stroke="#263238" stroke-linecap="round" stroke-linejoin="round"/>
<path d="M216.646 296.6C216.646 297.078 216.788 297.545 217.054 297.943C217.319 298.341 217.697 298.65 218.139 298.833C218.581 299.016 219.067 299.064 219.536 298.971C220.005 298.878 220.436 298.647 220.774 298.309C221.112 297.971 221.342 297.54 221.436 297.071C221.529 296.602 221.481 296.116 221.298 295.674C221.115 295.232 220.805 294.855 220.407 294.589C220.01 294.323 219.542 294.182 219.064 294.182C218.423 294.183 217.809 294.439 217.356 294.892C216.903 295.345 216.648 295.959 216.646 296.6Z" fill="#263238" stroke="#263238" stroke-linecap="round" stroke-linejoin="round"/>
<path d="M196.621 242.69H193.103V280.977H196.621V242.69Z" fill="#263238" stroke="#263238" stroke-linecap="round" stroke-linejoin="round"/>
<path d="M200.14 246.432H189.8V253.476H200.14V246.432Z" fill="#263238" stroke="#263238" stroke-linecap="round" stroke-linejoin="round"/>
<path d="M219.549 239.342C211.928 238.543 187.382 236.413 165.372 239.342C165.185 239.37 165.01 239.45 164.866 239.573C164.723 239.696 164.617 239.857 164.56 240.037C164.503 240.217 164.498 240.41 164.546 240.593C164.593 240.776 164.691 240.942 164.828 241.072C167.167 243.28 173.661 247.29 190.469 248.391C207.833 249.531 216.679 244.198 220.159 241.327C220.323 241.182 220.442 240.993 220.501 240.782C220.561 240.571 220.558 240.348 220.494 240.138C220.429 239.929 220.306 239.742 220.139 239.601C219.971 239.46 219.766 239.37 219.549 239.342Z" fill="#6E6E6E" stroke="#263238" stroke-linecap="round" stroke-linejoin="round"/>
<path d="M164.802 241.072L164.847 241.112C165.026 241.277 165.259 241.371 165.503 241.374H220.093H220.132C220.304 241.231 220.429 241.04 220.493 240.826C220.556 240.611 220.555 240.383 220.489 240.17C220.423 239.956 220.296 239.767 220.123 239.625C219.95 239.484 219.739 239.397 219.516 239.375C211.889 238.576 187.349 236.446 165.345 239.375C165.164 239.406 164.994 239.485 164.855 239.606C164.716 239.726 164.613 239.883 164.556 240.058C164.5 240.233 164.493 240.421 164.537 240.6C164.58 240.779 164.672 240.942 164.802 241.072Z" fill="#263238" stroke="#263238" stroke-linecap="round" stroke-linejoin="round"/>
<path d="M199.039 275.034H190.901V283.618H199.039V275.034Z" fill="#263238" stroke="#263238" stroke-linecap="round" stroke-linejoin="round"/>
<path d="M195.304 279.326H194.092V299.017H195.304V279.326Z" fill="#6E6E6E" stroke="#263238" stroke-linecap="round" stroke-linejoin="round"/>
<path d="M195.75 293.887H193.62V299.044H195.75V293.887Z" fill="#263238" stroke="#263238" stroke-linecap="round" stroke-linejoin="round"/>
<path d="M203.22 241.374H198.377L195.298 211.887H198.6L203.22 241.374Z" fill="#6E6E6E" stroke="#263238" stroke-linecap="round" stroke-linejoin="round"/>
<path d="M211.581 213.866H178.359C178.359 213.866 180.777 209.469 182.291 209.03C183.804 208.591 208.914 209.03 208.914 209.03C208.914 209.03 211.581 209.908 211.581 213.866Z" fill="#263238" stroke="#263238" stroke-linecap="round" stroke-linejoin="round"/>
<path d="M178.359 213.865H211.581C211.58 213.497 211.554 213.129 211.502 212.765H179.008C178.615 213.407 178.359 213.865 178.359 213.865Z" fill="#6E6E6E" stroke="#263238" stroke-linecap="round" stroke-linejoin="round"/>
<path d="M75.3909 207.929L79.139 217.581C80.4496 220.32 80.9869 224.979 80.633 228L71.8394 297.72C71.8164 297.907 71.833 298.096 71.888 298.277C71.9431 298.457 72.0354 298.623 72.159 298.765C72.2826 298.907 72.4346 299.022 72.6054 299.101C72.7761 299.181 72.9616 299.224 73.1499 299.227C73.4631 299.231 73.7674 299.123 74.0078 298.922C74.2482 298.722 74.4088 298.442 74.4605 298.133L91.2614 208.859H85.1019L84.0208 213.997C83.9792 214.183 83.8779 214.35 83.7322 214.473C83.5866 214.596 83.4047 214.668 83.2144 214.677C83.0241 214.687 82.8359 214.634 82.6785 214.526C82.5212 214.419 82.4034 214.263 82.3433 214.082L80.2661 207.529L75.3909 207.929Z" fill="white" stroke="#263238" stroke-linecap="round" stroke-linejoin="round"/>
<path d="M84.499 211.729H90.7175L91.2614 208.859H85.1019L84.499 211.729Z" fill="#263238" stroke="#263238" stroke-linecap="round" stroke-linejoin="round"/>
<path d="M80.2661 207.542L75.3582 207.929L76.8325 211.729H81.5963L80.2661 207.542Z" fill="#263238" stroke="#263238" stroke-linecap="round" stroke-linejoin="round"/>
<path d="M169.991 207.929L166.243 217.581C164.933 220.32 164.389 224.979 164.743 228L173.543 297.72C173.566 297.907 173.549 298.096 173.494 298.277C173.439 298.457 173.347 298.623 173.223 298.765C173.1 298.907 172.948 299.022 172.777 299.101C172.606 299.181 172.421 299.224 172.232 299.227C171.919 299.231 171.615 299.123 171.374 298.922C171.134 298.722 170.974 298.442 170.922 298.133L154.088 208.859H160.248L161.329 213.997C161.368 214.184 161.468 214.353 161.613 214.477C161.758 214.601 161.941 214.674 162.131 214.684C162.322 214.693 162.511 214.64 162.668 214.531C162.825 214.422 162.942 214.264 163 214.082L165.083 207.529L169.991 207.929Z" fill="white" stroke="#263238" stroke-linecap="round" stroke-linejoin="round"/>
<path d="M160.248 208.859H154.088L154.632 211.729H160.85L160.248 208.859Z" fill="#263238" stroke="#263238" stroke-linecap="round" stroke-linejoin="round"/>
<path d="M163.753 211.729H168.517L169.991 207.929L165.083 207.542L163.753 211.729Z" fill="#263238" stroke="#263238" stroke-linecap="round" stroke-linejoin="round"/>
<path d="M177.035 203.106H68.7793V208.827H177.035V203.106Z" fill="white" stroke="#263238" stroke-linecap="round" stroke-linejoin="round"/>
<path d="M169.009 201.494H141.343V203.145H169.009V201.494Z" fill="white" stroke="#263238" stroke-linecap="round" stroke-linejoin="round"/>
<path d="M124.673 202.778H112.603C111.58 202.778 110.595 202.385 109.853 201.681C109.11 200.976 108.666 200.013 108.613 198.991C108.589 198.549 108.64 198.106 108.763 197.68L116.325 175.932C116.402 175.712 116.563 175.53 116.773 175.428C116.983 175.326 117.225 175.312 117.446 175.388C117.666 175.465 117.848 175.626 117.95 175.836C118.052 176.046 118.066 176.288 117.99 176.509L110.441 198.211C110.378 198.439 110.354 198.676 110.369 198.912C110.401 199.484 110.65 200.021 111.065 200.415C111.481 200.808 112.031 201.028 112.603 201.029H124.673C124.894 201.048 125.099 201.149 125.249 201.312C125.399 201.475 125.482 201.689 125.482 201.91C125.482 202.132 125.399 202.345 125.249 202.508C125.099 202.671 124.894 202.772 124.673 202.792V202.778Z" fill="#263238" stroke="#263238" stroke-linecap="round" stroke-linejoin="round"/>
<path d="M121.554 146.157L134.882 197.189L133.428 198.283C133.428 198.283 116.673 185.159 116.673 174.189C116.673 163.22 119.589 146.478 119.589 146.478L121.554 146.157Z" fill="white" stroke="#263238" stroke-linecap="round" stroke-linejoin="round"/>
<path d="M121.554 146.157L119.569 146.505L133.428 198.283L134.882 197.189L121.554 146.157Z" fill="#263238" stroke="#263238" stroke-linecap="round" stroke-linejoin="round"/>
<path d="M84.6562 192.799C84.6562 192.799 79.9252 185.224 83.7127 180.965C87.5001 176.705 93.653 178.776 94.9111 182.708C96.1692 186.639 93.4957 193.277 93.4957 193.277L84.6562 192.799Z" fill="#318181" stroke="#263238" stroke-linecap="round" stroke-linejoin="round"/>
<path d="M84.8201 184.123C84.0273 184.123 81.0327 183.016 80.0826 181.594C79.1325 180.172 78.9817 177.007 81.6618 177.007C84.3418 177.007 85.2919 181.744 85.2919 181.744L85.4492 183.474" fill="#318181"/>
<path d="M84.8201 184.123C84.0273 184.123 81.0327 183.016 80.0826 181.594C79.1325 180.172 78.9817 177.007 81.6618 177.007C84.3418 177.007 85.2919 181.744 85.2919 181.744L85.4492 183.474" stroke="#263238" stroke-linecap="round" stroke-linejoin="round"/>
<path d="M87.2446 181.175C86.5369 180.821 84.3483 178.495 84.1321 176.804C83.9159 175.114 85.1871 172.217 87.5919 173.41C89.9967 174.603 88.7255 179.268 88.7255 179.268L88.0703 180.893" fill="#318181"/>
<path d="M87.2446 181.175C86.5369 180.821 84.3483 178.495 84.1321 176.804C83.9159 175.114 85.1871 172.217 87.5919 173.41C89.9967 174.603 88.7255 179.268 88.7255 179.268L88.0703 180.893" stroke="#263238" stroke-linecap="round" stroke-linejoin="round"/>
<path d="M90.1081 181.968C89.7149 181.313 89.1842 178.135 89.9443 176.608C90.7044 175.081 93.3713 173.377 94.7015 175.704C96.0317 178.03 92.4277 181.201 92.4277 181.201L90.9992 182.204" fill="#318181"/>
<path d="M90.1081 181.968C89.7149 181.313 89.1842 178.135 89.9443 176.608C90.7044 175.081 93.3713 173.377 94.7015 175.704C96.0317 178.03 92.4277 181.201 92.4277 181.201L90.9992 182.204" stroke="#263238" stroke-linecap="round" stroke-linejoin="round"/>
<path d="M91.0516 187.622C90.9206 186.843 91.5103 183.691 92.7553 182.537C94.0003 181.384 97.0866 180.69 97.5322 183.337C97.9778 185.984 93.463 187.694 93.463 187.694L91.779 188.14" fill="#318181"/>
<path d="M91.0516 187.622C90.9206 186.843 91.5103 183.691 92.7553 182.537C94.0003 181.384 97.0866 180.69 97.5322 183.337C97.9778 185.984 93.463 187.694 93.463 187.694L91.779 188.14" stroke="#263238" stroke-linecap="round" stroke-linejoin="round"/>
<path d="M80.4299 179.693L80.9607 180.532" stroke="white" stroke-linecap="round" stroke-linejoin="round"/>
<path d="M81.9502 181.751L82.7889 182.432" stroke="white" stroke-linecap="round" stroke-linejoin="round"/>
<path d="M81.0393 178.095L81.878 179.314" stroke="white" stroke-linecap="round" stroke-linejoin="round"/>
<path d="M83.0181 180.303L83.9354 181.974" stroke="white" stroke-linecap="round" stroke-linejoin="round"/>
<path d="M85.1477 176.267L85.4557 177.184" stroke="white" stroke-linecap="round" stroke-linejoin="round"/>
<path d="M86.2158 178.854L86.7466 179.615" stroke="white" stroke-linecap="round" stroke-linejoin="round"/>
<path d="M85.9866 174.438L86.6746 175.965" stroke="white" stroke-linecap="round" stroke-linejoin="round"/>
<path d="M83.3262 185.172L83.549 186.548" stroke="white" stroke-linecap="round" stroke-linejoin="round"/>
<path d="M84.0076 187.839L84.3155 188.979" stroke="white" stroke-linecap="round" stroke-linejoin="round"/>
<path d="M84.7678 185.25L85.0758 186.77" stroke="white" stroke-linecap="round" stroke-linejoin="round"/>
<path d="M85.7571 187.839L85.9864 188.979" stroke="white" stroke-linecap="round" stroke-linejoin="round"/>
<path d="M86.2944 183.271L86.7466 185.401" stroke="white" stroke-linecap="round" stroke-linejoin="round"/>
<path d="M87.356 187.459L87.4346 188.448" stroke="white" stroke-linecap="round" stroke-linejoin="round"/>
<path d="M88.1948 182.583L88.5749 184.562" stroke="white" stroke-linecap="round" stroke-linejoin="round"/>
<path d="M88.5747 186.62L88.7254 188.678" stroke="white" stroke-linecap="round" stroke-linejoin="round"/>
<path d="M90.4031 183.35V185.021" stroke="white" stroke-linecap="round" stroke-linejoin="round"/>
<path d="M90.1736 187.15L90.2522 188.448" stroke="white" stroke-linecap="round" stroke-linejoin="round"/>
<path d="M92.3097 175.428L91.9231 176.345" stroke="white" stroke-linecap="round" stroke-linejoin="round"/>
<path d="M91.7724 177.407L91.3923 178.705" stroke="white" stroke-linecap="round" stroke-linejoin="round"/>
<path d="M93.9807 177.184L93.3713 178.396" stroke="white" stroke-linecap="round" stroke-linejoin="round"/>
<path d="M92.0804 179.772L91.3923 180.533" stroke="white" stroke-linecap="round" stroke-linejoin="round"/>
<path d="M90.6324 177.105L90.4031 178.095" stroke="white" stroke-linecap="round" stroke-linejoin="round"/>
<path d="M93.9808 182.583L93.1421 183.959" stroke="white" stroke-linecap="round" stroke-linejoin="round"/>
<path d="M92.6113 184.792L92.1526 186.011" stroke="white" stroke-linecap="round" stroke-linejoin="round"/>
<path d="M93.2993 186.619L94.6688 185.859" stroke="white" stroke-linecap="round" stroke-linejoin="round"/>
<path d="M95.5011 182.583L94.8196 183.73" stroke="white" stroke-linecap="round" stroke-linejoin="round"/>
<path d="M96.1889 183.881L95.2781 184.562" stroke="white" stroke-linecap="round" stroke-linejoin="round"/>
<path d="M95.2061 190.158H82.2646V203.1H95.2061V190.158Z" fill="#263238" stroke="#263238" stroke-linecap="round" stroke-linejoin="round"/>
<path d="M242.962 204.816L250.464 276.751" stroke="#263238" stroke-width="2" stroke-miterlimit="10"/>
<path d="M249.259 262.984L245.851 259.394" stroke="#263238" stroke-width="2" stroke-miterlimit="10"/>
<path d="M246.887 260.468C246.88 259.918 246.756 259.376 246.522 258.879C246.288 258.381 245.95 257.94 245.53 257.585C244.659 256.798 240.059 254.865 239.633 256.484C239.148 258.246 243.859 261.706 246.887 260.468Z" fill="#318181" stroke="#263238" stroke-miterlimit="10"/>
<path d="M246.887 260.468L242.51 257.742" stroke="#263238" stroke-width="0.5" stroke-miterlimit="10"/>
<path d="M250.111 271.169L246.71 267.571" stroke="#263238" stroke-width="2" stroke-miterlimit="10"/>
<path d="M247.725 268.653C247.719 268.102 247.596 267.56 247.363 267.062C247.13 266.563 246.793 266.12 246.375 265.763C245.497 264.983 240.904 263.05 240.478 264.669C240.006 266.431 244.711 269.891 247.725 268.653Z" fill="#318181" stroke="#263238" stroke-miterlimit="10"/>
<path d="M247.738 268.652L243.361 265.92" stroke="#263238" stroke-width="0.5" stroke-miterlimit="10"/>
<path d="M247.175 243.025L243.768 239.428" stroke="#263238" stroke-width="2" stroke-miterlimit="10"/>
<path d="M244.803 240.502C244.796 239.953 244.672 239.411 244.438 238.913C244.204 238.416 243.866 237.975 243.446 237.619C242.575 236.839 237.975 234.9 237.549 236.525C237.064 238.281 241.776 241.741 244.803 240.502Z" fill="#318181" stroke="#263238" stroke-miterlimit="10"/>
<path d="M244.803 240.502L240.426 237.776" stroke="#263238" stroke-width="0.5" stroke-miterlimit="10"/>
<path d="M248.027 251.202L244.626 247.611" stroke="#263238" stroke-width="2" stroke-miterlimit="10"/>
<path d="M245.655 248.687C245.649 248.137 245.525 247.594 245.292 247.096C245.059 246.598 244.723 246.155 244.305 245.797C243.427 245.017 238.833 243.084 238.407 244.703C237.896 246.465 242.627 249.925 245.655 248.687Z" fill="#318181" stroke="#263238" stroke-miterlimit="10"/>
<path d="M245.655 248.686L241.278 245.96" stroke="#263238" stroke-width="0.5" stroke-miterlimit="10"/>
<path d="M245.786 229.73L242.385 226.139" stroke="#263238" stroke-width="2" stroke-miterlimit="10"/>
<path d="M243.414 227.213C243.408 226.663 243.284 226.121 243.051 225.622C242.819 225.124 242.482 224.681 242.064 224.323C241.186 223.544 236.592 221.611 236.167 223.229C235.682 224.992 240.386 228.452 243.414 227.213Z" fill="#318181" stroke="#263238" stroke-miterlimit="10"/>
<path d="M243.414 227.213L239.036 224.487" stroke="#263238" stroke-width="0.5" stroke-miterlimit="10"/>
<path d="M244.39 216.382L240.989 212.791" stroke="#263238" stroke-width="2" stroke-miterlimit="10"/>
<path d="M242.025 213.865C242.018 213.315 241.894 212.772 241.66 212.273C241.426 211.775 241.088 211.332 240.668 210.976C239.797 210.196 235.197 208.263 234.771 209.881C234.286 211.644 238.991 215.104 242.025 213.865Z" fill="#318181" stroke="#263238" stroke-miterlimit="10"/>
<path d="M242.025 213.866L237.647 211.14" stroke="#263238" stroke-width="0.5" stroke-miterlimit="10"/>
<path d="M248.682 258.149L251.27 253.929" stroke="#263238" stroke-width="2" stroke-miterlimit="10"/>
<path d="M250.484 255.193C250.376 254.653 250.386 254.097 250.511 253.561C250.637 253.025 250.875 252.523 251.211 252.087C251.906 251.143 256.008 248.3 256.768 249.8C257.594 251.425 253.701 255.776 250.484 255.193Z" fill="#318181" stroke="#263238" stroke-miterlimit="10"/>
<path d="M250.484 255.193L254.422 251.425" stroke="#263238" stroke-width="0.5" stroke-miterlimit="10"/>
<path d="M246.434 236.616L249.023 232.396" stroke="#263238" stroke-width="2" stroke-miterlimit="10"/>
<path d="M248.236 233.661C248.129 233.121 248.138 232.565 248.264 232.029C248.389 231.494 248.628 230.991 248.964 230.555C249.658 229.612 253.76 226.774 254.52 228.268C255.346 229.887 251.46 234.251 248.236 233.661Z" fill="#318181" stroke="#263238" stroke-miterlimit="10"/>
<path d="M248.236 233.661L252.175 229.894" stroke="#263238" stroke-width="0.5" stroke-miterlimit="10"/>
<path d="M245.452 227.154L248.04 222.935" stroke="#263238" stroke-width="2" stroke-miterlimit="10"/>
<path d="M247.247 224.199C247.141 223.66 247.152 223.105 247.279 222.57C247.405 222.035 247.645 221.534 247.981 221.1C248.669 220.15 252.771 217.312 253.531 218.806C254.363 220.431 250.471 224.789 247.247 224.199Z" fill="#318181" stroke="#263238" stroke-miterlimit="10"/>
<path d="M247.247 224.199L251.192 220.432" stroke="#263238" stroke-width="0.5" stroke-miterlimit="10"/>
<path d="M244.003 213.282L246.592 209.062" stroke="#263238" stroke-width="2" stroke-miterlimit="10"/>
<path d="M245.799 210.327C245.693 209.788 245.704 209.233 245.831 208.698C245.957 208.164 246.197 207.662 246.533 207.228C247.221 206.284 251.323 203.441 252.083 204.935C252.915 206.56 249.036 210.917 245.799 210.327Z" fill="#318181" stroke="#263238" stroke-miterlimit="10"/>
<path d="M245.799 210.327L249.744 206.565" stroke="#263238" stroke-width="0.5" stroke-miterlimit="10"/>
<path d="M242.896 204.417C242.788 203.877 242.797 203.321 242.923 202.785C243.048 202.249 243.287 201.747 243.623 201.311C244.318 200.367 248.42 197.524 249.18 199.018C250.006 200.643 246.12 204.987 242.896 204.417Z" fill="#318181" stroke="#263238" stroke-miterlimit="10"/>
<path d="M242.896 204.416L246.834 200.648" stroke="#263238" stroke-width="0.5" stroke-miterlimit="10"/>
<path d="M243.138 204.574C242.59 204.624 242.038 204.557 241.518 204.376C240.998 204.195 240.523 203.905 240.124 203.526C239.259 202.739 236.848 198.362 238.427 197.759C240.118 197.124 244.043 201.435 243.138 204.574Z" fill="#318181" stroke="#263238" stroke-miterlimit="10"/>
<path d="M243.125 204.574L239.79 200.263" stroke="#263238" stroke-width="0.5" stroke-miterlimit="10"/>
<path d="M262.764 214.724L255.294 286.665" stroke="#263238" stroke-width="2" stroke-miterlimit="10"/>
<path d="M256.945 272.945L254.357 268.725" stroke="#263238" stroke-width="2" stroke-miterlimit="10"/>
<path d="M255.143 269.995C255.251 269.455 255.242 268.899 255.116 268.363C254.991 267.827 254.752 267.325 254.416 266.889C253.721 265.946 249.619 263.108 248.859 264.602C248.033 266.227 251.926 270.578 255.143 269.995Z" fill="#318181" stroke="#263238" stroke-miterlimit="10"/>
<path d="M255.143 269.995L251.421 266.424" stroke="#263238" stroke-width="0.5" stroke-miterlimit="10"/>
<path d="M259.016 252.979L256.427 248.759" stroke="#263238" stroke-width="2" stroke-miterlimit="10"/>
<path d="M257.22 250.029C257.326 249.489 257.315 248.933 257.189 248.397C257.062 247.861 256.823 247.359 256.486 246.923C255.792 245.98 251.69 243.142 250.93 244.636C250.104 246.268 253.996 250.612 257.22 250.029Z" fill="#318181" stroke="#263238" stroke-miterlimit="10"/>
<path d="M257.22 250.029L253.498 246.458" stroke="#263238" stroke-width="0.5" stroke-miterlimit="10"/>
<path d="M258.17 261.162L255.575 256.942" stroke="#263238" stroke-width="2" stroke-miterlimit="10"/>
<path d="M256.368 258.207C256.476 257.667 256.466 257.11 256.339 256.574C256.213 256.039 255.972 255.536 255.634 255.101C254.94 254.164 250.844 251.321 250.084 252.815C249.252 254.44 253.144 258.797 256.368 258.207Z" fill="#318181" stroke="#263238" stroke-miterlimit="10"/>
<path d="M256.368 258.207L252.646 254.636" stroke="#263238" stroke-width="0.5" stroke-miterlimit="10"/>
<path d="M260.398 239.69L257.803 235.47" stroke="#263238" stroke-width="2" stroke-miterlimit="10"/>
<path d="M258.596 236.734C258.704 236.194 258.694 235.637 258.567 235.102C258.441 234.566 258.2 234.063 257.862 233.628C257.174 232.685 253.072 229.848 252.312 231.342C251.48 232.967 255.379 237.324 258.596 236.734Z" fill="#318181" stroke="#263238" stroke-miterlimit="10"/>
<path d="M258.596 236.734L254.874 233.163" stroke="#263238" stroke-width="0.5" stroke-miterlimit="10"/>
<path d="M261.781 226.335L259.193 222.122" stroke="#263238" stroke-width="2" stroke-miterlimit="10"/>
<path d="M259.979 223.387C260.087 222.847 260.078 222.291 259.952 221.755C259.827 221.219 259.588 220.716 259.251 220.281C258.557 219.337 254.455 216.5 253.695 217.994C252.869 219.619 256.761 223.99 259.979 223.387Z" fill="#318181" stroke="#263238" stroke-miterlimit="10"/>
<path d="M259.979 223.387L256.257 219.815" stroke="#263238" stroke-width="0.5" stroke-miterlimit="10"/>
<path d="M257.384 268.089L260.785 264.491" stroke="#263238" stroke-width="2" stroke-miterlimit="10"/>
<path d="M259.75 265.573C259.756 265.022 259.88 264.479 260.114 263.981C260.348 263.482 260.686 263.04 261.106 262.683C261.977 261.903 266.571 259.964 267.003 261.582C267.488 263.345 262.796 266.805 259.75 265.573Z" fill="#318181" stroke="#263238" stroke-miterlimit="10"/>
<path d="M259.75 265.573L264.382 262.696" stroke="#263238" stroke-width="0.5" stroke-miterlimit="10"/>
<path d="M259.618 246.556L263.019 242.959" stroke="#263238" stroke-width="2" stroke-miterlimit="10"/>
<path d="M261.984 244.041C261.99 243.49 262.115 242.947 262.349 242.449C262.583 241.95 262.921 241.508 263.34 241.151C264.212 240.371 268.805 238.432 269.238 240.05C269.723 241.813 265.018 245.273 261.984 244.041Z" fill="#318181" stroke="#263238" stroke-miterlimit="10"/>
<path d="M261.984 244.041L266.617 241.164" stroke="#263238" stroke-width="0.5" stroke-miterlimit="10"/>
<path d="M260.601 237.094L264.002 233.497" stroke="#263238" stroke-width="2" stroke-miterlimit="10"/>
<path d="M262.967 234.579C262.973 234.028 263.098 233.485 263.332 232.987C263.566 232.488 263.904 232.046 264.323 231.689C265.195 230.909 269.788 228.97 270.221 230.588C270.705 232.351 266.001 235.784 262.967 234.579Z" fill="#318181" stroke="#263238" stroke-miterlimit="10"/>
<path d="M262.967 234.579L267.599 231.702" stroke="#263238" stroke-width="0.5" stroke-miterlimit="10"/>
<path d="M262.036 223.222L265.437 219.625" stroke="#263238" stroke-width="2" stroke-miterlimit="10"/>
<path d="M264.408 220.713C264.414 220.163 264.538 219.621 264.771 219.123C265.004 218.624 265.34 218.181 265.758 217.824C266.63 217.044 271.23 215.104 271.656 216.723C272.14 218.479 267.436 221.939 264.408 220.713Z" fill="#318181" stroke="#263238" stroke-miterlimit="10"/>
<path d="M264.408 220.707L269.041 217.83" stroke="#263238" stroke-width="0.5" stroke-miterlimit="10"/>
<path d="M262.796 214.317C262.802 213.767 262.926 213.225 263.159 212.727C263.392 212.228 263.728 211.785 264.146 211.428C265.018 210.648 269.618 208.708 270.044 210.333C270.515 212.09 265.811 215.556 262.796 214.317Z" fill="#318181" stroke="#263238" stroke-miterlimit="10"/>
<path d="M262.783 214.318L267.416 211.441" stroke="#263238" stroke-width="0.5" stroke-miterlimit="10"/>
<path d="M262.973 214.52C262.425 214.455 261.897 214.271 261.425 213.983C260.953 213.695 260.55 213.308 260.241 212.85C259.586 211.899 258.111 207.123 259.769 206.86C261.571 206.598 264.52 211.637 262.973 214.52Z" fill="#318181" stroke="#263238" stroke-miterlimit="10"/>
<path d="M262.973 214.521L260.595 209.613" stroke="#263238" stroke-width="0.5" stroke-miterlimit="10"/>
<path d="M254.206 185.427V276.404" stroke="#263238" stroke-width="2" stroke-miterlimit="10"/>
<path d="M254.278 262.722L251.264 258.797" stroke="#263238" stroke-width="2" stroke-miterlimit="10"/>
<path d="M252.181 259.977C252.231 259.429 252.164 258.876 251.983 258.356C251.802 257.836 251.512 257.361 251.133 256.962C250.346 256.097 245.976 253.686 245.373 255.259C244.718 256.962 249.036 260.894 252.181 259.977Z" fill="#318181" stroke="#263238" stroke-miterlimit="10"/>
<path d="M252.181 259.976L248.112 256.805" stroke="#263238" stroke-width="0.5" stroke-miterlimit="10"/>
<path d="M254.278 245.626L251.264 241.701" stroke="#263238" stroke-width="2" stroke-miterlimit="10"/>
<path d="M252.181 242.874C252.231 242.327 252.164 241.776 251.983 241.257C251.802 240.738 251.512 240.264 251.133 239.867C250.346 239.002 245.976 236.59 245.373 238.163C244.718 239.867 249.036 243.792 252.181 242.874Z" fill="#318181" stroke="#263238" stroke-miterlimit="10"/>
<path d="M252.181 242.874L248.112 239.709" stroke="#263238" stroke-width="0.5" stroke-miterlimit="10"/>
<path d="M254.278 225.556L251.264 221.624" stroke="#263238" stroke-width="2" stroke-miterlimit="10"/>
<path d="M252.181 222.804C252.231 222.256 252.164 221.703 251.983 221.183C251.802 220.663 251.512 220.188 251.133 219.79C250.346 218.925 245.976 216.513 245.373 218.092C244.718 219.79 249.036 223.721 252.181 222.804Z" fill="#318181" stroke="#263238" stroke-miterlimit="10"/>
<path d="M252.181 222.804L248.112 219.639" stroke="#263238" stroke-width="0.5" stroke-miterlimit="10"/>
<path d="M254.278 212.188L251.264 208.263" stroke="#263238" stroke-width="2" stroke-miterlimit="10"/>
<path d="M252.181 209.442C252.231 208.894 252.164 208.342 251.983 207.822C251.802 207.302 251.512 206.827 251.133 206.428C250.346 205.563 245.976 203.152 245.373 204.725C244.718 206.428 249.036 210.36 252.181 209.442Z" fill="#318181" stroke="#263238" stroke-miterlimit="10"/>
<path d="M252.181 209.443L248.112 206.271" stroke="#263238" stroke-width="0.5" stroke-miterlimit="10"/>
<path d="M254.278 198.768L251.264 194.843" stroke="#263238" stroke-width="2" stroke-miterlimit="10"/>
<path d="M252.181 196.023C252.231 195.474 252.164 194.922 251.983 194.402C251.802 193.882 251.512 193.407 251.133 193.008C250.346 192.143 245.976 189.732 245.373 191.305C244.718 193.008 249.036 196.933 252.181 196.023Z" fill="#318181" stroke="#263238" stroke-miterlimit="10"/>
<path d="M252.181 196.023L248.112 192.852" stroke="#263238" stroke-width="0.5" stroke-miterlimit="10"/>
<path d="M254.213 267.945L257.227 264.02" stroke="#263238" stroke-width="2" stroke-miterlimit="10"/>
<path d="M256.309 265.193C256.259 264.645 256.327 264.094 256.508 263.575C256.688 263.056 256.978 262.582 257.358 262.185C258.144 261.313 262.515 258.909 263.117 260.481C263.773 262.185 259.448 266.11 256.309 265.193Z" fill="#318181" stroke="#263238" stroke-miterlimit="10"/>
<path d="M256.309 265.193L260.621 261.857" stroke="#263238" stroke-width="0.5" stroke-miterlimit="10"/>
<path d="M254.213 240.751L257.227 236.826" stroke="#263238" stroke-width="2" stroke-miterlimit="10"/>
<path d="M256.309 238.006C256.259 237.458 256.327 236.905 256.507 236.385C256.688 235.865 256.978 235.39 257.358 234.992C258.144 234.127 262.515 231.715 263.118 233.288C263.773 234.992 259.448 238.923 256.309 238.006Z" fill="#318181" stroke="#263238" stroke-miterlimit="10"/>
<path d="M256.309 238.006L260.621 234.664" stroke="#263238" stroke-width="0.5" stroke-miterlimit="10"/>
<path d="M254.213 227.331L257.227 223.406" stroke="#263238" stroke-width="2" stroke-miterlimit="10"/>
<path d="M256.309 224.579C256.259 224.032 256.327 223.481 256.508 222.962C256.688 222.443 256.978 221.969 257.358 221.572C258.144 220.7 262.515 218.295 263.117 219.868C263.773 221.572 259.448 225.497 256.309 224.579Z" fill="#318181" stroke="#263238" stroke-miterlimit="10"/>
<path d="M256.309 224.579L260.621 221.244" stroke="#263238" stroke-width="0.5" stroke-miterlimit="10"/>
<path d="M254.213 209.594L257.227 205.662" stroke="#263238" stroke-width="2" stroke-miterlimit="10"/>
<path d="M256.309 206.841C256.259 206.294 256.326 205.742 256.507 205.223C256.688 204.704 256.978 204.23 257.358 203.833C258.144 202.962 262.515 200.557 263.117 202.13C263.773 203.833 259.448 207.758 256.309 206.841Z" fill="#318181" stroke="#263238" stroke-miterlimit="10"/>
<path d="M256.309 206.841L260.621 203.506" stroke="#263238" stroke-width="0.5" stroke-miterlimit="10"/>
<path d="M254.213 195.649L257.227 191.718" stroke="#263238" stroke-width="2" stroke-miterlimit="10"/>
<path d="M256.309 192.898C256.259 192.349 256.327 191.797 256.507 191.277C256.688 190.757 256.978 190.282 257.358 189.883C258.144 189.018 262.515 186.607 263.118 188.18C263.773 189.916 259.448 193.848 256.309 192.898Z" fill="#318181" stroke="#263238" stroke-miterlimit="10"/>
<path d="M256.309 192.897L260.621 189.562" stroke="#263238" stroke-width="0.5" stroke-miterlimit="10"/>
<path d="M254.029 186.711C253.979 186.163 254.046 185.61 254.227 185.09C254.408 184.571 254.698 184.095 255.077 183.697C255.864 182.832 260.241 180.42 260.844 181.993C261.486 183.697 257.174 187.628 254.029 186.711Z" fill="#318181" stroke="#263238" stroke-miterlimit="10"/>
<path d="M254.029 186.711L258.341 183.376" stroke="#263238" stroke-width="0.5" stroke-miterlimit="10"/>
<path d="M254.239 186.895C253.689 186.888 253.147 186.764 252.65 186.53C252.152 186.296 251.711 185.958 251.356 185.538C250.576 184.667 248.649 180.067 250.268 179.641C252.03 179.156 255.484 183.868 254.239 186.895Z" fill="#318181" stroke="#263238" stroke-miterlimit="10"/>
<path d="M254.239 186.894L251.375 182.262" stroke="#263238" stroke-width="0.5" stroke-miterlimit="10"/>
<path d="M257.947 300H248.315L247.109 275.67H259.153L257.947 300Z" fill="#263238" stroke="#263238" stroke-miterlimit="10"/>
</svg>
