<svg width="284" height="26" viewBox="0 0 284 26" fill="none" xmlns="http://www.w3.org/2000/svg">
<path d="M0.42 16.92C0.56 16.9267 0.743333 16.9333 0.97 16.94C1.19667 16.9467 1.42 16.95 1.64 16.95C1.95333 16.95 2.25333 16.9467 2.54 16.94C2.82667 16.9333 3.03 16.93 3.15 16.93C3.95667 16.93 4.56 17.1133 4.96 17.48C5.36 17.8467 5.56 18.32 5.56 18.9C5.56 19.14 5.52 19.3933 5.44 19.66C5.36 19.92 5.22 20.1633 5.02 20.39C4.82667 20.61 4.56 20.79 4.22 20.93C3.88 21.07 3.45 21.14 2.93 21.14H1.97V20.94H2.83C3.30333 20.94 3.66333 20.85 3.91 20.67C4.16333 20.49 4.33333 20.2533 4.42 19.96C4.51333 19.6667 4.56 19.35 4.56 19.01C4.56 18.3767 4.43333 17.9033 4.18 17.59C3.93333 17.2767 3.50667 17.12 2.9 17.12C2.59333 17.12 2.39333 17.1767 2.3 17.29C2.20667 17.4033 2.16 17.6333 2.16 17.98V22.94C2.16 23.18 2.18333 23.36 2.23 23.48C2.28333 23.6 2.38333 23.68 2.53 23.72C2.67667 23.76 2.89 23.7867 3.17 23.8V24C2.99667 23.9867 2.77667 23.98 2.51 23.98C2.24333 23.9733 1.97333 23.97 1.7 23.97C1.44 23.97 1.19667 23.9733 0.97 23.98C0.743333 23.98 0.56 23.9867 0.42 24V23.8C0.646667 23.7867 0.816667 23.76 0.93 23.72C1.05 23.68 1.13 23.6 1.17 23.48C1.21 23.36 1.23 23.18 1.23 22.94V17.98C1.23 17.7333 1.21 17.5533 1.17 17.44C1.13 17.32 1.05 17.24 0.93 17.2C0.816667 17.1533 0.646667 17.1267 0.42 17.12V16.92ZM9.24961 18.71C9.42961 18.71 9.58628 18.7467 9.71961 18.82C9.85961 18.8933 9.96628 18.99 10.0396 19.11C10.1196 19.2233 10.1596 19.3533 10.1596 19.5C10.1596 19.6667 10.1063 19.8133 9.99961 19.94C9.89961 20.0667 9.76294 20.13 9.58961 20.13C9.44961 20.13 9.32628 20.0867 9.21961 20C9.11294 19.9067 9.05961 19.7767 9.05961 19.61C9.05961 19.4833 9.09294 19.3767 9.15961 19.29C9.23294 19.1967 9.31294 19.1233 9.39961 19.07C9.35294 19.0033 9.28294 18.97 9.18961 18.97C8.98294 18.97 8.79294 19.0333 8.61961 19.16C8.44628 19.28 8.29961 19.4367 8.17961 19.63C8.05961 19.8233 7.96628 20.03 7.89961 20.25C7.83294 20.4633 7.79961 20.6633 7.79961 20.85V22.97C7.79961 23.2967 7.89294 23.5167 8.07961 23.63C8.27294 23.7367 8.53294 23.79 8.85961 23.79V24C8.70628 23.9933 8.48961 23.9867 8.20961 23.98C7.92961 23.9667 7.63294 23.96 7.31961 23.96C7.09294 23.96 6.86628 23.9667 6.63961 23.98C6.41961 23.9867 6.25294 23.9933 6.13961 24V23.79C6.41294 23.79 6.60628 23.74 6.71961 23.64C6.83961 23.54 6.89961 23.35 6.89961 23.07V19.94C6.89961 19.64 6.84628 19.42 6.73961 19.28C6.63294 19.1333 6.43294 19.06 6.13961 19.06V18.85C6.35294 18.87 6.55961 18.88 6.75961 18.88C6.95294 18.88 7.13628 18.87 7.30961 18.85C7.48961 18.8233 7.65294 18.7867 7.79961 18.74V19.99C7.87294 19.7967 7.97628 19.6033 8.10961 19.41C8.24961 19.21 8.41628 19.0433 8.60961 18.91C8.80294 18.7767 9.01628 18.71 9.24961 18.71ZM12.8474 18.71C13.2741 18.71 13.6574 18.8033 13.9974 18.99C14.3374 19.1767 14.6074 19.47 14.8074 19.87C15.0141 20.27 15.1174 20.79 15.1174 21.43C15.1174 22.07 15.0141 22.59 14.8074 22.99C14.6074 23.3833 14.3374 23.6733 13.9974 23.86C13.6574 24.0467 13.2741 24.14 12.8474 24.14C12.4274 24.14 12.0441 24.0467 11.6974 23.86C11.3574 23.6733 11.0841 23.3833 10.8774 22.99C10.6774 22.59 10.5774 22.07 10.5774 21.43C10.5774 20.79 10.6774 20.27 10.8774 19.87C11.0841 19.47 11.3574 19.1767 11.6974 18.99C12.0441 18.8033 12.4274 18.71 12.8474 18.71ZM12.8474 18.91C12.4674 18.91 12.1541 19.1067 11.9074 19.5C11.6674 19.8933 11.5474 20.5367 11.5474 21.43C11.5474 22.3233 11.6674 22.9667 11.9074 23.36C12.1541 23.7467 12.4674 23.94 12.8474 23.94C13.2274 23.94 13.5374 23.7467 13.7774 23.36C14.0241 22.9667 14.1474 22.3233 14.1474 21.43C14.1474 20.5367 14.0241 19.8933 13.7774 19.5C13.5374 19.1067 13.2274 18.91 12.8474 18.91ZM19.2359 16.18C19.4226 16.18 19.5993 16.1933 19.7659 16.22C19.9326 16.2467 20.0859 16.2833 20.2259 16.33C20.3659 16.37 20.4826 16.42 20.5759 16.48C20.6826 16.5467 20.7659 16.6267 20.8259 16.72C20.8859 16.8067 20.9159 16.91 20.9159 17.03C20.9159 17.21 20.8526 17.3633 20.7259 17.49C20.5993 17.6167 20.4493 17.68 20.2759 17.68C20.1026 17.68 19.9526 17.6167 19.8259 17.49C19.6993 17.3633 19.6359 17.2133 19.6359 17.04C19.6359 16.92 19.6659 16.81 19.7259 16.71C19.7859 16.61 19.8659 16.5333 19.9659 16.48C19.8793 16.4267 19.7693 16.39 19.6359 16.37C19.5026 16.3433 19.3693 16.33 19.2359 16.33C18.8893 16.33 18.5993 16.4 18.3659 16.54C18.1326 16.68 17.9493 16.8667 17.8159 17.1C17.7226 17.2667 17.6526 17.48 17.6059 17.74C17.5659 18 17.5459 18.3733 17.5459 18.86H19.1559C19.4226 18.86 19.6526 18.8567 19.8459 18.85C20.0393 18.8433 20.2126 18.8333 20.3659 18.82C20.5193 18.8 20.6693 18.7733 20.8159 18.74V23.07C20.8159 23.35 20.8726 23.54 20.9859 23.64C21.1059 23.74 21.3026 23.79 21.5759 23.79V24C21.4626 23.9933 21.2893 23.9867 21.0559 23.98C20.8293 23.9667 20.5993 23.96 20.3659 23.96C20.1393 23.96 19.9093 23.9667 19.6759 23.98C19.4426 23.9867 19.2693 23.9933 19.1559 24V23.79C19.4293 23.79 19.6226 23.74 19.7359 23.64C19.8559 23.54 19.9159 23.35 19.9159 23.07V19.94C19.9159 19.64 19.8626 19.42 19.7559 19.28C19.6493 19.1333 19.4493 19.06 19.1559 19.06H17.5459V23.07C17.5459 23.3567 17.6226 23.55 17.7759 23.65C17.9293 23.7433 18.1393 23.79 18.4059 23.79V24C18.2726 23.9933 18.0826 23.9867 17.8359 23.98C17.5959 23.9667 17.3493 23.96 17.0959 23.96C16.8493 23.96 16.6126 23.9667 16.3859 23.98C16.1659 23.9867 15.9993 23.9933 15.8859 24V23.79C16.1593 23.79 16.3526 23.74 16.4659 23.64C16.5859 23.54 16.6459 23.35 16.6459 23.07V19.06H15.8459V18.86H16.6459C16.6459 18.4333 16.6993 18.05 16.8059 17.71C16.9193 17.37 17.1059 17.0767 17.3659 16.83C17.5593 16.65 17.8093 16.4967 18.1159 16.37C18.4226 16.2433 18.7959 16.18 19.2359 16.18ZM23.6769 16.16V23.07C23.6769 23.35 23.7335 23.54 23.8469 23.64C23.9669 23.74 24.1635 23.79 24.4369 23.79V24C24.3235 23.9933 24.1502 23.9867 23.9169 23.98C23.6902 23.9667 23.4602 23.96 23.2269 23.96C23.0002 23.96 22.7702 23.9667 22.5369 23.98C22.3035 23.9867 22.1302 23.9933 22.0169 24V23.79C22.2902 23.79 22.4835 23.74 22.5969 23.64C22.7169 23.54 22.7769 23.35 22.7769 23.07V17.36C22.7769 17.06 22.7235 16.84 22.6169 16.7C22.5102 16.5533 22.3102 16.48 22.0169 16.48V16.27C22.2302 16.29 22.4369 16.3 22.6369 16.3C22.8302 16.3 23.0135 16.29 23.1869 16.27C23.3669 16.2433 23.5302 16.2067 23.6769 16.16ZM27.2805 18.71C27.8672 18.71 28.3239 18.89 28.6505 19.25C28.9839 19.6033 29.1505 20.1567 29.1505 20.91H25.6205L25.6105 20.72H28.1905C28.2039 20.3933 28.1772 20.0933 28.1105 19.82C28.0439 19.54 27.9372 19.3167 27.7905 19.15C27.6505 18.9833 27.4672 18.9 27.2405 18.9C26.9339 18.9 26.6605 19.0533 26.4205 19.36C26.1872 19.6667 26.0472 20.1533 26.0005 20.82L26.0305 20.86C26.0172 20.96 26.0072 21.07 26.0005 21.19C25.9939 21.31 25.9905 21.43 25.9905 21.55C25.9905 22.0033 26.0639 22.3933 26.2105 22.72C26.3572 23.0467 26.5472 23.2967 26.7805 23.47C27.0205 23.6367 27.2672 23.72 27.5205 23.72C27.7205 23.72 27.9105 23.69 28.0905 23.63C28.2705 23.5633 28.4372 23.4567 28.5905 23.31C28.7439 23.1633 28.8772 22.9667 28.9905 22.72L29.1905 22.8C29.1172 23.02 28.9972 23.2333 28.8305 23.44C28.6639 23.6467 28.4539 23.8167 28.2005 23.95C27.9472 24.0767 27.6539 24.14 27.3205 24.14C26.8405 24.14 26.4272 24.03 26.0805 23.81C25.7405 23.59 25.4772 23.2867 25.2905 22.9C25.1105 22.5067 25.0205 22.0567 25.0205 21.55C25.0205 20.9633 25.1139 20.46 25.3005 20.04C25.4872 19.6133 25.7505 19.2867 26.0905 19.06C26.4305 18.8267 26.8272 18.71 27.2805 18.71Z" fill="#00744F"/>
<path d="M120.41 16.92C120.383 17.1533 120.363 17.38 120.35 17.6C120.343 17.82 120.34 17.9867 120.34 18.1C120.34 18.22 120.343 18.3367 120.35 18.45C120.357 18.5567 120.363 18.6467 120.37 18.72H120.14C120.1 18.3267 120.043 18.0167 119.97 17.79C119.897 17.5567 119.77 17.3933 119.59 17.3C119.417 17.2 119.153 17.15 118.8 17.15H117.97C117.743 17.15 117.57 17.17 117.45 17.21C117.337 17.2433 117.26 17.32 117.22 17.44C117.18 17.5533 117.16 17.7333 117.16 17.98V22.94C117.16 23.18 117.18 23.36 117.22 23.48C117.26 23.6 117.337 23.68 117.45 23.72C117.57 23.7533 117.743 23.77 117.97 23.77H118.7C119.12 23.77 119.437 23.7133 119.65 23.6C119.87 23.4867 120.027 23.3033 120.12 23.05C120.22 22.79 120.293 22.44 120.34 22H120.57C120.55 22.18 120.54 22.42 120.54 22.72C120.54 22.8467 120.543 23.03 120.55 23.27C120.563 23.5033 120.583 23.7467 120.61 24C120.27 23.9867 119.887 23.98 119.46 23.98C119.033 23.9733 118.653 23.97 118.32 23.97C118.173 23.97 117.983 23.97 117.75 23.97C117.523 23.97 117.277 23.9733 117.01 23.98C116.743 23.98 116.473 23.9833 116.2 23.99C115.927 23.99 115.667 23.9933 115.42 24V23.8C115.647 23.7867 115.817 23.76 115.93 23.72C116.05 23.68 116.13 23.6 116.17 23.48C116.21 23.36 116.23 23.18 116.23 22.94V17.98C116.23 17.7333 116.21 17.5533 116.17 17.44C116.13 17.32 116.05 17.24 115.93 17.2C115.817 17.1533 115.647 17.1267 115.42 17.12V16.92C115.667 16.9267 115.927 16.9333 116.2 16.94C116.473 16.94 116.743 16.9433 117.01 16.95C117.277 16.95 117.523 16.95 117.75 16.95C117.983 16.95 118.173 16.95 118.32 16.95C118.627 16.95 118.973 16.95 119.36 16.95C119.753 16.9433 120.103 16.9333 120.41 16.92ZM118.69 20.34C118.69 20.34 118.69 20.3733 118.69 20.44C118.69 20.5067 118.69 20.54 118.69 20.54H116.86C116.86 20.54 116.86 20.5067 116.86 20.44C116.86 20.3733 116.86 20.34 116.86 20.34H118.69ZM118.98 19.02C118.953 19.4 118.94 19.69 118.94 19.89C118.947 20.09 118.95 20.2733 118.95 20.44C118.95 20.6067 118.953 20.79 118.96 20.99C118.967 21.19 118.983 21.48 119.01 21.86H118.78C118.753 21.6467 118.72 21.44 118.68 21.24C118.647 21.0333 118.567 20.8667 118.44 20.74C118.32 20.6067 118.113 20.54 117.82 20.54V20.34C118.04 20.34 118.207 20.2967 118.32 20.21C118.44 20.1167 118.527 20 118.58 19.86C118.633 19.72 118.67 19.5767 118.69 19.43C118.71 19.2767 118.73 19.14 118.75 19.02H118.98ZM125.934 16.16V22.91C125.934 23.21 125.987 23.4333 126.094 23.58C126.207 23.72 126.407 23.79 126.694 23.79V24C126.487 23.98 126.28 23.97 126.074 23.97C125.88 23.97 125.694 23.98 125.514 24C125.34 24.02 125.18 24.0567 125.034 24.11V17.36C125.034 17.06 124.98 16.84 124.874 16.7C124.767 16.5533 124.567 16.48 124.274 16.48V16.27C124.487 16.29 124.694 16.3 124.894 16.3C125.087 16.3 125.27 16.29 125.444 16.27C125.624 16.2433 125.787 16.2067 125.934 16.16ZM123.834 18.71C124.127 18.71 124.4 18.78 124.654 18.92C124.914 19.06 125.087 19.3 125.174 19.64L125.044 19.74C124.95 19.46 124.804 19.2567 124.604 19.13C124.41 19.0033 124.18 18.94 123.914 18.94C123.52 18.94 123.19 19.1433 122.924 19.55C122.664 19.9567 122.537 20.5833 122.544 21.43C122.544 21.97 122.594 22.42 122.694 22.78C122.8 23.1333 122.954 23.4 123.154 23.58C123.36 23.7533 123.61 23.84 123.904 23.84C124.184 23.84 124.437 23.72 124.664 23.48C124.89 23.24 125.027 22.8867 125.074 22.42L125.194 22.56C125.14 23.0667 124.977 23.4567 124.704 23.73C124.437 24.0033 124.074 24.14 123.614 24.14C123.2 24.14 122.837 24.04 122.524 23.84C122.217 23.64 121.98 23.34 121.814 22.94C121.654 22.54 121.574 22.0367 121.574 21.43C121.574 20.8233 121.677 20.32 121.884 19.92C122.097 19.5133 122.374 19.21 122.714 19.01C123.06 18.81 123.434 18.71 123.834 18.71ZM131.734 18.74V22.92C131.734 23.22 131.788 23.4433 131.894 23.59C132.008 23.73 132.208 23.8 132.494 23.8V24.01C132.288 23.99 132.081 23.98 131.874 23.98C131.681 23.98 131.494 23.99 131.314 24.01C131.141 24.03 130.981 24.0667 130.834 24.12V22.94C130.668 23.3733 130.431 23.6833 130.124 23.87C129.824 24.05 129.514 24.14 129.194 24.14C128.961 24.14 128.758 24.1067 128.584 24.04C128.411 23.9733 128.268 23.88 128.154 23.76C128.028 23.6267 127.941 23.4533 127.894 23.24C127.848 23.0267 127.824 22.7633 127.824 22.45V19.94C127.824 19.64 127.771 19.42 127.664 19.28C127.558 19.1333 127.358 19.06 127.064 19.06V18.85C127.278 18.87 127.484 18.88 127.684 18.88C127.878 18.88 128.061 18.87 128.234 18.85C128.414 18.8233 128.578 18.7867 128.724 18.74V22.67C128.724 22.8767 128.738 23.0667 128.764 23.24C128.791 23.4133 128.858 23.5533 128.964 23.66C129.071 23.7667 129.244 23.82 129.484 23.82C129.744 23.82 129.974 23.74 130.174 23.58C130.381 23.42 130.541 23.2033 130.654 22.93C130.774 22.6567 130.834 22.35 130.834 22.01V19.94C130.834 19.64 130.781 19.42 130.674 19.28C130.568 19.1333 130.368 19.06 130.074 19.06V18.85C130.288 18.87 130.494 18.88 130.694 18.88C130.888 18.88 131.071 18.87 131.244 18.85C131.424 18.8233 131.588 18.7867 131.734 18.74ZM135.505 18.71C135.718 18.71 135.925 18.7367 136.125 18.79C136.325 18.8433 136.505 18.9233 136.665 19.03C136.818 19.13 136.935 19.2467 137.015 19.38C137.095 19.5067 137.135 19.6467 137.135 19.8C137.135 19.98 137.085 20.12 136.985 20.22C136.885 20.3133 136.758 20.36 136.605 20.36C136.458 20.36 136.328 20.3167 136.215 20.23C136.108 20.1433 136.055 20.02 136.055 19.86C136.055 19.7067 136.095 19.5833 136.175 19.49C136.262 19.3967 136.362 19.3367 136.475 19.31C136.408 19.19 136.288 19.09 136.115 19.01C135.948 18.93 135.768 18.89 135.575 18.89C135.408 18.89 135.242 18.93 135.075 19.01C134.908 19.09 134.755 19.2233 134.615 19.41C134.475 19.59 134.362 19.84 134.275 20.16C134.188 20.4733 134.145 20.8667 134.145 21.34C134.145 21.9267 134.212 22.3933 134.345 22.74C134.478 23.0867 134.652 23.3367 134.865 23.49C135.085 23.6367 135.325 23.71 135.585 23.71C135.758 23.71 135.935 23.6767 136.115 23.61C136.295 23.5433 136.465 23.4367 136.625 23.29C136.785 23.1367 136.922 22.9333 137.035 22.68L137.225 22.75C137.158 22.9633 137.048 23.18 136.895 23.4C136.742 23.6133 136.542 23.79 136.295 23.93C136.048 24.07 135.745 24.14 135.385 24.14C134.972 24.14 134.598 24.0333 134.265 23.82C133.932 23.6067 133.665 23.3033 133.465 22.91C133.272 22.51 133.175 22.0367 133.175 21.49C133.175 20.9433 133.272 20.4633 133.465 20.05C133.665 19.63 133.942 19.3033 134.295 19.07C134.648 18.83 135.052 18.71 135.505 18.71ZM139.288 24.07C139.015 24.07 138.778 24.02 138.578 23.92C138.378 23.8133 138.225 23.6667 138.118 23.48C138.018 23.2933 137.968 23.0767 137.968 22.83C137.968 22.5367 138.035 22.2967 138.168 22.11C138.308 21.9233 138.485 21.7733 138.698 21.66C138.911 21.5467 139.135 21.4533 139.368 21.38C139.608 21.3 139.835 21.2267 140.048 21.16C140.261 21.0867 140.435 21.0033 140.568 20.91C140.708 20.8167 140.778 20.6933 140.778 20.54V19.92C140.778 19.64 140.735 19.4267 140.648 19.28C140.568 19.1333 140.458 19.0367 140.318 18.99C140.178 18.9367 140.021 18.91 139.848 18.91C139.681 18.91 139.501 18.9333 139.308 18.98C139.121 19.0267 138.971 19.1233 138.858 19.27C138.985 19.2967 139.095 19.3633 139.188 19.47C139.281 19.5767 139.328 19.7133 139.328 19.88C139.328 20.0467 139.275 20.18 139.168 20.28C139.061 20.3733 138.925 20.42 138.758 20.42C138.565 20.42 138.421 20.36 138.328 20.24C138.241 20.1133 138.198 19.9733 138.198 19.82C138.198 19.6467 138.241 19.5067 138.328 19.4C138.415 19.2933 138.525 19.1933 138.658 19.1C138.811 18.9933 139.008 18.9033 139.248 18.83C139.495 18.75 139.771 18.71 140.078 18.71C140.351 18.71 140.585 18.7433 140.778 18.81C140.971 18.87 141.131 18.96 141.258 19.08C141.431 19.24 141.545 19.4367 141.598 19.67C141.651 19.8967 141.678 20.17 141.678 20.49V23.27C141.678 23.4367 141.701 23.5567 141.748 23.63C141.801 23.7033 141.881 23.74 141.988 23.74C142.061 23.74 142.131 23.7233 142.198 23.69C142.265 23.6567 142.345 23.6033 142.438 23.53L142.548 23.7C142.408 23.8067 142.275 23.8967 142.148 23.97C142.021 24.0367 141.851 24.07 141.638 24.07C141.445 24.07 141.285 24.0367 141.158 23.97C141.031 23.9033 140.935 23.8067 140.868 23.68C140.808 23.5467 140.778 23.38 140.778 23.18C140.598 23.48 140.381 23.7033 140.128 23.85C139.881 23.9967 139.601 24.07 139.288 24.07ZM139.648 23.67C139.868 23.67 140.071 23.6067 140.258 23.48C140.451 23.3533 140.625 23.1633 140.778 22.91V20.95C140.698 21.0633 140.581 21.16 140.428 21.24C140.275 21.3133 140.108 21.39 139.928 21.47C139.748 21.5433 139.575 21.6333 139.408 21.74C139.248 21.84 139.115 21.9733 139.008 22.14C138.901 22.3067 138.848 22.5233 138.848 22.79C138.848 23.0567 138.918 23.27 139.058 23.43C139.205 23.59 139.401 23.67 139.648 23.67ZM144.459 17.19V18.86H145.939V19.06H144.459V22.93C144.459 23.2433 144.515 23.4633 144.629 23.59C144.742 23.7167 144.899 23.78 145.099 23.78C145.299 23.78 145.472 23.7 145.619 23.54C145.765 23.3733 145.892 23.0967 145.999 22.71L146.199 22.76C146.132 23.1467 145.999 23.4733 145.799 23.74C145.605 24.0067 145.305 24.14 144.899 24.14C144.672 24.14 144.485 24.11 144.339 24.05C144.192 23.9967 144.062 23.9167 143.949 23.81C143.802 23.6567 143.699 23.4733 143.639 23.26C143.585 23.0467 143.559 22.7633 143.559 22.41V19.06H142.599V18.86H143.559V17.33C143.725 17.3233 143.885 17.31 144.039 17.29C144.192 17.27 144.332 17.2367 144.459 17.19ZM147.524 16.35C147.697 16.35 147.847 16.4133 147.974 16.54C148.1 16.6667 148.164 16.8167 148.164 16.99C148.164 17.1633 148.1 17.3133 147.974 17.44C147.847 17.5667 147.697 17.63 147.524 17.63C147.35 17.63 147.2 17.5667 147.074 17.44C146.947 17.3133 146.884 17.1633 146.884 16.99C146.884 16.8167 146.947 16.6667 147.074 16.54C147.2 16.4133 147.35 16.35 147.524 16.35ZM148.044 18.74V23.07C148.044 23.35 148.1 23.54 148.214 23.64C148.334 23.74 148.53 23.79 148.804 23.79V24C148.69 23.9933 148.517 23.9867 148.284 23.98C148.057 23.9667 147.827 23.96 147.594 23.96C147.367 23.96 147.137 23.9667 146.904 23.98C146.67 23.9867 146.497 23.9933 146.384 24V23.79C146.657 23.79 146.85 23.74 146.964 23.64C147.084 23.54 147.144 23.35 147.144 23.07V19.94C147.144 19.64 147.09 19.42 146.984 19.28C146.877 19.1333 146.677 19.06 146.384 19.06V18.85C146.597 18.87 146.804 18.88 147.004 18.88C147.197 18.88 147.38 18.87 147.554 18.85C147.734 18.8233 147.897 18.7867 148.044 18.74ZM151.763 18.71C152.19 18.71 152.573 18.8033 152.913 18.99C153.253 19.1767 153.523 19.47 153.723 19.87C153.93 20.27 154.033 20.79 154.033 21.43C154.033 22.07 153.93 22.59 153.723 22.99C153.523 23.3833 153.253 23.6733 152.913 23.86C152.573 24.0467 152.19 24.14 151.763 24.14C151.343 24.14 150.96 24.0467 150.613 23.86C150.273 23.6733 150 23.3833 149.793 22.99C149.593 22.59 149.493 22.07 149.493 21.43C149.493 20.79 149.593 20.27 149.793 19.87C150 19.47 150.273 19.1767 150.613 18.99C150.96 18.8033 151.343 18.71 151.763 18.71ZM151.763 18.91C151.383 18.91 151.07 19.1067 150.823 19.5C150.583 19.8933 150.463 20.5367 150.463 21.43C150.463 22.3233 150.583 22.9667 150.823 23.36C151.07 23.7467 151.383 23.94 151.763 23.94C152.143 23.94 152.453 23.7467 152.693 23.36C152.94 22.9667 153.063 22.3233 153.063 21.43C153.063 20.5367 152.94 19.8933 152.693 19.5C152.453 19.1067 152.143 18.91 151.763 18.91ZM158.152 18.71C158.405 18.71 158.615 18.7433 158.782 18.81C158.955 18.8767 159.099 18.97 159.212 19.09C159.339 19.2233 159.429 19.39 159.482 19.59C159.535 19.79 159.562 20.06 159.562 20.4V23.07C159.562 23.35 159.619 23.54 159.732 23.64C159.852 23.74 160.049 23.79 160.322 23.79V24C160.209 23.9933 160.035 23.9867 159.802 23.98C159.569 23.9667 159.342 23.96 159.122 23.96C158.902 23.96 158.685 23.9667 158.472 23.98C158.265 23.9867 158.109 23.9933 158.002 24V23.79C158.242 23.79 158.412 23.74 158.512 23.64C158.612 23.54 158.662 23.35 158.662 23.07V20.18C158.662 19.9733 158.645 19.7833 158.612 19.61C158.579 19.4367 158.502 19.2967 158.382 19.19C158.269 19.0833 158.092 19.03 157.852 19.03C157.572 19.03 157.325 19.11 157.112 19.27C156.905 19.43 156.742 19.65 156.622 19.93C156.509 20.2033 156.452 20.51 156.452 20.85V23.07C156.452 23.35 156.502 23.54 156.602 23.64C156.702 23.74 156.872 23.79 157.112 23.79V24C157.005 23.9933 156.845 23.9867 156.632 23.98C156.425 23.9667 156.212 23.96 155.992 23.96C155.772 23.96 155.545 23.9667 155.312 23.98C155.079 23.9867 154.905 23.9933 154.792 24V23.79C155.065 23.79 155.259 23.74 155.372 23.64C155.492 23.54 155.552 23.35 155.552 23.07V19.94C155.552 19.64 155.499 19.42 155.392 19.28C155.285 19.1333 155.085 19.06 154.792 19.06V18.85C155.005 18.87 155.212 18.88 155.412 18.88C155.605 18.88 155.789 18.87 155.962 18.85C156.142 18.8233 156.305 18.7867 156.452 18.74V19.92C156.625 19.4667 156.865 19.1533 157.172 18.98C157.485 18.8 157.812 18.71 158.152 18.71Z" fill="#318181"/>
<path d="M245.97 16.92V17.12C245.743 17.1267 245.57 17.1533 245.45 17.2C245.337 17.24 245.26 17.32 245.22 17.44C245.18 17.5533 245.16 17.7333 245.16 17.98V22.94C245.16 23.18 245.18 23.36 245.22 23.48C245.26 23.6 245.337 23.68 245.45 23.72C245.57 23.76 245.743 23.7867 245.97 23.8V24C245.817 23.9867 245.623 23.98 245.39 23.98C245.163 23.9733 244.933 23.97 244.7 23.97C244.44 23.97 244.197 23.9733 243.97 23.98C243.743 23.98 243.56 23.9867 243.42 24V23.8C243.647 23.7867 243.817 23.76 243.93 23.72C244.05 23.68 244.13 23.6 244.17 23.48C244.21 23.36 244.23 23.18 244.23 22.94V17.98C244.23 17.7333 244.21 17.5533 244.17 17.44C244.13 17.32 244.05 17.24 243.93 17.2C243.817 17.1533 243.647 17.1267 243.42 17.12V16.92C243.56 16.9267 243.743 16.9333 243.97 16.94C244.197 16.9467 244.44 16.95 244.7 16.95C244.933 16.95 245.163 16.9467 245.39 16.94C245.623 16.9333 245.817 16.9267 245.97 16.92ZM250.039 18.71C250.292 18.71 250.502 18.7433 250.669 18.81C250.842 18.8767 250.985 18.97 251.099 19.09C251.225 19.2233 251.315 19.39 251.369 19.59C251.422 19.79 251.449 20.06 251.449 20.4V23.07C251.449 23.35 251.505 23.54 251.619 23.64C251.739 23.74 251.935 23.79 252.209 23.79V24C252.095 23.9933 251.922 23.9867 251.689 23.98C251.455 23.9667 251.229 23.96 251.009 23.96C250.789 23.96 250.572 23.9667 250.359 23.98C250.152 23.9867 249.995 23.9933 249.889 24V23.79C250.129 23.79 250.299 23.74 250.399 23.64C250.499 23.54 250.549 23.35 250.549 23.07V20.18C250.549 19.9733 250.532 19.7833 250.499 19.61C250.465 19.4367 250.389 19.2967 250.269 19.19C250.155 19.0833 249.979 19.03 249.739 19.03C249.459 19.03 249.212 19.11 248.999 19.27C248.792 19.43 248.629 19.65 248.509 19.93C248.395 20.2033 248.339 20.51 248.339 20.85V23.07C248.339 23.35 248.389 23.54 248.489 23.64C248.589 23.74 248.759 23.79 248.999 23.79V24C248.892 23.9933 248.732 23.9867 248.519 23.98C248.312 23.9667 248.099 23.96 247.879 23.96C247.659 23.96 247.432 23.9667 247.199 23.98C246.965 23.9867 246.792 23.9933 246.679 24V23.79C246.952 23.79 247.145 23.74 247.259 23.64C247.379 23.54 247.439 23.35 247.439 23.07V19.94C247.439 19.64 247.385 19.42 247.279 19.28C247.172 19.1333 246.972 19.06 246.679 19.06V18.85C246.892 18.87 247.099 18.88 247.299 18.88C247.492 18.88 247.675 18.87 247.849 18.85C248.029 18.8233 248.192 18.7867 248.339 18.74V19.92C248.512 19.4667 248.752 19.1533 249.059 18.98C249.372 18.8 249.699 18.71 250.039 18.71ZM254.255 17.19V18.86H255.735V19.06H254.255V22.93C254.255 23.2433 254.312 23.4633 254.425 23.59C254.539 23.7167 254.695 23.78 254.895 23.78C255.095 23.78 255.269 23.7 255.415 23.54C255.562 23.3733 255.689 23.0967 255.795 22.71L255.995 22.76C255.929 23.1467 255.795 23.4733 255.595 23.74C255.402 24.0067 255.102 24.14 254.695 24.14C254.469 24.14 254.282 24.11 254.135 24.05C253.989 23.9967 253.859 23.9167 253.745 23.81C253.599 23.6567 253.495 23.4733 253.435 23.26C253.382 23.0467 253.355 22.7633 253.355 22.41V19.06H252.395V18.86H253.355V17.33C253.522 17.3233 253.682 17.31 253.835 17.29C253.989 17.27 254.129 17.2367 254.255 17.19ZM258.611 18.71C259.197 18.71 259.654 18.89 259.981 19.25C260.314 19.6033 260.481 20.1567 260.481 20.91H256.951L256.941 20.72H259.521C259.534 20.3933 259.507 20.0933 259.441 19.82C259.374 19.54 259.267 19.3167 259.121 19.15C258.981 18.9833 258.797 18.9 258.571 18.9C258.264 18.9 257.991 19.0533 257.751 19.36C257.517 19.6667 257.377 20.1533 257.331 20.82L257.361 20.86C257.347 20.96 257.337 21.07 257.331 21.19C257.324 21.31 257.321 21.43 257.321 21.55C257.321 22.0033 257.394 22.3933 257.541 22.72C257.687 23.0467 257.877 23.2967 258.111 23.47C258.351 23.6367 258.597 23.72 258.851 23.72C259.051 23.72 259.241 23.69 259.421 23.63C259.601 23.5633 259.767 23.4567 259.921 23.31C260.074 23.1633 260.207 22.9667 260.321 22.72L260.521 22.8C260.447 23.02 260.327 23.2333 260.161 23.44C259.994 23.6467 259.784 23.8167 259.531 23.95C259.277 24.0767 258.984 24.14 258.651 24.14C258.171 24.14 257.757 24.03 257.411 23.81C257.071 23.59 256.807 23.2867 256.621 22.9C256.441 22.5067 256.351 22.0567 256.351 21.55C256.351 20.9633 256.444 20.46 256.631 20.04C256.817 19.6133 257.081 19.2867 257.421 19.06C257.761 18.8267 258.157 18.71 258.611 18.71ZM264.349 18.71C264.529 18.71 264.686 18.7467 264.819 18.82C264.959 18.8933 265.066 18.99 265.139 19.11C265.219 19.2233 265.259 19.3533 265.259 19.5C265.259 19.6667 265.206 19.8133 265.099 19.94C264.999 20.0667 264.863 20.13 264.689 20.13C264.549 20.13 264.426 20.0867 264.319 20C264.213 19.9067 264.159 19.7767 264.159 19.61C264.159 19.4833 264.193 19.3767 264.259 19.29C264.333 19.1967 264.413 19.1233 264.499 19.07C264.453 19.0033 264.383 18.97 264.289 18.97C264.083 18.97 263.893 19.0333 263.719 19.16C263.546 19.28 263.399 19.4367 263.279 19.63C263.159 19.8233 263.066 20.03 262.999 20.25C262.933 20.4633 262.899 20.6633 262.899 20.85V22.97C262.899 23.2967 262.993 23.5167 263.179 23.63C263.373 23.7367 263.633 23.79 263.959 23.79V24C263.806 23.9933 263.589 23.9867 263.309 23.98C263.029 23.9667 262.733 23.96 262.419 23.96C262.193 23.96 261.966 23.9667 261.739 23.98C261.519 23.9867 261.353 23.9933 261.239 24V23.79C261.513 23.79 261.706 23.74 261.819 23.64C261.939 23.54 261.999 23.35 261.999 23.07V19.94C261.999 19.64 261.946 19.42 261.839 19.28C261.733 19.1333 261.533 19.06 261.239 19.06V18.85C261.453 18.87 261.659 18.88 261.859 18.88C262.053 18.88 262.236 18.87 262.409 18.85C262.589 18.8233 262.753 18.7867 262.899 18.74V19.99C262.973 19.7967 263.076 19.6033 263.209 19.41C263.349 19.21 263.516 19.0433 263.709 18.91C263.903 18.7767 264.116 18.71 264.349 18.71ZM267.927 18.71C268.514 18.71 268.97 18.89 269.297 19.25C269.63 19.6033 269.797 20.1567 269.797 20.91H266.267L266.257 20.72H268.837C268.85 20.3933 268.824 20.0933 268.757 19.82C268.69 19.54 268.584 19.3167 268.437 19.15C268.297 18.9833 268.114 18.9 267.887 18.9C267.58 18.9 267.307 19.0533 267.067 19.36C266.834 19.6667 266.694 20.1533 266.647 20.82L266.677 20.86C266.664 20.96 266.654 21.07 266.647 21.19C266.64 21.31 266.637 21.43 266.637 21.55C266.637 22.0033 266.71 22.3933 266.857 22.72C267.004 23.0467 267.194 23.2967 267.427 23.47C267.667 23.6367 267.914 23.72 268.167 23.72C268.367 23.72 268.557 23.69 268.737 23.63C268.917 23.5633 269.084 23.4567 269.237 23.31C269.39 23.1633 269.524 22.9667 269.637 22.72L269.837 22.8C269.764 23.02 269.644 23.2333 269.477 23.44C269.31 23.6467 269.1 23.8167 268.847 23.95C268.594 24.0767 268.3 24.14 267.967 24.14C267.487 24.14 267.074 24.03 266.727 23.81C266.387 23.59 266.124 23.2867 265.937 22.9C265.757 22.5067 265.667 22.0567 265.667 21.55C265.667 20.9633 265.76 20.46 265.947 20.04C266.134 19.6133 266.397 19.2867 266.737 19.06C267.077 18.8267 267.474 18.71 267.927 18.71ZM272.346 18.71C272.612 18.71 272.839 18.7533 273.026 18.84C273.212 18.9267 273.349 19.0067 273.436 19.08C273.656 19.26 273.789 19.14 273.836 18.72H274.066C274.052 18.9067 274.042 19.13 274.036 19.39C274.029 19.6433 274.026 19.9867 274.026 20.42H273.796C273.756 20.1733 273.686 19.9333 273.586 19.7C273.492 19.4667 273.352 19.2767 273.166 19.13C272.979 18.9767 272.736 18.9 272.436 18.9C272.202 18.9 272.006 18.9667 271.846 19.1C271.692 19.2267 271.616 19.4167 271.616 19.67C271.616 19.87 271.676 20.0433 271.796 20.19C271.916 20.33 272.072 20.4633 272.266 20.59C272.459 20.71 272.669 20.8433 272.896 20.99C273.149 21.15 273.379 21.3133 273.586 21.48C273.792 21.6467 273.956 21.83 274.076 22.03C274.202 22.23 274.266 22.4667 274.266 22.74C274.266 23.0467 274.186 23.3033 274.026 23.51C273.866 23.7167 273.656 23.8733 273.396 23.98C273.142 24.0867 272.862 24.14 272.556 24.14C272.409 24.14 272.269 24.1267 272.136 24.1C272.009 24.08 271.886 24.0467 271.766 24C271.699 23.9667 271.629 23.9267 271.556 23.88C271.489 23.8333 271.422 23.7833 271.356 23.73C271.289 23.6767 271.229 23.68 271.176 23.74C271.122 23.7933 271.082 23.9033 271.056 24.07H270.826C270.839 23.8567 270.849 23.5967 270.856 23.29C270.862 22.9833 270.866 22.5767 270.866 22.07H271.096C271.142 22.4433 271.209 22.77 271.296 23.05C271.382 23.33 271.519 23.55 271.706 23.71C271.892 23.8633 272.152 23.94 272.486 23.94C272.619 23.94 272.752 23.91 272.886 23.85C273.026 23.79 273.142 23.69 273.236 23.55C273.329 23.41 273.376 23.2233 273.376 22.99C273.376 22.6967 273.269 22.4567 273.056 22.27C272.842 22.0833 272.572 21.8867 272.246 21.68C272.006 21.5267 271.779 21.3733 271.566 21.22C271.359 21.0667 271.189 20.8933 271.056 20.7C270.929 20.5067 270.866 20.2733 270.866 20C270.866 19.7 270.932 19.4567 271.066 19.27C271.206 19.0767 271.389 18.9367 271.616 18.85C271.842 18.7567 272.086 18.71 272.346 18.71ZM276.638 17.19V18.86H278.118V19.06H276.638V22.93C276.638 23.2433 276.695 23.4633 276.808 23.59C276.922 23.7167 277.078 23.78 277.278 23.78C277.478 23.78 277.652 23.7 277.798 23.54C277.945 23.3733 278.072 23.0967 278.178 22.71L278.378 22.76C278.312 23.1467 278.178 23.4733 277.978 23.74C277.785 24.0067 277.485 24.14 277.078 24.14C276.852 24.14 276.665 24.11 276.518 24.05C276.372 23.9967 276.242 23.9167 276.128 23.81C275.982 23.6567 275.878 23.4733 275.818 23.26C275.765 23.0467 275.738 22.7633 275.738 22.41V19.06H274.778V18.86H275.738V17.33C275.905 17.3233 276.065 17.31 276.218 17.29C276.372 17.27 276.512 17.2367 276.638 17.19ZM280.353 18.71C280.62 18.71 280.847 18.7533 281.033 18.84C281.22 18.9267 281.357 19.0067 281.443 19.08C281.663 19.26 281.797 19.14 281.843 18.72H282.073C282.06 18.9067 282.05 19.13 282.043 19.39C282.037 19.6433 282.033 19.9867 282.033 20.42H281.803C281.763 20.1733 281.693 19.9333 281.593 19.7C281.5 19.4667 281.36 19.2767 281.173 19.13C280.987 18.9767 280.743 18.9 280.443 18.9C280.21 18.9 280.013 18.9667 279.853 19.1C279.7 19.2267 279.623 19.4167 279.623 19.67C279.623 19.87 279.683 20.0433 279.803 20.19C279.923 20.33 280.08 20.4633 280.273 20.59C280.467 20.71 280.677 20.8433 280.903 20.99C281.157 21.15 281.387 21.3133 281.593 21.48C281.8 21.6467 281.963 21.83 282.083 22.03C282.21 22.23 282.273 22.4667 282.273 22.74C282.273 23.0467 282.193 23.3033 282.033 23.51C281.873 23.7167 281.663 23.8733 281.403 23.98C281.15 24.0867 280.87 24.14 280.563 24.14C280.417 24.14 280.277 24.1267 280.143 24.1C280.017 24.08 279.893 24.0467 279.773 24C279.707 23.9667 279.637 23.9267 279.563 23.88C279.497 23.8333 279.43 23.7833 279.363 23.73C279.297 23.6767 279.237 23.68 279.183 23.74C279.13 23.7933 279.09 23.9033 279.063 24.07H278.833C278.847 23.8567 278.857 23.5967 278.863 23.29C278.87 22.9833 278.873 22.5767 278.873 22.07H279.103C279.15 22.4433 279.217 22.77 279.303 23.05C279.39 23.33 279.527 23.55 279.713 23.71C279.9 23.8633 280.16 23.94 280.493 23.94C280.627 23.94 280.76 23.91 280.893 23.85C281.033 23.79 281.15 23.69 281.243 23.55C281.337 23.41 281.383 23.2233 281.383 22.99C281.383 22.6967 281.277 22.4567 281.063 22.27C280.85 22.0833 280.58 21.8867 280.253 21.68C280.013 21.5267 279.787 21.3733 279.573 21.22C279.367 21.0667 279.197 20.8933 279.063 20.7C278.937 20.5067 278.873 20.2733 278.873 20C278.873 19.7 278.94 19.4567 279.073 19.27C279.213 19.0767 279.397 18.9367 279.623 18.85C279.85 18.7567 280.093 18.71 280.353 18.71Z" fill="black" fill-opacity="0.7"/>
<rect x="9.5" y="0.5" width="9" height="9" rx="4.5" fill="#318181"/>
<rect x="9.5" y="0.5" width="9" height="9" rx="4.5" stroke="#318181"/>
<mask id="path-5-inside-1_269_494" fill="white">
<path d="M13.0096 7L11 4.65189L11.2887 4.31503L13.0096 6.32581L16.7117 2L17 2.33733L13.0096 7Z"/>
</mask>
<path d="M13.0096 7L11 4.65189L11.2887 4.31503L13.0096 6.32581L16.7117 2L17 2.33733L13.0096 7Z" fill="white"/>
<path d="M13.0096 7L-38.6535 51.2146L13.0096 111.581L64.6726 51.2146L13.0096 7ZM11 4.65189L-40.6324 -39.5984L-78.5296 4.6209L-40.6631 48.8665L11 4.65189ZM11.2887 4.31503L62.9518 -39.8995L11.3249 -100.224L-40.3437 -39.9353L11.2887 4.31503ZM13.0096 6.32581L-38.6535 50.5404L13.0096 110.907L64.6726 50.5404L13.0096 6.32581ZM16.7117 2L68.4053 -42.1788L16.7479 -102.623L-34.9514 -42.2146L16.7117 2ZM17 2.33733L68.6631 46.5519L106.477 2.36827L68.6936 -41.8415L17 2.33733ZM64.6726 -37.2146L62.6631 -39.5627L-40.6631 48.8665L-38.6535 51.2146L64.6726 -37.2146ZM62.6324 48.9022L62.9211 48.5654L-40.3437 -39.9353L-40.6324 -39.5984L62.6324 48.9022ZM-40.3744 48.5296L-38.6535 50.5404L64.6726 -37.8888L62.9518 -39.8995L-40.3744 48.5296ZM64.6726 50.5404L68.3748 46.2146L-34.9514 -42.2146L-38.6535 -37.8888L64.6726 50.5404ZM-34.9819 46.1788L-34.6936 46.5162L68.6936 -41.8415L68.4053 -42.1788L-34.9819 46.1788ZM-34.6631 -41.8772L-38.6535 -37.2146L64.6726 51.2146L68.6631 46.5519L-34.6631 -41.8772Z" fill="white" mask="url(#path-5-inside-1_269_494)"/>
<circle cx="138.393" cy="5" r="4.5" fill="white" stroke="#318181"/>
<circle cx="262.785" cy="5" r="5" fill="white"/>
<circle cx="262.785" cy="5" r="4.5" stroke="black" stroke-opacity="0.7"/>
<line x1="23" y1="5.5" x2="128" y2="5.49999" stroke="#318181"/>
<line x1="149" y1="5.5" x2="254" y2="5.5" stroke="black" stroke-opacity="0.7"/>
</svg>
