<svg width="285" height="26" viewBox="0 0 285 26" fill="none" xmlns="http://www.w3.org/2000/svg">
<path d="M0.92 16.92C1.06 16.9267 1.24333 16.9333 1.47 16.94C1.69667 16.9467 1.92 16.95 2.14 16.95C2.45333 16.95 2.75333 16.9467 3.04 16.94C3.32667 16.9333 3.53 16.93 3.65 16.93C4.45667 16.93 5.06 17.1133 5.46 17.48C5.86 17.8467 6.06 18.32 6.06 18.9C6.06 19.14 6.02 19.3933 5.94 19.66C5.86 19.92 5.72 20.1633 5.52 20.39C5.32667 20.61 5.06 20.79 4.72 20.93C4.38 21.07 3.95 21.14 3.43 21.14H2.47V20.94H3.33C3.80333 20.94 4.16333 20.85 4.41 20.67C4.66333 20.49 4.83333 20.2533 4.92 19.96C5.01333 19.6667 5.06 19.35 5.06 19.01C5.06 18.3767 4.93333 17.9033 4.68 17.59C4.43333 17.2767 4.00667 17.12 3.4 17.12C3.09333 17.12 2.89333 17.1767 2.8 17.29C2.70667 17.4033 2.66 17.6333 2.66 17.98V22.94C2.66 23.18 2.68333 23.36 2.73 23.48C2.78333 23.6 2.88333 23.68 3.03 23.72C3.17667 23.76 3.39 23.7867 3.67 23.8V24C3.49667 23.9867 3.27667 23.98 3.01 23.98C2.74333 23.9733 2.47333 23.97 2.2 23.97C1.94 23.97 1.69667 23.9733 1.47 23.98C1.24333 23.98 1.06 23.9867 0.92 24V23.8C1.14667 23.7867 1.31667 23.76 1.43 23.72C1.55 23.68 1.63 23.6 1.67 23.48C1.71 23.36 1.73 23.18 1.73 22.94V17.98C1.73 17.7333 1.71 17.5533 1.67 17.44C1.63 17.32 1.55 17.24 1.43 17.2C1.31667 17.1533 1.14667 17.1267 0.92 17.12V16.92ZM9.74961 18.71C9.92961 18.71 10.0863 18.7467 10.2196 18.82C10.3596 18.8933 10.4663 18.99 10.5396 19.11C10.6196 19.2233 10.6596 19.3533 10.6596 19.5C10.6596 19.6667 10.6063 19.8133 10.4996 19.94C10.3996 20.0667 10.2629 20.13 10.0896 20.13C9.94961 20.13 9.82628 20.0867 9.71961 20C9.61294 19.9067 9.55961 19.7767 9.55961 19.61C9.55961 19.4833 9.59294 19.3767 9.65961 19.29C9.73294 19.1967 9.81294 19.1233 9.89961 19.07C9.85294 19.0033 9.78294 18.97 9.68961 18.97C9.48294 18.97 9.29294 19.0333 9.11961 19.16C8.94628 19.28 8.79961 19.4367 8.67961 19.63C8.55961 19.8233 8.46628 20.03 8.39961 20.25C8.33294 20.4633 8.29961 20.6633 8.29961 20.85V22.97C8.29961 23.2967 8.39294 23.5167 8.57961 23.63C8.77294 23.7367 9.03294 23.79 9.35961 23.79V24C9.20628 23.9933 8.98961 23.9867 8.70961 23.98C8.42961 23.9667 8.13294 23.96 7.81961 23.96C7.59294 23.96 7.36628 23.9667 7.13961 23.98C6.91961 23.9867 6.75294 23.9933 6.63961 24V23.79C6.91294 23.79 7.10628 23.74 7.21961 23.64C7.33961 23.54 7.39961 23.35 7.39961 23.07V19.94C7.39961 19.64 7.34628 19.42 7.23961 19.28C7.13294 19.1333 6.93294 19.06 6.63961 19.06V18.85C6.85294 18.87 7.05961 18.88 7.25961 18.88C7.45294 18.88 7.63628 18.87 7.80961 18.85C7.98961 18.8233 8.15294 18.7867 8.29961 18.74V19.99C8.37294 19.7967 8.47628 19.6033 8.60961 19.41C8.74961 19.21 8.91628 19.0433 9.10961 18.91C9.30294 18.7767 9.51628 18.71 9.74961 18.71ZM13.3474 18.71C13.7741 18.71 14.1574 18.8033 14.4974 18.99C14.8374 19.1767 15.1074 19.47 15.3074 19.87C15.5141 20.27 15.6174 20.79 15.6174 21.43C15.6174 22.07 15.5141 22.59 15.3074 22.99C15.1074 23.3833 14.8374 23.6733 14.4974 23.86C14.1574 24.0467 13.7741 24.14 13.3474 24.14C12.9274 24.14 12.5441 24.0467 12.1974 23.86C11.8574 23.6733 11.5841 23.3833 11.3774 22.99C11.1774 22.59 11.0774 22.07 11.0774 21.43C11.0774 20.79 11.1774 20.27 11.3774 19.87C11.5841 19.47 11.8574 19.1767 12.1974 18.99C12.5441 18.8033 12.9274 18.71 13.3474 18.71ZM13.3474 18.91C12.9674 18.91 12.6541 19.1067 12.4074 19.5C12.1674 19.8933 12.0474 20.5367 12.0474 21.43C12.0474 22.3233 12.1674 22.9667 12.4074 23.36C12.6541 23.7467 12.9674 23.94 13.3474 23.94C13.7274 23.94 14.0374 23.7467 14.2774 23.36C14.5241 22.9667 14.6474 22.3233 14.6474 21.43C14.6474 20.5367 14.5241 19.8933 14.2774 19.5C14.0374 19.1067 13.7274 18.91 13.3474 18.91ZM19.7359 16.18C19.9226 16.18 20.0993 16.1933 20.2659 16.22C20.4326 16.2467 20.5859 16.2833 20.7259 16.33C20.8659 16.37 20.9826 16.42 21.0759 16.48C21.1826 16.5467 21.2659 16.6267 21.3259 16.72C21.3859 16.8067 21.4159 16.91 21.4159 17.03C21.4159 17.21 21.3526 17.3633 21.2259 17.49C21.0993 17.6167 20.9493 17.68 20.7759 17.68C20.6026 17.68 20.4526 17.6167 20.3259 17.49C20.1993 17.3633 20.1359 17.2133 20.1359 17.04C20.1359 16.92 20.1659 16.81 20.2259 16.71C20.2859 16.61 20.3659 16.5333 20.4659 16.48C20.3793 16.4267 20.2693 16.39 20.1359 16.37C20.0026 16.3433 19.8693 16.33 19.7359 16.33C19.3893 16.33 19.0993 16.4 18.8659 16.54C18.6326 16.68 18.4493 16.8667 18.3159 17.1C18.2226 17.2667 18.1526 17.48 18.1059 17.74C18.0659 18 18.0459 18.3733 18.0459 18.86H19.6559C19.9226 18.86 20.1526 18.8567 20.3459 18.85C20.5393 18.8433 20.7126 18.8333 20.8659 18.82C21.0193 18.8 21.1693 18.7733 21.3159 18.74V23.07C21.3159 23.35 21.3726 23.54 21.4859 23.64C21.6059 23.74 21.8026 23.79 22.0759 23.79V24C21.9626 23.9933 21.7893 23.9867 21.5559 23.98C21.3293 23.9667 21.0993 23.96 20.8659 23.96C20.6393 23.96 20.4093 23.9667 20.1759 23.98C19.9426 23.9867 19.7693 23.9933 19.6559 24V23.79C19.9293 23.79 20.1226 23.74 20.2359 23.64C20.3559 23.54 20.4159 23.35 20.4159 23.07V19.94C20.4159 19.64 20.3626 19.42 20.2559 19.28C20.1493 19.1333 19.9493 19.06 19.6559 19.06H18.0459V23.07C18.0459 23.3567 18.1226 23.55 18.2759 23.65C18.4293 23.7433 18.6393 23.79 18.9059 23.79V24C18.7726 23.9933 18.5826 23.9867 18.3359 23.98C18.0959 23.9667 17.8493 23.96 17.5959 23.96C17.3493 23.96 17.1126 23.9667 16.8859 23.98C16.6659 23.9867 16.4993 23.9933 16.3859 24V23.79C16.6593 23.79 16.8526 23.74 16.9659 23.64C17.0859 23.54 17.1459 23.35 17.1459 23.07V19.06H16.3459V18.86H17.1459C17.1459 18.4333 17.1993 18.05 17.3059 17.71C17.4193 17.37 17.6059 17.0767 17.8659 16.83C18.0593 16.65 18.3093 16.4967 18.6159 16.37C18.9226 16.2433 19.2959 16.18 19.7359 16.18ZM24.1769 16.16V23.07C24.1769 23.35 24.2335 23.54 24.3469 23.64C24.4669 23.74 24.6635 23.79 24.9369 23.79V24C24.8235 23.9933 24.6502 23.9867 24.4169 23.98C24.1902 23.9667 23.9602 23.96 23.7269 23.96C23.5002 23.96 23.2702 23.9667 23.0369 23.98C22.8035 23.9867 22.6302 23.9933 22.5169 24V23.79C22.7902 23.79 22.9835 23.74 23.0969 23.64C23.2169 23.54 23.2769 23.35 23.2769 23.07V17.36C23.2769 17.06 23.2235 16.84 23.1169 16.7C23.0102 16.5533 22.8102 16.48 22.5169 16.48V16.27C22.7302 16.29 22.9369 16.3 23.1369 16.3C23.3302 16.3 23.5135 16.29 23.6869 16.27C23.8669 16.2433 24.0302 16.2067 24.1769 16.16ZM27.7805 18.71C28.3672 18.71 28.8239 18.89 29.1505 19.25C29.4839 19.6033 29.6505 20.1567 29.6505 20.91H26.1205L26.1105 20.72H28.6905C28.7039 20.3933 28.6772 20.0933 28.6105 19.82C28.5439 19.54 28.4372 19.3167 28.2905 19.15C28.1505 18.9833 27.9672 18.9 27.7405 18.9C27.4339 18.9 27.1605 19.0533 26.9205 19.36C26.6872 19.6667 26.5472 20.1533 26.5005 20.82L26.5305 20.86C26.5172 20.96 26.5072 21.07 26.5005 21.19C26.4939 21.31 26.4905 21.43 26.4905 21.55C26.4905 22.0033 26.5639 22.3933 26.7105 22.72C26.8572 23.0467 27.0472 23.2967 27.2805 23.47C27.5205 23.6367 27.7672 23.72 28.0205 23.72C28.2205 23.72 28.4105 23.69 28.5905 23.63C28.7705 23.5633 28.9372 23.4567 29.0905 23.31C29.2439 23.1633 29.3772 22.9667 29.4905 22.72L29.6905 22.8C29.6172 23.02 29.4972 23.2333 29.3305 23.44C29.1639 23.6467 28.9539 23.8167 28.7005 23.95C28.4472 24.0767 28.1539 24.14 27.8205 24.14C27.3405 24.14 26.9272 24.03 26.5805 23.81C26.2405 23.59 25.9772 23.2867 25.7905 22.9C25.6105 22.5067 25.5205 22.0567 25.5205 21.55C25.5205 20.9633 25.6139 20.46 25.8005 20.04C25.9872 19.6133 26.2505 19.2867 26.5905 19.06C26.9305 18.8267 27.3272 18.71 27.7805 18.71Z" fill="#00744F"/>
<path d="M120.91 16.92C120.883 17.1533 120.863 17.38 120.85 17.6C120.843 17.82 120.84 17.9867 120.84 18.1C120.84 18.22 120.843 18.3367 120.85 18.45C120.857 18.5567 120.863 18.6467 120.87 18.72H120.64C120.6 18.3267 120.543 18.0167 120.47 17.79C120.397 17.5567 120.27 17.3933 120.09 17.3C119.917 17.2 119.653 17.15 119.3 17.15H118.47C118.243 17.15 118.07 17.17 117.95 17.21C117.837 17.2433 117.76 17.32 117.72 17.44C117.68 17.5533 117.66 17.7333 117.66 17.98V22.94C117.66 23.18 117.68 23.36 117.72 23.48C117.76 23.6 117.837 23.68 117.95 23.72C118.07 23.7533 118.243 23.77 118.47 23.77H119.2C119.62 23.77 119.937 23.7133 120.15 23.6C120.37 23.4867 120.527 23.3033 120.62 23.05C120.72 22.79 120.793 22.44 120.84 22H121.07C121.05 22.18 121.04 22.42 121.04 22.72C121.04 22.8467 121.043 23.03 121.05 23.27C121.063 23.5033 121.083 23.7467 121.11 24C120.77 23.9867 120.387 23.98 119.96 23.98C119.533 23.9733 119.153 23.97 118.82 23.97C118.673 23.97 118.483 23.97 118.25 23.97C118.023 23.97 117.777 23.9733 117.51 23.98C117.243 23.98 116.973 23.9833 116.7 23.99C116.427 23.99 116.167 23.9933 115.92 24V23.8C116.147 23.7867 116.317 23.76 116.43 23.72C116.55 23.68 116.63 23.6 116.67 23.48C116.71 23.36 116.73 23.18 116.73 22.94V17.98C116.73 17.7333 116.71 17.5533 116.67 17.44C116.63 17.32 116.55 17.24 116.43 17.2C116.317 17.1533 116.147 17.1267 115.92 17.12V16.92C116.167 16.9267 116.427 16.9333 116.7 16.94C116.973 16.94 117.243 16.9433 117.51 16.95C117.777 16.95 118.023 16.95 118.25 16.95C118.483 16.95 118.673 16.95 118.82 16.95C119.127 16.95 119.473 16.95 119.86 16.95C120.253 16.9433 120.603 16.9333 120.91 16.92ZM119.19 20.34C119.19 20.34 119.19 20.3733 119.19 20.44C119.19 20.5067 119.19 20.54 119.19 20.54H117.36C117.36 20.54 117.36 20.5067 117.36 20.44C117.36 20.3733 117.36 20.34 117.36 20.34H119.19ZM119.48 19.02C119.453 19.4 119.44 19.69 119.44 19.89C119.447 20.09 119.45 20.2733 119.45 20.44C119.45 20.6067 119.453 20.79 119.46 20.99C119.467 21.19 119.483 21.48 119.51 21.86H119.28C119.253 21.6467 119.22 21.44 119.18 21.24C119.147 21.0333 119.067 20.8667 118.94 20.74C118.82 20.6067 118.613 20.54 118.32 20.54V20.34C118.54 20.34 118.707 20.2967 118.82 20.21C118.94 20.1167 119.027 20 119.08 19.86C119.133 19.72 119.17 19.5767 119.19 19.43C119.21 19.2767 119.23 19.14 119.25 19.02H119.48ZM126.434 16.16V22.91C126.434 23.21 126.487 23.4333 126.594 23.58C126.707 23.72 126.907 23.79 127.194 23.79V24C126.987 23.98 126.78 23.97 126.574 23.97C126.38 23.97 126.194 23.98 126.014 24C125.84 24.02 125.68 24.0567 125.534 24.11V17.36C125.534 17.06 125.48 16.84 125.374 16.7C125.267 16.5533 125.067 16.48 124.774 16.48V16.27C124.987 16.29 125.194 16.3 125.394 16.3C125.587 16.3 125.77 16.29 125.944 16.27C126.124 16.2433 126.287 16.2067 126.434 16.16ZM124.334 18.71C124.627 18.71 124.9 18.78 125.154 18.92C125.414 19.06 125.587 19.3 125.674 19.64L125.544 19.74C125.45 19.46 125.304 19.2567 125.104 19.13C124.91 19.0033 124.68 18.94 124.414 18.94C124.02 18.94 123.69 19.1433 123.424 19.55C123.164 19.9567 123.037 20.5833 123.044 21.43C123.044 21.97 123.094 22.42 123.194 22.78C123.3 23.1333 123.454 23.4 123.654 23.58C123.86 23.7533 124.11 23.84 124.404 23.84C124.684 23.84 124.937 23.72 125.164 23.48C125.39 23.24 125.527 22.8867 125.574 22.42L125.694 22.56C125.64 23.0667 125.477 23.4567 125.204 23.73C124.937 24.0033 124.574 24.14 124.114 24.14C123.7 24.14 123.337 24.04 123.024 23.84C122.717 23.64 122.48 23.34 122.314 22.94C122.154 22.54 122.074 22.0367 122.074 21.43C122.074 20.8233 122.177 20.32 122.384 19.92C122.597 19.5133 122.874 19.21 123.214 19.01C123.56 18.81 123.934 18.71 124.334 18.71ZM132.234 18.74V22.92C132.234 23.22 132.288 23.4433 132.394 23.59C132.508 23.73 132.708 23.8 132.994 23.8V24.01C132.788 23.99 132.581 23.98 132.374 23.98C132.181 23.98 131.994 23.99 131.814 24.01C131.641 24.03 131.481 24.0667 131.334 24.12V22.94C131.168 23.3733 130.931 23.6833 130.624 23.87C130.324 24.05 130.014 24.14 129.694 24.14C129.461 24.14 129.258 24.1067 129.084 24.04C128.911 23.9733 128.768 23.88 128.654 23.76C128.528 23.6267 128.441 23.4533 128.394 23.24C128.348 23.0267 128.324 22.7633 128.324 22.45V19.94C128.324 19.64 128.271 19.42 128.164 19.28C128.058 19.1333 127.858 19.06 127.564 19.06V18.85C127.778 18.87 127.984 18.88 128.184 18.88C128.378 18.88 128.561 18.87 128.734 18.85C128.914 18.8233 129.078 18.7867 129.224 18.74V22.67C129.224 22.8767 129.238 23.0667 129.264 23.24C129.291 23.4133 129.358 23.5533 129.464 23.66C129.571 23.7667 129.744 23.82 129.984 23.82C130.244 23.82 130.474 23.74 130.674 23.58C130.881 23.42 131.041 23.2033 131.154 22.93C131.274 22.6567 131.334 22.35 131.334 22.01V19.94C131.334 19.64 131.281 19.42 131.174 19.28C131.068 19.1333 130.868 19.06 130.574 19.06V18.85C130.788 18.87 130.994 18.88 131.194 18.88C131.388 18.88 131.571 18.87 131.744 18.85C131.924 18.8233 132.088 18.7867 132.234 18.74ZM136.005 18.71C136.218 18.71 136.425 18.7367 136.625 18.79C136.825 18.8433 137.005 18.9233 137.165 19.03C137.318 19.13 137.435 19.2467 137.515 19.38C137.595 19.5067 137.635 19.6467 137.635 19.8C137.635 19.98 137.585 20.12 137.485 20.22C137.385 20.3133 137.258 20.36 137.105 20.36C136.958 20.36 136.828 20.3167 136.715 20.23C136.608 20.1433 136.555 20.02 136.555 19.86C136.555 19.7067 136.595 19.5833 136.675 19.49C136.762 19.3967 136.862 19.3367 136.975 19.31C136.908 19.19 136.788 19.09 136.615 19.01C136.448 18.93 136.268 18.89 136.075 18.89C135.908 18.89 135.742 18.93 135.575 19.01C135.408 19.09 135.255 19.2233 135.115 19.41C134.975 19.59 134.862 19.84 134.775 20.16C134.688 20.4733 134.645 20.8667 134.645 21.34C134.645 21.9267 134.712 22.3933 134.845 22.74C134.978 23.0867 135.152 23.3367 135.365 23.49C135.585 23.6367 135.825 23.71 136.085 23.71C136.258 23.71 136.435 23.6767 136.615 23.61C136.795 23.5433 136.965 23.4367 137.125 23.29C137.285 23.1367 137.422 22.9333 137.535 22.68L137.725 22.75C137.658 22.9633 137.548 23.18 137.395 23.4C137.242 23.6133 137.042 23.79 136.795 23.93C136.548 24.07 136.245 24.14 135.885 24.14C135.472 24.14 135.098 24.0333 134.765 23.82C134.432 23.6067 134.165 23.3033 133.965 22.91C133.772 22.51 133.675 22.0367 133.675 21.49C133.675 20.9433 133.772 20.4633 133.965 20.05C134.165 19.63 134.442 19.3033 134.795 19.07C135.148 18.83 135.552 18.71 136.005 18.71ZM139.788 24.07C139.515 24.07 139.278 24.02 139.078 23.92C138.878 23.8133 138.725 23.6667 138.618 23.48C138.518 23.2933 138.468 23.0767 138.468 22.83C138.468 22.5367 138.535 22.2967 138.668 22.11C138.808 21.9233 138.985 21.7733 139.198 21.66C139.411 21.5467 139.635 21.4533 139.868 21.38C140.108 21.3 140.335 21.2267 140.548 21.16C140.761 21.0867 140.935 21.0033 141.068 20.91C141.208 20.8167 141.278 20.6933 141.278 20.54V19.92C141.278 19.64 141.235 19.4267 141.148 19.28C141.068 19.1333 140.958 19.0367 140.818 18.99C140.678 18.9367 140.521 18.91 140.348 18.91C140.181 18.91 140.001 18.9333 139.808 18.98C139.621 19.0267 139.471 19.1233 139.358 19.27C139.485 19.2967 139.595 19.3633 139.688 19.47C139.781 19.5767 139.828 19.7133 139.828 19.88C139.828 20.0467 139.775 20.18 139.668 20.28C139.561 20.3733 139.425 20.42 139.258 20.42C139.065 20.42 138.921 20.36 138.828 20.24C138.741 20.1133 138.698 19.9733 138.698 19.82C138.698 19.6467 138.741 19.5067 138.828 19.4C138.915 19.2933 139.025 19.1933 139.158 19.1C139.311 18.9933 139.508 18.9033 139.748 18.83C139.995 18.75 140.271 18.71 140.578 18.71C140.851 18.71 141.085 18.7433 141.278 18.81C141.471 18.87 141.631 18.96 141.758 19.08C141.931 19.24 142.045 19.4367 142.098 19.67C142.151 19.8967 142.178 20.17 142.178 20.49V23.27C142.178 23.4367 142.201 23.5567 142.248 23.63C142.301 23.7033 142.381 23.74 142.488 23.74C142.561 23.74 142.631 23.7233 142.698 23.69C142.765 23.6567 142.845 23.6033 142.938 23.53L143.048 23.7C142.908 23.8067 142.775 23.8967 142.648 23.97C142.521 24.0367 142.351 24.07 142.138 24.07C141.945 24.07 141.785 24.0367 141.658 23.97C141.531 23.9033 141.435 23.8067 141.368 23.68C141.308 23.5467 141.278 23.38 141.278 23.18C141.098 23.48 140.881 23.7033 140.628 23.85C140.381 23.9967 140.101 24.07 139.788 24.07ZM140.148 23.67C140.368 23.67 140.571 23.6067 140.758 23.48C140.951 23.3533 141.125 23.1633 141.278 22.91V20.95C141.198 21.0633 141.081 21.16 140.928 21.24C140.775 21.3133 140.608 21.39 140.428 21.47C140.248 21.5433 140.075 21.6333 139.908 21.74C139.748 21.84 139.615 21.9733 139.508 22.14C139.401 22.3067 139.348 22.5233 139.348 22.79C139.348 23.0567 139.418 23.27 139.558 23.43C139.705 23.59 139.901 23.67 140.148 23.67ZM144.959 17.19V18.86H146.439V19.06H144.959V22.93C144.959 23.2433 145.015 23.4633 145.129 23.59C145.242 23.7167 145.399 23.78 145.599 23.78C145.799 23.78 145.972 23.7 146.119 23.54C146.265 23.3733 146.392 23.0967 146.499 22.71L146.699 22.76C146.632 23.1467 146.499 23.4733 146.299 23.74C146.105 24.0067 145.805 24.14 145.399 24.14C145.172 24.14 144.985 24.11 144.839 24.05C144.692 23.9967 144.562 23.9167 144.449 23.81C144.302 23.6567 144.199 23.4733 144.139 23.26C144.085 23.0467 144.059 22.7633 144.059 22.41V19.06H143.099V18.86H144.059V17.33C144.225 17.3233 144.385 17.31 144.539 17.29C144.692 17.27 144.832 17.2367 144.959 17.19ZM148.024 16.35C148.197 16.35 148.347 16.4133 148.474 16.54C148.6 16.6667 148.664 16.8167 148.664 16.99C148.664 17.1633 148.6 17.3133 148.474 17.44C148.347 17.5667 148.197 17.63 148.024 17.63C147.85 17.63 147.7 17.5667 147.574 17.44C147.447 17.3133 147.384 17.1633 147.384 16.99C147.384 16.8167 147.447 16.6667 147.574 16.54C147.7 16.4133 147.85 16.35 148.024 16.35ZM148.544 18.74V23.07C148.544 23.35 148.6 23.54 148.714 23.64C148.834 23.74 149.03 23.79 149.304 23.79V24C149.19 23.9933 149.017 23.9867 148.784 23.98C148.557 23.9667 148.327 23.96 148.094 23.96C147.867 23.96 147.637 23.9667 147.404 23.98C147.17 23.9867 146.997 23.9933 146.884 24V23.79C147.157 23.79 147.35 23.74 147.464 23.64C147.584 23.54 147.644 23.35 147.644 23.07V19.94C147.644 19.64 147.59 19.42 147.484 19.28C147.377 19.1333 147.177 19.06 146.884 19.06V18.85C147.097 18.87 147.304 18.88 147.504 18.88C147.697 18.88 147.88 18.87 148.054 18.85C148.234 18.8233 148.397 18.7867 148.544 18.74ZM152.263 18.71C152.69 18.71 153.073 18.8033 153.413 18.99C153.753 19.1767 154.023 19.47 154.223 19.87C154.43 20.27 154.533 20.79 154.533 21.43C154.533 22.07 154.43 22.59 154.223 22.99C154.023 23.3833 153.753 23.6733 153.413 23.86C153.073 24.0467 152.69 24.14 152.263 24.14C151.843 24.14 151.46 24.0467 151.113 23.86C150.773 23.6733 150.5 23.3833 150.293 22.99C150.093 22.59 149.993 22.07 149.993 21.43C149.993 20.79 150.093 20.27 150.293 19.87C150.5 19.47 150.773 19.1767 151.113 18.99C151.46 18.8033 151.843 18.71 152.263 18.71ZM152.263 18.91C151.883 18.91 151.57 19.1067 151.323 19.5C151.083 19.8933 150.963 20.5367 150.963 21.43C150.963 22.3233 151.083 22.9667 151.323 23.36C151.57 23.7467 151.883 23.94 152.263 23.94C152.643 23.94 152.953 23.7467 153.193 23.36C153.44 22.9667 153.563 22.3233 153.563 21.43C153.563 20.5367 153.44 19.8933 153.193 19.5C152.953 19.1067 152.643 18.91 152.263 18.91ZM158.652 18.71C158.905 18.71 159.115 18.7433 159.282 18.81C159.455 18.8767 159.599 18.97 159.712 19.09C159.839 19.2233 159.929 19.39 159.982 19.59C160.035 19.79 160.062 20.06 160.062 20.4V23.07C160.062 23.35 160.119 23.54 160.232 23.64C160.352 23.74 160.549 23.79 160.822 23.79V24C160.709 23.9933 160.535 23.9867 160.302 23.98C160.069 23.9667 159.842 23.96 159.622 23.96C159.402 23.96 159.185 23.9667 158.972 23.98C158.765 23.9867 158.609 23.9933 158.502 24V23.79C158.742 23.79 158.912 23.74 159.012 23.64C159.112 23.54 159.162 23.35 159.162 23.07V20.18C159.162 19.9733 159.145 19.7833 159.112 19.61C159.079 19.4367 159.002 19.2967 158.882 19.19C158.769 19.0833 158.592 19.03 158.352 19.03C158.072 19.03 157.825 19.11 157.612 19.27C157.405 19.43 157.242 19.65 157.122 19.93C157.009 20.2033 156.952 20.51 156.952 20.85V23.07C156.952 23.35 157.002 23.54 157.102 23.64C157.202 23.74 157.372 23.79 157.612 23.79V24C157.505 23.9933 157.345 23.9867 157.132 23.98C156.925 23.9667 156.712 23.96 156.492 23.96C156.272 23.96 156.045 23.9667 155.812 23.98C155.579 23.9867 155.405 23.9933 155.292 24V23.79C155.565 23.79 155.759 23.74 155.872 23.64C155.992 23.54 156.052 23.35 156.052 23.07V19.94C156.052 19.64 155.999 19.42 155.892 19.28C155.785 19.1333 155.585 19.06 155.292 19.06V18.85C155.505 18.87 155.712 18.88 155.912 18.88C156.105 18.88 156.289 18.87 156.462 18.85C156.642 18.8233 156.805 18.7867 156.952 18.74V19.92C157.125 19.4667 157.365 19.1533 157.672 18.98C157.985 18.8 158.312 18.71 158.652 18.71Z" fill="black" fill-opacity="0.7"/>
<path d="M246.47 16.92V17.12C246.243 17.1267 246.07 17.1533 245.95 17.2C245.837 17.24 245.76 17.32 245.72 17.44C245.68 17.5533 245.66 17.7333 245.66 17.98V22.94C245.66 23.18 245.68 23.36 245.72 23.48C245.76 23.6 245.837 23.68 245.95 23.72C246.07 23.76 246.243 23.7867 246.47 23.8V24C246.317 23.9867 246.123 23.98 245.89 23.98C245.663 23.9733 245.433 23.97 245.2 23.97C244.94 23.97 244.697 23.9733 244.47 23.98C244.243 23.98 244.06 23.9867 243.92 24V23.8C244.147 23.7867 244.317 23.76 244.43 23.72C244.55 23.68 244.63 23.6 244.67 23.48C244.71 23.36 244.73 23.18 244.73 22.94V17.98C244.73 17.7333 244.71 17.5533 244.67 17.44C244.63 17.32 244.55 17.24 244.43 17.2C244.317 17.1533 244.147 17.1267 243.92 17.12V16.92C244.06 16.9267 244.243 16.9333 244.47 16.94C244.697 16.9467 244.94 16.95 245.2 16.95C245.433 16.95 245.663 16.9467 245.89 16.94C246.123 16.9333 246.317 16.9267 246.47 16.92ZM250.539 18.71C250.792 18.71 251.002 18.7433 251.169 18.81C251.342 18.8767 251.485 18.97 251.599 19.09C251.725 19.2233 251.815 19.39 251.869 19.59C251.922 19.79 251.949 20.06 251.949 20.4V23.07C251.949 23.35 252.005 23.54 252.119 23.64C252.239 23.74 252.435 23.79 252.709 23.79V24C252.595 23.9933 252.422 23.9867 252.189 23.98C251.955 23.9667 251.729 23.96 251.509 23.96C251.289 23.96 251.072 23.9667 250.859 23.98C250.652 23.9867 250.495 23.9933 250.389 24V23.79C250.629 23.79 250.799 23.74 250.899 23.64C250.999 23.54 251.049 23.35 251.049 23.07V20.18C251.049 19.9733 251.032 19.7833 250.999 19.61C250.965 19.4367 250.889 19.2967 250.769 19.19C250.655 19.0833 250.479 19.03 250.239 19.03C249.959 19.03 249.712 19.11 249.499 19.27C249.292 19.43 249.129 19.65 249.009 19.93C248.895 20.2033 248.839 20.51 248.839 20.85V23.07C248.839 23.35 248.889 23.54 248.989 23.64C249.089 23.74 249.259 23.79 249.499 23.79V24C249.392 23.9933 249.232 23.9867 249.019 23.98C248.812 23.9667 248.599 23.96 248.379 23.96C248.159 23.96 247.932 23.9667 247.699 23.98C247.465 23.9867 247.292 23.9933 247.179 24V23.79C247.452 23.79 247.645 23.74 247.759 23.64C247.879 23.54 247.939 23.35 247.939 23.07V19.94C247.939 19.64 247.885 19.42 247.779 19.28C247.672 19.1333 247.472 19.06 247.179 19.06V18.85C247.392 18.87 247.599 18.88 247.799 18.88C247.992 18.88 248.175 18.87 248.349 18.85C248.529 18.8233 248.692 18.7867 248.839 18.74V19.92C249.012 19.4667 249.252 19.1533 249.559 18.98C249.872 18.8 250.199 18.71 250.539 18.71ZM254.755 17.19V18.86H256.235V19.06H254.755V22.93C254.755 23.2433 254.812 23.4633 254.925 23.59C255.039 23.7167 255.195 23.78 255.395 23.78C255.595 23.78 255.769 23.7 255.915 23.54C256.062 23.3733 256.189 23.0967 256.295 22.71L256.495 22.76C256.429 23.1467 256.295 23.4733 256.095 23.74C255.902 24.0067 255.602 24.14 255.195 24.14C254.969 24.14 254.782 24.11 254.635 24.05C254.489 23.9967 254.359 23.9167 254.245 23.81C254.099 23.6567 253.995 23.4733 253.935 23.26C253.882 23.0467 253.855 22.7633 253.855 22.41V19.06H252.895V18.86H253.855V17.33C254.022 17.3233 254.182 17.31 254.335 17.29C254.489 17.27 254.629 17.2367 254.755 17.19ZM259.111 18.71C259.697 18.71 260.154 18.89 260.481 19.25C260.814 19.6033 260.981 20.1567 260.981 20.91H257.451L257.441 20.72H260.021C260.034 20.3933 260.007 20.0933 259.941 19.82C259.874 19.54 259.767 19.3167 259.621 19.15C259.481 18.9833 259.297 18.9 259.071 18.9C258.764 18.9 258.491 19.0533 258.251 19.36C258.017 19.6667 257.877 20.1533 257.831 20.82L257.861 20.86C257.847 20.96 257.837 21.07 257.831 21.19C257.824 21.31 257.821 21.43 257.821 21.55C257.821 22.0033 257.894 22.3933 258.041 22.72C258.187 23.0467 258.377 23.2967 258.611 23.47C258.851 23.6367 259.097 23.72 259.351 23.72C259.551 23.72 259.741 23.69 259.921 23.63C260.101 23.5633 260.267 23.4567 260.421 23.31C260.574 23.1633 260.707 22.9667 260.821 22.72L261.021 22.8C260.947 23.02 260.827 23.2333 260.661 23.44C260.494 23.6467 260.284 23.8167 260.031 23.95C259.777 24.0767 259.484 24.14 259.151 24.14C258.671 24.14 258.257 24.03 257.911 23.81C257.571 23.59 257.307 23.2867 257.121 22.9C256.941 22.5067 256.851 22.0567 256.851 21.55C256.851 20.9633 256.944 20.46 257.131 20.04C257.317 19.6133 257.581 19.2867 257.921 19.06C258.261 18.8267 258.657 18.71 259.111 18.71ZM264.849 18.71C265.029 18.71 265.186 18.7467 265.319 18.82C265.459 18.8933 265.566 18.99 265.639 19.11C265.719 19.2233 265.759 19.3533 265.759 19.5C265.759 19.6667 265.706 19.8133 265.599 19.94C265.499 20.0667 265.363 20.13 265.189 20.13C265.049 20.13 264.926 20.0867 264.819 20C264.713 19.9067 264.659 19.7767 264.659 19.61C264.659 19.4833 264.693 19.3767 264.759 19.29C264.833 19.1967 264.913 19.1233 264.999 19.07C264.953 19.0033 264.883 18.97 264.789 18.97C264.583 18.97 264.393 19.0333 264.219 19.16C264.046 19.28 263.899 19.4367 263.779 19.63C263.659 19.8233 263.566 20.03 263.499 20.25C263.433 20.4633 263.399 20.6633 263.399 20.85V22.97C263.399 23.2967 263.493 23.5167 263.679 23.63C263.873 23.7367 264.133 23.79 264.459 23.79V24C264.306 23.9933 264.089 23.9867 263.809 23.98C263.529 23.9667 263.233 23.96 262.919 23.96C262.693 23.96 262.466 23.9667 262.239 23.98C262.019 23.9867 261.853 23.9933 261.739 24V23.79C262.013 23.79 262.206 23.74 262.319 23.64C262.439 23.54 262.499 23.35 262.499 23.07V19.94C262.499 19.64 262.446 19.42 262.339 19.28C262.233 19.1333 262.033 19.06 261.739 19.06V18.85C261.953 18.87 262.159 18.88 262.359 18.88C262.553 18.88 262.736 18.87 262.909 18.85C263.089 18.8233 263.253 18.7867 263.399 18.74V19.99C263.473 19.7967 263.576 19.6033 263.709 19.41C263.849 19.21 264.016 19.0433 264.209 18.91C264.403 18.7767 264.616 18.71 264.849 18.71ZM268.427 18.71C269.014 18.71 269.47 18.89 269.797 19.25C270.13 19.6033 270.297 20.1567 270.297 20.91H266.767L266.757 20.72H269.337C269.35 20.3933 269.324 20.0933 269.257 19.82C269.19 19.54 269.084 19.3167 268.937 19.15C268.797 18.9833 268.614 18.9 268.387 18.9C268.08 18.9 267.807 19.0533 267.567 19.36C267.334 19.6667 267.194 20.1533 267.147 20.82L267.177 20.86C267.164 20.96 267.154 21.07 267.147 21.19C267.14 21.31 267.137 21.43 267.137 21.55C267.137 22.0033 267.21 22.3933 267.357 22.72C267.504 23.0467 267.694 23.2967 267.927 23.47C268.167 23.6367 268.414 23.72 268.667 23.72C268.867 23.72 269.057 23.69 269.237 23.63C269.417 23.5633 269.584 23.4567 269.737 23.31C269.89 23.1633 270.024 22.9667 270.137 22.72L270.337 22.8C270.264 23.02 270.144 23.2333 269.977 23.44C269.81 23.6467 269.6 23.8167 269.347 23.95C269.094 24.0767 268.8 24.14 268.467 24.14C267.987 24.14 267.574 24.03 267.227 23.81C266.887 23.59 266.624 23.2867 266.437 22.9C266.257 22.5067 266.167 22.0567 266.167 21.55C266.167 20.9633 266.26 20.46 266.447 20.04C266.634 19.6133 266.897 19.2867 267.237 19.06C267.577 18.8267 267.974 18.71 268.427 18.71ZM272.846 18.71C273.112 18.71 273.339 18.7533 273.526 18.84C273.712 18.9267 273.849 19.0067 273.936 19.08C274.156 19.26 274.289 19.14 274.336 18.72H274.566C274.552 18.9067 274.542 19.13 274.536 19.39C274.529 19.6433 274.526 19.9867 274.526 20.42H274.296C274.256 20.1733 274.186 19.9333 274.086 19.7C273.992 19.4667 273.852 19.2767 273.666 19.13C273.479 18.9767 273.236 18.9 272.936 18.9C272.702 18.9 272.506 18.9667 272.346 19.1C272.192 19.2267 272.116 19.4167 272.116 19.67C272.116 19.87 272.176 20.0433 272.296 20.19C272.416 20.33 272.572 20.4633 272.766 20.59C272.959 20.71 273.169 20.8433 273.396 20.99C273.649 21.15 273.879 21.3133 274.086 21.48C274.292 21.6467 274.456 21.83 274.576 22.03C274.702 22.23 274.766 22.4667 274.766 22.74C274.766 23.0467 274.686 23.3033 274.526 23.51C274.366 23.7167 274.156 23.8733 273.896 23.98C273.642 24.0867 273.362 24.14 273.056 24.14C272.909 24.14 272.769 24.1267 272.636 24.1C272.509 24.08 272.386 24.0467 272.266 24C272.199 23.9667 272.129 23.9267 272.056 23.88C271.989 23.8333 271.922 23.7833 271.856 23.73C271.789 23.6767 271.729 23.68 271.676 23.74C271.622 23.7933 271.582 23.9033 271.556 24.07H271.326C271.339 23.8567 271.349 23.5967 271.356 23.29C271.362 22.9833 271.366 22.5767 271.366 22.07H271.596C271.642 22.4433 271.709 22.77 271.796 23.05C271.882 23.33 272.019 23.55 272.206 23.71C272.392 23.8633 272.652 23.94 272.986 23.94C273.119 23.94 273.252 23.91 273.386 23.85C273.526 23.79 273.642 23.69 273.736 23.55C273.829 23.41 273.876 23.2233 273.876 22.99C273.876 22.6967 273.769 22.4567 273.556 22.27C273.342 22.0833 273.072 21.8867 272.746 21.68C272.506 21.5267 272.279 21.3733 272.066 21.22C271.859 21.0667 271.689 20.8933 271.556 20.7C271.429 20.5067 271.366 20.2733 271.366 20C271.366 19.7 271.432 19.4567 271.566 19.27C271.706 19.0767 271.889 18.9367 272.116 18.85C272.342 18.7567 272.586 18.71 272.846 18.71ZM277.138 17.19V18.86H278.618V19.06H277.138V22.93C277.138 23.2433 277.195 23.4633 277.308 23.59C277.422 23.7167 277.578 23.78 277.778 23.78C277.978 23.78 278.152 23.7 278.298 23.54C278.445 23.3733 278.572 23.0967 278.678 22.71L278.878 22.76C278.812 23.1467 278.678 23.4733 278.478 23.74C278.285 24.0067 277.985 24.14 277.578 24.14C277.352 24.14 277.165 24.11 277.018 24.05C276.872 23.9967 276.742 23.9167 276.628 23.81C276.482 23.6567 276.378 23.4733 276.318 23.26C276.265 23.0467 276.238 22.7633 276.238 22.41V19.06H275.278V18.86H276.238V17.33C276.405 17.3233 276.565 17.31 276.718 17.29C276.872 17.27 277.012 17.2367 277.138 17.19ZM280.853 18.71C281.12 18.71 281.347 18.7533 281.533 18.84C281.72 18.9267 281.857 19.0067 281.943 19.08C282.163 19.26 282.297 19.14 282.343 18.72H282.573C282.56 18.9067 282.55 19.13 282.543 19.39C282.537 19.6433 282.533 19.9867 282.533 20.42H282.303C282.263 20.1733 282.193 19.9333 282.093 19.7C282 19.4667 281.86 19.2767 281.673 19.13C281.487 18.9767 281.243 18.9 280.943 18.9C280.71 18.9 280.513 18.9667 280.353 19.1C280.2 19.2267 280.123 19.4167 280.123 19.67C280.123 19.87 280.183 20.0433 280.303 20.19C280.423 20.33 280.58 20.4633 280.773 20.59C280.967 20.71 281.177 20.8433 281.403 20.99C281.657 21.15 281.887 21.3133 282.093 21.48C282.3 21.6467 282.463 21.83 282.583 22.03C282.71 22.23 282.773 22.4667 282.773 22.74C282.773 23.0467 282.693 23.3033 282.533 23.51C282.373 23.7167 282.163 23.8733 281.903 23.98C281.65 24.0867 281.37 24.14 281.063 24.14C280.917 24.14 280.777 24.1267 280.643 24.1C280.517 24.08 280.393 24.0467 280.273 24C280.207 23.9667 280.137 23.9267 280.063 23.88C279.997 23.8333 279.93 23.7833 279.863 23.73C279.797 23.6767 279.737 23.68 279.683 23.74C279.63 23.7933 279.59 23.9033 279.563 24.07H279.333C279.347 23.8567 279.357 23.5967 279.363 23.29C279.37 22.9833 279.373 22.5767 279.373 22.07H279.603C279.65 22.4433 279.717 22.77 279.803 23.05C279.89 23.33 280.027 23.55 280.213 23.71C280.4 23.8633 280.66 23.94 280.993 23.94C281.127 23.94 281.26 23.91 281.393 23.85C281.533 23.79 281.65 23.69 281.743 23.55C281.837 23.41 281.883 23.2233 281.883 22.99C281.883 22.6967 281.777 22.4567 281.563 22.27C281.35 22.0833 281.08 21.8867 280.753 21.68C280.513 21.5267 280.287 21.3733 280.073 21.22C279.867 21.0667 279.697 20.8933 279.563 20.7C279.437 20.5067 279.373 20.2733 279.373 20C279.373 19.7 279.44 19.4567 279.573 19.27C279.713 19.0767 279.897 18.9367 280.123 18.85C280.35 18.7567 280.593 18.71 280.853 18.71Z" fill="black" fill-opacity="0.7"/>
<circle cx="14.5" cy="5" r="4.5" fill="white" stroke="#00744F"/>
<circle cx="138.893" cy="5" r="5" fill="white"/>
<circle cx="138.893" cy="5" r="4.5" stroke="black" stroke-opacity="0.7"/>
<circle cx="263.285" cy="5" r="5" fill="white"/>
<circle cx="263.285" cy="5" r="4.5" stroke="black" stroke-opacity="0.7"/>
<line x1="23.5" y1="5.5" x2="128.5" y2="5.49999" stroke="black" stroke-opacity="0.7"/>
<line x1="149.5" y1="5.5" x2="254.5" y2="5.5" stroke="black" stroke-opacity="0.7"/>
</svg>
