<svg width="50" height="50" viewBox="0 0 50 50" fill="none" xmlns="http://www.w3.org/2000/svg">
<rect width="50" height="50" rx="25" fill="#6688CC"/>
<path d="M20.9375 24.375C20.6889 24.375 20.4504 24.4738 20.2746 24.6496C20.0988 24.8254 20 25.0639 20 25.3125C20 25.5611 20.0988 25.7996 20.2746 25.9754C20.4504 26.1512 20.6889 26.25 20.9375 26.25H29.0625C29.3111 26.25 29.5496 26.1512 29.7254 25.9754C29.9012 25.7996 30 25.5611 30 25.3125C30 25.0639 29.9012 24.8254 29.7254 24.6496C29.5496 24.4738 29.3111 24.375 29.0625 24.375H20.9375ZM20.9375 27.8125C20.6889 27.8125 20.4504 27.9113 20.2746 28.0871C20.0988 28.2629 20 28.5014 20 28.75C20 28.9986 20.0988 29.2371 20.2746 29.4129C20.4504 29.5887 20.6889 29.6875 20.9375 29.6875H29.0625C29.3111 29.6875 29.5496 29.5887 29.7254 29.4129C29.9012 29.2371 30 28.9986 30 28.75C30 28.5014 29.9012 28.2629 29.7254 28.0871C29.5496 27.9113 29.3111 27.8125 29.0625 27.8125H20.9375ZM20.9375 31.25C20.6889 31.25 20.4504 31.3488 20.2746 31.5246C20.0988 31.7004 20 31.9389 20 32.1875C20 32.4361 20.0988 32.6746 20.2746 32.8504C20.4504 33.0262 20.6889 33.125 20.9375 33.125H29.0625C29.3111 33.125 29.5496 33.0262 29.7254 32.8504C29.9012 32.6746 30 32.4361 30 32.1875C30 31.9389 29.9012 31.7004 29.7254 31.5246C29.5496 31.3488 29.3111 31.25 29.0625 31.25H20.9375ZM26.9812 13.2325L34.2675 20.5175C34.7364 20.9862 34.9999 21.622 35 22.285V35C35 35.663 34.7366 36.2989 34.2678 36.7678C33.7989 37.2366 33.163 37.5 32.5 37.5H17.5C16.837 37.5 16.2011 37.2366 15.7322 36.7678C15.2634 36.2989 15 35.663 15 35V15C15 14.337 15.2634 13.7011 15.7322 13.2322C16.2011 12.7634 16.837 12.5 17.5 12.5H25.215C25.25 12.5008 25.2842 12.5037 25.3175 12.5087C25.3425 12.5129 25.3671 12.5158 25.3912 12.5175C25.66 12.5362 25.925 12.5875 26.1713 12.69C26.2425 12.72 26.3112 12.76 26.3787 12.7988L26.4412 12.835L26.5 12.865C26.5346 12.8818 26.5684 12.9001 26.6012 12.92C26.6988 12.9862 26.7863 13.065 26.875 13.145L26.92 13.1825L26.9812 13.2325ZM32.5 35.625C32.6658 35.625 32.8247 35.5592 32.9419 35.4419C33.0592 35.3247 33.125 35.1658 33.125 35V22.5H27.5C26.837 22.5 26.2011 22.2366 25.7322 21.7678C25.2634 21.2989 25 20.663 25 20V14.375H17.5C17.3342 14.375 17.1753 14.4408 17.0581 14.5581C16.9408 14.6753 16.875 14.8342 16.875 15V35C16.875 35.1658 16.9408 35.3247 17.0581 35.4419C17.1753 35.5592 17.3342 35.625 17.5 35.625H32.5ZM31.7225 20.625L26.875 15.7762V20C26.875 20.1658 26.9408 20.3247 27.0581 20.4419C27.1753 20.5592 27.3342 20.625 27.5 20.625H31.7225Z" fill="black" fill-opacity="0.8"/>
</svg>
