<svg width="20" height="20" viewBox="0 0 20 20" fill="none" xmlns="http://www.w3.org/2000/svg">
<path d="M13.729 4.50652L15.4932 6.27069M14.8632 2.95236L10.0907 7.72486C9.84334 7.97056 9.67504 8.28453 9.60734 8.62652L9.1665 10.8332L11.3732 10.3915C11.7148 10.3232 12.0282 10.1557 12.2748 9.90902L17.0473 5.13652C17.1908 4.99311 17.3045 4.82285 17.3821 4.63547C17.4597 4.44809 17.4997 4.24726 17.4997 4.04444C17.4997 3.84162 17.4597 3.64079 17.3821 3.45341C17.3045 3.26603 17.1908 3.09577 17.0473 2.95236C16.9039 2.80894 16.7337 2.69518 16.5463 2.61756C16.3589 2.53995 16.1581 2.5 15.9553 2.5C15.7524 2.5 15.5516 2.53995 15.3642 2.61756C15.1768 2.69518 15.0066 2.80894 14.8632 2.95236Z" stroke="#318181" stroke-linecap="round" stroke-linejoin="round"/>
<path d="M15.8333 12.5003V15.0003C15.8333 15.4424 15.6577 15.8663 15.3451 16.1788C15.0325 16.4914 14.6086 16.667 14.1666 16.667H4.99992C4.55789 16.667 4.13397 16.4914 3.82141 16.1788C3.50885 15.8663 3.33325 15.4424 3.33325 15.0003V5.83366C3.33325 5.39163 3.50885 4.96771 3.82141 4.65515C4.13397 4.34259 4.55789 4.16699 4.99992 4.16699H7.49992" stroke="#318181" stroke-linecap="round" stroke-linejoin="round"/>
</svg>
