<svg width="50" height="50" viewBox="0 0 50 50" fill="none" xmlns="http://www.w3.org/2000/svg">
<rect width="50" height="50" rx="25" fill="#6688CC"/>
<path d="M36.25 31.25V20H18.75V31.25H36.25ZM36.25 13.75C36.913 13.75 37.5489 14.0134 38.0178 14.4822C38.4866 14.9511 38.75 15.587 38.75 16.25V31.25C38.75 31.913 38.4866 32.5489 38.0178 33.0178C37.5489 33.4866 36.913 33.75 36.25 33.75H18.75C18.087 33.75 17.4511 33.4866 16.9822 33.0178C16.5134 32.5489 16.25 31.913 16.25 31.25V16.25C16.25 15.587 16.5134 14.9511 16.9822 14.4822C17.4511 14.0134 18.087 13.75 18.75 13.75H20V11.25H22.5V13.75H32.5V11.25H35V13.75H36.25ZM13.75 36.25H31.25V38.75H13.75C13.087 38.75 12.4511 38.4866 11.9822 38.0178C11.5134 37.5489 11.25 36.913 11.25 36.25V21.25H13.75V36.25ZM33.75 28.75H28.75V23.75H33.75V28.75Z" fill="black" fill-opacity="0.8"/>
</svg>
