<svg width="160" height="50" viewBox="0 0 160 50" fill="none" xmlns="http://www.w3.org/2000/svg">
<path d="M65.2254 17.1815C64.6731 17.1815 64.2254 17.6292 64.2254 18.1815V31.3609C64.2254 31.9132 64.6731 32.3609 65.2254 32.3609H68.2388C70.2926 32.3609 71.7246 31.2301 72.5348 28.9684C72.9776 27.7272 73.199 26.2492 73.199 24.5345C73.199 22.1677 72.8645 20.3531 72.1956 19.0907C71.5361 17.8179 70.2172 17.1815 68.2388 17.1815H65.2254ZM68.9736 13.142C70.2643 13.1631 71.3383 13.3314 72.1956 13.6469C73.6559 14.1834 74.8382 15.167 75.7427 16.5976C76.4681 17.7548 76.9627 19.0066 77.2265 20.3531C77.4903 21.6995 77.6222 22.9829 77.6222 24.2032C77.6222 27.2959 77.0663 29.9152 75.9546 32.0611C74.4473 34.954 72.1203 36.4004 68.9736 36.4004H61C60.4477 36.4004 60 35.9527 60 35.4004V14.142C60 13.5897 60.4477 13.142 61 13.142H68.9736Z" fill="#3B5D8F"/>
<path d="M87.5002 33.2288C88.6779 33.2288 89.5823 32.7607 90.2135 31.8245C90.8447 30.8882 91.1603 29.5575 91.1603 27.8323C91.1603 26.1072 90.8447 24.7817 90.2135 23.856C89.5823 22.9198 88.6779 22.4517 87.5002 22.4517C86.3226 22.4517 85.4134 22.9198 84.7728 23.856C84.1416 24.7817 83.826 26.1072 83.826 27.8323C83.826 29.5575 84.1416 30.8882 84.7728 31.8245C85.4134 32.7607 86.3226 33.2288 87.5002 33.2288ZM95.3857 27.8323C95.3857 30.357 94.7356 32.5187 93.4355 34.3176C92.1354 36.1059 90.1617 37 87.5143 37C84.867 37 82.8933 36.1059 81.5932 34.3176C80.2931 32.5187 79.643 30.357 79.643 27.8323C79.643 25.3498 80.2931 23.1986 81.5932 21.3787C82.8933 19.5588 84.867 18.6489 87.5143 18.6489C90.1617 18.6489 92.1354 19.5588 93.4355 21.3787C94.7356 23.1986 95.3857 25.3498 95.3857 27.8323Z" fill="#3B5D8F"/>
<path d="M108.372 25.3708C107.865 25.3708 107.451 24.9854 107.296 24.5025C107.198 24.1958 107.067 23.9067 106.903 23.6351C106.451 22.9408 105.749 22.5937 104.797 22.5937C103.441 22.5937 102.513 23.3458 102.013 24.8501C101.75 25.6496 101.618 26.712 101.618 28.0375C101.618 29.2998 101.75 30.3149 102.013 31.0828C102.494 32.5135 103.398 33.2288 104.727 33.2288C105.669 33.2288 106.338 32.9448 106.733 32.3767C106.989 32.0098 107.18 31.5727 107.306 31.0653C107.43 30.5644 107.849 30.1677 108.365 30.1677H110.495C111.075 30.1677 111.539 30.6609 111.42 31.2281C111.216 32.2086 110.822 33.149 110.238 34.0493C108.976 36.0164 107.106 37 104.628 37C102.15 37 100.327 36.1795 99.1588 34.5385C97.9906 32.8974 97.4065 30.7673 97.4065 28.1479C97.4065 25.192 98.0519 22.8935 99.3425 21.2525C100.633 19.6114 102.414 18.7909 104.684 18.7909C106.616 18.7909 108.194 19.2748 109.418 20.2426C110.461 21.0603 111.144 22.4073 111.467 24.2837C111.567 24.8637 111.101 25.3708 110.512 25.3708H108.372Z" fill="#3B5D8F"/>
<path d="M116.63 30.9093C117.142 30.9093 117.552 31.3009 117.689 31.7938C117.786 32.1449 117.917 32.4181 118.081 32.6134C118.58 33.213 119.504 33.5128 120.851 33.5128C121.642 33.5128 122.269 33.3813 122.73 33.1183C123.202 32.8554 123.437 32.4609 123.437 31.9349C123.437 31.43 123.249 31.046 122.872 30.783C122.495 30.5201 121.096 30.0677 118.675 29.426C116.932 28.9421 115.702 28.3373 114.986 27.6114C114.27 26.8961 113.912 25.8652 113.912 24.5187C113.912 22.9303 114.468 21.568 115.58 20.432C116.701 19.2853 118.274 18.712 120.3 18.712C122.222 18.712 123.786 19.1433 124.992 20.0059C125.987 20.7041 126.635 21.8227 126.935 23.3615C127.047 23.9364 126.58 24.4398 125.994 24.4398H123.963C123.448 24.4398 123.044 24.0383 122.867 23.555C122.799 23.371 122.716 23.2084 122.617 23.0671C122.175 22.4569 121.421 22.1519 120.356 22.1519C119.48 22.1519 118.854 22.3044 118.477 22.6095C118.109 22.9145 117.926 23.2722 117.926 23.6824C117.926 24.1979 118.124 24.5713 118.519 24.8028C118.915 25.0447 120.314 25.4602 122.716 26.0493C124.318 26.4701 125.519 27.1065 126.32 27.9586C127.111 28.8212 127.507 29.8994 127.507 31.1933C127.507 32.8974 126.937 34.2913 125.797 35.3748C124.666 36.4477 122.914 36.9842 120.54 36.9842C118.119 36.9842 116.329 36.4162 115.17 35.2801C114.244 34.3568 113.692 33.2323 113.511 31.9065C113.437 31.3593 113.894 30.9093 114.446 30.9093H116.63Z" fill="#3B5D8F"/>
<path d="M134.643 16.1499C134.643 16.7022 134.196 17.1499 133.643 17.1499H131.559C131.007 17.1499 130.559 16.7022 130.559 16.1499V14C130.559 13.4477 131.007 13 131.559 13H133.643C134.196 13 134.643 13.4477 134.643 14V16.1499ZM130.559 20.2012C130.559 19.6489 131.007 19.2012 131.559 19.2012H133.643C134.196 19.2012 134.643 19.6489 134.643 20.2012V35.4004C134.643 35.9527 134.196 36.4004 133.643 36.4004H131.559C131.007 36.4004 130.559 35.9527 130.559 35.4004V20.2012Z" fill="#3B5D8F"/>
<path d="M142.67 35.4004C142.67 35.9527 142.223 36.4004 141.67 36.4004H139.643C139.09 36.4004 138.643 35.9527 138.643 35.4004V14.142C138.643 13.5897 139.09 13.142 139.643 13.142H141.67C142.223 13.142 142.67 13.5897 142.67 14.142V35.4004Z" fill="#3B5D8F"/>
<path d="M152.69 22.4517C151.757 22.4517 151.031 22.7778 150.513 23.43C150.186 23.8498 149.936 24.3654 149.765 24.9769C149.604 25.5536 150.079 26.0809 150.678 26.0809H154.756C155.33 26.0809 155.8 25.594 155.671 25.0345C155.514 24.3494 155.236 23.7987 154.838 23.3826C154.263 22.762 153.547 22.4517 152.69 22.4517ZM152.69 18.7436C153.971 18.7436 155.125 19.0118 156.152 19.5483C157.179 20.0848 158.027 20.9316 158.696 22.0888C159.298 23.1091 159.689 24.2926 159.868 25.6391C159.948 26.2427 159.991 27.0496 159.999 28.0597C160.003 28.607 159.556 29.0473 159.008 29.0473H150.487C149.922 29.0473 149.459 29.5178 149.547 30.0759C149.735 31.2627 150.189 32.1296 150.909 32.6765C151.465 33.1078 152.134 33.3235 152.916 33.3235C153.745 33.3235 154.418 33.0605 154.937 32.5345C155.098 32.3722 155.249 32.1737 155.389 31.9391C155.594 31.5958 155.945 31.3511 156.345 31.3511H158.691C159.283 31.3511 159.75 31.869 159.552 32.4275C159.316 33.0982 158.922 33.7755 158.371 34.4596C157.052 36.1322 155.205 36.9684 152.831 36.9684C150.871 36.9684 149.143 36.2636 147.645 34.854C146.147 33.4444 145.398 31.1512 145.398 27.9744C145.398 24.9974 146.071 22.7147 147.418 21.1262C148.775 19.5378 150.532 18.7436 152.69 18.7436Z" fill="#3B5D8F"/>
<path d="M26.1261 0H38.0631C44.6557 0 50 5.36853 50 11.991V20.5882C50 22.4625 48.4874 23.9819 46.6216 23.9819H26.1261V0Z" fill="url(#paint0_linear_936_756)"/>
<path d="M23.8739 50L3.37838 50C1.51255 50 -1.63116e-07 48.4806 0 46.6063L1.49643e-06 29.4118C1.65954e-06 27.5375 1.51255 26.0181 3.37838 26.0181H23.8739V50Z" fill="url(#paint1_linear_936_756)"/>
<path d="M46.6216 26.0181C48.4874 26.0181 50 27.5375 50 29.4118V38.009C50 44.6315 44.6557 50 38.0631 50H26.1261V26.0181H46.6216Z" fill="url(#paint2_linear_936_756)"/>
<path d="M3.37838 23.9819C1.51255 23.9819 -9.7e-08 22.4625 1.47674e-07 20.5882L2.39231e-06 3.39366C2.63699e-06 1.5194 1.51255 1.99245e-07 3.37838 4.45025e-07L23.8739 3.14485e-06L23.8739 23.9819L3.37838 23.9819Z" fill="url(#paint3_linear_936_756)"/>
<rect x="36.9365" y="28.959" width="23.8739" height="8.59728" rx="1" transform="rotate(-180 36.9365 28.959)" fill="white"/>
<rect x="20.7207" y="36.6514" width="23.9819" height="8.55856" rx="1" transform="rotate(-90 20.7207 36.6514)" fill="white"/>
<defs>
<linearGradient id="paint0_linear_936_756" x1="0" y1="25.1131" x2="48.1982" y2="25.1131" gradientUnits="userSpaceOnUse">
<stop stop-color="#3B5D8F"/>
<stop offset="1" stop-color="#6688CC"/>
</linearGradient>
<linearGradient id="paint1_linear_936_756" x1="0" y1="25.1131" x2="48.1982" y2="25.1131" gradientUnits="userSpaceOnUse">
<stop stop-color="#3B5D8F"/>
<stop offset="1" stop-color="#6688CC"/>
</linearGradient>
<linearGradient id="paint2_linear_936_756" x1="0" y1="25.1131" x2="48.1982" y2="25.1131" gradientUnits="userSpaceOnUse">
<stop stop-color="#3B5D8F"/>
<stop offset="1" stop-color="#6688CC"/>
</linearGradient>
<linearGradient id="paint3_linear_936_756" x1="0" y1="25.1131" x2="48.1982" y2="25.1131" gradientUnits="userSpaceOnUse">
<stop stop-color="#3B5D8F"/>
<stop offset="1" stop-color="#6688CC"/>
</linearGradient>
</defs>
</svg>
