<svg width="26" height="25" viewBox="0 0 26 25" fill="none" xmlns="http://www.w3.org/2000/svg">
<path d="M18.4706 13.0103C18.1748 15.4739 16.5613 16.4583 15.8644 17.1728C15.1665 17.8895 15.2915 18.0322 15.3384 19.0833C15.3462 19.2133 15.3273 19.3436 15.2829 19.466C15.2384 19.5885 15.1694 19.7005 15.08 19.7953C14.9906 19.8901 14.8827 19.9655 14.7631 20.017C14.6434 20.0685 14.5145 20.0949 14.3842 20.0947H11.6154C11.4853 20.0945 11.3565 20.0677 11.237 20.0161C11.1175 19.9645 11.0097 19.889 10.9203 19.7944C10.831 19.6997 10.7618 19.5879 10.7171 19.4656C10.6724 19.3433 10.653 19.2132 10.6602 19.0833C10.6602 18.052 10.7561 17.8124 10.1352 17.1728C9.34356 16.3812 7.48106 15.2635 7.48106 12.1895C7.47631 11.426 7.62978 10.6697 7.93181 9.96843C8.23383 9.26714 8.67786 8.63603 9.2359 8.11487C9.79395 7.59371 10.4539 7.1938 11.1742 6.94036C11.8944 6.68692 12.6594 6.58544 13.4208 6.64231C14.1823 6.69918 14.9237 6.91318 15.5983 7.27081C16.2729 7.62844 16.8662 8.12194 17.3406 8.72022C17.815 9.3185 18.1604 10.0086 18.3549 10.7469C18.5494 11.4853 18.5888 12.256 18.4706 13.0103Z" stroke="#4D4D4D" stroke-width="1.5625" stroke-linecap="round" stroke-linejoin="round"/>
<path d="M11.3958 20.037V21.612C11.3958 22.0423 11.6354 22.3954 11.9302 22.3954H14.0687C14.3656 22.3954 14.6042 22.0412 14.6042 21.612V20.037M12.1875 9.05788C11.5724 9.05815 10.9827 9.30268 10.5478 9.7377C10.113 10.1727 9.86875 10.7626 9.86875 11.3777M20.6375 12.3995H22.5479M18.7146 6.13704L20.0698 4.78184M19.7562 17.7079L21.1115 19.062M13 2.47559V4.02038M5.95833 4.78079L7.30417 6.13704M4.91667 19.062L6.2625 17.7079M5.3625 12.3995H3.45312" stroke="#4D4D4D" stroke-width="1.5625" stroke-linecap="round" stroke-linejoin="round"/>
</svg>
