<svg width="50" height="50" viewBox="0 0 50 50" fill="none" xmlns="http://www.w3.org/2000/svg">
<rect width="50" height="50" rx="25" fill="#6688CC"/>
<path d="M17.5 15H23.75V25L20.625 23.125L17.5 25M32.5 12.5H17.5C16.837 12.5 16.2011 12.7634 15.7322 13.2322C15.2634 13.7011 15 14.337 15 15V35C15 35.663 15.2634 36.2989 15.7322 36.7678C16.2011 37.2366 16.837 37.5 17.5 37.5H32.5C33.163 37.5 33.7989 37.2366 34.2678 36.7678C34.7366 36.2989 35 35.663 35 35V15C35 14.337 34.7366 13.7011 34.2678 13.2322C33.7989 12.7634 33.163 12.5 32.5 12.5Z" fill="black" fill-opacity="0.8"/>
</svg>
