<svg width="317" height="300" viewBox="0 0 317 300" fill="none" xmlns="http://www.w3.org/2000/svg">
<path d="M309.682 158.66V159.16H310.182H313.125C313.784 159.16 314.416 159.422 314.882 159.888C315.348 160.354 315.61 160.986 315.61 161.645L315.61 175.243C315.61 175.243 315.61 175.244 315.61 175.244C315.608 175.902 315.346 176.534 314.88 176.999C314.414 177.465 313.783 177.728 313.124 177.729C313.124 177.729 313.124 177.729 313.124 177.729L294.882 177.729C294.222 177.729 293.59 177.467 293.124 177.001C292.658 176.535 292.396 175.903 292.396 175.244L292.396 161.645L292.396 161.644C292.396 161.317 292.459 160.994 292.584 160.692C292.709 160.391 292.891 160.117 293.122 159.886C293.353 159.655 293.627 159.472 293.929 159.348L293.754 158.923L293.929 159.348C294.231 159.223 294.554 159.159 294.88 159.16H294.882H297.817H298.317V158.66L298.317 158.157C298.317 158.157 298.317 158.157 298.317 158.157C298.319 156.914 298.814 155.723 299.693 154.845C300.572 153.967 301.764 153.474 303.007 153.474H304.999C306.241 153.475 307.431 153.969 308.309 154.847C309.187 155.725 309.681 156.916 309.682 158.157V158.66ZM298.735 158.156V158.157V158.66V159.16H299.235H308.764H309.264V158.66V158.157C309.264 157.026 308.815 155.941 308.015 155.141C307.215 154.341 306.13 153.892 304.999 153.892H303.007C301.875 153.892 300.79 154.341 299.989 155.14C299.188 155.94 298.737 157.024 298.735 158.156Z" fill="#F0B284" stroke="#F0B284"/>
<path d="M309.438 167.054H305.68V163.304H302.319V167.054H298.562V170.422H302.319V174.173H305.68V170.422H309.438V167.054Z" fill="white"/>
<path d="M307.311 77.618C306.726 77.618 306.148 77.5028 305.608 77.2789C305.068 77.0551 304.578 76.727 304.165 76.3134C303.752 75.8999 303.425 75.4089 303.202 74.8688C302.979 74.3286 302.864 73.7497 302.865 73.1653V61.1685C302.864 60.5841 302.979 60.0053 303.202 59.4651C303.425 58.9249 303.752 58.434 304.165 58.0204C304.578 57.6068 305.068 57.2788 305.608 57.0549C306.148 56.831 306.726 56.7158 307.311 56.7158C307.895 56.7158 308.474 56.831 309.014 57.0549C309.554 57.2788 310.044 57.6068 310.457 58.0204C310.87 58.434 311.197 58.9249 311.42 59.4651C311.643 60.0053 311.757 60.5841 311.756 61.1685V73.144C311.76 73.7302 311.648 74.3114 311.426 74.854C311.205 75.3967 310.878 75.8901 310.464 76.3059C310.051 76.7217 309.56 77.0518 309.019 77.2769C308.477 77.5021 307.897 77.618 307.311 77.618Z" fill="white" stroke="#F0B284" stroke-linecap="round" stroke-linejoin="round"/>
<path d="M307.311 77.6178C306.726 77.6178 306.148 77.5026 305.608 77.2788C305.068 77.0549 304.578 76.7268 304.165 76.3132C303.752 75.8997 303.425 75.4088 303.202 74.8686C302.979 74.3284 302.864 73.7495 302.865 73.1651V67.1738H311.756V73.1651C311.757 73.7495 311.643 74.3284 311.42 74.8686C311.197 75.4088 310.87 75.8997 310.457 76.3132C310.044 76.7268 309.554 77.0549 309.014 77.2788C308.474 77.5026 307.895 77.6178 307.311 77.6178Z" fill="#F0B284" stroke="#F0B284" stroke-linecap="round" stroke-linejoin="round"/>
<path d="M284.948 59.9484C284.583 59.4919 284.311 58.9676 284.149 58.4057C283.986 57.8438 283.937 57.2553 284.003 56.6742C284.069 56.0931 284.249 55.5307 284.533 55.0194C284.817 54.508 285.199 54.0579 285.657 53.6948L294.995 46.1932C295.92 45.4582 297.098 45.12 298.272 45.253C299.446 45.3859 300.519 45.979 301.256 46.9023C301.99 47.8258 302.328 49.0032 302.196 50.1758C302.063 51.3484 301.47 52.4203 300.547 53.1559L291.202 60.6504C290.745 61.0154 290.221 61.2869 289.66 61.4492C289.098 61.6115 288.51 61.6615 287.929 61.5963C287.349 61.5311 286.786 61.352 286.275 61.0692C285.763 60.7864 285.312 60.4056 284.948 59.9484Z" fill="white" stroke="#F0B284" stroke-linecap="round" stroke-linejoin="round"/>
<path d="M284.948 59.9488C284.583 59.4922 284.311 58.9679 284.149 58.406C283.986 57.8441 283.937 57.2557 284.003 56.6745C284.069 56.0934 284.249 55.531 284.533 55.0197C284.817 54.5084 285.199 54.0582 285.657 53.6951L290.33 49.9443L295.896 56.8857L291.223 60.6294C290.767 60.999 290.243 61.2746 289.68 61.4405C289.117 61.6064 288.527 61.6592 287.944 61.5959C287.361 61.5326 286.796 61.3545 286.281 61.0718C285.767 60.7891 285.314 60.4074 284.948 59.9488Z" fill="#F0B284" stroke="#F0B284" stroke-linecap="round" stroke-linejoin="round"/>
<path d="M240.485 27.805H240.485C240.949 27.8045 241.4 27.9523 241.774 28.2267C242.148 28.5012 242.424 28.8879 242.562 29.3304C242.7 29.7729 242.693 30.248 242.542 30.6863C242.391 31.1245 242.103 31.503 241.722 31.7663C241.34 32.0297 240.885 32.1641 240.421 32.1501C239.958 32.136 239.511 31.9741 239.147 31.688C238.782 31.402 238.518 31.0068 238.394 30.5602C238.27 30.1136 238.292 29.6389 238.456 29.2056L238.588 28.8602L238.296 28.6332L228.022 20.6425L227.665 20.3648L227.353 20.6923C226.688 21.3901 225.846 21.8935 224.917 22.1483C223.988 22.4031 223.006 22.3997 222.079 22.1385C221.151 21.8773 220.312 21.3682 219.653 20.6658C218.993 19.9635 218.537 19.0946 218.334 18.1525L218.249 17.7578H217.845H210.259H209.954L209.814 18.0291C209.575 18.4934 209.178 18.8566 208.694 19.0527C208.211 19.2488 207.672 19.2648 207.178 19.0979L207.018 19.5716L207.178 19.0979C206.683 18.9309 206.265 18.5921 205.999 18.1429L205.569 18.3976L205.999 18.1429C205.733 17.6937 205.637 17.164 205.729 16.65C205.82 16.1361 206.093 15.6721 206.498 15.3423C206.903 15.0125 207.412 14.8389 207.934 14.8529C208.456 14.867 208.955 15.0678 209.341 15.4188C209.728 15.7699 209.975 16.2479 210.039 16.766L210.093 17.205H210.535H217.711H218.184L218.21 16.7325C218.264 15.7505 218.591 14.8029 219.153 13.9962C219.716 13.1895 220.492 12.5554 221.395 12.1653C222.298 11.7751 223.291 11.6441 224.264 11.7872C225.238 11.9302 226.151 12.3416 226.904 12.9751L227.301 13.3092L227.62 12.9003L233.76 5.03719L233.99 4.7424L233.773 4.43832C233.513 4.07556 233.374 3.63996 233.377 3.19377L233.377 3.18995C233.376 2.72438 233.524 2.27075 233.8 1.89549C234.075 1.52023 234.464 1.24306 234.908 1.10456C235.353 0.966056 235.83 0.973494 236.27 1.12579C236.71 1.27808 237.09 1.56723 237.353 1.95088C237.617 2.33454 237.751 2.79257 237.736 3.25791C237.721 3.72324 237.557 4.17143 237.268 4.53687C236.98 4.90231 236.582 5.16579 236.133 5.28874C235.684 5.41169 235.207 5.38765 234.773 5.22013L234.427 5.08688L234.199 5.37863L227.888 13.4474L227.662 13.7367L227.871 14.0392C228.423 14.8402 228.743 15.7783 228.795 16.7498C228.848 17.7214 228.631 18.6885 228.169 19.5445L227.967 19.9173L228.302 20.1771L238.632 28.1963L238.927 28.4248L239.23 28.208C239.596 27.9461 240.035 27.8052 240.485 27.805Z" fill="#F0B284" stroke="#F0B284"/>
<path d="M30.6331 77.7029C29.7743 77.7011 28.9512 77.3591 28.3439 76.7518C27.7367 76.1446 27.3947 75.3215 27.3928 74.4627V47.5195H33.8734V74.4627C33.8734 75.322 33.532 76.1462 32.9243 76.7539C32.3166 77.3616 31.4925 77.7029 30.6331 77.7029Z" fill="white" stroke="#F0B284" stroke-linecap="round" stroke-linejoin="round"/>
<path d="M30.6331 77.7029C29.7743 77.701 28.9512 77.359 28.3439 76.7518C27.7367 76.1445 27.3947 75.3214 27.3928 74.4626V57.8926H33.8734V74.4626C33.8734 75.322 33.532 76.1462 32.9243 76.7538C32.3166 77.3615 31.4925 77.7029 30.6331 77.7029Z" fill="#F0B284" stroke="#F0B284" stroke-linecap="round" stroke-linejoin="round"/>
<path d="M34.8023 45.9453H26.4712V48.3064H34.8023V45.9453Z" fill="white" stroke="#F0B284" stroke-linecap="round" stroke-linejoin="round"/>
<path d="M20.813 77.7029C19.9542 77.7011 19.1311 77.3591 18.5239 76.7518C17.9166 76.1446 17.5746 75.3215 17.5728 74.4627V47.5195H24.0533V74.4627C24.0533 75.322 23.7119 76.1462 23.1042 76.7539C22.4966 77.3616 21.6724 77.7029 20.813 77.7029Z" fill="white" stroke="#F0B284" stroke-linecap="round" stroke-linejoin="round"/>
<path d="M20.813 77.7029C19.9542 77.701 19.1311 77.359 18.5239 76.7518C17.9166 76.1445 17.5746 75.3214 17.5728 74.4626V57.8926H24.0533V74.4626C24.0533 75.322 23.7119 76.1462 23.1042 76.7538C22.4966 77.3615 21.6724 77.7029 20.813 77.7029Z" fill="#F0B284" stroke="#F0B284" stroke-linecap="round" stroke-linejoin="round"/>
<path d="M24.9822 45.9453H16.6511V48.3064H24.9822V45.9453Z" fill="white" stroke="#F0B284" stroke-linecap="round" stroke-linejoin="round"/>
<path d="M121.014 21.8515L118.358 13.0931L118.357 13.0922C118.295 12.8892 118.172 12.7103 118.005 12.5798C117.838 12.4493 117.634 12.3736 117.422 12.3631L117.422 12.363L117.413 12.3627C117.205 12.3559 116.999 12.4118 116.822 12.5232C116.645 12.6346 116.506 12.7963 116.422 12.9876L116.422 12.9875L116.418 12.9964L113.965 18.8869L105.89 18.92C104.778 17.543 104.137 15.8438 104.064 14.072C104.066 12.2277 104.745 10.4482 105.972 9.07095C107.201 7.69118 108.895 6.81132 110.73 6.5987C112.566 6.38608 114.416 6.85553 115.928 7.91778C117.44 8.98003 118.509 10.561 118.931 12.3599L119.906 12.356C120.316 10.5444 121.381 8.94817 122.896 7.87393C124.412 6.7997 126.27 6.32319 128.116 6.53591C129.961 6.74864 131.662 7.6356 132.894 9.02646C134.123 10.4155 134.797 12.2093 134.786 14.0641C134.715 15.9892 133.965 17.8246 132.672 19.2471H126.077L124.868 15.7684L124.863 15.7567L124.859 15.7452C124.781 15.5526 124.649 15.3869 124.478 15.2685L124.193 15.6792L124.478 15.2685C124.307 15.15 124.106 15.0839 123.898 15.0782L123.886 15.0779L123.873 15.0782C123.657 15.0831 123.447 15.1562 123.274 15.2871C123.102 15.4176 122.975 15.5989 122.911 15.8054C122.911 15.806 122.911 15.8067 122.91 15.8073L121.014 21.8515Z" fill="#F0B284" stroke="#F0B284"/>
<path d="M125.346 21.3104C125.133 21.311 124.924 21.2453 124.749 21.1222C124.574 20.999 124.442 20.8244 124.371 20.6226L124.37 20.6201L123.945 19.397L121.98 25.661L121.979 25.6626C121.913 25.8719 121.782 26.0547 121.605 26.1849C121.428 26.315 121.214 26.3858 120.995 26.3871L120.99 26.3871C120.768 26.3863 120.551 26.3129 120.373 26.178C120.198 26.0443 120.07 25.8574 120.009 25.6452L117.219 16.4472L115.626 20.3132L115.625 20.316C115.546 20.5031 115.415 20.663 115.246 20.7755L114.968 20.3595L115.246 20.7755C115.077 20.8881 114.879 20.9484 114.676 20.9488L114.675 20.9488L107.669 20.9488C108.313 21.605 108.996 22.2387 109.678 22.8569C109.907 23.0648 110.137 23.2715 110.365 23.4768C111.092 24.1302 111.803 24.7695 112.431 25.3894L112.431 25.3897C113.261 26.2097 114.081 27.0357 114.9 27.8599C116.416 29.386 117.925 30.9055 119.473 32.3684C119.887 31.96 120.301 31.5515 120.716 31.1428C123.418 28.4771 126.126 25.8056 128.8 23.144C129.195 22.7485 129.59 22.3693 129.984 21.9915C130.219 21.765 130.455 21.539 130.689 21.3104M125.346 21.3104H125.346V20.8104L125.347 21.3104C125.347 21.3104 125.347 21.3104 125.346 21.3104ZM125.346 21.3104H130.689M130.689 21.3104H131.402L131.196 20.8104C131.027 20.9793 130.859 21.1455 130.689 21.3104ZM124.842 20.4559L124.196 18.5966L124.842 20.4559ZM123.669 18.6046L121.503 25.5113C121.468 25.6199 121.4 25.7147 121.308 25.7822C121.217 25.8497 121.106 25.8864 120.992 25.8871C120.878 25.8867 120.767 25.8491 120.676 25.78C120.585 25.7109 120.519 25.6141 120.489 25.5042L117.52 15.7169L123.669 18.6046Z" fill="#F0B284" stroke="#F0B284"/>
<path d="M5.73819 179.288L9.21484 180.494L12.9767 169.649L9.50007 168.443L5.73819 179.288Z" fill="white" stroke="#F0B284" stroke-miterlimit="10"/>
<path d="M4.08986 181.01L9.45557 182.871L10.1643 180.828L4.79856 178.967L4.08986 181.01Z" fill="white" stroke="#F0B284" stroke-miterlimit="10"/>
<path d="M5.66624 171.234L14.2607 174.215L21.0758 154.567L12.4813 151.586L5.66624 171.234Z" fill="white" stroke="#F0B284" stroke-miterlimit="10"/>
<path d="M9.84524 162.829L16.189 165.029L19.9508 154.184L13.6071 151.984L9.84524 162.829Z" fill="#F0B284" stroke="#F0B284" stroke-miterlimit="10"/>
<path d="M8.72305 170.691L12.1997 171.896L15.9616 161.051L12.4849 159.845L8.72305 170.691Z" fill="#F0B284" stroke="#F0B284" stroke-miterlimit="10"/>
<path d="M5.05951 171.027L14.8799 174.434L15.7326 171.975L5.91226 168.569L5.05951 171.027Z" fill="white" stroke="#F0B284" stroke-miterlimit="10"/>
<path d="M14.577 151.177L19.6948 152.952L20.8311 149.676L15.7132 147.901L14.577 151.177Z" fill="white" stroke="#F0B284" stroke-miterlimit="10"/>
<path d="M11.6598 151.993L21.4802 155.399L22.333 152.941L12.5126 149.535L11.6598 151.993Z" fill="white" stroke="#F0B284" stroke-miterlimit="10"/>
<path d="M18.3245 148.344L22.4368 136.475" stroke="#F0B284" stroke-miterlimit="10"/>
<path d="M246.972 295.857C267.464 295.857 284.076 292.111 284.076 287.491C284.076 282.87 267.464 279.124 246.972 279.124C226.481 279.124 209.869 282.87 209.869 287.491C209.869 292.111 226.481 295.857 246.972 295.857Z" fill="black"/>
<path d="M218.363 98.3779C218.363 98.3779 213.343 101.448 213.4 102.795C213.457 104.142 211.528 128.71 211.308 131.78C211.088 134.85 208.167 141.189 207.94 144.068C207.713 146.946 208.437 149.832 209.28 151.158C210.124 152.484 213.223 156.724 213.223 156.724L221.554 143.855C221.758 141.045 221.801 138.226 221.681 135.411C221.554 129.277 218.363 98.3779 218.363 98.3779Z" fill="white" stroke="black" stroke-linecap="round" stroke-linejoin="round"/>
<path d="M250.418 37.5008C250.418 37.5008 241.556 36.9335 236.507 43.0808C231.459 49.2281 232.544 58.6299 232.508 61.5156C232.473 64.4014 223.901 72.8601 224.851 76.306C225.801 79.7519 228.325 80.1418 227.517 83.0205C226.708 85.8992 221.433 87.6292 222.199 91.2807C222.965 94.9322 225.744 100.108 225.744 100.108L276.794 100.456C276.794 100.456 278.617 95.0811 276.674 91.0467C274.731 87.0123 271.973 85.6794 272.42 83.7579C272.866 81.8364 275.334 77.2277 274.384 73.7747C273.434 70.3218 270.129 69.3646 269.782 63.2173C269.435 57.07 268.527 46.9096 263.649 41.9464C258.771 36.9832 250.418 37.5008 250.418 37.5008Z" fill="black" stroke="black" stroke-linecap="round" stroke-linejoin="round"/>
<path d="M234.72 274.395C233.153 277.416 231.25 280.251 229.048 282.847C225.787 286.498 222.624 288.419 222.731 290.341C222.837 292.262 229.956 292.638 233.721 291.291C237.486 289.944 240.222 287.257 240.981 287.037C241.74 286.817 243.86 287.037 243.909 284.343C243.959 281.648 243.548 273.977 243.548 273.977L234.72 274.395Z" fill="white" stroke="black" stroke-linecap="round" stroke-linejoin="round"/>
<path d="M233.706 291.291C237.478 289.943 240.208 287.256 240.967 287.036C241.726 286.817 243.846 287.036 243.895 284.342C243.895 282.924 243.817 280.088 243.718 277.769C243.16 278.816 242.334 279.695 241.325 280.318C240.316 280.941 239.16 281.285 237.975 281.314C237.975 281.314 237.904 279.967 235.848 277.67C234.522 276.167 233.182 277.351 232.402 278.379L231.771 279.329L231.721 279.421C230.903 280.629 230.007 281.782 229.041 282.874C225.779 286.526 222.617 288.447 222.724 290.369C222.83 292.29 229.941 292.638 233.706 291.291Z" fill="white" stroke="black" stroke-linecap="round" stroke-linejoin="round"/>
<path d="M260.99 274.381C262.895 277.412 265.105 280.242 267.584 282.825C271.236 286.47 274.603 288.384 274.674 290.306C274.745 292.227 267.698 292.61 263.784 291.27C259.87 289.93 256.849 287.242 256.077 287.051C255.304 286.86 253.191 287.051 252.858 284.371C252.524 281.691 252.106 274.005 252.106 274.005L260.99 274.381Z" fill="white" stroke="black" stroke-linecap="round" stroke-linejoin="round"/>
<path d="M263.812 291.27C259.905 289.93 256.878 287.243 256.105 287.051C255.332 286.86 253.219 287.051 252.886 284.371C252.709 282.953 252.51 280.117 252.361 277.791C253.017 278.831 253.918 279.694 254.984 280.305C256.051 280.915 257.251 281.255 258.48 281.294C258.48 281.294 258.409 279.947 260.203 277.643C261.373 276.146 262.841 277.323 263.748 278.352C263.982 278.664 264.223 278.975 264.457 279.302L264.521 279.394C265.474 280.599 266.492 281.752 267.57 282.847C271.221 286.491 274.589 288.406 274.66 290.327C274.731 292.249 267.726 292.61 263.812 291.27Z" fill="white" stroke="black" stroke-linecap="round" stroke-linejoin="round"/>
<path d="M219.299 173.053C219.299 173.053 220.483 212.979 222.057 220.849C223.631 228.719 230.658 273.828 230.658 273.828C232.806 274.736 235.118 275.19 237.45 275.161H245.129L245.838 241.567L246.1 192.807L249.95 275.345C249.95 275.345 260.529 275.721 261.671 275.529C262.812 275.338 263.762 275.146 263.762 275.146L270.562 222.926L274.455 188.184L274.667 174.365C274.667 174.365 242.165 173.238 232.721 172.472C223.277 171.706 219.391 171.515 219.391 171.515L219.299 173.053Z" fill="#6688CC" stroke="black" stroke-linecap="round" stroke-linejoin="round"/>
<path d="M263.188 243.545C263.103 244.211 263.018 244.828 262.918 245.395" stroke="black" stroke-linecap="round" stroke-linejoin="round"/>
<path d="M264.06 195.479C264.06 195.479 264.719 223.926 263.564 239.368" stroke="black" stroke-linecap="round" stroke-linejoin="round"/>
<path d="M229.211 193.196C229.211 193.196 230.027 212.014 230.835 216.233" stroke="black" stroke-linecap="round" stroke-linejoin="round"/>
<path d="M259.508 181.207V195.572C261.349 196.068 263.231 196.393 265.131 196.543C268.045 196.735 273.483 196.543 273.483 196.543L273.873 191.105L259.508 181.207Z" fill="black" stroke="black" stroke-linecap="round" stroke-linejoin="round"/>
<path d="M219.902 192.268C219.902 192.268 227.283 194.601 230.388 194.792C233.494 194.984 236.401 195.374 236.401 195.374L236.018 191.495L219.512 189.942L219.902 192.268Z" fill="black" stroke="black" stroke-linecap="round" stroke-linejoin="round"/>
<path d="M242.307 83.1973L236.514 89.7274L220.448 101.448L223.872 172.485C223.872 172.485 236.677 175.931 247.667 176.888C258.657 177.846 272.788 175.329 272.788 175.329L270.711 100.88C270.711 100.88 264.457 91.6631 261.252 89.1744C258.048 86.6857 256.58 84.3813 252.333 83.9985C248.086 83.6156 242.307 83.1973 242.307 83.1973Z" fill="#6688CC" stroke="black" stroke-linecap="round" stroke-linejoin="round"/>
<path d="M235.585 86.6936L218.363 98.4139L221.064 141.601L220.15 145.94L212.911 154.278L215.995 168.927L214.619 189.595C214.619 189.595 221.462 191.9 226.099 192.467C229.551 192.837 233.021 193.028 236.493 193.041L237.089 164.822C237.089 164.822 239.379 117.976 239.648 115.899C239.918 113.821 242.307 83.2832 242.307 83.2832L235.585 86.6936Z" fill="white" stroke="black" stroke-linecap="round" stroke-linejoin="round"/>
<path d="M235.862 88.459L227.524 109.368L236.521 113.105L228.027 114.651L235.55 144.125" stroke="black" stroke-linecap="round" stroke-linejoin="round"/>
<path d="M240.861 77.6318C240.861 77.6318 243.853 97.591 246.207 102.2C248.561 106.808 249.227 108.34 249.227 108.34C249.227 108.34 254.346 92.7838 255.374 90.4795C256.403 88.1751 257.502 79.922 257.502 79.922C257.502 79.922 247.299 83.1906 240.861 77.6318Z" fill="white" stroke="black" stroke-linecap="round" stroke-linejoin="round"/>
<path d="M240.861 77.6318C240.861 77.6318 241.13 79.447 241.57 82.1058C243.066 83.2474 247.029 86.0693 249.957 86.2182C252.191 86.3316 255.027 84.8852 256.913 83.7295C257.253 81.6379 257.487 79.922 257.487 79.922C257.487 79.922 247.299 83.1906 240.861 77.6318Z" fill="black" stroke="black" stroke-linecap="round" stroke-linejoin="round"/>
<path d="M236.798 63.834C236.798 63.834 234.756 60.927 233.38 63.834C232.005 66.741 235.507 71.0448 236.486 71.6333C239.265 73.2854 238.528 70.2153 238.528 70.2153L236.798 63.834Z" fill="white" stroke="black" stroke-linecap="round" stroke-linejoin="round"/>
<path d="M262.16 65.0892C262.16 65.0892 263.883 62.0829 265.57 64.919C267.258 67.7551 264.216 72.2149 263.308 72.846C260.713 74.6398 261.125 71.5626 261.125 71.5626L262.16 65.0892Z" fill="white" stroke="black" stroke-linecap="round" stroke-linejoin="round"/>
<path d="M236.316 61.2673C236.316 61.2673 243.718 59.5372 247.447 57.3322C249.732 55.9525 251.724 54.1387 253.311 51.9932C253.311 51.9932 256.516 58.0483 259.338 60.5015C262.16 62.9548 262.748 63.0966 262.748 63.0966C262.748 63.0966 261.394 73.6966 259.863 77.3835C258.331 81.0705 253.332 84.6582 248.667 83.623C246.015 83.0416 241.421 81.1272 240.088 77.9011C238.755 74.675 236.316 61.2673 236.316 61.2673Z" fill="white" stroke="black" stroke-linecap="round" stroke-linejoin="round"/>
<path d="M255.204 69.4141C252.907 69.4708 245.214 69.485 241.243 67.0884C239.652 66.1619 238.162 65.0711 236.798 63.834C236.94 64.543 237.11 65.4293 237.294 66.351L238.159 66.9821L240.329 75.1785L239.315 75.3983C239.529 76.2361 239.787 77.0621 240.088 77.8728C241.421 81.0989 246.015 83.0133 248.667 83.5947C253.325 84.6228 258.31 81.0563 259.856 77.3765C259.491 76.6615 259.383 75.8429 259.551 75.0579C259.997 72.7394 260.55 68.6767 260.55 68.6767L262.132 67.2586C262.217 66.741 262.287 66.2447 262.358 65.7909C260.444 67.1168 256.856 69.3715 255.204 69.4141Z" fill="#6688CC" stroke="black" stroke-linecap="round" stroke-linejoin="round"/>
<path d="M246.76 65.9899C246.76 65.9899 244.285 62.9836 241.038 63.2602" stroke="black" stroke-linecap="round" stroke-linejoin="round"/>
<path d="M253.134 66.585C253.924 65.7548 254.904 65.1308 255.991 64.7674C257.077 64.404 258.236 64.3123 259.366 64.5004" stroke="black" stroke-linecap="round" stroke-linejoin="round"/>
<path d="M239.613 61.7569C239.613 61.7569 243.158 60.3388 246.299 61.0053" stroke="black" stroke-linecap="round" stroke-linejoin="round"/>
<path d="M253.425 61.7776C254.359 61.3004 255.417 61.122 256.455 61.2666C257.494 61.4112 258.463 61.8718 259.232 62.5859" stroke="black" stroke-linecap="round" stroke-linejoin="round"/>
<path d="M244.378 65.0045C244.394 65.1135 244.388 65.2245 244.361 65.3313C244.334 65.4381 244.286 65.5385 244.22 65.6268C244.154 65.7151 244.072 65.7895 243.977 65.8457C243.882 65.902 243.778 65.939 243.669 65.9546C243.447 65.9296 243.243 65.8212 243.098 65.6514C242.953 65.4815 242.878 65.2629 242.889 65.04C242.872 64.9309 242.876 64.8195 242.903 64.7123C242.93 64.6051 242.977 64.5043 243.043 64.4159C243.109 64.3274 243.192 64.253 243.288 64.197C243.383 64.141 243.488 64.1046 243.598 64.0898C243.819 64.1164 244.022 64.2253 244.166 64.3947C244.311 64.5642 244.386 64.7819 244.378 65.0045Z" fill="black"/>
<path d="M257.218 65.9261C257.237 66.0355 257.234 66.1475 257.208 66.2555C257.182 66.3635 257.135 66.465 257.068 66.554C257.002 66.6429 256.918 66.7174 256.822 66.7728C256.726 66.8282 256.619 66.8634 256.509 66.8762C256.288 66.8529 256.084 66.746 255.939 66.5773C255.794 66.4086 255.719 66.1909 255.729 65.9687C255.71 65.8593 255.713 65.7473 255.739 65.6393C255.765 65.5313 255.812 65.4298 255.879 65.3408C255.945 65.2519 256.029 65.1774 256.125 65.122C256.221 65.0666 256.328 65.0314 256.438 65.0186C256.659 65.0418 256.863 65.1488 257.008 65.3175C257.153 65.4862 257.228 65.7039 257.218 65.9261Z" fill="black"/>
<path d="M276.312 94.3086C276.312 94.3086 280.446 96.223 281.984 99.2718C283.523 102.321 295.825 135.354 295.768 137.85C295.711 140.346 291.641 143.225 287.827 143.615C284.012 144.005 278.453 137.091 277.624 135.943C276.794 134.794 276.645 121.351 276.645 121.351L276.312 94.3086Z" fill="white" stroke="black" stroke-linecap="round" stroke-linejoin="round"/>
<path d="M256.828 85.4883L258.842 151.527L259.551 193.183C263.411 194.132 267.367 194.644 271.342 194.707C274.657 194.777 277.954 194.189 281.041 192.977C281.041 192.977 279.836 167.062 279.623 162.836C279.411 158.611 278.007 150.549 278.007 150.549L276.333 94.3086C276.333 94.3086 260.756 87.0198 256.828 85.4883Z" fill="white" stroke="black" stroke-linecap="round" stroke-linejoin="round"/>
<path d="M261.252 89.1328L268.392 112.424L261.883 114.19L268.215 117.26L260.316 142.353" fill="white"/>
<path d="M261.252 89.1328L268.392 112.424L261.883 114.19L268.215 117.26L260.316 142.353" stroke="black" stroke-linecap="round" stroke-linejoin="round"/>
<path d="M266.23 110.438L257.374 152.867C257.374 152.867 263.429 154.781 267.853 154.994C272.278 155.207 281.495 155.178 281.495 155.178L290.713 115.629C290.713 115.629 272.569 113.891 266.23 110.438Z" fill="#F0B284" stroke="black" stroke-linecap="round" stroke-linejoin="round"/>
<path d="M269.314 149.982L269.605 136.723L276.631 138.205C276.631 138.205 271.987 148.436 269.314 149.982Z" fill="white" stroke="black" stroke-linecap="round" stroke-linejoin="round"/>
<path d="M274.695 131.929C274.695 131.929 272.824 129.249 272.221 128.667C271.618 128.086 268.64 126.37 268.066 126.37C267.492 126.37 264.407 126.179 263.812 126.179C263.216 126.179 262.543 127.526 263.152 128.1C263.762 128.674 265.882 128.866 265.882 128.866L267.336 130.993L260.777 130.419C260.777 130.419 259.685 131.574 259.933 132.546C260.119 133.204 260.356 133.846 260.642 134.467C260.618 135.877 260.691 137.287 260.862 138.686C261.117 139.842 262.28 140.225 263.876 141.182C265.471 142.139 270.81 141.565 270.81 141.565H273.277L274.695 131.929Z" fill="white" stroke="black" stroke-linecap="round" stroke-linejoin="round"/>
<path d="M290.684 133.263L273.667 130.973C273.667 130.973 272.342 141.92 271.001 145.564C269.661 149.209 269.314 149.982 269.314 149.982C269.314 149.982 287.146 149.585 291.351 149.202C295.555 148.819 297.916 146.316 297.732 142.863C297.548 139.41 295.442 135.95 295.442 135.95" fill="white"/>
<path d="M290.684 133.263L273.667 130.973C273.667 130.973 272.342 141.92 271.001 145.564C269.661 149.209 269.314 149.982 269.314 149.982C269.314 149.982 287.146 149.585 291.351 149.202C295.555 148.819 297.916 146.316 297.732 142.863C297.548 139.41 295.442 135.95 295.442 135.95" stroke="black" stroke-linecap="round" stroke-linejoin="round"/>
<path d="M219.724 145.217C219.724 145.217 223.695 147.706 224.688 148.478C225.68 149.251 225.765 154.236 226.396 155.193C227.027 156.15 226.283 156.731 225.134 156.731C223.986 156.731 222.249 153.087 222.249 153.087L222.178 151.74L214.066 154.434L211.939 150.79C211.939 150.79 214.35 145.217 219.724 145.217Z" fill="white" stroke="black" stroke-linecap="round" stroke-linejoin="round"/>
<path d="M160.634 295.857C181.126 295.857 197.737 292.111 197.737 287.491C197.737 282.87 181.126 279.124 160.634 279.124C140.142 279.124 123.53 282.87 123.53 287.491C123.53 292.111 140.142 295.857 160.634 295.857Z" fill="black"/>
<path d="M189.612 88.6709C189.612 88.6709 194.476 113.083 195.341 117.599C196.206 122.116 197.794 132.851 199.595 137.559C201.396 142.266 200.807 148.293 199.907 149.988C199.004 151.46 197.967 152.847 196.809 154.129L190.768 146.251C190.768 146.251 187.173 107.652 187.038 102.185C186.903 96.7184 189.612 88.6709 189.612 88.6709Z" fill="white" stroke="black" stroke-linecap="round" stroke-linejoin="round"/>
<path d="M192.817 145.287C192.817 145.287 196.645 147.677 197.319 148.69C197.993 149.704 198.475 150.995 197.95 152.094C197.425 153.193 194.568 156.511 193.845 157.156C193.122 157.801 192.512 155.228 192.427 153.016C192.342 150.803 192.817 145.287 192.817 145.287Z" fill="white" stroke="black" stroke-linecap="round" stroke-linejoin="round"/>
<path d="M172.226 279.152C172.226 279.152 184.23 284.988 184.989 286.122C185.748 287.257 183.011 288.767 175.857 288.767C168.703 288.767 168.49 287.824 165.647 287.072C162.803 286.321 157.138 286.881 156.372 285.186C155.607 283.492 156.94 277.656 156.94 277.656L172.226 279.152Z" fill="white" stroke="black" stroke-linecap="round" stroke-linejoin="round"/>
<path d="M156.287 282.166C156.287 282.166 166.214 288.193 165.342 290.263C164.47 292.333 157.294 292.333 153.515 291.766C149.736 291.199 141.703 286.094 141.277 284.236C140.852 282.378 141.915 279.528 147.736 278.968C153.558 278.408 156.287 282.166 156.287 282.166Z" fill="white" stroke="black" stroke-linecap="round" stroke-linejoin="round"/>
<path d="M186.421 183.688C186.421 183.688 180.749 227.372 179.763 233.774C178.778 240.177 175.651 250.344 173.964 258.066C173.007 262.607 172.297 267.196 171.836 271.814C171.664 273.127 171.695 274.459 171.929 275.763C172.17 277.649 172.205 279.152 172.205 279.152C169.68 279.786 167.111 280.227 164.519 280.471C161.322 280.662 156.989 280.662 156.989 280.662L155.571 268.425C155.571 268.425 156.628 250.344 157.252 245.076C157.876 239.808 158.542 198.38 158.514 197.245C158.485 196.111 158.237 186.135 158.237 186.135L177.558 184.064C177.558 184.064 180.196 176.534 184.159 176.91C188.123 177.286 186.421 183.688 186.421 183.688Z" fill="white" stroke="black" stroke-linecap="round" stroke-linejoin="round"/>
<path d="M184.188 176.91C180.224 176.534 177.587 184.064 177.587 184.064L158.244 186.135C158.244 186.135 158.308 188.786 158.372 191.509C160.435 191.693 162.343 191.8 163.973 191.8C170.17 191.79 176.362 191.442 182.522 190.757L183.351 182.079L184.649 190.921L185.542 190.63C186.095 186.418 186.45 183.674 186.45 183.674C186.45 183.674 188.151 177.286 184.188 176.91Z" fill="black" stroke="black" stroke-linecap="round" stroke-linejoin="round"/>
<path d="M138.065 185.007C138.065 185.007 138.065 185.276 138.108 185.766C138.37 190.913 139.93 220.742 140.405 226.244C140.937 232.271 138.278 238.858 138.413 244.317C138.548 249.777 139.831 279.343 139.831 279.343L141.249 284.236C141.249 284.236 144.581 281.981 147.779 281.981C150.977 281.981 156.288 282.165 156.288 282.165C156.288 282.165 156.564 278.209 156.536 276.897C156.507 275.585 156.387 270.87 156.387 270.87C156.387 270.87 161.797 246.203 162.123 244.133C162.449 242.062 166.646 206.285 166.618 205.136C166.59 203.988 167.504 187.999 167.504 187.999L138.065 185.007Z" fill="white" stroke="black" stroke-linecap="round" stroke-linejoin="round"/>
<path d="M167.306 191.764C167.426 189.58 167.511 188.02 167.511 188.02L138.065 185.007C138.065 185.007 138.065 185.276 138.108 185.766C138.108 186.389 138.186 187.375 138.257 188.602C145.142 189.835 157.089 191.778 163.973 191.778C165.108 191.799 166.214 191.785 167.306 191.764Z" fill="black" stroke="black" stroke-linecap="round" stroke-linejoin="round"/>
<path d="M159.762 69.3923C159.762 69.3923 156.649 69.9169 155.465 71.3066C154.278 72.6584 153.211 74.1102 152.274 75.6459C152.111 76.1706 133.804 87.2811 133.804 87.2811L135.123 140.26C135.123 140.26 135.669 148.421 134.698 151.2C133.057 156.665 132.261 162.348 132.337 168.054C132.507 174.825 132.946 185.78 132.946 185.78C132.946 185.78 153.898 189.949 163.973 189.949C170.171 189.934 176.363 189.581 182.522 188.892L183.351 180.207L184.613 189.069L188.917 187.651L192.462 161.417C192.462 161.417 194.93 155.858 194.901 154.639C194.873 153.419 195.525 151.86 194.809 150.817C194.093 149.775 192.817 147.69 192.817 147.69C192.817 147.69 189.612 90.2377 189.612 88.6708C189.612 87.1038 180.132 77.9077 179.43 77.5603C178.728 77.2128 174.403 70.7819 168.795 69.0519C163.186 67.3219 159.762 69.3923 159.762 69.3923Z" fill="white" stroke="black" stroke-linecap="round" stroke-linejoin="round"/>
<path d="M154.054 77.3828L151.955 96.4628L160.577 100.469L158.422 106.942L179.983 144.833" stroke="black" stroke-linecap="round" stroke-linejoin="round"/>
<path d="M178.14 79.5244L184.606 94.6197L181.834 98.3137L186.457 104.78L184.606 146.372" stroke="black" stroke-linecap="round" stroke-linejoin="round"/>
<path d="M158.96 72.0021C159.118 75.7244 159.793 79.4067 160.967 82.9425C162.832 88.1539 175.19 124.109 175.19 124.109L183.181 152.243C183.181 152.243 182.124 123.584 182.096 122.372C182.068 121.159 176.041 81.3755 176.041 81.3755C176.041 81.3755 175.013 74.9517 173.389 72.5197C171.766 70.0878 160.882 65.5712 158.96 72.0021Z" fill="#6688CC" stroke="black" stroke-linecap="round" stroke-linejoin="round"/>
<path d="M158.195 69.2227C158.195 69.2227 153.168 69.7402 154.054 77.3836C154.94 85.0269 156.11 90.2383 156.11 90.2383" stroke="black" stroke-width="2" stroke-linecap="round" stroke-linejoin="round"/>
<path d="M155.493 100.313C155.493 100.313 157.62 109.169 159.074 111.601C160.528 114.033 164.924 116.465 168.05 116.465" stroke="black" stroke-linecap="round" stroke-linejoin="round"/>
<path d="M162.215 98.2285C162.215 98.2285 164.555 108.474 164.945 110.388C165.335 112.303 164.044 115.94 161.875 119.606" stroke="black" stroke-linecap="round" stroke-linejoin="round"/>
<path d="M161.251 120.818C161.028 120.695 160.862 120.489 160.79 120.245C160.719 120 160.746 119.738 160.868 119.514L161.116 119.06C161.177 118.951 161.259 118.856 161.357 118.78C161.456 118.704 161.568 118.648 161.688 118.615C161.808 118.583 161.934 118.575 162.057 118.591C162.18 118.608 162.299 118.649 162.406 118.712C162.63 118.835 162.795 119.041 162.868 119.285C162.941 119.529 162.915 119.792 162.796 120.017L162.548 120.464C162.487 120.573 162.405 120.669 162.306 120.746C162.208 120.823 162.095 120.88 161.974 120.913C161.853 120.946 161.727 120.955 161.603 120.938C161.479 120.922 161.359 120.881 161.251 120.818Z" fill="black"/>
<path d="M169.213 116.657C169.213 116.782 169.188 116.906 169.139 117.021C169.09 117.136 169.019 117.24 168.929 117.327C168.839 117.413 168.732 117.481 168.615 117.525C168.498 117.57 168.374 117.59 168.249 117.586H167.731C167.476 117.58 167.233 117.474 167.055 117.291C166.878 117.108 166.779 116.862 166.781 116.607C166.78 116.483 166.804 116.359 166.852 116.244C166.9 116.129 166.971 116.025 167.061 115.938C167.15 115.851 167.257 115.783 167.373 115.739C167.489 115.694 167.614 115.674 167.738 115.678H168.256C168.511 115.686 168.753 115.792 168.932 115.974C169.111 116.157 169.211 116.402 169.213 116.657Z" fill="black"/>
<path d="M155.507 101.008L154.316 93.457C154.183 92.6784 154.352 91.8784 154.788 91.2198C155.224 90.5612 155.895 90.0935 156.663 89.9118C157.491 89.7235 158.361 89.8635 159.088 90.3024C159.815 90.7414 160.344 91.4452 160.563 92.2658L162.598 99.7815" stroke="black" stroke-width="2" stroke-linecap="round" stroke-linejoin="round"/>
<path d="M183.535 106.112C185.241 105.941 186.465 104.207 186.268 102.24C186.071 100.272 184.527 98.8154 182.821 98.9864C181.114 99.1573 179.89 100.891 180.088 102.859C180.285 104.826 181.828 106.283 183.535 106.112Z" fill="white" stroke="black" stroke-linecap="round" stroke-linejoin="round"/>
<path d="M174.814 72.4062C174.814 72.4062 181.642 82.0136 183.819 101.597" stroke="black" stroke-width="2" stroke-linecap="round" stroke-linejoin="round"/>
<path d="M184 103.864C184.932 103.777 185.606 102.825 185.505 101.737C185.404 100.649 184.566 99.8376 183.634 99.9242C182.702 100.011 182.029 100.963 182.13 102.051C182.231 103.139 183.069 103.95 184 103.864Z" fill="white" stroke="black" stroke-linecap="round" stroke-linejoin="round"/>
<path d="M193.979 146.783C193.561 148.081 193.217 149.402 192.951 150.739C192.951 151.306 192.817 153.001 191.491 152.618C190.165 152.235 190.562 145.464 190.732 144.713C190.902 143.961 194.128 146.393 194.128 146.393" fill="white"/>
<path d="M193.979 146.783C193.561 148.081 193.217 149.402 192.951 150.739C192.951 151.306 192.817 153.001 191.491 152.618C190.165 152.235 190.562 145.464 190.732 144.713C190.902 143.961 194.128 146.393 194.128 146.393" stroke="black" stroke-linecap="round" stroke-linejoin="round"/>
<path d="M150.941 140.785C152.121 141.434 153.438 141.792 154.784 141.827C156.869 141.827 160.676 141.118 162.073 141.48C163.47 141.842 167.036 146.337 167.036 146.337C167.036 146.337 168.1 147.379 167.596 147.904C167.093 148.428 166.065 149.322 165.356 148.769C164.647 148.216 161.102 145.295 161.102 145.295L152.161 148.946L148.488 147.032L150.941 140.785Z" fill="white" stroke="black" stroke-linecap="round" stroke-linejoin="round"/>
<path d="M137.25 86.0693C137.25 86.0693 131.358 86.7784 130.358 88.3241C129.358 89.8697 113.214 125.321 113.249 126.888C113.285 128.455 145.531 153.831 145.531 153.831L152.494 140.58L135.073 124.428L142.632 106.886" fill="white"/>
<path d="M137.25 86.0693C137.25 86.0693 131.358 86.7784 130.358 88.3241C129.358 89.8697 113.214 125.321 113.249 126.888C113.285 128.455 145.531 153.831 145.531 153.831L152.494 140.58L135.073 124.428L142.632 106.886" stroke="black" stroke-linecap="round" stroke-linejoin="round"/>
<path d="M148.119 160.234L165.15 160.581L165.065 149.988" stroke="black" stroke-linecap="round" stroke-linejoin="round"/>
<path d="M152.182 148.945L147.68 150.626" stroke="black" stroke-linecap="round" stroke-linejoin="round"/>
<path d="M157.315 61.7496C157.315 61.7496 159.251 76.8661 160.527 79.1208C161.804 81.3755 170.879 90.4086 170.879 90.4086C170.879 90.4086 173.715 79.9929 174.034 77.5609C174.353 75.1289 174.602 65.4011 174.602 65.4011L157.28 60.5371L157.315 61.7496Z" fill="white" stroke="black" stroke-linecap="round" stroke-linejoin="round"/>
<path d="M157.315 61.7496C157.315 61.7496 157.542 63.5221 157.89 65.9399C159.247 67.2041 160.799 68.243 162.484 69.0171C164.718 70.0027 170.674 70.5557 174.439 70.1161C174.538 67.5707 174.602 65.4011 174.602 65.4011L157.28 60.5371L157.315 61.7496Z" fill="black" stroke="black" stroke-linecap="round" stroke-linejoin="round"/>
<path d="M152.296 48.5544C152.296 48.5544 149.977 46.1224 148.829 48.8948C147.68 51.6671 150.247 55.8433 151.615 56.0205C152.427 56.1264 153.252 56.0661 154.04 55.8433C154.04 55.8433 155.011 59.8422 155.905 61.0546C157.663 63.2779 159.916 65.0599 162.484 66.2589C165.647 67.677 176.233 68.1804 177.573 66.2589C178.913 64.3374 178.835 54.099 178.813 53.234C178.792 52.369 178.643 39.9893 178.643 39.9893C178.643 39.9893 179.593 35.6926 178.303 32.736C177.012 29.7793 164.059 25.6457 160.804 27.3544C157.55 29.0632 153.799 32.0411 153.544 35.8628C153.288 39.6845 153.444 45.9381 153.444 45.9381L152.296 48.5544Z" fill="white" stroke="black" stroke-linecap="round" stroke-linejoin="round"/>
<path d="M171.439 43.165C171.439 43.165 173.602 53.0915 173.106 54.2826C172.609 55.4738 171.056 55.4951 169.114 54.4528C167.171 53.4105 168.185 52.0208 168.185 52.0208" stroke="black" stroke-linecap="round" stroke-linejoin="round"/>
<path d="M163.909 54.6309C163.909 54.6309 164.845 57.233 166.582 57.4103C168.32 57.5875 172.68 57.9278 172.68 57.9278" stroke="black" stroke-linecap="round" stroke-linejoin="round"/>
<path d="M157.706 43.5127L157.982 47.6818C157.982 47.6818 159.57 48.554 163.215 48.554C166.859 48.554 168.057 47.6818 168.057 47.6818L167.958 43.5127C167.958 43.5127 162.669 40.3859 157.706 43.5127Z" stroke="black" stroke-linecap="round" stroke-linejoin="round"/>
<path d="M171.454 43.513L172.772 47.8593C172.772 47.8593 173.311 48.5684 176.963 48.5684C180.614 48.5684 181.813 47.6963 181.813 47.6963L181.706 43.5272C181.706 43.5272 176.41 40.3862 171.454 43.513Z" stroke="black" stroke-linecap="round" stroke-linejoin="round"/>
<path d="M167.979 43.5127H171.454" stroke="black" stroke-linecap="round" stroke-linejoin="round"/>
<path d="M157.727 43.5127L150.877 47.5116" stroke="black" stroke-linecap="round" stroke-linejoin="round"/>
<path d="M159.414 41.4283C159.414 41.4283 161.272 39.3438 165.484 41.0809" stroke="black" stroke-linecap="round" stroke-linejoin="round"/>
<path d="M172.092 41.4283C172.717 40.9265 173.472 40.6116 174.268 40.52C175.065 40.4284 175.871 40.5639 176.594 40.9107" stroke="black" stroke-linecap="round" stroke-linejoin="round"/>
<path d="M163.853 45.4268C163.853 46.1926 163.576 46.8449 163.193 46.8449C162.811 46.8449 162.484 46.221 162.484 45.4268C162.484 44.6327 162.761 44.0088 163.151 44.0088C163.541 44.0088 163.839 44.654 163.853 45.4268Z" fill="black"/>
<path d="M174.97 45.2501C174.97 46.0158 174.694 46.6682 174.311 46.6682C173.928 46.6682 173.602 46.0442 173.602 45.2501C173.602 44.456 173.879 43.832 174.261 43.832C174.644 43.832 174.949 44.4843 174.97 45.2501Z" fill="black"/>
<path d="M163.073 29.1834C163.073 29.1834 164.746 32.8775 162.669 34.2246C162.028 34.5956 161.3 34.7909 160.559 34.7909C159.819 34.7909 159.091 34.5956 158.45 34.2246C159.002 34.9876 159.311 35.8998 159.335 36.8414C159.359 37.7829 159.097 38.7097 158.585 39.4998C157.566 41.1967 156.379 42.7859 155.04 44.2432C155.04 44.2432 155.415 48.7314 154.636 49.2561C153.856 49.7808 151.728 48.9937 151.693 47.6749C151.658 46.3562 150.807 43.7186 150.771 42.3998C150.736 41.081 150.126 37.6493 150.126 37.6493C150.126 37.6493 144.794 35.274 147.623 32.3741C150.452 29.4741 156.458 27.0989 156.458 27.0989C156.458 27.0989 156.592 21.8237 160.244 20.2426C163.895 18.6614 171.752 16.2862 171.815 18.9238C171.915 20.2812 171.671 21.6419 171.106 22.8802C171.106 22.8802 177.693 22.6178 182.288 27.1343C186.882 31.6509 186.726 35.8412 184.351 35.8412C181.976 35.8412 181.203 36.3659 181.203 36.3659C181.203 36.3659 185.748 39.0035 183.408 40.3223C181.068 41.6411 178.657 40.06 178.657 40.06C178.657 40.06 179.664 38.2165 176.701 35.8058C173.737 33.3951 163.073 29.1834 163.073 29.1834Z" fill="black" stroke="black" stroke-linecap="round" stroke-linejoin="round"/>
<path d="M73.104 295.857C93.5957 295.857 110.208 292.111 110.208 287.491C110.208 282.87 93.5957 279.124 73.104 279.124C52.6123 279.124 36.0005 282.87 36.0005 287.491C36.0005 292.111 52.6123 295.857 73.104 295.857Z" fill="black"/>
<path d="M97.5371 114.438V121.216L107.393 125.733C107.393 125.733 108.421 121.216 107.598 113.204L97.5371 114.438Z" fill="#999999" stroke="black" stroke-linecap="round" stroke-linejoin="round"/>
<path d="M48.6211 277.096C46.3653 279.032 44.234 281.109 42.2399 283.314C39.4037 286.511 38.8507 289.695 41.4883 291.219C44.1259 292.744 48.2666 292.347 52.7831 289.525C57.2997 286.703 57.1153 285.568 59.7529 284.633C62.3905 283.697 64.0851 281.796 64.0851 278.79C64.0851 275.784 54.4777 275.401 52.4074 275.245C50.337 275.089 48.6211 277.096 48.6211 277.096Z" fill="white" stroke="black" stroke-linecap="round" stroke-linejoin="round"/>
<path d="M64.0638 278.791C64.0638 278.791 59.8097 280.677 57.7464 282.393C55.6831 284.109 51.5707 290.284 46.7635 290.284C44.3154 290.287 41.908 289.659 39.7725 288.462C39.7756 289.033 39.9352 289.592 40.234 290.078C40.5328 290.565 40.9593 290.96 41.467 291.22C44.1046 292.723 48.2454 292.348 52.7619 289.526C57.2784 286.704 57.0941 285.569 59.7317 284.633C62.3693 283.698 64.0638 281.804 64.0638 278.791Z" stroke="black" stroke-linecap="round" stroke-linejoin="round"/>
<path d="M96.4027 277.096C98.6585 279.032 100.79 281.109 102.784 283.314C105.62 286.511 106.173 289.695 103.536 291.219C100.898 292.744 96.7572 292.347 92.2407 289.525C87.7241 286.703 87.9085 285.568 85.2709 284.633C82.6333 283.697 80.9387 281.796 80.9387 278.79C80.9387 275.784 90.5461 275.401 92.6164 275.245C94.6868 275.089 96.4027 277.096 96.4027 277.096Z" fill="white" stroke="black" stroke-linecap="round" stroke-linejoin="round"/>
<path d="M80.96 278.791C80.96 278.791 85.2141 280.677 87.2774 282.393C89.3407 284.109 93.4531 290.284 98.2603 290.284C100.708 290.287 103.116 289.659 105.251 288.462C105.248 289.033 105.089 289.592 104.79 290.078C104.491 290.565 104.064 290.96 103.557 291.22C100.919 292.723 96.7784 292.348 92.2619 289.526C87.7454 286.704 87.9297 285.569 85.2921 284.633C82.6545 283.698 80.96 281.804 80.96 278.791Z" stroke="black" stroke-linecap="round" stroke-linejoin="round"/>
<path d="M43.1616 170.146C43.1616 170.146 44.289 212.51 44.8562 218.729C45.4234 224.947 47.0967 239.064 47.0967 239.844C47.0967 240.623 48.0327 271.856 48.0327 271.856L46.3381 274.692L46.9053 278.649L54.4352 280.152C58.2002 280.903 63.0995 282.038 63.8511 281.286C64.6027 280.535 64.7941 279.025 65.1699 276.954C65.5457 274.884 66.2973 271.112 65.5457 268.105C64.7941 265.099 66.4887 233.079 66.6802 232.328C66.8716 231.576 71.2038 200.648 71.2038 200.648C71.2038 200.648 74.0399 226.074 76.0961 233.788C78.1523 241.503 77.4149 252.996 78.1664 257.513C78.918 262.029 80.4282 277.287 80.6197 278.415C80.8111 279.542 81.1798 281.251 81.1798 281.251C81.1798 281.251 90.5957 279.932 92.2903 279.173C94.0084 278.54 95.7718 278.038 97.5655 277.67C97.5655 277.67 98.1256 266.936 97.3741 262.603C96.8264 259.559 96.5112 256.478 96.4311 253.386C96.4311 252.067 97.3741 210.27 97.3741 210.27L96.4311 169.784C96.4311 169.784 71.0123 172.422 61.2206 170.536C51.4289 168.65 43.3531 167.522 43.3531 167.522L43.1616 170.146Z" fill="#6688CC" stroke="black" stroke-linecap="round" stroke-linejoin="round"/>
<path d="M61.2348 170.522C51.4431 168.643 43.3531 167.522 43.3531 167.522L43.1616 170.153C43.1616 170.153 43.2254 172.585 43.3318 176.357C47.82 177.612 56.9381 179.817 65.7513 179.817C75.068 179.817 89.908 176.981 96.587 175.627L96.4452 169.777C96.4452 169.777 71.0265 172.408 61.2348 170.522Z" fill="black" stroke="black" stroke-linecap="round" stroke-linejoin="round"/>
<path d="M93.9424 265.929C94.0629 267.226 94.1409 267.971 94.1409 267.971" stroke="black" stroke-linecap="round" stroke-linejoin="round"/>
<path d="M91.0566 180.087C91.0566 180.087 91.7657 216.474 91.7657 230.208C91.7657 239.709 92.9143 254.131 93.6233 262.115" stroke="black" stroke-linecap="round" stroke-linejoin="round"/>
<path d="M52.9463 178.03L54.6621 217.509" stroke="black" stroke-linecap="round" stroke-linejoin="round"/>
<path d="M54.3147 220.594V227.117" stroke="black" stroke-linecap="round" stroke-linejoin="round"/>
<path d="M63.2413 70.697C62.3143 70.702 61.4017 70.9277 60.5793 71.3556C59.7569 71.7834 59.0483 72.4011 58.5121 73.1574C57.3395 74.7046 56.0347 76.1469 54.6124 77.4683L37.7729 86.5084L39.4179 150.789L40.0348 172.769C40.0348 172.769 52.9675 177.08 65.2904 177.08C77.6134 177.08 99.5862 172.117 99.5862 172.117C99.5862 172.117 97.7427 86.48 98.3596 86.48C98.9764 86.48 86.2423 75.4192 80.492 72.5121C74.7418 69.6051 63.2413 70.697 63.2413 70.697Z" fill="#6688CC" stroke="black" stroke-linecap="round" stroke-linejoin="round"/>
<path d="M58.4412 78.4678C58.4412 78.4678 64.9642 90.4858 67.7153 95.9808C70.4663 101.476 75.5997 109.381 75.5997 109.381L84.186 86.3806" stroke="black" stroke-linecap="round" stroke-linejoin="round"/>
<path d="M63.2626 154.696L62.9293 145.103L43.5515 143.976C43.5515 143.976 43.743 158.099 44.1187 158.865" stroke="black" stroke-linecap="round" stroke-linejoin="round"/>
<path d="M63.4967 161.488L63.4045 158.794" stroke="black" stroke-linecap="round" stroke-linejoin="round"/>
<path d="M86.4693 159.978L85.9021 144.167C85.9021 144.167 92.6804 144.727 98.3314 140.962" stroke="black" stroke-linecap="round" stroke-linejoin="round"/>
<path d="M57.4132 106.489C58.0088 108.368 59.824 109.474 61.4618 108.949C63.0997 108.424 63.9292 106.475 63.3266 104.596C62.7239 102.717 60.9159 101.611 59.278 102.135C57.6401 102.66 56.8106 104.61 57.4132 106.489Z" stroke="black" stroke-linecap="round" stroke-linejoin="round"/>
<path d="M57.6047 73.5898C57.6047 73.5898 55.4279 81.9564 60.377 104.667" stroke="black" stroke-width="2" stroke-linecap="round" stroke-linejoin="round"/>
<path d="M61.9012 105.447C61.7553 105.741 61.5281 105.987 61.2464 106.156C60.9648 106.325 60.6406 106.41 60.3124 106.4C59.9842 106.39 59.6657 106.286 59.3947 106.1C59.1238 105.915 58.9118 105.656 58.7838 105.353C58.6559 105.051 58.6174 104.718 58.6729 104.394C58.7285 104.071 58.8757 103.77 59.0972 103.527C59.3187 103.285 59.6051 103.111 59.9224 103.027C60.2397 102.942 60.5746 102.95 60.8873 103.05C61.3377 103.236 61.6968 103.592 61.8866 104.04C62.0764 104.489 62.0817 104.995 61.9012 105.447Z" stroke="black" stroke-linecap="round" stroke-linejoin="round"/>
<path d="M97.5372 85.2754C97.5372 85.2754 100.614 87.5372 100.82 88.3597C101.026 89.1822 111.498 114.232 111.498 114.232L96.3035 116.473L96.5091 101.682" fill="#6688CC"/>
<path d="M97.5372 85.2754C97.5372 85.2754 100.614 87.5372 100.82 88.3597C101.026 89.1822 111.498 114.232 111.498 114.232L96.3035 116.473L96.5091 101.682" stroke="black" stroke-linecap="round" stroke-linejoin="round"/>
<path d="M39.8292 85.6865C39.8292 85.6865 36.3337 86.0978 35.5112 88.7637C34.6888 91.4297 28.74 118.543 28.74 118.543L50.5072 116.473L48.451 96.1376" fill="#6688CC"/>
<path d="M39.8292 85.6865C39.8292 85.6865 36.3337 86.0978 35.5112 88.7637C34.6888 91.4297 28.74 118.543 28.74 118.543L50.5072 116.473L48.451 96.1376" stroke="black" stroke-linecap="round" stroke-linejoin="round"/>
<path d="M81.8748 72.3135C81.8748 72.3135 87.2705 75.3907 87.8022 83.0482C88.334 90.7057 87.8022 92.6485 87.8022 92.6485" stroke="black" stroke-width="2" stroke-linecap="round" stroke-linejoin="round"/>
<path d="M90.2412 102.455C90.2412 102.455 89.759 111.509 88.7735 114.126C87.7879 116.742 83.8882 119.84 80.7969 120.337" stroke="black" stroke-linecap="round" stroke-linejoin="round"/>
<path d="M83.2572 101.477C83.2572 101.477 82.8247 111.921 82.7822 113.863C82.7396 115.806 84.6966 119.188 87.5043 122.428" stroke="black" stroke-linecap="round" stroke-linejoin="round"/>
<path d="M88.3095 123.566L88.3922 123.499C88.7784 123.186 88.8376 122.619 88.5244 122.232L88.1269 121.742C87.8137 121.356 87.2466 121.297 86.8603 121.61L86.7777 121.677C86.3915 121.99 86.3323 122.557 86.6455 122.943L87.043 123.434C87.3562 123.82 87.9233 123.879 88.3095 123.566Z" fill="black"/>
<path d="M79.6868 120.667L79.7066 120.772C79.7992 121.26 80.2704 121.581 80.759 121.489L81.379 121.371C81.8676 121.279 82.1887 120.807 82.0961 120.319L82.0763 120.214C81.9837 119.726 81.5125 119.405 81.0239 119.497L80.4039 119.615C79.9153 119.707 79.5942 120.178 79.6868 120.667Z" fill="black"/>
<path d="M90.3476 103.142L90.142 95.5343C90.1228 94.7407 89.8085 93.9828 89.2605 93.4086C88.7124 92.8343 87.97 92.485 87.1782 92.4287C86.3372 92.3661 85.5056 92.639 84.8652 93.1877C84.2248 93.7364 83.8277 94.5164 83.7607 95.357L83.1226 103.071" stroke="black" stroke-width="2" stroke-linecap="round" stroke-linejoin="round"/>
<path d="M108.009 120.599L103.11 119.571L85.8593 116.699L61.6672 112.09L55.9312 109.559C55.9312 109.559 50.5071 102.469 50.0391 101.76C49.5712 101.051 43.4381 103.525 43.6579 104.468C43.8777 105.411 44.6009 114.834 45.0759 115.43C45.551 116.025 50.8474 116.018 50.8474 116.018C50.8474 116.018 76.1173 128.214 77.1666 128.66C91.7514 134.808 98.785 134.751 101.274 135.155C103.762 135.559 105.386 134.552 106.818 132.907C108.251 131.262 108.009 120.599 108.009 120.599Z" fill="#999999" stroke="black" stroke-linecap="round" stroke-linejoin="round"/>
<path d="M49.3019 101.66C49.3019 101.66 46.3595 101.781 41.9989 104.723C40.3752 105.822 39.5244 106.609 39.5244 107.084C39.6173 107.649 39.7768 108.202 39.9995 108.729C42.8266 107.368 45.7872 106.303 48.834 105.553" fill="#999999"/>
<path d="M49.3019 101.66C49.3019 101.66 46.3595 101.781 41.9989 104.723C40.3752 105.822 39.5244 106.609 39.5244 107.084C39.6173 107.649 39.7768 108.202 39.9995 108.729C42.8266 107.368 45.7872 106.303 48.834 105.553" stroke="black" stroke-linecap="round" stroke-linejoin="round"/>
<path d="M50.4788 109.205C50.4788 109.205 42.4738 111.204 41.1763 111.445C39.8788 111.686 39.6448 110.382 39.6448 109.914C39.6448 109.446 39.9993 108.73 41.4103 108.028C42.8212 107.326 49.9186 105.433 49.9186 105.433" fill="#999999"/>
<path d="M50.4788 109.205C50.4788 109.205 42.4738 111.204 41.1763 111.445C39.8788 111.686 39.6448 110.382 39.6448 109.914C39.6448 109.446 39.9993 108.73 41.4103 108.028C42.8212 107.326 49.9186 105.433 49.9186 105.433" stroke="black" stroke-linecap="round" stroke-linejoin="round"/>
<path d="M51.3085 112.856C51.3085 112.856 41.9989 113.799 41.2899 113.211C41.073 112.975 40.9084 112.695 40.807 112.391C40.7056 112.087 40.6696 111.765 40.7014 111.445L49.068 109.673" fill="#999999"/>
<path d="M51.3085 112.856C51.3085 112.856 41.9989 113.799 41.2899 113.211C41.073 112.975 40.9084 112.695 40.807 112.391C40.7056 112.087 40.6696 111.765 40.7014 111.445L49.068 109.673" stroke="black" stroke-linecap="round" stroke-linejoin="round"/>
<path d="M48.7135 113.324L41.531 113.679C41.531 113.679 41.8784 114.742 42.24 114.856C43.9416 115.276 45.6753 115.554 47.423 115.685C48.5691 115.723 49.7112 115.841 50.8406 116.04" fill="#999999"/>
<path d="M48.7135 113.324L41.531 113.679C41.531 113.679 41.8784 114.742 42.24 114.856C43.9416 115.276 45.6753 115.554 47.423 115.685C48.5691 115.723 49.7112 115.841 50.8406 116.04" stroke="black" stroke-linecap="round" stroke-linejoin="round"/>
<path d="M33.2566 118.131C33.2566 118.131 36.5394 132.312 37.3619 133.333C38.1843 134.354 44.9627 133.333 51.741 131.277C58.5193 129.221 87.2705 116.905 87.2705 116.905L91.3758 117.72C91.3758 117.72 89.7308 112.587 86.8593 112.381C83.9877 112.176 50.5073 116.472 50.5073 116.472L33.2566 118.131Z" fill="#999999" stroke="black" stroke-linecap="round" stroke-linejoin="round"/>
<path d="M61.9863 61.6572C61.9863 61.6572 61.9863 61.9621 61.9863 62.4797C62.0501 65.1811 62.3125 73.7604 63.0002 75.8307C63.8227 78.2911 74.9119 99.0373 75.7628 97.3923C76.6136 95.7474 81.7186 73.3633 81.7186 73.3633V64.5359C81.7186 64.5359 79.0456 66.7906 74.1178 66.7906C69.1901 66.7906 61.9863 61.6572 61.9863 61.6572Z" fill="#999999" stroke="black" stroke-linecap="round" stroke-linejoin="round"/>
<path d="M78.4358 73.8242C79.5857 73.122 80.685 72.3401 81.7257 71.4844V64.5359C81.7257 64.5359 79.0527 66.7906 74.1249 66.7906C69.1972 66.7906 61.9863 61.6572 61.9863 61.6572C61.9863 61.6572 61.9863 61.9621 61.9863 62.4797C61.9863 63.4298 62.0572 65.1102 62.1423 66.982C62.3368 67.2937 62.5549 67.59 62.7946 67.8683C64.2127 69.5062 71.0052 73.6186 72.6501 74.0298C74.2951 74.441 76.5853 74.8452 78.4358 73.8242Z" fill="black" stroke="black" stroke-linecap="round" stroke-linejoin="round"/>
<path d="M86.6536 49.7453C86.6536 49.7453 89.9364 47.8947 89.9364 51.3903C89.9364 54.8858 86.8592 58.9911 86.8592 58.9911L86.6536 49.7453Z" fill="#999999" stroke="black" stroke-linecap="round" stroke-linejoin="round"/>
<path d="M57.2856 49.9511C57.2856 49.9511 52.762 48.7174 52.762 52.8297C52.762 56.9421 56.8743 59.601 56.8743 59.601H59.7105C59.7105 59.601 61.3554 63.7133 62.7947 65.3512C64.2341 66.9891 71.0053 71.1014 72.6503 71.5127C74.2952 71.9239 76.5499 72.3352 78.4005 71.3071C80.7255 69.8577 82.8679 68.1342 84.7818 66.1737C85.6042 65.1527 87.0436 58.1687 87.0436 58.1687C87.0436 58.1687 87.4548 45.6402 86.6323 41.3293C85.8099 37.0184 80.4709 30.24 73.0757 29.4176C65.6805 28.5951 58.6965 34.5509 57.6755 39.2731C56.6545 43.9952 57.2856 49.9511 57.2856 49.9511Z" fill="#999999" stroke="black" stroke-linecap="round" stroke-linejoin="round"/>
<path d="M70.6295 53.2412C70.6295 53.2412 69.2114 56.1128 71.6576 56.9353C74.1037 57.7577 77.2022 57.5521 77.8191 56.3184C78.4359 55.0847 77.4078 53.6524 77.4078 53.6524" stroke="black" stroke-linecap="round" stroke-linejoin="round"/>
<path d="M68.1692 58.374C68.1692 58.374 73.3026 62.6849 80.2865 58.5796" stroke="black" stroke-linecap="round" stroke-linejoin="round"/>
<path d="M71.0408 62.2735C71.0408 62.2735 75.3588 64.741 78.2303 61.8623" stroke="black" stroke-linecap="round" stroke-linejoin="round"/>
<path d="M68.5803 50.7733C69.1481 50.7733 69.6084 50.0368 69.6084 49.1283C69.6084 48.2199 69.1481 47.4834 68.5803 47.4834C68.0125 47.4834 67.5522 48.2199 67.5522 49.1283C67.5522 50.0368 68.0125 50.7733 68.5803 50.7733Z" fill="black"/>
<path d="M79.6697 48.923C79.6697 49.8306 79.2089 50.568 78.6416 50.568C78.0744 50.568 77.6135 49.8589 77.6135 48.923C77.6135 47.9871 78.0744 47.2852 78.6416 47.2852C79.2089 47.2852 79.6697 48.0155 79.6697 48.923Z" fill="black"/>
<path d="M65.7017 46.8735C65.7017 46.8735 66.7298 45.2286 70.6649 45.8454" stroke="black" stroke-linecap="round" stroke-linejoin="round"/>
<path d="M76.9966 46.0519C76.9966 46.0519 78.8471 43.1732 81.7258 46.0519" stroke="black" stroke-linecap="round" stroke-linejoin="round"/>
<path d="M86.6535 41.3155C86.3867 40.096 85.9246 38.9276 85.2851 37.8555C85.0459 38.9922 84.9624 40.1563 85.0369 41.3155C85.3347 42.8187 86.3911 44.9174 86.3911 45.9668C86.3911 47.0161 86.2351 51.2207 86.9867 50.6251C87.0612 50.5464 87.1212 50.4552 87.164 50.3557C87.2109 47.3339 87.0403 44.3128 86.6535 41.3155Z" fill="black" stroke="black" stroke-linecap="round" stroke-linejoin="round"/>
<path d="M76.3302 32.8064C77.6487 32.7366 78.961 32.5779 80.2582 32.3314C78.1634 30.7632 75.6944 29.7707 73.097 29.4527C65.7018 28.6302 58.7179 34.5861 57.6969 39.3082C56.6759 44.0304 57.2856 49.9862 57.2856 49.9862C57.2856 49.9862 58.9164 51.1207 59.5191 49.9224C60.1218 48.7242 59.5191 46.7672 60.1218 44.6685C60.7244 42.5698 61.6178 41.5133 61.7667 39.8613C61.9156 38.2092 60.8662 35.8127 61.4689 34.4585C62.0716 33.1042 65.8224 30.5588 68.226 31.4593C70.812 32.4387 73.5663 32.8966 76.3302 32.8064Z" fill="black" stroke="black" stroke-linecap="round" stroke-linejoin="round"/>
</svg>
