<svg width="16" height="15" viewBox="0 0 16 15" fill="none" xmlns="http://www.w3.org/2000/svg">
<path d="M1.07694 6.26779L1.65156 6.22314C1.63832 6.08913 1.56867 5.96489 1.45707 5.87623C1.34547 5.78758 1.20051 5.74132 1.05229 5.74707C0.90407 5.75281 0.763989 5.81012 0.661141 5.90709C0.558293 6.00407 0.500584 6.13324 0.5 6.26779H1.07694ZM14.3357 7.53967L13.7926 10.3862L14.9303 10.5648L15.4726 7.71828L14.3357 7.53967ZM8.95788 13.9535H5.38165V15H8.95788V13.9535ZM4.68086 13.3695L4.05623 6.81617L2.90621 6.90617L3.53161 13.4595L4.68086 13.3695ZM13.7926 10.3862C13.4026 12.4304 11.3702 13.9535 8.95788 13.9535V15C11.901 15 14.4395 13.1379 14.9303 10.5648L13.7926 10.3862ZM8.96558 2.68589L8.45556 5.50802L9.59405 5.67686L10.1041 2.85542L8.96558 2.68589ZM4.29855 6.27617L5.40549 5.41104L4.65163 4.61847L3.54622 5.4836L4.29855 6.27617ZM7.41862 2.59658L7.78478 1.31703L6.66783 1.0547L6.30167 2.33356L7.41862 2.59658ZM8.3371 1.06587L8.44864 1.09866L8.80173 0.102365L8.69018 0.0695737L8.3371 1.06587ZM6.86399 3.88311C7.10414 3.4756 7.29031 3.04376 7.41862 2.59658L6.30167 2.33356C6.19567 2.70074 6.04284 3.05546 5.84627 3.39055L6.86399 3.88311ZM8.44864 1.09866C8.55823 1.12912 8.65764 1.18404 8.73774 1.2584C8.81784 1.33276 8.87608 1.42417 8.90711 1.52424L10.0241 1.26191C9.9449 0.990725 9.79128 0.742145 9.57753 0.539375C9.36378 0.336606 9.09688 0.186258 8.80173 0.102365L8.44864 1.09866ZM7.78478 1.31703C7.80035 1.26688 7.82764 1.22035 7.86481 1.18063C7.90198 1.1409 7.94814 1.10889 8.00017 1.0868L7.49939 0.144226C7.09015 0.322833 6.78245 0.653535 6.66783 1.0547L7.78478 1.31703ZM8.00017 1.0868C8.10553 1.04147 8.22591 1.03399 8.3371 1.06587L8.69018 0.0695737C8.2973 -0.0443364 7.87126 -0.0176272 7.49939 0.144226L8.00017 1.0868ZM9.65713 6.79106H13.6418V5.74453H9.65713V6.79106ZM2.39927 14.0623L1.65156 6.22314L0.502308 6.31314L1.24848 14.1523L2.39927 14.0623ZM1.65387 14.137V6.26779H0.5V14.137H1.65387ZM1.24848 14.1523C1.24613 14.127 1.25039 14.1014 1.2595 14.0774C1.26862 14.0533 1.28315 14.0312 1.30217 14.0125C1.3212 13.9938 1.3443 13.9789 1.37002 13.9688C1.39574 13.9586 1.42351 13.9534 1.45156 13.9535V15C2.01003 15 2.44697 14.566 2.39927 14.0623L1.24848 14.1523ZM10.1041 2.85542C10.2008 2.32504 10.1735 1.78214 10.0241 1.26191L8.90711 1.52494C9.01621 1.90391 9.03613 2.29947 8.96558 2.68589L10.1041 2.85542ZM5.38165 13.9535C5.2055 13.9532 5.03585 13.8931 4.90614 13.785C4.77643 13.6769 4.69605 13.5287 4.68086 13.3695L3.53161 13.4595C3.57163 13.8796 3.78383 14.2709 4.12632 14.5561C4.46881 14.8412 4.91671 14.9996 5.38165 15V13.9535ZM5.40549 5.41104C5.92858 5.0022 6.49167 4.51591 6.86476 3.88311L5.84627 3.39055C5.58011 3.84334 5.15626 4.22498 4.65163 4.61847L5.40549 5.41104ZM15.4726 7.71828C15.519 7.47617 15.5063 7.22781 15.4357 6.99059C15.3651 6.75337 15.2381 6.53303 15.0637 6.34499C14.8892 6.15696 14.6716 6.00579 14.426 5.90207C14.1804 5.79834 13.9128 5.74458 13.6418 5.74453V6.79106C14.078 6.79106 14.4111 7.14827 14.3357 7.53967L15.4726 7.71828ZM1.45156 13.9535C1.56387 13.9535 1.65387 14.0358 1.65387 14.137H0.5C0.5 14.6128 0.925394 15 1.45156 15V13.9535ZM8.45556 5.50802C8.42689 5.6661 8.43647 5.82794 8.48365 5.98233C8.53084 6.13671 8.61449 6.27994 8.7288 6.40207C8.84312 6.52421 8.98536 6.62232 9.14566 6.68961C9.30596 6.7569 9.48049 6.79106 9.65713 6.79106V5.74453C9.64774 5.74457 9.63846 5.74343 9.62995 5.73984C9.62144 5.73625 9.6139 5.73101 9.60788 5.72448C9.60186 5.71795 9.5975 5.7103 9.5951 5.70207C9.59271 5.69384 9.59235 5.68523 9.59405 5.67686L8.45556 5.50802ZM4.05623 6.81617C4.04685 6.71515 4.06322 6.61354 4.10547 6.51968C4.14772 6.42582 4.21389 6.34237 4.29855 6.27617L3.54468 5.4829C3.32171 5.65742 3.14758 5.87742 3.03658 6.12484C2.92559 6.37227 2.88091 6.64004 2.90621 6.90617L4.05623 6.81617Z" fill="black" fill-opacity="0.7"/>
</svg>
