<svg width="22" height="23" viewBox="0 0 22 23" fill="none" xmlns="http://www.w3.org/2000/svg">
<path fill-rule="evenodd" clip-rule="evenodd" d="M11.4562 1.89333C11.3057 1.84574 11.1427 1.8569 11 1.92458C10.9295 1.95758 10.867 2.00536 10.8167 2.06467C10.7664 2.12399 10.7294 2.19345 10.7083 2.26833L10.2125 4.17875C10.0391 4.84635 9.78733 5.4911 9.4625 6.09958C8.95729 7.04437 8.19375 7.77042 7.48541 8.38083L5.9875 9.6725C5.87304 9.77145 5.78365 9.89609 5.72661 10.0362C5.66958 10.1764 5.64654 10.328 5.65937 10.4788L6.50521 20.2631C6.52578 20.5008 6.63461 20.7221 6.81026 20.8835C6.98591 21.0448 7.21563 21.1346 7.45416 21.135H12.2969C15.5635 21.135 18.3167 18.8621 18.8448 15.809L19.5792 11.559C19.603 11.422 19.5966 11.2815 19.5604 11.1472C19.5243 11.013 19.4592 10.8883 19.3698 10.7818C19.2804 10.6754 19.1689 10.5897 19.0429 10.5309C18.9169 10.4721 18.7796 10.4415 18.6406 10.4413H13.2437C12.226 10.4413 11.4521 9.52875 11.6167 8.52458L12.3073 4.31208C12.4028 3.73515 12.3759 3.14457 12.2281 2.57875C12.1863 2.42914 12.1075 2.29245 11.999 2.18124C11.8905 2.07003 11.7558 1.98786 11.6073 1.94229L11.4562 1.89333ZM10.3208 0.517292C10.8247 0.275366 11.402 0.235485 11.9344 0.405834L12.0854 0.454792C12.8948 0.715209 13.526 1.36104 13.7406 2.18604C13.9417 2.96313 13.9792 3.77354 13.849 4.56521L13.1583 8.77771C13.1562 8.79013 13.1568 8.80287 13.1601 8.81503C13.1635 8.82719 13.1694 8.83848 13.1775 8.84811C13.1857 8.85773 13.1958 8.86547 13.2072 8.87076C13.2187 8.87605 13.2311 8.87878 13.2437 8.87875H18.6396C20.2021 8.87875 21.3854 10.2871 21.1187 11.8256L20.3844 16.0756C19.7198 19.9173 16.2823 22.6975 12.2969 22.6975H7.45416C6.82457 22.697 6.21805 22.4605 5.75427 22.0347C5.2905 21.6089 5.00316 21.0247 4.94896 20.3975L4.10208 10.6131C4.06782 10.2158 4.12833 9.81598 4.27863 9.44657C4.42893 9.07716 4.66473 8.74868 4.96666 8.48812L6.46666 7.19646C7.14896 6.60896 7.72291 6.03917 8.08333 5.36313C8.35121 4.86398 8.55824 4.3345 8.7 3.78604L9.19583 1.87667C9.27311 1.58186 9.41382 1.30747 9.60814 1.07268C9.80245 0.837887 10.0457 0.648344 10.3208 0.517292ZM1.59166 8.87979C1.79298 8.87099 1.9899 8.94031 2.14131 9.07328C2.29272 9.20625 2.38689 9.39257 2.40416 9.59333L3.41458 21.2975C3.4317 21.4718 3.4131 21.6477 3.35994 21.8146C3.30677 21.9815 3.22015 22.1358 3.10535 22.268C2.99056 22.4003 2.85001 22.5078 2.69229 22.5839C2.53457 22.66 2.36299 22.7032 2.18802 22.7108C2.01305 22.7184 1.83838 22.6902 1.67466 22.628C1.51094 22.5658 1.36162 22.4709 1.23581 22.3491C1.11 22.2272 1.01035 22.081 0.942941 21.9194C0.875532 21.7578 0.84178 21.5841 0.843747 21.409V9.66C0.843564 9.45845 0.921283 9.26462 1.06066 9.11903C1.20004 8.97344 1.3903 8.88839 1.59166 8.87979Z" fill="black"/>
</svg>
