<svg width="296" height="21" viewBox="0 0 296 21" fill="none" xmlns="http://www.w3.org/2000/svg">
<g filter="url(#filter0_d_936_505)">
<path d="M123.492 10.11C122.812 10.11 122.236 9.95333 121.762 9.64C121.296 9.32667 120.942 8.88667 120.702 8.32C120.462 7.74667 120.342 7.08333 120.342 6.33C120.342 5.56333 120.486 4.89 120.772 4.31C121.066 3.73 121.466 3.28333 121.972 2.97C122.479 2.65 123.049 2.49 123.682 2.49C124.722 2.49 125.516 2.82 126.062 3.48C126.616 4.13333 126.892 5.04 126.892 6.2C126.892 6.98 126.742 7.66667 126.442 8.26C126.149 8.84667 125.742 9.30333 125.222 9.63C124.709 9.95 124.132 10.11 123.492 10.11ZM123.622 3.01C122.976 3.01 122.466 3.29333 122.092 3.86C121.719 4.42 121.532 5.24333 121.532 6.33C121.532 7.33 121.712 8.12333 122.072 8.71C122.439 9.29 122.949 9.58 123.602 9.58C124.242 9.58 124.749 9.29 125.122 8.71C125.502 8.13 125.692 7.29667 125.692 6.21C125.692 5.20333 125.512 4.42 125.152 3.86C124.792 3.29333 124.282 3.01 123.622 3.01ZM127.689 9.51L128.439 9.45V5.22L127.719 5.04V4.5L129.099 4.32H129.119L129.339 4.5V4.68L129.309 5.46H129.339C129.406 5.34667 129.526 5.2 129.699 5.02C129.872 4.84 130.096 4.67667 130.369 4.53C130.642 4.37667 130.939 4.3 131.259 4.3C131.392 4.3 131.502 4.31667 131.589 4.35V5.47C131.542 5.43667 131.466 5.40667 131.359 5.38C131.259 5.34667 131.146 5.33 131.019 5.33C130.466 5.33 129.952 5.5 129.479 5.84V9.44L130.749 9.52V10H127.689V9.51ZM135.792 3.45C135.585 3.45 135.429 3.39 135.322 3.27C135.215 3.15 135.162 2.99667 135.162 2.81C135.162 2.59667 135.225 2.42 135.352 2.28C135.485 2.14 135.665 2.07 135.892 2.07C136.119 2.07 136.285 2.13 136.392 2.25C136.499 2.37 136.552 2.52333 136.552 2.71C136.552 2.93667 136.485 3.11667 136.352 3.25C136.225 3.38333 136.042 3.45 135.802 3.45H135.792ZM134.592 4.51L136.142 4.32H136.162L136.382 4.5V9.93C136.382 10.4833 136.302 10.9467 136.142 11.32C135.982 11.7 135.765 11.98 135.492 12.16C135.219 12.34 134.912 12.43 134.572 12.43C134.312 12.43 134.159 12.4167 134.112 12.39L134.062 11.92C134.115 11.9267 134.192 11.92 134.292 11.9C134.399 11.88 134.505 11.85 134.612 11.81C134.885 11.7167 135.075 11.49 135.182 11.13C135.295 10.7767 135.352 10.3 135.352 9.7V5.25L134.592 5.07V4.51ZM137.796 7.21C137.796 6.61 137.919 6.09 138.166 5.65C138.413 5.21 138.736 4.87667 139.136 4.65C139.543 4.41667 139.976 4.3 140.436 4.3C141.276 4.3 141.906 4.56667 142.326 5.1C142.753 5.63333 142.966 6.33333 142.966 7.2C142.966 7.80667 142.843 8.33 142.596 8.77C142.349 9.21 142.023 9.54333 141.616 9.77C141.216 9.99667 140.786 10.11 140.326 10.11C139.486 10.11 138.853 9.84333 138.426 9.31C138.006 8.77667 137.796 8.07667 137.796 7.21ZM140.386 9.54C140.846 9.54 141.199 9.35 141.446 8.97C141.693 8.59 141.816 8.02667 141.816 7.28C141.816 6.54 141.703 5.95333 141.476 5.52C141.249 5.08667 140.886 4.87 140.386 4.87C139.926 4.87 139.569 5.06 139.316 5.44C139.069 5.82 138.946 6.38333 138.946 7.13C138.946 7.87 139.063 8.45667 139.296 8.89C139.529 9.32333 139.893 9.54 140.386 9.54ZM145.06 3.45C144.847 3.45 144.687 3.39 144.58 3.27C144.473 3.15 144.42 2.99667 144.42 2.81C144.42 2.59667 144.483 2.42 144.61 2.28C144.743 2.14 144.923 2.07 145.15 2.07C145.377 2.07 145.543 2.13 145.65 2.25C145.757 2.37 145.81 2.52333 145.81 2.71C145.81 2.93667 145.743 3.11667 145.61 3.25C145.483 3.38333 145.303 3.45 145.07 3.45H145.06ZM144.66 5.22L143.9 5.04V4.51L145.45 4.32H145.47L145.7 4.5V9.43L146.5 9.51V10H143.85V9.51L144.66 9.42V5.22ZM147.81 5.22L147.09 5.04V4.5L148.52 4.32H148.55L148.76 4.5V4.92L148.75 5.16C148.99 4.94667 149.307 4.75333 149.7 4.58C150.093 4.40667 150.47 4.32 150.83 4.32C151.25 4.32 151.573 4.4 151.8 4.56C152.033 4.72 152.197 4.96667 152.29 5.3C152.383 5.62667 152.43 6.07 152.43 6.63V9.43L153.13 9.5V10H150.76V9.51L151.38 9.43V6.62C151.38 6.22667 151.353 5.92 151.3 5.7C151.247 5.47333 151.147 5.30667 151 5.2C150.853 5.08667 150.64 5.03 150.36 5.03C150.12 5.03 149.863 5.09 149.59 5.21C149.317 5.33 149.073 5.47 148.86 5.63V9.42L149.54 9.51V10H147.18V9.51L147.81 9.42V5.22ZM156.824 5.22L156.104 5.04V4.5L157.534 4.32H157.564L157.774 4.5V4.92L157.764 5.16C158.004 4.94667 158.32 4.75333 158.714 4.58C159.107 4.40667 159.484 4.32 159.844 4.32C160.264 4.32 160.587 4.4 160.814 4.56C161.047 4.72 161.21 4.96667 161.304 5.3C161.397 5.62667 161.444 6.07 161.444 6.63V9.43L162.144 9.5V10H159.774V9.51L160.394 9.43V6.62C160.394 6.22667 160.367 5.92 160.314 5.7C160.26 5.47333 160.16 5.30667 160.014 5.2C159.867 5.08667 159.654 5.03 159.374 5.03C159.134 5.03 158.877 5.09 158.604 5.21C158.33 5.33 158.087 5.47 157.874 5.63V9.42L158.554 9.51V10H156.194V9.51L156.824 9.42V5.22ZM162.864 7.21C162.864 6.61 162.988 6.09 163.234 5.65C163.481 5.21 163.804 4.87667 164.204 4.65C164.611 4.41667 165.044 4.3 165.504 4.3C166.344 4.3 166.974 4.56667 167.394 5.1C167.821 5.63333 168.034 6.33333 168.034 7.2C168.034 7.80667 167.911 8.33 167.664 8.77C167.418 9.21 167.091 9.54333 166.684 9.77C166.284 9.99667 165.854 10.11 165.394 10.11C164.554 10.11 163.921 9.84333 163.494 9.31C163.074 8.77667 162.864 8.07667 162.864 7.21ZM165.454 9.54C165.914 9.54 166.268 9.35 166.514 8.97C166.761 8.59 166.884 8.02667 166.884 7.28C166.884 6.54 166.771 5.95333 166.544 5.52C166.318 5.08667 165.954 4.87 165.454 4.87C164.994 4.87 164.638 5.06 164.384 5.44C164.138 5.82 164.014 6.38333 164.014 7.13C164.014 7.87 164.131 8.45667 164.364 8.89C164.598 9.32333 164.961 9.54 165.454 9.54ZM168.428 4.45H170.758V4.92L169.998 5.04L170.828 7.98L171.118 9.25L171.408 7.97L172.368 4.45H173.348L174.338 7.97L174.628 9.26L174.948 7.98L175.758 5.05L174.998 4.92V4.45H177.028V4.92L176.498 5.05L174.948 10.08H174.008L172.948 6.55L172.688 5.31L172.478 6.55L171.468 10.08H170.538L168.938 5.04L168.428 4.92V4.45Z" fill="black" fill-opacity="0.5"/>
<line x1="4.00307" y1="5.9" x2="113.999" y2="6.86488" stroke="black" stroke-width="0.2"/>
<line x1="181.998" y1="6.86484" x2="291.998" y2="6.86484" stroke="black" stroke-width="0.2"/>
</g>
<defs>
<filter id="filter0_d_936_505" x="0.00219727" y="2.07031" width="295.996" height="18.3594" filterUnits="userSpaceOnUse" color-interpolation-filters="sRGB">
<feFlood flood-opacity="0" result="BackgroundImageFix"/>
<feColorMatrix in="SourceAlpha" type="matrix" values="0 0 0 0 0 0 0 0 0 0 0 0 0 0 0 0 0 0 127 0" result="hardAlpha"/>
<feOffset dy="4"/>
<feGaussianBlur stdDeviation="2"/>
<feComposite in2="hardAlpha" operator="out"/>
<feColorMatrix type="matrix" values="0 0 0 0 0 0 0 0 0 0 0 0 0 0 0 0 0 0 0.25 0"/>
<feBlend mode="normal" in2="BackgroundImageFix" result="effect1_dropShadow_936_505"/>
<feBlend mode="normal" in="SourceGraphic" in2="effect1_dropShadow_936_505" result="shape"/>
</filter>
</defs>
</svg>
