<svg width="51" height="50" viewBox="0 0 51 50" fill="none" xmlns="http://www.w3.org/2000/svg">
<path d="M30.137 0.00879693C30.3507 0.00950696 30.5644 0.0101546 30.7781 0.0107902C31.4816 0.0129888 32.185 0.0166562 32.8885 0.0234235C33.0869 0.0253143 33.2853 0.0266446 33.4838 0.0274607C33.7493 0.0286064 34.0147 0.0318549 34.2802 0.0354257C34.3936 0.0355489 34.3936 0.0355489 34.5094 0.0356745C35.0075 0.0451682 35.0075 0.0451682 35.2648 0.198465C35.4523 0.41201 35.5383 0.546627 35.5493 0.827904C35.5518 0.887325 35.5543 0.946745 35.5569 1.00797C35.5589 1.07354 35.5609 1.13911 35.563 1.20667C35.5654 1.2766 35.5679 1.34653 35.5705 1.41857C35.6003 2.35482 35.5994 3.29157 35.5995 4.22819C35.5996 4.38576 35.5997 4.54334 35.5999 4.70091C35.6005 5.25244 35.6008 5.80398 35.6007 6.35551C35.6007 6.86725 35.6014 7.37898 35.6024 7.89071C35.6033 8.33327 35.6037 8.77583 35.6036 9.21839C35.6036 9.48139 35.6038 9.74439 35.6045 10.0074C35.6051 10.2537 35.6051 10.5001 35.6046 10.7464C35.6045 10.8791 35.6051 11.0118 35.6057 11.1445C35.6022 12.134 35.6022 12.134 35.3442 12.4926C34.6668 12.9783 33.5607 13.0716 32.7589 13.2443C32.5798 13.283 32.4008 13.3218 32.2218 13.3611C32.1117 13.3853 32.0015 13.4092 31.8912 13.4326C31.65 13.4855 31.4357 13.5413 31.22 13.6626C31.0516 13.6986 30.8831 13.7251 30.7129 13.7514C30.5535 13.7825 30.5535 13.7825 30.4567 13.8995C30.3595 13.994 30.3595 13.994 30.2274 14.0018C30.1741 13.9965 30.1207 13.9912 30.0658 13.9857C29.6724 13.9731 29.3229 14.0545 28.9447 14.1514C28.8585 14.1735 28.8585 14.1735 28.7706 14.1959C28.4973 14.2681 28.2383 14.3501 27.9767 14.458C27.8807 14.4809 27.7841 14.5017 27.6871 14.5201C27.4862 14.5621 27.3326 14.6114 27.1411 14.6941C26.9177 14.7894 26.9177 14.7894 26.6777 14.8225C26.4375 14.8581 26.3273 14.928 26.1234 15.0545C26.0331 15.0868 25.9419 15.117 25.8504 15.1456C25.6091 15.2217 25.3845 15.3157 25.1554 15.4231C24.9557 15.5166 24.7767 15.5911 24.5638 15.651C24.164 15.7674 23.7772 15.9445 23.4634 16.2226C23.257 16.3971 23.0627 16.4765 22.8139 16.5788C22.5277 16.7474 22.3567 16.9175 22.152 17.1753C22.1015 17.204 22.051 17.2327 21.999 17.2623C21.7802 17.3998 21.6469 17.569 21.4819 17.7659C21.3637 17.8977 21.2427 18.0045 21.1054 18.1156C20.2105 18.8842 19.6418 20.0501 19.0742 21.065C19.0471 21.1133 19.02 21.1617 18.9921 21.2116C18.8358 21.4953 18.7017 21.7805 18.5778 22.0798C18.5532 22.1249 18.5287 22.1701 18.5033 22.2165C18.4347 22.3528 18.4347 22.3528 18.4165 22.5479C18.3745 22.7672 18.3325 22.7922 18.1807 22.9414C18.1142 23.0578 18.1142 23.0578 18.0617 23.1874C18.0409 23.2363 18.02 23.2853 17.9985 23.3357C17.9767 23.3888 17.9549 23.4418 17.9325 23.4965C17.9093 23.5526 17.8861 23.6087 17.8623 23.6665C17.0392 25.6942 16.4465 27.921 16.195 30.0994C16.1812 30.1893 16.1668 30.2791 16.1521 30.3689C16.0087 31.2507 15.9224 32.1357 15.8408 33.0249C15.8266 33.1764 15.8123 33.328 15.7979 33.4795C15.7926 33.5366 15.7873 33.5938 15.7819 33.6526C15.7587 33.8735 15.7456 33.9916 15.6076 34.1713C15.3279 34.3772 15.0439 34.3508 14.7119 34.3504C14.6257 34.3507 14.6257 34.3507 14.5378 34.351C14.3445 34.3516 14.1512 34.3517 13.9579 34.3518C13.8196 34.3521 13.6814 34.3524 13.5431 34.3528C13.1669 34.3537 12.7906 34.3541 12.4144 34.3544C12.1795 34.3546 11.9446 34.3549 11.7096 34.3552C10.9749 34.3561 10.2401 34.3567 9.50541 34.357C8.65667 34.3573 7.80794 34.3584 6.9592 34.3603C6.30354 34.3618 5.64788 34.3624 4.99222 34.3625C4.60044 34.3626 4.20867 34.363 3.81689 34.3642C3.44838 34.3653 3.07989 34.3654 2.71138 34.3648C2.5761 34.3648 2.44083 34.3651 2.30555 34.3657C2.12091 34.3666 1.9363 34.3662 1.75166 34.3655C1.6981 34.366 1.64454 34.3665 1.58935 34.3671C1.27079 34.3643 1.04546 34.3253 0.77288 34.1423C0.640102 33.9559 0.623183 33.798 0.619528 33.5723C0.617595 33.48 0.617595 33.48 0.615623 33.3857C0.614885 33.318 0.614146 33.2502 0.613385 33.1804C0.611491 33.0714 0.611492 33.0714 0.609559 32.9602C0.605536 32.713 0.602553 32.4659 0.59965 32.2187C0.597786 32.0855 0.595921 31.9524 0.594034 31.8192C0.55946 29.3331 0.564309 26.8466 0.565802 24.3604C0.56609 23.8237 0.565882 23.2869 0.565561 22.7502C0.565258 22.2222 0.565219 21.6943 0.565392 21.1663C0.565493 20.8553 0.565514 20.5444 0.565291 20.2334C0.564901 19.5757 0.566375 18.918 0.572051 18.2603C0.573681 18.0708 0.574594 17.8814 0.574827 17.6919C0.575262 17.4415 0.578952 17.1911 0.583135 16.9407C0.582925 16.8693 0.582715 16.7978 0.582498 16.7243C0.592578 16.3276 0.644812 16.0822 0.932245 15.7978C1.07302 15.6902 1.16811 15.6587 1.34538 15.6574C1.4335 15.6552 1.4335 15.6552 1.5234 15.6529C1.58733 15.6536 1.65125 15.6543 1.71711 15.6551C1.78644 15.6541 1.85577 15.6531 1.92721 15.652C2.16024 15.6493 2.39313 15.65 2.62618 15.651C2.78997 15.6502 2.95377 15.6493 3.11756 15.6484C3.59137 15.6465 4.06514 15.6478 4.53895 15.6498C5.11586 15.652 5.69278 15.6525 6.2697 15.6528C6.33341 15.6528 6.39713 15.6528 6.46278 15.6529C8.38709 15.6533 10.3113 15.6392 12.2356 15.6252C12.5874 15.6226 12.9392 15.6203 13.291 15.618C13.7238 15.6152 14.1566 15.6121 14.5894 15.6087C14.8138 15.607 15.0383 15.6053 15.2627 15.604C15.5085 15.6024 15.7543 15.6004 16 15.5983C16.1096 15.5977 16.1096 15.5977 16.2214 15.5971C16.2872 15.5965 16.3531 15.5958 16.4209 15.5952C16.4783 15.5947 16.5357 15.5943 16.5949 15.5939C16.7248 15.5989 16.7248 15.5989 16.7907 15.5184C16.7972 15.4187 16.7992 15.3187 16.7993 15.2189C16.7995 15.1537 16.7997 15.0886 16.7999 15.0215C16.7997 14.9127 16.7997 14.9127 16.7995 14.8018C16.7996 14.6869 16.7996 14.6869 16.7997 14.5696C16.7998 14.3564 16.7996 14.1431 16.7992 13.9298C16.799 13.7955 16.7989 13.6611 16.7989 13.5268C16.7984 12.3346 16.789 11.1427 16.7734 9.9506C16.7722 9.85902 16.7722 9.85902 16.771 9.76559C16.763 9.15761 16.7546 8.54965 16.745 7.9417C16.7415 7.7138 16.7382 7.4859 16.7349 7.258C16.7333 7.15129 16.7316 7.04458 16.7298 6.93788C16.7272 6.79141 16.7251 6.64494 16.7231 6.49846C16.7211 6.37487 16.7211 6.37487 16.7191 6.2488C16.7237 6.07291 16.7462 5.94307 16.7907 5.77565C16.796 5.66022 16.7978 5.5446 16.7972 5.42904C16.7969 5.35967 16.7967 5.29031 16.7965 5.21884C16.7957 5.10628 16.7957 5.10628 16.7948 4.99146C16.7946 4.91307 16.7943 4.83468 16.7941 4.75391C16.793 4.41937 16.7912 4.08484 16.7893 3.7503C16.7865 3.18821 16.7866 2.62622 16.7907 2.06413C16.7913 1.95176 16.7913 1.95176 16.7919 1.83711C16.7937 1.62662 16.798 1.41633 16.8031 1.20589C16.8035 1.14398 16.8039 1.08207 16.8043 1.01828C16.8178 0.612815 16.8913 0.422846 17.1878 0.142091C17.3573 0.0572618 17.4801 0.0652183 17.6699 0.0622052C17.7827 0.0602233 17.7827 0.0602233 17.8977 0.0582014C17.9816 0.0570931 18.0655 0.0559848 18.152 0.0548429C18.2425 0.0534602 18.333 0.0520624 18.4234 0.050651C18.6761 0.0468545 18.9288 0.0435983 19.1815 0.0405121C19.3439 0.0385232 19.5063 0.0364386 19.6687 0.0343456C23.1579 -0.00975533 26.6476 -0.00296904 30.137 0.00879693Z" fill="#318181"/>
<path d="M49.025 9.55318C49.391 9.9293 49.3688 10.2213 49.3684 10.7213C49.3684 10.7919 49.3684 10.8625 49.3684 10.9352C49.3635 11.6306 49.309 12.3187 49.2412 13.0104C49.216 13.2796 49.1957 13.5492 49.1755 13.8189C49.1501 14.0643 49.0912 14.2862 49.025 14.524C48.9993 14.6245 48.9745 14.7253 48.9506 14.8264C48.9395 14.8716 48.9284 14.9167 48.917 14.9633C48.8848 15.1712 48.8891 15.3744 48.8927 15.5844C48.9597 15.5869 49.0268 15.5894 49.0959 15.5919C49.1854 15.5963 49.2748 15.6007 49.3643 15.6051C49.4083 15.6066 49.4523 15.6081 49.4977 15.6096C49.8612 15.6293 50.1533 15.7066 50.4026 15.9821C50.528 16.1936 50.5557 16.3648 50.5559 16.6056C50.5562 16.6957 50.5562 16.6957 50.5566 16.7877C50.5565 16.8538 50.5564 16.9199 50.5563 16.988C50.5565 17.0932 50.5565 17.0932 50.5567 17.2006C50.5571 17.4369 50.5571 17.6732 50.557 17.9095C50.5572 18.0784 50.5574 18.2473 50.5577 18.4163C50.5582 18.8283 50.5584 19.2403 50.5585 19.6524C50.5585 19.9873 50.5586 20.3223 50.5588 20.6573C50.5594 21.607 50.5597 22.5567 50.5597 23.5064C50.5597 23.5833 50.5597 23.5833 50.5597 23.6617C50.5597 23.7386 50.5597 23.7386 50.5597 23.8171C50.5596 24.6477 50.5603 25.4784 50.5612 26.309C50.5621 27.1619 50.5626 28.0148 50.5625 28.8677C50.5625 29.3466 50.5627 29.8254 50.5634 30.3042C50.5641 30.7547 50.5641 31.2052 50.5636 31.6557C50.5635 31.821 50.5637 31.9863 50.5641 32.1517C50.5646 32.3774 50.5643 32.6031 50.5638 32.8289C50.5641 32.8943 50.5644 32.9596 50.5648 33.027C50.5604 33.9022 50.5604 33.9022 50.278 34.2393C50.0116 34.3788 49.7935 34.3778 49.4969 34.3748C49.4378 34.3752 49.3786 34.3757 49.3177 34.3762C49.1194 34.3774 48.9212 34.3767 48.723 34.376C48.5809 34.3764 48.4388 34.377 48.2967 34.3777C47.9108 34.3793 47.5249 34.3792 47.139 34.3789C46.7357 34.3789 46.3324 34.3804 45.9291 34.3817C45.1652 34.3841 44.4013 34.3852 43.6374 34.3857C42.5149 34.3866 41.3923 34.3891 40.2697 34.3919C40.1875 34.3922 40.1054 34.3924 40.0207 34.3926C39.857 34.393 39.6933 34.3934 39.5295 34.3938C39.0486 34.395 38.5676 34.3958 38.0867 34.3961C37.7883 34.3964 37.4899 34.3969 37.1915 34.3974C37.0526 34.3976 36.9136 34.3977 36.7747 34.3977C36.5859 34.3976 36.3971 34.398 36.2083 34.3984C36.1526 34.3983 36.0969 34.3982 36.0395 34.3981C35.794 34.3755 35.794 34.3755 35.5886 34.4734C35.5816 34.6645 35.5789 34.8541 35.579 35.0453C35.5788 35.106 35.5786 35.1667 35.5783 35.2293C35.5776 35.4344 35.5774 35.6395 35.5771 35.8446C35.5767 35.991 35.5763 36.1374 35.5758 36.2837C35.5748 36.5998 35.574 36.9159 35.5734 37.232C35.5724 37.7315 35.5708 38.2311 35.5691 38.7307C35.5668 39.4309 35.5646 40.1312 35.5626 40.8314C35.5625 40.8759 35.5624 40.9204 35.5622 40.9662C35.5605 41.597 35.5589 42.2278 35.5574 42.8586C35.5572 42.9252 35.5572 42.9252 35.5571 42.9932C35.5569 43.0375 35.5568 43.0818 35.5567 43.1275C35.555 43.8668 35.5527 44.6061 35.55 45.3454C35.5482 45.8422 35.547 46.339 35.5463 46.8358C35.5457 47.1448 35.5445 47.4538 35.5432 47.7628C35.5427 47.9063 35.5425 48.0498 35.5424 48.1933C35.5424 48.389 35.5415 48.5846 35.5404 48.7802C35.5406 48.8372 35.5408 48.8943 35.5409 48.953C35.5376 49.3409 35.4758 49.5883 35.2577 49.916C35.0667 49.9869 34.8847 49.9906 34.6823 49.9908C34.5885 49.9911 34.5885 49.9911 34.4928 49.9914C34.4243 49.9913 34.3559 49.9912 34.2853 49.9911C34.2124 49.9913 34.1394 49.9914 34.0643 49.9916C33.8191 49.992 33.5739 49.9919 33.3286 49.9919C33.1532 49.9921 32.9777 49.9923 32.8023 49.9926C32.3746 49.9931 31.9469 49.9933 31.5193 49.9933C31.1717 49.9934 30.8241 49.9935 30.4765 49.9937C29.4911 49.9943 28.5057 49.9946 27.5204 49.9946C27.4673 49.9946 27.4141 49.9945 27.3594 49.9945C27.3062 49.9945 27.253 49.9945 27.1982 49.9945C26.336 49.9945 25.4739 49.9951 24.6117 49.9961C23.7266 49.997 22.8414 49.9975 21.9563 49.9974C21.4593 49.9974 20.9623 49.9976 20.4653 49.9983C20.0422 49.9989 19.6191 49.9991 19.196 49.9986C18.9801 49.9984 18.7642 49.9985 18.5484 49.999C18.3143 49.9995 18.0803 49.9992 17.8462 49.9987C17.778 49.999 17.7098 49.9993 17.6396 49.9997C17.2625 49.9979 16.9263 49.989 16.6047 49.7669C16.3726 49.4245 16.4527 48.8982 16.4558 48.5016C16.4563 48.3465 16.4569 48.1913 16.4574 48.0361C16.4578 47.9543 16.4582 47.8725 16.4587 47.7882C16.4608 47.3559 16.4618 46.9236 16.4622 46.4913C16.4623 46.447 16.4623 46.4026 16.4624 46.3569C16.463 45.2063 16.4391 44.0562 16.4114 42.906C16.4098 42.8325 16.4081 42.759 16.4065 42.6832C16.4034 42.5468 16.4 42.4104 16.3963 42.2741C16.389 41.9405 16.4032 41.6301 16.4599 41.3C16.474 41.1789 16.4876 41.0577 16.5005 40.9365C16.5906 40.1208 16.703 39.3212 16.8917 38.5223C16.9134 38.4269 16.9332 38.331 16.9514 38.2349C17.0123 37.9223 17.1039 37.6665 17.2539 37.3858C17.3184 37.2609 17.3702 37.1369 17.4196 37.0054C17.6282 36.452 17.8765 35.9419 18.1808 35.4344C18.213 35.3806 18.2452 35.3268 18.2783 35.2714C18.4797 34.9432 18.6992 34.6434 18.9474 34.349C19.0529 34.1908 19.0725 34.0617 19.1075 33.8769C19.1771 33.8503 19.1771 33.8503 19.2481 33.8231C19.4985 33.7195 19.6069 33.5607 19.7784 33.3555C19.9758 33.1292 20.202 32.9431 20.4313 32.7502C20.5276 32.666 20.5276 32.666 20.6259 32.5801C21.2486 32.0384 21.8947 31.565 22.6155 31.1595C22.692 31.1155 22.7685 31.0713 22.8448 31.027C23.4418 30.6822 24.033 30.3754 24.6713 30.1139C24.8374 30.0447 25.0006 29.9718 25.1638 29.8961C25.4486 29.7677 25.7407 29.6711 26.0385 29.5772C26.2146 29.5168 26.3829 29.4503 26.5545 29.3786C26.9725 29.2095 27.4024 29.0896 27.8362 28.9683C27.9149 28.9458 27.9937 28.9234 28.0748 28.9003C28.5203 28.7743 28.9653 28.659 29.418 28.5622C29.4667 28.5445 29.5153 28.5267 29.5654 28.5085C29.5872 28.4428 29.6091 28.3772 29.6316 28.3096C29.7712 28.2154 29.7712 28.2154 29.946 28.1274C30.003 28.0976 30.06 28.0679 30.1187 28.0373C30.3212 27.9689 30.4218 27.9854 30.6244 28.0445C31.0482 28.1482 31.3577 28.039 31.762 27.912C31.977 27.8555 32.1797 27.8191 32.3991 27.7877C34.6869 27.445 37.2952 26.768 39.349 25.7041C39.4255 25.6648 39.5021 25.6255 39.5809 25.585C39.6203 25.5646 39.6598 25.5443 39.7004 25.5233C39.8315 25.4563 39.9633 25.391 40.0954 25.3261C40.9392 24.9113 41.8041 24.477 42.4723 23.8028C42.5831 23.7119 42.6949 23.6223 42.8074 23.5335C43.3369 23.1025 43.8453 22.6369 44.232 22.0697C44.3256 21.947 44.3256 21.947 44.4841 21.7912C44.7571 21.5133 44.9631 21.1901 45.1775 20.8665C45.2443 20.766 45.3123 20.6664 45.3805 20.5668C47.2117 17.7667 47.8746 14.1905 47.9792 10.8976C47.9813 10.8401 47.9834 10.7825 47.9855 10.7232C47.9889 10.6184 47.9912 10.5136 47.9922 10.4087C48.0026 10.0726 48.0874 9.88024 48.297 9.61945C48.5314 9.43324 48.7462 9.4784 49.025 9.55318Z" fill="#318181"/>
<path d="M39.1834 13.5463C39.3334 13.702 39.3984 13.7754 39.4275 13.9937C39.2591 14.3555 38.9584 14.5873 38.6497 14.8263C38.3506 15.0496 38.3506 15.0496 38.2154 15.3814C38.1929 15.4818 38.1929 15.4818 38.1699 15.5843C37.9672 15.6672 37.9672 15.6672 37.7727 15.7169C37.7509 15.7825 37.729 15.8481 37.7065 15.9157C37.6574 15.9443 37.6083 15.9728 37.5576 16.0022C37.335 16.1396 37.1981 16.3134 37.0447 16.5205C37.0159 16.5588 36.9871 16.5971 36.9574 16.6365C36.568 17.1503 36.568 17.1503 36.3504 17.7466C36.3166 17.904 36.3166 17.904 36.1759 18.0366C36.135 18.0803 36.094 18.1241 36.0518 18.1692C36.0611 18.3486 36.0611 18.3486 36.118 18.5005C36.4512 18.4616 36.7462 18.39 37.0653 18.281C37.1305 18.2588 37.1305 18.2588 37.197 18.2362C37.4896 18.1356 37.7757 18.0234 38.0613 17.9048C38.2421 17.8355 38.4231 17.7815 38.6091 17.728C39.1426 17.5653 39.6557 17.3576 40.1714 17.1461C40.3337 17.0796 40.4962 17.0138 40.6588 16.9481C41.139 16.7529 41.6139 16.5557 42.0742 16.3163C42.2684 16.2154 42.4675 16.1263 42.6666 16.0359C43.522 15.6391 44.35 15.1998 45.1487 14.6979C45.228 14.6482 45.228 14.6482 45.3089 14.5975C45.5611 14.4361 45.7715 14.2766 45.9802 14.06C46.0239 14.06 46.0676 14.06 46.1126 14.06C46.1126 14.3224 46.1126 14.5849 46.1126 14.8553C46.0471 14.8772 45.9815 14.899 45.914 14.9216C45.866 15.0419 45.866 15.0419 45.846 15.1895C45.8359 15.2443 45.8258 15.2991 45.8154 15.3556C45.7959 15.4709 45.7764 15.5862 45.757 15.7015C45.6916 16.0554 45.5998 16.2829 45.3845 16.5785C45.3201 16.7452 45.3201 16.7452 45.2811 16.9099C45.209 17.1724 45.1113 17.3961 44.9874 17.6389C44.9689 17.7091 44.9505 17.7792 44.9315 17.8515C44.8482 18.1251 44.7336 18.3519 44.5944 18.6C44.4609 18.8405 44.3341 19.0767 44.2265 19.3303C44.1008 19.6214 43.9438 19.8865 43.7817 20.1584C43.666 20.3561 43.5803 20.5305 43.5312 20.754C43.443 20.8423 43.3547 20.9307 43.2664 21.0191C43.2189 21.0965 43.1735 21.1754 43.1299 21.2552C43.0252 21.4413 42.9513 21.5399 42.8031 21.6818C42.7581 21.7598 42.7581 21.7598 42.7121 21.8393C42.6046 22.0132 42.6046 22.0132 42.4349 22.1789C42.2648 22.332 42.2648 22.332 42.2033 22.5269C42.1828 22.5761 42.1623 22.6253 42.1412 22.676C42.1003 22.6856 42.0593 22.6951 42.0171 22.705C41.8531 22.7316 41.8531 22.7316 41.7524 22.9328C41.5911 23.1703 41.4719 23.2231 41.2146 23.3388C40.9784 23.5053 40.9784 23.5053 40.8174 23.7364C40.7519 23.7583 40.6864 23.7802 40.6189 23.8027C40.5998 23.8465 40.5807 23.8902 40.561 23.9353C40.5364 23.979 40.5118 24.0228 40.4865 24.0678C40.3769 24.0932 40.2664 24.1151 40.1556 24.1341C40.1242 24.1655 40.0928 24.197 40.0604 24.2294C39.957 24.3329 39.957 24.3329 39.7626 24.3951C39.5538 24.451 39.5538 24.451 39.4192 24.6063C39.3782 24.6473 39.3373 24.6883 39.2951 24.7306C39.2077 24.7306 39.1203 24.7306 39.0303 24.7306C39.0017 24.7607 38.973 24.7907 38.9435 24.8217C38.7785 24.9808 38.5862 25.0025 38.3684 25.062C38.3248 25.1057 38.2811 25.1495 38.2361 25.1945C38.1262 25.2279 38.1262 25.2279 37.9713 25.2608C37.8071 25.3032 37.643 25.346 37.479 25.3892C37.4356 25.4005 37.3922 25.4117 37.3475 25.4233C36.9885 25.5163 36.9885 25.5163 36.6475 25.6585C36.6257 25.7241 36.6038 25.7897 36.5813 25.8573C36.5064 25.8661 36.4315 25.8749 36.3543 25.884C36.2562 25.8958 36.1582 25.9076 36.0601 25.9194C35.986 25.9281 35.986 25.9281 35.9104 25.9369C35.6417 25.9656 35.6417 25.9656 35.3899 26.0561C35.2576 26.0787 35.1252 26.1008 34.9928 26.1224C34.9273 26.1443 34.8617 26.1662 34.7942 26.1887C34.726 26.1996 34.6577 26.2106 34.5874 26.2218C34.4045 26.2349 34.4045 26.2349 34.3309 26.3212C33.978 26.4222 33.6203 26.4727 33.2553 26.5038C33.1378 26.5085 33.1378 26.5085 33.0733 26.5864C32.9024 26.6194 32.732 26.6493 32.5603 26.6775C31.8436 26.8002 31.1434 26.9655 30.4423 27.158C30.3893 27.1725 30.3364 27.1869 30.2818 27.2018C30.0362 27.2538 30.0362 27.2538 29.83 27.3817C29.6135 27.4232 29.3968 27.4607 29.1791 27.4956C28.8779 27.548 28.6471 27.6365 28.3738 27.7793C28.1973 27.8231 28.1973 27.8231 28.0305 27.8498C27.804 27.8863 27.7103 27.913 27.5134 28.0445C27.3823 28.0794 27.3823 28.0794 27.2362 28.1066C26.9376 28.1687 26.6688 28.2554 26.3882 28.3758C26.3663 28.4196 26.3445 28.4633 26.322 28.5084C26.1968 28.5535 26.0694 28.5925 25.9414 28.6285C25.2434 28.8352 24.5824 29.0946 23.9392 29.4363C23.9747 29.6601 24.0127 29.8801 24.0715 30.099C24.0074 30.0649 23.9432 30.0307 23.8771 29.9955C23.4824 29.8273 23.1068 29.9248 22.7147 30.0618C22.4794 30.1375 22.4794 30.1375 22.4168 30.2979C22.3018 30.3479 22.1866 30.3975 22.0703 30.4444C21.9444 30.4955 21.9444 30.4955 21.817 30.6003C21.6887 30.6955 21.6887 30.6955 21.4984 30.7535C21.2792 30.8192 21.2792 30.8192 21.093 30.9938C20.8917 31.1618 20.7427 31.2138 20.4973 31.292C20.4536 31.3577 20.4099 31.4233 20.3649 31.4909C20.2772 31.5148 20.1889 31.5371 20.1002 31.5571C20.0783 31.6009 20.0565 31.6446 20.034 31.6897C19.9018 31.7564 19.7694 31.8226 19.6369 31.8885C19.4853 31.9898 19.3373 32.092 19.1901 32.1992C19.13 32.2425 19.13 32.2425 19.0688 32.2867C18.7196 32.5404 18.3811 32.8066 18.0483 33.0815C17.9821 32.949 17.9821 32.949 18.0161 32.8196C18.0354 32.7677 18.0548 32.7158 18.0747 32.6624C18.1059 32.5764 18.1059 32.5764 18.1378 32.4888C18.1713 32.3988 18.1713 32.3988 18.2055 32.3069C18.3489 31.9212 18.4624 31.5682 18.5116 31.1595C18.5985 31.0601 18.5985 31.0601 18.7102 30.9607C19.0152 30.4649 19.0152 30.4649 19.1073 29.9002C19.1729 29.8783 19.2384 29.8565 19.3059 29.8339C19.4186 29.6667 19.4186 29.6667 19.5293 29.4528C19.7628 29.0282 20.0105 28.6139 20.2657 28.2019C20.3174 28.1178 20.3174 28.1178 20.3702 28.0321C20.4404 27.9188 20.5121 27.8065 20.5851 27.695C20.7019 27.5125 20.7019 27.5125 20.795 27.2977C21.0621 26.7749 21.0621 26.7749 21.3533 26.675C21.6807 26.6136 22.0099 26.6136 22.3421 26.6174C22.6483 26.6209 22.9543 26.6118 23.2605 26.6047C23.3201 26.6037 23.3797 26.6027 23.4412 26.6017C24.0605 26.5894 24.6504 26.4942 25.2528 26.3537C25.3958 26.3211 25.5389 26.2934 25.6831 26.2669C26.006 26.2082 26.006 26.2082 26.322 26.1224C26.3657 26.0568 26.4093 25.9912 26.4544 25.9236C26.5867 25.9201 26.7191 25.9208 26.8515 25.9236C27.0127 25.8873 27.1727 25.8456 27.3314 25.7993C27.4527 25.7647 27.4527 25.7647 27.5765 25.7294C27.7824 25.6733 27.7824 25.6733 27.9105 25.5259C28.0068 25.2751 28.0205 24.9943 27.9767 24.7306C27.8638 24.5181 27.8638 24.5181 27.6458 24.3992C27.1504 24.3256 26.7119 24.4614 26.2475 24.6188C25.3102 24.9185 24.4087 25.0771 23.4276 25.1459C23.368 25.1504 23.3084 25.1549 23.247 25.1596C23.1938 25.1632 23.1406 25.1668 23.0857 25.1705C22.9267 25.1882 22.9267 25.1882 22.7478 25.3271C22.603 25.3022 22.603 25.3022 22.483 25.2608C22.483 25.1733 22.483 25.0858 22.483 24.9957C22.5909 24.9256 22.7016 24.8597 22.8139 24.7969C22.8467 24.7531 22.8795 24.7094 22.9132 24.6643C23.0125 24.5318 23.0125 24.5318 23.1663 24.4406C23.346 24.3314 23.4781 24.2137 23.6289 24.0678C23.8365 23.8725 24.0342 23.7137 24.2792 23.5679C24.8018 23.278 24.8018 23.278 25.1453 22.8153C25.1708 22.6017 25.1708 22.6017 25.1756 22.3705C25.1911 21.9784 25.3049 21.607 25.4077 21.2303C25.4381 21.1184 25.4381 21.1184 25.4691 21.0043C25.6567 20.3337 25.871 19.6491 26.232 19.0491C26.3355 18.8908 26.3355 18.8908 26.3882 18.6579C26.4535 18.437 26.4918 18.3827 26.6529 18.2354C26.6632 18.1739 26.6632 18.1739 26.6736 18.1112C26.7607 17.8416 27.0219 17.706 27.2445 17.5478C27.4688 17.4798 27.6203 17.5097 27.8443 17.5727C28.0066 17.6946 28.066 17.7891 28.1753 17.9703C28.1977 18.3073 28.016 18.5153 27.8319 18.7789C27.3975 19.451 27.0965 20.1938 26.8515 20.9528C26.8296 21.0174 26.8076 21.082 26.785 21.1485C26.6609 21.511 26.6609 21.511 26.7191 21.8807C26.9353 21.8318 27.1369 21.7611 27.3438 21.6818C27.4191 21.6531 27.4945 21.6244 27.5721 21.5949C27.7817 21.5115 27.9851 21.418 28.189 21.3215C28.2495 21.2935 28.31 21.2656 28.3723 21.2368C28.4927 21.1809 28.6124 21.1235 28.7313 21.0644C29.038 20.9237 29.2335 20.8557 29.5622 20.9611C29.7364 21.0329 29.8701 21.1121 30.0286 21.2179C30.1607 21.2628 30.2931 21.3069 30.4257 21.3505C30.5126 21.3863 30.5992 21.423 30.6856 21.4602C31.2547 21.7018 31.7707 21.8688 32.3911 21.9059C32.5087 21.9138 32.6257 21.9297 32.7423 21.947C32.786 22.0126 32.8297 22.0782 32.8747 22.1458C33.0246 22.2091 33.0246 22.2091 33.2015 22.2493C33.2595 22.2645 33.3174 22.2796 33.3771 22.2952C34.4795 22.5367 35.5948 22.6199 36.722 22.6304C36.789 22.6316 36.8561 22.6328 36.9251 22.634C37.3845 22.6377 37.3845 22.6377 37.7727 22.4109C37.9043 22.2183 37.928 22.0495 37.9341 21.8185C37.9367 21.7633 37.9394 21.708 37.9421 21.651C37.8871 21.4012 37.7717 21.3103 37.5742 21.1516C37.3859 21.1217 37.2371 21.1113 37.0498 21.1164C36.9448 21.1162 36.8397 21.116 36.7347 21.1158C36.6799 21.1163 36.6251 21.1168 36.5687 21.1173C35.4768 21.125 34.4651 21.025 33.4042 20.754C33.3009 20.7292 33.1974 20.7046 33.094 20.6802C32.8433 20.6202 32.5943 20.5549 32.3452 20.4889C32.2722 20.4712 32.1991 20.4535 32.1239 20.4353C32.0577 20.4188 31.9915 20.4023 31.9233 20.3853C31.8668 20.3715 31.8103 20.3578 31.7521 20.3436C31.6171 20.29 31.6171 20.29 31.4847 20.0912C31.5594 20.0679 31.6341 20.0445 31.711 20.0205C31.9923 19.9324 32.2731 19.8428 32.554 19.7531C32.7451 19.6927 32.9367 19.634 33.1284 19.5755C33.2534 19.5362 33.3785 19.4968 33.5035 19.4574C33.5632 19.4396 33.6228 19.4219 33.6843 19.4035C34.0172 19.2991 34.0172 19.2991 34.2668 19.0644C34.3376 18.8887 34.3376 18.8887 34.3971 18.6621C34.4619 18.4389 34.5256 18.3494 34.6618 18.1692C34.722 18.0529 34.7797 17.9354 34.8356 17.8171C35.6151 16.2387 36.7114 14.8956 38.0085 13.712C38.0824 13.6438 38.0824 13.6438 38.1577 13.5743C38.4728 13.3327 38.8371 13.3589 39.1834 13.5463Z" fill="#F0B284"/>
</svg>
