<svg width="50" height="50" viewBox="0 0 50 50" fill="none" xmlns="http://www.w3.org/2000/svg">
<rect width="50" height="50" rx="25" fill="#6688CC"/>
<path fill-rule="evenodd" clip-rule="evenodd" d="M34.375 14.6875H15.625C15.3764 14.6875 15.1379 14.7863 14.9621 14.9621C14.7863 15.1379 14.6875 15.3764 14.6875 15.625V34.375C14.6875 34.6236 14.7863 34.8621 14.9621 35.0379C15.1379 35.2137 15.3764 35.3125 15.625 35.3125H34.375C34.6236 35.3125 34.8621 35.2137 35.0379 35.0379C35.2137 34.8621 35.3125 34.6236 35.3125 34.375V15.625C35.3125 15.3764 35.2137 15.1379 35.0379 14.9621C34.8621 14.7863 34.6236 14.6875 34.375 14.6875ZM15.625 11.875C14.6304 11.875 13.6766 12.2701 12.9733 12.9733C12.2701 13.6766 11.875 14.6304 11.875 15.625V34.375C11.875 35.3696 12.2701 36.3234 12.9733 37.0266C13.6766 37.7299 14.6304 38.125 15.625 38.125H34.375C35.3696 38.125 36.3234 37.7299 37.0266 37.0266C37.7299 36.3234 38.125 35.3696 38.125 34.375V15.625C38.125 14.6304 37.7299 13.6766 37.0266 12.9733C36.3234 12.2701 35.3696 11.875 34.375 11.875H15.625ZM32.5 30.3569L27.8125 25L23.17 30.3062L20.3125 26.875L17.5 30.25V32.5H32.5V30.3569ZM22.1875 25C22.9334 25 23.6488 24.7037 24.1762 24.1762C24.7037 23.6488 25 22.9334 25 22.1875C25 21.4416 24.7037 20.7262 24.1762 20.1988C23.6488 19.6713 22.9334 19.375 22.1875 19.375C21.4416 19.375 20.7262 19.6713 20.1988 20.1988C19.6713 20.7262 19.375 21.4416 19.375 22.1875C19.375 22.9334 19.6713 23.6488 20.1988 24.1762C20.7262 24.7037 21.4416 25 22.1875 25Z" fill="black" fill-opacity="0.8"/>
</svg>
