<svg width="23" height="23" viewBox="0 0 23 23" fill="none" xmlns="http://www.w3.org/2000/svg">
<path d="M4.32764 18.2879L4.32765 18.2879L4.60055 18.576L3.45869 20.6326L3.04633 21.3753H3.89583H11.5C12.7968 21.3753 14.0809 21.1199 15.279 20.6236C16.4771 20.1274 17.5657 19.4 18.4827 18.483C19.3997 17.566 20.127 16.4774 20.6233 15.2793C21.1196 14.0812 21.375 12.7971 21.375 11.5003C21.375 10.2035 21.1196 8.91942 20.6233 7.72133C20.127 6.52324 19.3997 5.43462 18.4827 4.51765C17.5657 3.60067 16.4771 2.87328 15.279 2.37701C14.0809 1.88075 12.7968 1.62533 11.5 1.62533C8.88099 1.62533 6.36924 2.66572 4.51732 4.51765C2.6654 6.36957 1.625 8.88131 1.625 11.5003C1.625 14.13 2.65138 16.5184 4.32764 18.2879ZM0.541666 11.501V11.5003C0.541666 5.44834 5.44802 0.541992 11.5 0.541992C17.552 0.541992 22.4583 5.44834 22.4583 11.5003C22.4583 17.5523 17.552 22.4587 11.5 22.4587H1.20413L3.10369 19.0412L3.26973 18.7424L3.0517 18.4793C1.42636 16.5173 0.538412 14.0487 0.541666 11.501ZM15.1667 8.87533V9.95866H7.83333V8.87533H15.1667ZM7.83333 13.042H13.0833V14.1253H7.83333V13.042Z" fill="#666666" stroke="#666666"/>
</svg>
