<svg width="50" height="50" viewBox="0 0 50 50" fill="none" xmlns="http://www.w3.org/2000/svg">
<rect width="50" height="50" rx="25" fill="#6688CC"/>
<path opacity="0.25" d="M17.5 38.75H12.5C12.1685 38.75 11.8505 38.6183 11.6161 38.3839C11.3817 38.1495 11.25 37.8315 11.25 37.5V27.5C11.25 27.1685 11.3817 26.8505 11.6161 26.6161C11.8505 26.3817 12.1685 26.25 12.5 26.25H17.5C17.8315 26.25 18.1495 26.3817 18.3839 26.6161C18.6183 26.8505 18.75 27.1685 18.75 27.5V37.5C18.75 37.8315 18.6183 38.1495 18.3839 38.3839C18.1495 38.6183 17.8315 38.75 17.5 38.75Z" fill="black" fill-opacity="0.8"/>
<path d="M27.5 38.75H22.5C22.1685 38.75 21.8505 38.6183 21.6161 38.3839C21.3817 38.1495 21.25 37.8315 21.25 37.5V12.5C21.25 12.1685 21.3817 11.8505 21.6161 11.6161C21.8505 11.3817 22.1685 11.25 22.5 11.25H27.5C27.8315 11.25 28.1495 11.3817 28.3839 11.6161C28.6183 11.8505 28.75 12.1685 28.75 12.5V37.5C28.75 37.8315 28.6183 38.1495 28.3839 38.3839C28.1495 38.6183 27.8315 38.75 27.5 38.75Z" fill="black" fill-opacity="0.8"/>
<path opacity="0.5" d="M37.5 38.75H32.5C32.1685 38.75 31.8505 38.6183 31.6161 38.3839C31.3817 38.1495 31.25 37.8315 31.25 37.5V22.5C31.25 22.1685 31.3817 21.8505 31.6161 21.6161C31.8505 21.3817 32.1685 21.25 32.5 21.25H37.5C37.8315 21.25 38.1495 21.3817 38.3839 21.6161C38.6183 21.8505 38.75 22.1685 38.75 22.5V37.5C38.75 37.8315 38.6183 38.1495 38.3839 38.3839C38.1495 38.6183 37.8315 38.75 37.5 38.75Z" fill="black" fill-opacity="0.8"/>
</svg>
