<svg width="33" height="32" viewBox="0 0 33 32" fill="none" xmlns="http://www.w3.org/2000/svg">
<path d="M26.5 7H23.035L21.3312 4.445C21.24 4.30819 21.1164 4.196 20.9714 4.11838C20.8264 4.04076 20.6645 4.0001 20.5 4H12.5C12.3355 4.0001 12.1736 4.04076 12.0286 4.11838C11.8836 4.196 11.76 4.30819 11.6687 4.445L9.96375 7H6.5C5.70435 7 4.94129 7.31607 4.37868 7.87868C3.81607 8.44129 3.5 9.20435 3.5 10V24C3.5 24.7956 3.81607 25.5587 4.37868 26.1213C4.94129 26.6839 5.70435 27 6.5 27H26.5C27.2956 27 28.0587 26.6839 28.6213 26.1213C29.1839 25.5587 29.5 24.7956 29.5 24V10C29.5 9.20435 29.1839 8.44129 28.6213 7.87868C28.0587 7.31607 27.2956 7 26.5 7ZM27.5 24C27.5 24.2652 27.3946 24.5196 27.2071 24.7071C27.0196 24.8946 26.7652 25 26.5 25H6.5C6.23478 25 5.98043 24.8946 5.79289 24.7071C5.60536 24.5196 5.5 24.2652 5.5 24V10C5.5 9.73478 5.60536 9.48043 5.79289 9.29289C5.98043 9.10536 6.23478 9 6.5 9H10.5C10.6647 9.00011 10.8268 8.95954 10.9721 8.88191C11.1173 8.80428 11.2411 8.69199 11.3325 8.555L13.035 6H19.9638L21.6675 8.555C21.7589 8.69199 21.8827 8.80428 22.0279 8.88191C22.1732 8.95954 22.3353 9.00011 22.5 9H26.5C26.7652 9 27.0196 9.10536 27.2071 9.29289C27.3946 9.48043 27.5 9.73478 27.5 10V24ZM21.5 17C21.5 17.2652 21.3946 17.5196 21.2071 17.7071C21.0196 17.8946 20.7652 18 20.5 18H17.5V21C17.5 21.2652 17.3946 21.5196 17.2071 21.7071C17.0196 21.8946 16.7652 22 16.5 22C16.2348 22 15.9804 21.8946 15.7929 21.7071C15.6054 21.5196 15.5 21.2652 15.5 21V18H12.5C12.2348 18 11.9804 17.8946 11.7929 17.7071C11.6054 17.5196 11.5 17.2652 11.5 17C11.5 16.7348 11.6054 16.4804 11.7929 16.2929C11.9804 16.1054 12.2348 16 12.5 16H15.5V13C15.5 12.7348 15.6054 12.4804 15.7929 12.2929C15.9804 12.1054 16.2348 12 16.5 12C16.7652 12 17.0196 12.1054 17.2071 12.2929C17.3946 12.4804 17.5 12.7348 17.5 13V16H20.5C20.7652 16 21.0196 16.1054 21.2071 16.2929C21.3946 16.4804 21.5 16.7348 21.5 17Z" fill="#3B5D8F"/>
</svg>
