<svg width="33" height="32" viewBox="0 0 33 32" fill="none" xmlns="http://www.w3.org/2000/svg">
<path d="M28.7325 12.8525C28.2612 12.36 27.7738 11.8525 27.59 11.4062C27.42 10.9975 27.41 10.32 27.4 9.66375C27.3813 8.44375 27.3612 7.06125 26.4 6.1C25.4387 5.13875 24.0562 5.11875 22.8363 5.1C22.18 5.09 21.5025 5.08 21.0938 4.91C20.6488 4.72625 20.14 4.23875 19.6475 3.7675C18.785 2.93875 17.805 2 16.5 2C15.195 2 14.2162 2.93875 13.3525 3.7675C12.86 4.23875 12.3525 4.72625 11.9062 4.91C11.5 5.08 10.82 5.09 10.1637 5.1C8.94375 5.11875 7.56125 5.13875 6.6 6.1C5.63875 7.06125 5.625 8.44375 5.6 9.66375C5.59 10.32 5.58 10.9975 5.41 11.4062C5.22625 11.8512 4.73875 12.36 4.2675 12.8525C3.43875 13.715 2.5 14.695 2.5 16C2.5 17.305 3.43875 18.2837 4.2675 19.1475C4.73875 19.64 5.22625 20.1475 5.41 20.5938C5.58 21.0025 5.59 21.68 5.6 22.3363C5.61875 23.5562 5.63875 24.9387 6.6 25.9C7.56125 26.8612 8.94375 26.8813 10.1637 26.9C10.82 26.91 11.4975 26.92 11.9062 27.09C12.3512 27.2738 12.86 27.7612 13.3525 28.2325C14.215 29.0613 15.195 30 16.5 30C17.805 30 18.7837 29.0613 19.6475 28.2325C20.14 27.7612 20.6475 27.2738 21.0938 27.09C21.5025 26.92 22.18 26.91 22.8363 26.9C24.0562 26.8813 25.4387 26.8612 26.4 25.9C27.3612 24.9387 27.3813 23.5562 27.4 22.3363C27.41 21.68 27.42 21.0025 27.59 20.5938C27.7738 20.1488 28.2612 19.64 28.7325 19.1475C29.5613 18.285 30.5 17.305 30.5 16C30.5 14.695 29.5613 13.7162 28.7325 12.8525ZM27.2887 17.7638C26.69 18.3888 26.07 19.035 25.7412 19.8288C25.4262 20.5913 25.4125 21.4625 25.4 22.3062C25.3875 23.1812 25.3738 24.0975 24.985 24.485C24.5963 24.8725 23.6862 24.8875 22.8062 24.9C21.9625 24.9125 21.0913 24.9262 20.3288 25.2412C19.535 25.57 18.8888 26.19 18.2638 26.7887C17.6388 27.3875 17 28 16.5 28C16 28 15.3562 27.385 14.7362 26.7887C14.1163 26.1925 13.465 25.57 12.6713 25.2412C11.9088 24.9262 11.0375 24.9125 10.1938 24.9C9.31875 24.8875 8.4025 24.8738 8.015 24.485C7.6275 24.0963 7.6125 23.1862 7.6 22.3062C7.5875 21.4625 7.57375 20.5913 7.25875 19.8288C6.93 19.035 6.31 18.3888 5.71125 17.7638C5.1125 17.1388 4.5 16.5 4.5 16C4.5 15.5 5.115 14.8562 5.71125 14.2362C6.3075 13.6163 6.93 12.965 7.25875 12.1713C7.57375 11.4088 7.5875 10.5375 7.6 9.69375C7.6125 8.81875 7.62625 7.9025 8.015 7.515C8.40375 7.1275 9.31375 7.1125 10.1938 7.1C11.0375 7.0875 11.9088 7.07375 12.6713 6.75875C13.465 6.43 14.1112 5.81 14.7362 5.21125C15.3612 4.6125 16 4 16.5 4C17 4 17.6438 4.615 18.2638 5.21125C18.8838 5.8075 19.535 6.43 20.3288 6.75875C21.0913 7.07375 21.9625 7.0875 22.8062 7.1C23.6812 7.1125 24.5975 7.12625 24.985 7.515C25.3725 7.90375 25.3875 8.81375 25.4 9.69375C25.4125 10.5375 25.4262 11.4088 25.7412 12.1713C26.07 12.965 26.69 13.6112 27.2887 14.2362C27.8875 14.8612 28.5 15.5 28.5 16C28.5 16.5 27.885 17.1438 27.2887 17.7638ZM18 22.5C18 22.7967 17.912 23.0867 17.7472 23.3334C17.5824 23.58 17.3481 23.7723 17.074 23.8858C16.7999 23.9993 16.4983 24.0291 16.2074 23.9712C15.9164 23.9133 15.6491 23.7704 15.4393 23.5607C15.2296 23.3509 15.0867 23.0836 15.0288 22.7926C14.9709 22.5017 15.0006 22.2001 15.1142 21.926C15.2277 21.6519 15.42 21.4176 15.6666 21.2528C15.9133 21.088 16.2033 21 16.5 21C16.8978 21 17.2794 21.158 17.5607 21.4393C17.842 21.7206 18 22.1022 18 22.5ZM21.5 13.5C21.5 15.6725 19.78 17.4913 17.5 17.91V18C17.5 18.2652 17.3946 18.5196 17.2071 18.7071C17.0196 18.8946 16.7652 19 16.5 19C16.2348 19 15.9804 18.8946 15.7929 18.7071C15.6054 18.5196 15.5 18.2652 15.5 18V17C15.5 16.7348 15.6054 16.4804 15.7929 16.2929C15.9804 16.1054 16.2348 16 16.5 16C18.1537 16 19.5 14.875 19.5 13.5C19.5 12.125 18.1537 11 16.5 11C14.8463 11 13.5 12.125 13.5 13.5V14C13.5 14.2652 13.3946 14.5196 13.2071 14.7071C13.0196 14.8946 12.7652 15 12.5 15C12.2348 15 11.9804 14.8946 11.7929 14.7071C11.6054 14.5196 11.5 14.2652 11.5 14V13.5C11.5 11.0188 13.7425 9 16.5 9C19.2575 9 21.5 11.0188 21.5 13.5Z" fill="#666666"/>
</svg>
