<svg width="50" height="50" viewBox="0 0 50 50" fill="none" xmlns="http://www.w3.org/2000/svg">
<rect width="50" height="50" rx="25" fill="#6688CC"/>
<path d="M26.2498 13.75C31.0998 13.75 34.9998 17.675 34.9998 22.5C34.9998 26 32.9623 28.9875 29.9998 30.3875V36.25H21.2498V32.5H19.9998C18.6123 32.5 17.4998 31.3875 17.4998 30V26.25H15.6248C15.0998 26.25 14.7998 25.625 15.0998 25.2375L17.4998 22.075C17.6099 19.8291 18.5801 17.7117 20.2091 16.1618C21.8382 14.6119 24.0012 13.7483 26.2498 13.75ZM22.8998 19.2375H25.3123C25.3248 18.8625 25.4373 18.575 25.6623 18.375C25.8937 18.1831 26.1866 18.081 26.4873 18.0875C26.8748 18.0875 27.1998 18.2125 27.4248 18.4375C27.6498 18.675 27.7498 19 27.7498 19.375C27.7498 19.775 27.6623 20.1125 27.4623 20.4C27.2873 20.6875 27.0248 20.9375 26.6998 21.1375C26.0623 21.5625 25.6248 21.9375 25.3873 22.275C25.1373 22.6 24.9998 23.125 24.9998 23.75H27.4998C27.4998 23.3625 27.5498 23.05 27.6623 22.825C27.7748 22.5875 27.9873 22.375 28.2998 22.175C28.8623 21.875 29.3248 21.5125 29.6873 21.0125C30.0498 20.5125 30.2373 20 30.2373 19.375C30.2373 18.425 29.8998 17.6625 29.2248 17.1C28.5623 16.5375 27.6498 16.25 26.4873 16.25C25.3998 16.25 24.5248 16.5 23.8498 16.9875C23.1998 17.5 22.8748 18.2125 22.8873 19.2L22.8998 19.2375ZM24.9998 27.5H27.4998V25H24.9998V27.5ZM26.2498 11.25C20.5123 11.25 15.7623 15.525 15.0748 21.125L13.1248 23.75H13.0873L13.0623 23.7875C12.3748 24.7375 12.2873 25.9875 12.8248 27.025C13.2748 27.8875 14.0748 28.4875 14.9998 28.675V30C14.9998 32.3125 16.5998 34.275 18.7498 34.8375V38.75H32.4998V31.875C35.6248 29.7875 37.4998 26.325 37.4998 22.5C37.4998 16.2875 32.4498 11.25 26.2498 11.25Z" fill="black" fill-opacity="0.8"/>
</svg>
