<svg width="33" height="32" viewBox="0 0 33 32" fill="none" xmlns="http://www.w3.org/2000/svg">
<path d="M16.5 15C16.7652 15 17.0196 15.1054 17.2071 15.2929C17.3946 15.4804 17.5 15.7348 17.5 16V18H19.5C19.7652 18 20.0196 18.1054 20.2071 18.2929C20.3946 18.4804 20.5 18.7348 20.5 19C20.5 19.2652 20.3946 19.5196 20.2071 19.7071C20.0196 19.8946 19.7652 20 19.5 20H17.5V22C17.5 22.2652 17.3946 22.5196 17.2071 22.7071C17.0196 22.8946 16.7652 23 16.5 23C16.2348 23 15.9804 22.8946 15.7929 22.7071C15.6054 22.5196 15.5 22.2652 15.5 22V20H13.5C13.2348 20 12.9804 19.8946 12.7929 19.7071C12.6054 19.5196 12.5 19.2652 12.5 19C12.5 18.7348 12.6054 18.4804 12.7929 18.2929C12.9804 18.1054 13.2348 18 13.5 18H15.5V16C15.5 15.7348 15.6054 15.4804 15.7929 15.2929C15.9804 15.1054 16.2348 15 16.5 15ZM29.5 11V25C29.5 25.5304 29.2893 26.0391 28.9142 26.4142C28.5391 26.7893 28.0304 27 27.5 27H5.5C4.96957 27 4.46086 26.7893 4.08579 26.4142C3.71071 26.0391 3.5 25.5304 3.5 25V8C3.5 7.46957 3.71071 6.96086 4.08579 6.58579C4.46086 6.21071 4.96957 6 5.5 6H12.1663C12.5988 6.00107 13.0196 6.14132 13.3663 6.4L16.8337 9H27.5C28.0304 9 28.5391 9.21071 28.9142 9.58579C29.2893 9.96086 29.5 10.4696 29.5 11ZM5.5 12H12.1663L14.8337 10L12.1663 8H5.5V12ZM27.5 11H16.8337L13.3663 13.6C13.0196 13.8587 12.5988 13.9989 12.1663 14H5.5V25H27.5V11Z" fill="#3B5D8F"/>
</svg>
