<svg width="50" height="50" viewBox="0 0 50 50" fill="none" xmlns="http://www.w3.org/2000/svg">
<rect width="50" height="50" rx="25" fill="#6688CC"/>
<g clip-path="url(#clip0_666_684)">
<path d="M23.125 15.6875H24.125V14.6875V11.4062C24.125 11.1792 24.3042 11 24.5312 11H27.3437C27.5708 11 27.75 11.1792 27.75 11.4062V14.6875V15.6875H28.75H32.0312C32.2583 15.6875 32.4375 15.8667 32.4375 16.0938V18.9062C32.4375 19.1333 32.2583 19.3125 32.0312 19.3125H28.75H27.75V20.3125V23.5938C27.75 23.8208 27.5708 24 27.3437 24H24.5312C24.3042 24 24.125 23.8208 24.125 23.5938V20.3125V19.3125H23.125H19.8437C19.6167 19.3125 19.4375 19.1333 19.4375 18.9062V16.0938C19.4375 15.8667 19.6167 15.6875 19.8437 15.6875H23.125ZM42.2022 32.1751L39.7491 33.9805H39.7583L34.7906 37.6415C34.7904 37.6416 34.7903 37.6417 34.7902 37.6418C33.5904 38.5236 32.1397 39 30.6543 39H11.875C11.3902 39 11 38.6098 11 38.125V34.375C11 33.8902 11.3902 33.5 11.875 33.5H14.0312H14.3826L14.6568 33.2802L17.2855 31.1725C17.2858 31.1723 17.2861 31.172 17.2864 31.1718C18.4397 30.2526 19.8719 29.75 21.3496 29.75H30.625C31.1098 29.75 31.5 30.1402 31.5 30.625C31.5 31.1098 31.1098 31.5 30.625 31.5H25.9375C24.8696 31.5 24 32.3696 24 33.4375C24 34.5054 24.8696 35.375 25.9375 35.375H33.0039H33.3325L33.5971 35.1801L40.6103 30.0124C40.6103 30.0124 40.6104 30.0124 40.6104 30.0124C41.2087 29.5722 42.0475 29.6998 42.4876 30.2978C42.9279 30.8961 42.8003 31.7349 42.2022 32.1751Z" stroke="black" stroke-width="2"/>
</g>
<defs>
<clipPath id="clip0_666_684">
<rect width="33.75" height="30" fill="white" transform="translate(10 10)"/>
</clipPath>
</defs>
</svg>
