<svg width="19" height="20" viewBox="0 0 19 20" fill="none" xmlns="http://www.w3.org/2000/svg">
<path fill-rule="evenodd" clip-rule="evenodd" d="M16.2406 3.26029L3.12396 8.00299L7.49375 10.5322L11.3469 6.678C11.5423 6.48267 11.8074 6.373 12.0837 6.3731C12.36 6.37319 12.625 6.48306 12.8203 6.67852C13.0156 6.87397 13.1253 7.13902 13.1252 7.41534C13.1251 7.69167 13.0153 7.95663 12.8198 8.15195L8.96563 12.0061L11.4969 16.3749L16.2406 3.26029ZM16.5771 0.922787C17.8219 0.471745 19.0281 1.67799 18.5771 2.92279L13.075 18.1363C12.6229 19.3842 10.9188 19.5363 10.2531 18.3874L6.90209 12.5978L1.1125 9.24675C-0.0364548 8.58112 0.115629 6.87695 1.36355 6.42487L16.5771 0.922787Z" fill="#4D4D4D"/>
</svg>
