<svg width="303" height="302" viewBox="0 0 303 302" fill="none" xmlns="http://www.w3.org/2000/svg">
<path d="M241.204 137.348C240.885 143.492 242.436 149.588 245.653 154.832C248.869 160.077 253.6 164.223 259.221 166.723C264.842 169.224 271.09 169.962 277.139 168.839C283.188 167.717 288.754 164.787 293.104 160.436C297.454 156.085 300.382 150.518 301.503 144.469C302.624 138.42 301.885 132.173 299.383 126.552C296.881 120.932 292.734 116.202 287.489 112.986C282.244 109.771 276.148 108.221 270.004 108.541C262.491 108.933 255.39 112.094 250.072 117.414C244.753 122.734 241.594 129.835 241.204 137.348Z" fill="white"/>
<path d="M241.028 138.855C241.028 138.855 241.028 138.686 241.028 138.361C241.028 138.036 241.028 137.529 241.074 136.912L241.113 135.846C241.152 135.449 241.223 135.027 241.288 134.546C241.407 133.478 241.604 132.42 241.88 131.381C242.565 128.507 243.688 125.756 245.208 123.224C247.416 119.493 250.391 116.273 253.936 113.778C257.481 111.283 261.515 109.569 265.772 108.749C267.06 108.506 268.363 108.354 269.672 108.294C270.322 108.294 270.972 108.203 271.668 108.209L273.696 108.307C274.04 108.307 274.385 108.307 274.723 108.372L275.743 108.528C276.425 108.638 277.121 108.716 277.81 108.859C279.197 109.166 280.563 109.563 281.898 110.049C283.263 110.541 284.592 111.127 285.876 111.804C286.526 112.155 287.176 112.564 287.787 112.941C288.435 113.329 289.054 113.763 289.639 114.241C290.864 115.147 292.028 116.133 293.123 117.192C294.204 118.309 295.209 119.497 296.132 120.747C298.043 123.308 299.527 126.162 300.526 129.197C302.641 135.478 302.641 142.278 300.526 148.559C299.529 151.594 298.047 154.447 296.139 157.009C295.215 158.258 294.207 159.444 293.123 160.558C292.032 161.62 290.87 162.609 289.646 163.515C289.058 163.982 288.437 164.406 287.787 164.782C287.137 165.166 286.526 165.575 285.876 165.92C283.318 167.248 280.598 168.238 277.784 168.864C277.095 169.007 276.399 169.085 275.717 169.196L274.697 169.352C274.359 169.397 274.014 169.391 273.67 169.417L271.642 169.514C270.992 169.514 270.309 169.456 269.646 169.43C268.337 169.367 267.034 169.213 265.746 168.968C261.483 168.152 257.442 166.439 253.891 163.942C250.34 161.446 247.36 158.223 245.149 154.487C243.633 151.95 242.513 149.198 241.828 146.323C241.552 145.287 241.354 144.231 241.236 143.165C241.171 142.703 241.1 142.274 241.061 141.865L241.022 140.799C241.022 140.149 241.022 139.694 240.976 139.349C240.931 139.005 240.976 138.855 240.976 138.855C240.976 138.855 240.976 139.024 241.028 139.349C241.08 139.674 241.087 140.175 241.126 140.792C241.126 141.111 241.171 141.442 241.191 141.852C241.21 142.261 241.321 142.664 241.386 143.119C241.528 144.18 241.745 145.229 242.036 146.258C242.75 149.1 243.889 151.817 245.416 154.318C247.625 157.997 250.589 161.166 254.11 163.619C257.632 166.071 261.633 167.75 265.85 168.546C267.113 168.778 268.39 168.923 269.672 168.981C270.322 168.981 270.972 169.072 271.622 169.059L273.618 168.955C273.956 168.955 274.268 168.955 274.625 168.89L275.632 168.734C276.282 168.624 276.991 168.546 277.667 168.403C279.033 168.098 280.377 167.703 281.69 167.22C283.04 166.733 284.356 166.155 285.629 165.491C286.279 165.14 286.877 164.737 287.507 164.366C288.144 163.993 288.752 163.574 289.327 163.112C291.794 161.34 293.951 159.173 295.71 156.697C297.592 154.182 299.054 151.379 300.039 148.397C302.119 142.221 302.119 135.535 300.039 129.359C299.058 126.375 297.603 123.568 295.729 121.046C294.821 119.817 293.833 118.649 292.772 117.549C291.695 116.505 290.551 115.532 289.347 114.637C288.771 114.177 288.162 113.758 287.527 113.383C286.877 113.006 286.285 112.603 285.648 112.259C284.378 111.589 283.062 111.011 281.71 110.53C280.396 110.046 279.052 109.651 277.686 109.347C277.036 109.204 276.328 109.126 275.658 109.015L274.651 108.859C274.313 108.814 274.001 108.814 273.637 108.794L271.642 108.69C270.992 108.69 270.342 108.742 269.692 108.762C268.409 108.823 267.132 108.97 265.87 109.204C261.655 109.996 257.656 111.673 254.136 114.123C250.616 116.573 247.655 119.741 245.448 123.419C243.922 125.919 242.782 128.637 242.068 131.478C241.778 132.506 241.561 133.553 241.418 134.611C241.353 135.072 241.269 135.495 241.223 135.911C241.178 136.327 241.178 136.652 241.158 136.97C241.119 137.586 241.087 138.067 241.061 138.413C241.028 138.686 241.028 138.855 241.028 138.855Z" fill="#263238"/>
<path d="M286.474 129.347H259.078V152.706H286.474V129.347Z" fill="#E0E0E0"/>
<path d="M286.474 152.706C286.474 152.706 286.474 152.55 286.474 152.264C286.474 151.978 286.474 151.543 286.474 151.01C286.474 149.898 286.474 148.293 286.435 146.258C286.435 142.17 286.396 136.353 286.363 129.359L286.506 129.502H259.117C259.168 129.443 259.222 129.387 259.279 129.333V135.579C259.279 137.629 259.279 139.635 259.279 141.598C259.279 145.498 259.279 149.235 259.279 152.686L259.13 152.537L278.902 152.615L284.511 152.654H285.999H286.526H286.409H286.038H284.576L278.999 152.693L259.13 152.764H258.98V152.615C258.98 149.164 258.98 145.465 258.98 141.527C258.98 139.564 258.98 137.557 258.98 135.508V129.353C258.831 129.502 259.188 129.145 259.156 129.184H286.545H286.688V129.327C286.656 136.372 286.63 142.222 286.617 146.33C286.617 148.351 286.617 149.944 286.578 151.049C286.578 151.573 286.578 151.982 286.578 152.277C286.487 152.576 286.474 152.706 286.474 152.706Z" fill="#263238"/>
<path d="M261.912 137.348H260.696C259.821 137.348 258.981 137 258.362 136.38C257.742 135.761 257.394 134.921 257.394 134.046V128.625H265.194V134.046C265.194 134.918 264.849 135.755 264.234 136.374C263.619 136.992 262.784 137.342 261.912 137.348Z" fill="#318181"/>
<path d="M261.912 137.347C261.912 137.314 262.198 137.347 262.685 137.198C263.374 137.01 263.984 136.607 264.427 136.047C264.728 135.648 264.932 135.186 265.025 134.695C265.084 134.103 265.099 133.508 265.07 132.914C265.07 131.614 265.07 130.191 265.07 128.657L265.233 128.819H257.433L257.596 128.657C257.596 130.347 257.596 131.907 257.596 133.363C257.596 133.714 257.596 134.071 257.596 134.383C257.627 134.695 257.701 135.001 257.817 135.293C258.029 135.806 258.372 136.254 258.811 136.593C259.458 137.088 260.259 137.339 261.073 137.301C261.371 137.296 261.669 137.316 261.964 137.36C261.669 137.404 261.371 137.424 261.073 137.418C260.223 137.501 259.373 137.27 258.681 136.769C258.199 136.41 257.82 135.93 257.583 135.378C257.451 135.065 257.365 134.734 257.329 134.396C257.297 134.045 257.329 133.707 257.329 133.35C257.329 131.913 257.329 130.334 257.329 128.644V128.481H265.48V128.644C265.48 130.178 265.48 131.608 265.48 132.901C265.501 133.511 265.474 134.122 265.402 134.728C265.29 135.251 265.056 135.741 264.72 136.158C264.248 136.753 263.584 137.164 262.841 137.321C262.647 137.362 262.448 137.384 262.25 137.386L261.912 137.347Z" fill="#263238"/>
<path d="M269.672 137.348H268.45C267.575 137.346 266.736 136.997 266.118 136.379C265.499 135.76 265.15 134.921 265.149 134.046V128.625H272.948V134.046C272.946 134.916 272.602 135.751 271.988 136.369C271.375 136.988 270.543 137.339 269.672 137.348Z" fill="#318181"/>
<path d="M269.672 137.347C269.672 137.315 269.952 137.347 270.439 137.198C271.136 137.005 271.75 136.589 272.188 136.015C272.488 135.615 272.694 135.153 272.792 134.663C272.848 134.071 272.863 133.476 272.838 132.882C272.838 131.582 272.838 130.159 272.838 128.625L273 128.787H265.201L265.37 128.625C265.37 130.315 265.37 131.875 265.37 133.33C265.37 133.681 265.37 134.039 265.37 134.351C265.399 134.663 265.471 134.969 265.584 135.261C265.801 135.771 266.143 136.218 266.578 136.561C267.226 137.055 268.027 137.305 268.84 137.269C269.14 137.264 269.44 137.284 269.737 137.328C269.44 137.372 269.14 137.391 268.84 137.386C267.991 137.468 267.14 137.237 266.448 136.736C265.966 136.378 265.587 135.898 265.35 135.345C265.224 135.03 265.139 134.701 265.097 134.364C265.097 134.013 265.097 133.675 265.097 133.317C265.097 131.881 265.097 130.302 265.097 128.612V128.449H273.137V128.612C273.137 130.146 273.137 131.576 273.137 132.869C273.158 133.479 273.13 134.09 273.052 134.695C272.95 135.216 272.727 135.706 272.402 136.125C271.93 136.722 271.262 137.134 270.517 137.289C270.323 137.33 270.125 137.352 269.926 137.354C269.842 137.365 269.756 137.363 269.672 137.347Z" fill="#263238"/>
<path d="M277.426 137.348H276.211C275.335 137.348 274.495 137 273.876 136.38C273.257 135.761 272.909 134.921 272.909 134.046V128.625H280.709V134.046C280.709 134.918 280.364 135.755 279.749 136.374C279.134 136.992 278.299 137.342 277.426 137.348Z" fill="#318181"/>
<path d="M277.426 137.347C277.426 137.314 277.706 137.347 278.2 137.197C278.895 137.003 279.509 136.588 279.948 136.015C280.249 135.616 280.453 135.153 280.546 134.663C280.605 134.071 280.62 133.476 280.592 132.882C280.592 131.582 280.592 130.158 280.592 128.624L280.754 128.787H272.955L273.117 128.624C273.117 130.314 273.117 131.874 273.117 133.33C273.117 133.681 273.117 134.039 273.117 134.351C273.146 134.662 273.218 134.969 273.332 135.261C273.548 135.772 273.893 136.22 274.332 136.56C274.977 137.055 275.776 137.306 276.588 137.269C276.869 137.273 277.149 137.299 277.426 137.347C277.129 137.391 276.829 137.411 276.529 137.405C275.806 137.478 275.078 137.319 274.45 136.951C273.823 136.583 273.329 136.025 273.039 135.358C272.912 135.044 272.829 134.714 272.792 134.377C272.76 134.026 272.792 133.688 272.792 133.33C272.792 131.894 272.792 130.314 272.792 128.624V128.462H280.943V128.624C280.943 130.158 280.943 131.588 280.943 132.882C280.963 133.492 280.937 134.102 280.865 134.708C280.752 135.232 280.519 135.722 280.182 136.138C279.711 136.733 279.047 137.145 278.304 137.301C278.109 137.342 277.911 137.364 277.712 137.366L277.426 137.347Z" fill="#263238"/>
<path d="M285.187 137.348H283.965C283.09 137.346 282.251 136.997 281.632 136.379C281.013 135.76 280.665 134.921 280.663 134.046V128.625H288.463V134.046C288.461 134.916 288.116 135.751 287.503 136.369C286.89 136.988 286.058 137.339 285.187 137.348Z" fill="#318181"/>
<path d="M285.187 137.347C285.187 137.315 285.466 137.347 285.954 137.198C286.545 137.04 287.079 136.718 287.496 136.269C287.912 135.821 288.193 135.264 288.307 134.663C288.363 134.071 288.376 133.476 288.346 132.882C288.346 131.582 288.346 130.159 288.346 128.625L288.508 128.787H280.676L280.845 128.625C280.845 130.315 280.845 131.875 280.845 133.33C280.845 133.681 280.845 134.039 280.845 134.351C280.88 134.662 280.954 134.968 281.066 135.261C281.283 135.771 281.625 136.218 282.061 136.561C282.708 137.055 283.509 137.306 284.323 137.269C284.623 137.264 284.923 137.284 285.219 137.328C284.923 137.372 284.623 137.391 284.323 137.386C283.473 137.468 282.622 137.237 281.931 136.736C281.448 136.378 281.069 135.898 280.832 135.345C280.703 135.031 280.618 134.701 280.579 134.364C280.579 134.013 280.579 133.675 280.579 133.317C280.579 131.881 280.579 130.302 280.579 128.612V128.449H288.729V128.612C288.729 130.146 288.729 131.576 288.729 132.869C288.748 133.479 288.72 134.09 288.645 134.695C288.536 135.22 288.301 135.71 287.962 136.125C287.491 136.721 286.827 137.132 286.084 137.289C285.889 137.33 285.691 137.352 285.492 137.354C285.391 137.372 285.287 137.37 285.187 137.347Z" fill="#263238"/>
<path d="M283.166 140.312H275.522V152.713H283.166V140.312Z" fill="white"/>
<path d="M283.166 140.312C283.197 140.603 283.21 140.896 283.205 141.189C283.205 141.839 283.205 142.671 283.25 143.73C283.25 145.973 283.296 149.08 283.328 152.707V152.862H283.166H275.529C275.561 152.901 275.204 152.544 275.353 152.693V151.829C275.353 151.543 275.353 151.251 275.353 150.965V149.262C275.353 148.137 275.353 147.052 275.353 146.012C275.353 143.925 275.353 142.008 275.353 140.318V140.182H275.49L281.105 140.253H282.62C282.789 140.248 282.959 140.259 283.127 140.286C282.941 140.296 282.754 140.296 282.568 140.286L281.021 140.318L275.49 140.39L275.62 140.26C275.62 141.95 275.62 143.867 275.62 145.953C275.62 147 275.62 148.085 275.62 149.203V150.997C275.62 151.283 275.62 151.576 275.62 151.862V152.726L275.451 152.557H283.088L282.932 152.713C282.964 149.125 282.99 146.057 283.01 143.834C283.01 142.769 283.042 141.885 283.055 141.235C283.055 140.962 283.055 140.734 283.055 140.539C283.055 140.344 283.166 140.318 283.166 140.312Z" fill="#263238"/>
<path d="M270.205 139.759H263.361V148.189H270.205V139.759Z" fill="white"/>
<path d="M270.205 148.189C270.177 147.974 270.164 147.756 270.166 147.539C270.166 147.091 270.166 146.506 270.127 145.797C270.127 144.315 270.062 142.229 270.049 139.753L270.199 139.902H263.361L263.53 139.733V140.884C263.53 141.267 263.53 141.644 263.53 142.021V144.205C263.53 145.622 263.53 146.948 263.53 148.157L263.394 148.014L268.314 148.092H269.718C269.892 148.09 270.065 148.101 270.238 148.124C270.084 148.139 269.93 148.139 269.776 148.124L268.405 148.163C267.215 148.163 265.486 148.215 263.394 148.235H263.251V148.092C263.251 146.883 263.251 145.557 263.251 144.14C263.251 143.431 263.251 142.703 263.251 141.956V139.668C263.095 139.818 263.452 139.46 263.42 139.499H270.257H270.413V139.649C270.413 142.19 270.361 144.315 270.335 145.791C270.335 146.486 270.335 147.091 270.296 147.5C270.282 147.732 270.251 147.962 270.205 148.189Z" fill="#263238"/>
<path d="M282.1 144.815H280.962V148.195H282.1V144.815Z" fill="#E0E0E0"/>
<path d="M89.9439 95.6994C106.616 93.605 118.434 78.3917 116.339 61.7195C114.245 45.0473 99.0318 33.2297 82.3596 35.324C65.6874 37.4184 53.8697 52.6317 55.9641 69.3039C58.0584 85.9761 73.2717 97.7938 89.9439 95.6994Z" fill="white"/>
<path d="M55.7292 65.5129C55.7292 65.5129 55.7292 65.3504 55.7292 65.0189C55.7292 64.6874 55.7292 64.2 55.7812 63.576C55.7812 63.251 55.7812 62.926 55.8267 62.5036C55.8722 62.0811 55.9437 61.6911 56.0022 61.2036C56.0607 60.7161 56.1452 60.2417 56.2232 59.7152C56.3227 59.1523 56.4507 58.5947 56.6067 58.0448C57.3025 55.1851 58.429 52.4478 59.9475 49.9267C61.9372 46.5594 64.5592 43.6086 67.6691 41.2366L68.9691 40.2487C69.4305 39.9432 69.918 39.6572 70.399 39.3582C70.88 39.0593 71.3609 38.7083 71.8874 38.4938L73.4733 37.7268L74.2793 37.3433L75.1243 37.0314L76.8467 36.3814C77.4251 36.1864 78.0361 36.0564 78.6406 35.8939C79.2483 35.7134 79.8671 35.5722 80.493 35.4714C81.7677 35.23 83.0578 35.078 84.3538 35.0165C85.0037 35.0165 85.6537 34.9255 86.3492 34.932L88.3706 35.036C88.7086 35.036 89.053 35.036 89.391 35.0945L90.4115 35.2505C91.0614 35.3609 91.7829 35.4389 92.4719 35.5819C93.8552 35.8876 95.2166 36.285 96.5472 36.7714L97.5676 37.1419L98.0746 37.3304L98.562 37.5708L100.512 38.5198C101.162 38.8708 101.773 39.2737 102.416 39.6572C102.728 39.8522 103.066 40.0277 103.359 40.2487L104.262 40.8987C105.502 41.8151 106.679 42.814 107.785 43.8885L109.345 45.5979L109.735 46.0334L110.086 46.4949L110.788 47.4308L111.49 48.3733L112.14 49.3807L112.757 50.3882L113.063 50.9017C113.16 51.0771 113.238 51.2591 113.329 51.4346C113.674 52.1496 114.018 52.8711 114.369 53.5925C114.72 54.314 114.922 55.1004 115.201 55.8544C116.207 58.9771 116.739 62.2326 116.781 65.5129C116.742 68.7913 116.21 72.0452 115.201 75.1649C114.922 75.9254 114.649 76.6793 114.369 77.4333C114.09 78.1873 113.674 78.8762 113.329 79.5912L113.069 80.1242L112.757 80.6311L112.146 81.6451L111.529 82.6525L110.82 83.595L110.118 84.5309L109.767 84.9989L109.377 85.4279L107.785 87.1373C106.692 88.1944 105.531 89.178 104.308 90.0816L103.411 90.7316C103.112 90.9591 102.761 91.1281 102.462 91.3296C101.812 91.7066 101.201 92.116 100.557 92.467L98.6075 93.416L98.1201 93.65C97.9511 93.7215 97.7821 93.78 97.6131 93.8384L96.5926 94.2089C95.2618 94.6945 93.9004 95.0918 92.5174 95.3984C91.8284 95.5414 91.1394 95.6194 90.457 95.7299L89.4365 95.8858C89.0985 95.9313 88.7865 95.9248 88.4161 95.9508L86.3947 96.0483C85.7447 96.0483 85.0557 95.9963 84.3993 95.9703C83.1036 95.906 81.8137 95.754 80.5385 95.5154C79.913 95.4093 79.2945 95.266 78.6861 95.0864C78.0816 94.9239 77.4706 94.8004 76.8857 94.5989L75.1697 93.9489L74.3248 93.637L73.5188 93.2535L71.9329 92.4865C71.4064 92.246 70.9385 91.9015 70.4445 91.6221C69.9505 91.3426 69.476 91.0436 69.0146 90.7381L67.7146 89.7502C64.6027 87.3778 61.9804 84.4244 59.993 81.0536C58.4745 78.5263 57.3501 75.7822 56.6587 72.916C56.5287 72.3246 56.3337 71.7786 56.2752 71.2456C56.2167 70.7126 56.1257 70.2187 56.0542 69.7572C55.9827 69.2957 55.9177 68.8667 55.8787 68.4573C55.8397 68.0478 55.8787 67.7098 55.8332 67.3913C55.8332 66.7413 55.7942 66.2799 55.7812 65.9419C55.7682 65.6039 55.7812 65.4479 55.7812 65.4479C55.7812 65.4479 55.7812 65.6169 55.8202 65.9419C55.8592 66.2669 55.8722 66.7608 55.9112 67.3848C55.9112 67.7033 55.9502 68.0348 55.9697 68.4508C55.9892 68.8667 56.0932 69.2632 56.1647 69.7507C56.2362 70.2382 56.3142 70.7061 56.3987 71.2326C56.5004 71.7941 56.6328 72.3495 56.7952 72.8965C57.502 75.7424 58.6372 78.4644 60.162 80.9691C62.1525 84.3041 64.7677 87.2238 67.8641 89.5682L69.1641 90.5496C69.6255 90.8486 70.1065 91.1281 70.5875 91.4206C71.0685 91.7131 71.5429 92.0705 72.0629 92.2785L73.6358 93.0325L74.4353 93.4095L75.2802 93.715L76.9832 94.3649C77.5616 94.5534 78.1661 94.6769 78.7641 94.8394C79.3663 95.014 79.9783 95.1529 80.597 95.2554C81.8633 95.4925 83.1447 95.6401 84.4318 95.6974C85.0817 95.6974 85.7317 95.7883 86.3817 95.7753L88.3901 95.6714C88.7216 95.6714 89.04 95.6714 89.3975 95.6064L90.4115 95.4504C91.0614 95.3399 91.7699 95.2619 92.4459 95.1254C93.8164 94.8196 95.1648 94.4222 96.4822 93.936L97.4896 93.572L97.9901 93.3835L98.4775 93.1495L100.427 92.2005C101.077 91.856 101.675 91.4531 102.312 91.0761C102.618 90.8811 102.962 90.7121 103.248 90.4846L104.139 89.8347C105.345 88.9376 106.491 87.9627 107.571 86.9163C108.078 86.3487 108.591 85.7832 109.111 85.2199L109.494 84.7909L109.845 84.3294L110.534 83.4065L111.23 82.4705L111.841 81.4761L112.452 80.4751L112.757 79.9747L113.011 79.4417L114.044 77.3098L114.863 75.0674C115.858 71.9808 116.384 68.7622 116.423 65.5194C116.382 62.2767 115.857 59.0584 114.863 55.9714L114.038 53.729C113.693 53.014 113.388 52.3056 113.011 51.5971C112.926 51.4216 112.842 51.2396 112.751 51.0641L112.445 50.5637L111.841 49.5627L111.23 48.5683L110.521 47.6518L109.826 46.7289L109.481 46.2674L109.092 45.8384L107.558 44.1485C106.478 43.1002 105.329 42.1252 104.119 41.2302L103.229 40.5802C102.936 40.3592 102.579 40.1902 102.293 39.9887C101.643 39.6117 101.051 39.2088 100.408 38.8643L98.458 37.9218L97.9706 37.6878C97.8081 37.6163 97.6326 37.5643 97.4701 37.4993L96.4627 37.1289C95.1442 36.6476 93.796 36.2525 92.4264 35.9459C91.7764 35.8029 91.0614 35.7249 90.392 35.6144L89.378 35.4584C89.0465 35.4129 88.7281 35.4194 88.3706 35.3934L86.3687 35.2895C85.7187 35.2895 85.0687 35.348 84.4188 35.3674C83.1341 35.4275 81.855 35.5752 80.5905 35.8094C79.9717 35.9111 79.3596 36.05 78.7576 36.2254C78.1596 36.3879 77.5486 36.5114 76.9702 36.7064L75.2672 37.3564L74.4288 37.6618L73.6293 38.0453L72.0369 38.7213C71.5104 38.9553 71.049 39.2997 70.555 39.5727C70.061 39.8457 69.593 40.1447 69.1316 40.4502L67.8316 41.4251C64.7333 43.7694 62.116 46.689 60.123 50.0242C58.597 52.5306 57.4617 55.2549 56.7562 58.1033C56.5931 58.6479 56.4607 59.2012 56.3597 59.7607C56.2774 60.2893 56.1994 60.7833 56.1257 61.2426C56.0542 61.7041 55.9762 62.1266 55.9307 62.5426C55.8852 62.9585 55.8917 63.2835 55.8722 63.602L55.7877 65.0189C55.7487 65.3504 55.7292 65.5129 55.7292 65.5129Z" fill="#263238"/>
<path d="M88.2861 66.8459C89.2921 66.4011 90.1462 65.6719 90.7432 64.7481C91.3403 63.8243 91.6542 62.7461 91.6465 61.6461C91.6933 60.9241 91.5919 60.2002 91.3486 59.5189C91.1052 58.8375 90.7251 58.2132 90.2314 57.6842C89.7378 57.1552 89.1412 56.7329 88.4783 56.4431C87.8153 56.1533 87.1001 56.0022 86.3766 55.9991C85.6531 55.996 84.9367 56.1409 84.2713 56.425C83.6059 56.7091 83.0057 57.1263 82.5075 57.651C82.0094 58.1757 81.6238 58.7968 81.3746 59.476C81.1255 60.1552 81.0179 60.8783 81.0585 61.6006C81.0394 62.7138 81.3494 63.8077 81.9495 64.7454C82.5496 65.6832 83.4131 66.4229 84.4318 66.8719C76.2877 68.1003 76.6322 76.9528 76.6322 76.9528L95.8972 77.0438C95.8972 77.0438 96.3392 68.0613 88.2861 66.8459Z" fill="#318181"/>
<path d="M100.213 60.8335C100.843 60.5567 101.378 60.1015 101.752 59.5239C102.127 58.9464 102.324 58.2719 102.319 57.5837C102.347 57.1309 102.283 56.6771 102.129 56.2503C101.975 55.8235 101.735 55.4328 101.425 55.1021C101.114 54.7714 100.739 54.5079 100.323 54.3278C99.9065 54.1476 99.4577 54.0547 99.004 54.0547C98.5504 54.0547 98.1015 54.1476 97.6851 54.3278C97.2688 54.5079 96.8938 54.7714 96.5832 55.1021C96.2726 55.4328 96.033 55.8235 95.8792 56.2503C95.7255 56.6771 95.6608 57.1309 95.6892 57.5837C95.6751 58.2805 95.8684 58.9657 96.2445 59.5525C96.6206 60.1392 97.1625 60.6009 97.8016 60.879C92.6993 61.6525 92.9268 67.1967 92.9268 67.1967L104.997 67.2487C104.997 67.2487 105.27 61.6005 100.213 60.8335Z" fill="#318181"/>
<path d="M74.5913 60.8335C75.2214 60.5567 75.7566 60.1015 76.1309 59.5239C76.5051 58.9464 76.702 58.2719 76.6972 57.5837C76.7256 57.1309 76.6609 56.6771 76.5072 56.2503C76.3534 55.8235 76.1138 55.4328 75.8032 55.1021C75.4927 54.7714 75.1176 54.5079 74.7013 54.3278C74.2849 54.1476 73.8361 54.0547 73.3824 54.0547C72.9287 54.0547 72.4799 54.1476 72.0635 54.3278C71.6472 54.5079 71.2721 54.7714 70.9615 55.1021C70.651 55.4328 70.4114 55.8235 70.2576 56.2503C70.1039 56.6771 70.0392 57.1309 70.0676 57.5837C70.0535 58.2805 70.2467 58.9657 70.6228 59.5525C70.999 60.1392 71.5409 60.6009 72.18 60.879C67.0777 61.6525 67.3117 67.1967 67.3117 67.1967L79.3751 67.2487C79.3751 67.2487 79.6481 61.6005 74.5913 60.8335Z" fill="#318181"/>
<path d="M235.477 52.6658C239.417 36.331 229.369 19.8952 213.034 15.9554C196.699 12.0157 180.263 22.0639 176.323 38.3987C172.384 54.7336 182.432 71.1694 198.767 75.1091C215.102 79.0489 231.537 69.0007 235.477 52.6658Z" fill="white"/>
<path d="M175.473 45.5274C175.473 45.5274 175.473 45.3649 175.473 45.0334C175.473 44.702 175.505 44.208 175.525 43.584C175.525 43.2655 175.525 42.9341 175.564 42.5181C175.603 42.1021 175.674 41.6991 175.739 41.2181C175.857 40.1519 176.055 39.096 176.331 38.0593C177.013 35.1841 178.133 32.4308 179.652 29.8957C181.863 26.1601 184.843 22.9371 188.394 20.4405C191.945 17.9439 195.986 16.2307 200.249 15.4145C201.537 15.1697 202.84 15.0155 204.149 14.953C204.799 14.953 205.449 14.862 206.145 14.8685L208.172 14.9725C208.51 14.9725 208.855 14.9725 209.199 15.031L210.22 15.187C210.902 15.2975 211.598 15.3755 212.28 15.5185C215.096 16.1434 217.819 17.1332 220.379 18.4628C221.029 18.8073 221.646 19.2168 222.29 19.6003C222.937 19.9896 223.556 20.4239 224.142 20.9002C225.367 21.8082 226.531 22.7962 227.626 23.8575C228.705 24.9673 229.708 26.1486 230.629 27.3934C232.537 29.9558 234.021 32.8089 235.023 35.8429C236.034 38.9733 236.568 42.238 236.609 45.5274C236.568 48.8147 236.033 52.0771 235.023 55.2054C234.023 58.2403 232.539 61.0937 230.629 63.655C229.705 64.9053 228.7 66.093 227.619 67.2103C226.524 68.2696 225.361 69.2554 224.136 70.1612C223.55 70.6388 222.931 71.0732 222.283 71.4611C221.633 71.8381 221.022 72.2476 220.372 72.5985C219.066 73.2597 217.715 73.8288 216.33 74.3014C214.993 74.79 213.625 75.1895 212.235 75.4974C211.552 75.6339 210.857 75.7119 210.174 75.8224L209.154 75.9784C208.809 76.0239 208.465 76.0239 208.127 76.0434L206.099 76.1409C205.449 76.1409 204.76 76.0824 204.104 76.0629C202.795 75.9979 201.492 75.8437 200.204 75.6014C195.94 74.7848 191.898 73.0707 188.347 70.5729C184.796 68.0752 181.816 64.8507 179.606 61.1136C178.089 58.5802 176.969 55.8293 176.285 52.9565C176.01 51.9176 175.812 50.8595 175.694 49.7912C175.629 49.3297 175.551 48.9072 175.518 48.4913C175.486 48.0753 175.518 47.7438 175.479 47.4253C175.479 46.7754 175.44 46.3269 175.427 45.9759C175.414 45.6249 175.427 45.4819 175.427 45.4819C175.427 45.4819 175.427 45.6509 175.479 45.9759C175.531 46.3009 175.531 46.8014 175.577 47.4188C175.577 47.7373 175.616 48.0688 175.642 48.4848C175.668 48.9007 175.765 49.2907 175.837 49.7847C175.976 50.8435 176.193 51.8906 176.487 52.9175C177.198 55.7588 178.335 58.4761 179.86 60.9771C182.067 64.6555 185.029 67.8243 188.55 70.2745C192.072 72.7247 196.072 74.4006 200.288 75.1919C201.549 75.4258 202.823 75.5734 204.104 75.6339C204.754 75.6339 205.404 75.7184 206.054 75.7054L208.055 75.6014C208.387 75.6014 208.705 75.6014 209.063 75.5364L210.07 75.3804C210.72 75.2699 211.429 75.1919 212.105 75.0489C213.471 74.7474 214.816 74.3522 216.128 73.866C217.48 73.382 218.796 72.8043 220.067 72.1371C220.717 71.7926 221.315 71.3896 221.945 71.0126C222.581 70.638 223.189 70.2188 223.765 69.7582C224.969 68.8633 226.113 67.8906 227.19 66.8463C228.252 65.7468 229.24 64.5787 230.148 63.3495C232.045 60.8364 233.524 58.0337 234.529 55.0494C235.521 51.9713 236.045 48.7614 236.082 45.5274C236.046 42.2934 235.522 39.0833 234.529 36.0054C233.548 33.0198 232.09 30.2125 230.213 27.6923C229.309 26.4601 228.321 25.2917 227.255 24.1955C226.182 23.1497 225.04 22.1769 223.837 21.2837C223.26 20.823 222.652 20.4038 222.017 20.0292C221.367 19.6587 220.775 19.2558 220.138 18.9048C217.619 17.5989 214.944 16.6203 212.176 15.9929C211.526 15.8564 210.818 15.7719 210.142 15.6615L209.134 15.5055C208.803 15.46 208.484 15.4665 208.127 15.4405L206.132 15.3365C205.482 15.3365 204.832 15.3885 204.182 15.4145C202.899 15.4724 201.622 15.6179 200.36 15.8499C195.736 16.7065 191.379 18.6392 187.64 21.4917C184.546 23.8305 181.93 26.7407 179.931 30.0647C178.407 32.5657 177.27 35.283 176.558 38.1243C176.264 39.1533 176.047 40.2026 175.908 41.2636C175.837 41.7186 175.752 42.1411 175.713 42.5636C175.674 42.9861 175.668 43.3045 175.648 43.623C175.603 44.273 175.57 44.7215 175.551 45.0724C175.531 45.4234 175.473 45.5274 175.473 45.5274Z" fill="#263238"/>
<path d="M219.04 33.4111H198.533V57.0439H219.04V33.4111Z" fill="#318181"/>
<g opacity="0.3">
<path d="M219.04 33.4111H198.533V57.0439H219.04V33.4111Z" fill="black"/>
</g>
<path d="M206.632 33.4111H188.985V57.0439H206.632V33.4111Z" fill="#318181"/>
<path d="M219.04 57.0382C218.935 56.9083 218.845 56.7665 218.773 56.6157L218.065 55.3548L215.51 50.701L207.23 35.3033C206.976 34.8353 206.729 34.3739 206.502 33.9384L206.82 33.8604C206.82 40.3601 206.781 46.1188 206.768 50.3371C206.768 52.3974 206.723 54.0744 206.71 55.2768C206.71 55.8293 206.71 56.2778 206.71 56.5767C206.709 56.7332 206.698 56.8895 206.677 57.0447C206.649 56.8905 206.638 56.7335 206.645 56.5767C206.645 56.2453 206.645 55.7968 206.645 55.2768C206.645 54.0744 206.612 52.3974 206.593 50.3371C206.593 46.1188 206.593 40.3276 206.541 33.8604C206.541 33.8156 206.559 33.7726 206.59 33.7409C206.622 33.7092 206.665 33.6914 206.71 33.6914C206.74 33.6934 206.77 33.7027 206.796 33.7185C206.822 33.7344 206.844 33.7563 206.859 33.7824L207.587 35.1408L215.803 50.597C216.823 52.5469 217.662 54.1589 218.26 55.3028C218.533 55.8358 218.747 56.2647 218.91 56.6027C218.967 56.7434 219.01 56.8893 219.04 57.0382Z" fill="#263238"/>
<path d="M219.04 33.4111C218.924 33.7444 218.783 34.0682 218.617 34.3796C218.331 34.9906 217.896 35.868 217.35 36.9795C216.258 39.1438 214.692 42.1077 212.904 45.351C211.117 48.5944 209.479 51.5192 208.283 53.6251L206.853 56.1145C206.687 56.427 206.498 56.7268 206.288 57.0114C206.412 56.6816 206.562 56.3621 206.736 56.056L208.075 53.5016C209.219 51.3632 210.831 48.4254 212.625 45.182L217.175 36.8625C217.734 35.8355 218.188 34.9841 218.539 34.3341C218.682 34.0139 218.849 33.7053 219.04 33.4111Z" fill="#263238"/>
<path d="M204.221 49.498H199.807V54.5808H204.221V49.498Z" fill="white"/>
<path d="M217.214 240.225C216.889 246.369 218.436 252.468 221.649 257.715C224.861 262.963 229.59 267.113 235.21 269.618C240.83 272.123 247.077 272.865 253.128 271.746C259.178 270.627 264.747 267.701 269.1 263.352C273.453 259.003 276.385 253.436 277.509 247.387C278.633 241.337 277.897 235.089 275.397 229.467C272.897 223.845 268.751 219.113 263.507 215.895C258.262 212.677 252.165 211.125 246.02 211.444C238.511 211.835 231.413 214.992 226.094 220.306C220.775 225.621 217.611 232.716 217.214 240.225Z" fill="white"/>
<path d="M217.175 241.804C217.175 241.804 217.175 241.641 217.175 241.31C217.175 240.978 217.175 240.484 217.22 239.86C217.22 239.542 217.22 239.21 217.266 238.794C217.311 238.378 217.376 237.975 217.435 237.494C217.552 236.428 217.752 235.372 218.032 234.336C218.712 231.46 219.833 228.706 221.354 226.172C223.562 222.436 226.541 219.212 230.091 216.716C233.641 214.219 237.682 212.506 241.945 211.691C243.232 211.446 244.535 211.292 245.845 211.229C246.495 211.229 247.144 211.138 247.846 211.145L249.874 211.249C250.212 211.249 250.557 211.249 250.895 211.307L251.922 211.463C252.572 211.574 253.293 211.652 253.982 211.795C255.369 212.101 256.735 212.499 258.07 212.984C259.444 213.477 260.781 214.064 262.074 214.739C262.724 215.084 263.374 215.493 263.985 215.877C264.632 216.254 265.251 216.677 265.838 217.144C267.064 218.05 268.228 219.038 269.321 220.101C270.403 221.215 271.409 222.401 272.331 223.65C274.242 226.211 275.725 229.065 276.724 232.1C278.835 238.381 278.835 245.181 276.724 251.462C275.722 254.496 274.239 257.349 272.331 259.912C271.407 261.162 270.402 262.35 269.321 263.467C268.226 264.526 267.063 265.512 265.838 266.418C265.25 266.893 264.631 267.327 263.985 267.718C263.335 268.095 262.685 268.504 262.035 268.855C260.743 269.532 259.405 270.116 258.031 270.604C256.696 271.091 255.331 271.491 253.943 271.8C253.254 271.936 252.559 272.014 251.876 272.125L250.856 272.281C250.518 272.326 250.173 272.326 249.829 272.346L247.801 272.443C247.151 272.443 246.469 272.385 245.806 272.365C244.497 272.299 243.194 272.145 241.906 271.904C237.643 271.086 233.603 269.371 230.053 266.874C226.503 264.376 223.524 261.152 221.315 257.416C219.794 254.884 218.673 252.133 217.993 249.259C217.713 248.221 217.513 247.162 217.396 246.094C217.337 245.632 217.259 245.21 217.227 244.794C217.194 244.378 217.194 244.046 217.181 243.728C217.181 243.11 217.149 242.629 217.136 242.278C217.123 241.927 217.136 241.784 217.136 241.784C217.136 241.784 217.136 241.953 217.188 242.278C217.24 242.603 217.246 243.104 217.285 243.721C217.285 244.04 217.331 244.371 217.35 244.787C217.37 245.203 217.48 245.593 217.545 246.055C217.685 247.113 217.902 248.16 218.195 249.187C218.904 252.03 220.041 254.747 221.568 257.247C223.775 260.924 226.736 264.092 230.256 266.543C233.776 268.993 237.775 270.669 241.99 271.462C243.253 271.696 244.53 271.843 245.812 271.904C246.462 271.904 247.112 271.988 247.762 271.975L249.757 271.871C250.095 271.871 250.407 271.871 250.771 271.806L251.779 271.65C252.429 271.54 253.131 271.462 253.807 271.319C256.593 270.702 259.289 269.73 261.827 268.426C262.477 268.082 263.075 267.679 263.706 267.302C264.343 266.927 264.954 266.508 265.532 266.048C267.993 264.273 270.147 262.109 271.908 259.639C273.783 257.117 275.24 254.31 276.224 251.326C278.3 245.147 278.3 238.46 276.224 232.282C275.243 229.298 273.788 226.491 271.915 223.969C271.007 222.74 270.019 221.571 268.957 220.472C267.88 219.428 266.736 218.455 265.532 217.56C264.957 217.098 264.349 216.679 263.712 216.306C263.062 215.935 262.471 215.532 261.834 215.181C260.561 214.517 259.245 213.939 257.895 213.452C256.581 212.971 255.237 212.576 253.872 212.269C253.222 212.133 252.513 212.048 251.844 211.938L250.836 211.782C250.498 211.736 250.186 211.743 249.829 211.717L247.827 211.613C247.177 211.613 246.527 211.665 245.877 211.691C244.595 211.749 243.318 211.895 242.055 212.126C237.842 212.922 233.844 214.6 230.324 217.05C226.805 219.5 223.843 222.666 221.633 226.341C220.106 228.841 218.969 231.558 218.26 234.401C217.967 235.43 217.75 236.479 217.61 237.54C217.545 237.995 217.461 238.417 217.415 238.84C217.37 239.262 217.37 239.581 217.35 239.899C217.311 240.517 217.279 240.998 217.253 241.349C217.227 241.7 217.175 241.804 217.175 241.804Z" fill="#263238"/>
<path d="M263.485 252.305C262.93 252.305 262.39 252.479 261.939 252.801L251.608 244.782C252.115 243.845 252.352 242.786 252.295 241.723C252.237 240.659 251.887 239.632 251.282 238.755L257.593 230.687C258.127 230.893 258.713 230.922 259.265 230.771C259.817 230.62 260.306 230.296 260.661 229.847C261.015 229.397 261.217 228.846 261.236 228.274C261.255 227.702 261.09 227.139 260.766 226.668C260.441 226.196 259.974 225.841 259.434 225.653C258.893 225.466 258.306 225.457 257.76 225.627C257.213 225.797 256.736 226.138 256.397 226.6C256.058 227.061 255.876 227.618 255.877 228.191C255.874 228.742 256.045 229.281 256.366 229.729L250.226 237.593C249.402 236.899 248.402 236.449 247.337 236.293C246.272 236.136 245.185 236.279 244.197 236.706C243.208 237.133 242.359 237.827 241.743 238.71C241.127 239.593 240.77 240.63 240.711 241.705H233.535C233.457 241.068 233.153 240.48 232.678 240.049C232.203 239.617 231.589 239.37 230.947 239.353C230.306 239.336 229.679 239.549 229.182 239.955C228.685 240.36 228.349 240.931 228.237 241.562C228.124 242.194 228.242 242.845 228.569 243.398C228.896 243.95 229.41 244.366 230.018 244.572C230.626 244.777 231.287 244.757 231.882 244.516C232.477 244.275 232.965 243.828 233.259 243.258H240.845C241.067 244.289 241.566 245.24 242.288 246.008C243.01 246.777 243.928 247.334 244.943 247.62C245.958 247.906 247.032 247.909 248.049 247.63C249.066 247.352 249.988 246.801 250.715 246.037L260.989 254.028C260.786 254.561 260.759 255.145 260.912 255.694C261.065 256.244 261.389 256.73 261.838 257.082C262.287 257.433 262.836 257.633 263.406 257.65C263.976 257.667 264.537 257.502 265.006 257.178C265.475 256.854 265.829 256.388 266.015 255.849C266.2 255.31 266.209 254.726 266.039 254.181C265.869 253.637 265.53 253.161 265.07 252.824C264.61 252.486 264.055 252.304 263.485 252.305Z" fill="#318181"/>
<path d="M81.3899 268.342C81.0696 274.486 82.6197 280.583 85.8355 285.828C89.0512 291.074 93.7817 295.221 99.4026 297.722C105.024 300.224 111.271 300.963 117.32 299.841C123.37 298.719 128.937 295.79 133.287 291.44C137.638 287.089 140.567 281.522 141.689 275.473C142.81 269.423 142.072 263.176 139.57 257.555C137.068 251.934 132.921 247.204 127.676 243.988C122.431 240.772 116.334 239.222 110.19 239.542C102.679 239.935 95.5797 243.096 90.2615 248.414C84.9432 253.732 81.7828 260.831 81.3899 268.342Z" fill="white"/>
<path d="M81.3509 269.941C81.3509 269.941 81.3509 269.772 81.3509 269.447C81.3509 269.122 81.3834 268.615 81.4029 267.998C81.4029 267.673 81.4029 267.348 81.4419 266.925C81.4809 266.503 81.5524 266.113 81.6174 265.625C81.7346 264.557 81.9323 263.499 82.2088 262.46C82.8923 259.6 84.0102 256.863 85.5237 254.342C87.7329 250.604 90.7121 247.379 94.2634 244.882C97.8146 242.384 101.857 240.67 106.121 239.854C107.409 239.613 108.712 239.458 110.021 239.393C110.671 239.393 111.321 239.302 112.016 239.315L114.044 239.412C114.382 239.412 114.694 239.412 115.071 239.477L116.092 239.627C116.742 239.744 117.47 239.822 118.152 239.958C120.966 240.591 123.687 241.58 126.251 242.903C126.901 243.254 127.518 243.663 128.161 244.04C128.81 244.427 129.429 244.862 130.014 245.34C132.525 247.132 134.722 249.328 136.514 251.84C138.423 254.401 139.907 257.255 140.907 260.289C143.022 266.57 143.022 273.371 140.907 279.652C139.908 282.687 138.425 285.54 136.514 288.101C134.722 290.613 132.525 292.809 130.014 294.601C129.43 295.081 128.811 295.515 128.161 295.901C127.512 296.284 126.901 296.687 126.251 297.038C123.691 298.368 120.968 299.358 118.152 299.983C117.502 300.119 116.774 300.204 116.092 300.314L115.071 300.464C114.727 300.509 114.382 300.509 114.044 300.529L112.016 300.633C111.366 300.633 110.677 300.574 110.021 300.548C108.712 300.483 107.409 300.329 106.121 300.087C101.85 299.268 97.8036 297.546 94.2515 295.038C90.6994 292.529 87.7238 289.291 85.5237 285.54C84.0043 283.008 82.884 280.257 82.2024 277.383C81.9258 276.345 81.7281 275.286 81.6109 274.218C81.5459 273.756 81.4679 273.334 81.4354 272.918C81.4029 272.502 81.4354 272.171 81.3964 271.846C81.3964 271.228 81.3574 270.747 81.3444 270.396C81.3314 270.045 81.3444 269.909 81.3444 269.909C81.3444 269.909 81.3444 270.071 81.3964 270.396C81.4484 270.721 81.4484 271.222 81.4939 271.839C81.4939 272.158 81.5329 272.489 81.5589 272.905C81.5849 273.321 81.6824 273.717 81.7539 274.205C81.8934 275.266 82.1106 276.315 82.4038 277.344C83.1155 280.184 84.2528 282.899 85.7772 285.397C87.9844 289.076 90.9463 292.245 94.4676 294.695C97.9888 297.145 101.989 298.821 106.206 299.612C107.465 299.849 108.74 299.997 110.021 300.054C110.671 300.054 111.321 300.139 111.971 300.132L113.973 300.028C114.304 300.028 114.623 300.028 114.98 299.963L115.988 299.807C116.638 299.69 117.346 299.612 118.022 299.476C119.401 299.166 120.758 298.766 122.084 298.28C123.435 297.791 124.751 297.211 126.023 296.544C126.673 296.2 127.271 295.797 127.902 295.426C128.537 295.049 129.145 294.628 129.721 294.165C130.929 293.274 132.073 292.302 133.147 291.254C134.21 290.155 135.198 288.987 136.104 287.757C137.977 285.235 139.432 282.428 140.413 279.444C142.484 273.265 142.484 266.579 140.413 260.4C139.432 257.416 137.975 254.611 136.098 252.093C134.341 249.619 132.186 247.454 129.721 245.684C129.147 245.222 128.538 244.802 127.902 244.43C127.252 244.053 126.66 243.65 126.023 243.306C124.751 242.639 123.435 242.059 122.084 241.57C120.77 241.09 119.426 240.695 118.061 240.387C117.411 240.251 116.703 240.173 116.027 240.062L115.019 239.906C114.688 239.861 114.369 239.861 114.012 239.841L112.016 239.737C111.366 239.737 110.716 239.789 110.066 239.809C108.784 239.869 107.507 240.016 106.245 240.251C101.607 241.101 97.2356 243.034 93.4858 245.892C90.392 248.231 87.7753 251.141 85.7772 254.465C84.2537 256.967 83.1164 259.684 82.4038 262.525C82.1106 263.554 81.8934 264.603 81.7539 265.664C81.6824 266.119 81.5979 266.542 81.5589 266.932C81.5199 267.322 81.5134 267.679 81.4939 267.998C81.4484 268.615 81.4159 269.09 81.3964 269.441C81.3769 269.792 81.3509 269.941 81.3509 269.941Z" fill="#263238"/>
<path d="M121.228 262.686H118.286V262.183C118.284 260.809 117.737 259.492 116.766 258.52C115.794 257.549 114.477 257.002 113.103 257H111.11C109.735 257 108.416 257.546 107.443 258.518C106.47 259.489 105.922 260.808 105.92 262.183V262.686H102.985C102.593 262.685 102.204 262.762 101.841 262.912C101.479 263.061 101.149 263.281 100.872 263.559C100.595 263.836 100.375 264.165 100.225 264.528C100.076 264.891 99.999 265.279 99.9999 265.671V279.271C99.9999 280.062 100.314 280.822 100.874 281.381C101.434 281.941 102.193 282.256 102.985 282.256H121.228C122.019 282.254 122.778 281.939 123.337 281.379C123.896 280.82 124.211 280.062 124.213 279.271V265.671C124.213 264.88 123.899 264.121 123.339 263.561C122.779 263.001 122.02 262.686 121.228 262.686ZM107.338 262.183C107.34 261.184 107.738 260.226 108.446 259.52C109.153 258.814 110.111 258.418 111.11 258.418H113.103C114.101 258.418 115.059 258.815 115.765 259.521C116.471 260.227 116.868 261.184 116.868 262.183V262.686H107.338V262.183Z" fill="#318181"/>
<path d="M117.541 271.081H113.784V267.33H110.423V271.081H106.665V274.449H110.423V278.2H113.784V274.449H117.541V271.081Z" fill="white"/>
<path d="M67.9656 173.95C74.8082 158.603 67.914 140.615 52.567 133.772C37.2201 126.93 19.232 133.824 12.3895 149.171C5.54696 164.518 12.4411 182.506 27.7881 189.348C43.135 196.191 61.1231 189.297 67.9656 173.95Z" fill="white"/>
<path d="M70.594 161.573C70.594 161.573 70.594 161.404 70.555 161.079C70.516 160.754 70.503 160.26 70.464 159.636C70.464 159.317 70.425 158.986 70.4055 158.57C70.386 158.154 70.282 157.758 70.2106 157.27L69.9766 155.788C69.8724 155.229 69.7401 154.676 69.5801 154.131C68.8629 151.29 67.7189 148.575 66.1873 146.078C64.2002 142.746 61.5921 139.827 58.5047 137.479L57.2047 136.504C56.7432 136.205 56.2558 135.925 55.7813 135.633C55.3068 135.34 54.8258 134.983 54.2994 134.775L52.7264 134.021L51.927 133.644L51.0885 133.338L49.3856 132.688C48.8072 132.493 48.1962 132.376 47.5982 132.207C46.9968 132.031 46.3845 131.894 45.7653 131.798C44.5014 131.558 43.2221 131.408 41.937 131.349C41.287 131.349 40.6371 131.265 39.9871 131.278L37.9852 131.375C37.6472 131.375 37.3352 131.375 36.9713 131.447L35.9638 131.596C35.3138 131.713 34.6054 131.791 33.9294 131.928C32.5598 132.234 31.2115 132.63 29.8931 133.111L28.8857 133.481L28.3852 133.67L27.8977 133.904L25.9478 134.846C25.2979 135.197 24.6999 135.6 24.0629 135.977C23.7574 136.172 23.413 136.341 23.1335 136.562L22.2365 137.212C21.0063 138.121 19.8381 139.111 18.7397 140.176L17.2318 141.898L16.8418 142.321L16.4973 142.782L15.8018 143.712L15.1064 144.641L14.4954 145.636L13.8909 146.637L13.5855 147.144C13.488 147.313 13.41 147.495 13.3255 147.67C12.981 148.378 12.643 149.087 12.2985 149.802C11.954 150.517 11.7526 151.297 11.4731 152.044C9.39329 158.24 9.39329 164.945 11.4731 171.14L12.292 173.383C12.6365 174.098 12.981 174.806 13.319 175.515L13.579 176.048L13.8844 176.548L14.4954 177.549L15.1064 178.55L15.8018 179.479L16.4908 180.409L16.8418 180.87L17.2253 181.293C17.7452 181.858 18.2522 182.424 18.7657 182.989C19.8449 184.036 20.9913 185.011 22.1975 185.908L23.088 186.558C23.387 186.785 23.7379 186.954 24.0239 187.149C24.6739 187.526 25.2719 187.929 25.9088 188.28L27.8587 189.222L28.3462 189.456C28.5087 189.528 28.6842 189.58 28.8467 189.645L29.8541 190.015C31.1725 190.497 32.5208 190.892 33.8904 191.198C34.5404 191.335 35.2553 191.413 35.9248 191.53L36.9388 191.686C37.2702 191.725 37.5887 191.725 37.9462 191.751L39.9546 191.848C40.6046 191.848 41.2545 191.796 41.9045 191.777C43.1896 191.718 44.4689 191.568 45.7328 191.328C46.3522 191.233 46.9645 191.096 47.5657 190.919C48.1702 190.75 48.7747 190.633 49.3531 190.438L51.056 189.788L51.901 189.482L52.7004 189.105L54.2734 188.351C54.7933 188.111 55.2613 187.773 55.7488 187.493C56.2363 187.214 56.7107 186.922 57.1722 186.623L58.4722 185.648C61.5707 183.304 64.1899 180.387 66.1873 177.055C67.7132 174.551 68.8485 171.829 69.5541 168.982C69.6906 168.397 69.8856 167.851 69.9506 167.325L70.1846 165.843C70.2561 165.382 70.334 164.959 70.3795 164.543C70.425 164.127 70.4185 163.796 70.438 163.477L70.529 162.034C70.529 161.709 70.568 161.547 70.568 161.547C70.568 161.547 70.568 161.709 70.568 162.034C70.568 162.359 70.568 162.853 70.516 163.484C70.516 163.802 70.516 164.134 70.4705 164.55C70.425 164.966 70.3535 165.369 70.2885 165.85C70.2235 166.331 70.1521 166.805 70.0741 167.338C69.9961 167.871 69.8206 168.417 69.6906 169.008C69.0003 171.875 67.8759 174.619 66.3563 177.146C64.3668 180.515 61.7449 183.468 58.6346 185.843L57.3347 186.831C56.8732 187.136 56.3858 187.415 55.9048 187.714C55.4238 188.013 54.9428 188.364 54.4164 188.585L52.8304 189.346L52.0245 189.736L51.1795 190.048L49.4636 190.698C48.8786 190.893 48.2677 191.016 47.6632 191.185C47.0547 191.363 46.4361 191.504 45.8108 191.608C44.536 191.849 43.246 192.001 41.95 192.063C41.3 192.063 40.6501 192.154 39.9546 192.147L37.9332 192.043C37.5952 192.043 37.2832 192.043 36.9128 191.978L35.8923 191.829C35.2423 191.712 34.5209 191.634 33.8319 191.497C32.4467 191.191 31.0832 190.793 29.7501 190.308L28.7362 189.937L28.2292 189.742L27.7352 189.508L25.7853 188.559C25.1354 188.208 24.5179 187.799 23.8809 187.422C23.5689 187.221 23.231 187.052 22.932 186.824L22.035 186.174C20.8106 185.27 19.6488 184.284 18.5577 183.223L17.0043 181.514L16.6143 181.085L16.2568 180.617L15.5614 179.681L14.8399 178.706L14.1899 177.705L13.579 176.691L13.267 176.184L13.007 175.645C12.6625 174.93 12.3115 174.208 11.967 173.487C11.6226 172.765 11.4146 171.979 11.1351 171.218C9.02919 164.956 9.02919 158.177 11.1351 151.914C11.4146 151.154 11.6941 150.4 11.967 149.646C12.24 148.892 12.6625 148.203 13.007 147.488C13.098 147.313 13.176 147.131 13.267 146.955L13.579 146.448L14.1964 145.434L14.8139 144.427L15.5159 143.484L16.2373 142.548L16.5883 142.087L16.9783 141.658L18.5382 139.942C19.6212 138.884 20.7742 137.9 21.9895 136.998L22.893 136.348C23.1855 136.12 23.5429 135.951 23.8354 135.75C24.4854 135.373 25.0964 134.963 25.7398 134.612L27.7222 133.663L28.2097 133.429L28.7167 133.234L29.7306 132.864C31.0637 132.378 32.4272 131.981 33.8124 131.674C34.4949 131.538 35.1903 131.46 35.8728 131.343L36.9388 131.174C37.2767 131.128 37.6212 131.128 37.9592 131.109L39.9806 131.005C40.6306 131.005 41.2805 131.063 41.976 131.089C43.2717 131.154 44.5616 131.306 45.8368 131.544C46.4621 131.648 47.0807 131.789 47.6892 131.967C48.2937 132.136 48.9046 132.259 49.4831 132.454L51.2055 133.104L52.0505 133.416L52.8564 133.8L54.4424 134.567C54.9413 134.819 55.4272 135.097 55.8983 135.399C56.3858 135.698 56.8732 135.977 57.3347 136.283L58.6346 137.271C61.7463 139.643 64.3686 142.596 66.3563 145.967C67.8759 148.494 69.0003 151.238 69.6906 154.105C69.8206 154.696 70.0156 155.242 70.0741 155.775C70.1326 156.308 70.2235 156.802 70.2885 157.264C70.3535 157.725 70.4315 158.147 70.4705 158.563C70.5095 158.979 70.4705 159.311 70.516 159.629C70.516 160.279 70.555 160.741 70.568 161.079C70.581 161.417 70.594 161.573 70.594 161.573Z" fill="#263238"/>
<path d="M280.208 67.0997C281.925 66.3411 283.382 65.0957 284.399 63.5177C285.415 61.9396 285.947 60.0982 285.928 58.2212C285.928 52.9239 281.937 48.6081 276.965 48.5821C271.993 48.5562 267.95 52.8394 267.93 58.1367C267.894 60.0298 268.419 61.8913 269.439 63.4864C270.459 65.0815 271.929 66.3388 273.663 67.0997C259.819 69.1861 260.449 84.2328 260.449 84.2328L293.188 84.3823C293.188 84.3823 293.935 69.1731 280.208 67.0997Z" fill="#EBEBEB"/>
<path d="M227.75 109.668C230.613 106.226 230.143 101.116 226.701 98.2538C223.26 95.3915 218.15 95.8611 215.287 99.3027C212.425 102.744 212.894 107.855 216.336 110.717C219.778 113.579 224.888 113.11 227.75 109.668Z" fill="#E0E0E0"/>
<path d="M226.989 95.6203C226.847 96.0105 226.593 96.3498 226.258 96.5953C225.923 96.8408 225.523 96.9815 225.108 96.9995C224.693 97.0176 224.282 96.9123 223.927 96.6968C223.572 96.4814 223.289 96.1655 223.114 95.7892C222.938 95.4128 222.878 94.9929 222.941 94.5825C223.005 94.1721 223.188 93.7897 223.469 93.4836C223.749 93.1775 224.114 92.9615 224.518 92.8628C224.921 92.7642 225.345 92.7874 225.735 92.9294C226.258 93.1199 226.684 93.5105 226.919 94.0151C227.154 94.5197 227.18 95.0971 226.989 95.6203Z" fill="#EBEBEB"/>
<path d="M182.998 167.008L210.875 177.149C212.109 177.598 213.115 178.519 213.67 179.709C214.226 180.899 214.285 182.262 213.836 183.496L213.501 184.418L176.315 170.891L176.65 169.969C177.099 168.734 178.02 167.729 179.211 167.174C180.401 166.618 181.763 166.559 182.998 167.008Z" fill="#E0E0E0"/>
<path d="M191.104 157.672C191.104 157.672 187.347 160.376 184.124 160.597C183.171 160.641 182.233 160.846 181.348 161.201C180.864 161.378 180.44 161.689 180.126 162.097C179.812 162.506 179.62 162.995 179.574 163.509C179.255 165.725 183.22 167.083 183.22 167.083L198.767 172.738L202.713 161.897L191.104 157.672Z" fill="#EBEBEB"/>
<path d="M212.371 177.691C212.371 177.691 214.425 178.673 215.621 176.918C215.949 176.435 216.133 175.869 216.151 175.285C216.169 174.702 216.022 174.125 215.725 173.623C215.247 172.821 214.656 172.092 213.97 171.458C211.637 169.222 210.493 164.737 210.493 164.737L198.891 160.513L194.946 171.361" fill="#EBEBEB"/>
<path d="M190.129 154.267L191.078 157.666L210.564 164.757L213.6 162.807L190.129 154.267Z" fill="#E0E0E0"/>
<path d="M219.9 132.503L205.096 127.149C204.246 126.841 203.307 127.281 203 128.131L202.779 128.742C202.471 129.593 202.911 130.531 203.762 130.839L218.565 136.193C219.416 136.501 220.354 136.061 220.662 135.211L220.883 134.6C221.19 133.749 220.75 132.811 219.9 132.503Z" fill="#EBEBEB"/>
<path d="M219.599 130.277L206.436 125.489C205.903 125.295 205.314 125.57 205.12 126.103L204.98 126.488C204.786 127.021 205.061 127.61 205.594 127.804L218.757 132.592C219.29 132.786 219.879 132.511 220.073 131.978L220.213 131.593C220.407 131.06 220.132 130.471 219.599 130.277Z" fill="#EBEBEB"/>
<path d="M220.097 126.562L208.437 122.32C208.12 122.205 207.769 122.368 207.654 122.685L207.57 122.918C207.454 123.235 207.618 123.585 207.935 123.701L219.595 127.942C219.912 128.058 220.263 127.894 220.378 127.577L220.463 127.345C220.578 127.028 220.414 126.677 220.097 126.562Z" fill="#EBEBEB"/>
<path d="M205.651 131.998C205.651 131.998 199.216 149.047 190.129 154.246L201.894 158.53L210.863 133.876L205.651 131.998Z" fill="#EBEBEB"/>
<path d="M215.712 135.658C215.712 135.658 209.986 152.98 213.6 162.807L201.53 158.42L210.48 133.767L215.712 135.658Z" fill="#EBEBEB"/>
<path d="M233.365 107.19C231.74 103.94 228.679 105.675 227.45 106.273C226.222 106.871 224.487 106.007 224.116 103.985C223.804 102.321 222.881 101.964 222.478 101.866C222.075 101.769 221.178 101.359 219.878 102.438C218.292 103.738 216.407 103.296 215.849 102.048C215.29 100.8 214.055 97.4986 210.733 98.9546C210.733 98.9546 213.496 107.261 211.851 114.235C210.207 121.209 208.991 124.31 207.607 125.935L212.865 127.846L213.197 127.969L218.455 129.88C218.422 127.761 219.482 124.609 222.699 118.181C225.916 111.752 233.365 107.19 233.365 107.19Z" fill="#EBEBEB"/>
<path d="M210.935 177.191C210.902 177.282 204.604 175.072 196.876 172.257C189.148 169.443 182.895 167.097 182.928 167.006C182.96 166.915 189.252 169.125 196.987 171.939C204.721 174.753 210.967 177.106 210.935 177.191Z" fill="#E0E0E0"/>
<path d="M210.681 164.796C210.649 164.887 206.236 163.36 200.828 161.39C195.42 159.421 191.078 157.757 191.078 157.666C191.078 157.575 195.524 159.102 200.938 161.072C206.353 163.041 210.714 164.712 210.681 164.796Z" fill="#E0E0E0"/>
<path d="M213.6 162.806C213.6 162.897 208.289 161.052 201.809 158.699C195.329 156.346 190.11 154.357 190.11 154.266C190.11 154.175 195.42 156.021 201.9 158.38C208.38 160.74 213.632 162.696 213.6 162.806Z" fill="#E0E0E0"/>
<path d="M217.85 136.438C217.85 136.522 214.653 135.456 210.772 134.046C206.892 132.635 203.785 131.446 203.811 131.329C203.837 131.212 207.016 132.317 210.889 133.727C214.763 135.138 217.883 136.347 217.85 136.438Z" fill="#E0E0E0"/>
<path d="M219.196 132.746C219.164 132.837 215.992 131.764 212.118 130.354C208.244 128.943 205.124 127.754 205.157 127.643C205.189 127.533 208.355 128.625 212.235 130.035C216.115 131.446 219.222 132.661 219.196 132.746Z" fill="#E0E0E0"/>
<path d="M219.391 130.198C219.391 130.282 216.479 129.32 212.956 128.04C209.433 126.759 206.613 125.648 206.645 125.563C208.823 126.173 210.969 126.893 213.073 127.721C215.22 128.44 217.328 129.266 219.391 130.198Z" fill="#E0E0E0"/>
<path d="M219.579 127.988C217.577 127.444 215.604 126.793 213.671 126.038C211.699 125.379 209.764 124.616 207.874 123.75C209.877 124.291 211.85 124.942 213.782 125.7C215.755 126.355 217.691 127.119 219.579 127.988Z" fill="#E0E0E0"/>
<path d="M220.151 126.494C218.145 125.953 216.171 125.302 214.237 124.544C212.265 123.884 210.33 123.12 208.439 122.256C210.445 122.797 212.419 123.448 214.354 124.206C216.326 124.864 218.261 125.628 220.151 126.494Z" fill="#E0E0E0"/>
<path d="M210.72 98.954C210.72 98.954 210.805 98.8955 210.98 98.8175L211.312 98.681L211.793 98.5706C212.008 98.5404 212.225 98.523 212.443 98.5186C212.69 98.5301 212.934 98.5715 213.171 98.642C213.75 98.8342 214.264 99.1855 214.653 99.656C215.116 100.21 215.495 100.83 215.777 101.495C215.904 101.854 216.096 102.187 216.343 102.477C216.619 102.754 216.972 102.942 217.356 103.016C217.777 103.091 218.21 103.071 218.622 102.959C219.035 102.847 219.417 102.644 219.742 102.366C220.123 102.038 220.565 101.786 221.042 101.625C221.556 101.457 222.116 101.496 222.602 101.736C222.852 101.793 223.087 101.904 223.291 102.061C223.501 102.221 223.681 102.417 223.824 102.639C224.086 103.064 224.261 103.537 224.337 104.03C224.405 104.453 224.566 104.856 224.807 105.21C225.049 105.564 225.365 105.86 225.735 106.078C226.079 106.27 226.473 106.354 226.866 106.318C227.239 106.253 227.598 106.121 227.925 105.928C228.569 105.602 229.256 105.37 229.966 105.239C230.567 105.133 231.185 105.194 231.753 105.415C231.985 105.513 232.203 105.639 232.403 105.792C232.562 105.925 232.709 106.071 232.845 106.227L233.138 106.624L233.307 106.936C233.391 107.111 233.437 107.202 233.424 107.209C233.411 107.215 233.352 107.131 233.248 106.975L233.053 106.676L232.748 106.312C232.607 106.174 232.46 106.044 232.306 105.922C232.118 105.784 231.912 105.673 231.695 105.59C231.157 105.4 230.577 105.36 230.018 105.473C229.338 105.618 228.682 105.856 228.068 106.182L227.541 106.442C227.337 106.537 227.117 106.594 226.892 106.611C226.442 106.657 225.989 106.567 225.592 106.351C225.178 106.115 224.821 105.791 224.548 105.401C224.275 105.011 224.092 104.565 224.012 104.095C223.85 103.211 223.447 102.275 222.452 102.035C222.045 101.842 221.581 101.812 221.152 101.95C220.721 102.088 220.322 102.309 219.976 102.6C219.614 102.91 219.188 103.135 218.727 103.258C218.267 103.38 217.785 103.398 217.317 103.309C216.872 103.216 216.467 102.989 216.154 102.659C216.004 102.501 215.879 102.322 215.784 102.126L215.55 101.586C215.288 100.938 214.934 100.331 214.497 99.786C214.142 99.3392 213.673 98.9976 213.138 98.798C212.928 98.7264 212.71 98.6784 212.488 98.6551C212.291 98.6414 212.094 98.6414 211.897 98.6551L211.429 98.733L211.091 98.837C210.975 98.8964 210.849 98.936 210.72 98.954Z" fill="#E0E0E0"/>
<path d="M90.4765 127.748C92.2361 126.687 94.1289 125.865 96.1052 125.304L97.2687 119.733L106.68 119.564L108.032 125.096C110.028 125.584 111.95 126.338 113.745 127.338L118.503 124.225L125.276 130.763L122.331 135.625C123.392 137.385 124.214 139.278 124.775 141.254L130.345 142.417L130.514 151.829L124.983 153.181C124.492 155.177 123.735 157.098 122.734 158.894L125.854 163.652L119.316 170.424L114.454 167.473C112.694 168.536 110.802 169.36 108.825 169.924L107.662 175.494L98.2501 175.657L96.8982 170.132C94.9018 169.641 92.9802 168.885 91.185 167.883L86.4272 171.003L79.6546 164.464L82.6054 159.602C81.5415 157.841 80.7175 155.946 80.1551 153.967L74.5849 152.81L74.4224 143.399L79.9471 142.04C80.4389 140.046 81.1952 138.127 82.196 136.334L79.0761 131.576L85.6148 124.803L90.4765 127.748ZM95.4943 140.292C94.1094 141.73 93.1819 143.547 92.829 145.512C92.476 147.477 92.7134 149.503 93.5111 151.333C94.3089 153.164 95.6313 154.716 97.3111 155.796C98.991 156.875 100.953 157.432 102.949 157.396C104.946 157.361 106.887 156.735 108.527 155.597C110.168 154.459 111.434 152.86 112.167 151.002C112.899 149.145 113.065 147.112 112.642 145.161C112.22 143.209 111.229 141.427 109.794 140.038C108.839 139.115 107.711 138.388 106.475 137.901C105.239 137.414 103.92 137.175 102.591 137.199C101.263 137.222 99.9525 137.507 98.7347 138.038C97.5168 138.569 96.4157 139.335 95.4943 140.292Z" fill="#E0E0E0"/>
<path d="M26.5003 228.109C27.7191 227.375 29.0306 226.806 30.4001 226.42L31.1996 222.578L37.6993 222.468L38.6352 226.277C40.0102 226.617 41.3345 227.138 42.574 227.824L45.8563 225.679L50.5231 230.183L48.4692 233.543C49.2019 234.762 49.7681 236.074 50.1526 237.443L53.9939 238.242L54.1109 244.742L50.2956 245.678C49.9588 247.054 49.4385 248.379 48.7487 249.617L50.9001 252.899L46.3893 257.572L43.0355 255.538C41.8162 256.27 40.5047 256.836 39.1357 257.221L38.3362 261.063L31.8366 261.18L30.9006 257.364C29.5246 257.027 28.2 256.506 26.9618 255.818L23.712 257.969L19.0452 253.458L21.0796 250.104C20.3455 248.885 19.7772 247.574 19.3897 246.205L15.5484 245.405L15.4314 238.905L19.2467 237.969C19.5847 236.594 20.1049 235.269 20.7936 234.031L18.6422 230.781L23.153 226.108L26.5068 228.142L26.5003 228.109ZM29.9647 236.754C29.0063 237.745 28.3634 238.997 28.1172 240.354C27.8709 241.71 28.0325 243.109 28.5814 244.373C29.1303 245.637 30.042 246.711 31.2009 247.457C32.3599 248.203 33.7141 248.589 35.0923 248.565C36.4705 248.541 37.8107 248.109 38.9434 247.324C40.076 246.538 40.9503 245.435 41.4555 244.152C41.9607 242.87 42.0742 241.466 41.7816 240.119C41.489 238.772 40.8034 237.542 39.8116 236.585C38.4822 235.304 36.6991 234.603 34.8532 234.634C33.0074 234.666 31.2494 235.428 29.9647 236.754Z" fill="#EBEBEB"/>
<path d="M23.0946 84.8696C23.8328 84.4196 24.6287 84.072 25.4604 83.8362L25.9479 81.4963L29.9062 81.4248L30.4782 83.7517C31.3163 83.9597 32.1229 84.2789 32.8766 84.7006L34.8785 83.4007L37.7318 86.1566L36.4904 88.1975C36.933 88.934 37.2782 89.7249 37.5173 90.5503L39.8637 91.0378L39.9287 94.9961L37.6083 95.5681C37.4 96.4062 37.0809 97.2127 36.6594 97.9665L37.9593 99.9684L35.2099 102.822L33.1755 101.6C32.4351 102.044 31.6397 102.389 30.8097 102.627L30.3222 104.973L26.3639 105.038L25.7919 102.718C24.9517 102.51 24.143 102.19 23.387 101.769L21.3851 103.069L18.5383 100.3L19.7797 98.2524C19.3268 97.5196 18.9769 96.7278 18.7398 95.8996L16.3934 95.4121L16.3219 91.4473L18.6488 90.8818C18.8549 90.0419 19.1718 89.2332 19.5912 88.4769L18.2913 86.475L21.0407 83.6282L23.0881 84.8696H23.0946ZM25.2004 90.1409C24.6166 90.7456 24.2251 91.5099 24.0755 92.3371C23.926 93.1644 24.0251 94.0173 24.3602 94.7883C24.6954 95.5592 25.2517 96.2134 25.9586 96.6682C26.6656 97.1231 27.4915 97.3581 28.332 97.3435C29.1725 97.329 29.9899 97.0656 30.6807 96.5866C31.3715 96.1076 31.9047 95.4345 32.2131 94.6524C32.5214 93.8704 32.5909 93.0145 32.4128 92.1929C32.2348 91.3714 31.8171 90.6211 31.2126 90.0369C30.4009 89.2547 29.3121 88.8264 28.185 88.8459C27.058 88.8654 25.9846 89.3311 25.2004 90.1409Z" fill="#EBEBEB"/>
<path d="M151.053 16.4539C151.618 20.2328 151.049 24.0943 149.417 27.5493C147.786 31.0044 145.166 33.8975 141.889 35.8625C138.612 37.8274 134.825 38.7757 131.009 38.5872C127.193 38.3988 123.519 37.0821 120.451 34.8039C117.384 32.5257 115.062 29.3885 113.778 25.7895C112.495 22.1906 112.309 18.2918 113.243 14.5869C114.177 10.882 116.19 7.53766 119.026 4.97741C121.862 2.41716 125.395 0.756164 129.176 0.204764C134.231 -0.537715 139.374 0.756447 143.476 3.80306C147.578 6.84968 150.303 11.3997 151.053 16.4539Z" fill="#F5F5F5"/>
<path d="M146.51 17.1038C146.935 19.9845 146.496 22.9265 145.248 25.5575C144.001 28.1885 142 30.3902 139.501 31.8838C137.001 33.3775 134.115 34.096 131.207 33.9484C128.298 33.8007 125.499 32.7936 123.164 31.0545C120.828 29.3154 119.061 26.9225 118.087 24.1787C117.112 21.4349 116.973 18.4635 117.687 15.6407C118.402 12.8178 119.938 10.2705 122.101 8.32107C124.264 6.37164 126.957 5.10777 129.838 4.68944C131.748 4.4096 133.695 4.50875 135.566 4.98122C137.438 5.4537 139.198 6.29024 140.746 7.44307C142.294 8.5959 143.6 10.0424 144.589 11.7C145.578 13.3576 146.231 15.1939 146.51 17.1038Z" fill="#EBEBEB"/>
<path d="M146.439 16.6622C146.161 16.1241 145.944 15.5575 145.789 14.9723C145.234 13.4538 144.447 12.0307 143.455 10.754C142.775 9.88343 142.001 9.09006 141.148 8.38812C140.165 7.59091 139.083 6.92254 137.931 6.39922C136.661 5.82478 135.314 5.43728 133.933 5.24878C133.203 5.14969 132.467 5.10623 131.73 5.11879C130.972 5.13826 130.216 5.21212 129.468 5.33978C128.723 5.47593 127.988 5.66711 127.271 5.91175C126.575 6.15089 125.9 6.44428 125.25 6.7892C124.018 7.44275 122.886 8.27019 121.889 9.24608C120.988 10.1322 120.204 11.1305 119.556 12.2164C118.997 13.1695 118.544 14.1808 118.204 15.2323C117.715 16.7729 117.467 18.38 117.47 19.9965C117.536 20.5992 117.536 21.2073 117.47 21.8099C117.206 21.2502 117.065 20.641 117.054 20.0225C116.874 18.3416 117.011 16.642 117.457 15.0113C117.764 13.8816 118.2 12.7911 118.757 11.7614C119.41 10.5745 120.222 9.48132 121.168 8.51161C122.778 6.86508 124.747 5.61275 126.92 4.8523C127.692 4.57772 128.483 4.36047 129.286 4.20234C130.092 4.06601 130.907 3.98997 131.723 3.97485C132.519 3.96096 133.315 4.01314 134.102 4.13084C134.86 4.23758 135.608 4.40715 136.338 4.63781C137.039 4.85126 137.724 5.1163 138.386 5.43077C140.679 6.51731 142.651 8.17876 144.112 10.2535C145.092 11.625 145.807 13.1683 146.218 14.8033C146.428 15.399 146.503 16.0338 146.439 16.6622Z" fill="#E0E0E0"/>
<path d="M134.856 27.679L135.266 30.2139L133.004 30.5714L132.607 28.108C130.59 28.3701 128.54 28.0569 126.693 27.2046L127.492 24.2537C128.934 24.9527 130.534 25.264 132.133 25.1572L131.528 21.3809C128.929 21.1729 125.991 20.7894 125.471 17.5591C125.087 15.1607 126.498 12.8273 130.021 11.8523L129.624 9.34347L131.879 8.97949L132.276 11.4429C133.908 11.2756 135.556 11.4984 137.086 12.0928L136.384 15.0372C135.224 14.5805 133.984 14.3595 132.737 14.3872L133.387 18.2285C135.987 18.4105 138.88 18.807 139.393 21.9918C139.725 24.3772 138.334 26.6846 134.856 27.679ZM131.002 18.053L130.482 14.8487C129.332 15.3102 128.961 16.0446 129.078 16.7986C129.195 17.5526 129.956 17.897 131.002 18.053ZM135.734 22.8823C135.604 22.0893 134.882 21.7643 133.855 21.5823L134.356 24.6957C135.467 24.2537 135.87 23.6037 135.734 22.8823Z" fill="#E0E0E0"/>
<path d="M213.905 283.486C214.354 286.527 213.891 289.633 212.574 292.41C211.257 295.188 209.146 297.512 206.507 299.089C203.869 300.666 200.822 301.425 197.752 301.27C194.682 301.114 191.727 300.051 189.261 298.216C186.796 296.38 184.93 293.854 183.901 290.958C182.871 288.062 182.724 284.925 183.478 281.945C184.232 278.965 185.853 276.276 188.136 274.217C190.42 272.159 193.262 270.825 196.304 270.383C198.32 270.086 200.375 270.19 202.351 270.688C204.327 271.187 206.186 272.069 207.82 273.286C209.455 274.503 210.834 276.031 211.878 277.781C212.922 279.531 213.611 281.469 213.905 283.486Z" fill="#F5F5F5"/>
<path d="M210.246 284.013C210.588 286.33 210.235 288.696 209.232 290.812C208.228 292.928 206.62 294.699 204.61 295.901C202.6 297.103 200.278 297.681 197.94 297.563C195.601 297.445 193.349 296.635 191.471 295.237C189.592 293.839 188.17 291.915 187.385 289.708C186.601 287.502 186.488 285.112 187.062 282.842C187.636 280.571 188.87 278.522 190.609 276.953C192.348 275.385 194.513 274.367 196.83 274.03C198.367 273.804 199.933 273.883 201.438 274.263C202.944 274.643 204.36 275.315 205.606 276.242C206.852 277.17 207.903 278.333 208.699 279.666C209.495 281 210.021 282.477 210.246 284.013Z" fill="#EBEBEB"/>
<path d="M210.187 283.649C209.972 283.212 209.8 282.755 209.674 282.284C209.23 281.062 208.599 279.918 207.802 278.891C206.629 277.377 205.103 276.174 203.356 275.388C202.858 275.16 202.343 274.971 201.816 274.822C201.267 274.659 200.706 274.539 200.139 274.465C199.553 274.381 198.962 274.346 198.371 274.361C197.761 274.374 197.153 274.433 196.551 274.536C195.951 274.645 195.36 274.799 194.783 274.998C194.224 275.188 193.68 275.423 193.158 275.7C192.651 275.969 192.165 276.276 191.702 276.616C191.26 276.94 190.843 277.296 190.454 277.682C189.088 279.022 188.068 280.675 187.484 282.498C187.09 283.736 186.892 285.028 186.899 286.327C186.946 286.811 186.946 287.298 186.899 287.783C186.68 287.335 186.562 286.845 186.555 286.346C186.415 284.994 186.525 283.628 186.88 282.316C187.581 279.77 189.097 277.524 191.195 275.921C191.687 275.548 192.206 275.213 192.749 274.92C193.31 274.616 193.895 274.358 194.497 274.146C195.12 273.929 195.759 273.762 196.408 273.646C197.053 273.536 197.704 273.473 198.358 273.457C198.997 273.448 199.637 273.491 200.269 273.587C200.879 273.673 201.481 273.807 202.069 273.99C202.635 274.166 203.187 274.383 203.72 274.64C204.701 275.111 205.614 275.71 206.437 276.421C207.147 277.043 207.782 277.745 208.328 278.514C209.114 279.623 209.687 280.868 210.018 282.186C210.181 282.656 210.239 283.155 210.187 283.649Z" fill="#E0E0E0"/>
<path d="M200.873 292.508L201.198 294.549L199.385 294.835L199.066 292.885C197.443 293.091 195.794 292.837 194.309 292.151L194.959 289.778C196.119 290.339 197.404 290.587 198.689 290.5L198.202 287.464C196.109 287.295 193.75 286.983 193.334 284.39C193.022 282.44 194.159 280.581 196.974 279.795L196.655 277.78L198.469 277.487L198.787 279.47C200.099 279.332 201.424 279.508 202.654 279.983L202.102 282.369C201.168 282.008 200.171 281.837 199.17 281.868L199.664 284.955C201.757 285.105 204.084 285.423 204.494 287.984C204.793 289.85 203.675 291.709 200.873 292.508ZM197.773 284.767L197.357 282.167C196.428 282.538 196.129 283.129 196.226 283.727C196.324 284.325 196.928 284.643 197.773 284.767ZM201.601 288.667C201.497 288.017 200.912 287.77 200.087 287.62L200.49 290.129C201.38 289.765 201.692 289.232 201.601 288.647V288.667Z" fill="#E0E0E0"/>
<path d="M273.696 155.183C273.696 155.183 273.695 154.533 273.631 153.317C273.631 152.7 273.592 151.933 273.566 151.023C273.54 150.113 273.52 149.073 273.403 147.851C273.286 146.629 273.208 145.316 273.091 143.834C272.974 142.352 272.708 140.753 272.493 139.011C271.914 135.008 271.136 131.036 270.16 127.11C269.913 125.999 269.542 124.881 269.23 123.718L268.723 121.963L268.47 121.066L268.171 120.169L266.916 116.484C266.715 115.834 266.468 115.229 266.214 114.599C265.961 113.968 265.714 113.299 265.46 112.681C263.242 107.077 260.568 101.664 257.466 96.497C249.904 83.8681 240.009 72.7929 228.308 63.8622C214.094 53.0402 197.544 45.6948 179.983 42.4133L176.428 41.7634L172.814 41.3019C170.403 40.9379 167.946 40.8339 165.476 40.6519C164.241 40.5414 162.993 40.5674 161.745 40.5219L159.873 40.4764C159.223 40.4764 158.619 40.4374 157.988 40.4764C155.473 40.5544 152.938 40.5414 150.39 40.7949C145.222 41.1637 140.084 41.8825 135.012 42.9463C132.451 43.5378 129.864 44.0902 127.317 44.8962C124.717 45.5462 122.227 46.4886 119.666 47.3401C109.278 51.1161 99.4888 56.3698 90.5999 62.9393C86.0353 66.358 81.7094 70.0845 77.6526 74.0927C73.569 78.2238 69.7812 82.6372 66.3171 87.3L63.7628 90.8943L61.3644 94.6186C60.5389 95.8471 59.85 97.1665 59.096 98.4404L57.9846 100.39L56.9576 102.34L55.9372 104.336C55.5927 104.986 55.2872 105.668 54.9622 106.357L53.1098 110.458C52.5595 111.854 52.0049 113.253 51.4459 114.657L51.0299 115.71L50.666 116.783L49.938 118.947L49.2165 121.098L48.5666 123.289L47.9166 125.479L47.6111 126.584L47.3511 127.695C47.0131 129.182 46.6708 130.67 46.3242 132.161C46.0599 133.669 45.7912 135.185 45.5182 136.71C43.5207 148.942 43.5207 161.417 45.5182 173.648C45.7912 175.163 46.0577 176.67 46.3307 178.198C46.6037 179.725 46.9806 181.181 47.3511 182.663L47.6111 183.781C47.7021 184.152 47.8126 184.516 47.9166 184.88L48.5666 187.076L49.2165 189.267L49.938 191.392L50.666 193.544L51.0299 194.616L51.4459 195.669L53.1033 199.874L54.9622 203.976L55.4237 204.996L55.9372 205.997L56.9576 207.986L57.9846 209.975L59.096 211.925C59.85 213.225 60.5324 214.524 61.3644 215.746C62.1964 216.968 62.9633 218.229 63.7563 219.471L66.3171 223.065C69.7787 227.738 73.5667 232.16 77.6526 236.298C81.7108 240.305 86.0366 244.031 90.5999 247.452C95.1009 250.762 99.8268 253.754 104.743 256.408C109.571 258.966 114.565 261.196 119.692 263.084C122.253 263.935 124.769 264.858 127.349 265.527C129.89 266.314 132.484 266.86 135.038 267.477C140.112 268.539 145.252 269.255 150.423 269.622C152.964 269.876 155.506 269.863 158.021 269.941C158.671 269.973 159.275 269.941 159.906 269.941L161.778 269.895C163.026 269.85 164.274 269.895 165.509 269.765C167.978 269.557 170.435 269.453 172.847 269.115L176.46 268.654L180.016 268.004C197.577 264.722 214.127 257.377 228.341 246.555C240.04 237.62 249.935 226.543 257.498 213.914C260.595 208.746 263.266 203.336 265.486 197.736L266.24 195.818C266.494 195.168 266.741 194.564 266.942 193.927L268.197 190.248C268.294 189.943 268.398 189.644 268.496 189.351C268.593 189.059 268.671 188.753 268.756 188.454C268.925 187.863 269.087 187.271 269.256 186.693C269.568 185.536 269.939 184.418 270.186 183.3C271.161 179.377 271.94 175.407 272.519 171.406C272.734 169.664 272.968 168.058 273.117 166.583C273.267 165.108 273.338 163.762 273.429 162.566C273.52 161.37 273.572 160.311 273.592 159.394C273.611 158.478 273.637 157.717 273.657 157.1C273.696 155.872 273.721 155.241 273.721 155.241C273.721 155.241 273.721 155.891 273.721 157.1C273.721 157.717 273.689 158.484 273.669 159.394C273.65 160.304 273.637 161.344 273.527 162.566C273.416 163.788 273.338 165.108 273.228 166.589C273.117 168.071 272.851 169.67 272.643 171.419C272.056 175.408 271.266 179.365 270.277 183.274C270.03 184.392 269.666 185.51 269.347 186.673C269.185 187.252 269.022 187.843 268.853 188.435L268.6 189.338C268.496 189.631 268.398 189.93 268.294 190.229L267.066 193.895C266.864 194.545 266.617 195.155 266.364 195.786C266.11 196.416 265.863 197.086 265.61 197.736C263.398 203.35 260.73 208.773 257.635 213.953C250.076 226.617 240.174 237.726 228.458 246.685C214.221 257.545 197.64 264.924 180.042 268.231L176.48 268.881L172.86 269.349C170.442 269.713 167.972 269.817 165.496 269.999C164.261 270.11 163.013 270.084 161.758 270.136L159.88 270.188C159.23 270.188 158.625 270.22 157.995 270.188C155.473 270.103 152.925 270.116 150.377 269.869C145.194 269.503 140.041 268.786 134.954 267.724C132.354 267.126 129.793 266.574 127.239 265.774C124.639 265.124 122.123 264.182 119.562 263.324C109.14 259.534 99.319 254.258 90.4049 247.66C85.8243 244.231 81.4813 240.496 77.4056 236.48C73.3107 232.327 69.512 227.892 66.0377 223.208C65.1797 222.012 64.3282 220.81 63.4378 219.607L61.0329 215.87C60.2075 214.641 59.5185 213.316 58.758 212.035L57.6401 210.085L56.6131 208.09L55.5927 206.094L55.1377 205.139L54.6697 204.119L52.8108 200.004C52.2584 198.6 51.6994 197.196 51.1469 195.786L50.731 194.733L50.367 193.654L49.6325 191.496L48.885 189.345L48.2351 187.141L47.5851 184.945C47.4811 184.574 47.3706 184.21 47.2796 183.84L47.0196 182.722C46.6752 181.227 46.3697 179.732 45.9927 178.237C45.6157 176.742 45.4532 175.215 45.1802 173.687C43.1733 161.419 43.1733 148.907 45.1802 136.639C45.4467 135.118 45.7197 133.61 45.9927 132.089C46.2657 130.568 46.6427 129.099 47.0196 127.611L47.2731 126.493L47.5851 125.388L48.2351 123.185L48.885 120.988L49.613 118.83L50.3475 116.672L50.7115 115.593L51.1274 114.54C51.6799 113.13 52.2389 111.726 52.7913 110.322C53.3438 108.918 54.0328 107.579 54.6502 106.214C54.9492 105.519 55.3002 104.849 55.6317 104.186L56.6586 102.191L57.6856 100.195L58.797 98.2455C59.5575 96.9455 60.2465 95.6456 61.0784 94.4107L63.4768 90.6798L66.0767 87.0725C69.5495 82.3909 73.3482 77.9602 77.4446 73.8132C81.5215 69.7968 85.8645 66.0597 90.4439 62.6273C99.3502 56.0489 109.157 50.7865 119.562 47.0021C122.123 46.1506 124.652 45.2277 127.232 44.5517C129.786 43.7718 132.386 43.2518 134.947 42.6018C140.035 41.5559 145.188 40.8545 150.371 40.5024C152.919 40.2554 155.467 40.2684 157.988 40.1904C158.638 40.1904 159.249 40.1904 159.873 40.1904L161.758 40.2359C163.006 40.2879 164.254 40.2359 165.496 40.3724C167.965 40.5804 170.435 40.6844 172.853 41.0224L176.473 41.4904L180.035 42.1403C197.635 45.4355 214.217 52.8106 228.451 63.6737C240.165 72.6322 250.067 83.7384 257.628 96.3995C260.727 101.589 263.397 107.024 265.61 112.649C265.863 113.299 266.11 113.949 266.364 114.566C266.617 115.184 266.864 115.821 267.059 116.458C267.493 117.718 267.909 118.949 268.307 120.149C268.411 120.448 268.509 120.747 268.606 121.046L268.86 121.943C269.029 122.541 269.198 123.126 269.36 123.705C269.672 124.875 270.043 125.993 270.29 127.104C271.259 131.036 272.027 135.014 272.591 139.024C272.799 140.766 273.033 142.378 273.176 143.854C273.319 145.329 273.384 146.674 273.475 147.877C273.566 149.079 273.605 150.132 273.618 151.049C273.631 151.965 273.657 152.726 273.669 153.343C273.689 154.552 273.696 155.183 273.696 155.183Z" fill="#263238"/>
<path d="M224.5 183.834C226.905 183.964 228.711 181.169 228.243 178.803C227.775 176.437 225.696 174.682 223.466 173.759C221.237 172.836 218.806 172.557 216.473 171.959C212.996 171.047 209.741 169.438 206.908 167.227C204.074 165.017 201.72 162.252 199.989 159.102C198.749 156.7 197.731 154.189 196.948 151.602C193.665 137.777 189.148 118.011 188.011 110.309C185.138 90.4268 180.068 68.5879 151.651 70.6223C151.651 70.6223 132.757 74.1777 125.51 87.7295C119.134 99.6433 122.812 135.573 121.967 161.455L128.162 165.186L129.124 165.244C129.84 167.892 130.996 170.401 132.542 172.667C138.197 180.733 145.899 187.213 154.245 192.452C171.144 203.04 191.293 208.818 211.123 206.829C215.309 206.407 219.573 205.62 223.213 203.58C226.853 201.539 229.894 197.957 230.447 193.791C230.999 189.625 228.549 184.964 224.5 183.834Z" fill="#263238"/>
<path d="M147.868 78.0314L149.649 76.335L168.882 84.0501C170.224 84.1245 171.489 84.7002 172.427 85.6632C173.365 86.6262 173.906 87.9062 173.945 89.2498L173.776 151.842C173.776 156.086 172.951 159.765 170.39 163.145L167.692 166.706C161.537 174.831 148.882 174.161 144.014 165.211C143.727 164.703 143.508 164.159 143.364 163.593C143.24 163.134 143.144 162.667 143.078 162.196C142.506 157.158 142.474 152.791 142.474 152.791C142.129 147.266 142.019 144.991 142.012 145.049C142.006 145.108 130.248 143.691 127.063 128.592C125.477 121.079 125.763 110.744 126.225 100.572C126.79 86.5199 136.553 78.0184 147.868 78.0314Z" fill="#FFBF9D"/>
<path d="M151.807 110.9C151.828 111.409 152.046 111.89 152.417 112.24C152.787 112.59 153.28 112.781 153.79 112.772C154.041 112.784 154.292 112.744 154.528 112.656C154.764 112.568 154.979 112.432 155.161 112.259C155.343 112.085 155.489 111.876 155.588 111.645C155.687 111.414 155.739 111.165 155.74 110.913C155.721 110.403 155.503 109.92 155.132 109.569C154.761 109.218 154.268 109.026 153.757 109.035C153.505 109.024 153.254 109.065 153.018 109.154C152.783 109.243 152.567 109.378 152.385 109.552C152.203 109.727 152.058 109.936 151.959 110.167C151.859 110.399 151.808 110.648 151.807 110.9Z" fill="#263238"/>
<path d="M131.951 110.9C131.971 111.404 132.185 111.88 132.549 112.229C132.912 112.578 133.397 112.773 133.901 112.772C134.152 112.783 134.403 112.742 134.638 112.654C134.873 112.565 135.088 112.43 135.27 112.257C135.452 112.083 135.598 111.875 135.697 111.644C135.797 111.413 135.849 111.165 135.851 110.913C135.832 110.403 135.614 109.92 135.243 109.569C134.872 109.218 134.379 109.026 133.868 109.035C133.619 109.028 133.371 109.071 133.138 109.162C132.906 109.252 132.694 109.389 132.515 109.563C132.337 109.736 132.195 109.944 132.098 110.174C132.001 110.404 131.951 110.651 131.951 110.9Z" fill="#263238"/>
<path d="M128.187 104.615C128.441 104.862 129.864 103.692 131.964 103.588C134.063 103.484 135.662 104.465 135.863 104.192C135.967 104.075 135.701 103.627 135.006 103.172C134.065 102.587 132.966 102.308 131.86 102.372C130.765 102.423 129.715 102.821 128.863 103.51C128.259 104.036 128.064 104.511 128.187 104.615Z" fill="#263238"/>
<path d="M149.506 104.849C149.786 105.064 151.086 103.751 153.166 103.439C155.246 103.127 156.929 103.927 157.117 103.641C157.208 103.511 156.896 103.095 156.155 102.711C155.16 102.226 154.038 102.06 152.945 102.237C151.863 102.4 150.862 102.903 150.085 103.673C149.519 104.252 149.383 104.739 149.506 104.849Z" fill="#263238"/>
<path d="M142.168 120.13C142.168 120.006 140.868 119.85 138.723 119.688C138.184 119.655 137.67 119.577 137.56 119.213C137.489 118.662 137.587 118.103 137.839 117.608L139.224 113.442C141.135 107.514 142.474 102.652 142.253 102.574C142.032 102.496 140.27 107.241 138.353 113.169C137.898 114.631 137.456 116.022 137.053 117.354C136.749 118.021 136.689 118.773 136.884 119.48C136.971 119.665 137.1 119.827 137.26 119.955C137.42 120.082 137.607 120.171 137.807 120.214C138.108 120.281 138.416 120.309 138.723 120.299C140.842 120.305 142.168 120.247 142.168 120.13Z" fill="#263238"/>
<path d="M141.96 145.069C149.146 144.82 156.121 142.581 162.109 138.602C162.109 138.602 157.507 149.404 142.201 148.741L141.96 145.069Z" fill="#FF9A6C"/>
<path d="M143.312 125.147C143.687 124.624 144.188 124.206 144.769 123.93C145.35 123.655 145.992 123.533 146.634 123.574C147.099 123.592 147.556 123.703 147.977 123.902C148.398 124.101 148.775 124.383 149.084 124.731C149.383 125.067 149.571 125.487 149.624 125.933C149.676 126.38 149.59 126.831 149.376 127.227C149.059 127.622 148.63 127.913 148.146 128.062C147.662 128.211 147.144 128.213 146.66 128.066C145.648 127.766 144.706 127.266 143.891 126.597C143.639 126.442 143.419 126.241 143.241 126.005C143.157 125.893 143.109 125.758 143.102 125.618C143.095 125.478 143.13 125.339 143.202 125.219" fill="#FF9A6C"/>
<path d="M148.427 121.274C148.083 121.274 148.193 123.549 146.322 125.265C144.45 126.981 142.012 126.857 142.006 127.176C142.006 127.319 142.571 127.592 143.598 127.566C144.936 127.52 146.214 127.002 147.205 126.103C148.159 125.242 148.739 124.044 148.824 122.762C148.863 121.807 148.577 121.254 148.427 121.274Z" fill="#263238"/>
<path d="M147.498 96.6464C147.79 97.1794 149.825 96.5879 152.308 96.5099C154.791 96.4319 156.857 96.7959 157.117 96.2369C157.221 95.9704 156.799 95.496 155.915 95.067C154.75 94.5594 153.486 94.3236 152.216 94.3777C150.947 94.4318 149.707 94.7742 148.59 95.379C147.751 95.8729 147.368 96.3994 147.498 96.6464Z" fill="#263238"/>
<path d="M128.486 95.5873C128.883 96.0488 130.306 95.4833 132.042 95.3663C133.777 95.2493 135.292 95.5288 135.591 95.0153C135.727 94.7618 135.467 94.2938 134.804 93.8779C133.912 93.3801 132.892 93.1582 131.874 93.2404C130.856 93.3225 129.885 93.705 129.084 94.3393C128.493 94.8658 128.311 95.3663 128.486 95.5873Z" fill="#263238"/>
<path d="M173.536 115.984C173.536 115.984 162.779 119.331 156.689 92.7732C154.602 83.6737 146.185 76.3355 146.185 76.3355L149.597 75.3086C149.597 75.3086 170.819 81.2883 171.176 81.5548C171.534 81.8213 176.532 92.5327 176.532 92.5327L173.536 115.984Z" fill="#263238"/>
<path d="M170.884 114.995C170.832 113.858 172.008 111.095 173.12 110.887C176.083 110.27 181.485 110.237 181.92 117.835C182.505 128.235 171.969 126.662 171.93 126.363C171.891 126.064 171.072 118.908 170.884 114.995Z" fill="#FFBF9D"/>
<path d="M174.881 122.255C174.92 122.216 175.07 122.372 175.382 122.495C175.822 122.652 176.306 122.634 176.733 122.443C177.806 121.982 178.631 120.188 178.573 118.316C178.551 117.425 178.329 116.549 177.923 115.755C177.806 115.439 177.614 115.155 177.364 114.929C177.114 114.703 176.813 114.54 176.486 114.455C176.275 114.412 176.055 114.445 175.865 114.547C175.675 114.649 175.527 114.814 175.447 115.014C175.323 115.313 175.401 115.515 175.349 115.534C175.297 115.554 175.115 115.372 175.174 114.943C175.221 114.691 175.351 114.462 175.544 114.293C175.82 114.063 176.174 113.948 176.532 113.974C176.958 114.038 177.36 114.21 177.701 114.473C178.042 114.735 178.311 115.08 178.482 115.476C178.976 116.348 179.248 117.327 179.275 118.329C179.327 120.422 178.365 122.443 176.889 122.963C176.615 123.059 176.323 123.093 176.034 123.062C175.745 123.03 175.466 122.934 175.219 122.781C174.914 122.502 174.842 122.274 174.881 122.255Z" fill="#FF9A6C"/>
<path d="M182.304 154.207C182.145 153.005 182.069 151.793 182.076 150.58C182.123 147.273 182.46 143.976 183.084 140.727C183.454 138.667 183.857 136.411 184.293 133.993C184.764 131.415 185.074 128.81 185.222 126.194C185.398 123.313 185.179 120.422 184.572 117.601C184.234 116.118 183.744 114.674 183.11 113.292C182.445 111.875 181.62 110.538 180.653 109.308C178.703 106.909 176.526 104.704 174.153 102.723C171.878 100.774 169.701 98.8236 167.764 96.8412C164.314 93.3479 161.19 89.5472 158.43 85.4863C156.567 82.7553 154.878 79.9092 153.374 76.9653C152.841 75.9253 152.451 75.1063 152.197 74.5409C152.074 74.2679 151.976 74.0599 151.911 73.8909C151.874 73.8204 151.843 73.7464 151.82 73.6699C151.866 73.7355 151.905 73.8051 151.937 73.8779C152.015 74.0252 152.119 74.2419 152.249 74.5279C152.516 75.0804 152.899 75.8928 153.471 76.9263C155.012 79.8417 156.724 82.6632 158.599 85.3758C161.373 89.4074 164.503 93.1815 167.952 96.6527C169.902 98.6026 172.06 100.553 174.335 102.502C176.737 104.489 178.94 106.705 180.913 109.119C181.895 110.367 182.73 111.723 183.402 113.162C184.044 114.563 184.539 116.026 184.878 117.53C185.477 120.376 185.685 123.291 185.495 126.194C185.334 128.811 185.013 131.416 184.533 133.993C184.085 136.411 183.669 138.667 183.292 140.72C182.65 143.957 182.283 147.243 182.193 150.541C182.193 151.711 182.193 152.621 182.265 153.232L182.31 153.934C182.32 154.025 182.318 154.117 182.304 154.207Z" fill="#455A64"/>
<path d="M185.644 155.189C185.482 153.987 185.406 152.775 185.417 151.563C185.465 148.253 185.805 144.953 186.431 141.703C186.801 139.642 187.204 137.387 187.64 134.969C188.108 132.39 188.419 129.786 188.569 127.169C188.745 124.289 188.526 121.398 187.919 118.577C187.581 117.094 187.091 115.65 186.457 114.267C185.792 112.85 184.967 111.514 184 110.283C182.038 107.885 179.85 105.68 177.468 103.699C175.193 101.749 173.016 99.7992 171.079 97.8168C167.627 94.3249 164.503 90.524 161.745 86.4619C159.882 83.7308 158.193 80.8848 156.688 77.9408C156.155 76.9009 155.765 76.0819 155.512 75.5165L155.219 74.8665C155.185 74.7952 155.157 74.7213 155.135 74.6455L155.252 74.8535C155.323 75.0095 155.427 75.211 155.564 75.5035C155.83 76.0624 156.214 76.8684 156.786 77.9018C158.327 80.8173 160.039 83.6388 161.914 86.3514C164.686 90.3827 167.814 94.1569 171.261 97.6283C173.211 99.5782 175.368 101.528 177.65 103.478C180.052 105.465 182.255 107.681 184.228 110.095C185.207 111.344 186.042 112.7 186.717 114.137C187.359 115.538 187.854 117.002 188.192 118.505C188.788 121.352 188.996 124.267 188.81 127.169C188.649 129.786 188.327 132.391 187.848 134.969C187.399 137.387 186.983 139.642 186.606 141.696C185.964 144.935 185.597 148.223 185.508 151.524C185.508 152.687 185.508 153.597 185.573 154.208C185.573 154.507 185.612 154.741 185.618 154.91C185.641 155.001 185.649 155.095 185.644 155.189Z" fill="#455A64"/>
<path d="M111.366 170.145C106.888 173.004 101.883 177.639 99.511 182.396C95.2212 191.015 65.1342 214.167 63.9578 219.776C61.2539 243.727 87.7466 243.415 98.471 230.604C104.022 223.975 116.254 199.133 116.254 199.133L111.366 170.145Z" fill="#455A64"/>
<path d="M77.2821 207.18C77.2821 207.18 97.1711 175.163 101.071 170.684C107.044 163.834 117.424 161.091 117.424 161.091L119.66 203.072C119.796 202.494 99.108 228.934 99.108 228.934C99.108 228.934 79.7845 214.577 77.2821 207.18Z" fill="#455A64"/>
<path d="M89.6379 174.785L68.0135 216.078C66.9594 218.054 66.6803 220.352 67.2309 222.523C67.7814 224.694 69.122 226.581 70.9904 227.816L71.0814 227.874C79.3749 233.12 90.3659 227.998 92.1923 218.359L99.8034 179.77L89.6379 174.785Z" fill="#FFBF9D"/>
<path d="M110.677 138.855L96.8005 171.991L99.9594 173.317L113.414 139.811L110.677 138.855Z" fill="#455A64"/>
<path d="M133.043 125.515C133.794 116.281 127.474 108.231 118.926 107.536C110.379 106.841 102.841 113.763 102.09 122.997C101.339 132.232 107.659 140.281 116.206 140.977C124.754 141.672 132.292 134.749 133.043 125.515Z" fill="#FFBF9D"/>
<path d="M133.095 124.263C132.995 123.919 132.943 123.562 132.939 123.204C132.939 123.028 132.939 122.833 132.893 122.625C132.848 122.417 132.822 122.183 132.776 121.93C132.701 121.356 132.588 120.787 132.438 120.227C132.07 118.707 131.493 117.246 130.722 115.885C129.743 114.123 128.437 112.564 126.875 111.29C125.042 109.788 122.868 108.761 120.544 108.3C119.917 108.183 119.283 108.11 118.646 108.079C118.321 108.079 117.996 108.034 117.665 108.04L116.67 108.105C116.508 108.105 116.339 108.105 116.17 108.138L115.669 108.222C115.338 108.287 115.019 108.333 114.662 108.404C113.98 108.574 113.311 108.792 112.66 109.054C111.988 109.316 111.337 109.627 110.71 109.984C110.391 110.172 110.06 110.387 109.774 110.588C109.454 110.78 109.15 110.997 108.864 111.238C108.257 111.718 107.683 112.239 107.148 112.798C106.612 113.387 106.117 114.013 105.666 114.67C104.715 116.03 103.976 117.527 103.476 119.109C102.967 120.76 102.687 122.472 102.644 124.198C102.642 125.919 102.878 127.632 103.346 129.288C103.805 130.867 104.504 132.367 105.419 133.733C106.258 135.045 107.308 136.209 108.526 137.178C108.809 137.413 109.106 137.631 109.417 137.828C109.728 138.03 110.027 138.251 110.339 138.433C110.968 138.79 111.619 139.105 112.289 139.375C112.937 139.637 113.601 139.854 114.278 140.025C114.61 140.103 114.928 140.148 115.286 140.207L115.78 140.298C115.949 140.298 116.118 140.298 116.28 140.337L117.275 140.402C117.606 140.402 117.925 140.402 118.256 140.363C118.895 140.338 119.532 140.266 120.16 140.148C122.504 139.692 124.701 138.672 126.563 137.178C128.16 135.911 129.506 134.357 130.534 132.596C131.339 131.239 131.954 129.778 132.36 128.254C132.527 127.698 132.655 127.131 132.744 126.558C132.789 126.304 132.841 126.077 132.874 125.862L132.939 125.284C132.949 124.924 133.011 124.567 133.121 124.224C133.199 124.578 133.219 124.943 133.179 125.303C133.179 125.479 133.179 125.68 133.179 125.895C133.179 126.109 133.134 126.35 133.108 126.61C133.05 127.205 132.952 127.796 132.815 128.378C132.478 129.983 131.904 131.529 131.112 132.966C130.096 134.856 128.726 136.534 127.076 137.906C125.131 139.564 122.803 140.713 120.303 141.247C119.635 141.388 118.957 141.479 118.276 141.52C117.931 141.52 117.58 141.572 117.229 141.572L116.163 141.52C115.988 141.52 115.806 141.52 115.63 141.481L115.097 141.396C114.74 141.338 114.376 141.292 114.012 141.214C112.532 140.859 111.108 140.301 109.781 139.557C109.443 139.362 109.131 139.135 108.786 138.907C108.445 138.691 108.122 138.45 107.818 138.186C106.494 137.155 105.354 135.909 104.444 134.5C103.45 133.028 102.691 131.409 102.195 129.704C101.124 126.111 101.174 122.276 102.338 118.713C102.88 117.006 103.68 115.393 104.711 113.929C105.204 113.225 105.742 112.554 106.323 111.92C106.906 111.324 107.527 110.766 108.182 110.25C108.493 109.991 108.821 109.752 109.163 109.535C109.501 109.321 109.813 109.093 110.177 108.885C110.859 108.508 111.567 108.18 112.296 107.904C112.998 107.635 113.72 107.418 114.454 107.254C114.811 107.176 115.175 107.137 115.539 107.072L116.072 106.994C116.251 106.973 116.431 106.962 116.612 106.961L117.671 106.909C118.029 106.909 118.373 106.948 118.718 106.961C119.397 107.004 120.073 107.097 120.739 107.241C123.2 107.771 125.489 108.911 127.395 110.555C130.249 113.029 132.186 116.393 132.893 120.104C133.015 120.686 133.096 121.277 133.134 121.871C133.134 122.131 133.186 122.365 133.192 122.586C133.199 122.807 133.192 123.002 133.192 123.178C133.218 123.543 133.185 123.909 133.095 124.263Z" fill="#263238"/>
<path d="M122.344 126.877C122.382 127.737 122.088 128.579 121.523 129.23C120.959 129.88 120.166 130.29 119.309 130.374C118.895 130.399 118.479 130.34 118.089 130.2C117.698 130.06 117.339 129.843 117.035 129.56C116.731 129.277 116.488 128.936 116.32 128.556C116.152 128.176 116.064 127.766 116.059 127.351C116.023 126.491 116.318 125.65 116.882 125C117.446 124.35 118.238 123.94 119.094 123.854C119.509 123.829 119.924 123.888 120.315 124.028C120.706 124.168 121.064 124.386 121.368 124.668C121.672 124.951 121.915 125.293 122.083 125.672C122.251 126.052 122.34 126.462 122.344 126.877Z" fill="#263238"/>
<path d="M123.436 118.206C123.046 118.654 120.648 116.782 117.242 116.854C113.836 116.925 111.353 118.804 110.983 118.355C110.801 118.16 111.204 117.348 112.283 116.477C113.717 115.361 115.477 114.745 117.294 114.722C119.074 114.691 120.811 115.266 122.221 116.353C123.274 117.198 123.631 117.998 123.436 118.206Z" fill="#263238"/>
<path d="M109.117 135.001C109.039 135.131 107.973 134.598 106.687 133.136C104.996 131.143 103.907 128.711 103.547 126.122C103.174 123.487 103.534 120.8 104.587 118.355C105.406 116.516 106.264 115.638 106.381 115.755C106.498 115.872 105.939 116.906 105.374 118.706C104.629 121.036 104.407 123.502 104.724 125.927C105.074 128.308 105.964 130.578 107.324 132.564C108.383 134.059 109.234 134.838 109.117 135.001Z" fill="white"/>
<path d="M113.284 137.601C113.262 137.701 113.21 137.793 113.134 137.862C113.058 137.932 112.963 137.977 112.861 137.991C112.546 138.052 112.22 137.994 111.945 137.828C111.654 137.675 111.425 137.428 111.295 137.126C111.245 137.034 111.222 136.929 111.23 136.824C111.238 136.719 111.277 136.619 111.34 136.535C111.6 136.301 112.068 136.444 112.504 136.671C112.939 136.899 113.31 137.243 113.284 137.601Z" fill="white"/>
<path d="M92.0493 169.625C92.0493 169.625 98.289 153.09 99.1989 152.232C100.109 151.374 109.319 143.639 109.319 143.639C110.281 143.483 111.268 143.619 112.153 144.029C113.056 144.555 115.253 148.026 116.131 149.45C116.248 149.642 116.327 149.856 116.361 150.08C116.396 150.303 116.386 150.53 116.332 150.75L115.331 153.999C115.331 153.999 116.534 155.891 116.248 157.249C116.046 158.143 115.714 159.002 115.26 159.797C115.873 160.981 116.021 162.351 115.676 163.638C115.208 164.845 114.303 165.831 113.141 166.401C113.141 166.401 112.426 169.846 112.335 170.496C112.244 171.146 108.851 172.693 108.5 172.595C108.149 172.498 105.679 171.445 105.679 171.445C105.679 171.445 104.535 176.995 103.105 178.25C102.15 179.027 101.014 179.55 99.8034 179.771L98.0355 188.617L87.0706 180.245L92.0493 169.625Z" fill="#FFBF9D"/>
<path d="M107.167 164.646C108.183 164.89 109.18 165.205 110.151 165.589C111.148 165.897 112.129 166.257 113.089 166.668C112.056 166.501 111.045 166.222 110.073 165.836C109.071 165.527 108.098 165.129 107.167 164.646Z" fill="#FF9A6C"/>
<path d="M107.252 157.743C107.666 157.754 108.078 157.81 108.48 157.912C109.234 158.062 110.268 158.296 111.392 158.601C112.517 158.907 113.531 159.251 114.252 159.505C114.65 159.624 115.034 159.788 115.396 159.992C114.989 159.922 114.589 159.818 114.2 159.68C113.466 159.466 112.452 159.167 111.327 158.855C110.203 158.543 109.182 158.283 108.448 158.094C108.038 158.018 107.638 157.9 107.252 157.743Z" fill="#FF9A6C"/>
<path d="M106.063 152.368C106.515 152.303 106.973 152.292 107.428 152.336C108.518 152.377 109.604 152.499 110.677 152.7C111.757 152.897 112.821 153.171 113.862 153.518C114.304 153.641 114.729 153.815 115.13 154.038C114.688 153.957 114.254 153.842 113.83 153.694C113.024 153.473 111.88 153.187 110.645 152.953C109.41 152.719 108.247 152.596 107.395 152.518C106.948 152.5 106.503 152.45 106.063 152.368Z" fill="#FF9A6C"/>
<path d="M112.926 153.22C112.63 152.448 112.538 151.613 112.66 150.796C112.292 150.833 111.921 150.788 111.574 150.663C111.226 150.538 110.911 150.337 110.651 150.074C110.073 150.802 109.299 151.81 108.701 152.538L112.926 153.22Z" fill="#455A64"/>
<path d="M113.089 167.09L116.3 205.146C116.3 205.146 122.201 243.306 121.766 246.003C121.33 248.7 116.04 261.856 116.04 261.856C138.88 271.092 173.133 274.699 203.629 261.004L195.927 243.292L204.507 164.055L173.471 153.454C173.471 153.454 171.599 164.764 156.728 163.509C141.856 162.255 142.123 154.046 142.123 154.046L115.741 161.592L113.089 167.09Z" fill="#455A64"/>
<path d="M231.064 244.514C231.064 244.514 212.092 164.646 203.707 163.996L197.415 224.573L209.284 258.371C217.382 254.166 224.818 249.616 231.064 244.514Z" fill="#455A64"/>
<path d="M202.414 179.244C202.511 179.244 201.679 188.883 200.555 200.752C199.43 212.62 198.455 222.239 198.358 222.233C198.26 222.226 199.099 212.594 200.217 200.719C201.335 188.844 202.323 179.231 202.414 179.244Z" fill="#263238"/>
<path d="M113.498 178.556C113.54 178.693 113.564 178.835 113.57 178.978C113.609 179.29 113.661 179.693 113.719 180.2C113.836 181.299 114.005 182.8 114.207 184.685C114.61 188.481 115.149 193.719 115.812 199.491C116.475 205.263 117.164 210.495 117.71 214.265C117.99 216.124 118.211 217.638 118.36 218.73L118.536 219.946C118.566 220.086 118.579 220.23 118.575 220.375C118.526 220.24 118.491 220.1 118.471 219.959C118.406 219.647 118.328 219.25 118.23 218.756C118.029 217.71 117.769 216.189 117.463 214.304C116.852 210.534 116.163 205.315 115.468 199.53C114.772 193.745 114.298 188.481 113.953 184.711C113.797 182.839 113.667 181.312 113.576 180.207C113.544 179.706 113.511 179.297 113.492 178.985C113.475 178.842 113.478 178.698 113.498 178.556Z" fill="#263238"/>
<path d="M138.697 155.962L141.733 151.114L157.709 164.022L173.328 148.78L178.306 155.078L159.399 175.338L138.697 155.962Z" fill="#455A64"/>
<path d="M157.182 165.146C157.156 165.409 157.111 165.67 157.046 165.926C156.935 166.427 156.766 167.161 156.513 168.071C155.809 170.558 154.9 172.982 153.796 175.318L153.686 175.559L153.53 175.344C152.23 173.59 150.852 171.659 149.35 169.638C146.425 165.692 143.715 162.17 141.739 159.622L139.399 156.612L138.749 155.787C138.606 155.592 138.535 155.488 138.548 155.481C138.642 155.559 138.727 155.646 138.801 155.741L139.451 156.528C140.03 157.217 140.862 158.224 141.876 159.479C143.897 161.981 146.64 165.491 149.571 169.436C151.073 171.458 152.477 173.395 153.731 175.162H153.465C154.577 172.851 155.517 170.462 156.279 168.013C156.558 167.109 156.76 166.388 156.929 165.894C156.993 165.638 157.078 165.388 157.182 165.146Z" fill="#263238"/>
<path d="M177.539 155.93C177.504 156.031 177.456 156.127 177.396 156.216L176.942 157.002C176.532 157.652 175.928 158.647 175.128 159.817C173.054 162.862 170.76 165.751 168.264 168.461C166.607 170.255 164.956 171.874 163.461 173.245L163.351 173.343L163.247 173.239C161.755 171.708 160.512 169.953 159.561 168.039C159.223 167.337 158.989 166.739 158.846 166.375C158.766 166.175 158.702 165.969 158.658 165.758C158.771 165.94 158.865 166.134 158.937 166.336C159.106 166.719 159.366 167.272 159.724 167.954C160.714 169.828 161.976 171.545 163.468 173.05H163.253C164.735 171.672 166.367 170.047 168.011 168.26C170.495 165.559 172.807 162.704 174.933 159.713C175.752 158.562 176.389 157.62 176.831 156.963L177.331 156.197C177.461 156.008 177.526 155.924 177.539 155.93Z" fill="#263238"/>
<path d="M157.904 268.179C157.813 268.179 157.735 245.651 157.735 217.872C157.735 190.092 157.813 167.564 157.904 167.564C157.995 167.564 158.073 190.086 158.073 217.872C158.073 245.658 157.995 268.179 157.904 268.179Z" fill="#263238"/>
<path d="M165.853 237.208C165.853 237.299 159.353 235.909 151.398 234.069C143.442 232.23 136.994 230.696 137.02 230.605C137.046 230.514 143.52 231.905 151.476 233.738C159.431 235.571 165.872 237.117 165.853 237.208Z" fill="#263238"/>
<path d="M91.6463 230.65C91.5878 230.611 92.2963 229.825 93.0503 228.369C93.5034 227.515 93.8755 226.621 94.1617 225.697C94.87 223.433 95.0654 221.04 94.7337 218.691C94.6066 217.734 94.389 216.792 94.0837 215.876C93.5572 214.31 93.0113 213.426 93.0698 213.394C93.2317 213.575 93.3674 213.779 93.4727 213.998C93.6237 214.239 93.7562 214.491 93.8692 214.752C94.0368 215.092 94.1843 215.441 94.3112 215.798C94.657 216.719 94.9075 217.673 95.0587 218.645C95.2319 219.84 95.2754 221.049 95.1886 222.253C95.0756 223.455 94.836 224.643 94.4737 225.795C94.1659 226.731 93.763 227.632 93.2712 228.486C93.0859 228.814 92.8841 229.133 92.6668 229.441C92.5097 229.669 92.3382 229.886 92.1533 230.091C91.8348 230.475 91.6658 230.67 91.6463 230.65Z" fill="#263238"/>
<path d="M34.7347 162.399L37.3156 156.202C37.3594 156.102 37.4322 156.018 37.5244 155.96C37.6167 155.902 37.7242 155.873 37.8332 155.876C37.9424 155.882 38.0474 155.921 38.1336 155.988C38.2199 156.055 38.2834 156.147 38.3153 156.252L41.4421 166.561L43.8245 158.967C43.8572 158.861 43.9228 158.767 44.0119 158.699C44.101 158.632 44.2091 158.594 44.3208 158.592C44.4312 158.595 44.5382 158.63 44.6289 158.693C44.7196 158.756 44.7899 158.844 44.8313 158.946L46.1572 162.761H53.3255C54.7925 161.228 55.6453 159.209 55.722 157.089C55.7356 155.108 55.017 153.192 53.7041 151.709C52.3912 150.226 50.5766 149.28 48.6089 149.053C46.6411 148.826 44.659 149.334 43.043 150.48C41.4271 151.625 40.2913 153.327 39.8539 155.259C39.4035 153.341 38.2637 151.655 36.6513 150.522C35.0389 149.39 33.0664 148.889 31.109 149.116C29.1516 149.342 27.3457 150.281 26.035 151.752C24.7242 153.223 24 155.125 24 157.096C24.0788 159.06 24.8155 160.94 26.0916 162.435L34.7347 162.399Z" fill="#318181"/>
<path d="M45.7815 163.824C45.6712 163.825 45.5635 163.791 45.4733 163.727C45.3831 163.664 45.3149 163.574 45.2781 163.47L44.3564 160.818L41.9386 168.525C41.9041 168.634 41.8362 168.728 41.7444 168.796C41.6527 168.863 41.542 168.9 41.4281 168.901C41.314 168.9 41.2031 168.863 41.1122 168.794C41.0214 168.725 40.9555 168.628 40.9247 168.518L37.727 157.975L35.5999 163.136C35.5594 163.233 35.4915 163.315 35.4044 163.373C35.3174 163.431 35.2152 163.462 35.1106 163.463H26.9497C28.701 165.419 30.8848 167.149 32.5156 168.759C34.983 171.198 37.4008 173.722 39.9179 176.076C43.1439 172.893 46.3913 169.695 49.589 166.511C50.4753 165.625 51.4396 164.746 52.333 163.824H45.7815Z" fill="#318181"/>
</svg>
