<svg width="104" height="100" viewBox="0 0 104 100" fill="none" xmlns="http://www.w3.org/2000/svg">
<rect x="0.5" y="0.5" width="103" height="99" rx="49.5" fill="#318181"/>
<rect x="0.5" y="0.5" width="103" height="99" rx="49.5" stroke="#318181"/>
<mask id="path-2-inside-1_267_284" fill="white">
<path d="M40.7464 75L24 51.5189L26.4058 48.1503L40.7464 68.2581L71.5975 25L74 28.3733L40.7464 75Z"/>
</mask>
<path d="M40.7464 75L24 51.5189L26.4058 48.1503L40.7464 68.2581L71.5975 25L74 28.3733L40.7464 75Z" fill="white"/>
<path d="M40.7464 75L-14.6162 114.484L40.7464 192.111L96.109 114.484L40.7464 75ZM24 51.5189L-31.3364 11.9983L-59.5418 51.4913L-31.3626 91.0029L24 51.5189ZM26.4058 48.1503L81.7684 8.66638L26.4446 -68.9062L-28.9306 8.62971L26.4058 48.1503ZM40.7464 68.2581L-14.6162 107.742L40.7464 185.369L96.109 107.742L40.7464 68.2581ZM71.5975 25L126.986 -14.4473L71.6363 -92.1652L16.2349 -14.484L71.5975 25ZM74 28.3733L129.363 67.8573L157.502 28.401L129.389 -11.074L74 28.3733ZM96.109 35.516L79.3626 12.035L-31.3626 91.0029L-14.6162 114.484L96.109 35.516ZM79.3364 91.0396L81.7422 87.671L-28.9306 8.62971L-31.3364 11.9983L79.3364 91.0396ZM-28.9568 87.6343L-14.6162 107.742L96.109 28.7741L81.7684 8.66638L-28.9568 87.6343ZM96.109 107.742L126.96 64.484L16.2349 -14.484L-14.6162 28.7741L96.109 107.742ZM16.2088 64.4473L18.6113 67.8206L129.389 -11.074L126.986 -14.4473L16.2088 64.4473ZM18.6374 -11.1106L-14.6162 35.516L96.109 114.484L129.363 67.8573L18.6374 -11.1106Z" fill="white" mask="url(#path-2-inside-1_267_284)"/>
</svg>
