<svg width="15" height="15" viewBox="0 0 15 15" fill="none" xmlns="http://www.w3.org/2000/svg">
<path d="M7.49996 0L4.61535 1.73077L7.49996 3.46154V2.30769C10.3586 2.30769 12.6923 4.64135 12.6923 7.5C12.6923 10.3587 10.3586 12.6923 7.49996 12.6923C4.64131 12.6923 2.30765 10.3587 2.30765 7.5C2.30765 6.08481 2.81708 4.86346 3.74996 3.93L2.93881 3.11942C1.79419 4.26346 1.15381 5.79981 1.15381 7.5C1.15381 10.9875 4.01246 13.8462 7.49996 13.8462C10.9875 13.8462 13.8461 10.9875 13.8461 7.5C13.8461 4.0125 10.9875 1.15385 7.49996 1.15385V0ZM6.29189 3.78635L5.2465 4.29115L6.70669 7.17577C6.66194 7.27818 6.63745 7.38828 6.63458 7.5V7.53635L4.77746 9.39231L5.60766 10.2231L7.46477 8.36596H7.49996C7.72948 8.36596 7.94959 8.27479 8.11188 8.1125C8.27417 7.9502 8.36535 7.73009 8.36535 7.50058C8.36535 7.1025 8.10054 6.77192 7.73419 6.67096L6.29189 3.78635Z" fill="#4D4D4D"/>
</svg>
