<svg width="25" height="25" viewBox="0 0 25 25" fill="none" xmlns="http://www.w3.org/2000/svg">
<path d="M17.1875 11.4587C19.1979 11.4587 20.8333 9.82324 20.8333 7.81283C20.8333 5.80241 19.1979 4.16699 17.1875 4.16699C15.177 4.16699 13.5416 5.80241 13.5416 7.81283V9.37533H11.4583V7.81283C11.4583 5.80241 9.82288 4.16699 7.81246 4.16699C5.80204 4.16699 4.16663 5.80241 4.16663 7.81283C4.16663 9.82324 5.80204 11.4587 7.81246 11.4587H9.37496V13.542H7.81246C5.80204 13.542 4.16663 15.1774 4.16663 17.1878C4.16663 19.1982 5.80204 20.8337 7.81246 20.8337C9.82288 20.8337 11.4583 19.1982 11.4583 17.1878V15.6253H13.5416V17.1878C13.5416 19.1982 15.177 20.8337 17.1875 20.8337C19.1979 20.8337 20.8333 19.1982 20.8333 17.1878C20.8333 15.1774 19.1979 13.542 17.1875 13.542H15.625V11.4587H17.1875ZM15.625 7.81283C15.6397 7.4083 15.8108 7.02527 16.1022 6.7443C16.3936 6.46334 16.7827 6.30635 17.1875 6.30635C17.5923 6.30635 17.9813 6.46334 18.2727 6.7443C18.5641 7.02527 18.7352 7.4083 18.75 7.81283C18.75 8.67324 18.0489 9.37533 17.1875 9.37533H15.625V7.81283ZM9.37496 17.1878C9.37496 18.0482 8.67392 18.7503 7.81246 18.7503C6.951 18.7503 6.24996 18.0482 6.24996 17.1878C6.24996 16.3253 6.951 15.6253 7.81246 15.6253H9.37496V17.1878ZM9.37496 9.37533H7.81246C7.50313 9.37553 7.20069 9.28398 6.94341 9.11226C6.68613 8.94053 6.48556 8.69635 6.36709 8.41061C6.24862 8.12486 6.21757 7.8104 6.27787 7.50701C6.33816 7.20361 6.4871 6.92492 6.70583 6.70619C6.92455 6.48747 7.20325 6.33853 7.50664 6.27823C7.81004 6.21794 8.1245 6.24899 8.41024 6.36746C8.69598 6.48593 8.94016 6.68649 9.11189 6.94378C9.28361 7.20106 9.37516 7.5035 9.37496 7.81283V9.37533ZM13.5416 13.542H11.4583V11.4587H13.5416V13.542ZM17.1875 15.6253C17.592 15.6401 17.975 15.8112 18.256 16.1026C18.5369 16.394 18.6939 16.783 18.6939 17.1878C18.6939 17.5926 18.5369 17.9816 18.256 18.2731C17.975 18.5645 17.592 18.7356 17.1875 18.7503C16.326 18.7503 15.625 18.0482 15.625 17.1878V15.6253H17.1875Z" fill="#318181"/>
</svg>
