<svg width="25" height="25" viewBox="0 0 25 25" fill="none" xmlns="http://www.w3.org/2000/svg">
<circle cx="12.4449" cy="12.4449" r="12.2222" fill="#6688CC"/>
<path fill-rule="evenodd" clip-rule="evenodd" d="M13.6673 7.55621C13.6673 6.88119 13.1201 6.33398 12.4451 6.33398C11.7701 6.33398 11.2229 6.88119 11.2229 7.55621L11.2229 11.2229H7.55621C6.88119 11.2229 6.33398 11.7701 6.33398 12.4451C6.33398 13.1201 6.88119 13.6673 7.55621 13.6673H11.2229L11.2229 17.334C11.2229 18.009 11.7701 18.5562 12.4451 18.5562C13.1201 18.5562 13.6673 18.009 13.6673 17.334V13.6673H17.334C18.009 13.6673 18.5562 13.1201 18.5562 12.4451C18.5562 11.7701 18.009 11.2229 17.334 11.2229H13.6673V7.55621Z" fill="white"/>
</svg>
