<svg width="20" height="21" viewBox="0 0 20 21" fill="none" xmlns="http://www.w3.org/2000/svg">
<path d="M20 10.2539C20 15.7768 15.5228 20.2539 10 20.2539C4.47715 20.2539 0 15.7768 0 10.2539C0 4.73106 4.47715 0.253906 10 0.253906C15.5228 0.253906 20 4.73106 20 10.2539Z" fill="#F0F4FA"/>
<path fill-rule="evenodd" clip-rule="evenodd" d="M11 6.25391C11 5.70162 10.5523 5.25391 10 5.25391C9.44772 5.25391 9 5.70162 9 6.25391L9 9.25391H6C5.44772 9.25391 5 9.70162 5 10.2539C5 10.8062 5.44772 11.2539 6 11.2539H9L9 14.2539C9 14.8062 9.44771 15.2539 10 15.2539C10.5523 15.2539 11 14.8062 11 14.2539L11 11.2539H14C14.5523 11.2539 15 10.8062 15 10.2539C15 9.70162 14.5523 9.25391 14 9.25391H11L11 6.25391Z" fill="#3B5D8F"/>
</svg>
