<svg width="14" height="20" viewBox="0 0 14 20" fill="none" xmlns="http://www.w3.org/2000/svg">
<path d="M12.7885 7.90299C12.2003 7.45356 11.4772 7.21662 10.7371 7.23078H7.44172V2.69773C7.44172 2.01229 7.16943 1.35492 6.68475 0.870247C6.20008 0.38557 5.54271 0.113281 4.85728 0.113281C4.29042 0.11329 3.73929 0.299724 3.28884 0.64385C2.83839 0.987977 2.51361 1.47069 2.36457 2.01761L0.379577 9.29328C0.343024 9.42919 0.324413 9.5693 0.324219 9.71005V18.3025C0.324219 18.7219 0.490859 19.1242 0.787479 19.4209C1.0841 19.7175 1.4864 19.8841 1.90589 19.8841H9.47733C10.2012 19.8841 10.9031 19.6358 11.466 19.1807C12.0288 18.7256 12.4186 18.0913 12.5703 17.3835L13.9266 11.0568C14.0514 10.4773 14.011 9.87437 13.8098 9.31674C13.6086 8.75911 13.2547 8.26924 12.7885 7.90299Z" fill="#3B5D8F"/>
</svg>
