<svg width="14" height="20" viewBox="0 0 14 20" fill="none" xmlns="http://www.w3.org/2000/svg">
<path d="M1.06935 9.47879L3.05367 2.20561L3.05372 2.20542C3.16156 1.80971 3.39655 1.46044 3.72247 1.21145C4.04838 0.962467 4.44714 0.827575 4.85728 0.827567L1.06935 9.47879ZM1.06935 9.47879C1.06926 9.47915 1.06916 9.4795 1.06906 9.47986C1.04892 9.55513 1.03865 9.6327 1.0385 9.71063M1.06935 9.47879L1.0385 9.71063M10.7371 7.9452V7.94507H7.44172C7.04723 7.94507 6.72743 7.62527 6.72743 7.23078V2.69773C6.72743 2.20173 6.5304 1.72605 6.17968 1.37532C5.82896 1.0246 5.35328 0.82757 4.85729 0.827567L10.7371 7.9452ZM10.7371 7.9452L10.7508 7.94494M10.7371 7.9452L10.7508 7.94494M10.7508 7.94494C11.3279 7.93389 11.8918 8.1181 12.351 8.46762C12.7101 8.75085 12.9826 9.12896 13.1379 9.55918C13.2937 9.99089 13.325 10.4577 13.2283 10.9064L13.2281 10.9071L11.8719 17.2338L11.8718 17.2339M10.7508 7.94494L11.8718 17.2339M11.8718 17.2339C11.7544 17.7818 11.4527 18.2729 11.0169 18.6253C10.5811 18.9776 10.0377 19.1698 9.47733 19.1698C9.47731 19.1698 9.4773 19.1698 9.47728 19.1698H1.90589C1.67584 19.1698 1.45522 19.0785 1.29256 18.9158L0.78828 19.4201M11.8718 17.2339L0.78828 19.4201M0.78828 19.4201L1.29255 18.9158C1.12989 18.7531 1.0385 18.5325 1.0385 18.3025V9.71063M0.78828 19.4201L1.0385 9.71063" stroke="#3B5D8F" stroke-width="1.42857" stroke-linejoin="round"/>
</svg>
