<svg width="16" height="16" viewBox="0 0 16 16" fill="none" xmlns="http://www.w3.org/2000/svg">
<rect width="16" height="16" rx="8" fill="#A3B8E0"/>
<path d="M3.69977 11.9H4.69977C5.08577 11.9 5.39977 11.586 5.39977 11.2V6.6C5.39977 6.214 5.08577 5.9 4.69977 5.9H3.69977C3.31377 5.9 2.99977 6.214 2.99977 6.6V11.2C2.99977 11.586 3.31377 11.9 3.69977 11.9ZM10.5522 12C11.3322 12 11.9962 11.44 12.1282 10.672L12.5762 8.072C12.6159 7.84229 12.605 7.60667 12.5441 7.38164C12.4833 7.1566 12.3739 6.9476 12.2238 6.76926C12.0737 6.59092 11.8863 6.44757 11.675 6.34923C11.4636 6.2509 11.2333 6.19997 11.0002 6.2H9.11217C9.11217 6.2 9.41217 5.6 9.41217 4.6C9.41217 3.4 8.51217 3 8.11217 3C7.71217 3 7.51217 3.2 7.51217 4.2C7.51217 5.1504 6.59177 5.9152 5.99977 6.3092V11.2644C6.64017 11.5608 7.92217 12 9.91217 12H10.5522Z" fill="#3B5D8F"/>
</svg>
