<svg width="16" height="16" viewBox="0 0 16 16" fill="none" xmlns="http://www.w3.org/2000/svg">
<path fill-rule="evenodd" clip-rule="evenodd" d="M8 0C3.58172 0 0 3.58172 0 8C0 12.4183 3.58172 16 8 16C12.4183 16 16 12.4183 16 8C16 3.58172 12.4183 0 8 0ZM4.69977 11.9H3.69977C3.31377 11.9 2.99977 11.586 2.99977 11.2V6.6C2.99977 6.214 3.31377 5.9 3.69977 5.9H4.69977C5.08577 5.9 5.39977 6.214 5.39977 6.6V11.2C5.39977 11.586 5.08577 11.9 4.69977 11.9ZM12.1282 10.672C11.9962 11.44 11.3322 12 10.5522 12H9.91217C7.92217 12 6.64017 11.5608 5.99977 11.2644V6.3092C6.59177 5.9152 7.51217 5.1504 7.51217 4.2C7.51217 3.2 7.71217 3 8.11217 3C8.51217 3 9.41217 3.4 9.41217 4.6C9.41217 5.6 9.11217 6.2 9.11217 6.2H11.0002C11.2333 6.19997 11.4636 6.2509 11.675 6.34923C11.8863 6.44757 12.0737 6.59092 12.2238 6.76926C12.3739 6.9476 12.4833 7.1566 12.5441 7.38164C12.605 7.60667 12.6159 7.84229 12.5762 8.072L12.1282 10.672Z" fill="#A3B8E0"/>
</svg>
