<svg width="10" height="13" viewBox="0 0 10 13" fill="none" xmlns="http://www.w3.org/2000/svg">
<path d="M5.04432 5.41836C5.53087 5.41915 6.00672 5.27559 6.41165 5.00586C6.81659 4.73612 7.13241 4.35233 7.31915 3.90304C7.5059 3.45375 7.55517 2.95917 7.46073 2.48187C7.36629 2.00457 7.1324 1.56602 6.78863 1.22169C6.44487 0.877371 6.00669 0.64276 5.52955 0.547547C5.05241 0.452334 4.55774 0.5008 4.10815 0.686812C3.65857 0.872823 3.27426 1.18802 3.00386 1.59252C2.73347 1.99701 2.58914 2.47263 2.58914 2.95918C2.58913 3.6107 2.84768 4.2356 3.308 4.69667C3.76832 5.15774 4.3928 5.4173 5.04432 5.41836ZM5.04432 1.30373C5.37286 1.30294 5.69425 1.39969 5.96776 1.58173C6.24127 1.76377 6.45458 2.0229 6.58068 2.32629C6.70677 2.62967 6.73997 2.96366 6.67607 3.28594C6.61216 3.60821 6.45404 3.90426 6.22172 4.13658C5.9894 4.3689 5.69335 4.52703 5.37107 4.59093C5.0488 4.65483 4.71481 4.62163 4.41142 4.49554C4.10804 4.36944 3.84891 4.15613 3.66687 3.88262C3.48483 3.60911 3.38808 3.28773 3.38887 2.95918C3.38992 2.52045 3.56468 2.09999 3.87491 1.78977C4.18513 1.47954 4.60559 1.30479 5.04432 1.30373ZM9.5948 10.8246C9.11496 12.0601 6.93169 12.5 5.04432 12.5C3.15695 12.5 0.973674 12.0601 0.493834 10.8246C0.237919 10.1648 0.465843 9.1851 1.08964 8.26941C1.52355 7.61444 2.11031 7.07489 2.79929 6.69731C3.48827 6.31973 4.25877 6.11546 5.04432 6.10213C5.97143 6.12243 6.87369 6.4057 7.64604 6.91895C8.41839 7.43219 9.02903 8.1543 9.40686 9.00117C9.43384 9.04967 9.45043 9.10326 9.45556 9.15852C9.4607 9.21379 9.45428 9.26952 9.4367 9.32216C9.41912 9.37481 9.39078 9.42322 9.35347 9.46431C9.31616 9.50541 9.27071 9.53828 9.22 9.56085C9.16929 9.58342 9.11444 9.59518 9.05894 9.59539C9.00344 9.59561 8.9485 9.58426 8.89762 9.56208C8.84674 9.5399 8.80104 9.50737 8.76342 9.46657C8.7258 9.42576 8.69708 9.37757 8.67911 9.32506C8.35877 8.62291 7.84884 8.0241 7.20669 7.596C6.56454 7.1679 5.81566 6.92751 5.04432 6.90187C4.38928 6.91514 3.74733 7.08773 3.17395 7.40473C2.60057 7.72173 2.11301 8.17359 1.75341 8.72126C1.21759 9.501 1.10963 10.2088 1.23759 10.5367C1.5015 11.2124 3.10097 11.7003 5.04432 11.7003C6.98767 11.7003 8.58714 11.2124 8.85105 10.5367C8.89436 10.4455 8.97053 10.3741 9.06429 10.3368C9.15805 10.2994 9.26246 10.2989 9.35657 10.3354C9.45068 10.3718 9.52754 10.4425 9.57172 10.5332C9.61591 10.6239 9.62415 10.728 9.5948 10.8246Z" fill="#B5C6E6" stroke="#B5C6E6" stroke-width="0.4"/>
</svg>
