<svg width="40" height="39" viewBox="0 0 40 39" fill="none" xmlns="http://www.w3.org/2000/svg">
<path d="M35.9004 0.000335693H25.7071C23.5433 0.000335693 21.7891 1.75454 21.7891 3.91842V9.0061C21.7891 11.17 23.5433 12.9242 25.7071 12.9242H30.8294L33.2814 15.726C34.0086 16.557 35.3774 16.0427 35.3774 14.9384V12.9243H35.9004C38.0643 12.9243 39.8185 11.1701 39.8185 9.00617V3.91834C39.8185 1.75446 38.0643 0.000335693 35.9004 0.000335693Z" fill="#9CAEC6"/>
<path d="M27.569 12.9243H25.7071C23.5434 12.9243 21.7891 11.1699 21.7891 9.00625V3.91834C21.7891 1.75469 23.5434 0.000335693 25.7071 0.000335693H27.569C25.4053 0.000335693 23.651 1.75469 23.651 3.91834V9.00625C23.651 11.1699 25.4053 12.9243 27.569 12.9243Z" fill="#5E81AB"/>
<path d="M4.9987 17.7036H18.0034C20.7641 17.7036 23.0021 19.9416 23.0021 22.7022V29.1932C23.0021 31.9539 20.7641 34.1919 18.0034 34.1919H11.4685L8.34022 37.7665C7.41234 38.8267 5.66595 38.1704 5.66595 36.7615V34.1919H4.9987C2.23802 34.1919 0 31.9539 0 29.1932V22.7022C0 19.9415 2.23802 17.7036 4.9987 17.7036Z" fill="#9CAEC6"/>
<path d="M8.28069 37.8314C7.3393 38.7984 5.66611 38.1408 5.66611 36.7619V34.192H4.9987C2.23818 34.192 0 31.9538 0 29.1933V22.7022C0 19.9417 2.23818 17.7036 4.99862 17.7036H7.18094C4.4198 17.7036 2.18232 19.9417 2.18232 22.7022V29.1933C2.18232 31.9538 4.41987 34.192 7.18094 34.192H7.84835V36.7619C7.84843 37.2014 8.01859 37.5679 8.28069 37.8314Z" fill="#5E81AB"/>
<path d="M28.4307 20.8466H36.7874C38.5613 20.8466 39.9994 22.2847 39.9994 24.0586V28.2296C39.9994 30.0036 38.5613 31.4417 36.7874 31.4417H32.5881L30.578 33.7387C29.9817 34.42 28.8596 33.9983 28.8596 33.0929V31.4418H28.4308C26.6569 31.4418 25.2188 30.0036 25.2188 28.2297V24.0587C25.2187 22.2847 26.6568 20.8466 28.4307 20.8466Z" fill="#9CAEC6"/>
<path d="M30.5399 33.7805C29.9349 34.4019 28.8597 33.9793 28.8597 33.0932V31.4418H28.4308C26.657 31.4418 25.2188 30.0036 25.2188 28.2298V24.0586C25.2188 22.2848 26.657 20.8466 28.4308 20.8466H29.8332C28.0589 20.8466 26.6211 22.2847 26.6211 24.0586V28.2298C26.6211 30.0036 28.0589 31.4418 29.8332 31.4418H30.2621V33.0932C30.2621 33.3756 30.3714 33.6112 30.5399 33.7805Z" fill="#5E81AB"/>
<path d="M26.6885 8.04556H12.2719C9.21146 8.04556 6.73047 10.5266 6.73047 13.587V20.7827C6.73047 23.8431 9.21146 26.3241 12.2719 26.3241H19.5163L22.9842 30.2868C24.0128 31.4622 25.9488 30.7347 25.9488 29.1728V26.3241H26.6885C29.7489 26.3241 32.2299 23.8431 32.2299 20.7827V13.587C32.23 10.5266 29.749 8.04556 26.6885 8.04556Z" fill="#F9F6F9"/>
<path d="M14.9052 26.3242H12.2718C9.21169 26.3242 6.73047 23.843 6.73047 20.7828V13.5869C6.73047 10.5268 9.21161 8.04556 12.2718 8.04556H14.9052C11.8451 8.04556 9.36388 10.5268 9.36388 13.5869V20.7828C9.36388 23.843 11.8451 26.3242 14.9052 26.3242Z" fill="#5E81AB"/>
<path d="M12.0705 0.00012207H4.00887C2.29748 0.00012207 0.910156 1.38745 0.910156 3.09884V7.12254C0.910156 8.83393 2.29748 10.2213 4.00887 10.2213H8.05992L9.99912 12.4372C10.5743 13.0944 11.6569 12.6876 11.6569 11.8142V10.2213H12.0705C13.7819 10.2213 15.1692 8.83393 15.1692 7.12254V3.09884C15.1692 1.38745 13.7819 0.00012207 12.0705 0.00012207Z" fill="#9CAEC6"/>
<path d="M5.48136 10.2216H4.00879C2.29756 10.2216 0.910156 8.83407 0.910156 7.12291V3.09897C0.910156 1.38774 2.29764 0.000335693 4.00879 0.000335693H5.48136C3.77012 0.000335693 2.38272 1.38782 2.38272 3.09897V7.12284C2.38264 8.83407 3.77012 10.2216 5.48136 10.2216Z" fill="#5E81AB"/>
<path d="M23.9611 19.7009L23.375 19.1147C23.8383 18.4697 24.1123 17.6801 24.1123 16.8271C24.1123 14.6595 22.3488 12.896 20.1811 12.896C18.0135 12.896 16.25 14.6595 16.25 16.8271C16.25 18.9947 18.0135 20.7582 20.1811 20.7582C21.061 20.7582 21.8744 20.4675 22.5302 19.9772L23.1074 20.5545C23.2253 20.6724 23.3798 20.7313 23.5343 20.7313C23.6887 20.7313 23.8433 20.6723 23.9611 20.5545C24.1968 20.3188 24.1968 19.9366 23.9611 19.7009ZM20.1811 19.551C18.6791 19.551 17.4572 18.329 17.4572 16.8271C17.4572 15.3252 18.6791 14.1032 20.1811 14.1032C21.683 14.1032 22.9049 15.3252 22.9049 16.8271C22.9049 17.3463 22.7588 17.832 22.5056 18.2454L21.832 17.5719C21.5963 17.3361 21.2142 17.3361 20.9784 17.5719C20.7426 17.8076 20.7426 18.1898 20.9783 18.4255L21.6633 19.1105C21.2365 19.3886 20.7275 19.551 20.1811 19.551Z" fill="#5E81AB"/>
</svg>
