<svg width="128" height="128" viewBox="0 0 128 128" fill="none" xmlns="http://www.w3.org/2000/svg">
<g clip-path="url(#clip0_2727_31132)">
<path d="M31.1058 40.5647C33.1852 40.5647 35.318 40.5647 37.3975 40.8846C40.9574 41.0863 44.4562 41.8979 47.7414 43.284C48.1419 43.4827 48.6031 43.5214 49.0311 43.3924C49.4592 43.2634 49.822 42.9762 50.046 42.5893C50.27 42.2024 50.3384 41.7448 50.2371 41.3093C50.1359 40.8738 49.8727 40.4932 49.501 40.2448C46.5632 38.1086 43.2548 36.5358 39.7435 35.606C36.7438 34.7734 33.6098 34.5379 30.5193 34.9129C26.9695 35.4623 23.531 36.5785 20.3353 38.2187C19.954 38.3632 19.6423 38.648 19.4639 39.0146C19.2855 39.3813 19.2539 39.8023 19.3755 40.1915C19.5201 40.5851 19.8134 40.9062 20.1923 41.0857C20.5713 41.2652 21.0056 41.2887 21.4017 41.1513C24.6035 40.5866 27.8593 40.3898 31.1058 40.5647Z" fill="#3B5D8F"/>
<path d="M50.7271 54.0551C46.8092 50.5021 41.7743 48.4278 36.4908 48.1898C35.0123 48.1397 33.5322 48.211 32.0653 48.4031C28.6211 49.0485 25.2714 50.1232 22.0946 51.6022C21.7502 51.7569 21.4743 52.0321 21.3189 52.376C21.1634 52.72 21.1391 53.1089 21.2506 53.4695C21.3621 53.83 21.6016 54.1378 21.924 54.3335C22.2465 54.5298 22.6295 54.6018 23.001 54.5351C26.2331 54.0871 29.4969 53.909 32.7585 54.0018H38.9968C42.437 54.1367 45.805 55.0284 48.8609 56.614C49.0366 56.8018 49.2511 56.9484 49.4896 57.0439C49.728 57.1399 49.9845 57.182 50.241 57.1682C50.4975 57.1538 50.7478 57.0839 50.9744 56.9628C51.201 56.8418 51.3982 56.6722 51.5524 56.4668C51.7065 56.2615 51.8138 56.0247 51.8666 55.773C51.9195 55.5218 51.9166 55.2615 51.8583 55.0114C51.8 54.7612 51.6876 54.5271 51.529 54.325C51.3704 54.1228 51.1695 53.958 50.9404 53.8418L50.7271 54.0551Z" fill="#3B5D8F"/>
<path d="M36.7582 61.6263C35.2354 61.4397 33.6955 61.4397 32.1728 61.6263C28.7035 62.0967 25.3454 63.1799 22.2554 64.8253C21.8916 64.9719 21.5971 65.2514 21.4316 65.6071C21.266 65.9629 21.2418 66.3677 21.3638 66.7405C21.4858 67.1133 21.7449 67.4258 22.0886 67.6146C22.4324 67.8039 22.835 67.8551 23.2151 67.7581C26.2333 67.1618 29.319 66.9826 32.386 67.2247H36.1184C37.3548 67.3239 38.5837 67.5021 39.7974 67.7581C42.6916 68.4482 45.4738 69.5431 48.0619 71.0103C48.2434 71.1453 48.4499 71.2418 48.6692 71.2962C48.8885 71.3501 49.1164 71.3602 49.3396 71.3255C49.5628 71.2909 49.7769 71.2119 49.9694 71.0941C50.162 70.9757 50.3292 70.8205 50.4613 70.6375C50.6017 70.4509 50.7023 70.2375 50.757 70.0109C50.8117 69.7842 50.8193 69.5485 50.7793 69.3186C50.7393 69.0887 50.6526 68.8695 50.5245 68.6743C50.3965 68.4797 50.2298 68.3127 50.0347 68.1847C47.4106 65.8599 44.3716 64.0514 41.0771 62.8525C39.6745 62.3234 38.2298 61.9127 36.7582 61.6263Z" fill="#3B5D8F"/>
<path d="M82.8258 30.1676C83.237 32.2636 83.5218 34.3824 83.6786 36.5126C84.4253 45.4169 83.6786 54.5343 85.2253 63.1721C85.2253 63.1721 87.5709 66.4249 90.0237 64.3988C91.1783 63.4441 92.2818 62.4297 93.3298 61.3593C93.9895 60.4836 94.5778 59.5567 95.0893 58.5865C95.8146 57.2601 96.4557 55.8884 97.0087 54.4815C98.2343 55.7977 99.357 57.2057 100.368 58.6932C100.368 58.6932 103.194 62.426 103.407 62.6388C103.86 63.1785 104.479 63.5535 105.167 63.7055C105.866 63.8905 106.61 63.7999 107.245 63.4527C107.88 63.1055 108.357 62.5279 108.579 61.8393C108.922 60.9684 109.138 60.0527 109.219 59.1199V54.2681L108.686 40.085C106.713 21.2099 106.713 18.7572 105.433 16.1446C104.961 15.2018 104.302 14.3653 103.495 13.6868C102.688 13.0083 101.751 12.502 100.741 12.1989C99.2311 11.6941 97.6365 11.4947 96.0487 11.6124C94.0802 11.6706 92.1186 11.8846 90.1837 12.2523C89.6503 12.2523 78.7735 14.7583 77.7602 15.3981C77.5863 15.4972 77.4338 15.6303 77.3122 15.7895C77.1906 15.9487 77.1026 16.1307 77.0525 16.3248C77.0029 16.5188 76.9927 16.7209 77.0226 16.9189C77.0525 17.117 77.1223 17.3069 77.2269 17.4776C79.4781 21.5273 81.3522 25.7751 82.8258 30.1676ZM81.4391 17.8508L90.717 15.878C92.4925 15.7686 94.2733 15.7686 96.0487 15.878C97.0663 15.8325 98.0829 15.9959 99.0349 16.3579C99.5117 16.5096 99.9527 16.7584 100.329 17.0888C100.705 17.4191 101.009 17.8238 101.221 18.2773C101.806 20.2852 102.076 22.3717 102.02 24.4624L103.14 40.7248V53.2015C102.398 52.229 101.597 51.303 100.741 50.4289C99.5453 49.2534 98.1789 48.2648 96.6887 47.4964C96.2877 47.3102 95.8509 47.2138 95.4093 47.2138C94.9671 47.2138 94.5303 47.3102 94.1293 47.4964C93.5565 47.7069 93.0695 48.1004 92.7431 48.6161C92.5261 49.19 92.3479 49.7779 92.2098 50.3756L91.4098 52.5084C90.9837 53.5215 90.557 54.5876 90.077 55.6009L89.3309 56.9871C88.4242 50.1623 88.4242 43.1242 87.4642 36.246C87.1927 33.9622 86.765 31.6998 86.1847 29.4744C85.685 27.5148 85.0066 25.6051 84.1586 23.7692C83.2525 21.8498 82.1858 19.9303 81.0663 18.0641L81.4391 17.8508Z" fill="#3B5D8F"/>
<path d="M127.453 54.5351C126.867 49.2031 125.961 43.8711 125.161 38.9658C124.671 35.1341 123.85 31.3522 122.708 27.662C122.121 25.6484 120.884 23.886 119.189 22.65C117.231 21.5458 115.075 20.8391 112.844 20.5706C112.471 20.55 112.097 20.55 111.724 20.5706C108.259 20.5706 108.739 23.8764 111.724 24.4629H112.098C113.73 24.7602 115.289 25.3762 116.683 26.2757C117.732 27.4856 118.367 28.9987 118.496 30.5946C119.136 33.9004 119.189 37.6861 119.455 40.0321C120.149 44.6709 120.842 49.8962 121.535 55.2812C122.228 60.6668 122.762 65.4119 122.922 70.4775C123.158 75.5943 122.872 80.7212 122.068 85.7799C115.989 83.7538 109.597 82.8327 103.193 83.061C96.5488 83.2647 89.9568 84.3036 83.5717 86.1532C81.5488 86.7276 79.6123 87.5703 77.8133 88.6594C75.5195 90.054 73.312 91.5858 71.2016 93.245L69.5488 94.3111C69.5488 89.6194 69.9755 83.6471 69.9221 77.7287V69.6775C69.9221 66.9586 69.4955 64.3458 69.1755 61.6796C68.3227 54.6418 66.9893 48.0834 65.9232 43.2313C65.9248 43.0048 65.8731 42.781 65.7723 42.5783C65.6715 42.3755 65.5237 42.1994 65.3419 42.0643C65.16 41.9292 64.9488 41.8389 64.7259 41.8009C64.5024 41.7627 64.2731 41.7779 64.0571 41.845C63.8597 41.8711 63.6704 41.9362 63.4987 42.0365C63.3275 42.1368 63.1776 42.2704 63.0587 42.4292C62.9392 42.5881 62.8533 42.7692 62.8048 42.9619C62.7563 43.1545 62.7472 43.3549 62.7771 43.5512C63.2037 48.4566 63.2571 55.0151 63.5237 62.053C63.5237 64.6124 63.5237 67.3847 63.9504 69.9442C64.3771 72.5036 64.3237 75.2764 64.5899 77.8887C65.0699 83.5938 65.6032 88.926 65.9232 93.405C64.6432 92.4983 63.1504 91.4322 61.1776 90.2588C59.1435 89.0242 57.0229 87.9367 54.8325 87.0066C47.2517 83.7895 38.9705 82.5778 30.7857 83.4876C23.4756 84.4434 16.4268 86.8354 10.0444 90.5255C10.5998 85.8908 10.8314 81.2231 10.7375 76.5559C10.6483 71.373 10.167 66.2039 9.29797 61.0935L5.99216 37.2062C5.99216 36.1399 6.57867 35.4467 7.43179 34.8068C8.85819 33.8209 10.4209 33.0484 12.0706 32.5141C20.0613 29.4836 28.5313 27.9124 37.0773 27.8753C45.6488 27.9835 54.1131 29.7961 61.9776 33.2073C62.3947 33.3981 62.8704 33.4155 63.3003 33.2555C63.7307 33.0956 64.0795 32.7713 64.2704 32.3541C64.4613 31.937 64.4784 31.4611 64.3184 31.0311C64.1584 30.6011 63.8341 30.2523 63.4171 30.0614C55.3131 25.9691 46.4591 23.5741 37.3972 23.0233C28.2263 22.6189 19.0601 23.9207 10.3643 26.8623C7.56235 27.6945 4.97756 29.1325 2.79299 31.0745C1.78064 31.9093 0.999147 32.9897 0.523094 34.2125C0.0470446 35.4353 -0.107674 36.7597 0.0737056 38.0593C0.0737056 39.1791 1.03345 44.4577 1.9932 50.0028C2.79299 54.5884 3.69942 59.2802 4.39257 62.1063C5.50491 66.933 6.27115 71.8332 6.68528 76.7692C7.05856 81.8343 6.68528 93.4583 6.68528 93.8311C6.47419 95.9783 6.98043 98.1346 8.12491 99.9628C8.75653 100.93 9.59691 101.744 10.5842 102.344C11.5715 102.943 12.6806 103.314 13.8301 103.429C15.0654 103.639 16.3272 103.639 17.5625 103.429C19.9085 102.949 22.4145 101.882 24.5473 101.563C27.5031 101.232 30.4785 101.107 33.4516 101.19C36.3563 101.209 39.2511 101.531 42.0893 102.149C46.9365 102.812 51.335 105.337 54.3525 109.187C55.8741 111.435 57.8107 113.371 60.0581 114.892C62.272 116.05 64.7648 116.567 67.256 116.385C70.5152 116.408 73.7264 115.601 76.5872 114.039C80.1104 111.502 83.3781 108.626 86.3445 105.455C87.4811 104.433 88.8021 103.637 90.2368 103.109C92.6448 102.143 95.1461 101.428 97.7013 100.976C100.281 100.433 102.905 100.129 105.539 100.07C108.169 100.031 110.795 100.263 113.377 100.763C113.857 100.763 117.323 102.096 118.709 102.309C119.111 102.391 119.526 102.38 119.923 102.279C120.32 102.177 120.689 101.987 121.002 101.723C122.151 100.445 122.974 98.9084 123.401 97.2439C125.55 88.4775 127.065 79.5682 127.933 70.5842C128.105 65.2295 127.945 59.8695 127.453 54.5351ZM119.935 95.8572C119.734 96.4546 119.466 97.0268 119.136 97.5639C117.593 96.9196 115.953 96.541 114.284 96.4439C111.42 95.7468 108.486 95.3714 105.539 95.3244C102.613 95.2796 99.6885 95.4759 96.7952 95.9106C93.9168 96.3447 91.0805 97.0226 88.3173 97.9367C86.3675 98.6855 84.5632 99.7682 82.9851 101.136C80.1979 103.944 77.1643 106.495 73.9211 108.761C71.8832 109.827 69.6085 110.359 67.3093 110.307C62.5637 110.307 61.4443 108.174 59.4715 105.775C57.6069 103.264 55.2016 101.205 52.4333 99.75C49.5742 98.2818 46.4944 97.2914 43.3157 96.8172C40.1236 96.3276 36.8915 96.149 33.6649 96.2839C30.462 96.3735 27.271 96.7122 24.1207 97.2972C21.9346 97.7239 19.4286 98.95 17.0292 99.59C16.2327 99.8204 15.4057 99.9282 14.5766 99.9095C13.9205 99.8876 13.2778 99.7175 12.6963 99.413C12.1148 99.1084 11.6093 98.677 11.2174 98.15C10.459 96.9959 10.0685 95.6386 10.0978 94.2578C16.6769 90.6716 23.9509 88.5442 31.4255 88.0194C38.7802 87.6268 46.1153 89.094 52.7532 92.285C57.2416 94.5868 61.5701 97.1874 65.7099 100.07C66.6821 100.559 67.7728 100.762 68.8555 100.656C70.5451 100.447 72.1568 99.8247 73.5477 98.8434C77.0768 95.693 81.0688 93.1031 85.3845 91.1655C91.3056 89.1703 97.4464 87.8988 103.673 87.3799C109.664 86.8076 115.709 87.3868 121.482 89.086C121.215 89.4594 120.415 94.3644 119.935 95.8572Z" fill="#3F3F3F"/>
<path d="M67.5242 32.889C69.5717 31.8759 71.6933 31.0201 73.8709 30.329L76.8576 29.1024C77.4074 28.8188 77.849 28.3626 78.1146 27.8039C78.3802 27.2452 78.4549 26.6147 78.328 26.0093C78.201 25.4039 77.8784 24.8568 77.4106 24.4522C76.9429 24.0475 76.3546 23.8075 75.7376 23.769C73.8154 24.046 71.9872 24.7774 70.4042 25.9024C68.5104 27.2546 66.8373 28.8918 65.4442 30.7557C65.1701 31.0433 65.0176 31.4252 65.0176 31.8224C65.0176 32.2195 65.1701 32.6014 65.4442 32.889C65.7226 33.1594 66.096 33.3107 66.4842 33.3107C66.8725 33.3107 67.2453 33.1594 67.5242 32.889Z" fill="#3F3F3F"/>
</g>
<defs>
<clipPath id="clip0_2727_31132">
<rect width="128" height="128" fill="white"/>
</clipPath>
</defs>
</svg>
