<svg width="12" height="12" viewBox="0 0 12 12" fill="none" xmlns="http://www.w3.org/2000/svg">
<path fill-rule="evenodd" clip-rule="evenodd" d="M4.46022 2.82838C4.1478 2.51596 3.64127 2.51596 3.32885 2.82838C3.01643 3.1408 3.01643 3.64733 3.32885 3.95975L5.02586 5.65676L3.32838 7.35424C3.01596 7.66666 3.01596 8.17319 3.32838 8.48561C3.6408 8.79803 4.14733 8.79803 4.45975 8.48561L6.15723 6.78813L7.85433 8.48524C8.16675 8.79765 8.67328 8.79765 8.9857 8.48524C9.29812 8.17282 9.29812 7.66628 8.9857 7.35386L7.2886 5.65676L8.98524 3.96012C9.29765 3.6477 9.29765 3.14117 8.98523 2.82875C8.67282 2.51633 8.16628 2.51633 7.85386 2.82875L6.15723 4.52539L4.46022 2.82838Z" fill="#B4B4B4"/>
</svg>
