<svg width="50" height="43" viewBox="0 0 50 43" fill="none" xmlns="http://www.w3.org/2000/svg">
<path d="M38.7714 6.14286V23.6C38.7714 24.3732 38.1446 25 37.3714 25H12.6285C11.8553 25 11.2285 24.3732 11.2285 23.6V6.14286" stroke="#9CADC6" stroke-width="2" stroke-miterlimit="10" stroke-linecap="round" stroke-linejoin="round"/>
<path d="M23.2857 14.7143H17.8851C16.9498 14.7143 11.2285 14.8274 11.2285 6.1429C11.2285 5.19616 11.9961 4.42861 12.9428 4.42861H37.0571C38.0038 4.42861 38.7714 5.19616 38.7714 6.1429C38.7714 14.937 33.0137 14.7143 32.1147 14.7143H26.7142" stroke="#9CADC6" stroke-width="2" stroke-miterlimit="10" stroke-linecap="round" stroke-linejoin="round"/>
<path d="M26.7137 18.1428H23.2852V13H26.7137V18.1428Z" stroke="#9CADC6" stroke-width="2" stroke-miterlimit="10" stroke-linecap="round" stroke-linejoin="round"/>
<path d="M19.8574 4.42847V2.71418C19.8574 1.76744 20.625 0.999895 21.5717 0.999895H28.4288C29.3756 0.999895 30.1431 1.76744 30.1431 2.71418V4.42847" stroke="#9CADC6" stroke-width="2" stroke-miterlimit="10" stroke-linecap="round" stroke-linejoin="round"/>
<path d="M13.0716 41.08C12.6823 41.08 12.325 41.0107 11.9996 40.872C11.6743 40.7333 11.3916 40.536 11.1516 40.28C10.9116 40.0187 10.725 39.712 10.5916 39.36C10.4636 39.008 10.3996 38.6213 10.3996 38.2C10.3996 37.8 10.469 37.4293 10.6076 37.088C10.7516 36.7413 10.949 36.4373 11.1996 36.176C11.4503 35.9147 11.741 35.712 12.0716 35.568C12.4023 35.424 12.7596 35.352 13.1436 35.352C13.4156 35.352 13.6796 35.3947 13.9356 35.48C14.197 35.56 14.4316 35.6747 14.6396 35.824C14.853 35.968 15.0263 36.1333 15.1596 36.32L14.5836 36.92C14.429 36.7653 14.2716 36.6373 14.1116 36.536C13.957 36.4293 13.797 36.3493 13.6316 36.296C13.4716 36.2427 13.309 36.216 13.1436 36.216C12.8823 36.216 12.637 36.2667 12.4076 36.368C12.1836 36.464 11.9863 36.6 11.8156 36.776C11.6503 36.952 11.5196 37.1627 11.4236 37.408C11.3276 37.648 11.2796 37.912 11.2796 38.2C11.2796 38.504 11.325 38.7813 11.4156 39.032C11.5116 39.2773 11.645 39.488 11.8156 39.664C11.9863 39.84 12.189 39.976 12.4236 40.072C12.6636 40.1627 12.9276 40.208 13.2156 40.208C13.3916 40.208 13.565 40.184 13.7356 40.136C13.9063 40.088 14.0663 40.0187 14.2156 39.928C14.365 39.8373 14.501 39.7307 14.6236 39.608L15.0556 40.312C14.933 40.456 14.765 40.5867 14.5516 40.704C14.3436 40.8213 14.109 40.9147 13.8476 40.984C13.5916 41.048 13.333 41.08 13.0716 41.08ZM17.6373 41.08C17.2906 41.08 16.9733 40.984 16.6853 40.792C16.4026 40.6 16.176 40.3387 16.0053 40.008C15.8346 39.6773 15.7493 39.304 15.7493 38.888C15.7493 38.4667 15.8346 38.0933 16.0053 37.768C16.1813 37.4373 16.416 37.1787 16.7093 36.992C17.008 36.8053 17.3413 36.712 17.7093 36.712C17.928 36.712 18.128 36.744 18.3093 36.808C18.4906 36.872 18.648 36.9627 18.7813 37.08C18.92 37.192 19.032 37.3227 19.1173 37.472C19.208 37.6213 19.264 37.7813 19.2853 37.952L19.1013 37.888V36.8H19.9333V41H19.1013V40L19.2933 39.944C19.2613 40.088 19.1946 40.2293 19.0933 40.368C18.9973 40.5013 18.872 40.6213 18.7173 40.728C18.568 40.8347 18.4 40.92 18.2133 40.984C18.032 41.048 17.84 41.08 17.6373 41.08ZM17.8533 40.32C18.104 40.32 18.3253 40.2587 18.5173 40.136C18.7093 40.0133 18.8586 39.8453 18.9653 39.632C19.0773 39.4133 19.1333 39.1653 19.1333 38.888C19.1333 38.616 19.0773 38.3733 18.9653 38.16C18.8586 37.9467 18.7093 37.7787 18.5173 37.656C18.3253 37.5333 18.104 37.472 17.8533 37.472C17.608 37.472 17.3893 37.5333 17.1973 37.656C17.0106 37.7787 16.8613 37.9467 16.7493 38.16C16.6426 38.3733 16.5893 38.616 16.5893 38.888C16.5893 39.1653 16.6426 39.4133 16.7493 39.632C16.8613 39.8453 17.0106 40.0133 17.1973 40.136C17.3893 40.2587 17.608 40.32 17.8533 40.32ZM21.0838 41V36.8H21.9158V38.12L21.8358 37.8C21.8945 37.5973 21.9931 37.4133 22.1318 37.248C22.2758 37.0827 22.4385 36.952 22.6198 36.856C22.8065 36.76 22.9985 36.712 23.1958 36.712C23.2865 36.712 23.3718 36.72 23.4518 36.736C23.5371 36.752 23.6038 36.7707 23.6518 36.792L23.4358 37.688C23.3718 37.6613 23.2998 37.64 23.2198 37.624C23.1451 37.6027 23.0705 37.592 22.9958 37.592C22.8518 37.592 22.7131 37.6213 22.5798 37.68C22.4518 37.7333 22.3371 37.8107 22.2358 37.912C22.1398 38.008 22.0625 38.1227 22.0038 38.256C21.9451 38.384 21.9158 38.5253 21.9158 38.68V41H21.0838ZM26.0907 41.08C25.6587 41.08 25.2747 40.9893 24.9387 40.808C24.608 40.6213 24.3467 40.368 24.1547 40.048C23.968 39.728 23.8747 39.36 23.8747 38.944C23.8747 38.6133 23.928 38.312 24.0347 38.04C24.1414 37.768 24.288 37.5333 24.4747 37.336C24.6667 37.1333 24.8934 36.9787 25.1547 36.872C25.4214 36.76 25.7094 36.704 26.0187 36.704C26.2907 36.704 26.544 36.7573 26.7787 36.864C27.0134 36.9653 27.216 37.1067 27.3867 37.288C27.5627 37.4693 27.696 37.6853 27.7867 37.936C27.8827 38.1813 27.928 38.4507 27.9227 38.744L27.9147 39.096H24.4827L24.2987 38.44H27.2027L27.0827 38.576V38.384C27.0667 38.208 27.008 38.0507 26.9067 37.912C26.8054 37.7733 26.6774 37.664 26.5227 37.584C26.368 37.504 26.2 37.464 26.0187 37.464C25.7307 37.464 25.488 37.52 25.2907 37.632C25.0934 37.7387 24.944 37.8987 24.8427 38.112C24.7414 38.32 24.6907 38.5787 24.6907 38.888C24.6907 39.1813 24.752 39.4373 24.8747 39.656C24.9974 39.8693 25.1707 40.0347 25.3947 40.152C25.6187 40.2693 25.8774 40.328 26.1707 40.328C26.3787 40.328 26.5707 40.2933 26.7467 40.224C26.928 40.1547 27.1227 40.0293 27.3307 39.848L27.7467 40.432C27.6187 40.56 27.4614 40.672 27.2747 40.768C27.0934 40.864 26.8987 40.9413 26.6907 41C26.488 41.0533 26.288 41.08 26.0907 41.08ZM30.7782 41.08C30.3462 41.08 29.9622 40.9893 29.6262 40.808C29.2955 40.6213 29.0342 40.368 28.8422 40.048C28.6555 39.728 28.5622 39.36 28.5622 38.944C28.5622 38.6133 28.6155 38.312 28.7222 38.04C28.8289 37.768 28.9755 37.5333 29.1622 37.336C29.3542 37.1333 29.5809 36.9787 29.8422 36.872C30.1089 36.76 30.3969 36.704 30.7062 36.704C30.9782 36.704 31.2315 36.7573 31.4662 36.864C31.7009 36.9653 31.9035 37.1067 32.0742 37.288C32.2502 37.4693 32.3835 37.6853 32.4742 37.936C32.5702 38.1813 32.6155 38.4507 32.6102 38.744L32.6022 39.096H29.1702L28.9862 38.44H31.8902L31.7702 38.576V38.384C31.7542 38.208 31.6955 38.0507 31.5942 37.912C31.4929 37.7733 31.3649 37.664 31.2102 37.584C31.0555 37.504 30.8875 37.464 30.7062 37.464C30.4182 37.464 30.1755 37.52 29.9782 37.632C29.7809 37.7387 29.6315 37.8987 29.5302 38.112C29.4289 38.32 29.3782 38.5787 29.3782 38.888C29.3782 39.1813 29.4395 39.4373 29.5622 39.656C29.6849 39.8693 29.8582 40.0347 30.0822 40.152C30.3062 40.2693 30.5649 40.328 30.8582 40.328C31.0662 40.328 31.2582 40.2933 31.4342 40.224C31.6155 40.1547 31.8102 40.0293 32.0182 39.848L32.4342 40.432C32.3062 40.56 32.1489 40.672 31.9622 40.768C31.7809 40.864 31.5862 40.9413 31.3782 41C31.1755 41.0533 30.9755 41.08 30.7782 41.08ZM33.5057 41V36.8H34.3377V38.12L34.2577 37.8C34.3164 37.5973 34.415 37.4133 34.5537 37.248C34.6977 37.0827 34.8604 36.952 35.0417 36.856C35.2284 36.76 35.4204 36.712 35.6177 36.712C35.7084 36.712 35.7937 36.72 35.8737 36.736C35.959 36.752 36.0257 36.7707 36.0737 36.792L35.8577 37.688C35.7937 37.6613 35.7217 37.64 35.6417 37.624C35.567 37.6027 35.4924 37.592 35.4177 37.592C35.2737 37.592 35.135 37.6213 35.0017 37.68C34.8737 37.7333 34.759 37.8107 34.6577 37.912C34.5617 38.008 34.4844 38.1227 34.4257 38.256C34.367 38.384 34.3377 38.5253 34.3377 38.68V41H33.5057ZM38.1323 41.08C37.7803 41.08 37.4629 41.0187 37.1803 40.896C36.8976 40.7733 36.6629 40.592 36.4763 40.352L37.0363 39.872C37.1963 40.0587 37.3696 40.1947 37.5563 40.28C37.7483 40.36 37.9643 40.4 38.2043 40.4C38.3003 40.4 38.3883 40.3893 38.4683 40.368C38.5536 40.3413 38.6256 40.304 38.6843 40.256C38.7483 40.208 38.7963 40.152 38.8283 40.088C38.8603 40.0187 38.8763 39.944 38.8763 39.864C38.8763 39.7253 38.8256 39.6133 38.7243 39.528C38.6709 39.4907 38.5856 39.4507 38.4683 39.408C38.3563 39.36 38.2096 39.312 38.0283 39.264C37.7189 39.184 37.4656 39.0933 37.2683 38.992C37.0709 38.8907 36.9189 38.776 36.8123 38.648C36.7323 38.5467 36.6736 38.4373 36.6363 38.32C36.5989 38.1973 36.5803 38.064 36.5803 37.92C36.5803 37.744 36.6176 37.584 36.6923 37.44C36.7723 37.2907 36.8789 37.1627 37.0123 37.056C37.1509 36.944 37.3109 36.8587 37.4923 36.8C37.6789 36.7413 37.8763 36.712 38.0843 36.712C38.2816 36.712 38.4763 36.7387 38.6683 36.792C38.8656 36.8453 39.0469 36.9227 39.2123 37.024C39.3776 37.1253 39.5163 37.2453 39.6283 37.384L39.1563 37.904C39.0549 37.8027 38.9429 37.7147 38.8203 37.64C38.7029 37.56 38.5829 37.4987 38.4603 37.456C38.3376 37.4133 38.2256 37.392 38.1243 37.392C38.0123 37.392 37.9109 37.4027 37.8203 37.424C37.7296 37.4453 37.6523 37.4773 37.5883 37.52C37.5296 37.5627 37.4843 37.616 37.4523 37.68C37.4203 37.744 37.4043 37.816 37.4043 37.896C37.4096 37.9653 37.4256 38.032 37.4523 38.096C37.4843 38.1547 37.5269 38.2053 37.5803 38.248C37.6389 38.2907 37.7269 38.336 37.8443 38.384C37.9616 38.432 38.1109 38.4773 38.2923 38.52C38.5589 38.5893 38.7776 38.6667 38.9483 38.752C39.1243 38.832 39.2629 38.9253 39.3643 39.032C39.4709 39.1333 39.5456 39.2507 39.5883 39.384C39.6309 39.5173 39.6523 39.6667 39.6523 39.832C39.6523 40.072 39.5829 40.288 39.4443 40.48C39.3109 40.6667 39.1296 40.8133 38.9003 40.92C38.6709 41.0267 38.4149 41.08 38.1323 41.08Z" fill="#747474"/>
</svg>
