<svg width="50" height="42" viewBox="0 0 50 42" fill="none" xmlns="http://www.w3.org/2000/svg">
<g clip-path="url(#clip0_1210_14543)">
<path d="M25.8004 16.8C26.2422 16.8 26.6004 16.4418 26.6004 16V12.8C26.6004 12.3582 26.2423 12 25.8004 12H24.2004C23.7586 12 23.4004 12.3581 23.4004 12.8V16C23.4004 16.4418 23.7586 16.8 24.2004 16.8H25.8004Z" fill="#3B5D8F"/>
<path d="M36.2533 3.2H30.6V2.4C30.6 1.07659 29.5235 0 28.2 0H21.8C20.4766 0 19.4 1.07653 19.4 2.4V3.2H13.7467C12.4233 3.2 11.3467 4.27653 11.3467 5.6C11.3467 7.16677 11.5387 8.53888 11.9199 9.70821C12.3011 10.8775 12.8716 11.8442 13.6287 12.6C14.9027 13.8723 16.5254 14.4 18.3475 14.4H21.8V12.8C21.8 11.4766 22.8765 10.4 24.2 10.4H25.8C27.1234 10.4 28.2 11.4765 28.2 12.8V14.4H29.9776C31.5701 14.3338 34.1751 14.8181 36.3705 12.6328C37.128 11.8789 37.6986 10.9106 38.08 9.73573C38.4614 8.56091 38.6533 7.17968 38.6533 5.6C38.6533 4.27659 37.5768 3.2 36.2533 3.2ZM21 2.4C21 1.95861 21.3586 1.6 21.8 1.6H28.2C28.6414 1.6 29 1.95856 29 2.4V3.2H21V2.4Z" fill="#3B5D8F"/>
<path d="M29.9994 16H28.2C28.2 17.3234 27.1235 18.4 25.8 18.4H24.2C22.8766 18.4 21.8 17.3235 21.8 16H18.3545C16.0727 16 14.0684 15.2998 12.4982 13.732C12.0546 13.2892 11.6759 12.7906 11.3467 12.2573V23.2C11.3467 23.6422 11.7045 24 12.1467 24H37.8533C38.2955 24 38.6533 23.6422 38.6533 23.2V12.2902C38.3197 12.8316 37.9394 13.3291 37.4994 13.7672C34.9751 16.2783 32.2868 15.8919 29.9994 16Z" fill="#3B5D8F"/>
</g>
<path d="M13.0716 40.08C12.6823 40.08 12.325 40.0107 11.9996 39.872C11.6743 39.7333 11.3916 39.536 11.1516 39.28C10.9116 39.0187 10.725 38.712 10.5916 38.36C10.4636 38.008 10.3996 37.6213 10.3996 37.2C10.3996 36.8 10.469 36.4293 10.6076 36.088C10.7516 35.7413 10.949 35.4373 11.1996 35.176C11.4503 34.9147 11.741 34.712 12.0716 34.568C12.4023 34.424 12.7596 34.352 13.1436 34.352C13.4156 34.352 13.6796 34.3947 13.9356 34.48C14.197 34.56 14.4316 34.6747 14.6396 34.824C14.853 34.968 15.0263 35.1333 15.1596 35.32L14.5836 35.92C14.429 35.7653 14.2716 35.6373 14.1116 35.536C13.957 35.4293 13.797 35.3493 13.6316 35.296C13.4716 35.2427 13.309 35.216 13.1436 35.216C12.8823 35.216 12.637 35.2667 12.4076 35.368C12.1836 35.464 11.9863 35.6 11.8156 35.776C11.6503 35.952 11.5196 36.1627 11.4236 36.408C11.3276 36.648 11.2796 36.912 11.2796 37.2C11.2796 37.504 11.325 37.7813 11.4156 38.032C11.5116 38.2773 11.645 38.488 11.8156 38.664C11.9863 38.84 12.189 38.976 12.4236 39.072C12.6636 39.1627 12.9276 39.208 13.2156 39.208C13.3916 39.208 13.565 39.184 13.7356 39.136C13.9063 39.088 14.0663 39.0187 14.2156 38.928C14.365 38.8373 14.501 38.7307 14.6236 38.608L15.0556 39.312C14.933 39.456 14.765 39.5867 14.5516 39.704C14.3436 39.8213 14.109 39.9147 13.8476 39.984C13.5916 40.048 13.333 40.08 13.0716 40.08ZM17.6373 40.08C17.2906 40.08 16.9733 39.984 16.6853 39.792C16.4026 39.6 16.176 39.3387 16.0053 39.008C15.8346 38.6773 15.7493 38.304 15.7493 37.888C15.7493 37.4667 15.8346 37.0933 16.0053 36.768C16.1813 36.4373 16.416 36.1787 16.7093 35.992C17.008 35.8053 17.3413 35.712 17.7093 35.712C17.928 35.712 18.128 35.744 18.3093 35.808C18.4906 35.872 18.648 35.9627 18.7813 36.08C18.92 36.192 19.032 36.3227 19.1173 36.472C19.208 36.6213 19.264 36.7813 19.2853 36.952L19.1013 36.888V35.8H19.9333V40H19.1013V39L19.2933 38.944C19.2613 39.088 19.1946 39.2293 19.0933 39.368C18.9973 39.5013 18.872 39.6213 18.7173 39.728C18.568 39.8347 18.4 39.92 18.2133 39.984C18.032 40.048 17.84 40.08 17.6373 40.08ZM17.8533 39.32C18.104 39.32 18.3253 39.2587 18.5173 39.136C18.7093 39.0133 18.8586 38.8453 18.9653 38.632C19.0773 38.4133 19.1333 38.1653 19.1333 37.888C19.1333 37.616 19.0773 37.3733 18.9653 37.16C18.8586 36.9467 18.7093 36.7787 18.5173 36.656C18.3253 36.5333 18.104 36.472 17.8533 36.472C17.608 36.472 17.3893 36.5333 17.1973 36.656C17.0106 36.7787 16.8613 36.9467 16.7493 37.16C16.6426 37.3733 16.5893 37.616 16.5893 37.888C16.5893 38.1653 16.6426 38.4133 16.7493 38.632C16.8613 38.8453 17.0106 39.0133 17.1973 39.136C17.3893 39.2587 17.608 39.32 17.8533 39.32ZM21.0838 40V35.8H21.9158V37.12L21.8358 36.8C21.8945 36.5973 21.9931 36.4133 22.1318 36.248C22.2758 36.0827 22.4385 35.952 22.6198 35.856C22.8065 35.76 22.9985 35.712 23.1958 35.712C23.2865 35.712 23.3718 35.72 23.4518 35.736C23.5371 35.752 23.6038 35.7707 23.6518 35.792L23.4358 36.688C23.3718 36.6613 23.2998 36.64 23.2198 36.624C23.1451 36.6027 23.0705 36.592 22.9958 36.592C22.8518 36.592 22.7131 36.6213 22.5798 36.68C22.4518 36.7333 22.3371 36.8107 22.2358 36.912C22.1398 37.008 22.0625 37.1227 22.0038 37.256C21.9451 37.384 21.9158 37.5253 21.9158 37.68V40H21.0838ZM26.0907 40.08C25.6587 40.08 25.2747 39.9893 24.9387 39.808C24.608 39.6213 24.3467 39.368 24.1547 39.048C23.968 38.728 23.8747 38.36 23.8747 37.944C23.8747 37.6133 23.928 37.312 24.0347 37.04C24.1414 36.768 24.288 36.5333 24.4747 36.336C24.6667 36.1333 24.8934 35.9787 25.1547 35.872C25.4214 35.76 25.7094 35.704 26.0187 35.704C26.2907 35.704 26.544 35.7573 26.7787 35.864C27.0134 35.9653 27.216 36.1067 27.3867 36.288C27.5627 36.4693 27.696 36.6853 27.7867 36.936C27.8827 37.1813 27.928 37.4507 27.9227 37.744L27.9147 38.096H24.4827L24.2987 37.44H27.2027L27.0827 37.576V37.384C27.0667 37.208 27.008 37.0507 26.9067 36.912C26.8054 36.7733 26.6774 36.664 26.5227 36.584C26.368 36.504 26.2 36.464 26.0187 36.464C25.7307 36.464 25.488 36.52 25.2907 36.632C25.0934 36.7387 24.944 36.8987 24.8427 37.112C24.7414 37.32 24.6907 37.5787 24.6907 37.888C24.6907 38.1813 24.752 38.4373 24.8747 38.656C24.9974 38.8693 25.1707 39.0347 25.3947 39.152C25.6187 39.2693 25.8774 39.328 26.1707 39.328C26.3787 39.328 26.5707 39.2933 26.7467 39.224C26.928 39.1547 27.1227 39.0293 27.3307 38.848L27.7467 39.432C27.6187 39.56 27.4614 39.672 27.2747 39.768C27.0934 39.864 26.8987 39.9413 26.6907 40C26.488 40.0533 26.288 40.08 26.0907 40.08ZM30.7782 40.08C30.3462 40.08 29.9622 39.9893 29.6262 39.808C29.2955 39.6213 29.0342 39.368 28.8422 39.048C28.6555 38.728 28.5622 38.36 28.5622 37.944C28.5622 37.6133 28.6155 37.312 28.7222 37.04C28.8289 36.768 28.9755 36.5333 29.1622 36.336C29.3542 36.1333 29.5809 35.9787 29.8422 35.872C30.1089 35.76 30.3969 35.704 30.7062 35.704C30.9782 35.704 31.2315 35.7573 31.4662 35.864C31.7009 35.9653 31.9035 36.1067 32.0742 36.288C32.2502 36.4693 32.3835 36.6853 32.4742 36.936C32.5702 37.1813 32.6155 37.4507 32.6102 37.744L32.6022 38.096H29.1702L28.9862 37.44H31.8902L31.7702 37.576V37.384C31.7542 37.208 31.6955 37.0507 31.5942 36.912C31.4929 36.7733 31.3649 36.664 31.2102 36.584C31.0555 36.504 30.8875 36.464 30.7062 36.464C30.4182 36.464 30.1755 36.52 29.9782 36.632C29.7809 36.7387 29.6315 36.8987 29.5302 37.112C29.4289 37.32 29.3782 37.5787 29.3782 37.888C29.3782 38.1813 29.4395 38.4373 29.5622 38.656C29.6849 38.8693 29.8582 39.0347 30.0822 39.152C30.3062 39.2693 30.5649 39.328 30.8582 39.328C31.0662 39.328 31.2582 39.2933 31.4342 39.224C31.6155 39.1547 31.8102 39.0293 32.0182 38.848L32.4342 39.432C32.3062 39.56 32.1489 39.672 31.9622 39.768C31.7809 39.864 31.5862 39.9413 31.3782 40C31.1755 40.0533 30.9755 40.08 30.7782 40.08ZM33.5057 40V35.8H34.3377V37.12L34.2577 36.8C34.3164 36.5973 34.415 36.4133 34.5537 36.248C34.6977 36.0827 34.8604 35.952 35.0417 35.856C35.2284 35.76 35.4204 35.712 35.6177 35.712C35.7084 35.712 35.7937 35.72 35.8737 35.736C35.959 35.752 36.0257 35.7707 36.0737 35.792L35.8577 36.688C35.7937 36.6613 35.7217 36.64 35.6417 36.624C35.567 36.6027 35.4924 36.592 35.4177 36.592C35.2737 36.592 35.135 36.6213 35.0017 36.68C34.8737 36.7333 34.759 36.8107 34.6577 36.912C34.5617 37.008 34.4844 37.1227 34.4257 37.256C34.367 37.384 34.3377 37.5253 34.3377 37.68V40H33.5057ZM38.1323 40.08C37.7803 40.08 37.4629 40.0187 37.1803 39.896C36.8976 39.7733 36.6629 39.592 36.4763 39.352L37.0363 38.872C37.1963 39.0587 37.3696 39.1947 37.5563 39.28C37.7483 39.36 37.9643 39.4 38.2043 39.4C38.3003 39.4 38.3883 39.3893 38.4683 39.368C38.5536 39.3413 38.6256 39.304 38.6843 39.256C38.7483 39.208 38.7963 39.152 38.8283 39.088C38.8603 39.0187 38.8763 38.944 38.8763 38.864C38.8763 38.7253 38.8256 38.6133 38.7243 38.528C38.6709 38.4907 38.5856 38.4507 38.4683 38.408C38.3563 38.36 38.2096 38.312 38.0283 38.264C37.7189 38.184 37.4656 38.0933 37.2683 37.992C37.0709 37.8907 36.9189 37.776 36.8123 37.648C36.7323 37.5467 36.6736 37.4373 36.6363 37.32C36.5989 37.1973 36.5803 37.064 36.5803 36.92C36.5803 36.744 36.6176 36.584 36.6923 36.44C36.7723 36.2907 36.8789 36.1627 37.0123 36.056C37.1509 35.944 37.3109 35.8587 37.4923 35.8C37.6789 35.7413 37.8763 35.712 38.0843 35.712C38.2816 35.712 38.4763 35.7387 38.6683 35.792C38.8656 35.8453 39.0469 35.9227 39.2123 36.024C39.3776 36.1253 39.5163 36.2453 39.6283 36.384L39.1563 36.904C39.0549 36.8027 38.9429 36.7147 38.8203 36.64C38.7029 36.56 38.5829 36.4987 38.4603 36.456C38.3376 36.4133 38.2256 36.392 38.1243 36.392C38.0123 36.392 37.9109 36.4027 37.8203 36.424C37.7296 36.4453 37.6523 36.4773 37.5883 36.52C37.5296 36.5627 37.4843 36.616 37.4523 36.68C37.4203 36.744 37.4043 36.816 37.4043 36.896C37.4096 36.9653 37.4256 37.032 37.4523 37.096C37.4843 37.1547 37.5269 37.2053 37.5803 37.248C37.6389 37.2907 37.7269 37.336 37.8443 37.384C37.9616 37.432 38.1109 37.4773 38.2923 37.52C38.5589 37.5893 38.7776 37.6667 38.9483 37.752C39.1243 37.832 39.2629 37.9253 39.3643 38.032C39.4709 38.1333 39.5456 38.2507 39.5883 38.384C39.6309 38.5173 39.6523 38.6667 39.6523 38.832C39.6523 39.072 39.5829 39.288 39.4443 39.48C39.3109 39.6667 39.1296 39.8133 38.9003 39.92C38.6709 40.0267 38.4149 40.08 38.1323 40.08Z" fill="#747474"/>
<defs>
<clipPath id="clip0_1210_14543">
<rect x="11.3467" width="27.3067" height="24" rx="3" fill="white"/>
</clipPath>
</defs>
</svg>
