<svg width="16" height="16" viewBox="0 0 16 16" fill="none" xmlns="http://www.w3.org/2000/svg">
<path d="M10.8321 15.9985H5.1663C5.04691 15.9985 4.93148 15.9557 4.84089 15.878C4.7503 15.8002 4.69052 15.6926 4.67237 15.5746L4.00581 11.2419C3.99486 11.1707 3.99943 11.098 4.01922 11.0287C4.039 10.9594 4.07353 10.8952 4.12045 10.8405C4.16736 10.7858 4.22554 10.7419 4.29101 10.7118C4.35647 10.6816 4.42767 10.666 4.49973 10.666H11.4987C11.5708 10.666 11.642 10.6816 11.7076 10.7118C11.7731 10.742 11.8313 10.7859 11.8782 10.8407C11.9252 10.8955 11.9597 10.9598 11.9794 11.0291C11.9991 11.0985 12.0036 11.1713 11.9926 11.2426L11.326 15.5753C11.3077 15.6931 11.2479 15.8006 11.1573 15.8782C11.0667 15.9558 10.9514 15.9985 10.8321 15.9985Z" fill="#6688CC"/>
<path d="M7.99829 5.33349C9.47082 5.33349 10.6645 4.13977 10.6645 2.66723C10.6645 1.1947 9.47082 0.000976562 7.99829 0.000976562C6.52575 0.000976562 5.33203 1.1947 5.33203 2.66723C5.33203 4.13977 6.52575 5.33349 7.99829 5.33349Z" fill="#6688CC"/>
<path d="M15.4764 8.66462C15.4219 7.92959 15.2003 7.21671 14.8286 6.58025C14.4568 5.94379 13.9448 5.40054 13.3314 4.99185C13.33 4.79455 13.2702 4.60209 13.1595 4.43875C13.0488 4.2754 12.8923 4.14847 12.7096 4.07397C12.5269 3.99947 12.3262 3.98072 12.1329 4.0201C11.9395 4.05948 11.7622 4.15522 11.6232 4.29524C11.4842 4.43527 11.3897 4.61331 11.3518 4.80693C11.3138 5.00055 11.334 5.20107 11.4099 5.38322C11.4857 5.56537 11.6138 5.72099 11.7779 5.83046C11.9421 5.93993 12.135 5.99835 12.3323 5.99836C12.5149 5.99836 12.6835 5.9457 12.8309 5.86038C13.2935 6.17906 13.6807 6.59531 13.965 7.07982C14.2493 7.56433 14.424 8.1053 14.4766 8.66462H13.2921C13.0522 7.15818 11.7457 5.99836 10.1659 5.99836H5.83327C4.25351 5.99836 2.94705 7.15818 2.70708 8.66462H0.500757C0.146812 8.66462 -0.0818197 9.02323 0.0274968 9.33785L1.36062 13.0039C1.43395 13.1973 1.62058 13.3306 1.83389 13.3306H2.98038L2.68709 11.4442C2.6071 10.9109 2.76041 10.3777 3.10702 9.97108C3.40431 9.61447 3.93023 9.33118 4.50014 9.33118H11.4991C11.7636 9.33183 12.0248 9.38931 12.2652 9.49971C12.5055 9.61011 12.7194 9.77086 12.8922 9.97108C13.2388 10.3777 13.3921 10.9109 13.3121 11.4442L13.0188 13.3306H14.1653C14.3786 13.3306 14.5653 13.1973 14.6386 13.0039L15.9717 9.33785C15.9988 9.26014 16.0066 9.17699 15.9944 9.0956C15.9821 9.01421 15.9502 8.93703 15.9015 8.87073C15.8527 8.80443 15.7885 8.75101 15.7145 8.7151C15.6404 8.67919 15.5587 8.66186 15.4764 8.66462Z" fill="#6688CC"/>
</svg>
