<svg width="50" height="43" viewBox="0 0 50 43" fill="none" xmlns="http://www.w3.org/2000/svg">
<path fill-rule="evenodd" clip-rule="evenodd" d="M21.0032 4.99662C21.0032 7.20075 22.7957 8.99323 24.9999 8.99323C27.204 8.99323 28.9965 7.20075 28.9965 4.99662C28.9965 2.79248 27.204 1 24.9999 1C22.7957 1 21.0032 2.79248 21.0032 4.99662ZM22.502 4.99662C22.502 3.61978 23.622 2.49873 24.9999 2.49873C26.3777 2.49873 27.4977 3.61978 27.4977 4.99662C27.4977 6.37345 26.3777 7.4945 24.9999 7.4945C23.622 7.4945 22.502 6.37345 22.502 4.99662ZM33.1825 13.989H34.7168C34.642 13.1816 34.3974 12.3971 33.9968 11.6877C33.568 10.9284 32.9731 10.2776 32.2582 9.78306C32.0344 9.916 31.773 9.99233 31.4938 9.99233C30.6661 9.99233 29.9951 9.32133 29.9951 8.4936C29.9951 7.66588 30.6661 6.99487 31.4938 6.99487C32.3136 6.99487 32.9797 7.65307 32.9924 8.46983C34.862 9.70924 36.0632 11.7705 36.2212 13.989H36.2397C36.3603 13.9889 36.479 14.018 36.586 14.0736C36.6929 14.1292 36.7849 14.2099 36.854 14.3086C36.9231 14.4074 36.9674 14.5213 36.9831 14.6409C36.9988 14.7604 36.9854 14.8819 36.9441 14.9952L34.9458 20.4905C34.8931 20.635 34.7973 20.7597 34.6713 20.8478C34.5452 20.936 34.3952 20.9832 34.2414 20.9831H30.5036L29.9863 24.3453C29.9591 24.522 29.8696 24.683 29.734 24.7994C29.5984 24.9157 29.4256 24.9797 29.2469 24.9798C29.1389 24.9796 29.0323 24.9561 28.9342 24.9109C28.8361 24.8657 28.7489 24.7999 28.6785 24.718C28.6082 24.636 28.5563 24.5399 28.5264 24.4361C28.4966 24.3323 28.4895 24.2233 28.5056 24.1165L29.3718 18.4853H20.6272L21.4935 24.1165C21.5114 24.2151 21.5094 24.3162 21.4876 24.4139C21.4658 24.5116 21.4247 24.604 21.3666 24.6856C21.3084 24.7671 21.2346 24.8362 21.1493 24.8887C21.0641 24.9413 20.9692 24.9762 20.8702 24.9914C20.7712 25.0066 20.6702 25.0019 20.5731 24.9774C20.476 24.9529 20.3848 24.9092 20.3048 24.8489C20.2249 24.7886 20.1579 24.7129 20.1077 24.6262C20.0575 24.5395 20.0253 24.4437 20.0127 24.3443L19.4956 20.9831H15.7571C15.6032 20.9831 15.453 20.9357 15.327 20.8474C15.201 20.7591 15.1052 20.6342 15.0527 20.4895L13.0543 14.9942C13.0135 14.881 13.0004 14.7596 13.0163 14.6403C13.0322 14.521 13.0766 14.4073 13.1456 14.3087C13.2147 14.2102 13.3065 14.1297 13.4132 14.074C13.5199 14.0184 13.6384 13.9892 13.7587 13.989H16.8172C16.9751 13.0086 17.4376 12.0953 18.1487 11.3842C19.0384 10.4945 20.2446 9.99397 21.5028 9.99238H28.4969C29.7551 9.99397 30.9614 10.4945 31.8511 11.3842C32.5621 12.0953 33.0246 13.0086 33.1825 13.989ZM18.344 13.989H31.6557C31.5174 13.4085 31.2207 12.8722 30.7919 12.4434C30.1831 11.8346 29.3578 11.4922 28.4969 11.4911H21.5028C20.6419 11.4922 19.8166 11.8346 19.2078 12.4434C18.779 12.8722 18.4823 13.4085 18.344 13.989ZM19.2651 19.4844H16.2816L14.8278 15.4877H35.1696L33.7158 19.4844H30.7341L30.9855 17.8508C31.002 17.744 30.9953 17.6349 30.9657 17.5309C30.9361 17.4269 30.8844 17.3305 30.814 17.2484C30.7437 17.1663 30.6564 17.1004 30.5582 17.0552C30.46 17.01 30.3532 16.9866 30.2451 16.9866H19.754C19.6459 16.9866 19.5392 17.01 19.4411 17.0552C19.343 17.1003 19.2557 17.1661 19.1854 17.2481C19.1151 17.3301 19.0633 17.4263 19.0337 17.5302C19.004 17.634 18.9972 17.7431 19.0136 17.8498L19.2651 19.4844Z" fill="#9CADC6"/>
<path d="M33.1825 13.989L33.0344 14.0129L33.0547 14.139H33.1825V13.989ZM34.7168 13.989V14.139H34.8813L34.8662 13.9752L34.7168 13.989ZM33.9968 11.6877L34.1274 11.614L33.9968 11.6877ZM32.2582 9.78306L32.3435 9.6597L32.2643 9.60493L32.1816 9.6541L32.2582 9.78306ZM32.9924 8.46983L32.8424 8.47216L32.8436 8.55118L32.9095 8.59485L32.9924 8.46983ZM36.2212 13.989L36.0716 13.9997L36.0815 14.139H36.2212V13.989ZM36.2397 13.989V14.139H36.2398L36.2397 13.989ZM36.9831 14.6409L36.8344 14.6604V14.6604L36.9831 14.6409ZM36.9441 14.9952L36.8032 14.9438L36.8031 14.9439L36.9441 14.9952ZM34.9458 20.4905L35.0867 20.5419L35.0868 20.5418L34.9458 20.4905ZM34.6713 20.8478L34.5853 20.7249L34.6713 20.8478ZM34.2414 20.9831L34.2415 20.8331H34.2414V20.9831ZM30.5036 20.9831V20.8331H30.3749L30.3553 20.9603L30.5036 20.9831ZM29.9863 24.3453L30.1346 24.3682L30.1346 24.3682L29.9863 24.3453ZM29.2469 24.9798L29.2466 25.1298H29.247L29.2469 24.9798ZM28.5056 24.1165L28.3573 24.0937L28.3572 24.0942L28.5056 24.1165ZM29.3718 18.4853L29.5201 18.5081L29.5467 18.3353H29.3718V18.4853ZM20.6272 18.4853V18.3353H20.4524L20.479 18.5081L20.6272 18.4853ZM21.4935 24.1165L21.3452 24.1394L21.3459 24.1434L21.4935 24.1165ZM21.3666 24.6856L21.4887 24.7726L21.4887 24.7726L21.3666 24.6856ZM21.1493 24.8887L21.228 25.0165L21.228 25.0164L21.1493 24.8887ZM20.3048 24.8489L20.2145 24.9686L20.2145 24.9686L20.3048 24.8489ZM20.0127 24.3443L20.1616 24.3256L20.161 24.3215L20.0127 24.3443ZM19.4956 20.9831L19.6439 20.9603L19.6243 20.8331H19.4956V20.9831ZM15.7571 20.9831V20.8331H15.757L15.7571 20.9831ZM15.327 20.8474L15.2409 20.9703L15.2409 20.9703L15.327 20.8474ZM15.0527 20.4895L15.1936 20.4383L15.1936 20.4382L15.0527 20.4895ZM13.0543 14.9942L12.9133 15.0451L12.9134 15.0454L13.0543 14.9942ZM13.0163 14.6403L13.165 14.6601L13.0163 14.6403ZM13.1456 14.3087L13.0228 14.2227L13.0228 14.2227L13.1456 14.3087ZM13.4132 14.074L13.4825 14.207L13.4825 14.207L13.4132 14.074ZM13.7587 13.989V13.839L13.7585 13.839L13.7587 13.989ZM16.8172 13.989V14.139H16.945L16.9653 14.0129L16.8172 13.989ZM18.1487 11.3842L18.0426 11.2781L18.1487 11.3842ZM21.5028 9.99238V9.84238L21.5026 9.84238L21.5028 9.99238ZM28.4969 9.99238L28.4971 9.84238H28.4969V9.99238ZM31.8511 11.3842L31.745 11.4903L31.8511 11.3842ZM18.344 13.989L18.1981 13.9543L18.1541 14.139H18.344V13.989ZM31.6557 13.989V14.139H31.8456L31.8016 13.9543L31.6557 13.989ZM30.7919 12.4434L30.8979 12.3373L30.7919 12.4434ZM28.4969 11.4911L28.4971 11.3411H28.4969V11.4911ZM21.5028 11.4911V11.3411L21.5026 11.3411L21.5028 11.4911ZM19.2078 12.4434L19.3139 12.5494H19.3139L19.2078 12.4434ZM16.2816 19.4844L16.1406 19.5356L16.1766 19.6344H16.2816V19.4844ZM19.2651 19.4844V19.6344H19.4399L19.4133 19.4616L19.2651 19.4844ZM14.8278 15.4877V15.3377H14.6137L14.6869 15.539L14.8278 15.4877ZM35.1696 15.4877L35.3106 15.539L35.3838 15.3377H35.1696V15.4877ZM33.7158 19.4844V19.6344H33.8209L33.8568 19.5356L33.7158 19.4844ZM30.7341 19.4844L30.5859 19.4616L30.5593 19.6344H30.7341V19.4844ZM30.9855 17.8508L30.8372 17.8278L30.8372 17.828L30.9855 17.8508ZM30.9657 17.5309L30.8214 17.5719V17.5719L30.9657 17.5309ZM30.814 17.2484L30.7001 17.346L30.7001 17.346L30.814 17.2484ZM30.5582 17.0552L30.6209 16.9189L30.6209 16.9189L30.5582 17.0552ZM30.2451 16.9866L30.2451 16.8366H30.2451V16.9866ZM19.754 16.9866V16.8366H19.7539L19.754 16.9866ZM19.1854 17.2481L19.0716 17.1505H19.0716L19.1854 17.2481ZM19.0337 17.5302L19.1779 17.5714V17.5714L19.0337 17.5302ZM19.0136 17.8498L18.8653 17.8727L18.8653 17.8727L19.0136 17.8498ZM24.9999 8.84323C22.8786 8.84323 21.1532 7.11791 21.1532 4.99662H20.8532C20.8532 7.28359 22.7129 9.14323 24.9999 9.14323V8.84323ZM28.8465 4.99662C28.8465 7.11791 27.1211 8.84323 24.9999 8.84323V9.14323C27.2868 9.14323 29.1465 7.28359 29.1465 4.99662H28.8465ZM24.9999 1.15C27.1211 1.15 28.8465 2.87532 28.8465 4.99662H29.1465C29.1465 2.70964 27.2868 0.85 24.9999 0.85V1.15ZM21.1532 4.99662C21.1532 2.87532 22.8786 1.15 24.9999 1.15V0.85C22.7129 0.85 20.8532 2.70964 20.8532 4.99662H21.1532ZM24.9999 2.34873C23.5391 2.34873 22.352 3.53698 22.352 4.99662H22.652C22.652 3.70258 23.7049 2.64873 24.9999 2.64873V2.34873ZM27.6477 4.99662C27.6477 3.53698 26.4606 2.34873 24.9999 2.34873V2.64873C26.2948 2.64873 27.3477 3.70258 27.3477 4.99662H27.6477ZM24.9999 7.6445C26.4606 7.6445 27.6477 6.45625 27.6477 4.99662H27.3477C27.3477 6.29065 26.2948 7.3445 24.9999 7.3445V7.6445ZM22.352 4.99662C22.352 6.45625 23.5391 7.6445 24.9999 7.6445V7.3445C23.7049 7.3445 22.652 6.29065 22.652 4.99662H22.352ZM33.1825 14.139H34.7168V13.839H33.1825V14.139ZM34.8662 13.9752C34.7894 13.1467 34.5384 12.3418 34.1274 11.614L33.8662 11.7615C34.2564 12.4524 34.4946 13.2164 34.5675 14.0028L34.8662 13.9752ZM34.1274 11.614C33.6874 10.8348 33.077 10.1671 32.3435 9.6597L32.1728 9.90642C32.8691 10.3881 33.4485 11.0219 33.8662 11.7615L34.1274 11.614ZM32.1816 9.6541C31.9803 9.77365 31.7453 9.84233 31.4938 9.84233V10.1423C31.8007 10.1423 32.0885 10.0583 32.3348 9.91202L32.1816 9.6541ZM31.4938 9.84233C30.749 9.84233 30.1451 9.23849 30.1451 8.4936H29.8451C29.8451 9.40417 30.5833 10.1423 31.4938 10.1423V9.84233ZM30.1451 8.4936C30.1451 7.74872 30.749 7.14487 31.4938 7.14487V6.84487C30.5833 6.84487 29.8451 7.58303 29.8451 8.4936H30.1451ZM31.4938 7.14487C32.2316 7.14487 32.831 7.73719 32.8424 8.47216L33.1424 8.46749C33.1284 7.56894 32.3957 6.84487 31.4938 6.84487V7.14487ZM32.9095 8.59485C34.7405 9.80863 35.9169 11.8277 36.0716 13.9997L36.3708 13.9784C36.2095 11.7133 34.9836 9.60985 33.0753 8.3448L32.9095 8.59485ZM36.2212 14.139H36.2397V13.839H36.2212V14.139ZM36.2398 14.139C36.3362 14.139 36.4312 14.1622 36.5167 14.2067L36.6552 13.9405C36.5269 13.8738 36.3843 13.8389 36.2396 13.839L36.2398 14.139ZM36.5167 14.2067C36.6023 14.2512 36.6758 14.3156 36.7311 14.3946L36.9769 14.2226C36.8939 14.1041 36.7836 14.0073 36.6552 13.9405L36.5167 14.2067ZM36.7311 14.3946C36.7864 14.4736 36.8218 14.5648 36.8344 14.6604L37.1318 14.6213C37.113 14.4779 37.0598 14.3411 36.9769 14.2226L36.7311 14.3946ZM36.8344 14.6604C36.8469 14.756 36.8362 14.8532 36.8032 14.9438L37.085 15.0466C37.1346 14.9106 37.1507 14.7648 37.1318 14.6213L36.8344 14.6604ZM36.8031 14.9439L34.8048 20.4392L35.0868 20.5418L37.0851 15.0464L36.8031 14.9439ZM34.8049 20.4391C34.7627 20.5546 34.6861 20.6544 34.5853 20.7249L34.7572 20.9708C34.9084 20.865 35.0235 20.7153 35.0867 20.5419L34.8049 20.4391ZM34.5853 20.7249C34.4845 20.7954 34.3645 20.8332 34.2415 20.8331L34.2413 21.1331C34.4259 21.1332 34.606 21.0765 34.7572 20.9708L34.5853 20.7249ZM34.2414 20.8331H30.5036V21.1331H34.2414V20.8331ZM30.3553 20.9603L29.838 24.3225L30.1346 24.3682L30.6518 21.0059L30.3553 20.9603ZM29.838 24.3225C29.8163 24.4637 29.7447 24.5925 29.6363 24.6855L29.8317 24.9132C29.9945 24.7735 30.1019 24.5802 30.1346 24.3682L29.838 24.3225ZM29.6363 24.6855C29.5279 24.7786 29.3897 24.8298 29.2469 24.8298L29.247 25.1298C29.4615 25.1297 29.6689 25.0529 29.8317 24.9132L29.6363 24.6855ZM29.2472 24.8298C29.1608 24.8296 29.0754 24.8108 28.9969 24.7746L28.8714 25.0471C28.9891 25.1013 29.1171 25.1295 29.2466 25.1298L29.2472 24.8298ZM28.9969 24.7746C28.9184 24.7385 28.8486 24.6858 28.7923 24.6202L28.5647 24.8157C28.6491 24.914 28.7537 24.9929 28.8714 25.0471L28.9969 24.7746ZM28.7923 24.6202C28.736 24.5547 28.6945 24.4777 28.6706 24.3947L28.3823 24.4776C28.4181 24.6021 28.4803 24.7174 28.5647 24.8157L28.7923 24.6202ZM28.6706 24.3947C28.6467 24.3116 28.641 24.2244 28.6539 24.1389L28.3572 24.0942C28.3379 24.2223 28.3465 24.3531 28.3823 24.4776L28.6706 24.3947ZM28.6538 24.1393L29.5201 18.5081L29.2236 18.4625L28.3573 24.0937L28.6538 24.1393ZM29.3718 18.3353H20.6272V18.6353H29.3718V18.3353ZM20.479 18.5081L21.3452 24.1393L21.6417 24.0937L20.7755 18.4625L20.479 18.5081ZM21.3459 24.1434C21.3603 24.2222 21.3587 24.3031 21.3412 24.3813L21.634 24.4466C21.6602 24.3293 21.6626 24.2079 21.6411 24.0897L21.3459 24.1434ZM21.3412 24.3813C21.3238 24.4594 21.2909 24.5333 21.2444 24.5985L21.4887 24.7726C21.5585 24.6747 21.6079 24.5639 21.634 24.4466L21.3412 24.3813ZM21.2444 24.5985C21.1979 24.6638 21.1388 24.719 21.0706 24.761L21.228 25.0164C21.3303 24.9534 21.419 24.8705 21.4887 24.7726L21.2444 24.5985ZM21.0707 24.761C21.0025 24.8031 20.9265 24.831 20.8474 24.8432L20.893 25.1397C21.0118 25.1214 21.1257 25.0795 21.228 25.0165L21.0707 24.761ZM20.8474 24.8432C20.7682 24.8553 20.6874 24.8515 20.6098 24.8319L20.5364 25.1228C20.653 25.1522 20.7742 25.1579 20.893 25.1397L20.8474 24.8432ZM20.6098 24.8319C20.5321 24.8124 20.4591 24.7774 20.3952 24.7292L20.2145 24.9686C20.3104 25.041 20.4199 25.0935 20.5364 25.1228L20.6098 24.8319ZM20.3952 24.7292C20.3313 24.6809 20.2777 24.6204 20.2375 24.5511L19.9779 24.7014C20.0381 24.8054 20.1186 24.8963 20.2145 24.9686L20.3952 24.7292ZM20.2375 24.5511C20.1974 24.4817 20.1716 24.4051 20.1616 24.3256L19.8639 24.3631C19.8789 24.4823 19.9177 24.5973 19.9779 24.7014L20.2375 24.5511ZM20.161 24.3215L19.6439 20.9603L19.3474 21.0059L19.8645 24.3672L20.161 24.3215ZM19.4956 20.8331H15.7571V21.1331H19.4956V20.8331ZM15.757 20.8331C15.634 20.8331 15.5139 20.7952 15.4131 20.7246L15.2409 20.9703C15.3922 21.0763 15.5724 21.1331 15.7571 21.1331L15.757 20.8331ZM15.4131 20.7246C15.3123 20.6539 15.2357 20.554 15.1936 20.4383L14.9117 20.5407C14.9747 20.7143 15.0897 20.8643 15.2409 20.9703L15.4131 20.7246ZM15.1936 20.4382L13.1953 14.9429L12.9134 15.0454L14.9117 20.5408L15.1936 20.4382ZM13.1954 14.9432C13.1627 14.8527 13.1523 14.7556 13.165 14.6601L12.8676 14.6205C12.8486 14.7636 12.8642 14.9093 12.9133 15.0451L13.1954 14.9432ZM13.165 14.6601C13.1777 14.5647 13.2132 14.4737 13.2685 14.3948L13.0228 14.2227C12.9399 14.3409 12.8867 14.4774 12.8676 14.6205L13.165 14.6601ZM13.2685 14.3948C13.3237 14.316 13.3972 14.2516 13.4825 14.207L13.3438 13.941C13.2158 14.0078 13.1057 14.1044 13.0228 14.2227L13.2685 14.3948ZM13.4825 14.207C13.5679 14.1625 13.6627 14.1392 13.759 14.139L13.7585 13.839C13.6141 13.8393 13.4718 13.8743 13.3438 13.941L13.4825 14.207ZM13.7587 14.139H16.8172V13.839H13.7587V14.139ZM16.9653 14.0129C17.1182 13.0634 17.5661 12.1789 18.2547 11.4903L18.0426 11.2781C17.309 12.0117 16.832 12.9538 16.6691 13.9652L16.9653 14.0129ZM18.2547 11.4903C19.1163 10.6287 20.2845 10.1439 21.503 10.1424L21.5026 9.84238C20.2047 9.84402 18.9604 10.3604 18.0426 11.2781L18.2547 11.4903ZM21.5028 10.1424H28.4969V9.84238H21.5028V10.1424ZM28.4967 10.1424C29.7152 10.1439 30.8834 10.6287 31.745 11.4903L31.9571 11.2781C31.0393 10.3604 29.795 9.84402 28.4971 9.84238L28.4967 10.1424ZM31.745 11.4903C32.4336 12.1789 32.8815 13.0634 33.0344 14.0129L33.3306 13.9652C33.1677 12.9538 32.6907 12.0117 31.9571 11.2781L31.745 11.4903ZM18.344 14.139H31.6557V13.839H18.344V14.139ZM31.8016 13.9543C31.6569 13.347 31.3466 12.7859 30.8979 12.3373L30.6858 12.5494C31.0948 12.9585 31.3778 13.47 31.5098 14.0238L31.8016 13.9543ZM30.8979 12.3373C30.2611 11.7005 29.3977 11.3422 28.4971 11.3411L28.4967 11.6411C29.3179 11.6421 30.1051 11.9688 30.6858 12.5494L30.8979 12.3373ZM28.4969 11.3411H21.5028V11.6411H28.4969V11.3411ZM21.5026 11.3411C20.602 11.3422 19.7386 11.7005 19.1018 12.3373L19.3139 12.5494C19.8946 11.9688 20.6818 11.6421 21.503 11.6411L21.5026 11.3411ZM19.1018 12.3373C18.6532 12.7859 18.3428 13.347 18.1981 13.9543L18.49 14.0238C18.6219 13.47 18.9049 12.9585 19.3139 12.5494L19.1018 12.3373ZM16.2816 19.6344H19.2651V19.3344H16.2816V19.6344ZM14.6869 15.539L16.1406 19.5356L16.4226 19.4331L14.9688 15.4365L14.6869 15.539ZM35.1696 15.3377H14.8278V15.6377H35.1696V15.3377ZM33.8568 19.5356L35.3106 15.539L35.0287 15.4365L33.5749 19.4331L33.8568 19.5356ZM30.7341 19.6344H33.7158V19.3344H30.7341V19.6344ZM30.8372 17.828L30.5859 19.4616L30.8824 19.5072L31.1337 17.8737L30.8372 17.828ZM30.8214 17.5719C30.8451 17.6551 30.8505 17.7424 30.8372 17.8278L31.1337 17.8739C31.1536 17.7456 31.1455 17.6146 31.11 17.4898L30.8214 17.5719ZM30.7001 17.346C30.7564 17.4117 30.7978 17.4888 30.8214 17.5719L31.11 17.4898C31.0745 17.365 31.0124 17.2494 30.928 17.1508L30.7001 17.346ZM30.4955 17.1915C30.5741 17.2276 30.6439 17.2803 30.7001 17.346L30.928 17.1508C30.8435 17.0523 30.7388 16.9732 30.6209 16.9189L30.4955 17.1915ZM30.2451 17.1366C30.3315 17.1366 30.417 17.1553 30.4955 17.1915L30.6209 16.9189C30.5031 16.8647 30.3749 16.8366 30.2451 16.8366L30.2451 17.1366ZM19.754 17.1366H30.2451V16.8366H19.754V17.1366ZM19.5038 17.1914C19.5823 17.1553 19.6676 17.1366 19.754 17.1366L19.7539 16.8366C19.6243 16.8366 19.4962 16.8647 19.3784 16.9189L19.5038 17.1914ZM19.2993 17.3458C19.3555 17.2802 19.4253 17.2275 19.5038 17.1914L19.3784 16.9189C19.2606 16.9731 19.156 17.052 19.0716 17.1505L19.2993 17.3458ZM19.1779 17.5714C19.2016 17.4883 19.243 17.4113 19.2993 17.3458L19.0716 17.1505C18.9872 17.2489 18.925 17.3643 18.8895 17.489L19.1779 17.5714ZM19.1618 17.827C19.1487 17.7417 19.1542 17.6544 19.1779 17.5714L18.8895 17.489C18.8539 17.6136 18.8456 17.7445 18.8653 17.8727L19.1618 17.827ZM19.4133 19.4616L19.1618 17.827L18.8653 17.8727L19.1168 19.5072L19.4133 19.4616Z" fill="#9CADC6"/>
<path d="M19.4271 41.08C19.0378 41.08 18.6804 41.0107 18.3551 40.872C18.0298 40.7333 17.7471 40.536 17.5071 40.28C17.2671 40.0187 17.0804 39.712 16.9471 39.36C16.8191 39.008 16.7551 38.6213 16.7551 38.2C16.7551 37.8 16.8244 37.4293 16.9631 37.088C17.1071 36.7413 17.3044 36.4373 17.5551 36.176C17.8058 35.9147 18.0964 35.712 18.4271 35.568C18.7578 35.424 19.1151 35.352 19.4991 35.352C19.7711 35.352 20.0351 35.3947 20.2911 35.48C20.5524 35.56 20.7871 35.6747 20.9951 35.824C21.2084 35.968 21.3818 36.1333 21.5151 36.32L20.9391 36.92C20.7844 36.7653 20.6271 36.6373 20.4671 36.536C20.3124 36.4293 20.1524 36.3493 19.9871 36.296C19.8271 36.2427 19.6644 36.216 19.4991 36.216C19.2378 36.216 18.9924 36.2667 18.7631 36.368C18.5391 36.464 18.3418 36.6 18.1711 36.776C18.0058 36.952 17.8751 37.1627 17.7791 37.408C17.6831 37.648 17.6351 37.912 17.6351 38.2C17.6351 38.504 17.6804 38.7813 17.7711 39.032C17.8671 39.2773 18.0004 39.488 18.1711 39.664C18.3418 39.84 18.5444 39.976 18.7791 40.072C19.0191 40.1627 19.2831 40.208 19.5711 40.208C19.7471 40.208 19.9204 40.184 20.0911 40.136C20.2618 40.088 20.4218 40.0187 20.5711 39.928C20.7204 39.8373 20.8564 39.7307 20.9791 39.608L21.4111 40.312C21.2884 40.456 21.1204 40.5867 20.9071 40.704C20.6991 40.8213 20.4644 40.9147 20.2031 40.984C19.9471 41.048 19.6884 41.08 19.4271 41.08ZM22.5848 41V35.4H23.4328L25.4728 38.72L25.0648 38.712L27.1288 35.4H27.9288V41H27.0648V38.704C27.0648 38.224 27.0754 37.792 27.0968 37.408C27.1234 37.024 27.1661 36.6427 27.2248 36.264L27.3368 36.56L25.5048 39.392H24.9768L23.2008 36.592L23.2888 36.264C23.3474 36.6213 23.3874 36.9893 23.4088 37.368C23.4354 37.7413 23.4488 38.1867 23.4488 38.704V41H22.5848ZM29.4988 41V35.4H33.0268V36.232H30.3628V40.168H33.0268V41H29.4988ZM29.8908 38.544V37.712H32.5868V38.544H29.8908Z" fill="#747474"/>
</svg>
