<svg width="50" height="42" viewBox="0 0 50 42" fill="none" xmlns="http://www.w3.org/2000/svg">
<path d="M29.2497 24H20.7497C20.5706 23.9999 20.3974 23.9358 20.2615 23.8191C20.1256 23.7025 20.0359 23.541 20.0087 23.364L19.0087 16.864C18.9923 16.7572 18.9991 16.648 19.0288 16.5441C19.0585 16.4401 19.1103 16.3438 19.1807 16.2617C19.2511 16.1797 19.3384 16.1138 19.4366 16.0686C19.5348 16.0235 19.6416 16 19.7497 16H30.2497C30.3579 16 30.4648 16.0235 30.5631 16.0687C30.6614 16.1139 30.7488 16.1799 30.8192 16.2621C30.8896 16.3442 30.9413 16.4407 30.971 16.5448C31.0006 16.6488 31.0073 16.7581 30.9907 16.865L29.9907 23.365C29.9633 23.5418 29.8735 23.703 29.7376 23.8195C29.6017 23.9359 29.4287 24 29.2497 24Z" fill="#3B5D8F"/>
<path d="M24.999 8C27.2082 8 28.999 6.20914 28.999 4C28.999 1.79086 27.2082 0 24.999 0C22.7899 0 20.999 1.79086 20.999 4C20.999 6.20914 22.7899 8 24.999 8Z" fill="#3B5D8F"/>
<path d="M36.2163 13C36.1344 11.8972 35.802 10.8278 35.2443 9.87292C34.6867 8.91809 33.9185 8.10308 32.9983 7.48995C32.9961 7.19396 32.9064 6.90523 32.7403 6.66017C32.5743 6.41511 32.3394 6.2247 32.0654 6.11293C31.7913 6.00116 31.4902 5.97303 31.2002 6.03211C30.9101 6.09119 30.6441 6.23481 30.4355 6.44488C30.227 6.65495 30.0853 6.92206 30.0283 7.21254C29.9714 7.50301 30.0017 7.80384 30.1155 8.07711C30.2293 8.35037 30.4214 8.58384 30.6677 8.74807C30.9139 8.9123 31.2033 8.99995 31.4993 8.99995C31.7733 8.99995 32.0263 8.92095 32.2473 8.79295C32.9414 9.27104 33.5222 9.89552 33.9488 10.6224C34.3754 11.3493 34.6374 12.1609 34.7163 13H32.9393C32.5793 10.74 30.6193 8.99995 28.2493 8.99995H21.7493C19.3793 8.99995 17.4193 10.74 17.0593 13H13.7493C13.2183 13 12.8753 13.538 13.0393 14.01L15.0393 19.51C15.1493 19.8 15.4293 20 15.7493 20H17.4693L17.0293 17.17C16.9093 16.37 17.1393 15.57 17.6593 14.96C18.1053 14.425 18.8943 14 19.7493 14H30.2493C30.6461 14.0009 31.0381 14.0872 31.3986 14.2528C31.7592 14.4184 32.08 14.6596 32.3393 14.96C32.8593 15.57 33.0893 16.37 32.9693 17.17L32.5293 20H34.2493C34.5693 20 34.8493 19.8 34.9593 19.51L36.9593 14.01C37 13.8934 37.0117 13.7686 36.9933 13.6465C36.9749 13.5244 36.9271 13.4086 36.8539 13.3092C36.7808 13.2097 36.6845 13.1296 36.5734 13.0757C36.4623 13.0218 36.3397 12.9958 36.2163 13Z" fill="#3B5D8F"/>
<path d="M19.4271 40.08C19.0378 40.08 18.6804 40.0107 18.3551 39.872C18.0298 39.7333 17.7471 39.536 17.5071 39.28C17.2671 39.0187 17.0804 38.712 16.9471 38.36C16.8191 38.008 16.7551 37.6213 16.7551 37.2C16.7551 36.8 16.8244 36.4293 16.9631 36.088C17.1071 35.7413 17.3044 35.4373 17.5551 35.176C17.8058 34.9147 18.0964 34.712 18.4271 34.568C18.7578 34.424 19.1151 34.352 19.4991 34.352C19.7711 34.352 20.0351 34.3947 20.2911 34.48C20.5524 34.56 20.7871 34.6747 20.9951 34.824C21.2084 34.968 21.3818 35.1333 21.5151 35.32L20.9391 35.92C20.7844 35.7653 20.6271 35.6373 20.4671 35.536C20.3124 35.4293 20.1524 35.3493 19.9871 35.296C19.8271 35.2427 19.6644 35.216 19.4991 35.216C19.2378 35.216 18.9924 35.2667 18.7631 35.368C18.5391 35.464 18.3418 35.6 18.1711 35.776C18.0058 35.952 17.8751 36.1627 17.7791 36.408C17.6831 36.648 17.6351 36.912 17.6351 37.2C17.6351 37.504 17.6804 37.7813 17.7711 38.032C17.8671 38.2773 18.0004 38.488 18.1711 38.664C18.3418 38.84 18.5444 38.976 18.7791 39.072C19.0191 39.1627 19.2831 39.208 19.5711 39.208C19.7471 39.208 19.9204 39.184 20.0911 39.136C20.2618 39.088 20.4218 39.0187 20.5711 38.928C20.7204 38.8373 20.8564 38.7307 20.9791 38.608L21.4111 39.312C21.2884 39.456 21.1204 39.5867 20.9071 39.704C20.6991 39.8213 20.4644 39.9147 20.2031 39.984C19.9471 40.048 19.6884 40.08 19.4271 40.08ZM22.5848 40V34.4H23.4328L25.4728 37.72L25.0648 37.712L27.1288 34.4H27.9288V40H27.0648V37.704C27.0648 37.224 27.0754 36.792 27.0968 36.408C27.1234 36.024 27.1661 35.6427 27.2248 35.264L27.3368 35.56L25.5048 38.392H24.9768L23.2008 35.592L23.2888 35.264C23.3474 35.6213 23.3874 35.9893 23.4088 36.368C23.4354 36.7413 23.4488 37.1867 23.4488 37.704V40H22.5848ZM29.4988 40V34.4H33.0268V35.232H30.3628V39.168H33.0268V40H29.4988ZM29.8908 37.544V36.712H32.5868V37.544H29.8908Z" fill="#747474"/>
</svg>
