<svg width="16" height="16" viewBox="0 0 16 16" fill="none" xmlns="http://www.w3.org/2000/svg">
<path fill-rule="evenodd" clip-rule="evenodd" d="M8 16C12.4183 16 16 12.4183 16 8C16 3.58172 12.4183 0 8 0C3.58172 0 0 3.58172 0 8C0 12.4183 3.58172 16 8 16ZM3.66406 7.72793C3.66406 5.29781 5.63394 3.32793 8.06406 3.32793C10.4942 3.32793 12.4641 5.29781 12.4641 7.72793C12.4641 10.158 10.4942 12.1279 8.06406 12.1279H4.48334C4.36969 12.128 4.25796 12.0986 4.15897 12.0428C4.05998 11.987 3.97708 11.9065 3.91831 11.8092C3.85954 11.712 3.82688 11.6012 3.8235 11.4876C3.82012 11.374 3.84614 11.2614 3.89902 11.1608L4.27478 10.3525C4.33858 10.2148 4.32582 10.0547 4.2497 9.92265C3.87746 9.27673 3.66406 8.52653 3.66406 7.72793ZM6.43294 6.5368C6.51545 6.45429 6.62737 6.40793 6.74406 6.40793H7.62406C7.74076 6.40793 7.85267 6.45429 7.93519 6.5368C8.0177 6.61932 8.06406 6.73123 8.06406 6.84793C8.06406 6.96462 8.0177 7.07654 7.93519 7.15906C7.85267 7.24157 7.74076 7.28793 7.62406 7.28793H6.74406C6.62737 7.28793 6.51545 7.24157 6.43294 7.15906C6.35042 7.07654 6.30406 6.96462 6.30406 6.84793C6.30406 6.73123 6.35042 6.61932 6.43294 6.5368ZM6.43294 8.2968C6.51545 8.21429 6.62737 8.16793 6.74406 8.16793H9.38406C9.50076 8.16793 9.61267 8.21429 9.69519 8.2968C9.77771 8.37932 9.82406 8.49123 9.82406 8.60793C9.82406 8.72462 9.77771 8.83654 9.69519 8.91906C9.61267 9.00157 9.50076 9.04793 9.38406 9.04793H6.74406C6.62737 9.04793 6.51545 9.00157 6.43294 8.91906C6.35042 8.83654 6.30406 8.72462 6.30406 8.60793C6.30406 8.49123 6.35042 8.37932 6.43294 8.2968Z" fill="#A3B8E0"/>
</svg>
