<svg width="20" height="20" viewBox="0 0 20 20" fill="none" xmlns="http://www.w3.org/2000/svg">
<path d="M1.79463 19.9991C1.51071 19.9977 1.23113 19.9292 0.978696 19.7993C0.726265 19.6693 0.50813 19.4815 0.342083 19.2512C0.176037 19.0209 0.0667804 18.7546 0.0232252 18.474C-0.0203299 18.1934 0.00304979 17.9065 0.0914575 17.6367L0.952255 15.0779C1.05352 14.792 1.04366 14.4786 0.924619 14.1997C-0.0615309 12.0686 -0.266308 9.65854 0.34617 7.39167C0.958648 5.1248 2.34931 3.14576 4.27449 1.80132C6.19967 0.456885 8.53656 -0.167196 10.8757 0.0384314C13.2148 0.244059 15.407 1.26628 17.0681 2.92598C18.7292 4.58568 19.7532 6.77699 19.9608 9.11595C20.1684 11.4549 19.5463 13.7923 18.2035 15.7186C16.8607 17.6449 14.8828 19.0373 12.6164 19.6516C10.3501 20.266 7.9398 20.0633 5.80793 19.0789C5.52364 18.9565 5.20339 18.9469 4.91233 19.0523L2.36474 19.908C2.18079 19.9686 1.98831 19.9994 1.79463 19.9991ZM9.98295 1.57534C8.56634 1.57247 7.17185 1.92665 5.9283 2.60516C4.68475 3.28366 3.63224 4.26461 2.86799 5.45739C2.10375 6.65017 1.65242 8.01631 1.5557 9.42962C1.45897 10.8429 1.71997 12.2578 2.31459 13.5436C2.59992 14.177 2.6343 14.895 2.4108 15.5528L1.54796 18.1239C1.5323 18.1691 1.53015 18.2178 1.54179 18.2642C1.55343 18.3106 1.57833 18.3525 1.61346 18.3849C1.64635 18.42 1.68866 18.4449 1.73533 18.4565C1.78199 18.4681 1.83101 18.466 1.87651 18.4504L4.43536 17.5917C5.09905 17.3635 5.82492 17.3979 6.46402 17.6879C7.61066 18.2139 8.86062 18.4762 10.122 18.4554C11.3833 18.4347 12.624 18.1315 13.7527 17.568C14.8814 17.0046 15.8695 16.1953 16.6442 15.1997C17.419 14.2041 17.9607 13.0475 18.2295 11.8149C18.4983 10.5824 18.4874 9.30523 18.1976 8.07745C17.9077 6.84966 17.3464 5.70246 16.5547 4.72022C15.7631 3.73798 14.7614 2.94569 13.6232 2.40163C12.485 1.85756 11.2394 1.57556 9.97783 1.57636L9.98295 1.57534ZM14.8396 7.97349C14.8396 7.76989 14.7588 7.57464 14.6148 7.43067C14.4708 7.28671 14.2756 7.20583 14.072 7.20583H5.88367C5.68008 7.20583 5.48482 7.28671 5.34086 7.43067C5.19689 7.57464 5.11602 7.76989 5.11602 7.97349C5.11602 8.17708 5.19689 8.37234 5.34086 8.5163C5.48482 8.66026 5.68008 8.74114 5.88367 8.74114H14.072C14.2756 8.74114 14.4708 8.66026 14.6148 8.5163C14.7588 8.37234 14.8396 8.17708 14.8396 7.97349ZM11.769 12.0676C11.769 11.8641 11.6882 11.6688 11.5442 11.5248C11.4002 11.3809 11.205 11.3 11.0014 11.3H5.88367C5.68008 11.3 5.48482 11.3809 5.34086 11.5248C5.19689 11.6688 5.11602 11.8641 5.11602 12.0676C5.11602 12.2712 5.19689 12.4665 5.34086 12.6105C5.48482 12.7544 5.68008 12.8353 5.88367 12.8353H11.0014C11.205 12.8353 11.4002 12.7544 11.5442 12.6105C11.6882 12.4665 11.769 12.2712 11.769 12.0676Z" fill="#3B5D8F"/>
</svg>
