<svg width="40" height="40" viewBox="0 0 40 40" fill="none" xmlns="http://www.w3.org/2000/svg">
<path d="M20.0009 22.1495C20.0009 18.8633 17.337 16.1993 14.0508 16.1993L13.2695 21.7124L14.0508 34.924H20.0009V22.1495Z" fill="#5E81AB"/>
<path d="M8.09766 22.1495V34.924H14.0478V16.1993C10.7616 16.1993 8.09766 18.8633 8.09766 22.1495Z" fill="#9CAEC6"/>
<path d="M31.8994 22.1495C31.8994 18.8633 29.2354 16.1993 25.9492 16.1993L25.168 21.7124L25.9492 34.924H31.8994V22.1495Z" fill="#5E81AB"/>
<path d="M20 22.1495V34.924H25.9502V16.1993C22.664 16.1993 20 18.8633 20 22.1495Z" fill="#9CAEC6"/>
<path d="M18.8281 1.17187C18.8281 0.524666 19.3528 0 20 0C20.6472 0 21.1719 0.524666 21.1719 1.17188V2.34375C21.1719 2.99096 20.6472 3.51562 20 3.51562C19.3528 3.51562 18.8281 2.99096 18.8281 2.34375V1.17187Z" fill="white"/>
<path d="M13.0652 2.45574C12.8652 1.84024 13.2021 1.17916 13.8176 0.979175C14.4331 0.779187 15.0942 1.11602 15.2941 1.73152L15.6562 2.84597C15.8562 3.46147 15.5194 4.12255 14.9039 4.32253C14.2884 4.52252 13.6273 4.18569 13.4273 3.57019L13.0652 2.45574Z" fill="white"/>
<path d="M7.98594 5.45483C7.60538 4.93124 7.72133 4.19828 8.24492 3.81772C8.76851 3.43717 9.50147 3.55312 9.88203 4.07671L10.5711 5.02476C10.9517 5.54835 10.8357 6.28131 10.3121 6.66186C9.78852 7.04242 9.05556 6.92647 8.675 6.40288L7.98594 5.45483Z" fill="#FFDA44"/>
<path d="M7.98719 5.45483C7.60663 4.93124 7.72258 4.19828 8.24617 3.81772C8.76976 3.43717 9.50272 3.55312 9.88328 4.07671L10.5723 5.02476C10.9529 5.54835 10.837 6.28131 10.3134 6.66187C9.78977 7.04242 9.05681 6.92647 8.67625 6.40288L7.98719 5.45483ZM4.08086 9.88311C3.55727 9.50256 3.44132 8.7696 3.82188 8.24601C4.20243 7.72241 4.93539 7.60646 5.45898 7.98702L6.40703 8.67608C6.93062 9.05664 7.04657 9.7896 6.66602 10.3132C6.28546 10.8368 5.5525 10.9527 5.02891 10.5722L4.08086 9.88311Z" fill="white"/>
<path d="M4.08086 9.88313C3.55727 9.50257 3.44132 8.76961 3.82188 8.24602C4.20243 7.72243 4.93539 7.60648 5.45898 7.98704L6.40703 8.6761C6.93062 9.05666 7.04657 9.78962 6.66602 10.3132C6.28546 10.8368 5.5525 10.9528 5.02891 10.5722L4.08086 9.88313ZM1.73164 15.2964C1.11614 15.0964 0.779309 14.4353 0.979297 13.8198C1.17928 13.2044 1.84036 12.8675 2.45586 13.0675L3.57031 13.4296C4.18581 13.6296 4.52264 14.2907 4.32266 14.9062C4.12267 15.5217 3.46159 15.8585 2.84609 15.6585L1.73164 15.2964Z" fill="white"/>
<path d="M1.73039 15.2961C1.11489 15.0961 0.778059 14.435 0.978047 13.8195C1.17803 13.204 1.83911 12.8672 2.45461 13.0672L3.56906 13.4293C4.18456 13.6293 4.52139 14.2904 4.32141 14.9059C4.12142 15.5214 3.46034 15.8582 2.84484 15.6582L1.73039 15.2961ZM0 19.9998C0 19.3526 0.524666 18.8279 1.17188 18.8279H2.34375C2.99096 18.8279 3.51562 19.3526 3.51562 19.9998C3.51562 20.647 2.99096 21.1716 2.34375 21.1716H1.17187C0.524666 21.1716 0 20.647 0 19.9998Z" fill="white"/>
<path d="M36.4844 20.0001C36.4844 19.3529 37.009 18.8282 37.6562 18.8282H38.8281C39.4753 18.8282 40 19.3529 40 20.0001C40 20.6473 39.4753 21.172 38.8281 21.172H37.6562C37.009 21.172 36.4844 20.6473 36.4844 20.0001Z" fill="white"/>
<path d="M35.6746 14.906C35.4746 14.2905 35.8115 13.6294 36.427 13.4294L37.5414 13.0673C38.1569 12.8673 38.818 13.2042 39.018 13.8197C39.218 14.4351 38.8811 15.0962 38.2656 15.2962L37.1512 15.6583C36.5357 15.8583 35.8746 15.5215 35.6746 14.906Z" fill="#FFB655"/>
<path d="M35.6712 14.9059C35.4713 14.2904 35.8081 13.6293 36.4236 13.4293L37.538 13.0672C38.1535 12.8672 38.8146 13.2041 39.0146 13.8196C39.2146 14.4351 38.8778 15.0962 38.2623 15.2961L37.1478 15.6583C36.5323 15.8582 35.8712 15.5214 35.6712 14.9059ZM33.3336 10.3036C32.953 9.77997 33.069 9.04701 33.5926 8.66646L34.5406 7.97739C35.0642 7.59683 35.7972 7.71279 36.1777 8.23638C36.5583 8.75997 36.4423 9.49293 35.9187 9.87349L34.9707 10.5625C34.4471 10.9431 33.7142 10.8272 33.3336 10.3036Z" fill="white"/>
<path d="M33.3366 10.304C32.956 9.78042 33.072 9.04746 33.5955 8.6669L34.5436 7.97784C35.0672 7.59728 35.8001 7.71323 36.1807 8.23682C36.5613 8.76041 36.4453 9.49337 35.9217 9.87393L34.9737 10.563C34.4501 10.9436 33.7171 10.8276 33.3366 10.304ZM29.6941 6.66565C29.1705 6.28509 29.0546 5.55213 29.4352 5.02854L30.1242 4.08049C30.5048 3.5569 31.2377 3.44095 31.7613 3.82151C32.2849 4.20207 32.4009 4.93503 32.0203 5.45862L31.3313 6.40667C30.9507 6.93026 30.2177 7.04621 29.6941 6.66565Z" fill="white"/>
<path d="M29.693 6.66544C29.1694 6.28488 29.0534 5.55192 29.434 5.02833L30.123 4.08028C30.5036 3.55669 31.2366 3.44074 31.7602 3.8213C32.2837 4.20186 32.3997 4.93482 32.0191 5.45841L31.3301 6.40646C30.9495 6.93005 30.2166 7.046 29.693 6.66544ZM25.091 4.32388C24.4755 4.12389 24.1387 3.46281 24.3387 2.84731L24.7008 1.73286C24.9008 1.11737 25.5619 0.78053 26.1773 0.980517C26.7928 1.18051 27.1297 1.84158 26.9297 2.45708L26.5676 3.57153C26.3676 4.18703 25.7065 4.52386 25.091 4.32388Z" fill="white"/>
<path d="M25.091 4.32388C24.4755 4.12389 24.1387 3.46281 24.3387 2.84731L24.7008 1.73286C24.9008 1.11737 25.5619 0.78053 26.1773 0.980517C26.7928 1.18051 27.1297 1.84158 26.9297 2.45708L26.5676 3.57153C26.3676 4.18703 25.7065 4.52386 25.091 4.32388Z" fill="white"/>
<path d="M17.463 12.7872C17.463 10.9027 15.9353 9.375 14.0508 9.375L13.2695 12.7872L14.0508 16.1994C15.9352 16.1994 17.463 14.6716 17.463 12.7872Z" fill="#5E81AB"/>
<path d="M10.6367 12.7872C10.6367 14.6717 12.1644 16.1994 14.0489 16.1994V9.375C12.1644 9.375 10.6367 10.9027 10.6367 12.7872Z" fill="#9CAEC6"/>
<path d="M29.3614 12.7872C29.3614 10.9027 27.8338 9.375 25.9492 9.375L25.168 12.7872L25.9492 16.1994C27.8338 16.1994 29.3614 14.6716 29.3614 12.7872Z" fill="#5E81AB"/>
<path d="M22.5391 12.7872C22.5391 14.6717 24.0667 16.1994 25.9512 16.1994V9.375C24.0668 9.375 22.5391 10.9027 22.5391 12.7872Z" fill="#9CAEC6"/>
<path d="M35.3145 25.5618C35.3145 23.6773 33.7869 22.1497 31.9023 22.1497L31.1211 25.5618L31.9023 28.974C33.7869 28.974 35.3145 27.4463 35.3145 25.5618Z" fill="#5E81AB"/>
<path d="M28.4883 25.5618C28.4883 27.4464 30.0159 28.974 31.9005 28.974V22.1497C30.016 22.1497 28.4883 23.6773 28.4883 25.5618Z" fill="#9CAEC6"/>
<path d="M37.8525 34.9242C37.8525 31.638 35.1885 28.974 31.9023 28.974L31.1211 34.487L31.9023 40.0001H37.8525V34.9242Z" fill="#5E81AB"/>
<path d="M25.9492 34.9242L25.168 37.6564L25.9492 40.0002H31.8994V28.974C28.6132 28.974 25.9492 31.638 25.9492 34.9242Z" fill="#9CAEC6"/>
<path d="M23.4122 25.5618C23.4122 23.6773 21.8845 22.1497 20 22.1497L19.2188 25.5618L20 28.974C21.8845 28.974 23.4122 27.4463 23.4122 25.5618Z" fill="#5E81AB"/>
<path d="M16.5898 25.5618C16.5898 27.4464 18.1175 28.974 20.002 28.974V22.1497C18.1175 22.1497 16.5898 23.6773 16.5898 25.5618Z" fill="#9CAEC6"/>
<path d="M25.9502 34.9242C25.9502 31.638 23.2862 28.974 20 28.974L19.2188 34.487L20 40.0001H25.9502V34.9242Z" fill="#5E81AB"/>
<path d="M14.0508 34.9242L13.2695 37.6564L14.0508 40.0002H20.0009V28.974C16.7148 28.974 14.0508 31.638 14.0508 34.9242Z" fill="#9CAEC6"/>
<path d="M11.5098 25.5618C11.5098 23.6773 9.98219 22.1497 8.09766 22.1497L7.31641 25.5618L8.09766 28.974C9.98211 28.974 11.5098 27.4463 11.5098 25.5618Z" fill="#5E81AB"/>
<path d="M4.6875 25.5618C4.6875 27.4464 6.21516 28.974 8.09969 28.974V22.1497C6.21516 22.1497 4.6875 23.6773 4.6875 25.5618Z" fill="#9CAEC6"/>
<path d="M14.0478 34.9242C14.0478 31.638 11.3838 28.974 8.09766 28.974L7.31641 34.487L8.09766 40.0001H14.0478V34.9242Z" fill="#5E81AB"/>
<path d="M2.14844 34.9242V40.0002H8.09859V28.974C4.81242 28.974 2.14844 31.638 2.14844 34.9242Z" fill="#9CAEC6"/>
</svg>
