<svg width="50" height="43" viewBox="0 0 50 43" fill="none" xmlns="http://www.w3.org/2000/svg">
<path d="M37.5999 10.3143C38.0983 9.93695 38.5027 9.44935 38.7813 8.88967C39.0599 8.32999 39.2052 7.71343 39.2058 7.08824C39.2058 4.84979 37.3854 3.02941 35.147 3.02941C32.9086 3.02941 31.0882 4.84979 31.0882 7.08824C31.0888 7.71547 31.235 8.33399 31.5154 8.8951C31.7957 9.45621 32.2024 9.94459 32.7036 10.3218C32.6001 10.3678 32.4939 10.407 32.3938 10.4591C32.2396 10.5444 32.1248 10.6865 32.0738 10.8552C32.0228 11.0239 32.0396 11.2058 32.1207 11.3623C32.2018 11.5187 32.3408 11.6373 32.508 11.6929C32.6752 11.7485 32.8575 11.7366 33.0161 11.6598C33.6753 11.3214 34.406 11.1455 35.147 11.1471C37.7575 11.1471 39.8823 13.2712 39.8823 15.8824V18.5882C39.8823 19.7071 38.9718 20.6176 37.8529 20.6176H34.4299C34.2505 20.6176 34.0785 20.6889 33.9516 20.8158C33.8247 20.9426 33.7535 21.1147 33.7535 21.2941C33.7535 21.4735 33.8247 21.6456 33.9516 21.7725C34.0785 21.8993 34.2505 21.9706 34.4299 21.9706H37.8529C39.7179 21.9706 41.2352 20.4533 41.2352 18.5882V15.8824C41.2352 13.3984 39.7382 11.26 37.5999 10.3143ZM32.4411 7.08824C32.4411 5.59594 33.6547 4.38235 35.147 4.38235C36.6393 4.38235 37.8529 5.59594 37.8529 7.08824C37.8529 8.58053 36.6393 9.79412 35.147 9.79412C33.6547 9.79412 32.4411 8.58053 32.4411 7.08824ZM17.8956 11.371C17.9365 11.2921 17.9614 11.2059 17.969 11.1174C17.9766 11.0289 17.9666 10.9397 17.9398 10.8551C17.9129 10.7704 17.8696 10.6918 17.8123 10.6239C17.7551 10.5559 17.685 10.4999 17.6061 10.4591C17.506 10.407 17.3998 10.3678 17.2963 10.3218C17.7975 9.94466 18.2043 9.4563 18.4847 8.89518C18.765 8.33405 18.9112 7.71549 18.9117 7.08824C18.9117 4.84979 17.0913 3.02941 14.8529 3.02941C12.6144 3.02941 10.7941 4.84979 10.7941 7.08824C10.7941 8.40397 11.4266 9.57223 12.4 10.3143C10.2617 11.26 8.76465 13.3984 8.76465 15.8824V18.5882C8.76465 20.4533 10.282 21.9706 12.147 21.9706H15.5699C15.7494 21.9706 15.9214 21.8993 16.0483 21.7725C16.1751 21.6456 16.2464 21.4735 16.2464 21.2941C16.2464 21.1147 16.1751 20.9426 16.0483 20.8158C15.9214 20.6889 15.7494 20.6176 15.5699 20.6176H12.147C11.0281 20.6176 10.1176 19.7071 10.1176 18.5882V15.8824C10.1176 13.2712 12.2424 11.1471 14.8529 11.1471C15.5997 11.1471 16.3371 11.3243 16.9838 11.6598C17.1431 11.7419 17.3284 11.7575 17.4993 11.7034C17.6701 11.6493 17.8126 11.5298 17.8956 11.371ZM12.147 7.08824C12.147 5.59594 13.3606 4.38235 14.8529 4.38235C16.3452 4.38235 17.5588 5.59594 17.5588 7.08824C17.5588 8.58053 16.3452 9.79412 14.8529 9.79412C13.3606 9.79412 12.147 8.58053 12.147 7.08824ZM27.6889 9.62838C28.3197 9.19359 28.8354 8.61215 29.1919 7.93403C29.5483 7.25591 29.7348 6.50139 29.7352 5.73529C29.7352 3.12412 27.6104 1 24.9999 1C22.3894 1 20.2646 3.12412 20.2646 5.73529C20.2646 7.348 21.0764 8.77265 22.311 9.62838C19.5347 10.7094 17.5588 13.4051 17.5588 16.5588V20.6176C17.5588 22.4827 19.0761 24 20.9411 24H29.0588C30.9238 24 32.4411 22.4827 32.4411 20.6176V16.5588C32.4411 13.4044 30.4651 10.7094 27.6889 9.62838ZM21.6176 5.73529C21.6176 3.87026 23.1349 2.35294 24.9999 2.35294C26.865 2.35294 28.3823 3.87026 28.3823 5.73529C28.3823 7.60032 26.865 9.11765 24.9999 9.11765C23.1349 9.11765 21.6176 7.60032 21.6176 5.73529ZM31.0882 20.6176C31.0882 21.7365 30.1776 22.6471 29.0588 22.6471H20.9411C19.8222 22.6471 18.9117 21.7365 18.9117 20.6176V16.5588C18.9117 13.2022 21.6426 10.4706 24.9999 10.4706C28.3573 10.4706 31.0882 13.2022 31.0882 16.5588V20.6176Z" fill="#9CADC6" stroke="#9CADC6" stroke-width="0.575"/>
<path d="M12.1029 41.08C11.7135 41.08 11.3562 41.0107 11.0309 40.872C10.7055 40.7333 10.4229 40.536 10.1829 40.28C9.94288 40.0187 9.75621 39.712 9.62288 39.36C9.49488 39.008 9.43088 38.6213 9.43088 38.2C9.43088 37.8 9.50021 37.4293 9.63888 37.088C9.78288 36.7413 9.98021 36.4373 10.2309 36.176C10.4815 35.9147 10.7722 35.712 11.1029 35.568C11.4335 35.424 11.7909 35.352 12.1749 35.352C12.4469 35.352 12.7109 35.3947 12.9669 35.48C13.2282 35.56 13.4629 35.6747 13.6709 35.824C13.8842 35.968 14.0575 36.1333 14.1909 36.32L13.6149 36.92C13.4602 36.7653 13.3029 36.6373 13.1429 36.536C12.9882 36.4293 12.8282 36.3493 12.6629 36.296C12.5029 36.2427 12.3402 36.216 12.1749 36.216C11.9135 36.216 11.6682 36.2667 11.4389 36.368C11.2149 36.464 11.0175 36.6 10.8469 36.776C10.6815 36.952 10.5509 37.1627 10.4549 37.408C10.3589 37.648 10.3109 37.912 10.3109 38.2C10.3109 38.504 10.3562 38.7813 10.4469 39.032C10.5429 39.2773 10.6762 39.488 10.8469 39.664C11.0175 39.84 11.2202 39.976 11.4549 40.072C11.6949 40.1627 11.9589 40.208 12.2469 40.208C12.4229 40.208 12.5962 40.184 12.7669 40.136C12.9375 40.088 13.0975 40.0187 13.2469 39.928C13.3962 39.8373 13.5322 39.7307 13.6549 39.608L14.0869 40.312C13.9642 40.456 13.7962 40.5867 13.5829 40.704C13.3749 40.8213 13.1402 40.9147 12.8789 40.984C12.6229 41.048 12.3642 41.08 12.1029 41.08ZM16.9406 41.08C16.5299 41.08 16.1619 40.9867 15.8366 40.8C15.5166 40.608 15.2632 40.3493 15.0766 40.024C14.8899 39.6933 14.7966 39.3173 14.7966 38.896C14.7966 38.4747 14.8899 38.1013 15.0766 37.776C15.2632 37.4453 15.5166 37.1867 15.8366 37C16.1619 36.808 16.5299 36.712 16.9406 36.712C17.3459 36.712 17.7086 36.808 18.0286 37C18.3539 37.1867 18.6099 37.4453 18.7966 37.776C18.9832 38.1013 19.0766 38.4747 19.0766 38.896C19.0766 39.3173 18.9832 39.6933 18.7966 40.024C18.6099 40.3493 18.3539 40.608 18.0286 40.8C17.7086 40.9867 17.3459 41.08 16.9406 41.08ZM16.9406 40.328C17.1912 40.328 17.4152 40.2667 17.6126 40.144C17.8099 40.016 17.9646 39.8453 18.0766 39.632C18.1886 39.4133 18.2419 39.168 18.2366 38.896C18.2419 38.6187 18.1886 38.3733 18.0766 38.16C17.9646 37.9413 17.8099 37.7707 17.6126 37.648C17.4152 37.5253 17.1912 37.464 16.9406 37.464C16.6899 37.464 16.4632 37.528 16.2606 37.656C16.0632 37.7787 15.9086 37.9493 15.7966 38.168C15.6846 38.3813 15.6312 38.624 15.6366 38.896C15.6312 39.168 15.6846 39.4133 15.7966 39.632C15.9086 39.8453 16.0632 40.016 16.2606 40.144C16.4632 40.2667 16.6899 40.328 16.9406 40.328ZM19.9744 41V36.8H20.7984V37.664L20.6544 37.76C20.7078 37.5733 20.8118 37.4027 20.9664 37.248C21.1211 37.088 21.3051 36.96 21.5184 36.864C21.7318 36.7627 21.9504 36.712 22.1744 36.712C22.4944 36.712 22.7611 36.776 22.9744 36.904C23.1878 37.0267 23.3478 37.216 23.4544 37.472C23.5611 37.728 23.6144 38.0507 23.6144 38.44V41H22.7904V38.496C22.7904 38.256 22.7584 38.0587 22.6944 37.904C22.6304 37.744 22.5318 37.6293 22.3984 37.56C22.2651 37.4853 22.0998 37.4533 21.9024 37.464C21.7424 37.464 21.5958 37.4907 21.4624 37.544C21.3291 37.592 21.2118 37.6613 21.1104 37.752C21.0144 37.8427 20.9371 37.9493 20.8784 38.072C20.8251 38.1893 20.7984 38.3173 20.7984 38.456V41H20.3904C20.3211 41 20.2518 41 20.1824 41C20.1131 41 20.0438 41 19.9744 41ZM24.7323 41V36.8H25.5563V37.664L25.4123 37.76C25.4656 37.5733 25.5696 37.4027 25.7243 37.248C25.8789 37.088 26.0629 36.96 26.2763 36.864C26.4896 36.7627 26.7083 36.712 26.9323 36.712C27.2523 36.712 27.5189 36.776 27.7323 36.904C27.9456 37.0267 28.1056 37.216 28.2123 37.472C28.3189 37.728 28.3723 38.0507 28.3723 38.44V41H27.5483V38.496C27.5483 38.256 27.5163 38.0587 27.4523 37.904C27.3883 37.744 27.2896 37.6293 27.1563 37.56C27.0229 37.4853 26.8576 37.4533 26.6603 37.464C26.5003 37.464 26.3536 37.4907 26.2203 37.544C26.0869 37.592 25.9696 37.6613 25.8683 37.752C25.7723 37.8427 25.6949 37.9493 25.6363 38.072C25.5829 38.1893 25.5563 38.3173 25.5563 38.456V41H25.1483C25.0789 41 25.0096 41 24.9403 41C24.8709 41 24.8016 41 24.7323 41ZM31.4501 41.08C31.0181 41.08 30.6341 40.9893 30.2981 40.808C29.9674 40.6213 29.7061 40.368 29.5141 40.048C29.3274 39.728 29.2341 39.36 29.2341 38.944C29.2341 38.6133 29.2874 38.312 29.3941 38.04C29.5007 37.768 29.6474 37.5333 29.8341 37.336C30.0261 37.1333 30.2527 36.9787 30.5141 36.872C30.7807 36.76 31.0687 36.704 31.3781 36.704C31.6501 36.704 31.9034 36.7573 32.1381 36.864C32.3727 36.9653 32.5754 37.1067 32.7461 37.288C32.9221 37.4693 33.0554 37.6853 33.1461 37.936C33.2421 38.1813 33.2874 38.4507 33.2821 38.744L33.2741 39.096H29.8421L29.6581 38.44H32.5621L32.4421 38.576V38.384C32.4261 38.208 32.3674 38.0507 32.2661 37.912C32.1647 37.7733 32.0367 37.664 31.8821 37.584C31.7274 37.504 31.5594 37.464 31.3781 37.464C31.0901 37.464 30.8474 37.52 30.6501 37.632C30.4527 37.7387 30.3034 37.8987 30.2021 38.112C30.1007 38.32 30.0501 38.5787 30.0501 38.888C30.0501 39.1813 30.1114 39.4373 30.2341 39.656C30.3567 39.8693 30.5301 40.0347 30.7541 40.152C30.9781 40.2693 31.2367 40.328 31.5301 40.328C31.7381 40.328 31.9301 40.2933 32.1061 40.224C32.2874 40.1547 32.4821 40.0293 32.6901 39.848L33.1061 40.432C32.9781 40.56 32.8207 40.672 32.6341 40.768C32.4527 40.864 32.2581 40.9413 32.0501 41C31.8474 41.0533 31.6474 41.08 31.4501 41.08ZM35.9616 41.08C35.5722 41.08 35.2229 40.984 34.9136 40.792C34.6096 40.6 34.3669 40.3387 34.1856 40.008C34.0096 39.6773 33.9216 39.3067 33.9216 38.896C33.9216 38.4853 34.0096 38.1147 34.1856 37.784C34.3669 37.4533 34.6096 37.192 34.9136 37C35.2229 36.808 35.5722 36.712 35.9616 36.712C36.3349 36.712 36.6736 36.7893 36.9776 36.944C37.2869 37.0933 37.5216 37.2987 37.6816 37.56L37.2256 38.12C37.1402 37.9973 37.0309 37.8853 36.8976 37.784C36.7642 37.6827 36.6229 37.6027 36.4736 37.544C36.3242 37.4853 36.1802 37.456 36.0416 37.456C35.7856 37.456 35.5562 37.52 35.3536 37.648C35.1562 37.7707 34.9989 37.9413 34.8816 38.16C34.7642 38.3787 34.7056 38.624 34.7056 38.896C34.7056 39.168 34.7669 39.4133 34.8896 39.632C35.0122 39.8453 35.1749 40.016 35.3776 40.144C35.5802 40.272 35.8042 40.336 36.0496 40.336C36.1936 40.336 36.3322 40.312 36.4656 40.264C36.6042 40.216 36.7376 40.144 36.8656 40.048C36.9936 39.952 37.1136 39.8347 37.2256 39.696L37.6816 40.256C37.5109 40.496 37.2656 40.6933 36.9456 40.848C36.6309 41.0027 36.3029 41.08 35.9616 41.08ZM38.9788 41V35.728H39.8028V41H38.9788ZM38.1068 37.6V36.8H40.7788V37.6H38.1068Z" fill="#747474"/>
</svg>
