<svg width="50" height="42" viewBox="0 0 50 42" fill="none" xmlns="http://www.w3.org/2000/svg">
<path d="M25.0001 9.34752C27.5814 9.34752 29.6739 7.25495 29.6739 4.67364C29.6739 2.09232 27.5814 -0.000244141 25.0001 -0.000244141C22.4187 -0.000244141 20.3262 2.09232 20.3262 4.67364C20.3262 7.25495 22.4187 9.34752 25.0001 9.34752Z" fill="#3B5D8F"/>
<path d="M34.4548 9.34749C36.0866 9.34749 37.4095 8.02461 37.4095 6.39274C37.4095 4.76088 36.0866 3.43799 34.4548 3.43799C32.8229 3.43799 31.5 4.76088 31.5 6.39274C31.5 8.02461 32.8229 9.34749 34.4548 9.34749Z" fill="#3B5D8F"/>
<path d="M15.5446 9.34749C17.1765 9.34749 18.4993 8.02461 18.4993 6.39274C18.4993 4.76088 17.1765 3.43799 15.5446 3.43799C13.9127 3.43799 12.5898 4.76088 12.5898 6.39274C12.5898 8.02461 13.9127 9.34749 15.5446 9.34749Z" fill="#3B5D8F"/>
<path d="M18.4561 12.001C17.293 11.0481 16.2397 11.1742 14.8948 11.1742C12.8835 11.1742 11.2471 12.801 11.2471 14.8V20.667C11.2471 21.5352 11.9557 22.2411 12.8271 22.2411C16.589 22.2411 16.1358 22.3092 16.1358 22.0789C16.1358 17.9215 15.6434 14.8727 18.4561 12.001Z" fill="#3B5D8F"/>
<path d="M26.2796 11.1957C23.9306 10.9998 21.8889 11.198 20.1278 12.6516C17.1808 15.0122 17.7479 18.1906 17.7479 22.0789C17.7479 23.1076 18.5849 23.9602 19.6293 23.9602C30.9692 23.9602 31.4205 24.326 32.093 22.8369C32.3135 22.3333 32.2531 22.4933 32.2531 17.6758C32.2531 13.8493 28.9398 11.1957 26.2796 11.1957ZM35.1057 11.1742C33.7535 11.1742 32.706 11.0494 31.5445 12.001C34.3362 14.8513 33.8647 17.6921 33.8647 22.0789C33.8647 22.3106 33.4885 22.2411 37.1171 22.2411C38.0197 22.2411 38.7535 21.5099 38.7535 20.6112V14.8C38.7535 12.801 37.1171 11.1742 35.1057 11.1742Z" fill="#3B5D8F"/>
<path d="M12.1029 40.08C11.7135 40.08 11.3562 40.0107 11.0309 39.872C10.7055 39.7333 10.4229 39.536 10.1829 39.28C9.94288 39.0187 9.75621 38.712 9.62288 38.36C9.49488 38.008 9.43088 37.6213 9.43088 37.2C9.43088 36.8 9.50021 36.4293 9.63888 36.088C9.78288 35.7413 9.98021 35.4373 10.2309 35.176C10.4815 34.9147 10.7722 34.712 11.1029 34.568C11.4335 34.424 11.7909 34.352 12.1749 34.352C12.4469 34.352 12.7109 34.3947 12.9669 34.48C13.2282 34.56 13.4629 34.6747 13.6709 34.824C13.8842 34.968 14.0575 35.1333 14.1909 35.32L13.6149 35.92C13.4602 35.7653 13.3029 35.6373 13.1429 35.536C12.9882 35.4293 12.8282 35.3493 12.6629 35.296C12.5029 35.2427 12.3402 35.216 12.1749 35.216C11.9135 35.216 11.6682 35.2667 11.4389 35.368C11.2149 35.464 11.0175 35.6 10.8469 35.776C10.6815 35.952 10.5509 36.1627 10.4549 36.408C10.3589 36.648 10.3109 36.912 10.3109 37.2C10.3109 37.504 10.3562 37.7813 10.4469 38.032C10.5429 38.2773 10.6762 38.488 10.8469 38.664C11.0175 38.84 11.2202 38.976 11.4549 39.072C11.6949 39.1627 11.9589 39.208 12.2469 39.208C12.4229 39.208 12.5962 39.184 12.7669 39.136C12.9375 39.088 13.0975 39.0187 13.2469 38.928C13.3962 38.8373 13.5322 38.7307 13.6549 38.608L14.0869 39.312C13.9642 39.456 13.7962 39.5867 13.5829 39.704C13.3749 39.8213 13.1402 39.9147 12.8789 39.984C12.6229 40.048 12.3642 40.08 12.1029 40.08ZM16.9406 40.08C16.5299 40.08 16.1619 39.9867 15.8366 39.8C15.5166 39.608 15.2632 39.3493 15.0766 39.024C14.8899 38.6933 14.7966 38.3173 14.7966 37.896C14.7966 37.4747 14.8899 37.1013 15.0766 36.776C15.2632 36.4453 15.5166 36.1867 15.8366 36C16.1619 35.808 16.5299 35.712 16.9406 35.712C17.3459 35.712 17.7086 35.808 18.0286 36C18.3539 36.1867 18.6099 36.4453 18.7966 36.776C18.9832 37.1013 19.0766 37.4747 19.0766 37.896C19.0766 38.3173 18.9832 38.6933 18.7966 39.024C18.6099 39.3493 18.3539 39.608 18.0286 39.8C17.7086 39.9867 17.3459 40.08 16.9406 40.08ZM16.9406 39.328C17.1912 39.328 17.4152 39.2667 17.6126 39.144C17.8099 39.016 17.9646 38.8453 18.0766 38.632C18.1886 38.4133 18.2419 38.168 18.2366 37.896C18.2419 37.6187 18.1886 37.3733 18.0766 37.16C17.9646 36.9413 17.8099 36.7707 17.6126 36.648C17.4152 36.5253 17.1912 36.464 16.9406 36.464C16.6899 36.464 16.4632 36.528 16.2606 36.656C16.0632 36.7787 15.9086 36.9493 15.7966 37.168C15.6846 37.3813 15.6312 37.624 15.6366 37.896C15.6312 38.168 15.6846 38.4133 15.7966 38.632C15.9086 38.8453 16.0632 39.016 16.2606 39.144C16.4632 39.2667 16.6899 39.328 16.9406 39.328ZM19.9744 40V35.8H20.7984V36.664L20.6544 36.76C20.7078 36.5733 20.8118 36.4027 20.9664 36.248C21.1211 36.088 21.3051 35.96 21.5184 35.864C21.7318 35.7627 21.9504 35.712 22.1744 35.712C22.4944 35.712 22.7611 35.776 22.9744 35.904C23.1878 36.0267 23.3478 36.216 23.4544 36.472C23.5611 36.728 23.6144 37.0507 23.6144 37.44V40H22.7904V37.496C22.7904 37.256 22.7584 37.0587 22.6944 36.904C22.6304 36.744 22.5318 36.6293 22.3984 36.56C22.2651 36.4853 22.0998 36.4533 21.9024 36.464C21.7424 36.464 21.5958 36.4907 21.4624 36.544C21.3291 36.592 21.2118 36.6613 21.1104 36.752C21.0144 36.8427 20.9371 36.9493 20.8784 37.072C20.8251 37.1893 20.7984 37.3173 20.7984 37.456V40H20.3904C20.3211 40 20.2518 40 20.1824 40C20.1131 40 20.0438 40 19.9744 40ZM24.7323 40V35.8H25.5563V36.664L25.4123 36.76C25.4656 36.5733 25.5696 36.4027 25.7243 36.248C25.8789 36.088 26.0629 35.96 26.2763 35.864C26.4896 35.7627 26.7083 35.712 26.9323 35.712C27.2523 35.712 27.5189 35.776 27.7323 35.904C27.9456 36.0267 28.1056 36.216 28.2123 36.472C28.3189 36.728 28.3723 37.0507 28.3723 37.44V40H27.5483V37.496C27.5483 37.256 27.5163 37.0587 27.4523 36.904C27.3883 36.744 27.2896 36.6293 27.1563 36.56C27.0229 36.4853 26.8576 36.4533 26.6603 36.464C26.5003 36.464 26.3536 36.4907 26.2203 36.544C26.0869 36.592 25.9696 36.6613 25.8683 36.752C25.7723 36.8427 25.6949 36.9493 25.6363 37.072C25.5829 37.1893 25.5563 37.3173 25.5563 37.456V40H25.1483C25.0789 40 25.0096 40 24.9403 40C24.8709 40 24.8016 40 24.7323 40ZM31.4501 40.08C31.0181 40.08 30.6341 39.9893 30.2981 39.808C29.9674 39.6213 29.7061 39.368 29.5141 39.048C29.3274 38.728 29.2341 38.36 29.2341 37.944C29.2341 37.6133 29.2874 37.312 29.3941 37.04C29.5007 36.768 29.6474 36.5333 29.8341 36.336C30.0261 36.1333 30.2527 35.9787 30.5141 35.872C30.7807 35.76 31.0687 35.704 31.3781 35.704C31.6501 35.704 31.9034 35.7573 32.1381 35.864C32.3727 35.9653 32.5754 36.1067 32.7461 36.288C32.9221 36.4693 33.0554 36.6853 33.1461 36.936C33.2421 37.1813 33.2874 37.4507 33.2821 37.744L33.2741 38.096H29.8421L29.6581 37.44H32.5621L32.4421 37.576V37.384C32.4261 37.208 32.3674 37.0507 32.2661 36.912C32.1647 36.7733 32.0367 36.664 31.8821 36.584C31.7274 36.504 31.5594 36.464 31.3781 36.464C31.0901 36.464 30.8474 36.52 30.6501 36.632C30.4527 36.7387 30.3034 36.8987 30.2021 37.112C30.1007 37.32 30.0501 37.5787 30.0501 37.888C30.0501 38.1813 30.1114 38.4373 30.2341 38.656C30.3567 38.8693 30.5301 39.0347 30.7541 39.152C30.9781 39.2693 31.2367 39.328 31.5301 39.328C31.7381 39.328 31.9301 39.2933 32.1061 39.224C32.2874 39.1547 32.4821 39.0293 32.6901 38.848L33.1061 39.432C32.9781 39.56 32.8207 39.672 32.6341 39.768C32.4527 39.864 32.2581 39.9413 32.0501 40C31.8474 40.0533 31.6474 40.08 31.4501 40.08ZM35.9616 40.08C35.5722 40.08 35.2229 39.984 34.9136 39.792C34.6096 39.6 34.3669 39.3387 34.1856 39.008C34.0096 38.6773 33.9216 38.3067 33.9216 37.896C33.9216 37.4853 34.0096 37.1147 34.1856 36.784C34.3669 36.4533 34.6096 36.192 34.9136 36C35.2229 35.808 35.5722 35.712 35.9616 35.712C36.3349 35.712 36.6736 35.7893 36.9776 35.944C37.2869 36.0933 37.5216 36.2987 37.6816 36.56L37.2256 37.12C37.1402 36.9973 37.0309 36.8853 36.8976 36.784C36.7642 36.6827 36.6229 36.6027 36.4736 36.544C36.3242 36.4853 36.1802 36.456 36.0416 36.456C35.7856 36.456 35.5562 36.52 35.3536 36.648C35.1562 36.7707 34.9989 36.9413 34.8816 37.16C34.7642 37.3787 34.7056 37.624 34.7056 37.896C34.7056 38.168 34.7669 38.4133 34.8896 38.632C35.0122 38.8453 35.1749 39.016 35.3776 39.144C35.5802 39.272 35.8042 39.336 36.0496 39.336C36.1936 39.336 36.3322 39.312 36.4656 39.264C36.6042 39.216 36.7376 39.144 36.8656 39.048C36.9936 38.952 37.1136 38.8347 37.2256 38.696L37.6816 39.256C37.5109 39.496 37.2656 39.6933 36.9456 39.848C36.6309 40.0027 36.3029 40.08 35.9616 40.08ZM38.9788 40V34.728H39.8028V40H38.9788ZM38.1068 36.6V35.8H40.7788V36.6H38.1068Z" fill="#747474"/>
</svg>
