<svg width="12" height="13" viewBox="0 0 12 13" fill="none" xmlns="http://www.w3.org/2000/svg">
<path d="M1.63636 12.5H10.3636C10.7976 12.5 11.2138 12.3276 11.5207 12.0207C11.8276 11.7138 12 11.2976 12 10.8636V3.22727C12 2.79328 11.8276 2.37707 11.5207 2.07019C11.2138 1.76331 10.7976 1.59091 10.3636 1.59091H9.81818V1.04545C9.81818 0.900791 9.76072 0.762053 9.65842 0.65976C9.55613 0.557467 9.41739 0.5 9.27273 0.5C9.12806 0.5 8.98933 0.557467 8.88703 0.65976C8.78474 0.762053 8.72727 0.900791 8.72727 1.04545V1.59091H3.27273V1.04545C3.27273 0.900791 3.21526 0.762053 3.11297 0.65976C3.01067 0.557467 2.87194 0.5 2.72727 0.5C2.58261 0.5 2.44387 0.557467 2.34158 0.65976C2.23929 0.762053 2.18182 0.900791 2.18182 1.04545V1.59091H1.63636C1.20237 1.59091 0.786158 1.76331 0.47928 2.07019C0.172402 2.37707 0 2.79328 0 3.22727V10.8636C0 11.2976 0.172402 11.7138 0.47928 12.0207C0.786158 12.3276 1.20237 12.5 1.63636 12.5ZM10.3636 11.4091H1.63636C1.4917 11.4091 1.35296 11.3516 1.25067 11.2493C1.14838 11.147 1.09091 11.0083 1.09091 10.8636V5.95455H10.9091V10.8636C10.9091 11.0083 10.8516 11.147 10.7493 11.2493C10.647 11.3516 10.5083 11.4091 10.3636 11.4091ZM1.63636 2.68182H2.18182V3.22727C2.18182 3.37194 2.23929 3.51067 2.34158 3.61297C2.44387 3.71526 2.58261 3.77273 2.72727 3.77273C2.87194 3.77273 3.01067 3.71526 3.11297 3.61297C3.21526 3.51067 3.27273 3.37194 3.27273 3.22727V2.68182H8.72727V3.22727C8.72727 3.37194 8.78474 3.51067 8.88703 3.61297C8.98933 3.71526 9.12806 3.77273 9.27273 3.77273C9.41739 3.77273 9.55613 3.71526 9.65842 3.61297C9.76072 3.51067 9.81818 3.37194 9.81818 3.22727V2.68182H10.3636C10.5083 2.68182 10.647 2.73929 10.7493 2.84158C10.8516 2.94387 10.9091 3.08261 10.9091 3.22727V4.86364H1.09091V3.22727C1.09091 3.08261 1.14838 2.94387 1.25067 2.84158C1.35296 2.73929 1.4917 2.68182 1.63636 2.68182Z" fill="#A3B8E0"/>
<path d="M9.06649 7.08757C9.00039 7.11519 8.93951 7.15393 8.88649 7.20211C8.78681 7.30664 8.73031 7.44497 8.7283 7.58939C8.72555 7.6257 8.72555 7.66217 8.7283 7.69848C8.7342 7.73267 8.74523 7.76577 8.76103 7.79666C8.77297 7.83142 8.78948 7.86443 8.81012 7.89484L8.87558 7.97666C8.92866 8.02475 8.98953 8.06349 9.05558 8.09121C9.12361 8.12346 9.19855 8.13844 9.27376 8.13484C9.41818 8.13283 9.5565 8.07633 9.66103 7.97666C9.71159 7.92569 9.75158 7.86525 9.77873 7.79879C9.80587 7.73233 9.81963 7.66117 9.81921 7.58939C9.8172 7.44497 9.7607 7.30664 9.66103 7.20211C9.58433 7.12643 9.48692 7.07516 9.38111 7.05477C9.2753 7.03439 9.16582 7.0458 9.06649 7.08757ZM7.47921 7.20211C7.42613 7.15402 7.36526 7.11529 7.29921 7.08757C7.19988 7.0458 7.0904 7.03439 6.98459 7.05477C6.87878 7.07516 6.78137 7.12643 6.70467 7.20211C6.62774 7.27841 6.57528 7.37588 6.55397 7.48211C6.53266 7.58833 6.54347 7.6985 6.58501 7.79856C6.62656 7.89862 6.69696 7.98404 6.78724 8.04393C6.87753 8.10382 6.9836 8.13547 7.09194 8.13484C7.16322 8.13398 7.23364 8.11915 7.29921 8.09121C7.36526 8.06349 7.42613 8.02475 7.47921 7.97666C7.57889 7.87213 7.63539 7.73381 7.6374 7.58939C7.63653 7.51811 7.62171 7.44769 7.59376 7.38211C7.5678 7.31516 7.52887 7.25399 7.47921 7.20211ZM5.1174 7.08757C5.01806 7.0458 4.90858 7.03439 4.80277 7.05477C4.69696 7.07516 4.59955 7.12643 4.52285 7.20211C4.42318 7.30664 4.36668 7.44497 4.36467 7.58939C4.36191 7.6257 4.36191 7.66217 4.36467 7.69848C4.37056 7.73267 4.38159 7.76577 4.3974 7.79666C4.40934 7.83142 4.42584 7.86443 4.44649 7.89484C4.46665 7.9234 4.4885 7.95072 4.51194 7.97666C4.6192 8.07892 4.76193 8.13562 4.91012 8.13484C4.9814 8.13398 5.05182 8.11915 5.1174 8.09121C5.18345 8.06349 5.24431 8.02475 5.2974 7.97666C5.34852 7.92595 5.3891 7.86562 5.41679 7.79916C5.44448 7.73269 5.45874 7.66139 5.45874 7.58939C5.45874 7.51738 5.44448 7.44609 5.41679 7.37962C5.3891 7.31315 5.34852 7.25282 5.2974 7.20211C5.24431 7.15402 5.18345 7.11529 5.1174 7.08757ZM7.29921 9.26939C7.19988 9.22762 7.0904 9.2162 6.98459 9.23659C6.87878 9.25698 6.78137 9.30825 6.70467 9.38393C6.65412 9.4349 6.61412 9.49534 6.58698 9.5618C6.55983 9.62826 6.54607 9.69942 6.54649 9.7712C6.54735 9.84248 6.56217 9.9129 6.59012 9.97848C6.61784 10.0445 6.65657 10.1054 6.70467 10.1585C6.75564 10.209 6.81608 10.249 6.88254 10.2762C6.94899 10.3033 7.02016 10.3171 7.09194 10.3167C7.16322 10.3158 7.23364 10.301 7.29921 10.273C7.3669 10.2485 7.42838 10.2094 7.47928 10.1585C7.53018 10.1076 7.56926 10.0462 7.59376 9.97848C7.62171 9.9129 7.63653 9.84248 7.6374 9.7712C7.63781 9.69942 7.62405 9.62826 7.59691 9.5618C7.56976 9.49534 7.52977 9.4349 7.47921 9.38393C7.42613 9.33584 7.36526 9.2971 7.29921 9.26939ZM5.1174 9.26939C5.01806 9.22762 4.90858 9.2162 4.80277 9.23659C4.69696 9.25698 4.59955 9.30825 4.52285 9.38393C4.42318 9.48846 4.36668 9.62679 4.36467 9.7712C4.36553 9.84248 4.38036 9.9129 4.4083 9.97848C4.43602 10.0445 4.47475 10.1054 4.52285 10.1585C4.62738 10.2581 4.7657 10.3147 4.91012 10.3167C4.98167 10.3185 5.05266 10.3036 5.1174 10.273C5.18508 10.2485 5.24656 10.2094 5.29746 10.1585C5.34836 10.1076 5.38744 10.0462 5.41194 9.97848C5.43989 9.9129 5.45472 9.84248 5.45558 9.7712C5.45357 9.62679 5.39707 9.48846 5.2974 9.38393C5.24431 9.33584 5.18345 9.2971 5.1174 9.26939ZM2.93558 9.26939C2.80278 9.21483 2.65383 9.21483 2.52103 9.26939C2.45493 9.29701 2.39405 9.33575 2.34103 9.38393C2.28991 9.43464 2.24933 9.49497 2.22164 9.56144C2.19394 9.6279 2.17969 9.6992 2.17969 9.7712C2.17969 9.84321 2.19394 9.91451 2.22164 9.98097C2.24933 10.0474 2.28991 10.1078 2.34103 10.1585C2.39412 10.2066 2.45498 10.2453 2.52103 10.273C2.58577 10.3036 2.65675 10.3185 2.7283 10.3167C2.83665 10.3173 2.94272 10.2856 3.033 10.2257C3.12329 10.1659 3.19369 10.0804 3.23523 9.98038C3.27678 9.88032 3.28759 9.77015 3.26628 9.66392C3.24496 9.5577 3.1925 9.46023 3.11558 9.38393C3.0637 9.33427 3.00253 9.29535 2.93558 9.26939Z" fill="#A3B8E0"/>
</svg>
