<svg width="16" height="16" viewBox="0 0 16 16" fill="none" xmlns="http://www.w3.org/2000/svg">
<path fill-rule="evenodd" clip-rule="evenodd" d="M8 0C3.58172 0 0 3.58172 0 8C0 12.4183 3.58172 16 8 16C12.4183 16 16 12.4183 16 8C16 3.58172 12.4183 0 8 0ZM10.8998 4.1H11.8998C12.2858 4.1 12.5998 4.414 12.5998 4.8V9.4C12.5998 9.786 12.2858 10.1 11.8998 10.1H10.8998C10.5138 10.1 10.1998 9.786 10.1998 9.4V4.8C10.1998 4.414 10.5138 4.1 10.8998 4.1ZM3.47144 5.328C3.60344 4.56 4.26744 4 5.04744 4H5.68744C7.67744 4 8.95944 4.4392 9.59984 4.7356V9.6908C9.00784 10.0848 8.08744 10.8496 8.08744 11.8C8.08744 12.8 7.88744 13 7.48744 13C7.08744 13 6.18744 12.6 6.18744 11.4C6.18744 10.4 6.48744 9.8 6.48744 9.8H4.59944C4.36632 9.80004 4.13601 9.7491 3.92464 9.65077C3.71327 9.55243 3.52596 9.40908 3.37582 9.23074C3.22568 9.0524 3.11635 8.8434 3.05548 8.61836C2.99461 8.39333 2.98367 8.15771 3.02344 7.928L3.47144 5.328Z" fill="#A3B8E0"/>
</svg>
