<svg width="16" height="16" viewBox="0 0 16 16" fill="none" xmlns="http://www.w3.org/2000/svg">
<rect width="16" height="16" rx="8" fill="#A3B8E0"/>
<path d="M11.8998 4.1H10.8998C10.5138 4.1 10.1998 4.414 10.1998 4.8V9.4C10.1998 9.786 10.5138 10.1 10.8998 10.1H11.8998C12.2858 10.1 12.5998 9.786 12.5998 9.4V4.8C12.5998 4.414 12.2858 4.1 11.8998 4.1ZM5.04744 4C4.26744 4 3.60344 4.56 3.47144 5.328L3.02344 7.928C2.98367 8.15771 2.99461 8.39333 3.05548 8.61836C3.11635 8.8434 3.22568 9.0524 3.37582 9.23074C3.52596 9.40908 3.71327 9.55243 3.92464 9.65077C4.13601 9.7491 4.36632 9.80003 4.59944 9.8H6.48744C6.48744 9.8 6.18744 10.4 6.18744 11.4C6.18744 12.6 7.08744 13 7.48744 13C7.88744 13 8.08744 12.8 8.08744 11.8C8.08744 10.8496 9.00784 10.0848 9.59984 9.6908V4.7356C8.95944 4.4392 7.67744 4 5.68744 4H5.04744Z" fill="#3B5D8F"/>
</svg>
