<svg width="20" height="20" viewBox="0 0 20 20" fill="none" xmlns="http://www.w3.org/2000/svg">
<path d="M17.6275 10.4732H16.0458C15.8158 10.4732 15.5952 10.3818 15.4325 10.2192C15.2698 10.0565 15.1785 9.83588 15.1785 9.60583V1.6975C15.1785 1.46745 15.2698 1.24683 15.4325 1.08417C15.5952 0.921501 15.8158 0.830116 16.0458 0.830116H17.6275C18.0673 0.830116 18.4891 1.00482 18.8 1.3158C19.111 1.62677 19.2857 2.04855 19.2857 2.48833V8.815C19.2857 9.25479 19.111 9.67656 18.8 9.98753C18.4891 10.2985 18.0673 10.4732 17.6275 10.4732Z" stroke="#3B5D8F" stroke-width="1.42857" stroke-linejoin="round"/>
<path d="M12.9306 10.5212L10.9463 17.7944L10.9463 17.7946C10.8384 18.1903 10.6035 18.5396 10.2775 18.7885C9.95162 19.0375 9.55286 19.1724 9.14272 19.1724L12.9306 10.5212ZM12.9306 10.5212C12.9307 10.5209 12.9308 10.5205 12.9309 10.5201C12.9511 10.4449 12.9614 10.3673 12.9615 10.2894M12.9306 10.5212L12.9615 10.2894M3.26288 12.0548V12.0549H6.55828C6.95277 12.0549 7.27257 12.3747 7.27257 12.7692V17.3023C7.27257 17.7983 7.4696 18.274 7.82032 18.6247C8.17104 18.9754 8.64672 19.1724 9.14271 19.1724L3.26288 12.0548ZM3.26288 12.0548L3.24921 12.0551M3.26288 12.0548L3.24921 12.0551M3.24921 12.0551C2.6721 12.0661 2.10822 11.8819 1.64898 11.5324C1.28994 11.2492 1.01735 10.871 0.862118 10.4408C0.70634 10.0091 0.67501 9.5423 0.771699 9.09364L0.771861 9.09289L2.12814 2.76622L2.12816 2.76614M3.24921 12.0551L2.12816 2.76614M2.12816 2.76614C2.24556 2.21818 2.54733 1.72706 2.98311 1.37474C3.41888 1.02242 3.9623 0.830206 4.52267 0.830164C4.52269 0.830164 4.5227 0.830164 4.52272 0.830164H12.0941C12.3242 0.830164 12.5448 0.921549 12.7074 1.08422L13.2117 0.579941M2.12816 2.76614L13.2117 0.579941M13.2117 0.579941L12.7074 1.08422C12.8701 1.24688 12.9615 1.4675 12.9615 1.69755V10.2894M13.2117 0.579941L12.9615 10.2894" stroke="#3B5D8F" stroke-width="1.42857" stroke-linejoin="round"/>
</svg>
