<svg width="20" height="20" viewBox="0 0 20 20" fill="none" xmlns="http://www.w3.org/2000/svg">
<path d="M16.0458 11.1875H17.6275C18.2567 11.1875 18.8602 10.9375 19.3051 10.4926C19.75 10.0477 20 9.44423 20 8.815V2.48833C20 1.85911 19.75 1.25565 19.3051 0.810719C18.8602 0.365789 18.2567 0.11583 17.6275 0.11583H16.0458C15.6263 0.11583 15.224 0.282471 14.9274 0.57909C14.6308 0.87571 14.4642 1.27801 14.4642 1.6975V9.60583C14.4642 10.0253 14.6308 10.4276 14.9274 10.7242C15.224 11.0209 15.6263 11.1875 16.0458 11.1875Z" fill="#3B5D8F"/>
<path d="M1.21145 12.097C1.79966 12.5464 2.52276 12.7834 3.26288 12.7692H6.55828V17.3023C6.55828 17.9877 6.83057 18.6451 7.31525 19.1298C7.79992 19.6144 8.45729 19.8867 9.14272 19.8867C9.70958 19.8867 10.2607 19.7003 10.7112 19.3561C11.1616 19.012 11.4864 18.5293 11.6354 17.9824L13.6204 10.7067C13.657 10.5708 13.6756 10.4307 13.6758 10.29V1.69755C13.6758 1.27806 13.5091 0.875759 13.2125 0.57914C12.9159 0.282518 12.5136 0.115879 12.0941 0.115879H4.52267C3.79884 0.115921 3.09691 0.364201 2.53403 0.819283C1.97115 1.27437 1.58137 1.90872 1.42972 2.6165L0.0734434 8.94316C-0.051446 9.52268 -0.0109777 10.1256 0.190233 10.6833C0.391444 11.2409 0.745301 11.7308 1.21145 12.097Z" fill="#3B5D8F"/>
</svg>
