<svg width="156" height="32" viewBox="0 0 156 32" fill="none" xmlns="http://www.w3.org/2000/svg">
<path fill-rule="evenodd" clip-rule="evenodd" d="M24.3604 0H16.7207V8.10863H18.0984C18.4519 8.10863 18.7384 8.39516 18.7384 8.74863V13.031L22.9991 13.031C23.3525 13.031 23.6391 13.3175 23.6391 13.671V15.3484H29.8378C31.032 15.3484 32 14.376 32 13.1765V7.67421C32 3.43586 28.5796 0 24.3604 0ZM16.7207 23.457H18.0984C18.4519 23.457 18.7384 23.1705 18.7384 22.817V18.5332H22.9991C23.3525 18.5332 23.6391 18.2467 23.6391 17.8932V16.6516H29.8378C31.032 16.6516 32 17.624 32 18.8235V24.3258C32 28.5641 28.5796 32 24.3604 32H16.7207V23.457ZM8.35978 16.6516V17.8932C8.35978 18.2467 8.64632 18.5332 8.99979 18.5332H13.2609V22.817C13.2609 23.1705 13.5475 23.457 13.9009 23.457H15.2793V32L2.16216 32C0.968032 32 0 31.0276 0 29.8281V18.8235C0 17.624 0.968034 16.6516 2.16216 16.6516H8.35978ZM15.2793 8.10863H13.9009C13.5475 8.10863 13.2609 8.39516 13.2609 8.74863V13.031H8.99978C8.64632 13.031 8.35978 13.3175 8.35978 13.671V15.3484L2.16216 15.3484C0.968032 15.3484 0 14.376 0 13.1765V2.17195C0 0.972413 0.968035 0 2.16216 0L15.2793 2.0127e-06L15.2793 8.10863Z" fill="url(#paint0_linear_2789_37878)"/>
<path d="M44.1525 27V4.6H53.1445C54.7659 4.6 56.2272 4.86667 57.5285 5.4C58.8512 5.93333 59.9819 6.70133 60.9205 7.704C61.8805 8.70667 62.6059 9.89067 63.0965 11.256C63.6085 12.6213 63.8645 14.136 63.8645 15.8C63.8645 17.464 63.6085 18.9893 63.0965 20.376C62.6059 21.7413 61.8912 22.9253 60.9525 23.928C60.0139 24.9093 58.8832 25.6667 57.5605 26.2C56.2379 26.7333 54.7659 27 53.1445 27H44.1525ZM48.3125 23.768L47.9925 23.16H52.9845C54.0299 23.16 54.9579 22.9893 55.7685 22.648C56.6005 22.3067 57.3045 21.816 57.8805 21.176C58.4565 20.536 58.8939 19.768 59.1925 18.872C59.4912 17.9547 59.6405 16.9307 59.6405 15.8C59.6405 14.6693 59.4912 13.656 59.1925 12.76C58.8939 11.8427 58.4459 11.064 57.8485 10.424C57.2725 9.784 56.5792 9.29333 55.7685 8.952C54.9579 8.61067 54.0299 8.44 52.9845 8.44H47.8965L48.3125 7.896V23.768ZM75.3793 27.32C73.6939 27.32 72.1899 26.9467 70.8673 26.2C69.5446 25.432 68.4993 24.3867 67.7313 23.064C66.9633 21.7413 66.5793 20.2373 66.5793 18.552C66.5793 16.8667 66.9633 15.3627 67.7313 14.04C68.4993 12.7173 69.5446 11.6827 70.8673 10.936C72.1899 10.168 73.6939 9.784 75.3793 9.784C77.0433 9.784 78.5366 10.168 79.8593 10.936C81.1819 11.6827 82.2166 12.7173 82.9633 14.04C83.7313 15.3627 84.1153 16.8667 84.1153 18.552C84.1153 20.2373 83.7313 21.7413 82.9633 23.064C82.2166 24.3867 81.1819 25.432 79.8593 26.2C78.5366 26.9467 77.0433 27.32 75.3793 27.32ZM75.3793 23.832C76.2966 23.832 77.1073 23.5973 77.8113 23.128C78.5366 22.6587 79.1019 22.0293 79.5073 21.24C79.9339 20.4507 80.1366 19.5547 80.1153 18.552C80.1366 17.528 79.9339 16.6213 79.5073 15.832C79.1019 15.0427 78.5366 14.424 77.8113 13.976C77.1073 13.5067 76.2966 13.272 75.3793 13.272C74.4619 13.272 73.6299 13.5067 72.8833 13.976C72.1579 14.424 71.5926 15.0533 71.1873 15.864C70.7819 16.6533 70.5793 17.5493 70.5793 18.552C70.5793 19.5547 70.7819 20.4507 71.1873 21.24C71.5926 22.0293 72.1579 22.6587 72.8833 23.128C73.6299 23.5973 74.4619 23.832 75.3793 23.832ZM94.868 27.32C93.2894 27.32 91.8707 26.936 90.612 26.168C89.3534 25.4 88.3614 24.3547 87.636 23.032C86.9107 21.7093 86.548 20.216 86.548 18.552C86.548 16.888 86.9107 15.3947 87.636 14.072C88.3614 12.7493 89.3534 11.704 90.612 10.936C91.8707 10.168 93.2894 9.784 94.868 9.784C96.3827 9.784 97.7587 10.072 98.996 10.648C100.233 11.224 101.193 12.024 101.876 13.048L99.7 15.672C99.38 15.224 98.9747 14.8187 98.484 14.456C97.9934 14.0933 97.4707 13.8053 96.916 13.592C96.3614 13.3787 95.8067 13.272 95.252 13.272C94.3134 13.272 93.4707 13.5067 92.724 13.976C91.9987 14.424 91.4227 15.0533 90.996 15.864C90.5694 16.6533 90.356 17.5493 90.356 18.552C90.356 19.5547 90.5694 20.4507 90.996 21.24C91.444 22.0293 92.0414 22.6587 92.788 23.128C93.5347 23.5973 94.3667 23.832 95.284 23.832C95.8387 23.832 96.372 23.7467 96.884 23.576C97.4174 23.384 97.9187 23.1173 98.388 22.776C98.8574 22.4347 99.2947 22.008 99.7 21.496L101.876 24.152C101.151 25.0907 100.148 25.8587 98.868 26.456C97.6094 27.032 96.276 27.32 94.868 27.32ZM110.518 27.32C109.025 27.32 107.681 27.0747 106.486 26.584C105.313 26.072 104.353 25.3467 103.606 24.408L106.166 22.2C106.806 22.9253 107.521 23.448 108.31 23.768C109.099 24.088 109.931 24.248 110.806 24.248C111.169 24.248 111.489 24.2053 111.766 24.12C112.065 24.0347 112.321 23.9067 112.534 23.736C112.747 23.5653 112.907 23.3733 113.014 23.16C113.142 22.9253 113.206 22.6693 113.206 22.392C113.206 21.88 113.014 21.4747 112.63 21.176C112.417 21.0267 112.075 20.8667 111.606 20.696C111.158 20.5253 110.571 20.3547 109.846 20.184C108.694 19.8853 107.734 19.544 106.966 19.16C106.198 18.7547 105.601 18.3067 105.174 17.816C104.811 17.4107 104.534 16.952 104.342 16.44C104.171 15.928 104.086 15.3733 104.086 14.776C104.086 14.0293 104.246 13.3573 104.566 12.76C104.907 12.1413 105.366 11.608 105.942 11.16C106.518 10.712 107.19 10.3707 107.958 10.136C108.726 9.90133 109.526 9.784 110.358 9.784C111.211 9.784 112.033 9.89067 112.822 10.104C113.633 10.3173 114.379 10.6267 115.062 11.032C115.766 11.416 116.363 11.8853 116.854 12.44L114.678 14.84C114.273 14.456 113.825 14.1147 113.334 13.816C112.865 13.5173 112.385 13.2827 111.894 13.112C111.403 12.92 110.945 12.824 110.518 12.824C110.113 12.824 109.75 12.8667 109.43 12.952C109.11 13.016 108.843 13.1227 108.63 13.272C108.417 13.4213 108.246 13.6133 108.118 13.848C108.011 14.0613 107.958 14.3173 107.958 14.616C107.979 14.872 108.043 15.1173 108.15 15.352C108.278 15.5653 108.449 15.7467 108.662 15.896C108.897 16.0453 109.249 16.216 109.718 16.408C110.187 16.6 110.795 16.7813 111.542 16.952C112.587 17.2293 113.462 17.5387 114.166 17.88C114.87 18.2213 115.425 18.616 115.83 19.064C116.235 19.448 116.523 19.896 116.694 20.408C116.865 20.92 116.95 21.4853 116.95 22.104C116.95 23.1067 116.662 24.0027 116.086 24.792C115.531 25.5813 114.763 26.2 113.782 26.648C112.822 27.096 111.734 27.32 110.518 27.32ZM120.865 27V10.136H124.801V27H120.865ZM122.785 6.552C121.996 6.552 121.377 6.36 120.929 5.976C120.503 5.57067 120.289 5.00533 120.289 4.28C120.289 3.59733 120.513 3.04267 120.961 2.616C121.409 2.18933 122.017 1.976 122.785 1.976C123.596 1.976 124.215 2.17867 124.641 2.584C125.089 2.968 125.313 3.53333 125.313 4.28C125.313 4.94133 125.089 5.48533 124.641 5.912C124.193 6.33867 123.575 6.552 122.785 6.552ZM129.824 27V3.32H133.792V27H129.824ZM146.009 27.32C144.238 27.32 142.67 26.9467 141.305 26.2C139.961 25.4533 138.905 24.44 138.137 23.16C137.39 21.8587 137.017 20.376 137.017 18.712C137.017 17.3893 137.23 16.184 137.657 15.096C138.083 14.008 138.67 13.0693 139.417 12.28C140.185 11.4693 141.091 10.8507 142.137 10.424C143.203 9.976 144.366 9.752 145.625 9.752C146.734 9.752 147.769 9.96533 148.729 10.392C149.689 10.8187 150.521 11.4053 151.225 12.152C151.929 12.8773 152.462 13.752 152.825 14.776C153.209 15.7787 153.39 16.8773 153.369 18.072L153.337 19.448H139.673L138.937 16.76H150.041L149.529 17.304V16.6C149.465 15.9387 149.251 15.3627 148.889 14.872C148.526 14.36 148.057 13.9653 147.481 13.688C146.926 13.3893 146.307 13.24 145.625 13.24C144.579 13.24 143.694 13.4427 142.969 13.848C142.265 14.2533 141.731 14.84 141.369 15.608C141.006 16.3547 140.825 17.2933 140.825 18.424C140.825 19.512 141.049 20.4613 141.497 21.272C141.966 22.0827 142.617 22.712 143.449 23.16C144.302 23.5867 145.294 23.8 146.425 23.8C147.214 23.8 147.939 23.672 148.601 23.416C149.262 23.16 149.977 22.7013 150.745 22.04L152.697 24.76C152.121 25.2933 151.459 25.752 150.713 26.136C149.987 26.4987 149.219 26.7867 148.409 27C147.598 27.2133 146.798 27.32 146.009 27.32Z" fill="#3B5D8F"/>
<defs>
<linearGradient id="paint0_linear_2789_37878" x1="0" y1="16.0724" x2="30.8468" y2="16.0724" gradientUnits="userSpaceOnUse">
<stop stop-color="#3B5D8F"/>
<stop offset="1" stop-color="#6688CC"/>
</linearGradient>
</defs>
</svg>
