<svg width="40" height="40" viewBox="0 0 40 40" fill="none" xmlns="http://www.w3.org/2000/svg">
<path fill-rule="evenodd" clip-rule="evenodd" d="M30.4505 0H20.9009V10.1374H22.6211C23.0629 10.1374 23.4211 10.4956 23.4211 10.9374V16.2895H28.7495C29.1913 16.2895 29.5495 16.6477 29.5495 17.0895V19.1855H37.2973C38.79 19.1855 40 17.97 40 16.4706V9.59276C40 4.29483 35.7245 0 30.4505 0ZM20.9009 29.3229H22.6211C23.0629 29.3229 23.4211 28.9647 23.4211 28.5229V23.1673H28.7495C29.1913 23.1673 29.5495 22.8091 29.5495 22.3673V20.8145H37.2973C38.79 20.8145 40 22.03 40 23.5294V30.4072C40 35.7052 35.7245 40 30.4505 40H20.9009V29.3229ZM10.4504 20.8145V22.3673C10.4504 22.8091 10.8085 23.1673 11.2504 23.1673H16.5742V28.5229C16.5742 28.9647 16.9324 29.3229 17.3742 29.3229H19.0991V40L2.7027 40C1.21004 40 0 38.7845 0 37.2851V23.5294C0 22.03 1.21004 20.8145 2.7027 20.8145H10.4504ZM19.0991 10.1374H17.3742C16.9324 10.1374 16.5742 10.4956 16.5742 10.9374V16.2895H11.2504C10.8086 16.2895 10.4504 16.6477 10.4504 17.0895V19.1855H2.7027C1.21004 19.1855 0 17.97 0 16.4706L1.91385e-06 2.71493C2.10959e-06 1.21552 1.21004 0 2.70271 0L19.0991 2.51587e-06L19.0991 10.1374Z" fill="url(#paint0_linear_2690_61233)"/>
<defs>
<linearGradient id="paint0_linear_2690_61233" x1="0" y1="20.0905" x2="38.5586" y2="20.0905" gradientUnits="userSpaceOnUse">
<stop stop-color="#3B5D8F"/>
<stop offset="1" stop-color="#6688CC"/>
</linearGradient>
</defs>
</svg>
