<svg width="18" height="18" viewBox="0 0 18 18" fill="none" xmlns="http://www.w3.org/2000/svg">
<path d="M3.65532 14.0194H3.73853L5.95508 13.8151C6.26525 13.7849 6.55272 13.6487 6.7721 13.4293L15.139 5.06241C15.5324 4.66903 15.7518 4.14704 15.7518 3.5948C15.7518 3.04255 15.5324 2.52057 15.139 2.12719L14.6019 1.59007C13.8151 0.80331 12.4459 0.80331 11.6591 1.59007L10.5924 2.65674L3.29976 9.94941C3.08038 10.1688 2.94421 10.4563 2.92151 10.7664L2.71726 12.983C2.69456 13.2629 2.79291 13.5352 2.9896 13.7395C3.17116 13.921 3.40567 14.0194 3.65532 14.0194ZM13.1343 2.11206C13.3764 2.11206 13.6184 2.20284 13.8 2.39196L14.3371 2.92908C14.4255 3.01596 14.4957 3.11957 14.5436 3.23387C14.5915 3.34817 14.6162 3.47086 14.6162 3.5948C14.6162 3.71873 14.5915 3.84143 14.5436 3.95573C14.4957 4.07002 14.4255 4.17364 14.3371 4.26052L13.6714 4.92624L11.8028 3.05768L12.4686 2.39196C12.6501 2.2104 12.8922 2.11206 13.1343 2.11206ZM4.0487 10.8723C4.0487 10.827 4.07139 10.7891 4.10165 10.7589L10.9934 3.85957L12.8619 5.72813L5.97021 12.6199C5.97021 12.6199 5.89456 12.6728 5.85674 12.6728L3.86714 12.8544L4.0487 10.8648V10.8723ZM17.2648 16.4326C17.2648 16.7428 17.0076 17 16.6974 17H1.56738C1.25721 17 1 16.7428 1 16.4326C1 16.1225 1.25721 15.8652 1.56738 15.8652H16.6974C17.0076 15.8652 17.2648 16.1225 17.2648 16.4326Z" fill="#A3B8E0" stroke="#A3B8E0" stroke-width="0.4"/>
</svg>
