<svg width="40" height="41" viewBox="0 0 40 41" fill="none" xmlns="http://www.w3.org/2000/svg">
<rect x="0.1" y="0.6" width="39.8" height="39.8" rx="19.9" fill="#F0F4FA" stroke="#E7E7E7" stroke-width="0.2"/>
<path d="M30.8825 24.2231C31.0724 24.0834 31.2222 23.896 31.3166 23.6799C31.4111 23.4639 31.4468 23.2267 31.4203 22.9924C31.3939 22.7581 31.306 22.5349 31.1657 22.3454C31.0254 22.1558 30.8376 22.0067 30.6212 21.9129V20.0703L29.544 20.5281V21.9129C29.3275 22.0066 29.1396 22.1558 28.9992 22.3454C28.8588 22.535 28.7709 22.7582 28.7444 22.9926C28.7179 23.227 28.7537 23.4643 28.8482 23.6804C28.9428 23.8966 29.0927 24.0839 29.2828 24.2236C29.1137 24.3478 28.9761 24.51 28.8811 24.6971C28.7862 24.8842 28.7365 25.091 28.7361 25.3008V26.6468C28.7361 26.7897 28.7928 26.9267 28.8938 27.0277C28.9948 27.1287 29.1318 27.1855 29.2747 27.1855H30.8905C31.0334 27.1855 31.1704 27.1287 31.2714 27.0277C31.3724 26.9267 31.4292 26.7897 31.4292 26.6468V25.3003C31.4287 25.0905 31.379 24.8837 31.2841 24.6966C31.1891 24.5095 31.0516 24.3473 30.8825 24.2231ZM27.9281 21.2122V25.198C27.931 25.6613 27.8134 26.1175 27.5868 26.5216C27.3601 26.9258 27.0323 27.2641 26.6354 27.5032C24.576 28.706 22.2338 29.3399 19.8489 29.3399C17.4639 29.3399 15.1217 28.706 13.0623 27.5032C12.6654 27.2641 12.3376 26.9258 12.1109 26.5216C11.8843 26.1175 11.7667 25.6613 11.7696 25.198V21.2122L18.3784 24.0076C18.844 24.2032 19.3439 24.3039 19.8489 24.3039C20.3538 24.3039 20.8537 24.2032 21.3193 24.0076L27.9281 21.2122Z" fill="#7694D2"/>
<path d="M31.7226 15.462L20.9028 10.8838C20.5703 10.7439 20.2133 10.6719 19.8525 10.6719C19.4918 10.6719 19.1347 10.7439 18.8022 10.8838L7.98247 15.462C7.69002 15.5857 7.4405 15.7929 7.26508 16.0575C7.08965 16.3222 6.99609 16.6327 6.99609 16.9503C6.99609 17.2678 7.08965 17.5783 7.26508 17.843C7.4405 18.1076 7.69002 18.3148 7.98247 18.4385L18.8022 23.0167C19.1347 23.1567 19.4918 23.2289 19.8525 23.2289C20.2133 23.2289 20.5704 23.1567 20.9028 23.0167L31.7226 18.4385C32.0151 18.3148 32.2646 18.1076 32.44 17.843C32.6154 17.5783 32.709 17.2678 32.709 16.9503C32.709 16.6327 32.6154 16.3222 32.44 16.0575C32.2646 15.7929 32.0151 15.5857 31.7226 15.462Z" fill="#A3B8E0"/>
</svg>
