<svg width="40" height="41" viewBox="0 0 40 41" fill="none" xmlns="http://www.w3.org/2000/svg">
<rect y="1" width="40" height="40" rx="20" fill="#F0F4FA"/>
<path d="M7.03426 14.5078H32.609C33.1516 14.5078 33.672 14.7626 34.0557 15.2162C34.4394 15.6698 34.655 16.285 34.655 16.9264V40.5078H4.98828V16.9264C4.98828 16.285 5.20384 15.6698 5.58753 15.2162C5.97123 14.7626 6.49163 14.5078 7.03426 14.5078Z" fill="#7694D2"/>
<path d="M12.7342 6.83984H27.2528C27.8028 6.83984 28.3304 7.08447 28.7193 7.51989C29.1083 7.95532 29.3268 8.54589 29.3268 9.16168V40.5065H10.6602V9.16168C10.6602 8.54589 10.8787 7.95532 11.2676 7.51989C11.6566 7.08447 12.1842 6.83984 12.7342 6.83984Z" fill="#A3B8E0"/>
<path d="M19.9099 19.0112C22.6086 19.0112 24.7964 16.8235 24.7964 14.1248C24.7964 11.426 22.6086 9.23828 19.9099 9.23828C17.2112 9.23828 15.0234 11.426 15.0234 14.1248C15.0234 16.8235 17.2112 19.0112 19.9099 19.0112Z" fill="#F0F4FA"/>
<path d="M21.7074 13.0932H20.9359V12.3217C20.9359 12.0489 20.8275 11.7872 20.6346 11.5943C20.4416 11.4014 20.18 11.293 19.9071 11.293C19.6343 11.293 19.3726 11.4014 19.1797 11.5943C18.9868 11.7872 18.8784 12.0489 18.8784 12.3217V13.0932H18.1069C17.834 13.0932 17.5724 13.2016 17.3794 13.3946C17.1865 13.5875 17.0781 13.8491 17.0781 14.122C17.0781 14.3948 17.1865 14.6565 17.3794 14.8494C17.5724 15.0423 17.834 15.1507 18.1069 15.1507H18.8784V15.9223C18.8784 16.1951 18.9868 16.4568 19.1797 16.6497C19.3726 16.8426 19.6343 16.951 19.9071 16.951C20.18 16.951 20.4416 16.8426 20.6346 16.6497C20.8275 16.4568 20.9359 16.1951 20.9359 15.9223V15.1507H21.7074C21.9803 15.1507 22.2419 15.0423 22.4348 14.8494C22.6278 14.6565 22.7361 14.3948 22.7361 14.122C22.7361 13.8491 22.6278 13.5875 22.4348 13.3946C22.2419 13.2016 21.9803 13.0932 21.7074 13.0932Z" fill="#7694D2"/>
<path d="M15.2812 33.375H19.9105V41.0905H15.2812V33.375Z" fill="#F0F4FA"/>
<path d="M19.9102 33.375H24.5394V41.0905H19.9102V33.375Z" fill="#F0F4FA"/>
<path d="M13.7331 31.3164H26.0779C26.2143 31.3164 26.3451 31.3706 26.4416 31.4671C26.5381 31.5635 26.5923 31.6944 26.5923 31.8308V33.3739H13.2188V31.8308C13.2188 31.6944 13.2729 31.5635 13.3694 31.4671C13.4659 31.3706 13.5967 31.3164 13.7331 31.3164Z" fill="#7694D2"/>
<path d="M26.5938 33.375V41.0905H24.5363V33.375H26.5938Z" fill="#7694D2"/>
<path d="M15.2812 33.375V41.0905H13.2238V33.375H15.2812Z" fill="#7694D2"/>
<path d="M29.3203 17.8438H31.8203C31.9529 17.8438 32.0801 17.8964 32.1739 17.9902C32.2676 18.084 32.3203 18.2111 32.3203 18.3438V20.3438C32.3203 20.4764 32.2676 20.6035 32.1739 20.6973C32.0801 20.7911 31.9529 20.8438 31.8203 20.8438H29.3203V17.8438Z" fill="#F0F4FA"/>
<path d="M29.3203 24.1797H31.8203C31.9529 24.1797 32.0801 24.2324 32.1739 24.3261C32.2676 24.4199 32.3203 24.5471 32.3203 24.6797V26.6797C32.3203 26.8123 32.2676 26.9395 32.1739 27.0332C32.0801 27.127 31.9529 27.1797 31.8203 27.1797H29.3203V24.1797Z" fill="#F0F4FA"/>
<path d="M29.3203 30.1758H31.8203C31.9529 30.1758 32.0801 30.2285 32.1739 30.3222C32.2676 30.416 32.3203 30.5432 32.3203 30.6758V32.6758C32.3203 32.8084 32.2676 32.9356 32.1739 33.0293C32.0801 33.1231 31.9529 33.1758 31.8203 33.1758H29.3203V30.1758Z" fill="#F0F4FA"/>
<path d="M10.6445 20.9961H8.0727C7.93629 20.9961 7.80545 20.9419 7.70899 20.8454C7.61253 20.749 7.55834 20.6181 7.55834 20.4817V18.4243C7.55834 18.2878 7.61253 18.157 7.70899 18.0606C7.80545 17.9641 7.93629 17.9099 8.0727 17.9099H10.6445V20.9961Z" fill="#F0F4FA"/>
<path d="M10.6445 27.168H8.0727C7.93629 27.168 7.80545 27.1138 7.70899 27.0173C7.61253 26.9209 7.55834 26.79 7.55834 26.6536V24.5961C7.55834 24.4597 7.61253 24.3289 7.70899 24.2324C7.80545 24.136 7.93629 24.0818 8.0727 24.0818H10.6445V27.168Z" fill="#F0F4FA"/>
<path d="M10.6445 33.3398H8.0727C7.93629 33.3398 7.80545 33.2857 7.70899 33.1892C7.61253 33.0927 7.55834 32.9619 7.55834 32.8255V30.768C7.55834 30.6316 7.61253 30.5008 7.70899 30.4043C7.80545 30.3078 7.93629 30.2537 8.0727 30.2537H10.6445V33.3398Z" fill="#F0F4FA"/>
<path d="M17.848 20.9961H13.7331C13.449 20.9961 13.2188 21.2264 13.2188 21.5105V23.5679C13.2188 23.852 13.449 24.0823 13.7331 24.0823H17.848C18.1321 24.0823 18.3624 23.852 18.3624 23.5679V21.5105C18.3624 21.2264 18.1321 20.9961 17.848 20.9961Z" fill="#F0F4FA"/>
<path d="M26.0668 20.9961H21.9519C21.6678 20.9961 21.4375 21.2264 21.4375 21.5105V23.5679C21.4375 23.852 21.6678 24.0823 21.9519 24.0823H26.0668C26.3509 24.0823 26.5812 23.852 26.5812 23.5679V21.5105C26.5812 21.2264 26.3509 20.9961 26.0668 20.9961Z" fill="#F0F4FA"/>
<path d="M17.848 25.6602H13.7331C13.449 25.6602 13.2188 25.8904 13.2188 26.1745V28.232C13.2188 28.5161 13.449 28.7463 13.7331 28.7463H17.848C18.1321 28.7463 18.3624 28.5161 18.3624 28.232V26.1745C18.3624 25.8904 18.1321 25.6602 17.848 25.6602Z" fill="#F0F4FA"/>
<path d="M26.0668 25.6602H21.9519C21.6678 25.6602 21.4375 25.8904 21.4375 26.1745V28.232C21.4375 28.5161 21.6678 28.7463 21.9519 28.7463H26.0668C26.3509 28.7463 26.5812 28.5161 26.5812 28.232V26.1745C26.5812 25.8904 26.3509 25.6602 26.0668 25.6602Z" fill="#F0F4FA"/>
<path d="M19.3828 33.375H20.4115V41.0905H19.3828V33.375Z" fill="#A3B8E0"/>
<path d="M21.9597 37.7475C22.2438 37.7475 22.474 37.5172 22.474 37.2331C22.474 36.949 22.2438 36.7188 21.9597 36.7188C21.6756 36.7188 21.4453 36.949 21.4453 37.2331C21.4453 37.5172 21.6756 37.7475 21.9597 37.7475Z" fill="#A3B8E0"/>
<path d="M17.8503 37.7475C18.1344 37.7475 18.3647 37.5172 18.3647 37.2331C18.3647 36.949 18.1344 36.7188 17.8503 36.7188C17.5662 36.7188 17.3359 36.949 17.3359 37.2331C17.3359 37.5172 17.5662 37.7475 17.8503 37.7475Z" fill="#A3B8E0"/>
</svg>
