<svg width="28" height="29" viewBox="0 0 28 29" fill="none" xmlns="http://www.w3.org/2000/svg">
<rect y="0.5" width="28" height="28" rx="14" fill="#A3B8E0"/>
<path d="M20.9604 9.05478C21.0731 9.32656 21.0267 9.55856 20.8212 9.7508L15.9192 14.6528V22.0306C15.9192 22.309 15.79 22.5046 15.5315 22.6173C15.4453 22.6504 15.3624 22.667 15.2829 22.667C15.1039 22.667 14.9548 22.604 14.8354 22.4781L12.29 19.9326C12.164 19.8067 12.1011 19.6575 12.1011 19.4852V14.6528L7.19907 9.7508C6.99358 9.55856 6.94718 9.32656 7.05987 9.05478C7.17256 8.79625 7.3681 8.66699 7.64651 8.66699H20.3738C20.6522 8.66699 20.8477 8.79625 20.9604 9.05478Z" fill="white"/>
</svg>
