<svg width="10" height="11" viewBox="0 0 10 11" fill="none" xmlns="http://www.w3.org/2000/svg">
<path d="M5 0.5C2.23627 0.5 0 2.73646 0 5.5C0 8.26373 2.23646 10.5 5 10.5C7.76373 10.5 10 8.26354 10 5.5C10 2.73627 7.76352 0.5 5 0.5ZM5 9.71875C2.66811 9.71875 0.78125 7.83174 0.78125 5.5C0.78125 3.16811 2.66826 1.28125 5 1.28125C7.33189 1.28125 9.21875 3.16826 9.21875 5.5C9.21875 7.83189 7.33172 9.71875 5 9.71875Z" fill="#A3B8E0"/>
<path d="M5 4.6875C4.78426 4.6875 4.60938 4.86238 4.60938 5.07812V7.59361C4.60938 7.80936 4.78426 7.98424 5 7.98424C5.21574 7.98424 5.39062 7.80934 5.39062 7.59359V5.07812C5.39062 4.86238 5.21574 4.6875 5 4.6875Z" fill="#A3B8E0"/>
<path d="M5 4.20703C5.29124 4.20703 5.52734 3.97093 5.52734 3.67969C5.52734 3.38844 5.29124 3.15234 5 3.15234C4.70876 3.15234 4.47266 3.38844 4.47266 3.67969C4.47266 3.97093 4.70876 4.20703 5 4.20703Z" fill="#A3B8E0"/>
</svg>
