<svg width="22" height="21" viewBox="0 0 22 21" fill="none" xmlns="http://www.w3.org/2000/svg">
<path fill-rule="evenodd" clip-rule="evenodd" d="M2.67385 10.809C3.79637 11.9977 7.09639 15.0948 11 15.0948C12.6807 15.0948 14.2472 14.5073 15.574 13.7585C15.9172 13.5646 16.3533 13.6861 16.5472 14.0294C16.7408 14.3728 16.6193 14.8088 16.2761 15.0025C14.7472 15.8654 12.9364 16.5234 11 16.5234C5.58066 16.5234 1.16527 11.2659 1.16527 11.2659C0.94491 11.0012 0.94491 10.6168 1.16527 10.3521C1.16527 10.3521 5.58066 5.0946 11 5.0946C16.4193 5.0946 20.8347 10.3521 20.8347 10.3521C21.0551 10.6168 21.0551 11.0012 20.8347 11.2659C20.8347 11.2659 20.2854 11.9286 19.3344 12.7823C19.2129 12.8912 19.0847 13.0033 18.9504 13.1177C18.6504 13.3732 18.1994 13.337 17.9436 13.0368C17.6883 12.7366 17.7243 12.2855 18.0247 12.03C18.149 11.924 18.2676 11.8201 18.3801 11.7191C18.7754 11.3642 19.0944 11.0461 19.3237 10.8062C18.1986 9.61576 14.9008 6.52325 11 6.52325C7.09639 6.52325 3.79637 9.62038 2.67385 10.809Z" fill="#A3B8E0" stroke="#A3B8E0" stroke-width="0.3"/>
<path fill-rule="evenodd" clip-rule="evenodd" d="M11.0011 7.23792C9.03006 7.23792 7.42969 8.83829 7.42969 10.8094C7.42969 12.7805 9.03006 14.3808 11.0011 14.3808C12.9722 14.3808 14.5726 12.7805 14.5726 10.8094C14.5726 8.83829 12.9722 7.23792 11.0011 7.23792ZM11.0011 8.6665C12.1837 8.6665 13.144 9.62687 13.144 10.8094C13.144 11.9919 12.1837 12.9523 11.0011 12.9523C9.81864 12.9523 8.85827 11.9919 8.85827 10.8094C8.85827 9.62687 9.81864 8.6665 11.0011 8.6665Z" fill="#A3B8E0" stroke="#A3B8E0" stroke-width="0.3"/>
<path fill-rule="evenodd" clip-rule="evenodd" d="M2.72389 5.6729L18.4383 17.1016C18.7569 17.3333 19.2041 17.2629 19.4358 16.9438C19.668 16.6251 19.5973 16.1781 19.2783 15.946L3.56391 4.51733C3.24534 4.28558 2.79818 4.35606 2.56639 4.67511C2.33425 4.99384 2.40496 5.44083 2.72389 5.6729Z" fill="#A3B8E0" stroke="#A3B8E0" stroke-width="0.3"/>
</svg>
