<svg width="50" height="43" viewBox="0 0 50 43" fill="none" xmlns="http://www.w3.org/2000/svg">
<path d="M36.3451 11.43C36.3443 11.4295 36.3438 11.4287 36.3432 11.4282L26.5614 1.6468C26.1445 1.22959 25.5901 1 25.0005 1C24.4108 1 23.8565 1.22959 23.4394 1.64675L13.6626 11.4232C13.6594 11.4265 13.6559 11.4299 13.6528 11.4333C12.7966 12.2944 12.7981 13.6916 13.657 14.5505C14.0494 14.9432 14.5675 15.1704 15.1217 15.1943C15.1444 15.1965 15.1671 15.1976 15.1899 15.1976H15.5796V22.396C15.5796 23.8207 16.7388 24.9796 18.1634 24.9796H21.9904C22.3784 24.9796 22.6929 24.665 22.6929 24.2771V18.6335C22.6929 17.9835 23.2218 17.4548 23.8719 17.4548H26.1291C26.7792 17.4548 27.3078 17.9835 27.3078 18.6335V24.2772C27.3078 24.665 27.6223 24.9797 28.0104 24.9797H31.8373C33.2622 24.9797 34.4211 23.8207 34.4211 22.3961V15.1977H34.7827C35.3721 15.1977 35.9265 14.968 36.3438 14.5507C37.2037 13.6905 37.204 12.2907 36.345 11.4299L36.3451 11.43ZM35.3502 13.5573C35.2758 13.6321 35.1874 13.6914 35.09 13.7318C34.9926 13.7722 34.8881 13.7929 34.7827 13.7926H33.7186C33.3305 13.7926 33.016 14.1071 33.016 14.4952V22.3961C33.016 23.0459 32.4873 23.5746 31.8373 23.5746H28.7129V18.6335C28.7129 17.2089 27.5539 16.0497 26.129 16.0497H23.8719C22.4471 16.0497 21.2879 17.2089 21.2879 18.6335V23.5746H18.1635C17.5136 23.5746 16.9847 23.0459 16.9847 22.3961V14.4951C16.9847 14.1071 16.6702 13.7926 16.2822 13.7926H15.2364C15.2254 13.7918 15.2145 13.7913 15.2035 13.7911C14.9942 13.7875 14.7979 13.7044 14.6508 13.5571C14.338 13.2443 14.338 12.7352 14.6508 12.4221C14.651 12.4221 14.651 12.4219 14.6512 12.4217L14.6517 12.4212L24.4331 2.64017C24.5074 2.56538 24.5958 2.50608 24.6932 2.46572C24.7906 2.42536 24.8951 2.40474 25.0005 2.40506C25.2147 2.40506 25.4162 2.48847 25.5678 2.64017L35.347 12.4192L35.3516 12.4236C35.6628 12.737 35.6623 13.2451 35.3502 13.5573Z" fill="#9CADC6" stroke="#9CADC6" stroke-width="0.6"/>
<path d="M17.9088 40.9797V35.3797H18.7728V40.9797H17.9088ZM14.2528 40.9797V35.3797H15.1168V40.9797H14.2528ZM14.6288 38.6037V37.7717H18.2928V38.6037H14.6288ZM22.0187 41.0597C21.608 41.0597 21.24 40.9664 20.9147 40.7797C20.5947 40.5877 20.3414 40.3291 20.1547 40.0037C19.968 39.6731 19.8747 39.2971 19.8747 38.8757C19.8747 38.4544 19.968 38.0811 20.1547 37.7557C20.3414 37.4251 20.5947 37.1664 20.9147 36.9797C21.24 36.7877 21.608 36.6917 22.0187 36.6917C22.424 36.6917 22.7867 36.7877 23.1067 36.9797C23.432 37.1664 23.688 37.4251 23.8747 37.7557C24.0614 38.0811 24.1547 38.4544 24.1547 38.8757C24.1547 39.2971 24.0614 39.6731 23.8747 40.0037C23.688 40.3291 23.432 40.5877 23.1067 40.7797C22.7867 40.9664 22.424 41.0597 22.0187 41.0597ZM22.0187 40.3077C22.2694 40.3077 22.4934 40.2464 22.6907 40.1237C22.888 39.9957 23.0427 39.8251 23.1547 39.6117C23.2667 39.3931 23.32 39.1477 23.3147 38.8757C23.32 38.5984 23.2667 38.3531 23.1547 38.1397C23.0427 37.9211 22.888 37.7504 22.6907 37.6277C22.4934 37.5051 22.2694 37.4437 22.0187 37.4437C21.768 37.4437 21.5414 37.5077 21.3387 37.6357C21.1414 37.7584 20.9867 37.9291 20.8747 38.1477C20.7627 38.3611 20.7094 38.6037 20.7147 38.8757C20.7094 39.1477 20.7627 39.3931 20.8747 39.6117C20.9867 39.8251 21.1414 39.9957 21.3387 40.1237C21.5414 40.2464 21.768 40.3077 22.0187 40.3077ZM25.0366 40.9797V36.7797H25.8686V37.6757L25.7166 37.7717C25.7592 37.6331 25.8259 37.4997 25.9166 37.3717C26.0126 37.2437 26.1272 37.1317 26.2606 37.0357C26.3992 36.9344 26.5459 36.8544 26.7006 36.7957C26.8606 36.7371 27.0232 36.7077 27.1886 36.7077C27.4286 36.7077 27.6392 36.7477 27.8206 36.8277C28.0019 36.9077 28.1512 37.0277 28.2686 37.1877C28.3859 37.3477 28.4712 37.5477 28.5246 37.7877L28.3966 37.7557L28.4526 37.6197C28.5112 37.4971 28.5912 37.3824 28.6926 37.2757C28.7992 37.1637 28.9192 37.0651 29.0526 36.9797C29.1859 36.8944 29.3272 36.8277 29.4766 36.7797C29.6259 36.7317 29.7726 36.7077 29.9166 36.7077C30.2312 36.7077 30.4899 36.7717 30.6926 36.8997C30.9006 37.0277 31.0552 37.2224 31.1566 37.4837C31.2632 37.7451 31.3166 38.0704 31.3166 38.4597V40.9797H30.4846V38.5077C30.4846 38.2677 30.4526 38.0731 30.3886 37.9237C30.3299 37.7691 30.2392 37.6544 30.1166 37.5797C29.9939 37.5051 29.8366 37.4677 29.6446 37.4677C29.4952 37.4677 29.3539 37.4944 29.2206 37.5477C29.0926 37.5957 28.9806 37.6651 28.8846 37.7557C28.7886 37.8464 28.7139 37.9531 28.6606 38.0757C28.6072 38.1931 28.5806 38.3237 28.5806 38.4677V40.9797H27.7486V38.4917C27.7486 38.2731 27.7166 38.0891 27.6526 37.9397C27.5886 37.7851 27.4952 37.6677 27.3726 37.5877C27.2499 37.5077 27.1006 37.4677 26.9246 37.4677C26.7752 37.4677 26.6366 37.4944 26.5086 37.5477C26.3806 37.5957 26.2686 37.6651 26.1726 37.7557C26.0766 37.8411 26.0019 37.9451 25.9486 38.0677C25.8952 38.1851 25.8686 38.3131 25.8686 38.4517V40.9797H25.0366ZM34.3798 41.0597C33.9478 41.0597 33.5638 40.9691 33.2278 40.7877C32.8971 40.6011 32.6358 40.3477 32.4438 40.0277C32.2571 39.7077 32.1638 39.3397 32.1638 38.9237C32.1638 38.5931 32.2171 38.2917 32.3238 38.0197C32.4304 37.7477 32.5771 37.5131 32.7638 37.3157C32.9558 37.1131 33.1824 36.9584 33.4438 36.8517C33.7104 36.7397 33.9984 36.6837 34.3078 36.6837C34.5798 36.6837 34.8331 36.7371 35.0678 36.8437C35.3024 36.9451 35.5051 37.0864 35.6758 37.2677C35.8518 37.4491 35.9851 37.6651 36.0758 37.9157C36.1718 38.1611 36.2171 38.4304 36.2118 38.7237L36.2038 39.0757H32.7718L32.5878 38.4197H35.4918L35.3718 38.5557V38.3637C35.3558 38.1877 35.2971 38.0304 35.1958 37.8917C35.0944 37.7531 34.9664 37.6437 34.8118 37.5637C34.6571 37.4837 34.4891 37.4437 34.3078 37.4437C34.0198 37.4437 33.7771 37.4997 33.5798 37.6117C33.3824 37.7184 33.2331 37.8784 33.1318 38.0917C33.0304 38.2997 32.9798 38.5584 32.9798 38.8677C32.9798 39.1611 33.0411 39.4171 33.1638 39.6357C33.2864 39.8491 33.4598 40.0144 33.6838 40.1317C33.9078 40.2491 34.1664 40.3077 34.4598 40.3077C34.6678 40.3077 34.8598 40.2731 35.0358 40.2037C35.2171 40.1344 35.4118 40.0091 35.6198 39.8277L36.0358 40.4117C35.9078 40.5397 35.7504 40.6517 35.5638 40.7477C35.3824 40.8437 35.1878 40.9211 34.9798 40.9797C34.7771 41.0331 34.5771 41.0597 34.3798 41.0597Z" fill="#747474"/>
</svg>
