<svg width="50" height="42" viewBox="0 0 50 42" fill="none" xmlns="http://www.w3.org/2000/svg">
<path d="M36.3539 10.4388L36.3522 10.4372L26.5622 0.647484C26.1448 0.229922 25.59 0 24.9999 0C24.4098 0 23.8549 0.229781 23.4375 0.647297L13.6525 10.432C13.6492 10.4353 13.6459 10.4388 13.6426 10.4421C12.7856 11.304 12.7871 12.7023 13.6468 13.562C14.0396 13.955 14.5583 14.1825 15.1129 14.2064C15.1354 14.2086 15.1582 14.2096 15.1811 14.2096H15.5712V21.4143C15.5712 22.84 16.7312 24 18.1572 24H21.9874C22.3756 24 22.6905 23.6852 22.6905 23.2969V17.6484C22.6905 16.9979 23.2197 16.4687 23.8703 16.4687H26.1295C26.7801 16.4687 27.3092 16.9979 27.3092 17.6484V23.2969C27.3092 23.6852 27.624 24 28.0123 24H31.8425C33.2686 24 34.4285 22.84 34.4285 21.4144V14.2097H34.7904C35.3803 14.2097 35.9352 13.9799 36.3528 13.5624C37.2134 12.7013 37.2138 11.3005 36.3539 10.4388Z" fill="#3B5D8F"/>
<path d="M17.9088 40V34.4H18.7728V40H17.9088ZM14.2528 40V34.4H15.1168V40H14.2528ZM14.6288 37.624V36.792H18.2928V37.624H14.6288ZM22.0187 40.08C21.608 40.08 21.24 39.9867 20.9147 39.8C20.5947 39.608 20.3414 39.3493 20.1547 39.024C19.968 38.6933 19.8747 38.3173 19.8747 37.896C19.8747 37.4747 19.968 37.1013 20.1547 36.776C20.3414 36.4453 20.5947 36.1867 20.9147 36C21.24 35.808 21.608 35.712 22.0187 35.712C22.424 35.712 22.7867 35.808 23.1067 36C23.432 36.1867 23.688 36.4453 23.8747 36.776C24.0614 37.1013 24.1547 37.4747 24.1547 37.896C24.1547 38.3173 24.0614 38.6933 23.8747 39.024C23.688 39.3493 23.432 39.608 23.1067 39.8C22.7867 39.9867 22.424 40.08 22.0187 40.08ZM22.0187 39.328C22.2694 39.328 22.4934 39.2667 22.6907 39.144C22.888 39.016 23.0427 38.8453 23.1547 38.632C23.2667 38.4133 23.32 38.168 23.3147 37.896C23.32 37.6187 23.2667 37.3733 23.1547 37.16C23.0427 36.9413 22.888 36.7707 22.6907 36.648C22.4934 36.5253 22.2694 36.464 22.0187 36.464C21.768 36.464 21.5414 36.528 21.3387 36.656C21.1414 36.7787 20.9867 36.9493 20.8747 37.168C20.7627 37.3813 20.7094 37.624 20.7147 37.896C20.7094 38.168 20.7627 38.4133 20.8747 38.632C20.9867 38.8453 21.1414 39.016 21.3387 39.144C21.5414 39.2667 21.768 39.328 22.0187 39.328ZM25.0366 40V35.8H25.8686V36.696L25.7166 36.792C25.7592 36.6533 25.8259 36.52 25.9166 36.392C26.0126 36.264 26.1272 36.152 26.2606 36.056C26.3992 35.9547 26.5459 35.8747 26.7006 35.816C26.8606 35.7573 27.0232 35.728 27.1886 35.728C27.4286 35.728 27.6392 35.768 27.8206 35.848C28.0019 35.928 28.1512 36.048 28.2686 36.208C28.3859 36.368 28.4712 36.568 28.5246 36.808L28.3966 36.776L28.4526 36.64C28.5112 36.5173 28.5912 36.4027 28.6926 36.296C28.7992 36.184 28.9192 36.0853 29.0526 36C29.1859 35.9147 29.3272 35.848 29.4766 35.8C29.6259 35.752 29.7726 35.728 29.9166 35.728C30.2312 35.728 30.4899 35.792 30.6926 35.92C30.9006 36.048 31.0552 36.2427 31.1566 36.504C31.2632 36.7653 31.3166 37.0907 31.3166 37.48V40H30.4846V37.528C30.4846 37.288 30.4526 37.0933 30.3886 36.944C30.3299 36.7893 30.2392 36.6747 30.1166 36.6C29.9939 36.5253 29.8366 36.488 29.6446 36.488C29.4952 36.488 29.3539 36.5147 29.2206 36.568C29.0926 36.616 28.9806 36.6853 28.8846 36.776C28.7886 36.8667 28.7139 36.9733 28.6606 37.096C28.6072 37.2133 28.5806 37.344 28.5806 37.488V40H27.7486V37.512C27.7486 37.2933 27.7166 37.1093 27.6526 36.96C27.5886 36.8053 27.4952 36.688 27.3726 36.608C27.2499 36.528 27.1006 36.488 26.9246 36.488C26.7752 36.488 26.6366 36.5147 26.5086 36.568C26.3806 36.616 26.2686 36.6853 26.1726 36.776C26.0766 36.8613 26.0019 36.9653 25.9486 37.088C25.8952 37.2053 25.8686 37.3333 25.8686 37.472V40H25.0366ZM34.3798 40.08C33.9478 40.08 33.5638 39.9893 33.2278 39.808C32.8971 39.6213 32.6358 39.368 32.4438 39.048C32.2571 38.728 32.1638 38.36 32.1638 37.944C32.1638 37.6133 32.2171 37.312 32.3238 37.04C32.4304 36.768 32.5771 36.5333 32.7638 36.336C32.9558 36.1333 33.1824 35.9787 33.4438 35.872C33.7104 35.76 33.9984 35.704 34.3078 35.704C34.5798 35.704 34.8331 35.7573 35.0678 35.864C35.3024 35.9653 35.5051 36.1067 35.6758 36.288C35.8518 36.4693 35.9851 36.6853 36.0758 36.936C36.1718 37.1813 36.2171 37.4507 36.2118 37.744L36.2038 38.096H32.7718L32.5878 37.44H35.4918L35.3718 37.576V37.384C35.3558 37.208 35.2971 37.0507 35.1958 36.912C35.0944 36.7733 34.9664 36.664 34.8118 36.584C34.6571 36.504 34.4891 36.464 34.3078 36.464C34.0198 36.464 33.7771 36.52 33.5798 36.632C33.3824 36.7387 33.2331 36.8987 33.1318 37.112C33.0304 37.32 32.9798 37.5787 32.9798 37.888C32.9798 38.1813 33.0411 38.4373 33.1638 38.656C33.2864 38.8693 33.4598 39.0347 33.6838 39.152C33.9078 39.2693 34.1664 39.328 34.4598 39.328C34.6678 39.328 34.8598 39.2933 35.0358 39.224C35.2171 39.1547 35.4118 39.0293 35.6198 38.848L36.0358 39.432C35.9078 39.56 35.7504 39.672 35.5638 39.768C35.3824 39.864 35.1878 39.9413 34.9798 40C34.7771 40.0533 34.5771 40.08 34.3798 40.08Z" fill="#747474"/>
</svg>
