<svg width="60" height="39" viewBox="0 0 60 39" fill="none" xmlns="http://www.w3.org/2000/svg">
<path d="M39.4609 9.69902C39.4603 9.69859 39.4599 9.69797 39.4594 9.6975L31.301 1.53945C30.9532 1.19148 30.4909 1 29.9991 1C29.5073 1 29.045 1.19148 28.6971 1.53941L20.5429 9.69336C20.5402 9.69609 20.5373 9.69898 20.5347 9.70176C19.8206 10.42 19.8218 11.5853 20.5382 12.3017C20.8655 12.6291 21.2976 12.8187 21.7598 12.8386C21.7787 12.8405 21.7977 12.8414 21.8167 12.8414H22.1417V18.8451C22.1417 20.0333 23.1085 21 24.2967 21H27.4886C27.8122 21 28.0745 20.7375 28.0745 20.414V15.707C28.0745 15.1649 28.5156 14.7239 29.0578 14.7239H30.9404C31.4826 14.7239 31.9235 15.1649 31.9235 15.707V20.4141C31.9235 20.7375 32.1858 21 32.5095 21H35.7013C36.8897 21 37.8563 20.0334 37.8563 18.8452V12.8414H38.1578C38.6495 12.8414 39.1118 12.6499 39.4599 12.3018C40.177 11.5844 40.1774 10.417 39.4609 9.69902ZM38.6311 11.4733C38.5691 11.5357 38.4954 11.5852 38.4141 11.6188C38.3329 11.6525 38.2458 11.6698 38.1578 11.6696H37.2703C36.9467 11.6696 36.6844 11.9318 36.6844 12.2555V18.8452C36.6844 19.3871 36.2434 19.8281 35.7013 19.8281H33.0954V15.707C33.0954 14.5188 32.1287 13.552 30.9404 13.552H29.0578C27.8695 13.552 26.9027 14.5188 26.9027 15.707V19.8281H24.2968C23.7548 19.8281 23.3136 19.3871 23.3136 18.8452V12.2555C23.3136 11.9318 23.0513 11.6695 22.7277 11.6695H21.8555C21.8463 11.6689 21.8372 11.6685 21.828 11.6683C21.6534 11.6652 21.4897 11.596 21.3671 11.4731C21.1061 11.2122 21.1061 10.7876 21.3671 10.5265C21.3669 10.5266 21.3672 10.5265 21.3671 10.5265L21.3678 10.5257L29.5259 2.36797C29.5879 2.30559 29.6616 2.25613 29.7428 2.22247C29.8241 2.18881 29.9112 2.17161 29.9991 2.17188C30.1778 2.17188 30.3458 2.24145 30.4723 2.36797L38.6285 10.5241L38.6324 10.5277C38.8919 10.7891 38.8915 11.2129 38.6311 11.4733Z" fill="#B4B4B4"/>
<path d="M21.3671 10.5265C21.1061 10.7876 21.1061 11.2122 21.3671 11.4731C21.4897 11.596 21.6534 11.6652 21.828 11.6683C21.8372 11.6685 21.8463 11.6689 21.8555 11.6695H22.7277C23.0513 11.6695 23.3136 11.9318 23.3136 12.2555V18.8452C23.3136 19.3871 23.7548 19.8281 24.2968 19.8281H26.9027V15.707C26.9027 14.5188 27.8695 13.552 29.0578 13.552H30.9404C32.1287 13.552 33.0954 14.5188 33.0954 15.707V19.8281H35.7013C36.2434 19.8281 36.6844 19.3871 36.6844 18.8452V12.2555C36.6844 11.9318 36.9467 11.6696 37.2703 11.6696H38.1578C38.2458 11.6698 38.3329 11.6525 38.4141 11.6188C38.4954 11.5852 38.5691 11.5357 38.6311 11.4733C38.8915 11.2129 38.8919 10.7891 38.6324 10.5277L38.6285 10.5241L30.4723 2.36797C30.3458 2.24145 30.1778 2.17188 29.9991 2.17188C29.9112 2.17161 29.8241 2.18881 29.7428 2.22247C29.6616 2.25613 29.5879 2.30559 29.5259 2.36797L21.3678 10.5257L21.3671 10.5265ZM21.3671 10.5265C21.3672 10.5265 21.3669 10.5266 21.3671 10.5265ZM39.4609 9.69902C39.4603 9.69859 39.4599 9.69797 39.4594 9.6975L31.301 1.53945C30.9532 1.19148 30.4909 1 29.9991 1C29.5073 1 29.045 1.19148 28.6971 1.53941L20.5429 9.69336C20.5402 9.69609 20.5373 9.69898 20.5347 9.70176C19.8206 10.42 19.8218 11.5853 20.5382 12.3017C20.8655 12.6291 21.2976 12.8187 21.7598 12.8386C21.7787 12.8405 21.7977 12.8414 21.8167 12.8414H22.1417V18.8451C22.1417 20.0333 23.1085 21 24.2967 21H27.4886C27.8122 21 28.0745 20.7375 28.0745 20.414V15.707C28.0745 15.1649 28.5156 14.7239 29.0578 14.7239H30.9404C31.4826 14.7239 31.9235 15.1649 31.9235 15.707V20.4141C31.9235 20.7375 32.1858 21 32.5095 21H35.7013C36.8897 21 37.8563 20.0334 37.8563 18.8452V12.8414H38.1578C38.6495 12.8414 39.1118 12.6499 39.4599 12.3018C40.177 11.5844 40.1774 10.417 39.4609 9.69902Z" stroke="#B4B4B4" stroke-width="0.500423"/>
<path d="M21.1359 36V29H22.2159V36H21.1359ZM16.5659 36V29H17.6459V36H16.5659ZM17.0359 33.03V31.99H21.6159V33.03H17.0359ZM26.2734 36.1C25.76 36.1 25.3 35.9833 24.8934 35.75C24.4934 35.51 24.1767 35.1867 23.9434 34.78C23.71 34.3667 23.5934 33.8967 23.5934 33.37C23.5934 32.8433 23.71 32.3767 23.9434 31.97C24.1767 31.5567 24.4934 31.2333 24.8934 31C25.3 30.76 25.76 30.64 26.2734 30.64C26.78 30.64 27.2334 30.76 27.6334 31C28.04 31.2333 28.36 31.5567 28.5934 31.97C28.8267 32.3767 28.9434 32.8433 28.9434 33.37C28.9434 33.8967 28.8267 34.3667 28.5934 34.78C28.36 35.1867 28.04 35.51 27.6334 35.75C27.2334 35.9833 26.78 36.1 26.2734 36.1ZM26.2734 35.16C26.5867 35.16 26.8667 35.0833 27.1134 34.93C27.36 34.77 27.5534 34.5567 27.6934 34.29C27.8334 34.0167 27.9 33.71 27.8934 33.37C27.9 33.0233 27.8334 32.7167 27.6934 32.45C27.5534 32.1767 27.36 31.9633 27.1134 31.81C26.8667 31.6567 26.5867 31.58 26.2734 31.58C25.96 31.58 25.6767 31.66 25.4234 31.82C25.1767 31.9733 24.9834 32.1867 24.8434 32.46C24.7034 32.7267 24.6367 33.03 24.6434 33.37C24.6367 33.71 24.7034 34.0167 24.8434 34.29C24.9834 34.5567 25.1767 34.77 25.4234 34.93C25.6767 35.0833 25.96 35.16 26.2734 35.16ZM30.0457 36V30.75H31.0857V31.87L30.8957 31.99C30.949 31.8167 31.0324 31.65 31.1457 31.49C31.2657 31.33 31.409 31.19 31.5757 31.07C31.749 30.9433 31.9324 30.8433 32.1257 30.77C32.3257 30.6967 32.529 30.66 32.7357 30.66C33.0357 30.66 33.299 30.71 33.5257 30.81C33.7524 30.91 33.939 31.06 34.0857 31.26C34.2324 31.46 34.339 31.71 34.4057 32.01L34.2457 31.97L34.3157 31.8C34.389 31.6467 34.489 31.5033 34.6157 31.37C34.749 31.23 34.899 31.1067 35.0657 31C35.2324 30.8933 35.409 30.81 35.5957 30.75C35.7824 30.69 35.9657 30.66 36.1457 30.66C36.539 30.66 36.8624 30.74 37.1157 30.9C37.3757 31.06 37.569 31.3033 37.6957 31.63C37.829 31.9567 37.8957 32.3633 37.8957 32.85V36H36.8557V32.91C36.8557 32.61 36.8157 32.3667 36.7357 32.18C36.6624 31.9867 36.549 31.8433 36.3957 31.75C36.2424 31.6567 36.0457 31.61 35.8057 31.61C35.619 31.61 35.4424 31.6433 35.2757 31.71C35.1157 31.77 34.9757 31.8567 34.8557 31.97C34.7357 32.0833 34.6424 32.2167 34.5757 32.37C34.509 32.5167 34.4757 32.68 34.4757 32.86V36H33.4357V32.89C33.4357 32.6167 33.3957 32.3867 33.3157 32.2C33.2357 32.0067 33.119 31.86 32.9657 31.76C32.8124 31.66 32.6257 31.61 32.4057 31.61C32.219 31.61 32.0457 31.6433 31.8857 31.71C31.7257 31.77 31.5857 31.8567 31.4657 31.97C31.3457 32.0767 31.2524 32.2067 31.1857 32.36C31.119 32.5067 31.0857 32.6667 31.0857 32.84V36H30.0457ZM41.7247 36.1C41.1847 36.1 40.7047 35.9867 40.2847 35.76C39.8714 35.5267 39.5447 35.21 39.3047 34.81C39.0714 34.41 38.9547 33.95 38.9547 33.43C38.9547 33.0167 39.0214 32.64 39.1547 32.3C39.288 31.96 39.4714 31.6667 39.7047 31.42C39.9447 31.1667 40.228 30.9733 40.5547 30.84C40.888 30.7 41.248 30.63 41.6347 30.63C41.9747 30.63 42.2914 30.6967 42.5847 30.83C42.878 30.9567 43.1314 31.1333 43.3447 31.36C43.5647 31.5867 43.7314 31.8567 43.8447 32.17C43.9647 32.4767 44.0214 32.8133 44.0147 33.18L44.0047 33.62H39.7147L39.4847 32.8H43.1147L42.9647 32.97V32.73C42.9447 32.51 42.8714 32.3133 42.7447 32.14C42.618 31.9667 42.458 31.83 42.2647 31.73C42.0714 31.63 41.8614 31.58 41.6347 31.58C41.2747 31.58 40.9714 31.65 40.7247 31.79C40.478 31.9233 40.2914 32.1233 40.1647 32.39C40.038 32.65 39.9747 32.9733 39.9747 33.36C39.9747 33.7267 40.0514 34.0467 40.2047 34.32C40.358 34.5867 40.5747 34.7933 40.8547 34.94C41.1347 35.0867 41.458 35.16 41.8247 35.16C42.0847 35.16 42.3247 35.1167 42.5447 35.03C42.7714 34.9433 43.0147 34.7867 43.2747 34.56L43.7947 35.29C43.6347 35.45 43.438 35.59 43.2047 35.71C42.978 35.83 42.7347 35.9267 42.4747 36C42.2214 36.0667 41.9714 36.1 41.7247 36.1Z" fill="#747474"/>
</svg>
