<svg width="50" height="43" viewBox="0 0 50 43" fill="none" xmlns="http://www.w3.org/2000/svg">
<path d="M38.7714 6.14286V23.6C38.7714 24.3732 38.1446 25 37.3714 25H12.6285C11.8553 25 11.2285 24.3732 11.2285 23.6V6.14286" stroke="#9CADC6" stroke-width="2" stroke-miterlimit="10" stroke-linecap="round" stroke-linejoin="round"/>
<path d="M23.2857 14.7143H17.8851C16.9498 14.7143 11.2285 14.8274 11.2285 6.1429C11.2285 5.19616 11.9961 4.42861 12.9428 4.42861H37.0571C38.0038 4.42861 38.7714 5.19616 38.7714 6.1429C38.7714 14.937 33.0137 14.7143 32.1147 14.7143H26.7142" stroke="#9CADC6" stroke-width="2" stroke-miterlimit="10" stroke-linecap="round" stroke-linejoin="round"/>
<path d="M26.7137 18.1428H23.2852V13H26.7137V18.1428Z" stroke="#9CADC6" stroke-width="2" stroke-miterlimit="10" stroke-linecap="round" stroke-linejoin="round"/>
<path d="M19.8574 4.42847V2.71418C19.8574 1.76744 20.625 0.999895 21.5717 0.999895H28.4288C29.3756 0.999895 30.1431 1.76744 30.1431 2.71418V4.42847" stroke="#9CADC6" stroke-width="2" stroke-miterlimit="10" stroke-linecap="round" stroke-linejoin="round"/>
<path d="M17.7863 41.08C17.6049 41.08 17.4316 41.056 17.2663 41.008C17.1009 40.96 16.9463 40.8907 16.8023 40.8C16.6636 40.7093 16.5383 40.6027 16.4263 40.48C16.3143 40.352 16.2183 40.2133 16.1383 40.064L16.6823 39.496C16.7943 39.656 16.8956 39.784 16.9863 39.88C17.0823 39.976 17.1729 40.0507 17.2583 40.104C17.3436 40.1573 17.4289 40.1947 17.5143 40.216C17.5996 40.232 17.6903 40.24 17.7863 40.24C17.9783 40.24 18.1463 40.1973 18.2903 40.112C18.4343 40.0213 18.5463 39.8987 18.6263 39.744C18.7063 39.5893 18.7463 39.4133 18.7463 39.216V36.2H17.7223V35.4H20.4743V36.2H19.6103V39.296C19.6103 39.552 19.5649 39.7893 19.4743 40.008C19.3889 40.2213 19.2636 40.408 19.0983 40.568C18.9383 40.728 18.7463 40.8533 18.5223 40.944C18.3036 41.0347 18.0583 41.08 17.7863 41.08ZM22.9367 41.08C22.526 41.08 22.158 40.9867 21.8327 40.8C21.5127 40.608 21.2593 40.3493 21.0727 40.024C20.886 39.6933 20.7927 39.3173 20.7927 38.896C20.7927 38.4747 20.886 38.1013 21.0727 37.776C21.2593 37.4453 21.5127 37.1867 21.8327 37C22.158 36.808 22.526 36.712 22.9367 36.712C23.342 36.712 23.7047 36.808 24.0247 37C24.35 37.1867 24.606 37.4453 24.7927 37.776C24.9793 38.1013 25.0727 38.4747 25.0727 38.896C25.0727 39.3173 24.9793 39.6933 24.7927 40.024C24.606 40.3493 24.35 40.608 24.0247 40.8C23.7047 40.9867 23.342 41.08 22.9367 41.08ZM22.9367 40.328C23.1873 40.328 23.4113 40.2667 23.6087 40.144C23.806 40.016 23.9607 39.8453 24.0727 39.632C24.1847 39.4133 24.238 39.168 24.2327 38.896C24.238 38.6187 24.1847 38.3733 24.0727 38.16C23.9607 37.9413 23.806 37.7707 23.6087 37.648C23.4113 37.5253 23.1873 37.464 22.9367 37.464C22.686 37.464 22.4593 37.528 22.2567 37.656C22.0593 37.7787 21.9047 37.9493 21.7927 38.168C21.6807 38.3813 21.6273 38.624 21.6327 38.896C21.6273 39.168 21.6807 39.4133 21.7927 39.632C21.9047 39.8453 22.0593 40.016 22.2567 40.144C22.4593 40.2667 22.686 40.328 22.9367 40.328ZM28.1785 41.08C27.9972 41.08 27.8159 41.0507 27.6345 40.992C27.4585 40.9333 27.2959 40.856 27.1465 40.76C27.0025 40.6587 26.8799 40.5493 26.7785 40.432C26.6825 40.3093 26.6185 40.1867 26.5865 40.064L26.7945 39.952V40.976H25.9705V35.08H26.7945V37.76L26.6665 37.688C26.6932 37.5653 26.7519 37.448 26.8425 37.336C26.9332 37.2187 27.0479 37.1147 27.1865 37.024C27.3305 36.928 27.4852 36.8533 27.6505 36.8C27.8159 36.7413 27.9839 36.712 28.1545 36.712C28.5332 36.712 28.8692 36.8053 29.1625 36.992C29.4559 37.1787 29.6879 37.4373 29.8585 37.768C30.0292 38.0933 30.1145 38.4667 30.1145 38.888C30.1145 39.3093 30.0292 39.6853 29.8585 40.016C29.6932 40.3467 29.4639 40.608 29.1705 40.8C28.8772 40.9867 28.5465 41.08 28.1785 41.08ZM28.0425 40.328C28.2879 40.328 28.5065 40.2667 28.6985 40.144C28.8905 40.016 29.0425 39.8453 29.1545 39.632C29.2665 39.4133 29.3225 39.1653 29.3225 38.888C29.3225 38.616 29.2665 38.3733 29.1545 38.16C29.0479 37.9413 28.8985 37.7707 28.7065 37.648C28.5145 37.5253 28.2932 37.464 28.0425 37.464C27.7919 37.464 27.5705 37.5253 27.3785 37.648C27.1865 37.7707 27.0345 37.9413 26.9225 38.16C26.8105 38.3733 26.7545 38.616 26.7545 38.888C26.7545 39.1653 26.8105 39.4133 26.9225 39.632C27.0345 39.8453 27.1865 40.016 27.3785 40.144C27.5705 40.2667 27.7919 40.328 28.0425 40.328ZM32.4096 41.08C32.0576 41.08 31.7403 41.0187 31.4576 40.896C31.1749 40.7733 30.9403 40.592 30.7536 40.352L31.3136 39.872C31.4736 40.0587 31.6469 40.1947 31.8336 40.28C32.0256 40.36 32.2416 40.4 32.4816 40.4C32.5776 40.4 32.6656 40.3893 32.7456 40.368C32.8309 40.3413 32.9029 40.304 32.9616 40.256C33.0256 40.208 33.0736 40.152 33.1056 40.088C33.1376 40.0187 33.1536 39.944 33.1536 39.864C33.1536 39.7253 33.1029 39.6133 33.0016 39.528C32.9483 39.4907 32.8629 39.4507 32.7456 39.408C32.6336 39.36 32.4869 39.312 32.3056 39.264C31.9963 39.184 31.7429 39.0933 31.5456 38.992C31.3483 38.8907 31.1963 38.776 31.0896 38.648C31.0096 38.5467 30.9509 38.4373 30.9136 38.32C30.8763 38.1973 30.8576 38.064 30.8576 37.92C30.8576 37.744 30.8949 37.584 30.9696 37.44C31.0496 37.2907 31.1563 37.1627 31.2896 37.056C31.4283 36.944 31.5883 36.8587 31.7696 36.8C31.9563 36.7413 32.1536 36.712 32.3616 36.712C32.5589 36.712 32.7536 36.7387 32.9456 36.792C33.1429 36.8453 33.3243 36.9227 33.4896 37.024C33.6549 37.1253 33.7936 37.2453 33.9056 37.384L33.4336 37.904C33.3323 37.8027 33.2203 37.7147 33.0976 37.64C32.9803 37.56 32.8603 37.4987 32.7376 37.456C32.6149 37.4133 32.5029 37.392 32.4016 37.392C32.2896 37.392 32.1883 37.4027 32.0976 37.424C32.0069 37.4453 31.9296 37.4773 31.8656 37.52C31.8069 37.5627 31.7616 37.616 31.7296 37.68C31.6976 37.744 31.6816 37.816 31.6816 37.896C31.6869 37.9653 31.7029 38.032 31.7296 38.096C31.7616 38.1547 31.8043 38.2053 31.8576 38.248C31.9163 38.2907 32.0043 38.336 32.1216 38.384C32.2389 38.432 32.3883 38.4773 32.5696 38.52C32.8363 38.5893 33.0549 38.6667 33.2256 38.752C33.4016 38.832 33.5403 38.9253 33.6416 39.032C33.7483 39.1333 33.8229 39.2507 33.8656 39.384C33.9083 39.5173 33.9296 39.6667 33.9296 39.832C33.9296 40.072 33.8603 40.288 33.7216 40.48C33.5883 40.6667 33.4069 40.8133 33.1776 40.92C32.9483 41.0267 32.6923 41.08 32.4096 41.08Z" fill="#747474"/>
</svg>
