<svg width="50" height="42" viewBox="0 0 50 42" fill="none" xmlns="http://www.w3.org/2000/svg">
<g clip-path="url(#clip0_199_196)">
<path d="M25.8004 16.8C26.2422 16.8 26.6004 16.4418 26.6004 16V12.8C26.6004 12.3582 26.2423 12 25.8004 12H24.2004C23.7586 12 23.4004 12.3581 23.4004 12.8V16C23.4004 16.4418 23.7586 16.8 24.2004 16.8H25.8004Z" fill="#3B5D8F"/>
<path d="M36.2533 3.2H30.6V2.4C30.6 1.07659 29.5235 0 28.2 0H21.8C20.4766 0 19.4 1.07653 19.4 2.4V3.2H13.7467C12.4233 3.2 11.3467 4.27653 11.3467 5.6C11.3467 7.16677 11.5387 8.53888 11.9199 9.70821C12.3011 10.8775 12.8716 11.8442 13.6287 12.6C14.9027 13.8723 16.5254 14.4 18.3475 14.4H21.8V12.8C21.8 11.4766 22.8765 10.4 24.2 10.4H25.8C27.1234 10.4 28.2 11.4765 28.2 12.8V14.4H29.9776C31.5701 14.3338 34.1751 14.8181 36.3705 12.6328C37.128 11.8789 37.6986 10.9106 38.08 9.73573C38.4614 8.56091 38.6533 7.17968 38.6533 5.6C38.6533 4.27659 37.5768 3.2 36.2533 3.2ZM21 2.4C21 1.95861 21.3586 1.6 21.8 1.6H28.2C28.6414 1.6 29 1.95856 29 2.4V3.2H21V2.4Z" fill="#3B5D8F"/>
<path d="M29.9994 16H28.2C28.2 17.3234 27.1235 18.4 25.8 18.4H24.2C22.8766 18.4 21.8 17.3235 21.8 16H18.3545C16.0727 16 14.0684 15.2998 12.4982 13.732C12.0546 13.2892 11.6759 12.7906 11.3467 12.2573V23.2C11.3467 23.6422 11.7045 24 12.1467 24H37.8533C38.2955 24 38.6533 23.6422 38.6533 23.2V12.2902C38.3197 12.8316 37.9394 13.3291 37.4994 13.7672C34.9751 16.2783 32.2868 15.8919 29.9994 16Z" fill="#3B5D8F"/>
</g>
<path d="M17.7863 40.08C17.6049 40.08 17.4316 40.056 17.2663 40.008C17.1009 39.96 16.9463 39.8907 16.8023 39.8C16.6636 39.7093 16.5383 39.6027 16.4263 39.48C16.3143 39.352 16.2183 39.2133 16.1383 39.064L16.6823 38.496C16.7943 38.656 16.8956 38.784 16.9863 38.88C17.0823 38.976 17.1729 39.0507 17.2583 39.104C17.3436 39.1573 17.4289 39.1947 17.5143 39.216C17.5996 39.232 17.6903 39.24 17.7863 39.24C17.9783 39.24 18.1463 39.1973 18.2903 39.112C18.4343 39.0213 18.5463 38.8987 18.6263 38.744C18.7063 38.5893 18.7463 38.4133 18.7463 38.216V35.2H17.7223V34.4H20.4743V35.2H19.6103V38.296C19.6103 38.552 19.5649 38.7893 19.4743 39.008C19.3889 39.2213 19.2636 39.408 19.0983 39.568C18.9383 39.728 18.7463 39.8533 18.5223 39.944C18.3036 40.0347 18.0583 40.08 17.7863 40.08ZM22.9367 40.08C22.526 40.08 22.158 39.9867 21.8327 39.8C21.5127 39.608 21.2593 39.3493 21.0727 39.024C20.886 38.6933 20.7927 38.3173 20.7927 37.896C20.7927 37.4747 20.886 37.1013 21.0727 36.776C21.2593 36.4453 21.5127 36.1867 21.8327 36C22.158 35.808 22.526 35.712 22.9367 35.712C23.342 35.712 23.7047 35.808 24.0247 36C24.35 36.1867 24.606 36.4453 24.7927 36.776C24.9793 37.1013 25.0727 37.4747 25.0727 37.896C25.0727 38.3173 24.9793 38.6933 24.7927 39.024C24.606 39.3493 24.35 39.608 24.0247 39.8C23.7047 39.9867 23.342 40.08 22.9367 40.08ZM22.9367 39.328C23.1873 39.328 23.4113 39.2667 23.6087 39.144C23.806 39.016 23.9607 38.8453 24.0727 38.632C24.1847 38.4133 24.238 38.168 24.2327 37.896C24.238 37.6187 24.1847 37.3733 24.0727 37.16C23.9607 36.9413 23.806 36.7707 23.6087 36.648C23.4113 36.5253 23.1873 36.464 22.9367 36.464C22.686 36.464 22.4593 36.528 22.2567 36.656C22.0593 36.7787 21.9047 36.9493 21.7927 37.168C21.6807 37.3813 21.6273 37.624 21.6327 37.896C21.6273 38.168 21.6807 38.4133 21.7927 38.632C21.9047 38.8453 22.0593 39.016 22.2567 39.144C22.4593 39.2667 22.686 39.328 22.9367 39.328ZM28.1785 40.08C27.9972 40.08 27.8159 40.0507 27.6345 39.992C27.4585 39.9333 27.2959 39.856 27.1465 39.76C27.0025 39.6587 26.8799 39.5493 26.7785 39.432C26.6825 39.3093 26.6185 39.1867 26.5865 39.064L26.7945 38.952V39.976H25.9705V34.08H26.7945V36.76L26.6665 36.688C26.6932 36.5653 26.7519 36.448 26.8425 36.336C26.9332 36.2187 27.0479 36.1147 27.1865 36.024C27.3305 35.928 27.4852 35.8533 27.6505 35.8C27.8159 35.7413 27.9839 35.712 28.1545 35.712C28.5332 35.712 28.8692 35.8053 29.1625 35.992C29.4559 36.1787 29.6879 36.4373 29.8585 36.768C30.0292 37.0933 30.1145 37.4667 30.1145 37.888C30.1145 38.3093 30.0292 38.6853 29.8585 39.016C29.6932 39.3467 29.4639 39.608 29.1705 39.8C28.8772 39.9867 28.5465 40.08 28.1785 40.08ZM28.0425 39.328C28.2879 39.328 28.5065 39.2667 28.6985 39.144C28.8905 39.016 29.0425 38.8453 29.1545 38.632C29.2665 38.4133 29.3225 38.1653 29.3225 37.888C29.3225 37.616 29.2665 37.3733 29.1545 37.16C29.0479 36.9413 28.8985 36.7707 28.7065 36.648C28.5145 36.5253 28.2932 36.464 28.0425 36.464C27.7919 36.464 27.5705 36.5253 27.3785 36.648C27.1865 36.7707 27.0345 36.9413 26.9225 37.16C26.8105 37.3733 26.7545 37.616 26.7545 37.888C26.7545 38.1653 26.8105 38.4133 26.9225 38.632C27.0345 38.8453 27.1865 39.016 27.3785 39.144C27.5705 39.2667 27.7919 39.328 28.0425 39.328ZM32.4096 40.08C32.0576 40.08 31.7403 40.0187 31.4576 39.896C31.1749 39.7733 30.9403 39.592 30.7536 39.352L31.3136 38.872C31.4736 39.0587 31.6469 39.1947 31.8336 39.28C32.0256 39.36 32.2416 39.4 32.4816 39.4C32.5776 39.4 32.6656 39.3893 32.7456 39.368C32.8309 39.3413 32.9029 39.304 32.9616 39.256C33.0256 39.208 33.0736 39.152 33.1056 39.088C33.1376 39.0187 33.1536 38.944 33.1536 38.864C33.1536 38.7253 33.1029 38.6133 33.0016 38.528C32.9483 38.4907 32.8629 38.4507 32.7456 38.408C32.6336 38.36 32.4869 38.312 32.3056 38.264C31.9963 38.184 31.7429 38.0933 31.5456 37.992C31.3483 37.8907 31.1963 37.776 31.0896 37.648C31.0096 37.5467 30.9509 37.4373 30.9136 37.32C30.8763 37.1973 30.8576 37.064 30.8576 36.92C30.8576 36.744 30.8949 36.584 30.9696 36.44C31.0496 36.2907 31.1563 36.1627 31.2896 36.056C31.4283 35.944 31.5883 35.8587 31.7696 35.8C31.9563 35.7413 32.1536 35.712 32.3616 35.712C32.5589 35.712 32.7536 35.7387 32.9456 35.792C33.1429 35.8453 33.3243 35.9227 33.4896 36.024C33.6549 36.1253 33.7936 36.2453 33.9056 36.384L33.4336 36.904C33.3323 36.8027 33.2203 36.7147 33.0976 36.64C32.9803 36.56 32.8603 36.4987 32.7376 36.456C32.6149 36.4133 32.5029 36.392 32.4016 36.392C32.2896 36.392 32.1883 36.4027 32.0976 36.424C32.0069 36.4453 31.9296 36.4773 31.8656 36.52C31.8069 36.5627 31.7616 36.616 31.7296 36.68C31.6976 36.744 31.6816 36.816 31.6816 36.896C31.6869 36.9653 31.7029 37.032 31.7296 37.096C31.7616 37.1547 31.8043 37.2053 31.8576 37.248C31.9163 37.2907 32.0043 37.336 32.1216 37.384C32.2389 37.432 32.3883 37.4773 32.5696 37.52C32.8363 37.5893 33.0549 37.6667 33.2256 37.752C33.4016 37.832 33.5403 37.9253 33.6416 38.032C33.7483 38.1333 33.8229 38.2507 33.8656 38.384C33.9083 38.5173 33.9296 38.6667 33.9296 38.832C33.9296 39.072 33.8603 39.288 33.7216 39.48C33.5883 39.6667 33.4069 39.8133 33.1776 39.92C32.9483 40.0267 32.6923 40.08 32.4096 40.08Z" fill="#747474"/>
<defs>
<clipPath id="clip0_199_196">
<rect x="11.3467" width="27.3067" height="24" rx="3" fill="white"/>
</clipPath>
</defs>
</svg>
