<svg width="10" height="11" viewBox="0 0 10 11" fill="none" xmlns="http://www.w3.org/2000/svg">
<path d="M9.26451 8.11031C9.7465 7.32509 10.001 6.42148 9.99978 5.50013C10.0011 4.57874 9.74652 3.67498 9.26451 2.88972L9.26182 2.88534C8.81466 2.1565 8.18806 1.55451 7.4419 1.1369C6.69573 0.719284 5.85494 0.5 4.99986 0.5C4.14479 0.5 3.30399 0.719284 2.55783 1.1369C1.81167 1.55451 1.18507 2.1565 0.737912 2.88534L0.735215 2.88972C0.254425 3.67551 0 4.57881 0 5.50002C0 6.42122 0.254425 7.32453 0.735215 8.11031L0.738024 8.11481C1.1852 8.84362 1.8118 9.44557 2.55796 9.86316C3.30411 10.2807 4.14489 10.5 4.99995 10.5C5.85501 10.5 6.69578 10.2807 7.44193 9.8631C8.18807 9.44549 8.81466 8.84352 9.26182 8.11469L9.26451 8.11031ZM5.63896 9.64298C5.54366 9.73493 5.43398 9.81069 5.31424 9.86725C5.21599 9.91393 5.10858 9.93815 4.99981 9.93815C4.89103 9.93815 4.78362 9.91393 4.68538 9.86725C4.45758 9.7509 4.26257 9.57931 4.11819 9.36816C3.82335 8.94205 3.60485 8.46792 3.47247 7.96694C3.98108 7.93563 4.49021 7.91968 4.99986 7.91908C5.50929 7.91908 6.01846 7.93503 6.52737 7.96694C6.45408 8.22451 6.36254 8.47653 6.25344 8.72109C6.10978 9.06503 5.90114 9.37804 5.63896 9.64298ZM0.57151 5.78091H2.58822C2.60136 6.34364 2.66237 6.90423 2.77058 7.45661C2.21927 7.50515 1.66939 7.57182 1.12094 7.65661C0.799736 7.08037 0.611977 6.43938 0.57151 5.78091ZM1.12094 3.34354C1.66917 3.42848 2.21924 3.49514 2.77114 3.54353C2.66274 4.09586 2.60162 4.65642 2.58844 5.21912H0.57151C0.611994 4.56069 0.799752 3.91974 1.12094 3.34354ZM4.36077 1.35705C4.45606 1.2651 4.56575 1.18934 4.68549 1.13279C4.78374 1.0861 4.89115 1.06189 4.99992 1.06189C5.1087 1.06189 5.2161 1.0861 5.31435 1.13279C5.54215 1.24914 5.73715 1.42073 5.88154 1.63188C6.17638 2.05798 6.39488 2.53212 6.52726 3.03309C6.01865 3.0644 5.50952 3.08036 4.99986 3.08096C4.49043 3.08096 3.98127 3.065 3.47236 3.03309C3.54565 2.77552 3.63719 2.52351 3.74629 2.27895C3.88995 1.935 4.09859 1.62199 4.36077 1.35705ZM9.42822 5.21912H7.41151C7.39836 4.65639 7.33736 4.0958 7.22915 3.54342C7.78046 3.49488 8.33033 3.42822 8.87879 3.34342C9.19999 3.91966 9.38775 4.56065 9.42822 5.21912ZM3.33562 7.41291C3.22577 6.87545 3.16373 6.32932 3.15023 5.78091H6.84961C6.83624 6.32934 6.77431 6.87552 6.66456 7.41302C6.11026 7.37662 5.55536 7.35804 4.99986 7.35729C4.44482 7.35729 3.89007 7.37583 3.33562 7.41291ZM6.66411 3.58713C6.77395 4.12459 6.83599 4.67072 6.8495 5.21912H3.15023C3.1636 4.67069 3.22553 4.12452 3.33529 3.58702C3.88958 3.62342 4.44448 3.642 4.99998 3.64274C5.55502 3.64274 6.10977 3.62417 6.66422 3.58702L6.66411 3.58713ZM7.41129 5.78091H9.42822C9.38774 6.43934 9.19998 7.08029 8.87879 7.6565C8.33048 7.57156 7.78042 7.50489 7.22859 7.4565C7.33699 6.90418 7.39811 6.34362 7.41129 5.78091ZM8.54194 2.82647C8.06255 2.8956 7.58177 2.95036 7.09961 2.99073C7.01295 2.66805 6.90119 2.35263 6.76534 2.04738C6.64129 1.76649 6.4852 1.50088 6.30018 1.25582C7.19428 1.53004 7.97888 2.07976 8.54194 2.82647ZM1.86171 2.36175C2.37462 1.84836 3.00563 1.46862 3.69944 1.25582C3.68887 1.26952 3.67809 1.28256 3.66775 1.29638C3.31113 1.80973 3.05136 2.38395 2.90125 2.99073C2.41901 2.94991 1.93789 2.89515 1.4579 2.82647C1.58168 2.66247 1.7166 2.5072 1.86171 2.36175ZM1.4579 8.17357C1.93722 8.10443 2.418 8.04968 2.90024 8.0093C2.98689 8.33199 3.09865 8.6474 3.2345 8.95266C3.35855 9.23354 3.51464 9.49916 3.69966 9.74422C2.80556 9.46999 2.02096 8.92028 1.4579 8.17357ZM8.13824 8.63828C7.62534 9.15168 6.99432 9.53142 6.30052 9.74422C6.31108 9.73051 6.32187 9.71748 6.3322 9.70366C6.68883 9.1903 6.9486 8.61608 7.09871 8.0093C7.58095 8.05013 8.06206 8.10488 8.54205 8.17357C8.41828 8.33756 8.28335 8.49283 8.13824 8.63828Z" fill="#A3B8E0"/>
</svg>
