<svg width="60" height="38" viewBox="0 0 60 38" fill="none" xmlns="http://www.w3.org/2000/svg">
<path d="M40.5202 4.76193V18.0972C40.5202 18.6879 40.0413 19.1667 39.4507 19.1667H20.5499C19.9593 19.1667 19.4805 18.6879 19.4805 18.0972V4.76193" stroke="#B4B4B4" stroke-width="1.52778" stroke-miterlimit="10" stroke-linecap="round" stroke-linejoin="round"/>
<path d="M28.6908 11.3098H24.5654C23.8509 11.3098 19.4805 11.3962 19.4805 4.76223C19.4805 4.03902 20.0668 3.4527 20.79 3.4527H39.2106C39.9338 3.4527 40.5202 4.03902 40.5202 4.76223C40.5202 11.48 36.1219 11.3098 35.4352 11.3098H31.3098" stroke="#B4B4B4" stroke-width="1.52778" stroke-miterlimit="10" stroke-linecap="round" stroke-linejoin="round"/>
<path d="M31.3105 13.9291H28.6914V10.0005H31.3105V13.9291Z" stroke="#B4B4B4" stroke-width="1.52778" stroke-miterlimit="10" stroke-linecap="round" stroke-linejoin="round"/>
<path d="M26.0703 3.45215V2.14262C26.0703 1.41942 26.6566 0.833101 27.3798 0.833101H32.6179C33.3411 0.833101 33.9275 1.41942 33.9275 2.14262V3.45215" stroke="#B4B4B4" stroke-width="1.52778" stroke-miterlimit="10" stroke-linecap="round" stroke-linejoin="round"/>
<path d="M15.0895 35.1C14.6029 35.1 14.1562 35.0133 13.7495 34.84C13.3429 34.6667 12.9895 34.42 12.6895 34.1C12.3895 33.7733 12.1562 33.39 11.9895 32.95C11.8295 32.51 11.7495 32.0267 11.7495 31.5C11.7495 31 11.8362 30.5367 12.0095 30.11C12.1895 29.6767 12.4362 29.2967 12.7495 28.97C13.0629 28.6433 13.4262 28.39 13.8395 28.21C14.2529 28.03 14.6995 27.94 15.1795 27.94C15.5195 27.94 15.8495 27.9933 16.1695 28.1C16.4962 28.2 16.7895 28.3433 17.0495 28.53C17.3162 28.71 17.5329 28.9167 17.6995 29.15L16.9795 29.9C16.7862 29.7067 16.5895 29.5467 16.3895 29.42C16.1962 29.2867 15.9962 29.1867 15.7895 29.12C15.5895 29.0533 15.3862 29.02 15.1795 29.02C14.8529 29.02 14.5462 29.0833 14.2595 29.21C13.9795 29.33 13.7329 29.5 13.5195 29.72C13.3129 29.94 13.1495 30.2033 13.0295 30.51C12.9095 30.81 12.8495 31.14 12.8495 31.5C12.8495 31.88 12.9062 32.2267 13.0195 32.54C13.1395 32.8467 13.3062 33.11 13.5195 33.33C13.7329 33.55 13.9862 33.72 14.2795 33.84C14.5795 33.9533 14.9095 34.01 15.2695 34.01C15.4895 34.01 15.7062 33.98 15.9195 33.92C16.1329 33.86 16.3329 33.7733 16.5195 33.66C16.7062 33.5467 16.8762 33.4133 17.0295 33.26L17.5695 34.14C17.4162 34.32 17.2062 34.4833 16.9395 34.63C16.6795 34.7767 16.3862 34.8933 16.0595 34.98C15.7395 35.06 15.4162 35.1 15.0895 35.1ZM20.7966 35.1C20.3633 35.1 19.9666 34.98 19.6066 34.74C19.2533 34.5 18.97 34.1733 18.7566 33.76C18.5433 33.3467 18.4366 32.88 18.4366 32.36C18.4366 31.8333 18.5433 31.3667 18.7566 30.96C18.9766 30.5467 19.27 30.2233 19.6366 29.99C20.01 29.7567 20.4266 29.64 20.8866 29.64C21.16 29.64 21.41 29.68 21.6366 29.76C21.8633 29.84 22.06 29.9533 22.2266 30.1C22.4 30.24 22.54 30.4033 22.6466 30.59C22.76 30.7767 22.83 30.9767 22.8566 31.19L22.6266 31.11V29.75H23.6666V35H22.6266V33.75L22.8666 33.68C22.8266 33.86 22.7433 34.0367 22.6166 34.21C22.4966 34.3767 22.34 34.5267 22.1466 34.66C21.96 34.7933 21.75 34.9 21.5166 34.98C21.29 35.06 21.05 35.1 20.7966 35.1ZM21.0666 34.15C21.38 34.15 21.6566 34.0733 21.8966 33.92C22.1366 33.7667 22.3233 33.5567 22.4566 33.29C22.5966 33.0167 22.6666 32.7067 22.6666 32.36C22.6666 32.02 22.5966 31.7167 22.4566 31.45C22.3233 31.1833 22.1366 30.9733 21.8966 30.82C21.6566 30.6667 21.38 30.59 21.0666 30.59C20.76 30.59 20.4866 30.6667 20.2466 30.82C20.0133 30.9733 19.8266 31.1833 19.6866 31.45C19.5533 31.7167 19.4866 32.02 19.4866 32.36C19.4866 32.7067 19.5533 33.0167 19.6866 33.29C19.8266 33.5567 20.0133 33.7667 20.2466 33.92C20.4866 34.0733 20.76 34.15 21.0666 34.15ZM25.1048 35V29.75H26.1448V31.4L26.0448 31C26.1181 30.7467 26.2414 30.5167 26.4148 30.31C26.5948 30.1033 26.7981 29.94 27.0248 29.82C27.2581 29.7 27.4981 29.64 27.7448 29.64C27.8581 29.64 27.9648 29.65 28.0648 29.67C28.1714 29.69 28.2548 29.7133 28.3148 29.74L28.0448 30.86C27.9648 30.8267 27.8748 30.8 27.7748 30.78C27.6814 30.7533 27.5881 30.74 27.4948 30.74C27.3148 30.74 27.1414 30.7767 26.9748 30.85C26.8148 30.9167 26.6714 31.0133 26.5448 31.14C26.4248 31.26 26.3281 31.4033 26.2548 31.57C26.1814 31.73 26.1448 31.9067 26.1448 32.1V35H25.1048ZM31.3634 35.1C30.8234 35.1 30.3434 34.9867 29.9234 34.76C29.51 34.5267 29.1834 34.21 28.9434 33.81C28.71 33.41 28.5934 32.95 28.5934 32.43C28.5934 32.0167 28.66 31.64 28.7934 31.3C28.9267 30.96 29.11 30.6667 29.3434 30.42C29.5834 30.1667 29.8667 29.9733 30.1934 29.84C30.5267 29.7 30.8867 29.63 31.2734 29.63C31.6134 29.63 31.93 29.6967 32.2234 29.83C32.5167 29.9567 32.77 30.1333 32.9834 30.36C33.2034 30.5867 33.37 30.8567 33.4834 31.17C33.6034 31.4767 33.66 31.8133 33.6534 32.18L33.6434 32.62H29.3534L29.1234 31.8H32.7534L32.6034 31.97V31.73C32.5834 31.51 32.51 31.3133 32.3834 31.14C32.2567 30.9667 32.0967 30.83 31.9034 30.73C31.71 30.63 31.5 30.58 31.2734 30.58C30.9134 30.58 30.61 30.65 30.3634 30.79C30.1167 30.9233 29.93 31.1233 29.8034 31.39C29.6767 31.65 29.6134 31.9733 29.6134 32.36C29.6134 32.7267 29.69 33.0467 29.8434 33.32C29.9967 33.5867 30.2134 33.7933 30.4934 33.94C30.7734 34.0867 31.0967 34.16 31.4634 34.16C31.7234 34.16 31.9634 34.1167 32.1834 34.03C32.41 33.9433 32.6534 33.7867 32.9134 33.56L33.4334 34.29C33.2734 34.45 33.0767 34.59 32.8434 34.71C32.6167 34.83 32.3734 34.9267 32.1134 35C31.86 35.0667 31.61 35.1 31.3634 35.1ZM37.2227 35.1C36.6827 35.1 36.2027 34.9867 35.7827 34.76C35.3694 34.5267 35.0427 34.21 34.8027 33.81C34.5694 33.41 34.4527 32.95 34.4527 32.43C34.4527 32.0167 34.5194 31.64 34.6527 31.3C34.7861 30.96 34.9694 30.6667 35.2027 30.42C35.4427 30.1667 35.7261 29.9733 36.0527 29.84C36.3861 29.7 36.7461 29.63 37.1327 29.63C37.4727 29.63 37.7894 29.6967 38.0827 29.83C38.3761 29.9567 38.6294 30.1333 38.8427 30.36C39.0627 30.5867 39.2294 30.8567 39.3427 31.17C39.4627 31.4767 39.5194 31.8133 39.5127 32.18L39.5027 32.62H35.2127L34.9827 31.8H38.6127L38.4627 31.97V31.73C38.4427 31.51 38.3694 31.3133 38.2427 31.14C38.1161 30.9667 37.9561 30.83 37.7627 30.73C37.5694 30.63 37.3594 30.58 37.1327 30.58C36.7727 30.58 36.4694 30.65 36.2227 30.79C35.9761 30.9233 35.7894 31.1233 35.6627 31.39C35.5361 31.65 35.4727 31.9733 35.4727 32.36C35.4727 32.7267 35.5494 33.0467 35.7027 33.32C35.8561 33.5867 36.0727 33.7933 36.3527 33.94C36.6327 34.0867 36.9561 34.16 37.3227 34.16C37.5827 34.16 37.8227 34.1167 38.0427 34.03C38.2694 33.9433 38.5127 33.7867 38.7727 33.56L39.2927 34.29C39.1327 34.45 38.9361 34.59 38.7027 34.71C38.4761 34.83 38.2327 34.9267 37.9727 35C37.7194 35.0667 37.4694 35.1 37.2227 35.1ZM40.6321 35V29.75H41.6721V31.4L41.5721 31C41.6454 30.7467 41.7688 30.5167 41.9421 30.31C42.1221 30.1033 42.3254 29.94 42.5521 29.82C42.7854 29.7 43.0254 29.64 43.2721 29.64C43.3854 29.64 43.4921 29.65 43.5921 29.67C43.6988 29.69 43.7821 29.7133 43.8421 29.74L43.5721 30.86C43.4921 30.8267 43.4021 30.8 43.3021 30.78C43.2088 30.7533 43.1154 30.74 43.0221 30.74C42.8421 30.74 42.6688 30.7767 42.5021 30.85C42.3421 30.9167 42.1988 31.0133 42.0721 31.14C41.9521 31.26 41.8554 31.4033 41.7821 31.57C41.7088 31.73 41.6721 31.9067 41.6721 32.1V35H40.6321ZM46.4153 35.1C45.9753 35.1 45.5786 35.0233 45.2253 34.87C44.872 34.7167 44.5786 34.49 44.3453 34.19L45.0453 33.59C45.2453 33.8233 45.462 33.9933 45.6953 34.1C45.9353 34.2 46.2053 34.25 46.5053 34.25C46.6253 34.25 46.7353 34.2367 46.8353 34.21C46.942 34.1767 47.032 34.13 47.1053 34.07C47.1853 34.01 47.2453 33.94 47.2853 33.86C47.3253 33.7733 47.3453 33.68 47.3453 33.58C47.3453 33.4067 47.282 33.2667 47.1553 33.16C47.0886 33.1133 46.982 33.0633 46.8353 33.01C46.6953 32.95 46.512 32.89 46.2853 32.83C45.8986 32.73 45.582 32.6167 45.3353 32.49C45.0886 32.3633 44.8986 32.22 44.7653 32.06C44.6653 31.9333 44.592 31.7967 44.5453 31.65C44.4986 31.4967 44.4753 31.33 44.4753 31.15C44.4753 30.93 44.522 30.73 44.6153 30.55C44.7153 30.3633 44.8486 30.2033 45.0153 30.07C45.1886 29.93 45.3886 29.8233 45.6153 29.75C45.8486 29.6767 46.0953 29.64 46.3553 29.64C46.602 29.64 46.8453 29.6733 47.0853 29.74C47.332 29.8067 47.5586 29.9033 47.7653 30.03C47.972 30.1567 48.1453 30.3067 48.2853 30.48L47.6953 31.13C47.5686 31.0033 47.4286 30.8933 47.2753 30.8C47.1286 30.7 46.9786 30.6233 46.8253 30.57C46.672 30.5167 46.532 30.49 46.4053 30.49C46.2653 30.49 46.1386 30.5033 46.0253 30.53C45.912 30.5567 45.8153 30.5967 45.7353 30.65C45.662 30.7033 45.6053 30.77 45.5653 30.85C45.5253 30.93 45.5053 31.02 45.5053 31.12C45.512 31.2067 45.532 31.29 45.5653 31.37C45.6053 31.4433 45.6586 31.5067 45.7253 31.56C45.7986 31.6133 45.9086 31.67 46.0553 31.73C46.202 31.79 46.3886 31.8467 46.6153 31.9C46.9486 31.9867 47.222 32.0833 47.4353 32.19C47.6553 32.29 47.8286 32.4067 47.9553 32.54C48.0886 32.6667 48.182 32.8133 48.2353 32.98C48.2886 33.1467 48.3153 33.3333 48.3153 33.54C48.3153 33.84 48.2286 34.11 48.0553 34.35C47.8886 34.5833 47.662 34.7667 47.3753 34.9C47.0886 35.0333 46.7686 35.1 46.4153 35.1Z" fill="#747474"/>
</svg>
