<svg width="60" height="38" viewBox="0 0 60 38" fill="none" xmlns="http://www.w3.org/2000/svg">
<path d="M29.2152 7.7898C31.3663 7.7898 33.1101 6.04599 33.1101 3.8949C33.1101 1.74381 31.3663 0 29.2152 0C27.0641 0 25.3203 1.74381 25.3203 3.8949C25.3203 6.04599 27.0641 7.7898 29.2152 7.7898Z" fill="#3B5D8F"/>
<path d="M37.0951 7.78933C38.455 7.78933 39.5574 6.68693 39.5574 5.32704C39.5574 3.96715 38.455 2.86475 37.0951 2.86475C35.7352 2.86475 34.6328 3.96715 34.6328 5.32704C34.6328 6.68693 35.7352 7.78933 37.0951 7.78933Z" fill="#3B5D8F"/>
<path d="M21.3373 7.78933C22.6972 7.78933 23.7996 6.68693 23.7996 5.32704C23.7996 3.96715 22.6972 2.86475 21.3373 2.86475C19.9774 2.86475 18.875 3.96715 18.875 5.32704C18.875 6.68693 19.9774 7.78933 21.3373 7.78933Z" fill="#3B5D8F"/>
<path d="M23.7615 10.0002C22.7922 9.20613 21.9144 9.31125 20.7937 9.31125C19.1176 9.31125 17.7539 10.6669 17.7539 12.3327V17.2219C17.7539 17.9454 18.3444 18.5337 19.0706 18.5337C22.2056 18.5337 21.8279 18.5904 21.8279 18.3985C21.8279 14.934 21.4175 12.3933 23.7615 10.0002Z" fill="#3B5D8F"/>
<path d="M31.8494 9.33017C29.8919 9.1669 28.1905 9.33205 26.7229 10.5434C24.267 12.5106 24.7396 15.1592 24.7396 18.3995C24.7396 19.2567 25.4371 19.9673 26.3074 19.9673C35.7574 19.9673 36.1335 20.2721 36.6938 19.0312C36.8776 18.6115 36.8273 18.7449 36.8273 14.7302C36.8273 11.5415 34.0662 9.33017 31.8494 9.33017ZM39.2045 9.31226C38.0777 9.31226 37.2047 9.20822 36.2368 10.0013C38.5632 12.3765 38.1703 14.7439 38.1703 18.3995C38.1703 18.5926 37.8568 18.5347 40.8806 18.5347C41.6328 18.5347 42.2443 17.9254 42.2443 17.1764V12.3337C42.2443 10.6679 40.8806 9.31226 39.2045 9.31226Z" fill="#3B5D8F"/>
<path d="M13.8786 35.1C13.3919 35.1 12.9453 35.0133 12.5386 34.84C12.1319 34.6667 11.7786 34.42 11.4786 34.1C11.1786 33.7733 10.9453 33.39 10.7786 32.95C10.6186 32.51 10.5386 32.0267 10.5386 31.5C10.5386 31 10.6253 30.5367 10.7986 30.11C10.9786 29.6767 11.2253 29.2967 11.5386 28.97C11.8519 28.6433 12.2153 28.39 12.6286 28.21C13.0419 28.03 13.4886 27.94 13.9686 27.94C14.3086 27.94 14.6386 27.9933 14.9586 28.1C15.2853 28.2 15.5786 28.3433 15.8386 28.53C16.1053 28.71 16.3219 28.9167 16.4886 29.15L15.7686 29.9C15.5753 29.7067 15.3786 29.5467 15.1786 29.42C14.9853 29.2867 14.7853 29.1867 14.5786 29.12C14.3786 29.0533 14.1753 29.02 13.9686 29.02C13.6419 29.02 13.3353 29.0833 13.0486 29.21C12.7686 29.33 12.5219 29.5 12.3086 29.72C12.1019 29.94 11.9386 30.2033 11.8186 30.51C11.6986 30.81 11.6386 31.14 11.6386 31.5C11.6386 31.88 11.6953 32.2267 11.8086 32.54C11.9286 32.8467 12.0953 33.11 12.3086 33.33C12.5219 33.55 12.7753 33.72 13.0686 33.84C13.3686 33.9533 13.6986 34.01 14.0586 34.01C14.2786 34.01 14.4953 33.98 14.7086 33.92C14.9219 33.86 15.1219 33.7733 15.3086 33.66C15.4953 33.5467 15.6653 33.4133 15.8186 33.26L16.3586 34.14C16.2053 34.32 15.9953 34.4833 15.7286 34.63C15.4686 34.7767 15.1753 34.8933 14.8486 34.98C14.5286 35.06 14.2053 35.1 13.8786 35.1ZM19.9257 35.1C19.4124 35.1 18.9524 34.9833 18.5457 34.75C18.1457 34.51 17.829 34.1867 17.5957 33.78C17.3624 33.3667 17.2457 32.8967 17.2457 32.37C17.2457 31.8433 17.3624 31.3767 17.5957 30.97C17.829 30.5567 18.1457 30.2333 18.5457 30C18.9524 29.76 19.4124 29.64 19.9257 29.64C20.4324 29.64 20.8857 29.76 21.2857 30C21.6924 30.2333 22.0124 30.5567 22.2457 30.97C22.479 31.3767 22.5957 31.8433 22.5957 32.37C22.5957 32.8967 22.479 33.3667 22.2457 33.78C22.0124 34.1867 21.6924 34.51 21.2857 34.75C20.8857 34.9833 20.4324 35.1 19.9257 35.1ZM19.9257 34.16C20.239 34.16 20.519 34.0833 20.7657 33.93C21.0124 33.77 21.2057 33.5567 21.3457 33.29C21.4857 33.0167 21.5524 32.71 21.5457 32.37C21.5524 32.0233 21.4857 31.7167 21.3457 31.45C21.2057 31.1767 21.0124 30.9633 20.7657 30.81C20.519 30.6567 20.239 30.58 19.9257 30.58C19.6124 30.58 19.329 30.66 19.0757 30.82C18.829 30.9733 18.6357 31.1867 18.4957 31.46C18.3557 31.7267 18.289 32.03 18.2957 32.37C18.289 32.71 18.3557 33.0167 18.4957 33.29C18.6357 33.5567 18.829 33.77 19.0757 33.93C19.329 34.0833 19.6124 34.16 19.9257 34.16ZM23.718 35V29.75H24.748V30.83L24.568 30.95C24.6347 30.7167 24.7647 30.5033 24.958 30.31C25.1514 30.11 25.3814 29.95 25.648 29.83C25.9147 29.7033 26.188 29.64 26.468 29.64C26.868 29.64 27.2014 29.72 27.468 29.88C27.7347 30.0333 27.9347 30.27 28.068 30.59C28.2014 30.91 28.268 31.3133 28.268 31.8V35H27.238V31.87C27.238 31.57 27.198 31.3233 27.118 31.13C27.038 30.93 26.9147 30.7867 26.748 30.7C26.5814 30.6067 26.3747 30.5667 26.128 30.58C25.928 30.58 25.7447 30.6133 25.578 30.68C25.4114 30.74 25.2647 30.8267 25.138 30.94C25.018 31.0533 24.9214 31.1867 24.848 31.34C24.7814 31.4867 24.748 31.6467 24.748 31.82V35H24.238C24.1514 35 24.0647 35 23.978 35C23.8914 35 23.8047 35 23.718 35ZM29.6653 35V29.75H30.6953V30.83L30.5153 30.95C30.582 30.7167 30.712 30.5033 30.9053 30.31C31.0986 30.11 31.3286 29.95 31.5953 29.83C31.862 29.7033 32.1353 29.64 32.4153 29.64C32.8153 29.64 33.1486 29.72 33.4153 29.88C33.682 30.0333 33.882 30.27 34.0153 30.59C34.1486 30.91 34.2153 31.3133 34.2153 31.8V35H33.1853V31.87C33.1853 31.57 33.1453 31.3233 33.0653 31.13C32.9853 30.93 32.862 30.7867 32.6953 30.7C32.5286 30.6067 32.322 30.5667 32.0753 30.58C31.8753 30.58 31.692 30.6133 31.5253 30.68C31.3586 30.74 31.212 30.8267 31.0853 30.94C30.9653 31.0533 30.8686 31.1867 30.7953 31.34C30.7286 31.4867 30.6953 31.6467 30.6953 31.82V35H30.1853C30.0986 35 30.012 35 29.9253 35C29.8386 35 29.752 35 29.6653 35ZM38.0626 35.1C37.5226 35.1 37.0426 34.9867 36.6226 34.76C36.2092 34.5267 35.8826 34.21 35.6426 33.81C35.4092 33.41 35.2926 32.95 35.2926 32.43C35.2926 32.0167 35.3592 31.64 35.4926 31.3C35.6259 30.96 35.8092 30.6667 36.0426 30.42C36.2826 30.1667 36.5659 29.9733 36.8926 29.84C37.2259 29.7 37.5859 29.63 37.9726 29.63C38.3126 29.63 38.6292 29.6967 38.9226 29.83C39.2159 29.9567 39.4692 30.1333 39.6826 30.36C39.9026 30.5867 40.0692 30.8567 40.1826 31.17C40.3026 31.4767 40.3592 31.8133 40.3526 32.18L40.3426 32.62H36.0526L35.8226 31.8H39.4526L39.3026 31.97V31.73C39.2826 31.51 39.2092 31.3133 39.0826 31.14C38.9559 30.9667 38.7959 30.83 38.6026 30.73C38.4092 30.63 38.1992 30.58 37.9726 30.58C37.6126 30.58 37.3092 30.65 37.0626 30.79C36.8159 30.9233 36.6292 31.1233 36.5026 31.39C36.3759 31.65 36.3126 31.9733 36.3126 32.36C36.3126 32.7267 36.3892 33.0467 36.5426 33.32C36.6959 33.5867 36.9126 33.7933 37.1926 33.94C37.4726 34.0867 37.7959 34.16 38.1626 34.16C38.4226 34.16 38.6626 34.1167 38.8826 34.03C39.1092 33.9433 39.3526 33.7867 39.6126 33.56L40.1326 34.29C39.9726 34.45 39.7759 34.59 39.5426 34.71C39.3159 34.83 39.0726 34.9267 38.8126 35C38.5592 35.0667 38.3092 35.1 38.0626 35.1ZM43.702 35.1C43.2153 35.1 42.7786 34.98 42.392 34.74C42.012 34.5 41.7086 34.1733 41.482 33.76C41.262 33.3467 41.152 32.8833 41.152 32.37C41.152 31.8567 41.262 31.3933 41.482 30.98C41.7086 30.5667 42.012 30.24 42.392 30C42.7786 29.76 43.2153 29.64 43.702 29.64C44.1686 29.64 44.592 29.7367 44.972 29.93C45.3586 30.1167 45.652 30.3733 45.852 30.7L45.282 31.4C45.1753 31.2467 45.0386 31.1067 44.872 30.98C44.7053 30.8533 44.5286 30.7533 44.342 30.68C44.1553 30.6067 43.9753 30.57 43.802 30.57C43.482 30.57 43.1953 30.65 42.942 30.81C42.6953 30.9633 42.4986 31.1767 42.352 31.45C42.2053 31.7233 42.132 32.03 42.132 32.37C42.132 32.71 42.2086 33.0167 42.362 33.29C42.5153 33.5567 42.7186 33.77 42.972 33.93C43.2253 34.09 43.5053 34.17 43.812 34.17C43.992 34.17 44.1653 34.14 44.332 34.08C44.5053 34.02 44.672 33.93 44.832 33.81C44.992 33.69 45.142 33.5433 45.282 33.37L45.852 34.07C45.6386 34.37 45.332 34.6167 44.932 34.81C44.5386 35.0033 44.1286 35.1 43.702 35.1ZM47.4735 35V28.41H48.5035V35H47.4735ZM46.3835 30.75V29.75H49.7235V30.75H46.3835Z" fill="#747474"/>
</svg>
