<svg width="60" height="38" viewBox="0 0 60 38" fill="none" xmlns="http://www.w3.org/2000/svg">
<path d="M40.6788 8.14758C41.1012 7.82778 41.4439 7.41455 41.68 6.94025C41.9161 6.46594 42.0393 5.94343 42.0398 5.41361C42.0398 3.51663 40.4971 1.97393 38.6001 1.97393C36.7031 1.97393 35.1604 3.51663 35.1604 5.41361C35.161 5.94517 35.2849 6.46934 35.5224 6.94486C35.76 7.42037 36.1047 7.83425 36.5294 8.15389C36.4417 8.19287 36.3517 8.22612 36.2669 8.27027C36.1362 8.34258 36.0389 8.46302 35.9957 8.60597C35.9525 8.74891 35.9668 8.90308 36.0355 9.03566C36.1042 9.16825 36.2219 9.26879 36.3637 9.31588C36.5054 9.36298 36.6599 9.35292 36.7943 9.28784C37.3529 9.00101 37.9721 8.85201 38.6001 8.85329C40.8124 8.85329 42.6131 10.6534 42.6131 12.8663V15.1594C42.6131 16.1076 41.8414 16.8792 40.8932 16.8792H37.9924C37.8404 16.8792 37.6946 16.9396 37.5871 17.0471C37.4796 17.1546 37.4192 17.3005 37.4192 17.4525C37.4192 17.6045 37.4796 17.7504 37.5871 17.8579C37.6946 17.9654 37.8404 18.0258 37.9924 18.0258H40.8932C42.4738 18.0258 43.7596 16.7399 43.7596 15.1594V12.8663C43.7596 10.7612 42.491 8.94903 40.6788 8.14758ZM36.307 5.41361C36.307 4.14895 37.3355 3.12049 38.6001 3.12049C39.8648 3.12049 40.8932 4.14895 40.8932 5.41361C40.8932 6.67827 39.8648 7.70673 38.6001 7.70673C37.3355 7.70673 36.307 6.67827 36.307 5.41361ZM23.9803 9.04305C24.015 8.9762 24.0361 8.90318 24.0425 8.82816C24.0489 8.75314 24.0405 8.6776 24.0177 8.60583C23.9949 8.53407 23.9582 8.4675 23.9097 8.40993C23.8612 8.35235 23.8018 8.30489 23.735 8.27027C23.6501 8.22612 23.5601 8.19287 23.4724 8.15389C23.8972 7.83431 24.2419 7.42045 24.4795 6.94492C24.7171 6.46939 24.8409 5.94518 24.8414 5.41361C24.8414 3.51663 23.2987 1.97393 21.4017 1.97393C19.5047 1.97393 17.962 3.51663 17.962 5.41361C17.962 6.52864 18.498 7.51869 19.323 8.14758C17.5109 8.94903 16.2422 10.7612 16.2422 12.8663V15.1594C16.2422 16.7399 17.5281 18.0258 19.1086 18.0258H22.0094C22.1614 18.0258 22.3072 17.9654 22.4148 17.8579C22.5223 17.7504 22.5827 17.6045 22.5827 17.4525C22.5827 17.3005 22.5223 17.1546 22.4148 17.0471C22.3072 16.9396 22.1614 16.8792 22.0094 16.8792H19.1086C18.1604 16.8792 17.3887 16.1076 17.3887 15.1594V12.8663C17.3887 10.6534 19.1894 8.85329 21.4017 8.85329C22.0346 8.85329 22.6595 9.00349 23.2075 9.28784C23.3426 9.35736 23.4996 9.37065 23.6444 9.32478C23.7892 9.27892 23.91 9.17764 23.9803 9.04305ZM19.1086 5.41361C19.1086 4.14895 20.1371 3.12049 21.4017 3.12049C22.6664 3.12049 23.6948 4.14895 23.6948 5.41361C23.6948 6.67827 22.6664 7.70673 21.4017 7.70673C20.1371 7.70673 19.1086 6.67827 19.1086 5.41361ZM32.2797 7.56628C32.8142 7.19781 33.2513 6.70506 33.5534 6.13039C33.8555 5.55571 34.0135 4.91628 34.0139 4.26705C34.0139 2.05419 32.2132 0.254089 30.0009 0.254089C27.7886 0.254089 25.9879 2.05419 25.9879 4.26705C25.9879 5.63375 26.6759 6.84108 27.7221 7.56628C25.3694 8.48238 23.6948 10.7669 23.6948 13.4395V16.8792C23.6948 18.4597 24.9807 19.7456 26.5612 19.7456H33.4406C35.0211 19.7456 36.307 18.4597 36.307 16.8792V13.4395C36.307 10.7663 34.6324 8.48238 32.2797 7.56628ZM27.1345 4.26705C27.1345 2.68652 28.4204 1.40065 30.0009 1.40065C31.5814 1.40065 32.8673 2.68652 32.8673 4.26705C32.8673 5.84758 31.5814 7.13345 30.0009 7.13345C28.4204 7.13345 27.1345 5.84758 27.1345 4.26705ZM35.1604 16.8792C35.1604 17.8274 34.3888 18.5991 33.4406 18.5991H26.5612C25.613 18.5991 24.8414 17.8274 24.8414 16.8792V13.4395C24.8414 10.5949 27.1557 8.28001 30.0009 8.28001C32.8461 8.28001 35.1604 10.5949 35.1604 13.4395V16.8792Z" fill="#B4B4B4" stroke="#B4B4B4" stroke-width="0.487288"/>
<path d="M13.8786 35.1C13.3919 35.1 12.9453 35.0133 12.5386 34.84C12.1319 34.6667 11.7786 34.42 11.4786 34.1C11.1786 33.7733 10.9453 33.39 10.7786 32.95C10.6186 32.51 10.5386 32.0267 10.5386 31.5C10.5386 31 10.6253 30.5367 10.7986 30.11C10.9786 29.6767 11.2253 29.2967 11.5386 28.97C11.8519 28.6433 12.2153 28.39 12.6286 28.21C13.0419 28.03 13.4886 27.94 13.9686 27.94C14.3086 27.94 14.6386 27.9933 14.9586 28.1C15.2853 28.2 15.5786 28.3433 15.8386 28.53C16.1053 28.71 16.3219 28.9167 16.4886 29.15L15.7686 29.9C15.5753 29.7067 15.3786 29.5467 15.1786 29.42C14.9853 29.2867 14.7853 29.1867 14.5786 29.12C14.3786 29.0533 14.1753 29.02 13.9686 29.02C13.6419 29.02 13.3353 29.0833 13.0486 29.21C12.7686 29.33 12.5219 29.5 12.3086 29.72C12.1019 29.94 11.9386 30.2033 11.8186 30.51C11.6986 30.81 11.6386 31.14 11.6386 31.5C11.6386 31.88 11.6953 32.2267 11.8086 32.54C11.9286 32.8467 12.0953 33.11 12.3086 33.33C12.5219 33.55 12.7753 33.72 13.0686 33.84C13.3686 33.9533 13.6986 34.01 14.0586 34.01C14.2786 34.01 14.4953 33.98 14.7086 33.92C14.9219 33.86 15.1219 33.7733 15.3086 33.66C15.4953 33.5467 15.6653 33.4133 15.8186 33.26L16.3586 34.14C16.2053 34.32 15.9953 34.4833 15.7286 34.63C15.4686 34.7767 15.1753 34.8933 14.8486 34.98C14.5286 35.06 14.2053 35.1 13.8786 35.1ZM19.9257 35.1C19.4124 35.1 18.9524 34.9833 18.5457 34.75C18.1457 34.51 17.829 34.1867 17.5957 33.78C17.3624 33.3667 17.2457 32.8967 17.2457 32.37C17.2457 31.8433 17.3624 31.3767 17.5957 30.97C17.829 30.5567 18.1457 30.2333 18.5457 30C18.9524 29.76 19.4124 29.64 19.9257 29.64C20.4324 29.64 20.8857 29.76 21.2857 30C21.6924 30.2333 22.0124 30.5567 22.2457 30.97C22.479 31.3767 22.5957 31.8433 22.5957 32.37C22.5957 32.8967 22.479 33.3667 22.2457 33.78C22.0124 34.1867 21.6924 34.51 21.2857 34.75C20.8857 34.9833 20.4324 35.1 19.9257 35.1ZM19.9257 34.16C20.239 34.16 20.519 34.0833 20.7657 33.93C21.0124 33.77 21.2057 33.5567 21.3457 33.29C21.4857 33.0167 21.5524 32.71 21.5457 32.37C21.5524 32.0233 21.4857 31.7167 21.3457 31.45C21.2057 31.1767 21.0124 30.9633 20.7657 30.81C20.519 30.6567 20.239 30.58 19.9257 30.58C19.6124 30.58 19.329 30.66 19.0757 30.82C18.829 30.9733 18.6357 31.1867 18.4957 31.46C18.3557 31.7267 18.289 32.03 18.2957 32.37C18.289 32.71 18.3557 33.0167 18.4957 33.29C18.6357 33.5567 18.829 33.77 19.0757 33.93C19.329 34.0833 19.6124 34.16 19.9257 34.16ZM23.718 35V29.75H24.748V30.83L24.568 30.95C24.6347 30.7167 24.7647 30.5033 24.958 30.31C25.1514 30.11 25.3814 29.95 25.648 29.83C25.9147 29.7033 26.188 29.64 26.468 29.64C26.868 29.64 27.2014 29.72 27.468 29.88C27.7347 30.0333 27.9347 30.27 28.068 30.59C28.2014 30.91 28.268 31.3133 28.268 31.8V35H27.238V31.87C27.238 31.57 27.198 31.3233 27.118 31.13C27.038 30.93 26.9147 30.7867 26.748 30.7C26.5814 30.6067 26.3747 30.5667 26.128 30.58C25.928 30.58 25.7447 30.6133 25.578 30.68C25.4114 30.74 25.2647 30.8267 25.138 30.94C25.018 31.0533 24.9214 31.1867 24.848 31.34C24.7814 31.4867 24.748 31.6467 24.748 31.82V35H24.238C24.1514 35 24.0647 35 23.978 35C23.8914 35 23.8047 35 23.718 35ZM29.6653 35V29.75H30.6953V30.83L30.5153 30.95C30.582 30.7167 30.712 30.5033 30.9053 30.31C31.0986 30.11 31.3286 29.95 31.5953 29.83C31.862 29.7033 32.1353 29.64 32.4153 29.64C32.8153 29.64 33.1486 29.72 33.4153 29.88C33.682 30.0333 33.882 30.27 34.0153 30.59C34.1486 30.91 34.2153 31.3133 34.2153 31.8V35H33.1853V31.87C33.1853 31.57 33.1453 31.3233 33.0653 31.13C32.9853 30.93 32.862 30.7867 32.6953 30.7C32.5286 30.6067 32.322 30.5667 32.0753 30.58C31.8753 30.58 31.692 30.6133 31.5253 30.68C31.3586 30.74 31.212 30.8267 31.0853 30.94C30.9653 31.0533 30.8686 31.1867 30.7953 31.34C30.7286 31.4867 30.6953 31.6467 30.6953 31.82V35H30.1853C30.0986 35 30.012 35 29.9253 35C29.8386 35 29.752 35 29.6653 35ZM38.0626 35.1C37.5226 35.1 37.0426 34.9867 36.6226 34.76C36.2092 34.5267 35.8826 34.21 35.6426 33.81C35.4092 33.41 35.2926 32.95 35.2926 32.43C35.2926 32.0167 35.3592 31.64 35.4926 31.3C35.6259 30.96 35.8092 30.6667 36.0426 30.42C36.2826 30.1667 36.5659 29.9733 36.8926 29.84C37.2259 29.7 37.5859 29.63 37.9726 29.63C38.3126 29.63 38.6292 29.6967 38.9226 29.83C39.2159 29.9567 39.4692 30.1333 39.6826 30.36C39.9026 30.5867 40.0692 30.8567 40.1826 31.17C40.3026 31.4767 40.3592 31.8133 40.3526 32.18L40.3426 32.62H36.0526L35.8226 31.8H39.4526L39.3026 31.97V31.73C39.2826 31.51 39.2092 31.3133 39.0826 31.14C38.9559 30.9667 38.7959 30.83 38.6026 30.73C38.4092 30.63 38.1992 30.58 37.9726 30.58C37.6126 30.58 37.3092 30.65 37.0626 30.79C36.8159 30.9233 36.6292 31.1233 36.5026 31.39C36.3759 31.65 36.3126 31.9733 36.3126 32.36C36.3126 32.7267 36.3892 33.0467 36.5426 33.32C36.6959 33.5867 36.9126 33.7933 37.1926 33.94C37.4726 34.0867 37.7959 34.16 38.1626 34.16C38.4226 34.16 38.6626 34.1167 38.8826 34.03C39.1092 33.9433 39.3526 33.7867 39.6126 33.56L40.1326 34.29C39.9726 34.45 39.7759 34.59 39.5426 34.71C39.3159 34.83 39.0726 34.9267 38.8126 35C38.5592 35.0667 38.3092 35.1 38.0626 35.1ZM43.702 35.1C43.2153 35.1 42.7786 34.98 42.392 34.74C42.012 34.5 41.7086 34.1733 41.482 33.76C41.262 33.3467 41.152 32.8833 41.152 32.37C41.152 31.8567 41.262 31.3933 41.482 30.98C41.7086 30.5667 42.012 30.24 42.392 30C42.7786 29.76 43.2153 29.64 43.702 29.64C44.1686 29.64 44.592 29.7367 44.972 29.93C45.3586 30.1167 45.652 30.3733 45.852 30.7L45.282 31.4C45.1753 31.2467 45.0386 31.1067 44.872 30.98C44.7053 30.8533 44.5286 30.7533 44.342 30.68C44.1553 30.6067 43.9753 30.57 43.802 30.57C43.482 30.57 43.1953 30.65 42.942 30.81C42.6953 30.9633 42.4986 31.1767 42.352 31.45C42.2053 31.7233 42.132 32.03 42.132 32.37C42.132 32.71 42.2086 33.0167 42.362 33.29C42.5153 33.5567 42.7186 33.77 42.972 33.93C43.2253 34.09 43.5053 34.17 43.812 34.17C43.992 34.17 44.1653 34.14 44.332 34.08C44.5053 34.02 44.672 33.93 44.832 33.81C44.992 33.69 45.142 33.5433 45.282 33.37L45.852 34.07C45.6386 34.37 45.332 34.6167 44.932 34.81C44.5386 35.0033 44.1286 35.1 43.702 35.1ZM47.4735 35V28.41H48.5035V35H47.4735ZM46.3835 30.75V29.75H49.7235V30.75H46.3835Z" fill="#747474"/>
</svg>
