<svg width="60" height="38" viewBox="0 0 60 38" fill="none" xmlns="http://www.w3.org/2000/svg">
<path d="M39.4608 8.69902L39.4594 8.69766L31.301 0.53957C30.9532 0.191602 30.4909 0 29.9991 0C29.5073 0 29.045 0.191484 28.6971 0.539414L20.5429 8.69336C20.5402 8.69609 20.5374 8.69898 20.5347 8.70176C19.8206 9.41996 19.8218 10.5853 20.5382 11.3017C20.8655 11.6291 21.2978 11.8188 21.76 11.8386C21.7787 11.8405 21.7977 11.8414 21.8167 11.8414H22.1419V17.8453C22.1419 19.0334 23.1085 20 24.2969 20H27.4887C27.8122 20 28.0746 19.7377 28.0746 19.4141V14.707C28.0746 14.1649 28.5156 13.7239 29.0578 13.7239H30.9404C31.4826 13.7239 31.9235 14.1649 31.9235 14.707V19.4141C31.9235 19.7377 32.1858 20 32.5095 20H35.7013C36.8897 20 37.8563 19.0334 37.8563 17.8453V11.8414H38.1578C38.6495 11.8414 39.1118 11.6499 39.4599 11.302C40.177 10.5844 40.1773 9.41711 39.4608 8.69902Z" fill="#3B5D8F"/>
<path d="M21.1359 35V28H22.2159V35H21.1359ZM16.5659 35V28H17.6459V35H16.5659ZM17.0359 32.03V30.99H21.6159V32.03H17.0359ZM26.2734 35.1C25.76 35.1 25.3 34.9833 24.8934 34.75C24.4934 34.51 24.1767 34.1867 23.9434 33.78C23.71 33.3667 23.5934 32.8967 23.5934 32.37C23.5934 31.8433 23.71 31.3767 23.9434 30.97C24.1767 30.5567 24.4934 30.2333 24.8934 30C25.3 29.76 25.76 29.64 26.2734 29.64C26.78 29.64 27.2334 29.76 27.6334 30C28.04 30.2333 28.36 30.5567 28.5934 30.97C28.8267 31.3767 28.9434 31.8433 28.9434 32.37C28.9434 32.8967 28.8267 33.3667 28.5934 33.78C28.36 34.1867 28.04 34.51 27.6334 34.75C27.2334 34.9833 26.78 35.1 26.2734 35.1ZM26.2734 34.16C26.5867 34.16 26.8667 34.0833 27.1134 33.93C27.36 33.77 27.5534 33.5567 27.6934 33.29C27.8334 33.0167 27.9 32.71 27.8934 32.37C27.9 32.0233 27.8334 31.7167 27.6934 31.45C27.5534 31.1767 27.36 30.9633 27.1134 30.81C26.8667 30.6567 26.5867 30.58 26.2734 30.58C25.96 30.58 25.6767 30.66 25.4234 30.82C25.1767 30.9733 24.9834 31.1867 24.8434 31.46C24.7034 31.7267 24.6367 32.03 24.6434 32.37C24.6367 32.71 24.7034 33.0167 24.8434 33.29C24.9834 33.5567 25.1767 33.77 25.4234 33.93C25.6767 34.0833 25.96 34.16 26.2734 34.16ZM30.0457 35V29.75H31.0857V30.87L30.8957 30.99C30.949 30.8167 31.0324 30.65 31.1457 30.49C31.2657 30.33 31.409 30.19 31.5757 30.07C31.749 29.9433 31.9324 29.8433 32.1257 29.77C32.3257 29.6967 32.529 29.66 32.7357 29.66C33.0357 29.66 33.299 29.71 33.5257 29.81C33.7524 29.91 33.939 30.06 34.0857 30.26C34.2324 30.46 34.339 30.71 34.4057 31.01L34.2457 30.97L34.3157 30.8C34.389 30.6467 34.489 30.5033 34.6157 30.37C34.749 30.23 34.899 30.1067 35.0657 30C35.2324 29.8933 35.409 29.81 35.5957 29.75C35.7824 29.69 35.9657 29.66 36.1457 29.66C36.539 29.66 36.8624 29.74 37.1157 29.9C37.3757 30.06 37.569 30.3033 37.6957 30.63C37.829 30.9567 37.8957 31.3633 37.8957 31.85V35H36.8557V31.91C36.8557 31.61 36.8157 31.3667 36.7357 31.18C36.6624 30.9867 36.549 30.8433 36.3957 30.75C36.2424 30.6567 36.0457 30.61 35.8057 30.61C35.619 30.61 35.4424 30.6433 35.2757 30.71C35.1157 30.77 34.9757 30.8567 34.8557 30.97C34.7357 31.0833 34.6424 31.2167 34.5757 31.37C34.509 31.5167 34.4757 31.68 34.4757 31.86V35H33.4357V31.89C33.4357 31.6167 33.3957 31.3867 33.3157 31.2C33.2357 31.0067 33.119 30.86 32.9657 30.76C32.8124 30.66 32.6257 30.61 32.4057 30.61C32.219 30.61 32.0457 30.6433 31.8857 30.71C31.7257 30.77 31.5857 30.8567 31.4657 30.97C31.3457 31.0767 31.2524 31.2067 31.1857 31.36C31.119 31.5067 31.0857 31.6667 31.0857 31.84V35H30.0457ZM41.7247 35.1C41.1847 35.1 40.7047 34.9867 40.2847 34.76C39.8714 34.5267 39.5447 34.21 39.3047 33.81C39.0714 33.41 38.9547 32.95 38.9547 32.43C38.9547 32.0167 39.0214 31.64 39.1547 31.3C39.288 30.96 39.4714 30.6667 39.7047 30.42C39.9447 30.1667 40.228 29.9733 40.5547 29.84C40.888 29.7 41.248 29.63 41.6347 29.63C41.9747 29.63 42.2914 29.6967 42.5847 29.83C42.878 29.9567 43.1314 30.1333 43.3447 30.36C43.5647 30.5867 43.7314 30.8567 43.8447 31.17C43.9647 31.4767 44.0214 31.8133 44.0147 32.18L44.0047 32.62H39.7147L39.4847 31.8H43.1147L42.9647 31.97V31.73C42.9447 31.51 42.8714 31.3133 42.7447 31.14C42.618 30.9667 42.458 30.83 42.2647 30.73C42.0714 30.63 41.8614 30.58 41.6347 30.58C41.2747 30.58 40.9714 30.65 40.7247 30.79C40.478 30.9233 40.2914 31.1233 40.1647 31.39C40.038 31.65 39.9747 31.9733 39.9747 32.36C39.9747 32.7267 40.0514 33.0467 40.2047 33.32C40.358 33.5867 40.5747 33.7933 40.8547 33.94C41.1347 34.0867 41.458 34.16 41.8247 34.16C42.0847 34.16 42.3247 34.1167 42.5447 34.03C42.7714 33.9433 43.0147 33.7867 43.2747 33.56L43.7947 34.29C43.6347 34.45 43.438 34.59 43.2047 34.71C42.978 34.83 42.7347 34.9267 42.4747 35C42.2214 35.0667 41.9714 35.1 41.7247 35.1Z" fill="#747474"/>
</svg>
