<svg width="16" height="16" viewBox="0 0 16 16" fill="none" xmlns="http://www.w3.org/2000/svg">
<rect width="16" height="16" rx="8" fill="#A3B8E0"/>
<path d="M10.5464 3.88818C9.95631 3.88818 9.41531 4.07517 8.93845 4.44396C8.49688 4.78547 8.19785 5.21725 8.01649 5.54139C8.00829 5.55604 7.98714 5.55604 7.97894 5.54139C7.79758 5.21723 7.49855 4.78547 7.05698 4.44396C6.58012 4.07517 6.03912 3.88818 5.44904 3.88818C3.80235 3.88818 2.56055 5.23509 2.56055 7.02122C2.56055 8.95087 4.10978 10.2711 6.45511 12.2697C6.85338 12.6092 7.30482 12.9939 7.77403 13.4042C7.83587 13.4584 7.91531 13.4882 7.99771 13.4882C8.08012 13.4882 8.15956 13.4584 8.2214 13.4042C8.69066 12.9938 9.14207 12.6091 9.54058 12.2695C11.8857 10.2711 13.4349 8.95087 13.4349 7.02122C13.4349 5.23509 12.1931 3.88818 10.5464 3.88818Z" fill="#3B5D8F"/>
</svg>
