<svg width="20" height="18" viewBox="0 0 20 18" fill="none" xmlns="http://www.w3.org/2000/svg">
<path d="M7.62616 15.0435L7.62615 15.0435C5.45291 13.1915 3.71713 11.7093 2.51383 10.2573C1.32863 8.82717 0.714286 7.4889 0.714286 5.93414C0.714286 2.98783 2.73194 0.886161 5.3125 0.886161C6.23596 0.886161 7.078 1.17532 7.83282 1.75909L8.2698 1.19406L7.83283 1.75909C8.54275 2.30813 9.03607 3.01418 9.34211 3.5612C9.62986 4.07551 10.3701 4.07552 10.6579 3.56122L10.0345 3.21245L10.6579 3.56121C10.9639 3.01421 11.4573 2.30812 12.1672 1.75909C12.922 1.17532 13.764 0.886161 14.6875 0.886161C17.2681 0.886161 19.2857 2.98783 19.2857 5.93414C19.2857 7.4889 18.6714 8.82717 17.4862 10.2572C16.283 11.7092 14.5473 13.1913 12.3743 15.0431L12.3743 15.0431L12.3736 15.0438C11.6577 15.6538 10.8456 16.346 10 17.0846C9.15504 16.3465 8.34327 15.6547 7.62816 15.0452L7.62616 15.0435Z" stroke="#3B5D8F" stroke-width="1.42857"/>
</svg>
