<svg width="16" height="16" viewBox="0 0 16 16" fill="none" xmlns="http://www.w3.org/2000/svg">
<path fill-rule="evenodd" clip-rule="evenodd" d="M8 0C3.58172 0 0 3.58172 0 8C0 12.4183 3.58172 16 8 16C12.4183 16 16 12.4183 16 8C16 3.58172 12.4183 0 8 0ZM8.93806 4.44387C9.41492 4.07507 9.95592 3.88809 10.546 3.88809C12.1927 3.88809 13.4345 5.235 13.4345 7.02113C13.4345 8.95077 11.8853 10.271 9.54018 12.2694C9.14168 12.609 8.69027 12.9937 8.22101 13.4041C8.15917 13.4583 8.07973 13.4881 7.99732 13.4881C7.91492 13.4881 7.83548 13.4583 7.77364 13.4041C7.30454 12.9939 6.85322 12.6093 6.45502 12.2699L6.45472 12.2697C4.10939 10.271 2.56016 8.95077 2.56016 7.02113C2.56016 5.235 3.80195 3.88809 5.44865 3.88809C6.03873 3.88809 6.57973 4.07507 7.05659 4.44387C7.49816 4.78537 7.79719 5.21713 7.97855 5.54129C7.98675 5.55594 8.0079 5.55594 8.0161 5.5413C8.19746 5.21715 8.49649 4.78537 8.93806 4.44387Z" fill="#A3B8E0"/>
</svg>
