<svg width="60" height="39" viewBox="0 0 60 39" fill="none" xmlns="http://www.w3.org/2000/svg">
<path d="M26.0197 9.98734C25.8222 9.98734 25.6291 10.0459 25.4649 10.1556C25.3007 10.2654 25.1727 10.4213 25.0971 10.6038C25.0215 10.7863 25.0018 10.987 25.0403 11.1807C25.0788 11.3745 25.1739 11.5524 25.3136 11.692C25.4532 11.8317 25.6312 11.9268 25.8249 11.9653C26.0186 12.0039 26.2194 11.9841 26.4018 11.9085C26.5843 11.8329 26.7403 11.7049 26.85 11.5407C26.9597 11.3765 27.0183 11.1834 27.0183 10.9859C27.0183 10.7211 26.9131 10.4671 26.7258 10.2798C26.5385 10.0925 26.2845 9.98734 26.0197 9.98734ZM30.0141 9.98734C29.8166 9.98734 29.6235 10.0459 29.4593 10.1556C29.2951 10.2654 29.1671 10.4213 29.0915 10.6038C29.0159 10.7863 28.9961 10.987 29.0347 11.1807C29.0732 11.3745 29.1683 11.5524 29.308 11.692C29.4476 11.8317 29.6255 11.9268 29.8193 11.9653C30.013 12.0039 30.2137 11.9841 30.3962 11.9085C30.5787 11.8329 30.7346 11.7049 30.8444 11.5407C30.9541 11.3765 31.0127 11.1834 31.0127 10.9859C31.0127 10.7211 30.9075 10.4671 30.7202 10.2798C30.5329 10.0925 30.2789 9.98734 30.0141 9.98734ZM34.0084 9.98734C33.8109 9.98734 33.6179 10.0459 33.4537 10.1556C33.2894 10.2654 33.1614 10.4213 33.0859 10.6038C33.0103 10.7863 32.9905 10.987 33.029 11.1807C33.0676 11.3745 33.1627 11.5524 33.3023 11.692C33.442 11.8317 33.6199 11.9268 33.8136 11.9653C34.0073 12.0039 34.2081 11.9841 34.3906 11.9085C34.5731 11.8329 34.729 11.7049 34.8387 11.5407C34.9485 11.3765 35.007 11.1834 35.007 10.9859C35.007 10.7211 34.9018 10.4671 34.7146 10.2798C34.5273 10.0925 34.2733 9.98734 34.0084 9.98734ZM30.0141 1C28.7027 1 27.4042 1.25829 26.1926 1.76013C24.9811 2.26197 23.8802 2.99753 22.953 3.92481C21.0802 5.79753 20.0281 8.33749 20.0281 10.9859C20.0194 13.2918 20.8178 15.5281 22.285 17.307L20.2878 19.3042C20.1492 19.4446 20.0554 19.6229 20.018 19.8167C19.9807 20.0104 20.0016 20.2108 20.0781 20.3927C20.161 20.5723 20.2955 20.7233 20.4644 20.8264C20.6333 20.9296 20.829 20.9802 21.0267 20.9719H30.0141C32.6625 20.9719 35.2025 19.9198 37.0752 18.047C38.9479 16.1743 40 13.6344 40 10.9859C40 8.33749 38.9479 5.79753 37.0752 3.92481C35.2025 2.05209 32.6625 1 30.0141 1ZM30.0141 18.9747H23.4333L24.362 18.046C24.4564 17.9535 24.5315 17.8432 24.5829 17.7215C24.6343 17.5998 24.6611 17.4691 24.6616 17.337C24.6579 17.0736 24.5502 16.8223 24.362 16.638C23.0545 15.3318 22.2402 13.6128 22.058 11.7736C21.8758 9.93446 22.3368 8.08902 23.3627 6.5517C24.3885 5.01438 25.9156 3.8803 27.6839 3.34267C29.4521 2.80504 31.352 2.89713 33.06 3.60325C34.7679 4.30936 36.1782 5.58581 37.0506 7.21513C37.923 8.84445 38.2034 10.7258 37.8442 12.5387C37.4849 14.3517 36.5082 15.9839 35.0805 17.1575C33.6527 18.331 31.8622 18.9732 30.0141 18.9747Z" fill="#B4B4B4" stroke="white" stroke-width="0.1"/>
<path d="M7.21047 36V29H8.27047L10.8205 33.15L10.3105 33.14L12.8905 29H13.8905V36H12.8105V33.13C12.8105 32.53 12.8238 31.99 12.8505 31.51C12.8838 31.03 12.9371 30.5533 13.0105 30.08L13.1505 30.45L10.8605 33.99H10.2005L7.98047 30.49L8.09047 30.08C8.1638 30.5267 8.2138 30.9867 8.24047 31.46C8.2738 31.9267 8.29047 32.4833 8.29047 33.13V36H7.21047ZM18.043 36.1C17.503 36.1 17.023 35.9867 16.603 35.76C16.1897 35.5267 15.863 35.21 15.623 34.81C15.3897 34.41 15.273 33.95 15.273 33.43C15.273 33.0167 15.3397 32.64 15.473 32.3C15.6064 31.96 15.7897 31.6667 16.023 31.42C16.263 31.1667 16.5464 30.9733 16.873 30.84C17.2064 30.7 17.5664 30.63 17.953 30.63C18.293 30.63 18.6097 30.6967 18.903 30.83C19.1964 30.9567 19.4497 31.1333 19.663 31.36C19.883 31.5867 20.0497 31.8567 20.163 32.17C20.283 32.4767 20.3397 32.8133 20.333 33.18L20.323 33.62H16.033L15.803 32.8H19.433L19.283 32.97V32.73C19.263 32.51 19.1897 32.3133 19.063 32.14C18.9364 31.9667 18.7764 31.83 18.583 31.73C18.3897 31.63 18.1797 31.58 17.953 31.58C17.593 31.58 17.2897 31.65 17.043 31.79C16.7964 31.9233 16.6097 32.1233 16.483 32.39C16.3564 32.65 16.293 32.9733 16.293 33.36C16.293 33.7267 16.3697 34.0467 16.523 34.32C16.6764 34.5867 16.893 34.7933 17.173 34.94C17.453 35.0867 17.7764 35.16 18.143 35.16C18.403 35.16 18.643 35.1167 18.863 35.03C19.0897 34.9433 19.333 34.7867 19.593 34.56L20.113 35.29C19.953 35.45 19.7564 35.59 19.523 35.71C19.2964 35.83 19.053 35.9267 18.793 36C18.5397 36.0667 18.2897 36.1 18.043 36.1ZM23.2024 36.1C22.7624 36.1 22.3658 36.0233 22.0124 35.87C21.6591 35.7167 21.3658 35.49 21.1324 35.19L21.8324 34.59C22.0324 34.8233 22.2491 34.9933 22.4824 35.1C22.7224 35.2 22.9924 35.25 23.2924 35.25C23.4124 35.25 23.5224 35.2367 23.6224 35.21C23.7291 35.1767 23.8191 35.13 23.8924 35.07C23.9724 35.01 24.0324 34.94 24.0724 34.86C24.1124 34.7733 24.1324 34.68 24.1324 34.58C24.1324 34.4067 24.0691 34.2667 23.9424 34.16C23.8758 34.1133 23.7691 34.0633 23.6224 34.01C23.4824 33.95 23.2991 33.89 23.0724 33.83C22.6858 33.73 22.3691 33.6167 22.1224 33.49C21.8758 33.3633 21.6858 33.22 21.5524 33.06C21.4524 32.9333 21.3791 32.7967 21.3324 32.65C21.2858 32.4967 21.2624 32.33 21.2624 32.15C21.2624 31.93 21.3091 31.73 21.4024 31.55C21.5024 31.3633 21.6358 31.2033 21.8024 31.07C21.9758 30.93 22.1758 30.8233 22.4024 30.75C22.6358 30.6767 22.8824 30.64 23.1424 30.64C23.3891 30.64 23.6324 30.6733 23.8724 30.74C24.1191 30.8067 24.3458 30.9033 24.5524 31.03C24.7591 31.1567 24.9324 31.3067 25.0724 31.48L24.4824 32.13C24.3558 32.0033 24.2158 31.8933 24.0624 31.8C23.9158 31.7 23.7658 31.6233 23.6124 31.57C23.4591 31.5167 23.3191 31.49 23.1924 31.49C23.0524 31.49 22.9258 31.5033 22.8124 31.53C22.6991 31.5567 22.6024 31.5967 22.5224 31.65C22.4491 31.7033 22.3924 31.77 22.3524 31.85C22.3124 31.93 22.2924 32.02 22.2924 32.12C22.2991 32.2067 22.3191 32.29 22.3524 32.37C22.3924 32.4433 22.4458 32.5067 22.5124 32.56C22.5858 32.6133 22.6958 32.67 22.8424 32.73C22.9891 32.79 23.1758 32.8467 23.4024 32.9C23.7358 32.9867 24.0091 33.0833 24.2224 33.19C24.4424 33.29 24.6158 33.4067 24.7424 33.54C24.8758 33.6667 24.9691 33.8133 25.0224 33.98C25.0758 34.1467 25.1024 34.3333 25.1024 34.54C25.1024 34.84 25.0158 35.11 24.8424 35.35C24.6758 35.5833 24.4491 35.7667 24.1624 35.9C23.8758 36.0333 23.5558 36.1 23.2024 36.1ZM27.9876 36.1C27.5476 36.1 27.1509 36.0233 26.7976 35.87C26.4442 35.7167 26.1509 35.49 25.9176 35.19L26.6176 34.59C26.8176 34.8233 27.0342 34.9933 27.2676 35.1C27.5076 35.2 27.7776 35.25 28.0776 35.25C28.1976 35.25 28.3076 35.2367 28.4076 35.21C28.5142 35.1767 28.6042 35.13 28.6776 35.07C28.7576 35.01 28.8176 34.94 28.8576 34.86C28.8976 34.7733 28.9176 34.68 28.9176 34.58C28.9176 34.4067 28.8542 34.2667 28.7276 34.16C28.6609 34.1133 28.5542 34.0633 28.4076 34.01C28.2676 33.95 28.0842 33.89 27.8576 33.83C27.4709 33.73 27.1542 33.6167 26.9076 33.49C26.6609 33.3633 26.4709 33.22 26.3376 33.06C26.2376 32.9333 26.1642 32.7967 26.1176 32.65C26.0709 32.4967 26.0476 32.33 26.0476 32.15C26.0476 31.93 26.0942 31.73 26.1876 31.55C26.2876 31.3633 26.4209 31.2033 26.5876 31.07C26.7609 30.93 26.9609 30.8233 27.1876 30.75C27.4209 30.6767 27.6676 30.64 27.9276 30.64C28.1742 30.64 28.4176 30.6733 28.6576 30.74C28.9042 30.8067 29.1309 30.9033 29.3376 31.03C29.5442 31.1567 29.7176 31.3067 29.8576 31.48L29.2676 32.13C29.1409 32.0033 29.0009 31.8933 28.8476 31.8C28.7009 31.7 28.5509 31.6233 28.3976 31.57C28.2442 31.5167 28.1042 31.49 27.9776 31.49C27.8376 31.49 27.7109 31.5033 27.5976 31.53C27.4842 31.5567 27.3876 31.5967 27.3076 31.65C27.2342 31.7033 27.1776 31.77 27.1376 31.85C27.0976 31.93 27.0776 32.02 27.0776 32.12C27.0842 32.2067 27.1042 32.29 27.1376 32.37C27.1776 32.4433 27.2309 32.5067 27.2976 32.56C27.3709 32.6133 27.4809 32.67 27.6276 32.73C27.7742 32.79 27.9609 32.8467 28.1876 32.9C28.5209 32.9867 28.7942 33.0833 29.0076 33.19C29.2276 33.29 29.4009 33.4067 29.5276 33.54C29.6609 33.6667 29.7542 33.8133 29.8076 33.98C29.8609 34.1467 29.8876 34.3333 29.8876 34.54C29.8876 34.84 29.8009 35.11 29.6276 35.35C29.4609 35.5833 29.2342 35.7667 28.9476 35.9C28.6609 36.0333 28.3409 36.1 27.9876 36.1ZM33.0427 36.1C32.6094 36.1 32.2127 35.98 31.8527 35.74C31.4994 35.5 31.2161 35.1733 31.0027 34.76C30.7894 34.3467 30.6827 33.88 30.6827 33.36C30.6827 32.8333 30.7894 32.3667 31.0027 31.96C31.2227 31.5467 31.5161 31.2233 31.8827 30.99C32.2561 30.7567 32.6727 30.64 33.1327 30.64C33.4061 30.64 33.6561 30.68 33.8827 30.76C34.1094 30.84 34.3061 30.9533 34.4727 31.1C34.6461 31.24 34.7861 31.4033 34.8927 31.59C35.0061 31.7767 35.0761 31.9767 35.1027 32.19L34.8727 32.11V30.75H35.9127V36H34.8727V34.75L35.1127 34.68C35.0727 34.86 34.9894 35.0367 34.8627 35.21C34.7427 35.3767 34.5861 35.5267 34.3927 35.66C34.2061 35.7933 33.9961 35.9 33.7627 35.98C33.5361 36.06 33.2961 36.1 33.0427 36.1ZM33.3127 35.15C33.6261 35.15 33.9027 35.0733 34.1427 34.92C34.3827 34.7667 34.5694 34.5567 34.7027 34.29C34.8427 34.0167 34.9127 33.7067 34.9127 33.36C34.9127 33.02 34.8427 32.7167 34.7027 32.45C34.5694 32.1833 34.3827 31.9733 34.1427 31.82C33.9027 31.6667 33.6261 31.59 33.3127 31.59C33.0061 31.59 32.7327 31.6667 32.4927 31.82C32.2594 31.9733 32.0727 32.1833 31.9327 32.45C31.7994 32.7167 31.7327 33.02 31.7327 33.36C31.7327 33.7067 31.7994 34.0167 31.9327 34.29C32.0727 34.5567 32.2594 34.7667 32.4927 34.92C32.7327 35.0733 33.0061 35.15 33.3127 35.15ZM39.7009 38.3C39.3275 38.3 38.9542 38.24 38.5809 38.12C38.2142 38.0067 37.9175 37.8567 37.6909 37.67L38.0709 36.87C38.2042 36.97 38.3609 37.0567 38.5409 37.13C38.7209 37.21 38.9109 37.27 39.1109 37.31C39.3109 37.3567 39.5075 37.38 39.7009 37.38C40.0675 37.38 40.3742 37.32 40.6209 37.2C40.8675 37.08 41.0542 36.9033 41.1809 36.67C41.3075 36.4367 41.3709 36.1467 41.3709 35.8V34.79L41.4809 34.86C41.4475 35.0667 41.3375 35.2667 41.1509 35.46C40.9709 35.6467 40.7442 35.8 40.4709 35.92C40.1975 36.04 39.9175 36.1 39.6309 36.1C39.1309 36.1 38.6842 35.9833 38.2909 35.75C37.9042 35.51 37.5975 35.1867 37.3709 34.78C37.1442 34.3667 37.0309 33.8967 37.0309 33.37C37.0309 32.8433 37.1409 32.3767 37.3609 31.97C37.5875 31.5567 37.8942 31.2333 38.2809 31C38.6742 30.76 39.1142 30.64 39.6009 30.64C39.8009 30.64 39.9942 30.6667 40.1809 30.72C40.3675 30.7667 40.5409 30.8367 40.7009 30.93C40.8609 31.0167 41.0042 31.1133 41.1309 31.22C41.2575 31.3267 41.3609 31.44 41.4409 31.56C41.5209 31.68 41.5709 31.7933 41.5909 31.9L41.3709 31.98V30.75H42.4009V35.68C42.4009 36.1 42.3375 36.47 42.2109 36.79C42.0909 37.1167 41.9142 37.39 41.6809 37.61C41.4475 37.8367 41.1642 38.0067 40.8309 38.12C40.4975 38.24 40.1209 38.3 39.7009 38.3ZM39.7409 35.15C40.0675 35.15 40.3575 35.0733 40.6109 34.92C40.8642 34.7667 41.0609 34.5567 41.2009 34.29C41.3409 34.0233 41.4109 33.7167 41.4109 33.37C41.4109 33.0233 41.3375 32.7167 41.1909 32.45C41.0509 32.1767 40.8542 31.9633 40.6009 31.81C40.3542 31.6567 40.0675 31.58 39.7409 31.58C39.4209 31.58 39.1342 31.66 38.8809 31.82C38.6342 31.9733 38.4375 32.1867 38.2909 32.46C38.1509 32.7267 38.0809 33.03 38.0809 33.37C38.0809 33.71 38.1509 34.0167 38.2909 34.29C38.4375 34.5567 38.6342 34.7667 38.8809 34.92C39.1342 35.0733 39.4209 35.15 39.7409 35.15ZM46.295 36.1C45.755 36.1 45.275 35.9867 44.855 35.76C44.4417 35.5267 44.115 35.21 43.875 34.81C43.6417 34.41 43.525 33.95 43.525 33.43C43.525 33.0167 43.5917 32.64 43.725 32.3C43.8583 31.96 44.0417 31.6667 44.275 31.42C44.515 31.1667 44.7983 30.9733 45.125 30.84C45.4583 30.7 45.8183 30.63 46.205 30.63C46.545 30.63 46.8617 30.6967 47.155 30.83C47.4483 30.9567 47.7017 31.1333 47.915 31.36C48.135 31.5867 48.3017 31.8567 48.415 32.17C48.535 32.4767 48.5917 32.8133 48.585 33.18L48.575 33.62H44.285L44.055 32.8H47.685L47.535 32.97V32.73C47.515 32.51 47.4417 32.3133 47.315 32.14C47.1883 31.9667 47.0283 31.83 46.835 31.73C46.6417 31.63 46.4317 31.58 46.205 31.58C45.845 31.58 45.5417 31.65 45.295 31.79C45.0483 31.9233 44.8617 32.1233 44.735 32.39C44.6083 32.65 44.545 32.9733 44.545 33.36C44.545 33.7267 44.6217 34.0467 44.775 34.32C44.9283 34.5867 45.145 34.7933 45.425 34.94C45.705 35.0867 46.0283 35.16 46.395 35.16C46.655 35.16 46.895 35.1167 47.115 35.03C47.3417 34.9433 47.585 34.7867 47.845 34.56L48.365 35.29C48.205 35.45 48.0083 35.59 47.775 35.71C47.5483 35.83 47.305 35.9267 47.045 36C46.7917 36.0667 46.5417 36.1 46.295 36.1ZM51.4544 36.1C51.0144 36.1 50.6177 36.0233 50.2644 35.87C49.911 35.7167 49.6177 35.49 49.3844 35.19L50.0844 34.59C50.2844 34.8233 50.501 34.9933 50.7344 35.1C50.9744 35.2 51.2444 35.25 51.5444 35.25C51.6644 35.25 51.7744 35.2367 51.8744 35.21C51.981 35.1767 52.071 35.13 52.1444 35.07C52.2244 35.01 52.2844 34.94 52.3244 34.86C52.3644 34.7733 52.3844 34.68 52.3844 34.58C52.3844 34.4067 52.321 34.2667 52.1944 34.16C52.1277 34.1133 52.021 34.0633 51.8744 34.01C51.7344 33.95 51.551 33.89 51.3244 33.83C50.9377 33.73 50.621 33.6167 50.3744 33.49C50.1277 33.3633 49.9377 33.22 49.8044 33.06C49.7044 32.9333 49.631 32.7967 49.5844 32.65C49.5377 32.4967 49.5144 32.33 49.5144 32.15C49.5144 31.93 49.561 31.73 49.6544 31.55C49.7544 31.3633 49.8877 31.2033 50.0544 31.07C50.2277 30.93 50.4277 30.8233 50.6544 30.75C50.8877 30.6767 51.1344 30.64 51.3944 30.64C51.641 30.64 51.8844 30.6733 52.1244 30.74C52.371 30.8067 52.5977 30.9033 52.8044 31.03C53.011 31.1567 53.1844 31.3067 53.3244 31.48L52.7344 32.13C52.6077 32.0033 52.4677 31.8933 52.3144 31.8C52.1677 31.7 52.0177 31.6233 51.8644 31.57C51.711 31.5167 51.571 31.49 51.4444 31.49C51.3044 31.49 51.1777 31.5033 51.0644 31.53C50.951 31.5567 50.8544 31.5967 50.7744 31.65C50.701 31.7033 50.6444 31.77 50.6044 31.85C50.5644 31.93 50.5444 32.02 50.5444 32.12C50.551 32.2067 50.571 32.29 50.6044 32.37C50.6444 32.4433 50.6977 32.5067 50.7644 32.56C50.8377 32.6133 50.9477 32.67 51.0944 32.73C51.241 32.79 51.4277 32.8467 51.6544 32.9C51.9877 32.9867 52.261 33.0833 52.4744 33.19C52.6944 33.29 52.8677 33.4067 52.9944 33.54C53.1277 33.6667 53.221 33.8133 53.2744 33.98C53.3277 34.1467 53.3544 34.3333 53.3544 34.54C53.3544 34.84 53.2677 35.11 53.0944 35.35C52.9277 35.5833 52.701 35.7667 52.4144 35.9C52.1277 36.0333 51.8077 36.1 51.4544 36.1Z" fill="#747474"/>
</svg>
