<svg width="60" height="38" viewBox="0 0 60 38" fill="none" xmlns="http://www.w3.org/2000/svg">
<path d="M37.3743 12.6771V12.7183L37.4034 12.7476L39.4051 14.7604C39.4051 14.7604 39.4052 14.7605 39.4052 14.7605C39.6428 15.0021 39.8039 15.3084 39.8685 15.6411C39.933 15.9739 39.898 16.3183 39.7679 16.6313C39.6378 16.9442 39.4183 17.2119 39.1368 17.4008C38.8555 17.5897 38.5248 17.6914 38.1859 17.6934C38.1858 17.6934 38.1857 17.6934 38.1856 17.6934L34.449 17.6934H34.349V17.7934V18.1693C34.2977 19.2711 33.812 20.3079 32.9982 21.0525C32.1837 21.7977 31.1072 22.1897 30.0043 22.1425L30.0043 22.1421L29.9957 22.1425C28.8929 22.1897 27.8163 21.7977 27.0018 21.0525C26.188 20.3079 25.7023 19.2711 25.651 18.1693V17.7934V17.6934H25.551L21.8144 17.6934C21.8143 17.6934 21.8142 17.6934 21.8141 17.6934C21.4752 17.6914 21.1445 17.5897 20.8632 17.4008C20.5817 17.2119 20.3622 16.9442 20.2321 16.6313C20.102 16.3183 20.067 15.9739 20.1315 15.6411C20.196 15.3085 20.3572 15.0022 20.5947 14.7606C20.5948 14.7605 20.5949 14.7604 20.5949 14.7604L22.5966 12.7476L22.6257 12.7183V12.6771V7.48305C22.6276 6.4313 22.8538 5.39206 23.2892 4.43466C23.7246 3.47726 24.3591 2.62372 25.1505 1.93099C25.9419 1.23826 26.872 0.722269 27.8786 0.417451C28.8848 0.112735 29.9445 0.0260531 30.9869 0.163179C32.7836 0.438819 34.42 1.3551 35.594 2.74292C36.7683 4.131 37.4006 5.89706 37.3743 7.715V7.71644V12.6771ZM32.3238 18.183L32.3245 18.1831V18.1716V17.7934V17.6934H32.2245H27.7755H27.6755V17.7934V18.1716H27.6748L27.6762 18.183C27.7408 18.7436 28.0192 19.2576 28.4534 19.618C28.8858 19.9769 29.4395 20.1559 30 20.1181C30.5605 20.1559 31.1142 19.9769 31.5466 19.618C31.9808 19.2576 32.2592 18.7436 32.3238 18.183ZM22.7108 15.4982L22.5401 15.6689H22.7815H37.2185H37.4614L37.2889 15.4979L35.9659 14.186C35.9658 14.1859 35.9657 14.1858 35.9656 14.1857C35.7689 13.9873 35.6132 13.752 35.5075 13.4933C35.4018 13.2344 35.3482 12.9572 35.3498 12.6776V12.6771V7.67298C35.3776 6.34641 34.9254 5.05441 34.0764 4.03473C33.2271 3.01477 32.038 2.33595 30.7279 2.12323L30.7279 2.12318L30.7248 2.12278C29.9642 2.02351 29.1911 2.09071 28.459 2.31973C27.7272 2.54866 27.0539 2.9338 26.4856 3.44853C25.9098 3.95114 25.4482 4.57105 25.1316 5.26668C24.815 5.9626 24.6508 6.71821 24.6502 7.48279V7.48287V12.6771V12.6772C24.6504 12.9575 24.5951 13.2351 24.4876 13.494C24.38 13.7529 24.2223 13.9879 24.0235 14.1855L24.0232 14.1858L22.7108 15.4982ZM35.2498 7.67195V12.6771V7.67195Z" fill="#B4B4B4" stroke="white" stroke-width="0.2"/>
<path d="M2.07375 35V28H3.04375L7.32375 33.73L7.16375 33.82C7.13708 33.6533 7.11375 33.4733 7.09375 33.28C7.07375 33.08 7.05375 32.87 7.03375 32.65C7.02042 32.4233 7.00708 32.1867 6.99375 31.94C6.98708 31.6867 6.98042 31.4233 6.97375 31.15C6.96708 30.8767 6.96375 30.5933 6.96375 30.3V28H8.04375V35H7.05375L2.84375 29.48L2.95375 29.34C2.98708 29.7467 3.01375 30.0933 3.03375 30.38C3.06042 30.66 3.08042 30.9 3.09375 31.1C3.11375 31.2933 3.12708 31.4533 3.13375 31.58C3.14042 31.7 3.14375 31.8 3.14375 31.88C3.15042 31.96 3.15375 32.03 3.15375 32.09V35H2.07375ZM12.1034 35.1C11.5901 35.1 11.1301 34.9833 10.7234 34.75C10.3234 34.51 10.0068 34.1867 9.77344 33.78C9.5401 33.3667 9.42344 32.8967 9.42344 32.37C9.42344 31.8433 9.5401 31.3767 9.77344 30.97C10.0068 30.5567 10.3234 30.2333 10.7234 30C11.1301 29.76 11.5901 29.64 12.1034 29.64C12.6101 29.64 13.0634 29.76 13.4634 30C13.8701 30.2333 14.1901 30.5567 14.4234 30.97C14.6568 31.3767 14.7734 31.8433 14.7734 32.37C14.7734 32.8967 14.6568 33.3667 14.4234 33.78C14.1901 34.1867 13.8701 34.51 13.4634 34.75C13.0634 34.9833 12.6101 35.1 12.1034 35.1ZM12.1034 34.16C12.4168 34.16 12.6968 34.0833 12.9434 33.93C13.1901 33.77 13.3834 33.5567 13.5234 33.29C13.6634 33.0167 13.7301 32.71 13.7234 32.37C13.7301 32.0233 13.6634 31.7167 13.5234 31.45C13.3834 31.1767 13.1901 30.9633 12.9434 30.81C12.6968 30.6567 12.4168 30.58 12.1034 30.58C11.7901 30.58 11.5068 30.66 11.2534 30.82C11.0068 30.9733 10.8134 31.1867 10.6734 31.46C10.5334 31.7267 10.4668 32.03 10.4734 32.37C10.4668 32.71 10.5334 33.0167 10.6734 33.29C10.8134 33.5567 11.0068 33.77 11.2534 33.93C11.5068 34.0833 11.7901 34.16 12.1034 34.16ZM16.5458 35V28.41H17.5758V35H16.5458ZM15.4558 30.75V29.75H18.7958V30.75H15.4558ZM19.9037 35V29.75H20.9337V35H19.9037ZM20.4037 28.59C20.1837 28.59 20.0137 28.5333 19.8937 28.42C19.7737 28.3067 19.7137 28.1467 19.7137 27.94C19.7137 27.7467 19.7737 27.59 19.8937 27.47C20.0203 27.35 20.1903 27.29 20.4037 27.29C20.6237 27.29 20.7937 27.3467 20.9137 27.46C21.0337 27.5733 21.0937 27.7333 21.0937 27.94C21.0937 28.1333 21.0303 28.29 20.9037 28.41C20.7837 28.53 20.617 28.59 20.4037 28.59ZM23.0869 35V29.16C23.0869 28.86 23.1535 28.5933 23.2869 28.36C23.4202 28.1267 23.6035 27.9433 23.8369 27.81C24.0702 27.6767 24.3402 27.61 24.6469 27.61C24.8602 27.61 25.0602 27.65 25.2469 27.73C25.4335 27.81 25.5835 27.9167 25.6969 28.05L25.3469 28.84C25.2602 28.76 25.1635 28.6967 25.0569 28.65C24.9569 28.5967 24.8602 28.57 24.7669 28.57C24.6269 28.57 24.5069 28.5933 24.4069 28.64C24.3135 28.68 24.2435 28.7467 24.1969 28.84C24.1502 28.9267 24.1269 29.0333 24.1269 29.16V35H23.6069C23.5202 35 23.4335 35 23.3469 35C23.2602 35 23.1735 35 23.0869 35ZM22.2469 30.79V29.84H25.3669V30.79H22.2469ZM26.6169 35V29.75H27.6469V35H26.6169ZM27.1169 28.59C26.8969 28.59 26.7269 28.5333 26.6069 28.42C26.4869 28.3067 26.4269 28.1467 26.4269 27.94C26.4269 27.7467 26.4869 27.59 26.6069 27.47C26.7335 27.35 26.9035 27.29 27.1169 27.29C27.3369 27.29 27.5069 27.3467 27.6269 27.46C27.7469 27.5733 27.8069 27.7333 27.8069 27.94C27.8069 28.1333 27.7435 28.29 27.6169 28.41C27.4969 28.53 27.3302 28.59 27.1169 28.59ZM31.4559 35.1C30.9692 35.1 30.5325 34.98 30.1459 34.74C29.7659 34.5 29.4625 34.1733 29.2359 33.76C29.0159 33.3467 28.9059 32.8833 28.9059 32.37C28.9059 31.8567 29.0159 31.3933 29.2359 30.98C29.4625 30.5667 29.7659 30.24 30.1459 30C30.5325 29.76 30.9692 29.64 31.4559 29.64C31.9225 29.64 32.3459 29.7367 32.7259 29.93C33.1125 30.1167 33.4059 30.3733 33.6059 30.7L33.0359 31.4C32.9292 31.2467 32.7925 31.1067 32.6259 30.98C32.4592 30.8533 32.2825 30.7533 32.0959 30.68C31.9092 30.6067 31.7292 30.57 31.5559 30.57C31.2359 30.57 30.9492 30.65 30.6959 30.81C30.4492 30.9633 30.2525 31.1767 30.1059 31.45C29.9592 31.7233 29.8859 32.03 29.8859 32.37C29.8859 32.71 29.9625 33.0167 30.1159 33.29C30.2692 33.5567 30.4725 33.77 30.7259 33.93C30.9792 34.09 31.2592 34.17 31.5659 34.17C31.7459 34.17 31.9192 34.14 32.0859 34.08C32.2592 34.02 32.4259 33.93 32.5859 33.81C32.7459 33.69 32.8959 33.5433 33.0359 33.37L33.6059 34.07C33.3925 34.37 33.0859 34.6167 32.6859 34.81C32.2925 35.0033 31.8825 35.1 31.4559 35.1ZM36.5974 35.1C36.1641 35.1 35.7674 34.98 35.4074 34.74C35.0541 34.5 34.7708 34.1733 34.5574 33.76C34.3441 33.3467 34.2374 32.88 34.2374 32.36C34.2374 31.8333 34.3441 31.3667 34.5574 30.96C34.7774 30.5467 35.0708 30.2233 35.4374 29.99C35.8108 29.7567 36.2274 29.64 36.6874 29.64C36.9608 29.64 37.2108 29.68 37.4374 29.76C37.6641 29.84 37.8608 29.9533 38.0274 30.1C38.2008 30.24 38.3408 30.4033 38.4474 30.59C38.5608 30.7767 38.6308 30.9767 38.6574 31.19L38.4274 31.11V29.75H39.4674V35H38.4274V33.75L38.6674 33.68C38.6274 33.86 38.5441 34.0367 38.4174 34.21C38.2974 34.3767 38.1408 34.5267 37.9474 34.66C37.7608 34.7933 37.5508 34.9 37.3174 34.98C37.0908 35.06 36.8508 35.1 36.5974 35.1ZM36.8674 34.15C37.1808 34.15 37.4574 34.0733 37.6974 33.92C37.9374 33.7667 38.1241 33.5567 38.2574 33.29C38.3974 33.0167 38.4674 32.7067 38.4674 32.36C38.4674 32.02 38.3974 31.7167 38.2574 31.45C38.1241 31.1833 37.9374 30.9733 37.6974 30.82C37.4574 30.6667 37.1808 30.59 36.8674 30.59C36.5608 30.59 36.2874 30.6667 36.0474 30.82C35.8141 30.9733 35.6274 31.1833 35.4874 31.45C35.3541 31.7167 35.2874 32.02 35.2874 32.36C35.2874 32.7067 35.3541 33.0167 35.4874 33.29C35.6274 33.5567 35.8141 33.7667 36.0474 33.92C36.2874 34.0733 36.5608 34.15 36.8674 34.15ZM41.5555 35V28.41H42.5855V35H41.5555ZM40.4655 30.75V29.75H43.8055V30.75H40.4655ZM44.9134 35V29.75H45.9434V35H44.9134ZM45.4134 28.59C45.1934 28.59 45.0234 28.5333 44.9034 28.42C44.7834 28.3067 44.7234 28.1467 44.7234 27.94C44.7234 27.7467 44.7834 27.59 44.9034 27.47C45.0301 27.35 45.2001 27.29 45.4134 27.29C45.6334 27.29 45.8034 27.3467 45.9234 27.46C46.0434 27.5733 46.1034 27.7333 46.1034 27.94C46.1034 28.1333 46.0401 28.29 45.9134 28.41C45.7934 28.53 45.6268 28.59 45.4134 28.59ZM49.8866 35.1C49.3733 35.1 48.9133 34.9833 48.5066 34.75C48.1066 34.51 47.79 34.1867 47.5566 33.78C47.3233 33.3667 47.2066 32.8967 47.2066 32.37C47.2066 31.8433 47.3233 31.3767 47.5566 30.97C47.79 30.5567 48.1066 30.2333 48.5066 30C48.9133 29.76 49.3733 29.64 49.8866 29.64C50.3933 29.64 50.8466 29.76 51.2466 30C51.6533 30.2333 51.9733 30.5567 52.2066 30.97C52.44 31.3767 52.5566 31.8433 52.5566 32.37C52.5566 32.8967 52.44 33.3667 52.2066 33.78C51.9733 34.1867 51.6533 34.51 51.2466 34.75C50.8466 34.9833 50.3933 35.1 49.8866 35.1ZM49.8866 34.16C50.2 34.16 50.48 34.0833 50.7266 33.93C50.9733 33.77 51.1666 33.5567 51.3066 33.29C51.4466 33.0167 51.5133 32.71 51.5066 32.37C51.5133 32.0233 51.4466 31.7167 51.3066 31.45C51.1666 31.1767 50.9733 30.9633 50.7266 30.81C50.48 30.6567 50.2 30.58 49.8866 30.58C49.5733 30.58 49.29 30.66 49.0366 30.82C48.79 30.9733 48.5966 31.1867 48.4566 31.46C48.3166 31.7267 48.25 32.03 48.2566 32.37C48.25 32.71 48.3166 33.0167 48.4566 33.29C48.5966 33.5567 48.79 33.77 49.0366 33.93C49.29 34.0833 49.5733 34.16 49.8866 34.16ZM53.679 35V29.75H54.709V30.83L54.529 30.95C54.5957 30.7167 54.7257 30.5033 54.919 30.31C55.1123 30.11 55.3423 29.95 55.609 29.83C55.8757 29.7033 56.149 29.64 56.429 29.64C56.829 29.64 57.1623 29.72 57.429 29.88C57.6957 30.0333 57.8957 30.27 58.029 30.59C58.1623 30.91 58.229 31.3133 58.229 31.8V35H57.199V31.87C57.199 31.57 57.159 31.3233 57.079 31.13C56.999 30.93 56.8757 30.7867 56.709 30.7C56.5423 30.6067 56.3357 30.5667 56.089 30.58C55.889 30.58 55.7057 30.6133 55.539 30.68C55.3723 30.74 55.2257 30.8267 55.099 30.94C54.979 31.0533 54.8823 31.1867 54.809 31.34C54.7423 31.4867 54.709 31.6467 54.709 31.82V35H54.199C54.1123 35 54.0257 35 53.939 35C53.8523 35 53.7657 35 53.679 35Z" fill="#747474"/>
</svg>
