<svg width="7" height="8" viewBox="0 0 7 8" fill="none" xmlns="http://www.w3.org/2000/svg">
<path opacity="0.8" d="M3.40018 0C2.55149 0 1.73757 0.337141 1.13745 0.937255C0.537336 1.53737 0.200195 2.3513 0.200195 3.19999C0.200195 5.35998 3.02019 7.79997 3.14019 7.90397C3.21264 7.96595 3.30484 8 3.40018 8C3.49553 8 3.58773 7.96595 3.66018 7.90397C3.80018 7.79997 6.60017 5.35998 6.60017 3.19999C6.60017 2.3513 6.26303 1.53737 5.66292 0.937255C5.06281 0.337141 4.24887 0 3.40018 0ZM3.40018 7.05998C2.54819 6.25998 1.00019 4.53598 1.00019 3.19999C1.00019 2.56347 1.25305 1.95302 1.70313 1.50294C2.15322 1.05285 2.76367 0.799997 3.40018 0.799997C4.0367 0.799997 4.64715 1.05285 5.09724 1.50294C5.54732 1.95302 5.80018 2.56347 5.80018 3.19999C5.80018 4.53598 4.25218 6.26398 3.40018 7.05998ZM3.40018 1.59999C3.08374 1.59999 2.77439 1.69383 2.51128 1.86964C2.24816 2.04545 2.04308 2.29534 1.92198 2.5877C1.80088 2.88006 1.7692 3.20176 1.83093 3.51213C1.89267 3.8225 2.04505 4.10759 2.26882 4.33136C2.49258 4.55512 2.77767 4.7075 3.08804 4.76924C3.39841 4.83098 3.72012 4.79929 4.01248 4.67819C4.30484 4.55709 4.55472 4.35202 4.73053 4.0889C4.90634 3.82578 5.00018 3.51644 5.00018 3.19999C5.00018 2.77564 4.83161 2.36868 4.53155 2.06862C4.23149 1.76857 3.82453 1.59999 3.40018 1.59999ZM3.40018 3.99999C3.24196 3.99999 3.08729 3.95307 2.95573 3.86516C2.82417 3.77726 2.72163 3.65232 2.66108 3.50614C2.60053 3.35995 2.58469 3.1991 2.61556 3.04392C2.64643 2.88873 2.72262 2.74619 2.8345 2.63431C2.94638 2.52242 3.08893 2.44623 3.24411 2.41536C3.3993 2.3845 3.56015 2.40034 3.70633 2.46089C3.85251 2.52144 3.97745 2.62398 4.06536 2.75553C4.15326 2.88709 4.20018 3.04176 4.20018 3.19999C4.20018 3.41216 4.1159 3.61564 3.96587 3.76567C3.81584 3.9157 3.61236 3.99999 3.40018 3.99999Z" fill="#A3B8E0"/>
</svg>
