<svg width="561" height="530" viewBox="0 0 561 530" fill="none" xmlns="http://www.w3.org/2000/svg">
<path d="M280.398 529.508C435.038 529.508 560.398 457.133 560.398 367.855C560.398 278.576 435.038 206.201 280.398 206.201C125.759 206.201 0.398438 278.576 0.398438 367.855C0.398438 457.133 125.759 529.508 280.398 529.508Z" fill="#F0F4FA"/>
<path d="M123.503 25.4817L113.437 31.2811C113.495 30.8418 113.523 30.399 113.522 29.9559V27.0379C113.522 21.8465 109.874 19.7431 105.4 22.3449C103.459 23.5243 101.799 25.1135 100.537 27.0015C99.8074 20.4848 94.6889 18.0531 88.4761 21.6398C81.7527 25.5182 76.3181 35.0136 76.3181 42.7097V47.0744C76.2763 48.8128 76.6296 50.538 77.3515 52.12L68.9989 56.9832C67.6861 57.8378 66.5934 58.99 65.8097 60.3463C65.0259 61.7025 64.5732 63.2246 64.4883 64.7887C64.4883 67.6702 66.5065 68.8373 68.9989 67.4027L123.503 35.889C124.816 35.0345 125.909 33.8822 126.693 32.526C127.476 31.1697 127.929 29.6477 128.014 28.0835C128.014 25.2021 125.996 24.0349 123.503 25.4817Z" fill="#E0E7F5"/>
<path d="M166.547 54.782L158.96 59.1589C158.998 58.828 159.019 58.4951 159.021 58.162V55.9614C159.021 52.0465 156.273 50.4659 152.881 52.4234C151.424 53.3157 150.18 54.5147 149.234 55.937C148.674 51.0738 144.808 49.1772 140.127 51.8884C137.453 53.6303 135.227 55.9779 133.63 58.741C132.033 61.504 131.11 64.6046 130.936 67.7911V71.086C130.909 72.3965 131.175 73.6965 131.714 74.8914L125.416 78.5389C124.426 79.1857 123.602 80.0565 123.01 81.0809C122.419 82.1053 122.077 83.2545 122.012 84.4355C122.012 86.6118 123.531 87.4872 125.416 86.4051L166.547 62.6604C167.537 62.0136 168.361 61.1428 168.953 60.1184C169.544 59.094 169.886 57.9448 169.951 56.7638C169.951 54.5753 168.431 53.7 166.547 54.782Z" fill="#E0E7F5"/>
<path d="M102.424 423.579L114.984 416.284C114.984 416.284 118.06 389.402 116.005 368.588C113.136 339.336 94.2419 304.15 71.7009 312.405C49.1598 320.661 82.023 350.533 89.3179 375.323C96.6127 400.114 102.424 423.579 102.424 423.579Z" fill="#6688CC"/>
<path opacity="0.2" d="M102.424 423.579L114.984 416.284C114.984 416.284 118.06 389.402 116.005 368.588C113.136 339.336 94.2419 304.15 71.7009 312.405C49.1598 320.661 82.023 350.533 89.3179 375.323C96.6127 400.114 102.424 423.579 102.424 423.579Z" fill="black"/>
<path d="M109.027 420.526C108.928 420.523 108.831 420.5 108.74 420.459C108.65 420.418 108.569 420.36 108.501 420.288C108.433 420.216 108.38 420.131 108.345 420.038C108.311 419.945 108.294 419.847 108.297 419.748C110.498 354.739 78.1455 322.046 77.8172 321.729C77.7322 321.663 77.6621 321.579 77.6118 321.483C77.5614 321.388 77.5318 321.283 77.525 321.175C77.5181 321.067 77.5342 320.959 77.572 320.858C77.6099 320.757 77.6688 320.665 77.7447 320.588C77.8207 320.511 77.912 320.451 78.0128 320.412C78.1135 320.373 78.2214 320.356 78.3293 320.361C78.4372 320.367 78.5427 320.395 78.6388 320.445C78.735 320.494 78.8196 320.563 78.8871 320.647C79.2154 320.963 112.042 354.143 109.817 419.796C109.814 419.896 109.791 419.995 109.75 420.086C109.708 420.177 109.649 420.259 109.575 420.327C109.502 420.395 109.415 420.447 109.321 420.481C109.227 420.516 109.127 420.531 109.027 420.526Z" fill="white"/>
<path d="M95.7268 428.768L104.663 423.613C104.663 423.613 106.183 405.169 97.1371 382.75C89.2587 363.297 69.7328 347.066 59.9091 350.458C50.0854 353.85 50.3164 360.829 55.0459 368.136C59.7754 375.443 89.052 392.865 95.7268 428.768Z" fill="#6688CC"/>
<path d="M100.443 426.812C100.24 426.812 100.045 426.731 99.9013 426.587C99.7576 426.444 99.6769 426.249 99.6769 426.046C99.8593 384.951 61.2696 357.17 60.8806 356.891C60.7432 356.766 60.6565 356.596 60.637 356.411C60.6175 356.227 60.6666 356.042 60.7749 355.891C60.8832 355.741 61.0431 355.636 61.224 355.596C61.405 355.556 61.5944 355.584 61.7559 355.675C62.145 355.954 101.379 384.198 101.197 426.082C101.19 426.278 101.108 426.463 100.967 426.599C100.827 426.736 100.639 426.812 100.443 426.812Z" fill="white"/>
<path d="M336.865 371.648L259.053 416.633L258.871 416.535L229.266 399.429C226.69 397.774 224.644 395.414 223.372 392.629C222.1 389.843 221.656 386.751 222.093 383.721L233.035 326.675L310.847 281.69L299.904 338.736C299.468 341.767 299.912 344.859 301.184 347.644C302.456 350.429 304.502 352.79 307.078 354.444L336.865 371.648Z" fill="#37474F"/>
<path d="M233.073 326.673L222.18 383.221L300.016 338.297L310.082 285.993L305.171 285.008L233.073 326.673Z" fill="#263238"/>
<path d="M259.028 416.622L229.253 399.43C226.679 397.773 224.635 395.412 223.363 392.628C222.092 389.843 221.646 386.752 222.08 383.722L233.022 326.676L220.049 319.175L207.502 384.439C205.837 393.071 210.712 403.734 218.323 408.123L258.992 431.6L259.028 416.622Z" fill="#263238"/>
<path d="M336.867 371.648L259.031 416.621V431.612L336.867 386.639V371.648Z" fill="#455A64"/>
<path d="M413.014 1.98275C416.589 4.04962 419.495 9.27758 419.495 13.7153V252.572C419.364 254.972 418.67 257.307 417.468 259.388C416.266 261.468 414.59 263.236 412.577 264.548L114.862 436.451C111.045 438.651 105.039 438.761 101.488 436.694C97.9383 434.627 94.9961 429.399 94.9961 424.961V186.104C95.1275 183.703 95.8222 181.367 97.024 179.285C98.2258 177.202 99.901 175.432 101.914 174.116L399.604 2.2259C403.422 0.0131373 409.428 -0.0962814 413.014 1.98275Z" fill="#455A64"/>
<path d="M114.033 436.863C110.216 438.65 104.781 438.613 101.438 436.693C97.8511 434.626 94.9453 429.398 94.9453 424.96V186.103C95.0317 183.694 95.7305 181.346 96.9757 179.282L109.997 186.784C108.751 188.843 108.052 191.187 107.967 193.592V432.449C107.93 436.547 110.593 438.383 114.033 436.863Z" fill="#263238"/>
<path d="M419.492 252.57V13.7619C419.492 9.34855 416.403 7.56131 412.574 9.76192L114.859 181.616C112.846 182.928 111.17 184.696 109.968 186.777C108.766 188.857 108.072 191.192 107.941 193.592V432.449C107.941 436.862 111.042 438.649 114.859 436.449L412.574 264.546C414.587 263.234 416.263 261.466 417.465 259.386C418.667 257.305 419.361 254.97 419.492 252.57Z" fill="#37474F"/>
<path d="M404.294 21.9112L119.954 186.167C118.344 187.216 117.004 188.631 116.043 190.296C115.082 191.96 114.526 193.828 114.422 195.747V407.82C114.422 411.346 116.853 412.78 119.954 411.018L404.306 246.762C405.916 245.712 407.256 244.298 408.217 242.633C409.179 240.969 409.734 239.101 409.838 237.182V25.1088C409.838 21.5829 407.358 20.1483 404.294 21.9112Z" fill="#6688CC"/>
<path opacity="0.8" d="M404.294 21.9112L119.954 186.167C118.344 187.216 117.004 188.631 116.043 190.296C115.082 191.96 114.526 193.828 114.422 195.747V407.82C114.422 411.346 116.853 412.78 119.954 411.018L404.306 246.762C405.916 245.712 407.256 244.298 408.217 242.633C409.179 240.969 409.734 239.101 409.838 237.182V25.1088C409.838 21.5829 407.358 20.1483 404.294 21.9112Z" fill="white"/>
<path d="M134.689 384.937C133.182 384.937 132.258 383.721 132.258 381.642V213.691L391.978 63.7578V231.004C391.876 232.786 391.358 234.52 390.465 236.065C389.572 237.611 388.329 238.926 386.835 239.904L136.817 384.268C136.178 384.672 135.445 384.903 134.689 384.937Z" fill="#F5F5F5"/>
<path d="M391.372 64.8269V231.027C391.269 232.707 390.775 234.34 389.931 235.797C389.087 237.253 387.915 238.492 386.509 239.417L136.515 383.745C135.966 384.091 135.338 384.291 134.691 384.328C133.062 384.328 132.892 382.456 132.892 381.641V214.043L391.372 64.8269ZM392.588 62.7235L131.676 213.362V381.641C131.676 384.073 132.892 385.544 134.691 385.544C135.554 385.513 136.393 385.253 137.123 384.79L387.129 240.45C388.718 239.416 390.04 238.021 390.989 236.38C391.937 234.738 392.485 232.896 392.588 231.003V62.6992V62.7235Z" fill="white"/>
<path d="M131.676 213.337V236.961L392.588 86.3223V62.6992L131.676 213.337Z" fill="#6688CC"/>
<path d="M295.383 128.046V133.128C295.383 134.162 296.124 134.587 297.024 134.077L377.267 87.7545V78.9277L297.024 125.25C296.553 125.558 296.16 125.971 295.876 126.456C295.591 126.941 295.422 127.485 295.383 128.046Z" fill="#FAFAFA"/>
<path d="M385.842 73.9667C386.742 73.4439 387.471 73.8695 387.471 74.9151V79.9971C387.438 80.5635 387.274 81.1144 386.991 81.6062C386.709 82.098 386.315 82.517 385.842 82.83L377.246 87.7904V78.9272L385.842 73.9667Z" fill="#455A64"/>
<path d="M385.198 80.9358L384.25 80.644C384.344 80.2455 384.393 79.8377 384.396 79.4282C384.439 79.041 384.381 78.6493 384.228 78.2912C384.074 77.9332 383.83 77.6211 383.52 77.3856C383.309 77.2579 383.068 77.1904 382.821 77.1904C382.575 77.1904 382.333 77.2579 382.122 77.3856C381.511 77.8522 381.02 78.4569 380.688 79.1501C380.356 79.8433 380.194 80.6052 380.213 81.3735C380.17 81.7623 380.228 82.1558 380.381 82.5157C380.534 82.8757 380.778 83.1899 381.089 83.4282C381.274 83.5332 381.483 83.5877 381.696 83.5862C381.976 83.5822 382.249 83.5023 382.487 83.3552C383.214 82.8544 383.757 82.1281 384.031 81.2883L384.991 81.5801H385.101C385.177 81.5786 385.251 81.5531 385.312 81.5073C385.373 81.4615 385.418 81.3976 385.441 81.3248C385.449 81.2422 385.43 81.1594 385.386 81.089C385.342 81.0187 385.276 80.9648 385.198 80.9358ZM382.122 82.7838C382.019 82.8448 381.901 82.8769 381.782 82.8769C381.662 82.8769 381.544 82.8448 381.441 82.7838C381.246 82.6037 381.097 82.3795 381.006 82.1299C380.915 81.8803 380.885 81.6126 380.918 81.3491C380.908 80.7057 381.044 80.0684 381.316 79.485C381.587 78.9017 381.988 78.3876 382.487 77.9814C382.614 77.9003 382.761 77.8541 382.912 77.8476C382.996 77.8279 383.084 77.8279 383.168 77.8476C383.36 78.0295 383.508 78.254 383.599 78.503C383.69 78.7521 383.721 79.0189 383.69 79.2823C383.718 79.9475 383.59 80.6099 383.318 81.2175C383.046 81.825 382.636 82.3612 382.122 82.7838Z" fill="#FAFAFA"/>
<path d="M131.676 201.92C131.776 200.028 132.322 198.186 133.268 196.545C134.215 194.903 135.535 193.508 137.123 192.474L387.129 48.1332C390.144 46.3946 392.588 47.8049 392.588 51.2821V62.6985L131.676 213.337V201.92Z" fill="#37474F"/>
<path d="M361.889 68.5961C361.146 69.0816 360.528 69.7352 360.084 70.504C359.641 71.2729 359.384 72.1353 359.336 73.0217C359.336 74.663 360.479 75.3195 361.889 74.5049C362.637 74.0211 363.26 73.3665 363.706 72.595C364.152 71.8235 364.409 70.9572 364.455 70.0672C364.455 68.4745 363.312 67.7815 361.889 68.5961Z" fill="#6688CC"/>
<path d="M370.843 63.4395C370.096 63.9222 369.474 64.5749 369.028 65.3441C368.582 66.1133 368.325 66.9772 368.277 67.8651C368.277 69.4942 369.42 70.1629 370.843 69.3484C371.587 68.8617 372.207 68.2062 372.65 67.4351C373.094 66.664 373.349 65.7991 373.396 64.9107C373.396 63.2815 372.253 62.6249 370.843 63.4395Z" fill="#6688CC"/>
<path d="M379.799 58.284C379.056 58.7694 378.438 59.423 377.994 60.1919C377.551 60.9607 377.294 61.8232 377.246 62.7095C377.246 64.3387 378.389 65.0074 379.799 64.1928C380.543 63.7054 381.162 63.0497 381.606 62.2788C382.049 61.5078 382.305 60.6433 382.352 59.7551C382.34 58.1259 381.21 57.5302 379.799 58.284Z" fill="#6688CC"/>
<path d="M246.058 218.894L278.203 200.341C280.234 199.125 281.851 200.11 281.851 202.469V239.575C281.784 240.85 281.419 242.092 280.786 243.2C280.152 244.309 279.268 245.253 278.203 245.958L246.058 264.511C244.027 265.727 242.41 264.73 242.41 262.384V225.314C242.469 224.032 242.83 222.782 243.464 221.666C244.097 220.551 244.986 219.601 246.058 218.894Z" fill="#6688CC"/>
<path d="M254.884 265.12L274.337 253.91C275.796 253.059 276.963 253.667 276.963 255.235C276.898 256.119 276.626 256.976 276.17 257.736C275.714 258.496 275.086 259.138 274.337 259.612L254.884 270.822C253.425 271.661 252.246 271.065 252.246 269.497C252.31 268.611 252.583 267.753 253.041 266.992C253.5 266.232 254.131 265.59 254.884 265.12Z" fill="#455A64"/>
<path d="M261.852 217.534C265.268 215.564 268.028 217.157 268.028 221.096C267.913 223.238 267.294 225.323 266.22 227.18C265.147 229.037 263.65 230.614 261.852 231.783C258.447 233.753 255.688 232.16 255.688 228.221C255.803 226.08 256.421 223.997 257.492 222.141C258.563 220.284 260.057 218.706 261.852 217.534Z" fill="#FAFAFA"/>
<path d="M274.023 238.579C274.023 232.123 269.476 229.241 263.884 232.5L260.382 234.53C254.777 237.764 250.242 245.618 250.242 252.086V253.825L274.023 240.111V238.579Z" fill="#FAFAFA"/>
<path d="M305.351 184.635L337.484 166.081C339.527 164.866 341.132 165.85 341.132 168.209V205.315C341.067 206.591 340.703 207.833 340.069 208.942C339.435 210.051 338.55 210.995 337.484 211.698L305.351 230.252C303.32 231.467 301.703 230.47 301.703 228.124V191.017C301.768 189.742 302.132 188.5 302.766 187.391C303.399 186.282 304.285 185.338 305.351 184.635Z" fill="#6688CC"/>
<path opacity="0.2" d="M305.351 184.635L337.484 166.081C339.527 164.866 341.132 165.85 341.132 168.209V205.315C341.067 206.591 340.703 207.833 340.069 208.942C339.435 210.051 338.55 210.995 337.484 211.698L305.351 230.252C303.32 231.467 301.703 230.47 301.703 228.124V191.017C301.768 189.742 302.132 188.5 302.766 187.391C303.399 186.282 304.285 185.338 305.351 184.635Z" fill="black"/>
<path d="M314.177 230.859L333.63 219.649C335.077 218.81 336.256 219.406 336.256 220.974C336.193 221.859 335.922 222.716 335.465 223.476C335.009 224.236 334.381 224.879 333.63 225.351L314.177 236.561C312.718 237.4 311.539 236.804 311.539 235.236C311.603 234.35 311.876 233.492 312.334 232.731C312.793 231.971 313.424 231.329 314.177 230.859Z" fill="#455A64"/>
<path d="M321.145 183.271C324.561 181.302 327.321 182.894 327.321 186.834C327.207 188.976 326.588 191.06 325.514 192.918C324.441 194.775 322.944 196.352 321.145 197.52C317.74 199.49 314.98 197.897 314.98 193.958C315.097 191.818 315.716 189.735 316.787 187.879C317.858 186.022 319.35 184.444 321.145 183.271Z" fill="#FAFAFA"/>
<path d="M333.316 204.316C333.316 197.86 328.769 194.979 323.176 198.237L319.675 200.267C314.07 203.501 309.535 211.356 309.535 217.824V219.562L333.316 205.86V204.316Z" fill="#FAFAFA"/>
<path d="M186.823 253.07L218.969 234.517C220.999 233.301 222.617 234.298 222.617 236.644V273.751C222.552 275.026 222.189 276.269 221.555 277.378C220.921 278.487 220.036 279.431 218.969 280.134L186.823 298.687C184.793 299.903 183.176 298.918 183.176 296.559V259.453C183.243 258.178 183.608 256.936 184.241 255.828C184.874 254.719 185.759 253.775 186.823 253.07Z" fill="#6688CC"/>
<path opacity="0.5" d="M186.823 253.07L218.969 234.517C220.999 233.301 222.617 234.298 222.617 236.644V273.751C222.552 275.026 222.189 276.269 221.555 277.378C220.921 278.487 220.036 279.431 218.969 280.134L186.823 298.687C184.793 299.903 183.176 298.918 183.176 296.559V259.453C183.243 258.178 183.608 256.936 184.241 255.828C184.874 254.719 185.759 253.775 186.823 253.07Z" fill="white"/>
<path d="M195.654 299.296L215.107 288.086C216.566 287.248 217.733 287.843 217.733 289.412C217.669 290.296 217.398 291.153 216.942 291.913C216.486 292.674 215.857 293.316 215.107 293.789L195.654 304.998C194.195 305.837 193.016 305.241 193.016 303.673C193.08 302.787 193.352 301.929 193.811 301.169C194.269 300.408 194.901 299.767 195.654 299.296Z" fill="#455A64"/>
<path d="M202.617 251.709C206.034 249.74 208.794 251.345 208.794 255.272C208.678 257.415 208.059 259.501 206.986 261.361C205.913 263.22 204.416 264.799 202.617 265.971C199.213 267.928 196.453 266.336 196.453 262.396C196.57 260.256 197.188 258.174 198.259 256.317C199.33 254.46 200.823 252.882 202.617 251.709Z" fill="#FAFAFA"/>
<path d="M214.788 272.729C214.788 266.261 210.241 263.392 204.648 266.65L201.183 268.681C195.578 271.915 191.043 279.781 191.043 286.249V287.988L214.824 274.261L214.788 272.729Z" fill="#FAFAFA"/>
<path d="M494.994 176.226L482.082 168.773C469.061 161.478 451.213 162.511 431.432 173.928C412.927 184.591 396.052 202.39 383.335 222.986C368.623 246.694 359.371 274.147 359.371 298.755C359.371 321.709 367.408 337.806 380.405 345.356L393.45 352.834C406.581 361.198 425.061 360.457 445.73 348.591C485.535 325.6 517.803 269.709 517.803 223.752C517.754 199.776 509 183.326 494.994 176.226Z" fill="#6688CC"/>
<path opacity="0.1" d="M392.943 352.53L380.408 345.357C367.411 337.819 359.387 321.697 359.387 298.743C359.387 274.135 368.639 246.706 383.338 222.998L397.539 231.253C382.827 254.962 373.599 282.378 373.599 306.962C373.599 328.907 380.943 344.591 392.943 352.53Z" fill="black"/>
<path opacity="0.4" d="M494.473 175.923C481.634 169.698 464.503 171.279 445.695 182.124C427.166 192.835 410.29 210.646 397.537 231.254L383.336 222.999C396.065 202.33 412.953 184.604 431.445 173.941C451.214 162.513 469.075 161.431 482.108 168.774L494.473 175.923Z" fill="white"/>
<path d="M413.349 348.691C408.108 348.801 402.948 347.39 398.492 344.63L398.285 344.496L397.872 344.265C388.376 337.797 383.148 324.569 383.148 306.952C383.148 285.068 391.331 259.402 405.617 236.436C418.018 216.399 433.908 200.119 450.382 190.6C460.048 185.019 469.507 182.089 477.702 182.089C481.865 182.027 485.99 182.895 489.775 184.63L490.212 184.873L490.431 184.983C501.507 190.588 507.854 204.74 507.854 223.816C507.854 266.624 477.702 318.843 440.632 340.229C430.942 345.749 421.544 348.691 413.349 348.691Z" fill="#FAFAFA"/>
<mask id="mask0_2690_62179" style="mask-type:luminance" maskUnits="userSpaceOnUse" x="383" y="182" width="125" height="167">
<path d="M413.345 348.692C408.104 348.802 402.944 347.391 398.488 344.631L398.281 344.497L397.868 344.266C388.372 337.798 383.145 324.57 383.145 306.953C383.145 285.069 391.327 259.403 405.613 236.437C418.014 216.4 433.904 200.12 450.379 190.601C460.044 185.02 469.503 182.09 477.698 182.09C481.861 182.028 485.986 182.896 489.771 184.631L490.208 184.874L490.427 184.984C501.503 190.589 507.85 204.741 507.85 223.817C507.85 266.625 477.698 318.844 440.628 340.23C430.938 345.75 421.54 348.692 413.345 348.692Z" fill="white"/>
</mask>
<g mask="url(#mask0_2690_62179)">
<path d="M448.841 279.402C430.495 284.265 415.613 273.42 415.613 255.086V243.329C415.613 227.779 428.221 211.803 443.771 207.633L453.899 204.922C469.449 200.752 482.057 209.98 482.057 225.53V237.287C482.008 255.621 467.188 274.478 448.841 279.402Z" fill="#263238"/>
<path d="M494.002 325.749L508.665 371.646L490.331 381.688L479.34 338.515L494.002 325.749Z" fill="#FFA8A7"/>
<path d="M461.91 286.441C471.637 284.01 482.421 285.226 486.117 293.007C489.813 300.788 497.898 328.739 497.898 328.739C492.868 335.518 485.504 340.191 477.229 341.858L461.91 286.441Z" fill="#6688CC"/>
<path opacity="0.3" d="M461.91 286.441C471.637 284.01 482.421 285.226 486.117 293.007C489.813 300.788 497.898 328.739 497.898 328.739C492.868 335.518 485.504 340.191 477.229 341.858L461.91 286.441Z" fill="black"/>
<path d="M441.703 292.252L433.581 294.817C424.743 299.68 421.557 307.486 417.849 317.54C415.143 324.68 414.895 332.518 417.144 339.814L427.49 371.607C427.49 371.607 422.627 386.416 417.022 400.701C442.98 410.428 475.381 392.993 483.198 378.695C483.539 376.008 483.089 364.458 483.709 351.011C484.39 336.665 486.068 320.227 484.147 311.984C480.56 296.701 473.861 283.242 460.512 286.817L441.703 292.252Z" fill="#F5F5F5"/>
<path d="M433.574 294.818C424.723 298.636 411.689 304.18 407.227 329.7C402.68 355.56 401.805 361.663 401.805 361.663C401.805 361.663 409.549 368.508 424.248 364.484C424.248 364.484 437.209 312.63 433.574 294.818Z" fill="#6688CC"/>
<path opacity="0.3" d="M433.574 294.818C424.723 298.636 411.689 304.18 407.227 329.7C402.68 355.56 401.805 361.663 401.805 361.663C401.805 361.663 409.549 368.508 424.248 364.484C424.248 364.484 437.209 312.63 433.574 294.818Z" fill="black"/>
<path d="M419.777 329.237C430.172 326.453 438.61 315.766 438.61 305.371V271.937C428.203 274.733 419.777 285.42 419.777 295.815V329.237Z" fill="#263238"/>
<path d="M424.641 362.88C426.282 355.986 428.008 348.144 429.638 339.779C429.638 339.779 429.565 357.068 427.011 370.174L424.641 362.88Z" fill="white"/>
<path d="M471.143 215.802C474.645 217.249 478.985 226.282 478.56 247.765C478.195 266.002 473.113 271.802 470.56 273.771C468.007 275.741 463.083 276.276 458.305 276.641V287.51C458.305 287.51 464.919 294.61 464.493 299.668C464.067 304.726 454.949 308.385 448.76 305.176C444.674 302.83 441.197 299.557 438.609 295.619V269.382C438.609 269.382 435.374 275.23 430.098 272.592C424.821 269.954 424.615 259.984 427.666 255.571C430.718 251.157 437.393 250.513 438.609 255.157C438.609 255.157 446.232 253.443 456.396 244.215C464.549 236.81 469.78 226.731 471.143 215.802Z" fill="#FFA8A7"/>
<path d="M461.056 247.9C461.084 248.528 460.92 249.15 460.586 249.682C460.251 250.214 459.762 250.632 459.184 250.879C458.102 251.219 457.166 250.465 457.117 249.177C457.086 248.55 457.248 247.928 457.58 247.396C457.913 246.863 458.4 246.445 458.977 246.198C460.12 245.857 460.995 246.611 461.056 247.9Z" fill="#263238"/>
<path d="M461.573 263.109L466.157 263.571C466.044 264.294 465.686 264.956 465.144 265.448C464.602 265.939 463.908 266.229 463.178 266.27C461.913 266.137 461.196 264.726 461.573 263.109Z" fill="#F28F8F"/>
<path d="M477.223 236.582L473.223 234.455C473.952 232.947 475.435 232.193 476.542 232.789C477.648 233.385 477.94 235.038 477.223 236.582Z" fill="#263238"/>
<path d="M476.302 242.174C476.333 242.801 476.17 243.422 475.835 243.953C475.5 244.484 475.009 244.898 474.43 245.14C473.348 245.493 472.424 244.727 472.363 243.438C472.333 242.813 472.495 242.193 472.827 241.663C473.16 241.133 473.647 240.717 474.223 240.472C475.317 240.119 476.241 240.885 476.302 242.174Z" fill="#263238"/>
<path d="M467 243.367L467.316 256.984L473.553 253.081L467 243.367Z" fill="#F28F8F"/>
<path d="M458.31 276.642C453.265 277.225 442.894 276.569 441.289 272.265C441.858 274.337 443.153 276.136 444.936 277.335C448.037 279.572 458.31 280.265 458.31 280.265V276.642Z" fill="#F28F8F"/>
</g>
<path d="M427.982 326.368L418.048 320.629H417.939C413.003 317.833 406.231 318.198 398.729 322.575C391.714 326.623 385.355 333.371 380.492 341.176C374.924 350.173 371.41 360.629 371.41 369.918C371.41 378.611 374.462 384.727 379.386 387.584L389.477 393.347C394.45 396.52 401.477 396.24 409.282 391.73C424.371 383.012 436.614 361.821 436.614 344.398C436.614 335.304 433.295 329.055 427.982 326.368Z" fill="#37474F"/>
<path d="M389.27 393.21L379.386 387.569C374.45 384.712 371.41 378.596 371.41 369.891C371.41 360.566 374.912 350.159 380.492 341.174L391.045 347.253C385.465 356.25 381.963 366.633 381.963 375.958C381.939 384.25 384.748 390.207 389.27 393.21Z" fill="#263238"/>
<path d="M427.775 326.221C422.912 323.862 416.419 324.458 409.282 328.58C402.146 332.701 395.909 339.388 391.045 347.206L380.492 341.127C385.355 333.309 391.726 326.537 398.729 322.525C406.231 318.197 413.003 317.783 417.939 320.568H418.048L427.775 326.221Z" fill="#455A64"/>
<path d="M421.131 349.649L412.025 354.914V340.324C412.025 337.978 410.809 336.798 409.277 337.674C407.745 338.549 406.529 341.151 406.529 343.497V358.087L397.411 363.352C396.657 363.95 396.051 364.715 395.64 365.586C395.229 366.456 395.023 367.41 395.04 368.373C395.04 370.391 396.11 371.412 397.411 370.646L406.529 365.394V379.984C406.529 382.33 407.745 383.51 409.277 382.634C410.809 381.759 412.025 379.145 412.025 376.81V362.221L421.131 356.956C421.887 356.359 422.495 355.595 422.906 354.724C423.318 353.853 423.521 352.898 423.502 351.935C423.502 349.917 422.432 348.896 421.131 349.649Z" fill="#F5F5F5"/>
</svg>
