<svg width="10" height="10" viewBox="0 0 10 10" fill="none" xmlns="http://www.w3.org/2000/svg">
<path d="M6.01001 6.78764C5.88561 6.78764 5.76631 6.83706 5.67834 6.92502C5.59038 7.01298 5.54096 7.13229 5.54096 7.25668V8.39939C5.54081 8.57502 5.47098 8.74342 5.34681 8.86763C5.22264 8.99183 5.05427 9.06171 4.87864 9.06191H1.60041C1.42478 9.06171 1.25641 8.99183 1.13224 8.86763C1.00807 8.74342 0.938241 8.57502 0.938086 8.39939V1.60061C0.938241 1.42498 1.00807 1.25658 1.13224 1.13238C1.25641 1.00817 1.42478 0.938293 1.60041 0.938086H4.87864C5.05427 0.938293 5.22264 1.00817 5.34681 1.13238C5.47098 1.25658 5.54081 1.42498 5.54096 1.60061V2.58834C5.54096 2.71273 5.59038 2.83204 5.67834 2.92C5.76631 3.00796 5.88561 3.05738 6.01001 3.05738C6.1344 3.05738 6.25371 3.00796 6.34167 2.92C6.42963 2.83204 6.47905 2.71273 6.47905 2.58834V1.60061C6.47853 1.17629 6.30976 0.769503 6.00974 0.469448C5.70972 0.169393 5.30295 0.000568889 4.87864 0H1.60041C1.1761 0.000568889 0.769328 0.169393 0.46931 0.469448C0.169292 0.769503 0.000517077 1.17629 0 1.60061V8.39939C0.000517077 8.82371 0.169292 9.2305 0.46931 9.53055C0.769328 9.83061 1.1761 9.99943 1.60041 10H4.87864C5.30295 9.99943 5.70972 9.83061 6.00974 9.53055C6.30976 9.2305 6.47853 8.82371 6.47905 8.39939V7.25668C6.47905 7.13229 6.42963 7.01298 6.34167 6.92502C6.25371 6.83706 6.1344 6.78764 6.01001 6.78764Z" fill="#A3B8E0"/>
<path d="M9.86097 4.65693L8.19176 2.9889C8.10493 2.90209 7.98752 2.85279 7.86475 2.85159C7.74197 2.85038 7.62362 2.89736 7.5351 2.98245C7.34553 3.16479 7.35003 3.47358 7.53608 3.65963L8.40518 4.52931H4.34014C4.21574 4.52931 4.09644 4.57873 4.00847 4.66669C3.92051 4.75466 3.87109 4.87396 3.87109 4.99836C3.87109 5.12276 3.92051 5.24206 4.00847 5.33002C4.09644 5.41798 4.21574 5.4674 4.34014 5.4674H8.40518L7.52768 6.3449C7.43969 6.43286 7.39025 6.55217 7.39023 6.67658C7.39021 6.801 7.43962 6.92032 7.52758 7.0083C7.61554 7.09629 7.73485 7.14573 7.85926 7.14575C7.98367 7.14577 8.103 7.09636 8.19098 7.0084L9.86097 5.3392C9.90583 5.29443 9.94141 5.24126 9.9657 5.18272C9.98998 5.12419 10.0025 5.06144 10.0025 4.99806C10.0025 4.93469 9.98998 4.87194 9.9657 4.81341C9.94141 4.75487 9.90583 4.7017 9.86097 4.65693Z" fill="#A3B8E0"/>
</svg>
