<svg width="201" height="201" viewBox="0 0 201 201" fill="none" xmlns="http://www.w3.org/2000/svg">
<path d="M0.953125 100.02C0.953125 44.7911 45.7247 0.0195312 100.953 0.0195312C156.182 0.0195312 200.953 44.7911 200.953 100.02C200.953 155.248 156.182 200.02 100.953 200.02C45.7247 200.02 0.953125 155.248 0.953125 100.02Z" fill="#E0E7F5"/>
<path fill-rule="evenodd" clip-rule="evenodd" d="M100.922 0.0195312C45.6934 0.0195312 0.921875 44.7911 0.921875 100.02C0.921875 122.319 8.22102 142.914 20.5605 159.545C32.3332 140.025 50.9393 125.555 73.0389 118.755C73.2926 118.676 73.563 118.668 73.8211 118.731C74.0792 118.793 74.3153 118.924 74.504 119.11C83.14 127.557 97.6666 136.951 101.115 139.138C104.346 137.221 117.269 129.284 127.669 119.11C127.858 118.924 128.094 118.793 128.352 118.73C128.61 118.668 128.881 118.676 129.135 118.755C151.138 125.525 169.682 139.901 181.467 159.297C193.695 142.71 200.922 122.209 200.922 100.02C200.922 44.7911 156.15 0.0195312 100.922 0.0195312ZM64.3864 57.4924C64.3864 37.4115 80.8484 21.0742 101.088 21.0742C121.33 21.0742 137.79 37.4115 137.79 57.4924V76.3597C137.79 96.4421 121.33 112.779 101.088 112.779C80.8484 112.779 64.3864 96.4421 64.3864 76.3597V57.4924ZM149.425 172.517C150.234 172.517 151.005 171.902 151.005 171.099V162.347C151.005 161.544 150.234 160.864 149.425 160.864H139.386C138.574 160.864 137.79 160.239 137.79 159.434V149.193C137.79 148.389 137.258 147.756 136.45 147.756H127.618C126.808 147.756 126.045 148.389 126.045 149.193V159.404C126.045 160.209 125.492 160.865 124.682 160.865H114.313C113.503 160.865 112.833 161.514 112.833 162.317V171.099C112.833 171.901 113.503 172.517 114.313 172.517H124.682C125.492 172.517 126.045 173.208 126.048 174.012V184.211C126.048 185.013 126.811 185.626 127.621 185.626H136.549C137.359 185.626 137.792 185.013 137.792 184.211V174.012C137.792 173.207 138.675 172.517 139.485 172.517H149.425Z" fill="#F0F4FA"/>
<path fill-rule="evenodd" clip-rule="evenodd" d="M100.945 0.0195312C45.7168 0.0195312 0.945312 44.7911 0.945312 100.02C0.945312 122.319 8.24446 142.914 20.5839 159.545C32.3567 140.025 50.9627 125.555 73.0624 118.755C73.316 118.676 73.5864 118.668 73.8445 118.731C74.1027 118.793 74.3388 118.924 74.5275 119.11C83.1635 127.557 97.69 136.951 101.139 139.138C104.369 137.221 117.293 129.284 127.693 119.11C127.882 118.924 128.118 118.793 128.376 118.73C128.634 118.668 128.904 118.676 129.158 118.755C151.162 125.525 169.705 139.901 181.49 159.297C193.718 142.71 200.945 122.209 200.945 100.02C200.945 44.7911 156.174 0.0195312 100.945 0.0195312ZM64.4098 57.4924C64.4098 37.4115 80.8719 21.0742 101.112 21.0742C121.353 21.0742 137.814 37.4115 137.813 57.4924V76.3597C137.813 96.4421 121.353 112.779 101.112 112.779C80.8719 112.779 64.4098 96.4421 64.4098 76.3597V57.4924ZM149.449 172.517C150.257 172.517 151.028 171.902 151.028 171.099V162.347C151.028 161.544 150.257 160.864 149.449 160.864H139.409C138.598 160.864 137.813 160.239 137.813 159.434V149.193C137.813 148.389 137.282 147.756 136.473 147.756H127.642C126.832 147.756 126.068 148.389 126.068 149.193V159.404C126.068 160.209 125.515 160.865 124.705 160.865H114.337C113.527 160.865 112.857 161.514 112.857 162.317V171.099C112.857 171.901 113.527 172.517 114.337 172.517H124.705C125.515 172.517 126.068 173.208 126.071 174.012V184.211C126.071 185.013 126.835 185.626 127.645 185.626H136.572C137.382 185.626 137.815 185.013 137.815 184.211V174.012C137.815 173.207 138.699 172.517 139.509 172.517H149.449Z" fill="#F0F4FA"/>
<circle cx="171.5" cy="176.5" r="15.5" fill="#D2DCF0" stroke="white" stroke-width="2"/>
<path fill-rule="evenodd" clip-rule="evenodd" d="M172.95 170.7C172.95 169.899 172.301 169.25 171.5 169.25C170.699 169.25 170.05 169.899 170.05 170.7L170.05 175.05H165.7C164.899 175.05 164.25 175.699 164.25 176.5C164.25 177.301 164.899 177.95 165.7 177.95H170.05L170.05 182.3C170.05 183.101 170.699 183.75 171.5 183.75C172.301 183.75 172.95 183.101 172.95 182.3V177.95H177.3C178.101 177.95 178.75 177.301 178.75 176.5C178.75 175.699 178.101 175.05 177.3 175.05H172.95V170.7Z" fill="white"/>
</svg>
