<svg width="316" height="316" viewBox="0 0 316 316" fill="none" xmlns="http://www.w3.org/2000/svg">
<path d="M152.951 162.037C154.364 163.408 155.95 164.05 157.921 164.05C160.021 164.05 161.644 163.384 163.032 162.041C164.441 160.678 165.053 159.203 165.053 157.413C165.053 155.499 164.414 153.991 163.032 152.654C161.631 151.299 160.026 150.644 157.989 150.644C155.97 150.644 154.364 151.295 152.951 152.658L152.951 162.037ZM152.951 162.037C151.546 160.673 150.924 159.181 150.924 157.347C150.924 155.5 151.55 154.009 152.95 152.658L152.951 162.037ZM139.482 190.044C139.115 190.044 138.857 190.004 138.691 189.964C138.629 189.717 138.565 189.373 138.508 188.927C138.376 187.891 138.332 186.714 138.302 185.681C138.418 183.738 139.065 182.704 139.731 181.991C140.366 181.311 140.941 180.935 141.738 180.413C142.112 180.168 142.536 179.891 143.038 179.535C143.496 179.21 144.802 178.663 146.772 178.101C148.552 177.593 150.389 177.203 151.522 177.003C152.524 176.852 153.534 176.755 154.553 176.71C155.67 176.662 156.815 176.638 157.989 176.638C164.695 176.638 169.681 177.787 173.231 179.766C176.664 181.68 177.698 183.733 177.698 185.94V185.956L177.698 185.971C177.704 186.687 177.652 187.864 177.489 188.936C177.42 189.385 177.342 189.748 177.266 190.015C177.188 190.034 177.089 190.044 176.956 190.044H153.247H139.482ZM177.149 190.351C177.149 190.351 177.152 190.345 177.158 190.333C177.152 190.346 177.149 190.352 177.149 190.351ZM138.786 190.268C138.786 190.269 138.781 190.26 138.773 190.24C138.782 190.258 138.786 190.268 138.786 190.268Z" stroke="black" stroke-width="8"/>
<circle cx="158" cy="170.344" r="35.5" stroke="black" stroke-width="8"/>
<path d="M271.451 122.537C272.864 123.908 274.45 124.55 276.421 124.55C278.521 124.55 280.144 123.884 281.532 122.541C282.941 121.178 283.553 119.703 283.553 117.913C283.553 115.999 282.914 114.491 281.532 113.154C280.131 111.799 278.526 111.144 276.489 111.144C274.47 111.144 272.864 111.795 271.451 113.158L271.451 122.537ZM271.451 122.537C270.046 121.173 269.424 119.681 269.424 117.847C269.424 116 270.05 114.509 271.45 113.158L271.451 122.537ZM257.982 150.544C257.615 150.544 257.357 150.504 257.191 150.464C257.129 150.217 257.065 149.873 257.008 149.427C256.876 148.391 256.832 147.214 256.802 146.181C256.918 144.238 257.565 143.204 258.231 142.491C258.866 141.811 259.441 141.435 260.238 140.913C260.612 140.668 261.036 140.391 261.538 140.035C261.996 139.71 263.302 139.163 265.272 138.601C267.052 138.093 268.889 137.703 270.022 137.503C271.024 137.352 272.034 137.255 273.053 137.21C274.17 137.162 275.315 137.138 276.489 137.138C283.195 137.138 288.181 138.287 291.731 140.266C295.164 142.18 296.198 144.233 296.198 146.44V146.456L296.198 146.471C296.204 147.187 296.152 148.364 295.989 149.436C295.92 149.885 295.842 150.248 295.766 150.515C295.688 150.534 295.589 150.544 295.456 150.544H271.747H257.982ZM295.649 150.851C295.649 150.851 295.652 150.845 295.658 150.833C295.652 150.846 295.649 150.852 295.649 150.851ZM257.286 150.768C257.286 150.769 257.281 150.76 257.273 150.74C257.282 150.758 257.286 150.768 257.286 150.768Z" stroke="black" stroke-width="8"/>
<circle cx="276.5" cy="130.844" r="35.5" stroke="black" stroke-width="8"/>
<path d="M34.4505 122.537C35.8639 123.908 37.4501 124.55 39.4206 124.55C41.5207 124.55 43.1436 123.884 44.5317 122.541C45.9408 121.178 46.5531 119.703 46.5531 117.913C46.5531 115.999 45.9145 114.491 44.5317 113.154C43.1314 111.799 41.5261 111.144 39.4886 111.144C37.4705 111.144 35.8643 111.795 34.4508 113.158L34.4505 122.537ZM34.4505 122.537C33.0462 121.173 32.4241 119.681 32.4241 117.847C32.4241 116 33.0496 114.509 34.45 113.158L34.4505 122.537ZM20.9817 150.544C20.6148 150.544 20.3574 150.504 20.191 150.464C20.1292 150.217 20.065 149.873 20.0082 149.427C19.8761 148.391 19.8318 147.214 19.8018 146.181C19.9176 144.238 20.5654 143.204 21.2312 142.491C21.866 141.811 22.4408 141.435 23.238 140.913C23.6124 140.668 24.0359 140.391 24.5377 140.035C24.996 139.71 26.3023 139.163 28.2724 138.601C30.0519 138.093 31.8885 137.703 33.0223 137.503C34.0236 137.352 35.0337 137.255 36.0534 137.21C37.1698 137.162 38.3148 137.138 39.4886 137.138C46.1949 137.138 51.1806 138.287 54.7306 140.266C58.1639 142.18 59.1983 144.233 59.1983 146.44V146.456L59.1984 146.471C59.204 147.187 59.1523 148.364 58.9889 149.436C58.9205 149.885 58.8424 150.248 58.7661 150.515C58.6882 150.534 58.5889 150.544 58.4564 150.544H34.7467H20.9817ZM58.6491 150.851C58.649 150.851 58.6518 150.845 58.6579 150.833C58.6523 150.846 58.6492 150.852 58.6491 150.851ZM20.2858 150.768C20.2856 150.769 20.2812 150.76 20.2735 150.74C20.2822 150.758 20.2861 150.768 20.2858 150.768Z" stroke="black" stroke-width="8"/>
<circle cx="39.5" cy="130.844" r="35.5" stroke="black" stroke-width="8"/>
<path d="M73.9505 263.255C75.3639 264.626 76.9501 265.269 78.9206 265.269C81.0207 265.269 82.6436 264.603 84.0317 263.26C85.4408 261.897 86.0531 260.422 86.0531 258.632C86.0531 256.718 85.4145 255.21 84.0317 253.872C82.6314 252.518 81.0261 251.863 78.9886 251.863C76.9705 251.863 75.3643 252.514 73.9508 253.876L73.9505 263.255ZM73.9505 263.255C72.5462 261.892 71.9241 260.399 71.9241 258.566C71.9241 256.718 72.5496 255.228 73.95 253.877L73.9505 263.255ZM60.4817 291.263C60.1148 291.263 59.8574 291.223 59.691 291.182C59.6292 290.936 59.565 290.592 59.5082 290.146C59.3761 289.109 59.3318 287.933 59.3018 286.9C59.4176 284.957 60.0654 283.923 60.7312 283.21C61.366 282.53 61.9408 282.154 62.738 281.632C63.1124 281.387 63.5359 281.11 64.0377 280.754C64.496 280.429 65.8023 279.882 67.7724 279.32C69.5519 278.812 71.3885 278.422 72.5223 278.221C73.5236 278.071 74.5337 277.973 75.5534 277.929C76.6698 277.881 77.8148 277.856 78.9886 277.856C85.6949 277.856 90.6806 279.006 94.2306 280.985C97.6639 282.898 98.6983 284.951 98.6983 287.159V287.175L98.6984 287.19C98.704 287.906 98.6523 289.082 98.4889 290.154C98.4205 290.604 98.3424 290.967 98.2661 291.234C98.1882 291.252 98.0889 291.263 97.9564 291.263H74.2467H60.4817ZM98.1491 291.57C98.149 291.57 98.1518 291.563 98.1579 291.552C98.1523 291.565 98.1492 291.57 98.1491 291.57ZM59.7858 291.487C59.7856 291.488 59.7812 291.479 59.7735 291.458C59.7822 291.477 59.7861 291.487 59.7858 291.487Z" stroke="black" stroke-width="8"/>
<circle cx="79" cy="271.562" r="35.5" stroke="black" stroke-width="8"/>
<path d="M231.951 263.255C233.364 264.626 234.95 265.269 236.921 265.269C239.021 265.269 240.644 264.603 242.032 263.26C243.441 261.897 244.053 260.422 244.053 258.632C244.053 256.718 243.414 255.21 242.032 253.872C240.631 252.518 239.026 251.863 236.989 251.863C234.97 251.863 233.364 252.514 231.951 253.876L231.951 263.255ZM231.951 263.255C230.546 261.892 229.924 260.399 229.924 258.566C229.924 256.718 230.55 255.228 231.95 253.877L231.951 263.255ZM218.482 291.263C218.115 291.263 217.857 291.223 217.691 291.182C217.629 290.936 217.565 290.592 217.508 290.146C217.376 289.109 217.332 287.933 217.302 286.9C217.418 284.957 218.065 283.923 218.731 283.21C219.366 282.53 219.941 282.154 220.738 281.632C221.112 281.387 221.536 281.11 222.038 280.754C222.496 280.429 223.802 279.882 225.772 279.32C227.552 278.812 229.389 278.422 230.522 278.221C231.524 278.071 232.534 277.973 233.553 277.929C234.67 277.881 235.815 277.856 236.989 277.856C243.695 277.856 248.681 279.006 252.231 280.985C255.664 282.898 256.698 284.951 256.698 287.159V287.175L256.698 287.19C256.704 287.906 256.652 289.082 256.489 290.154C256.42 290.604 256.342 290.967 256.266 291.234C256.188 291.252 256.089 291.263 255.956 291.263H232.247H218.482ZM256.149 291.57C256.149 291.57 256.152 291.563 256.158 291.552C256.152 291.565 256.149 291.57 256.149 291.57ZM217.786 291.487C217.786 291.488 217.781 291.479 217.773 291.458C217.782 291.477 217.786 291.487 217.786 291.487Z" stroke="black" stroke-width="8"/>
<circle cx="237" cy="271.562" r="35.5" stroke="black" stroke-width="8"/>
<path d="M152.951 36.1305C154.364 37.5013 155.95 38.1442 157.921 38.1442C160.021 38.1442 161.644 37.4776 163.032 36.1347C164.441 34.7716 165.053 33.2967 165.053 31.5068C165.053 29.593 164.414 28.0849 163.032 26.7473C161.631 25.3927 160.026 24.7378 157.989 24.7378C155.97 24.7378 154.364 25.3891 152.951 26.7513L152.951 36.1305ZM152.951 36.1305C151.546 34.7672 150.924 33.2745 150.924 31.441C150.924 29.5933 151.55 28.1032 152.95 26.7522L152.951 36.1305ZM139.482 64.1378C139.115 64.1378 138.857 64.0978 138.691 64.0574C138.629 63.8111 138.565 63.4668 138.508 63.0212C138.376 61.9845 138.332 60.8081 138.302 59.7751C138.418 57.8322 139.065 56.7977 139.731 56.0847C140.366 55.405 140.941 55.0288 141.738 54.5069C142.112 54.2618 142.536 53.9846 143.038 53.6287C143.496 53.3037 144.802 52.7572 146.772 52.1948C148.552 51.6868 150.389 51.2971 151.522 51.0965C152.524 50.9457 153.534 50.8483 154.553 50.804C155.67 50.7556 156.815 50.7313 157.989 50.7313C164.695 50.7313 169.681 51.8809 173.231 53.8597C176.664 55.7734 177.698 57.8264 177.698 60.0339V60.0495L177.698 60.0651C177.704 60.7811 177.652 61.9575 177.489 63.0294C177.42 63.4788 177.342 63.8416 177.266 64.109C177.188 64.1274 177.089 64.1378 176.956 64.1378H153.247H139.482ZM177.149 64.445C177.149 64.4448 177.152 64.4384 177.158 64.4269C177.152 64.4395 177.149 64.4453 177.149 64.445ZM138.786 64.3622C138.786 64.3627 138.781 64.3536 138.773 64.3333C138.782 64.3516 138.786 64.3617 138.786 64.3622Z" stroke="black" stroke-width="8"/>
<circle cx="158" cy="44.4375" r="35.5" stroke="black" stroke-width="8"/>
<line x1="157.062" y1="81.4688" x2="157.062" y2="133.312" stroke="black" stroke-width="8"/>
<line x1="102.496" y1="242.042" x2="132.969" y2="200.099" stroke="black" stroke-width="8"/>
<line x1="72.863" y1="142.482" x2="122.169" y2="158.503" stroke="black" stroke-width="8"/>
<line x1="214.438" y1="239.338" x2="183.965" y2="197.395" stroke="black" stroke-width="8"/>
<line x1="240.672" y1="142.685" x2="191.365" y2="158.705" stroke="black" stroke-width="8"/>
</svg>
