<svg width="316" height="316" viewBox="0 0 316 316" fill="none" xmlns="http://www.w3.org/2000/svg">
<path d="M167.876 51.0208V70.1125C167.876 72.9104 166.924 75.2561 165.019 77.1501C163.117 79.0415 160.758 79.9875 157.942 79.9875C155.129 79.9875 152.789 79.0415 150.924 77.1501C149.059 75.2561 148.126 72.9104 148.126 70.1125V51.0208C148.126 48.2229 149.079 45.8779 150.983 43.9866C152.886 42.0925 155.245 41.1458 158.061 41.1458C160.874 41.1458 163.213 42.0925 165.078 43.9866C166.943 45.8779 167.876 48.2229 167.876 51.0208ZM279.793 182.688H260.701C257.903 182.688 255.558 181.735 253.664 179.83C251.772 177.928 250.826 175.569 250.826 172.753C250.826 169.94 251.772 167.6 253.664 165.735C255.558 163.87 257.903 162.938 260.701 162.938H279.793C282.591 162.938 284.936 163.89 286.827 165.795C288.721 167.697 289.668 170.056 289.668 172.872C289.668 175.685 288.721 178.025 286.827 179.89C284.936 181.755 282.591 182.688 279.793 182.688ZM55.3013 182.688H36.2096C33.4117 182.688 31.0661 181.735 29.1721 179.83C27.2807 177.928 26.3346 175.569 26.3346 172.753C26.3346 169.94 27.2807 167.6 29.1721 165.735C31.0661 163.87 33.4117 162.938 36.2096 162.938H55.3013C58.0992 162.938 60.4442 163.89 62.3356 165.795C64.2296 167.697 65.1763 170.056 65.1763 172.872C65.1763 175.685 64.2296 178.025 62.3356 179.89C60.4442 181.755 58.0992 182.688 55.3013 182.688ZM79.6596 80.6458L92.8263 93.4833C94.8013 95.4583 95.7341 97.7625 95.6242 100.396C95.5143 103.029 94.4721 105.333 92.4971 107.308C90.5221 109.283 88.1633 110.271 85.42 110.271C82.6768 110.271 80.3179 109.283 78.343 107.308L65.5055 94.4708C63.5305 92.4958 62.543 90.1917 62.543 87.5583C62.543 84.925 63.5305 82.6208 65.5055 80.6458C67.4805 78.6708 69.8393 77.6833 72.5826 77.6833C75.3258 77.6833 77.6846 78.6708 79.6596 80.6458ZM250.168 94.8L237.33 107.637C235.355 109.613 233.051 110.545 230.418 110.435C227.785 110.325 225.48 109.283 223.505 107.308C221.53 105.333 220.543 102.975 220.543 100.231C220.543 97.488 221.53 95.1292 223.505 93.1542L236.343 80.3167C238.318 78.3417 240.622 77.4088 243.255 77.5188C245.889 77.6287 248.193 78.6708 250.168 80.6458C252.143 82.6208 253.13 84.9796 253.13 87.7229C253.13 90.4662 252.143 92.825 250.168 94.8ZM158.001 112.904C174.46 112.904 188.559 118.775 200.299 130.515C212.039 142.255 217.91 156.354 217.91 172.812C217.91 183.565 215.605 193.221 210.997 201.779C206.389 210.338 199.915 217.36 191.576 222.846V271.562C191.576 276.994 189.642 281.644 185.773 285.513C181.907 289.379 177.258 291.312 171.826 291.312H144.176C138.745 291.312 134.095 289.379 130.226 285.513C126.36 281.644 124.426 276.994 124.426 271.562V222.846C116.087 217.36 109.614 210.338 105.005 201.779C100.397 193.221 98.093 183.565 98.093 172.812C98.093 156.354 103.963 142.255 115.703 130.515C127.443 118.775 141.543 112.904 158.001 112.904ZM171.826 229.758C169.522 230.417 167.218 230.91 164.914 231.24C162.61 231.569 160.305 231.733 158.001 231.733C155.697 231.733 153.393 231.569 151.089 231.24C148.785 230.91 146.48 230.417 144.176 229.758V271.562H171.826V229.758ZM157.962 132.654C146.796 132.654 137.318 136.563 129.528 144.379C121.738 152.195 117.843 161.687 117.843 172.852C117.843 184.017 121.751 193.495 129.568 201.285C137.384 209.075 146.875 212.971 158.041 212.971C169.206 212.971 178.684 209.062 186.474 201.246C194.264 193.43 198.16 183.938 198.16 172.773C198.16 161.608 194.251 152.13 186.435 144.34C178.618 136.55 169.127 132.654 157.962 132.654Z" fill="black"/>
</svg>
