<svg width="316" height="316" viewBox="0 0 316 316" fill="none" xmlns="http://www.w3.org/2000/svg">
<path d="M49.3157 276.5C46.5025 276.5 44.1632 275.553 42.2979 273.659C40.4327 271.768 39.5 269.423 39.5 266.625V251.483C39.5 248.685 40.4524 246.339 42.3572 244.445C44.2597 242.554 46.6188 241.608 49.4343 241.608C52.2475 241.608 54.5868 242.554 56.4521 244.445C58.3173 246.339 59.25 248.685 59.25 251.483V266.625C59.25 269.423 58.2976 271.768 56.3928 273.659C54.4902 275.553 52.1312 276.5 49.3157 276.5ZM103.628 276.5C100.815 276.5 98.4755 275.553 96.6104 273.659C94.7454 271.768 93.8125 269.423 93.8125 266.625V198.816C93.8125 196.018 94.7651 193.673 96.6697 191.779C98.5723 189.887 100.931 188.941 103.747 188.941C106.56 188.941 108.9 189.887 110.765 191.779C112.63 193.673 113.562 196.018 113.562 198.816V266.625C113.562 269.423 112.61 271.768 110.705 273.659C108.803 275.553 106.444 276.5 103.628 276.5ZM157.941 276.5C155.128 276.5 152.788 275.553 150.923 273.659C149.058 271.768 148.125 269.423 148.125 266.625V218.566C148.125 215.768 149.078 213.423 150.982 211.529C152.885 209.637 155.244 208.691 158.059 208.691C160.872 208.691 163.212 209.637 165.077 211.529C166.942 213.423 167.875 215.768 167.875 218.566V266.625C167.875 269.423 166.922 271.768 165.018 273.659C163.115 275.553 160.756 276.5 157.941 276.5ZM212.253 276.5C209.44 276.5 207.1 275.553 205.235 273.659C203.37 271.768 202.438 269.423 202.438 266.625V185.65C202.438 182.852 203.39 180.506 205.295 178.612C207.197 176.721 209.556 175.775 212.372 175.775C215.185 175.775 217.525 176.721 219.39 178.612C221.255 180.506 222.188 182.852 222.188 185.65V266.625C222.188 269.423 221.235 271.768 219.33 273.659C217.428 275.553 215.069 276.5 212.253 276.5ZM266.566 276.5C263.753 276.5 261.413 275.553 259.548 273.659C257.683 271.768 256.75 269.423 256.75 266.625V146.15C256.75 143.352 257.703 141.006 259.607 139.112C261.51 137.221 263.869 136.275 266.684 136.275C269.497 136.275 271.837 137.221 273.702 139.112C275.567 141.006 276.5 143.352 276.5 146.15V266.625C276.5 269.423 275.547 271.768 273.643 273.659C271.74 275.553 269.381 276.5 266.566 276.5ZM184.169 151.745C181.645 151.745 179.181 151.23 176.776 150.198C174.368 149.169 172.169 147.71 170.179 145.82L131.667 107.308L56.6167 182.029C54.6263 184.004 52.264 184.937 49.5297 184.827C46.7932 184.717 44.4518 183.675 42.5053 181.7C40.7212 179.725 39.7743 177.42 39.6646 174.787C39.5548 172.154 40.4875 169.85 42.4625 167.875L117.842 93.1538C119.832 91.2071 122.031 89.7884 124.438 88.8977C126.843 88.0043 129.253 87.558 131.667 87.558C134.081 87.558 136.532 88.0043 139.02 88.8977C141.509 89.7884 143.666 91.2071 145.492 93.1538L184.333 131.995L259.712 56.6163C261.688 54.6413 263.992 53.6538 266.625 53.6538C269.258 53.6538 271.548 54.6413 273.495 56.6163C275.279 58.5913 276.225 60.8955 276.335 63.5288C276.445 66.1621 275.513 68.4663 273.538 70.4413L198.158 145.82C196.403 147.795 194.263 149.277 191.74 150.264C189.216 151.252 186.692 151.745 184.169 151.745Z" fill="black"/>
</svg>
