<svg width="316" height="316" viewBox="0 0 316 316" fill="none" xmlns="http://www.w3.org/2000/svg">
<path d="M89.9547 196.561L93.3201 190.423L89.9547 196.561C92.3884 197.895 94.5144 199.75 96.3446 202.225C103.351 212.342 112.33 220.223 123.215 225.787C134.086 231.343 145.713 234.125 158.001 234.125C170.29 234.125 181.916 231.343 192.787 225.787C203.668 220.225 212.741 212.355 219.957 202.265C221.828 199.724 223.944 197.847 226.298 196.513C228.553 195.235 230.877 194.625 233.38 194.625H279.793C284.301 194.625 287.952 196.137 291.137 199.322C294.322 202.508 295.835 206.158 295.835 210.667V253.458C295.835 254.621 295.526 255.147 295.087 255.586C294.648 256.024 294.123 256.333 292.96 256.333H227.126C225.963 256.333 225.438 256.024 224.999 255.585C224.56 255.147 224.251 254.621 224.251 253.458V224.162V208.25L212.521 219.002C205.278 225.642 196.977 230.78 187.568 234.422C178.188 238.053 168.349 239.875 158.001 239.875C147.654 239.875 137.878 238.053 128.623 234.431C119.306 230.785 110.912 225.629 103.411 218.938L91.7513 208.539V224.162V253.458C91.7513 254.621 91.4425 255.147 91.0036 255.586C90.5648 256.024 90.0392 256.333 88.8763 256.333H23.043C21.8801 256.333 21.3547 256.025 20.9154 255.585C20.4768 255.147 20.168 254.621 20.168 253.458V210.667C20.168 206.158 21.6803 202.508 24.8655 199.323C28.0511 196.137 31.7018 194.625 36.2096 194.625H82.6221C85.1282 194.625 87.5414 195.238 89.9547 196.561ZM124.264 182.992L124.256 182.981L124.248 182.969C120.225 177.186 115.317 172.447 109.527 168.844C108.013 167.902 106.466 167.04 104.887 166.26C109.367 163.949 114.886 161.894 121.567 160.169C134.704 156.78 146.839 155.125 158.001 155.125C169.165 155.125 181.359 156.78 194.613 160.173C201.359 161.9 206.92 163.958 211.425 166.269C209.853 167.048 208.313 167.906 206.805 168.844C201.014 172.447 196.107 177.186 192.084 182.969L192.076 182.981L192.068 182.992C188.364 188.362 183.51 192.59 177.38 195.702C171.218 198.831 164.786 200.375 158.001 200.375C151.468 200.375 145.143 198.846 138.951 195.702C132.822 192.59 127.967 188.362 124.264 182.992ZM52.668 157.583C44.6936 157.583 37.9579 154.786 32.1072 148.935C26.2567 143.085 23.4596 136.349 23.4596 128.375C23.4596 120.138 26.286 113.382 32.0689 107.688C37.9111 101.935 44.6583 99.1665 52.668 99.1665C60.9402 99.1665 67.7076 101.964 73.3932 107.65C79.0788 113.335 81.8763 120.103 81.8763 128.375C81.8763 136.385 79.1076 143.132 73.3552 148.974C67.6609 154.757 60.905 157.583 52.668 157.583ZM263.335 157.583C255.36 157.583 248.624 154.786 242.774 148.936C236.924 143.085 234.126 136.349 234.126 128.375C234.126 120.138 236.953 113.382 242.736 107.688C248.578 101.935 255.325 99.1665 263.335 99.1665C271.607 99.1665 278.374 101.964 284.06 107.65C289.745 113.335 292.543 120.103 292.543 128.375C292.543 136.385 289.774 143.132 284.022 148.974C278.328 154.757 271.571 157.583 263.335 157.583ZM158.001 118.083C150.027 118.083 143.291 115.286 137.441 109.436C131.59 103.585 128.793 96.8493 128.793 88.8748C128.793 80.638 131.619 73.8819 137.402 68.1877C143.244 62.4354 149.992 59.6665 158.001 59.6665C166.273 59.6665 173.041 62.4641 178.727 68.1497C184.412 73.8352 187.21 80.6028 187.21 88.8748C187.21 96.8846 184.441 103.632 178.688 109.474C172.994 115.257 166.238 118.083 158.001 118.083Z" stroke="black" stroke-width="14"/>
</svg>
