<svg width="60" height="39" viewBox="0 0 60 39" fill="none" xmlns="http://www.w3.org/2000/svg">
<path d="M26.6699 14.3375C25.6767 14.3389 24.6958 14.1172 23.7998 13.6889C23.69 13.6328 23.5636 13.6181 23.4438 13.6475L21.7744 14.111C21.6169 14.1547 21.4508 14.1572 21.2921 14.1181C21.1334 14.079 20.9874 13.9997 20.8682 13.8878C20.7491 13.7759 20.6607 13.6352 20.6117 13.4792C20.5627 13.3233 20.5547 13.1574 20.5885 12.9974L20.9416 11.319C20.9637 11.1965 20.9402 11.0702 20.8754 10.964C20.17 9.72737 19.8811 8.2966 20.0517 6.88319C20.2337 5.41176 20.8987 4.0423 21.9426 2.9894C22.9864 1.9365 24.3501 1.25967 25.8199 1.06496C27.57 0.818843 29.3462 1.27802 30.7577 2.34149C32.1692 3.40495 33.1005 4.98558 33.3466 6.73567C33.5927 8.48575 33.1335 10.2619 32.0701 11.6734C31.0066 13.085 29.426 14.0162 27.6759 14.2623C27.3429 14.3121 27.0066 14.3373 26.6699 14.3375ZM23.5609 12.68C23.7859 12.6811 24.0079 12.7325 24.2105 12.8304C25.012 13.2125 25.8915 13.4025 26.7793 13.3853C27.6671 13.368 28.5386 13.1439 29.3246 12.7309C30.1106 12.3179 30.7895 11.7272 31.3073 11.0059C31.8251 10.2846 32.1676 9.45248 32.3075 8.57564C32.4475 7.6988 32.381 6.80141 32.1134 5.95475C31.8459 5.10809 31.3845 4.3355 30.7661 3.69833C30.1477 3.06116 29.3892 2.57698 28.5509 2.28424C27.7126 1.99151 26.8176 1.89828 25.937 2.01198C25.0074 2.1309 24.1214 2.47696 23.3572 3.01957C22.5931 3.56218 21.9743 4.28465 21.5557 5.12314C21.137 5.96163 20.9313 6.89033 20.9568 7.82718C20.9822 8.76403 21.238 9.68019 21.7016 10.4947C21.8812 10.8032 21.9418 11.1668 21.8719 11.5169L21.5198 13.1954L23.1887 12.7319C23.3098 12.6975 23.435 12.6804 23.5609 12.68Z" fill="#B4B4B4" stroke="#B4B4B4" stroke-width="0.5"/>
<path d="M33.8062 21.0012C33.4922 21.0012 33.1787 20.9776 32.8682 20.9308C31.5407 20.7311 30.3147 20.1035 29.3766 19.1434C28.4384 18.1832 27.8394 16.943 27.6705 15.6113C27.5856 14.9346 27.6102 14.2486 27.7433 13.5797C27.7542 13.5172 27.7774 13.4575 27.8117 13.404C27.846 13.3506 27.8907 13.3046 27.943 13.2687C27.9953 13.2328 28.0543 13.2077 28.1165 13.195C28.1787 13.1822 28.2428 13.182 28.305 13.1944C28.3673 13.2068 28.4264 13.2315 28.479 13.2671C28.5315 13.3026 28.5765 13.3484 28.6111 13.4016C28.6457 13.4548 28.6693 13.5144 28.6806 13.5768C28.6918 13.6393 28.6904 13.7034 28.6765 13.7653C28.5634 14.3343 28.5427 14.9177 28.6152 15.4933C28.7218 16.3105 29.02 17.091 29.4855 17.7712C29.9509 18.4514 30.5705 19.012 31.2936 19.4073C32.0168 19.8027 32.8231 20.0216 33.6469 20.0463C34.4708 20.0709 35.2888 19.9007 36.0343 19.5493C36.3505 19.3969 36.7109 19.3631 37.0498 19.4541L38.5089 19.8591L38.2005 18.3948C38.1311 18.0453 38.1912 17.6825 38.3695 17.374C38.9123 16.4136 39.1354 15.3054 39.0062 14.2098C38.8571 12.9945 38.29 11.8688 37.4021 11.0257C36.5142 10.1826 35.3607 9.67449 34.1393 9.58843C33.676 9.55829 33.2107 9.5903 32.7559 9.68361C32.694 9.69779 32.63 9.69947 32.5674 9.68853C32.5049 9.67759 32.4452 9.65426 32.3919 9.61992C32.3385 9.58557 32.2926 9.54089 32.2567 9.48852C32.2209 9.43615 32.1959 9.37714 32.1832 9.31497C32.1705 9.25279 32.1704 9.18871 32.1828 9.12648C32.1953 9.06425 32.22 9.00514 32.2556 8.95262C32.2913 8.9001 32.337 8.85524 32.3902 8.82067C32.4435 8.78611 32.5031 8.76253 32.5655 8.75134C33.1029 8.64077 33.6527 8.60252 34.2002 8.6376C35.6437 8.73978 37.0068 9.34066 38.056 10.3373C39.1052 11.334 39.7752 12.6645 39.9513 14.1008C40.1044 15.3957 39.8407 16.7056 39.1985 17.8404C39.1342 17.9478 39.1105 18.0748 39.1319 18.1982L39.4407 19.6625C39.4744 19.8225 39.4663 19.9884 39.4172 20.1444C39.3682 20.3003 39.2798 20.4409 39.1606 20.5528C39.0414 20.6646 38.8954 20.7439 38.7366 20.7829C38.5779 20.822 38.4118 20.8195 38.2543 20.7757L36.7948 20.3702C36.6754 20.3417 36.5498 20.3563 36.4402 20.4116C35.6166 20.8004 34.717 21.0018 33.8062 21.0012Z" fill="#B4B4B4" stroke="#B4B4B4" stroke-width="0.5"/>
<path d="M36.1857 17.6699C36.0969 17.6704 36.0097 17.646 35.934 17.5995C35.8583 17.553 35.7971 17.4862 35.7574 17.4068L33.8063 13.4992L31.8551 17.4068C31.7987 17.5197 31.6997 17.6056 31.58 17.6456C31.4602 17.6856 31.3295 17.6764 31.2165 17.62C31.1035 17.5635 31.0176 17.4646 30.9776 17.3448C30.9376 17.225 30.9469 17.0943 31.0033 16.9813L33.3827 12.2224C33.4267 12.1487 33.4891 12.0876 33.5637 12.0452C33.6384 12.0028 33.7228 11.9805 33.8087 11.9805C33.8945 11.9805 33.9789 12.0028 34.0536 12.0452C34.1282 12.0876 34.1906 12.1487 34.2346 12.2224L36.614 16.9813C36.6504 17.0541 36.6675 17.1349 36.6637 17.2162C36.6599 17.2974 36.6354 17.3763 36.5924 17.4454C36.5495 17.5144 36.4896 17.5713 36.4184 17.6107C36.3472 17.65 36.2671 17.6704 36.1857 17.6699Z" fill="#B4B4B4" stroke="#B4B4B4" stroke-width="0.5"/>
<path d="M32.1306 16.314C32.0044 16.3152 31.8829 16.2662 31.7928 16.1778C31.7027 16.0894 31.6514 15.9689 31.6502 15.8426C31.649 15.7164 31.698 15.5949 31.7864 15.5048C31.8748 15.4147 31.9953 15.3634 32.1215 15.3622L35.4732 15.3004H35.4818C35.608 15.2992 35.7295 15.3482 35.8196 15.4366C35.9097 15.525 35.961 15.6455 35.9622 15.7717C35.9634 15.898 35.9144 16.0195 35.826 16.1096C35.7376 16.1997 35.6171 16.2509 35.4908 16.2521L32.1392 16.314H32.1306ZM26.6678 10.531C26.1031 10.531 25.5511 10.3635 25.0815 10.0498C24.6119 9.73603 24.246 9.29009 24.0299 8.76835C23.8137 8.2466 23.7572 7.67249 23.8674 7.11861C23.9775 6.56472 24.2495 6.05595 24.6488 5.65662C25.0481 5.2573 25.5569 4.98535 26.1108 4.87518C26.6647 4.765 27.2388 4.82155 27.7605 5.03766C28.2823 5.25378 28.7282 5.61975 29.042 6.08931C29.3557 6.55887 29.5232 7.11092 29.5232 7.67565C29.5224 8.43271 29.2214 9.15853 28.686 9.69385C28.1507 10.2292 27.4249 10.5302 26.6678 10.531ZM26.6678 5.77209C26.2914 5.77209 25.9233 5.88374 25.6103 6.0929C25.2972 6.30207 25.0533 6.59936 24.9092 6.94719C24.7651 7.29502 24.7274 7.67777 24.8009 8.04702C24.8743 8.41628 25.0556 8.75546 25.3218 9.02167C25.588 9.28789 25.9272 9.46919 26.2965 9.54264C26.6657 9.61609 27.0485 9.57839 27.3963 9.43432C27.7441 9.29024 28.0414 9.04625 28.2506 8.73322C28.4598 8.42018 28.5714 8.05214 28.5714 7.67565C28.5714 7.1708 28.3708 6.68662 28.0139 6.32963C27.6569 5.97265 27.1727 5.77209 26.6678 5.77209Z" fill="#B4B4B4" stroke="#B4B4B4" stroke-width="0.5"/>
<path d="M29.0455 11.0057C28.9193 11.0057 28.7982 10.9556 28.709 10.8663L26.8055 8.96275C26.7188 8.87299 26.6708 8.75278 26.6719 8.62801C26.673 8.50323 26.723 8.38387 26.8113 8.29564C26.8995 8.2074 27.0189 8.15735 27.1436 8.15627C27.2684 8.15518 27.3886 8.20315 27.4784 8.28984L29.3819 10.1934C29.4485 10.26 29.4938 10.3447 29.5121 10.437C29.5305 10.5293 29.5211 10.625 29.485 10.712C29.449 10.7989 29.3881 10.8732 29.3098 10.9255C29.2316 10.9778 29.1396 11.0057 29.0455 11.0057Z" fill="#B4B4B4" stroke="#B4B4B4" stroke-width="0.5"/>
<path d="M12.1163 37.1L9.46633 33.63L10.3563 33.04L12.9763 36.48L12.1163 37.1ZM9.89633 36.1C9.40299 36.1 8.94633 36.01 8.52633 35.83C8.11299 35.65 7.74966 35.4 7.43633 35.08C7.12966 34.7533 6.88966 34.3733 6.71633 33.94C6.54966 33.5 6.46633 33.02 6.46633 32.5C6.46633 31.98 6.54966 31.5033 6.71633 31.07C6.88966 30.63 7.12966 30.25 7.43633 29.93C7.74966 29.6033 8.11299 29.35 8.52633 29.17C8.94633 28.99 9.40299 28.9 9.89633 28.9C10.3897 28.9 10.843 28.99 11.2563 29.17C11.6763 29.35 12.0397 29.6033 12.3463 29.93C12.6597 30.2567 12.8997 30.64 13.0663 31.08C13.2397 31.5133 13.3263 31.9867 13.3263 32.5C13.3263 33.0133 13.2397 33.49 13.0663 33.93C12.8997 34.3633 12.6597 34.7433 12.3463 35.07C12.0397 35.3967 11.6763 35.65 11.2563 35.83C10.843 36.01 10.3897 36.1 9.89633 36.1ZM9.89633 35.05C10.2363 35.05 10.5463 34.9867 10.8263 34.86C11.113 34.7333 11.3597 34.5567 11.5663 34.33C11.773 34.0967 11.933 33.8267 12.0463 33.52C12.1663 33.2067 12.2263 32.8667 12.2263 32.5C12.2263 32.1333 12.1663 31.7967 12.0463 31.49C11.933 31.1767 11.773 30.9067 11.5663 30.68C11.3597 30.4467 11.113 30.2667 10.8263 30.14C10.5463 30.0133 10.2363 29.95 9.89633 29.95C9.55633 29.95 9.24299 30.0133 8.95633 30.14C8.67633 30.2667 8.42966 30.4433 8.21633 30.67C8.00966 30.8967 7.84966 31.1667 7.73633 31.48C7.62299 31.7867 7.56633 32.1267 7.56633 32.5C7.56633 32.8667 7.62299 33.2067 7.73633 33.52C7.84966 33.8333 8.00966 34.1033 8.21633 34.33C8.42966 34.5567 8.67633 34.7333 8.95633 34.86C9.24299 34.9867 9.55633 35.05 9.89633 35.05ZM16.3686 36.1C15.9953 36.1 15.6686 36.0133 15.3886 35.84C15.1153 35.6667 14.9019 35.4233 14.7486 35.11C14.6019 34.7967 14.5286 34.4233 14.5286 33.99V30.75H15.5586V33.71C15.5586 34.0167 15.6053 34.2833 15.6986 34.51C15.7986 34.73 15.9386 34.9 16.1186 35.02C16.3053 35.14 16.5286 35.2 16.7886 35.2C16.9819 35.2 17.1586 35.17 17.3186 35.11C17.4786 35.0433 17.6153 34.9533 17.7286 34.84C17.8486 34.7267 17.9419 34.59 18.0086 34.43C18.0753 34.27 18.1086 34.0967 18.1086 33.91V30.75H19.1386V36H18.1086V34.9L18.2886 34.78C18.2086 35.0267 18.0719 35.25 17.8786 35.45C17.6919 35.65 17.4686 35.81 17.2086 35.93C16.9486 36.0433 16.6686 36.1 16.3686 36.1ZM23.0333 36.1C22.4933 36.1 22.0133 35.9867 21.5933 35.76C21.1799 35.5267 20.8533 35.21 20.6133 34.81C20.3799 34.41 20.2633 33.95 20.2633 33.43C20.2633 33.0167 20.3299 32.64 20.4633 32.3C20.5966 31.96 20.7799 31.6667 21.0133 31.42C21.2533 31.1667 21.5366 30.9733 21.8633 30.84C22.1966 30.7 22.5566 30.63 22.9433 30.63C23.2833 30.63 23.5999 30.6967 23.8933 30.83C24.1866 30.9567 24.4399 31.1333 24.6533 31.36C24.8733 31.5867 25.0399 31.8567 25.1533 32.17C25.2733 32.4767 25.3299 32.8133 25.3233 33.18L25.3133 33.62H21.0233L20.7933 32.8H24.4233L24.2733 32.97V32.73C24.2533 32.51 24.1799 32.3133 24.0533 32.14C23.9266 31.9667 23.7666 31.83 23.5733 31.73C23.3799 31.63 23.1699 31.58 22.9433 31.58C22.5833 31.58 22.2799 31.65 22.0333 31.79C21.7866 31.9233 21.5999 32.1233 21.4733 32.39C21.3466 32.65 21.2833 32.9733 21.2833 33.36C21.2833 33.7267 21.3599 34.0467 21.5133 34.32C21.6666 34.5867 21.8833 34.7933 22.1633 34.94C22.4433 35.0867 22.7666 35.16 23.1333 35.16C23.3933 35.16 23.6333 35.1167 23.8533 35.03C24.0799 34.9433 24.3233 34.7867 24.5833 34.56L25.1033 35.29C24.9433 35.45 24.7466 35.59 24.5133 35.71C24.2866 35.83 24.0433 35.9267 23.7833 36C23.5299 36.0667 23.2799 36.1 23.0333 36.1ZM28.1927 36.1C27.7527 36.1 27.356 36.0233 27.0027 35.87C26.6493 35.7167 26.356 35.49 26.1227 35.19L26.8227 34.59C27.0227 34.8233 27.2393 34.9933 27.4727 35.1C27.7127 35.2 27.9827 35.25 28.2827 35.25C28.4027 35.25 28.5127 35.2367 28.6127 35.21C28.7193 35.1767 28.8093 35.13 28.8827 35.07C28.9627 35.01 29.0227 34.94 29.0627 34.86C29.1027 34.7733 29.1227 34.68 29.1227 34.58C29.1227 34.4067 29.0593 34.2667 28.9327 34.16C28.866 34.1133 28.7593 34.0633 28.6127 34.01C28.4727 33.95 28.2893 33.89 28.0627 33.83C27.676 33.73 27.3593 33.6167 27.1127 33.49C26.866 33.3633 26.676 33.22 26.5427 33.06C26.4427 32.9333 26.3693 32.7967 26.3227 32.65C26.276 32.4967 26.2527 32.33 26.2527 32.15C26.2527 31.93 26.2993 31.73 26.3927 31.55C26.4927 31.3633 26.626 31.2033 26.7927 31.07C26.966 30.93 27.166 30.8233 27.3927 30.75C27.626 30.6767 27.8727 30.64 28.1327 30.64C28.3793 30.64 28.6227 30.6733 28.8627 30.74C29.1093 30.8067 29.336 30.9033 29.5427 31.03C29.7493 31.1567 29.9227 31.3067 30.0627 31.48L29.4727 32.13C29.346 32.0033 29.206 31.8933 29.0527 31.8C28.906 31.7 28.756 31.6233 28.6027 31.57C28.4493 31.5167 28.3093 31.49 28.1827 31.49C28.0427 31.49 27.916 31.5033 27.8027 31.53C27.6893 31.5567 27.5927 31.5967 27.5127 31.65C27.4393 31.7033 27.3827 31.77 27.3427 31.85C27.3027 31.93 27.2827 32.02 27.2827 32.12C27.2893 32.2067 27.3093 32.29 27.3427 32.37C27.3827 32.4433 27.436 32.5067 27.5027 32.56C27.576 32.6133 27.686 32.67 27.8327 32.73C27.9793 32.79 28.166 32.8467 28.3927 32.9C28.726 32.9867 28.9993 33.0833 29.2127 33.19C29.4327 33.29 29.606 33.4067 29.7327 33.54C29.866 33.6667 29.9593 33.8133 30.0127 33.98C30.066 34.1467 30.0927 34.3333 30.0927 34.54C30.0927 34.84 30.006 35.11 29.8327 35.35C29.666 35.5833 29.4393 35.7667 29.1527 35.9C28.866 36.0333 28.546 36.1 28.1927 36.1ZM31.8778 36V29.41H32.9078V36H31.8778ZM30.7878 31.75V30.75H34.1278V31.75H30.7878ZM35.2357 36V30.75H36.2657V36H35.2357ZM35.7357 29.59C35.5157 29.59 35.3457 29.5333 35.2257 29.42C35.1057 29.3067 35.0457 29.1467 35.0457 28.94C35.0457 28.7467 35.1057 28.59 35.2257 28.47C35.3524 28.35 35.5224 28.29 35.7357 28.29C35.9557 28.29 36.1257 28.3467 36.2457 28.46C36.3657 28.5733 36.4257 28.7333 36.4257 28.94C36.4257 29.1333 36.3624 29.29 36.2357 29.41C36.1157 29.53 35.949 29.59 35.7357 29.59ZM40.2089 36.1C39.6956 36.1 39.2356 35.9833 38.8289 35.75C38.4289 35.51 38.1122 35.1867 37.8789 34.78C37.6456 34.3667 37.5289 33.8967 37.5289 33.37C37.5289 32.8433 37.6456 32.3767 37.8789 31.97C38.1122 31.5567 38.4289 31.2333 38.8289 31C39.2356 30.76 39.6956 30.64 40.2089 30.64C40.7156 30.64 41.1689 30.76 41.5689 31C41.9756 31.2333 42.2956 31.5567 42.5289 31.97C42.7622 32.3767 42.8789 32.8433 42.8789 33.37C42.8789 33.8967 42.7622 34.3667 42.5289 34.78C42.2956 35.1867 41.9756 35.51 41.5689 35.75C41.1689 35.9833 40.7156 36.1 40.2089 36.1ZM40.2089 35.16C40.5222 35.16 40.8022 35.0833 41.0489 34.93C41.2956 34.77 41.4889 34.5567 41.6289 34.29C41.7689 34.0167 41.8356 33.71 41.8289 33.37C41.8356 33.0233 41.7689 32.7167 41.6289 32.45C41.4889 32.1767 41.2956 31.9633 41.0489 31.81C40.8022 31.6567 40.5222 31.58 40.2089 31.58C39.8956 31.58 39.6122 31.66 39.3589 31.82C39.1122 31.9733 38.9189 32.1867 38.7789 32.46C38.6389 32.7267 38.5722 33.03 38.5789 33.37C38.5722 33.71 38.6389 34.0167 38.7789 34.29C38.9189 34.5567 39.1122 34.77 39.3589 34.93C39.6122 35.0833 39.8956 35.16 40.2089 35.16ZM44.0013 36V30.75H45.0313V31.83L44.8513 31.95C44.9179 31.7167 45.0479 31.5033 45.2413 31.31C45.4346 31.11 45.6646 30.95 45.9313 30.83C46.1979 30.7033 46.4713 30.64 46.7513 30.64C47.1513 30.64 47.4846 30.72 47.7513 30.88C48.0179 31.0333 48.2179 31.27 48.3513 31.59C48.4846 31.91 48.5513 32.3133 48.5513 32.8V36H47.5213V32.87C47.5213 32.57 47.4813 32.3233 47.4013 32.13C47.3213 31.93 47.1979 31.7867 47.0313 31.7C46.8646 31.6067 46.6579 31.5667 46.4113 31.58C46.2113 31.58 46.0279 31.6133 45.8613 31.68C45.6946 31.74 45.5479 31.8267 45.4213 31.94C45.3013 32.0533 45.2046 32.1867 45.1313 32.34C45.0646 32.4867 45.0313 32.6467 45.0313 32.82V36H44.5213C44.4346 36 44.3479 36 44.2613 36C44.1746 36 44.0879 36 44.0013 36ZM51.6985 36.1C51.2585 36.1 50.8618 36.0233 50.5085 35.87C50.1552 35.7167 49.8618 35.49 49.6285 35.19L50.3285 34.59C50.5285 34.8233 50.7452 34.9933 50.9785 35.1C51.2185 35.2 51.4885 35.25 51.7885 35.25C51.9085 35.25 52.0185 35.2367 52.1185 35.21C52.2252 35.1767 52.3152 35.13 52.3885 35.07C52.4685 35.01 52.5285 34.94 52.5685 34.86C52.6085 34.7733 52.6285 34.68 52.6285 34.58C52.6285 34.4067 52.5652 34.2667 52.4385 34.16C52.3718 34.1133 52.2652 34.0633 52.1185 34.01C51.9785 33.95 51.7952 33.89 51.5685 33.83C51.1818 33.73 50.8652 33.6167 50.6185 33.49C50.3718 33.3633 50.1818 33.22 50.0485 33.06C49.9485 32.9333 49.8752 32.7967 49.8285 32.65C49.7818 32.4967 49.7585 32.33 49.7585 32.15C49.7585 31.93 49.8052 31.73 49.8985 31.55C49.9985 31.3633 50.1318 31.2033 50.2985 31.07C50.4718 30.93 50.6718 30.8233 50.8985 30.75C51.1318 30.6767 51.3785 30.64 51.6385 30.64C51.8852 30.64 52.1285 30.6733 52.3685 30.74C52.6152 30.8067 52.8418 30.9033 53.0485 31.03C53.2552 31.1567 53.4285 31.3067 53.5685 31.48L52.9785 32.13C52.8518 32.0033 52.7118 31.8933 52.5585 31.8C52.4118 31.7 52.2618 31.6233 52.1085 31.57C51.9552 31.5167 51.8152 31.49 51.6885 31.49C51.5485 31.49 51.4218 31.5033 51.3085 31.53C51.1952 31.5567 51.0985 31.5967 51.0185 31.65C50.9452 31.7033 50.8885 31.77 50.8485 31.85C50.8085 31.93 50.7885 32.02 50.7885 32.12C50.7952 32.2067 50.8152 32.29 50.8485 32.37C50.8885 32.4433 50.9418 32.5067 51.0085 32.56C51.0818 32.6133 51.1918 32.67 51.3385 32.73C51.4852 32.79 51.6718 32.8467 51.8985 32.9C52.2318 32.9867 52.5052 33.0833 52.7185 33.19C52.9385 33.29 53.1118 33.4067 53.2385 33.54C53.3718 33.6667 53.4652 33.8133 53.5185 33.98C53.5718 34.1467 53.5985 34.3333 53.5985 34.54C53.5985 34.84 53.5118 35.11 53.3385 35.35C53.1718 35.5833 52.9452 35.7667 52.6585 35.9C52.3718 36.0333 52.0518 36.1 51.6985 36.1Z" fill="#747474"/>
</svg>
