<svg width="60" height="39" viewBox="0 0 60 39" fill="none" xmlns="http://www.w3.org/2000/svg">
<path d="M30 1C24.473 1 20 5.4725 20 11C20 16.5269 24.4725 21 30 21C35.527 21 40 16.5275 40 11C40 5.47301 35.5275 1 30 1ZM30 19.6046C25.2554 19.6046 21.3954 15.7446 21.3954 11C21.3954 6.25535 25.2554 2.39535 30 2.39535C34.7446 2.39535 38.6046 6.25535 38.6046 11C38.6046 15.7446 34.7446 19.6046 30 19.6046Z" fill="#B4B4B4" stroke="#B4B4B4" stroke-width="0.333333"/>
<path d="M29.7033 13.6528C29.1504 13.6528 28.7029 14.1135 28.7029 14.6664C28.7029 15.2061 29.1373 15.68 29.7033 15.68C30.2693 15.68 30.7168 15.2061 30.7168 14.6664C30.7168 14.1135 30.2561 13.6528 29.7033 13.6528ZM29.8744 5.97882C28.0973 5.97882 27.2812 7.03191 27.2812 7.74269C27.2812 8.25605 27.7156 8.493 28.071 8.493C28.7818 8.493 28.4923 7.47941 29.8349 7.47941C30.493 7.47941 31.0196 7.76902 31.0196 8.37452C31.0196 9.0853 30.2824 9.49335 29.848 9.86191C29.4663 10.1909 28.9661 10.7307 28.9661 11.8627C28.9661 12.5471 29.1504 12.7446 29.6901 12.7446C30.335 12.7446 30.4667 12.455 30.4667 12.2049C30.4667 11.5204 30.4798 11.1255 31.2038 10.5595C31.5592 10.2831 32.678 9.388 32.678 8.1507C32.678 6.91339 31.5592 5.97882 29.8744 5.97882Z" fill="#B4B4B4" stroke="#B4B4B4" stroke-width="0.333333"/>
<path d="M12.1163 37.1L9.46633 33.63L10.3563 33.04L12.9763 36.48L12.1163 37.1ZM9.89633 36.1C9.40299 36.1 8.94633 36.01 8.52633 35.83C8.11299 35.65 7.74966 35.4 7.43633 35.08C7.12966 34.7533 6.88966 34.3733 6.71633 33.94C6.54966 33.5 6.46633 33.02 6.46633 32.5C6.46633 31.98 6.54966 31.5033 6.71633 31.07C6.88966 30.63 7.12966 30.25 7.43633 29.93C7.74966 29.6033 8.11299 29.35 8.52633 29.17C8.94633 28.99 9.40299 28.9 9.89633 28.9C10.3897 28.9 10.843 28.99 11.2563 29.17C11.6763 29.35 12.0397 29.6033 12.3463 29.93C12.6597 30.2567 12.8997 30.64 13.0663 31.08C13.2397 31.5133 13.3263 31.9867 13.3263 32.5C13.3263 33.0133 13.2397 33.49 13.0663 33.93C12.8997 34.3633 12.6597 34.7433 12.3463 35.07C12.0397 35.3967 11.6763 35.65 11.2563 35.83C10.843 36.01 10.3897 36.1 9.89633 36.1ZM9.89633 35.05C10.2363 35.05 10.5463 34.9867 10.8263 34.86C11.113 34.7333 11.3597 34.5567 11.5663 34.33C11.773 34.0967 11.933 33.8267 12.0463 33.52C12.1663 33.2067 12.2263 32.8667 12.2263 32.5C12.2263 32.1333 12.1663 31.7967 12.0463 31.49C11.933 31.1767 11.773 30.9067 11.5663 30.68C11.3597 30.4467 11.113 30.2667 10.8263 30.14C10.5463 30.0133 10.2363 29.95 9.89633 29.95C9.55633 29.95 9.24299 30.0133 8.95633 30.14C8.67633 30.2667 8.42966 30.4433 8.21633 30.67C8.00966 30.8967 7.84966 31.1667 7.73633 31.48C7.62299 31.7867 7.56633 32.1267 7.56633 32.5C7.56633 32.8667 7.62299 33.2067 7.73633 33.52C7.84966 33.8333 8.00966 34.1033 8.21633 34.33C8.42966 34.5567 8.67633 34.7333 8.95633 34.86C9.24299 34.9867 9.55633 35.05 9.89633 35.05ZM16.3686 36.1C15.9953 36.1 15.6686 36.0133 15.3886 35.84C15.1153 35.6667 14.9019 35.4233 14.7486 35.11C14.6019 34.7967 14.5286 34.4233 14.5286 33.99V30.75H15.5586V33.71C15.5586 34.0167 15.6053 34.2833 15.6986 34.51C15.7986 34.73 15.9386 34.9 16.1186 35.02C16.3053 35.14 16.5286 35.2 16.7886 35.2C16.9819 35.2 17.1586 35.17 17.3186 35.11C17.4786 35.0433 17.6153 34.9533 17.7286 34.84C17.8486 34.7267 17.9419 34.59 18.0086 34.43C18.0753 34.27 18.1086 34.0967 18.1086 33.91V30.75H19.1386V36H18.1086V34.9L18.2886 34.78C18.2086 35.0267 18.0719 35.25 17.8786 35.45C17.6919 35.65 17.4686 35.81 17.2086 35.93C16.9486 36.0433 16.6686 36.1 16.3686 36.1ZM23.0333 36.1C22.4933 36.1 22.0133 35.9867 21.5933 35.76C21.1799 35.5267 20.8533 35.21 20.6133 34.81C20.3799 34.41 20.2633 33.95 20.2633 33.43C20.2633 33.0167 20.3299 32.64 20.4633 32.3C20.5966 31.96 20.7799 31.6667 21.0133 31.42C21.2533 31.1667 21.5366 30.9733 21.8633 30.84C22.1966 30.7 22.5566 30.63 22.9433 30.63C23.2833 30.63 23.5999 30.6967 23.8933 30.83C24.1866 30.9567 24.4399 31.1333 24.6533 31.36C24.8733 31.5867 25.0399 31.8567 25.1533 32.17C25.2733 32.4767 25.3299 32.8133 25.3233 33.18L25.3133 33.62H21.0233L20.7933 32.8H24.4233L24.2733 32.97V32.73C24.2533 32.51 24.1799 32.3133 24.0533 32.14C23.9266 31.9667 23.7666 31.83 23.5733 31.73C23.3799 31.63 23.1699 31.58 22.9433 31.58C22.5833 31.58 22.2799 31.65 22.0333 31.79C21.7866 31.9233 21.5999 32.1233 21.4733 32.39C21.3466 32.65 21.2833 32.9733 21.2833 33.36C21.2833 33.7267 21.3599 34.0467 21.5133 34.32C21.6666 34.5867 21.8833 34.7933 22.1633 34.94C22.4433 35.0867 22.7666 35.16 23.1333 35.16C23.3933 35.16 23.6333 35.1167 23.8533 35.03C24.0799 34.9433 24.3233 34.7867 24.5833 34.56L25.1033 35.29C24.9433 35.45 24.7466 35.59 24.5133 35.71C24.2866 35.83 24.0433 35.9267 23.7833 36C23.5299 36.0667 23.2799 36.1 23.0333 36.1ZM28.1927 36.1C27.7527 36.1 27.356 36.0233 27.0027 35.87C26.6493 35.7167 26.356 35.49 26.1227 35.19L26.8227 34.59C27.0227 34.8233 27.2393 34.9933 27.4727 35.1C27.7127 35.2 27.9827 35.25 28.2827 35.25C28.4027 35.25 28.5127 35.2367 28.6127 35.21C28.7193 35.1767 28.8093 35.13 28.8827 35.07C28.9627 35.01 29.0227 34.94 29.0627 34.86C29.1027 34.7733 29.1227 34.68 29.1227 34.58C29.1227 34.4067 29.0593 34.2667 28.9327 34.16C28.866 34.1133 28.7593 34.0633 28.6127 34.01C28.4727 33.95 28.2893 33.89 28.0627 33.83C27.676 33.73 27.3593 33.6167 27.1127 33.49C26.866 33.3633 26.676 33.22 26.5427 33.06C26.4427 32.9333 26.3693 32.7967 26.3227 32.65C26.276 32.4967 26.2527 32.33 26.2527 32.15C26.2527 31.93 26.2993 31.73 26.3927 31.55C26.4927 31.3633 26.626 31.2033 26.7927 31.07C26.966 30.93 27.166 30.8233 27.3927 30.75C27.626 30.6767 27.8727 30.64 28.1327 30.64C28.3793 30.64 28.6227 30.6733 28.8627 30.74C29.1093 30.8067 29.336 30.9033 29.5427 31.03C29.7493 31.1567 29.9227 31.3067 30.0627 31.48L29.4727 32.13C29.346 32.0033 29.206 31.8933 29.0527 31.8C28.906 31.7 28.756 31.6233 28.6027 31.57C28.4493 31.5167 28.3093 31.49 28.1827 31.49C28.0427 31.49 27.916 31.5033 27.8027 31.53C27.6893 31.5567 27.5927 31.5967 27.5127 31.65C27.4393 31.7033 27.3827 31.77 27.3427 31.85C27.3027 31.93 27.2827 32.02 27.2827 32.12C27.2893 32.2067 27.3093 32.29 27.3427 32.37C27.3827 32.4433 27.436 32.5067 27.5027 32.56C27.576 32.6133 27.686 32.67 27.8327 32.73C27.9793 32.79 28.166 32.8467 28.3927 32.9C28.726 32.9867 28.9993 33.0833 29.2127 33.19C29.4327 33.29 29.606 33.4067 29.7327 33.54C29.866 33.6667 29.9593 33.8133 30.0127 33.98C30.066 34.1467 30.0927 34.3333 30.0927 34.54C30.0927 34.84 30.006 35.11 29.8327 35.35C29.666 35.5833 29.4393 35.7667 29.1527 35.9C28.866 36.0333 28.546 36.1 28.1927 36.1ZM31.8778 36V29.41H32.9078V36H31.8778ZM30.7878 31.75V30.75H34.1278V31.75H30.7878ZM35.2357 36V30.75H36.2657V36H35.2357ZM35.7357 29.59C35.5157 29.59 35.3457 29.5333 35.2257 29.42C35.1057 29.3067 35.0457 29.1467 35.0457 28.94C35.0457 28.7467 35.1057 28.59 35.2257 28.47C35.3524 28.35 35.5224 28.29 35.7357 28.29C35.9557 28.29 36.1257 28.3467 36.2457 28.46C36.3657 28.5733 36.4257 28.7333 36.4257 28.94C36.4257 29.1333 36.3624 29.29 36.2357 29.41C36.1157 29.53 35.949 29.59 35.7357 29.59ZM40.2089 36.1C39.6956 36.1 39.2356 35.9833 38.8289 35.75C38.4289 35.51 38.1122 35.1867 37.8789 34.78C37.6456 34.3667 37.5289 33.8967 37.5289 33.37C37.5289 32.8433 37.6456 32.3767 37.8789 31.97C38.1122 31.5567 38.4289 31.2333 38.8289 31C39.2356 30.76 39.6956 30.64 40.2089 30.64C40.7156 30.64 41.1689 30.76 41.5689 31C41.9756 31.2333 42.2956 31.5567 42.5289 31.97C42.7622 32.3767 42.8789 32.8433 42.8789 33.37C42.8789 33.8967 42.7622 34.3667 42.5289 34.78C42.2956 35.1867 41.9756 35.51 41.5689 35.75C41.1689 35.9833 40.7156 36.1 40.2089 36.1ZM40.2089 35.16C40.5222 35.16 40.8022 35.0833 41.0489 34.93C41.2956 34.77 41.4889 34.5567 41.6289 34.29C41.7689 34.0167 41.8356 33.71 41.8289 33.37C41.8356 33.0233 41.7689 32.7167 41.6289 32.45C41.4889 32.1767 41.2956 31.9633 41.0489 31.81C40.8022 31.6567 40.5222 31.58 40.2089 31.58C39.8956 31.58 39.6122 31.66 39.3589 31.82C39.1122 31.9733 38.9189 32.1867 38.7789 32.46C38.6389 32.7267 38.5722 33.03 38.5789 33.37C38.5722 33.71 38.6389 34.0167 38.7789 34.29C38.9189 34.5567 39.1122 34.77 39.3589 34.93C39.6122 35.0833 39.8956 35.16 40.2089 35.16ZM44.0013 36V30.75H45.0313V31.83L44.8513 31.95C44.9179 31.7167 45.0479 31.5033 45.2413 31.31C45.4346 31.11 45.6646 30.95 45.9313 30.83C46.1979 30.7033 46.4713 30.64 46.7513 30.64C47.1513 30.64 47.4846 30.72 47.7513 30.88C48.0179 31.0333 48.2179 31.27 48.3513 31.59C48.4846 31.91 48.5513 32.3133 48.5513 32.8V36H47.5213V32.87C47.5213 32.57 47.4813 32.3233 47.4013 32.13C47.3213 31.93 47.1979 31.7867 47.0313 31.7C46.8646 31.6067 46.6579 31.5667 46.4113 31.58C46.2113 31.58 46.0279 31.6133 45.8613 31.68C45.6946 31.74 45.5479 31.8267 45.4213 31.94C45.3013 32.0533 45.2046 32.1867 45.1313 32.34C45.0646 32.4867 45.0313 32.6467 45.0313 32.82V36H44.5213C44.4346 36 44.3479 36 44.2613 36C44.1746 36 44.0879 36 44.0013 36ZM51.6985 36.1C51.2585 36.1 50.8618 36.0233 50.5085 35.87C50.1552 35.7167 49.8618 35.49 49.6285 35.19L50.3285 34.59C50.5285 34.8233 50.7452 34.9933 50.9785 35.1C51.2185 35.2 51.4885 35.25 51.7885 35.25C51.9085 35.25 52.0185 35.2367 52.1185 35.21C52.2252 35.1767 52.3152 35.13 52.3885 35.07C52.4685 35.01 52.5285 34.94 52.5685 34.86C52.6085 34.7733 52.6285 34.68 52.6285 34.58C52.6285 34.4067 52.5652 34.2667 52.4385 34.16C52.3718 34.1133 52.2652 34.0633 52.1185 34.01C51.9785 33.95 51.7952 33.89 51.5685 33.83C51.1818 33.73 50.8652 33.6167 50.6185 33.49C50.3718 33.3633 50.1818 33.22 50.0485 33.06C49.9485 32.9333 49.8752 32.7967 49.8285 32.65C49.7818 32.4967 49.7585 32.33 49.7585 32.15C49.7585 31.93 49.8052 31.73 49.8985 31.55C49.9985 31.3633 50.1318 31.2033 50.2985 31.07C50.4718 30.93 50.6718 30.8233 50.8985 30.75C51.1318 30.6767 51.3785 30.64 51.6385 30.64C51.8852 30.64 52.1285 30.6733 52.3685 30.74C52.6152 30.8067 52.8418 30.9033 53.0485 31.03C53.2552 31.1567 53.4285 31.3067 53.5685 31.48L52.9785 32.13C52.8518 32.0033 52.7118 31.8933 52.5585 31.8C52.4118 31.7 52.2618 31.6233 52.1085 31.57C51.9552 31.5167 51.8152 31.49 51.6885 31.49C51.5485 31.49 51.4218 31.5033 51.3085 31.53C51.1952 31.5567 51.0985 31.5967 51.0185 31.65C50.9452 31.7033 50.8885 31.77 50.8485 31.85C50.8085 31.93 50.7885 32.02 50.7885 32.12C50.7952 32.2067 50.8152 32.29 50.8485 32.37C50.8885 32.4433 50.9418 32.5067 51.0085 32.56C51.0818 32.6133 51.1918 32.67 51.3385 32.73C51.4852 32.79 51.6718 32.8467 51.8985 32.9C52.2318 32.9867 52.5052 33.0833 52.7185 33.19C52.9385 33.29 53.1118 33.4067 53.2385 33.54C53.3718 33.6667 53.4652 33.8133 53.5185 33.98C53.5718 34.1467 53.5985 34.3333 53.5985 34.54C53.5985 34.84 53.5118 35.11 53.3385 35.35C53.1718 35.5833 52.9452 35.7667 52.6585 35.9C52.3718 36.0333 52.0518 36.1 51.6985 36.1Z" fill="#747474"/>
</svg>
