<svg width="60" height="38" viewBox="0 0 60 38" fill="none" xmlns="http://www.w3.org/2000/svg">
<path d="M30 0C24.473 0 20 4.4725 20 10C20 15.5269 24.4725 20 30 20C35.527 20 40 15.5275 40 10C40 4.47301 35.5275 0 30 0ZM29.7041 14.6804C29.1381 14.6804 28.7037 14.2066 28.7037 13.6668C28.7037 13.114 29.1513 12.6533 29.7041 12.6533C30.257 12.6533 30.7176 13.114 30.7176 13.6669C30.7176 14.2065 30.2701 14.6804 29.7041 14.6804ZM31.2046 9.56C30.4807 10.126 30.4675 10.5209 30.4675 11.2054C30.4675 11.4555 30.3359 11.7451 29.6909 11.7451C29.1512 11.7451 28.967 11.5476 28.967 10.8632C28.967 9.73113 29.4671 9.19145 29.8489 8.86238C30.2832 8.49379 31.0204 8.08578 31.0204 7.375C31.0204 6.76945 30.4939 6.47988 29.8357 6.47988C28.4931 6.47988 28.7827 7.49348 28.0718 7.49348C27.7164 7.49348 27.2821 7.25648 27.2821 6.74316C27.2821 6.03238 28.0982 4.9793 29.8752 4.9793C31.56 4.9793 32.6789 5.91391 32.6789 7.15121C32.6789 8.38852 31.56 9.28359 31.2046 9.56Z" fill="#3B5D8F"/>
<path d="M12.1163 36.1L9.46633 32.63L10.3563 32.04L12.9763 35.48L12.1163 36.1ZM9.89633 35.1C9.40299 35.1 8.94633 35.01 8.52633 34.83C8.11299 34.65 7.74966 34.4 7.43633 34.08C7.12966 33.7533 6.88966 33.3733 6.71633 32.94C6.54966 32.5 6.46633 32.02 6.46633 31.5C6.46633 30.98 6.54966 30.5033 6.71633 30.07C6.88966 29.63 7.12966 29.25 7.43633 28.93C7.74966 28.6033 8.11299 28.35 8.52633 28.17C8.94633 27.99 9.40299 27.9 9.89633 27.9C10.3897 27.9 10.843 27.99 11.2563 28.17C11.6763 28.35 12.0397 28.6033 12.3463 28.93C12.6597 29.2567 12.8997 29.64 13.0663 30.08C13.2397 30.5133 13.3263 30.9867 13.3263 31.5C13.3263 32.0133 13.2397 32.49 13.0663 32.93C12.8997 33.3633 12.6597 33.7433 12.3463 34.07C12.0397 34.3967 11.6763 34.65 11.2563 34.83C10.843 35.01 10.3897 35.1 9.89633 35.1ZM9.89633 34.05C10.2363 34.05 10.5463 33.9867 10.8263 33.86C11.113 33.7333 11.3597 33.5567 11.5663 33.33C11.773 33.0967 11.933 32.8267 12.0463 32.52C12.1663 32.2067 12.2263 31.8667 12.2263 31.5C12.2263 31.1333 12.1663 30.7967 12.0463 30.49C11.933 30.1767 11.773 29.9067 11.5663 29.68C11.3597 29.4467 11.113 29.2667 10.8263 29.14C10.5463 29.0133 10.2363 28.95 9.89633 28.95C9.55633 28.95 9.24299 29.0133 8.95633 29.14C8.67633 29.2667 8.42966 29.4433 8.21633 29.67C8.00966 29.8967 7.84966 30.1667 7.73633 30.48C7.62299 30.7867 7.56633 31.1267 7.56633 31.5C7.56633 31.8667 7.62299 32.2067 7.73633 32.52C7.84966 32.8333 8.00966 33.1033 8.21633 33.33C8.42966 33.5567 8.67633 33.7333 8.95633 33.86C9.24299 33.9867 9.55633 34.05 9.89633 34.05ZM16.3686 35.1C15.9953 35.1 15.6686 35.0133 15.3886 34.84C15.1153 34.6667 14.9019 34.4233 14.7486 34.11C14.6019 33.7967 14.5286 33.4233 14.5286 32.99V29.75H15.5586V32.71C15.5586 33.0167 15.6053 33.2833 15.6986 33.51C15.7986 33.73 15.9386 33.9 16.1186 34.02C16.3053 34.14 16.5286 34.2 16.7886 34.2C16.9819 34.2 17.1586 34.17 17.3186 34.11C17.4786 34.0433 17.6153 33.9533 17.7286 33.84C17.8486 33.7267 17.9419 33.59 18.0086 33.43C18.0753 33.27 18.1086 33.0967 18.1086 32.91V29.75H19.1386V35H18.1086V33.9L18.2886 33.78C18.2086 34.0267 18.0719 34.25 17.8786 34.45C17.6919 34.65 17.4686 34.81 17.2086 34.93C16.9486 35.0433 16.6686 35.1 16.3686 35.1ZM23.0333 35.1C22.4933 35.1 22.0133 34.9867 21.5933 34.76C21.1799 34.5267 20.8533 34.21 20.6133 33.81C20.3799 33.41 20.2633 32.95 20.2633 32.43C20.2633 32.0167 20.3299 31.64 20.4633 31.3C20.5966 30.96 20.7799 30.6667 21.0133 30.42C21.2533 30.1667 21.5366 29.9733 21.8633 29.84C22.1966 29.7 22.5566 29.63 22.9433 29.63C23.2833 29.63 23.5999 29.6967 23.8933 29.83C24.1866 29.9567 24.4399 30.1333 24.6533 30.36C24.8733 30.5867 25.0399 30.8567 25.1533 31.17C25.2733 31.4767 25.3299 31.8133 25.3233 32.18L25.3133 32.62H21.0233L20.7933 31.8H24.4233L24.2733 31.97V31.73C24.2533 31.51 24.1799 31.3133 24.0533 31.14C23.9266 30.9667 23.7666 30.83 23.5733 30.73C23.3799 30.63 23.1699 30.58 22.9433 30.58C22.5833 30.58 22.2799 30.65 22.0333 30.79C21.7866 30.9233 21.5999 31.1233 21.4733 31.39C21.3466 31.65 21.2833 31.9733 21.2833 32.36C21.2833 32.7267 21.3599 33.0467 21.5133 33.32C21.6666 33.5867 21.8833 33.7933 22.1633 33.94C22.4433 34.0867 22.7666 34.16 23.1333 34.16C23.3933 34.16 23.6333 34.1167 23.8533 34.03C24.0799 33.9433 24.3233 33.7867 24.5833 33.56L25.1033 34.29C24.9433 34.45 24.7466 34.59 24.5133 34.71C24.2866 34.83 24.0433 34.9267 23.7833 35C23.5299 35.0667 23.2799 35.1 23.0333 35.1ZM28.1927 35.1C27.7527 35.1 27.356 35.0233 27.0027 34.87C26.6493 34.7167 26.356 34.49 26.1227 34.19L26.8227 33.59C27.0227 33.8233 27.2393 33.9933 27.4727 34.1C27.7127 34.2 27.9827 34.25 28.2827 34.25C28.4027 34.25 28.5127 34.2367 28.6127 34.21C28.7193 34.1767 28.8093 34.13 28.8827 34.07C28.9627 34.01 29.0227 33.94 29.0627 33.86C29.1027 33.7733 29.1227 33.68 29.1227 33.58C29.1227 33.4067 29.0593 33.2667 28.9327 33.16C28.866 33.1133 28.7593 33.0633 28.6127 33.01C28.4727 32.95 28.2893 32.89 28.0627 32.83C27.676 32.73 27.3593 32.6167 27.1127 32.49C26.866 32.3633 26.676 32.22 26.5427 32.06C26.4427 31.9333 26.3693 31.7967 26.3227 31.65C26.276 31.4967 26.2527 31.33 26.2527 31.15C26.2527 30.93 26.2993 30.73 26.3927 30.55C26.4927 30.3633 26.626 30.2033 26.7927 30.07C26.966 29.93 27.166 29.8233 27.3927 29.75C27.626 29.6767 27.8727 29.64 28.1327 29.64C28.3793 29.64 28.6227 29.6733 28.8627 29.74C29.1093 29.8067 29.336 29.9033 29.5427 30.03C29.7493 30.1567 29.9227 30.3067 30.0627 30.48L29.4727 31.13C29.346 31.0033 29.206 30.8933 29.0527 30.8C28.906 30.7 28.756 30.6233 28.6027 30.57C28.4493 30.5167 28.3093 30.49 28.1827 30.49C28.0427 30.49 27.916 30.5033 27.8027 30.53C27.6893 30.5567 27.5927 30.5967 27.5127 30.65C27.4393 30.7033 27.3827 30.77 27.3427 30.85C27.3027 30.93 27.2827 31.02 27.2827 31.12C27.2893 31.2067 27.3093 31.29 27.3427 31.37C27.3827 31.4433 27.436 31.5067 27.5027 31.56C27.576 31.6133 27.686 31.67 27.8327 31.73C27.9793 31.79 28.166 31.8467 28.3927 31.9C28.726 31.9867 28.9993 32.0833 29.2127 32.19C29.4327 32.29 29.606 32.4067 29.7327 32.54C29.866 32.6667 29.9593 32.8133 30.0127 32.98C30.066 33.1467 30.0927 33.3333 30.0927 33.54C30.0927 33.84 30.006 34.11 29.8327 34.35C29.666 34.5833 29.4393 34.7667 29.1527 34.9C28.866 35.0333 28.546 35.1 28.1927 35.1ZM31.8778 35V28.41H32.9078V35H31.8778ZM30.7878 30.75V29.75H34.1278V30.75H30.7878ZM35.2357 35V29.75H36.2657V35H35.2357ZM35.7357 28.59C35.5157 28.59 35.3457 28.5333 35.2257 28.42C35.1057 28.3067 35.0457 28.1467 35.0457 27.94C35.0457 27.7467 35.1057 27.59 35.2257 27.47C35.3524 27.35 35.5224 27.29 35.7357 27.29C35.9557 27.29 36.1257 27.3467 36.2457 27.46C36.3657 27.5733 36.4257 27.7333 36.4257 27.94C36.4257 28.1333 36.3624 28.29 36.2357 28.41C36.1157 28.53 35.949 28.59 35.7357 28.59ZM40.2089 35.1C39.6956 35.1 39.2356 34.9833 38.8289 34.75C38.4289 34.51 38.1122 34.1867 37.8789 33.78C37.6456 33.3667 37.5289 32.8967 37.5289 32.37C37.5289 31.8433 37.6456 31.3767 37.8789 30.97C38.1122 30.5567 38.4289 30.2333 38.8289 30C39.2356 29.76 39.6956 29.64 40.2089 29.64C40.7156 29.64 41.1689 29.76 41.5689 30C41.9756 30.2333 42.2956 30.5567 42.5289 30.97C42.7622 31.3767 42.8789 31.8433 42.8789 32.37C42.8789 32.8967 42.7622 33.3667 42.5289 33.78C42.2956 34.1867 41.9756 34.51 41.5689 34.75C41.1689 34.9833 40.7156 35.1 40.2089 35.1ZM40.2089 34.16C40.5222 34.16 40.8022 34.0833 41.0489 33.93C41.2956 33.77 41.4889 33.5567 41.6289 33.29C41.7689 33.0167 41.8356 32.71 41.8289 32.37C41.8356 32.0233 41.7689 31.7167 41.6289 31.45C41.4889 31.1767 41.2956 30.9633 41.0489 30.81C40.8022 30.6567 40.5222 30.58 40.2089 30.58C39.8956 30.58 39.6122 30.66 39.3589 30.82C39.1122 30.9733 38.9189 31.1867 38.7789 31.46C38.6389 31.7267 38.5722 32.03 38.5789 32.37C38.5722 32.71 38.6389 33.0167 38.7789 33.29C38.9189 33.5567 39.1122 33.77 39.3589 33.93C39.6122 34.0833 39.8956 34.16 40.2089 34.16ZM44.0013 35V29.75H45.0313V30.83L44.8513 30.95C44.9179 30.7167 45.0479 30.5033 45.2413 30.31C45.4346 30.11 45.6646 29.95 45.9313 29.83C46.1979 29.7033 46.4713 29.64 46.7513 29.64C47.1513 29.64 47.4846 29.72 47.7513 29.88C48.0179 30.0333 48.2179 30.27 48.3513 30.59C48.4846 30.91 48.5513 31.3133 48.5513 31.8V35H47.5213V31.87C47.5213 31.57 47.4813 31.3233 47.4013 31.13C47.3213 30.93 47.1979 30.7867 47.0313 30.7C46.8646 30.6067 46.6579 30.5667 46.4113 30.58C46.2113 30.58 46.0279 30.6133 45.8613 30.68C45.6946 30.74 45.5479 30.8267 45.4213 30.94C45.3013 31.0533 45.2046 31.1867 45.1313 31.34C45.0646 31.4867 45.0313 31.6467 45.0313 31.82V35H44.5213C44.4346 35 44.3479 35 44.2613 35C44.1746 35 44.0879 35 44.0013 35ZM51.6985 35.1C51.2585 35.1 50.8618 35.0233 50.5085 34.87C50.1552 34.7167 49.8618 34.49 49.6285 34.19L50.3285 33.59C50.5285 33.8233 50.7452 33.9933 50.9785 34.1C51.2185 34.2 51.4885 34.25 51.7885 34.25C51.9085 34.25 52.0185 34.2367 52.1185 34.21C52.2252 34.1767 52.3152 34.13 52.3885 34.07C52.4685 34.01 52.5285 33.94 52.5685 33.86C52.6085 33.7733 52.6285 33.68 52.6285 33.58C52.6285 33.4067 52.5652 33.2667 52.4385 33.16C52.3718 33.1133 52.2652 33.0633 52.1185 33.01C51.9785 32.95 51.7952 32.89 51.5685 32.83C51.1818 32.73 50.8652 32.6167 50.6185 32.49C50.3718 32.3633 50.1818 32.22 50.0485 32.06C49.9485 31.9333 49.8752 31.7967 49.8285 31.65C49.7818 31.4967 49.7585 31.33 49.7585 31.15C49.7585 30.93 49.8052 30.73 49.8985 30.55C49.9985 30.3633 50.1318 30.2033 50.2985 30.07C50.4718 29.93 50.6718 29.8233 50.8985 29.75C51.1318 29.6767 51.3785 29.64 51.6385 29.64C51.8852 29.64 52.1285 29.6733 52.3685 29.74C52.6152 29.8067 52.8418 29.9033 53.0485 30.03C53.2552 30.1567 53.4285 30.3067 53.5685 30.48L52.9785 31.13C52.8518 31.0033 52.7118 30.8933 52.5585 30.8C52.4118 30.7 52.2618 30.6233 52.1085 30.57C51.9552 30.5167 51.8152 30.49 51.6885 30.49C51.5485 30.49 51.4218 30.5033 51.3085 30.53C51.1952 30.5567 51.0985 30.5967 51.0185 30.65C50.9452 30.7033 50.8885 30.77 50.8485 30.85C50.8085 30.93 50.7885 31.02 50.7885 31.12C50.7952 31.2067 50.8152 31.29 50.8485 31.37C50.8885 31.4433 50.9418 31.5067 51.0085 31.56C51.0818 31.6133 51.1918 31.67 51.3385 31.73C51.4852 31.79 51.6718 31.8467 51.8985 31.9C52.2318 31.9867 52.5052 32.0833 52.7185 32.19C52.9385 32.29 53.1118 32.4067 53.2385 32.54C53.3718 32.6667 53.4652 32.8133 53.5185 32.98C53.5718 33.1467 53.5985 33.3333 53.5985 33.54C53.5985 33.84 53.5118 34.11 53.3385 34.35C53.1718 34.5833 52.9452 34.7667 52.6585 34.9C52.3718 35.0333 52.0518 35.1 51.6985 35.1Z" fill="#747474"/>
</svg>
