<svg width="60" height="38" viewBox="0 0 60 38" fill="none" xmlns="http://www.w3.org/2000/svg">
<path d="M20 6.66667V15C20 17.75 22.25 20 25 20H35C37.75 20 40 17.75 40 15V6.66667H20ZM35 5H40C40 2.25 37.75 0 35 0H32.5L35 5ZM29.1667 5H33.3333L30.8333 0H26.6667L29.1667 5ZM20 5H27.5L25 0C22.25 0 20 2.25 20 5ZM28.3333 15.8333C27.9167 15.8333 27.5 15.4167 27.5 15V10C27.5 9.66667 27.6667 9.41667 27.9167 9.25C28.1667 9.08333 28.5 9.08333 28.75 9.25L32.9167 11.75C33.1667 11.9167 33.3333 12.1667 33.3333 12.5C33.3333 12.8333 33.1667 13.0833 32.9167 13.25L28.75 15.75C28.6667 15.8333 28.5 15.8333 28.3333 15.8333Z" fill="#3B5D8F"/>
<path d="M16.5068 35L13.7068 28H14.9368L16.6068 32.25C16.6868 32.4567 16.7568 32.6433 16.8168 32.81C16.8835 32.9767 16.9401 33.13 16.9868 33.27C17.0335 33.4033 17.0768 33.53 17.1168 33.65C17.1568 33.77 17.1968 33.89 17.2368 34.01L16.9768 34.02C17.0235 33.86 17.0735 33.6933 17.1268 33.52C17.1801 33.3467 17.2401 33.1567 17.3068 32.95C17.3801 32.7433 17.4668 32.51 17.5668 32.25L19.1168 28H20.3768L17.5568 35H16.5068ZM21.5052 35V29.75H22.5352V35H21.5052ZM22.0052 28.59C21.7852 28.59 21.6152 28.5333 21.4952 28.42C21.3752 28.3067 21.3152 28.1467 21.3152 27.94C21.3152 27.7467 21.3752 27.59 21.4952 27.47C21.6219 27.35 21.7919 27.29 22.0052 27.29C22.2252 27.29 22.3952 27.3467 22.5152 27.46C22.6352 27.5733 22.6952 27.7333 22.6952 27.94C22.6952 28.1333 22.6319 28.29 22.5052 28.41C22.3852 28.53 22.2186 28.59 22.0052 28.59ZM26.3084 35.1C25.8284 35.1 25.3984 34.9833 25.0184 34.75C24.6451 34.51 24.3484 34.1867 24.1284 33.78C23.9084 33.3667 23.7984 32.8967 23.7984 32.37C23.7984 31.8433 23.9051 31.3767 24.1184 30.97C24.3384 30.5567 24.6351 30.2333 25.0084 30C25.3818 29.76 25.8051 29.64 26.2784 29.64C26.5384 29.64 26.7884 29.6833 27.0284 29.77C27.2751 29.85 27.4951 29.9633 27.6884 30.11C27.8818 30.25 28.0318 30.4067 28.1384 30.58C28.2518 30.7467 28.3084 30.9167 28.3084 31.09L28.0084 31.11V27.6H29.0384V35H28.0084V33.75H28.2084C28.2084 33.91 28.1551 34.07 28.0484 34.23C27.9418 34.3833 27.7984 34.5267 27.6184 34.66C27.4451 34.7933 27.2418 34.9 27.0084 34.98C26.7818 35.06 26.5484 35.1 26.3084 35.1ZM26.4484 34.21C26.7618 34.21 27.0384 34.13 27.2784 33.97C27.5184 33.81 27.7051 33.5933 27.8384 33.32C27.9784 33.04 28.0484 32.7233 28.0484 32.37C28.0484 32.0167 27.9784 31.7033 27.8384 31.43C27.7051 31.15 27.5184 30.93 27.2784 30.77C27.0384 30.61 26.7618 30.53 26.4484 30.53C26.1351 30.53 25.8584 30.61 25.6184 30.77C25.3784 30.93 25.1884 31.15 25.0484 31.43C24.9151 31.7033 24.8484 32.0167 24.8484 32.37C24.8484 32.7233 24.9151 33.04 25.0484 33.32C25.1884 33.5933 25.3784 33.81 25.6184 33.97C25.8584 34.13 26.1351 34.21 26.4484 34.21ZM32.9063 35.1C32.3663 35.1 31.8863 34.9867 31.4663 34.76C31.053 34.5267 30.7263 34.21 30.4863 33.81C30.253 33.41 30.1363 32.95 30.1363 32.43C30.1363 32.0167 30.203 31.64 30.3363 31.3C30.4697 30.96 30.653 30.6667 30.8863 30.42C31.1263 30.1667 31.4097 29.9733 31.7363 29.84C32.0697 29.7 32.4297 29.63 32.8163 29.63C33.1563 29.63 33.473 29.6967 33.7663 29.83C34.0597 29.9567 34.313 30.1333 34.5263 30.36C34.7463 30.5867 34.913 30.8567 35.0263 31.17C35.1463 31.4767 35.203 31.8133 35.1963 32.18L35.1863 32.62H30.8963L30.6663 31.8H34.2963L34.1463 31.97V31.73C34.1263 31.51 34.053 31.3133 33.9263 31.14C33.7997 30.9667 33.6397 30.83 33.4463 30.73C33.253 30.63 33.043 30.58 32.8163 30.58C32.4563 30.58 32.153 30.65 31.9063 30.79C31.6597 30.9233 31.473 31.1233 31.3463 31.39C31.2197 31.65 31.1563 31.9733 31.1563 32.36C31.1563 32.7267 31.233 33.0467 31.3863 33.32C31.5397 33.5867 31.7563 33.7933 32.0363 33.94C32.3163 34.0867 32.6397 34.16 33.0063 34.16C33.2663 34.16 33.5063 34.1167 33.7263 34.03C33.953 33.9433 34.1963 33.7867 34.4563 33.56L34.9763 34.29C34.8163 34.45 34.6197 34.59 34.3863 34.71C34.1597 34.83 33.9163 34.9267 33.6563 35C33.403 35.0667 33.153 35.1 32.9063 35.1ZM38.6757 35.1C38.1624 35.1 37.7024 34.9833 37.2957 34.75C36.8957 34.51 36.579 34.1867 36.3457 33.78C36.1124 33.3667 35.9957 32.8967 35.9957 32.37C35.9957 31.8433 36.1124 31.3767 36.3457 30.97C36.579 30.5567 36.8957 30.2333 37.2957 30C37.7024 29.76 38.1624 29.64 38.6757 29.64C39.1824 29.64 39.6357 29.76 40.0357 30C40.4424 30.2333 40.7624 30.5567 40.9957 30.97C41.229 31.3767 41.3457 31.8433 41.3457 32.37C41.3457 32.8967 41.229 33.3667 40.9957 33.78C40.7624 34.1867 40.4424 34.51 40.0357 34.75C39.6357 34.9833 39.1824 35.1 38.6757 35.1ZM38.6757 34.16C38.989 34.16 39.269 34.0833 39.5157 33.93C39.7624 33.77 39.9557 33.5567 40.0957 33.29C40.2357 33.0167 40.3024 32.71 40.2957 32.37C40.3024 32.0233 40.2357 31.7167 40.0957 31.45C39.9557 31.1767 39.7624 30.9633 39.5157 30.81C39.269 30.6567 38.989 30.58 38.6757 30.58C38.3624 30.58 38.079 30.66 37.8257 30.82C37.579 30.9733 37.3857 31.1867 37.2457 31.46C37.1057 31.7267 37.039 32.03 37.0457 32.37C37.039 32.71 37.1057 33.0167 37.2457 33.29C37.3857 33.5567 37.579 33.77 37.8257 33.93C38.079 34.0833 38.3624 34.16 38.6757 34.16ZM44.218 35.1C43.778 35.1 43.3814 35.0233 43.028 34.87C42.6747 34.7167 42.3814 34.49 42.148 34.19L42.848 33.59C43.048 33.8233 43.2647 33.9933 43.498 34.1C43.738 34.2 44.008 34.25 44.308 34.25C44.428 34.25 44.538 34.2367 44.638 34.21C44.7447 34.1767 44.8347 34.13 44.908 34.07C44.988 34.01 45.048 33.94 45.088 33.86C45.128 33.7733 45.148 33.68 45.148 33.58C45.148 33.4067 45.0847 33.2667 44.958 33.16C44.8914 33.1133 44.7847 33.0633 44.638 33.01C44.498 32.95 44.3147 32.89 44.088 32.83C43.7014 32.73 43.3847 32.6167 43.138 32.49C42.8914 32.3633 42.7014 32.22 42.568 32.06C42.468 31.9333 42.3947 31.7967 42.348 31.65C42.3014 31.4967 42.278 31.33 42.278 31.15C42.278 30.93 42.3247 30.73 42.418 30.55C42.518 30.3633 42.6514 30.2033 42.818 30.07C42.9914 29.93 43.1914 29.8233 43.418 29.75C43.6514 29.6767 43.898 29.64 44.158 29.64C44.4047 29.64 44.648 29.6733 44.888 29.74C45.1347 29.8067 45.3614 29.9033 45.568 30.03C45.7747 30.1567 45.948 30.3067 46.088 30.48L45.498 31.13C45.3714 31.0033 45.2314 30.8933 45.078 30.8C44.9314 30.7 44.7814 30.6233 44.628 30.57C44.4747 30.5167 44.3347 30.49 44.208 30.49C44.068 30.49 43.9414 30.5033 43.828 30.53C43.7147 30.5567 43.618 30.5967 43.538 30.65C43.4647 30.7033 43.408 30.77 43.368 30.85C43.328 30.93 43.308 31.02 43.308 31.12C43.3147 31.2067 43.3347 31.29 43.368 31.37C43.408 31.4433 43.4614 31.5067 43.528 31.56C43.6014 31.6133 43.7114 31.67 43.858 31.73C44.0047 31.79 44.1914 31.8467 44.418 31.9C44.7514 31.9867 45.0247 32.0833 45.238 32.19C45.458 32.29 45.6314 32.4067 45.758 32.54C45.8914 32.6667 45.9847 32.8133 46.038 32.98C46.0914 33.1467 46.118 33.3333 46.118 33.54C46.118 33.84 46.0314 34.11 45.858 34.35C45.6914 34.5833 45.4647 34.7667 45.178 34.9C44.8914 35.0333 44.5714 35.1 44.218 35.1Z" fill="#747474"/>
</svg>
