<svg width="20" height="16" viewBox="0 0 20 16" fill="none" xmlns="http://www.w3.org/2000/svg">
<path d="M19.1304 0H0.869565C0.391304 0 0 0.411429 0 0.914286V15.0857C0 15.5886 0.391304 16 0.869565 16H19.1304C19.6087 16 20 15.5886 20 15.0857V0.914286C20 0.411429 19.6087 0 19.1304 0ZM18.2609 1.82857V9.48571L16.8043 8.20571C16.4783 7.93143 16.0217 7.93143 15.6957 8.20571L13.3478 10.2629L7.8913 5.28C7.56522 4.98286 7.1087 4.98286 6.78261 5.25714L1.73913 9.53143V1.82857H18.2609ZM1.73913 14.1714V11.8857L7.30435 7.15429L12.7609 12.1371C13.087 12.4343 13.5652 12.4343 13.8913 12.16L16.2391 10.1029L18.2609 11.8857V14.1714H1.73913ZM11.3261 4.93714C11.3261 4.02286 12.0435 3.26857 12.9348 3.26857C13.8261 3.26857 14.5435 4.02286 14.5435 4.93714C14.5435 5.85143 13.8261 6.60571 12.9348 6.60571C12.0435 6.60571 11.3261 5.85143 11.3261 4.93714Z" fill="#A3B8E0"/>
</svg>
