<svg width="48" height="49" viewBox="0 0 48 49" fill="none" xmlns="http://www.w3.org/2000/svg">
<g filter="url(#filter0_d_2629_29959)">
<rect x="4.1" y="0.6" width="39.8" height="39.8" rx="19.9" fill="#F0F4FA" stroke="#E7E7E7" stroke-width="0.2"/>
<path d="M24.4574 17.2898C26.6085 17.2898 28.3523 15.546 28.3523 13.3949C28.3523 11.2438 26.6085 9.5 24.4574 9.5C22.3063 9.5 20.5625 11.2438 20.5625 13.3949C20.5625 15.546 22.3063 17.2898 24.4574 17.2898Z" fill="#A3B8E0"/>
<path d="M32.3373 17.2879C33.6972 17.2879 34.7996 16.1855 34.7996 14.8256C34.7996 13.4657 33.6972 12.3633 32.3373 12.3633C30.9774 12.3633 29.875 13.4657 29.875 14.8256C29.875 16.1855 30.9774 17.2879 32.3373 17.2879Z" fill="#A3B8E0"/>
<path d="M16.5795 17.2879C17.9394 17.2879 19.0418 16.1855 19.0418 14.8256C19.0418 13.4657 17.9394 12.3633 16.5795 12.3633C15.2196 12.3633 14.1172 13.4657 14.1172 14.8256C14.1172 16.1855 15.2196 17.2879 16.5795 17.2879Z" fill="#A3B8E0"/>
<path d="M19.0075 19.4983C18.0383 18.7042 17.1605 18.8093 16.0398 18.8093C14.3637 18.8093 13 20.1649 13 21.8308V26.72C13 27.4434 13.5905 28.0317 14.3167 28.0317C17.4516 28.0317 17.074 28.0884 17.074 27.8965C17.074 24.432 16.6636 21.8913 19.0075 19.4983Z" fill="#A3B8E0"/>
<path d="M25.5213 18.8302C23.5638 18.6669 21.8623 18.8321 20.3948 20.0434C17.9389 22.0106 18.4115 24.6592 18.4115 27.8995C18.4115 28.7567 19.109 29.4673 19.9793 29.4673C29.4292 29.4673 29.8053 29.7721 30.3657 28.5312C30.5495 28.1115 30.4991 28.2449 30.4991 24.2302C30.4991 21.0415 27.7381 18.8302 25.5213 18.8302ZM32.8764 18.8123C31.7495 18.8123 30.8766 18.7082 29.9086 19.5013C32.235 21.8765 31.8422 24.2439 31.8422 27.8995C31.8422 28.0926 31.5287 28.0347 34.5525 28.0347C35.3046 28.0347 35.9162 27.4254 35.9162 26.6764V21.8337C35.9162 20.1679 34.5525 18.8123 32.8764 18.8123Z" fill="#A3B8E0"/>
<mask id="mask0_2629_29959" style="mask-type:alpha" maskUnits="userSpaceOnUse" x="13" y="9" width="23" height="21">
<path d="M24.4574 17.2898C26.6085 17.2898 28.3523 15.546 28.3523 13.3949C28.3523 11.2438 26.6085 9.5 24.4574 9.5C22.3063 9.5 20.5625 11.2438 20.5625 13.3949C20.5625 15.546 22.3063 17.2898 24.4574 17.2898Z" fill="#A3B8E0"/>
<path d="M32.3373 17.2879C33.6972 17.2879 34.7996 16.1855 34.7996 14.8256C34.7996 13.4657 33.6972 12.3633 32.3373 12.3633C30.9774 12.3633 29.875 13.4657 29.875 14.8256C29.875 16.1855 30.9774 17.2879 32.3373 17.2879Z" fill="#A3B8E0"/>
<path d="M16.5795 17.2879C17.9394 17.2879 19.0418 16.1855 19.0418 14.8256C19.0418 13.4657 17.9394 12.3633 16.5795 12.3633C15.2196 12.3633 14.1172 13.4657 14.1172 14.8256C14.1172 16.1855 15.2196 17.2879 16.5795 17.2879Z" fill="#A3B8E0"/>
<path d="M19.0075 19.4983C18.0383 18.7042 17.1605 18.8093 16.0398 18.8093C14.3637 18.8093 13 20.1649 13 21.8308V26.72C13 27.4434 13.5905 28.0317 14.3167 28.0317C17.4516 28.0317 17.074 28.0884 17.074 27.8965C17.074 24.432 16.6636 21.8913 19.0075 19.4983Z" fill="#A3B8E0"/>
<path d="M25.5213 18.8302C23.5638 18.6669 21.8623 18.8321 20.3948 20.0434C17.9389 22.0106 18.4115 24.6592 18.4115 27.8995C18.4115 28.7567 19.109 29.4673 19.9793 29.4673C29.4292 29.4673 29.8053 29.7721 30.3657 28.5312C30.5495 28.1115 30.4991 28.2449 30.4991 24.2302C30.4991 21.0415 27.7381 18.8302 25.5213 18.8302ZM32.8764 18.8123C31.7495 18.8123 30.8766 18.7082 29.9086 19.5013C32.235 21.8765 31.8422 24.2439 31.8422 27.8995C31.8422 28.0926 31.5287 28.0347 34.5525 28.0347C35.3046 28.0347 35.9162 27.4254 35.9162 26.6764V21.8337C35.9162 20.1679 34.5525 18.8123 32.8764 18.8123Z" fill="#A3B8E0"/>
</mask>
<g mask="url(#mask0_2629_29959)">
<path d="M20.5 9.5H29V18.0714L30.5 22L31 29.5H18V22L20.5 18.0714V9.5Z" fill="#7694D2"/>
</g>
</g>
<defs>
<filter id="filter0_d_2629_29959" x="0" y="0.5" width="48" height="48" filterUnits="userSpaceOnUse" color-interpolation-filters="sRGB">
<feFlood flood-opacity="0" result="BackgroundImageFix"/>
<feColorMatrix in="SourceAlpha" type="matrix" values="0 0 0 0 0 0 0 0 0 0 0 0 0 0 0 0 0 0 127 0" result="hardAlpha"/>
<feOffset dy="4"/>
<feGaussianBlur stdDeviation="2"/>
<feComposite in2="hardAlpha" operator="out"/>
<feColorMatrix type="matrix" values="0 0 0 0 0 0 0 0 0 0 0 0 0 0 0 0 0 0 0.25 0"/>
<feBlend mode="normal" in2="BackgroundImageFix" result="effect1_dropShadow_2629_29959"/>
<feBlend mode="normal" in="SourceGraphic" in2="effect1_dropShadow_2629_29959" result="shape"/>
</filter>
</defs>
</svg>
