<svg width="25" height="24" viewBox="0 0 25 24" fill="none" xmlns="http://www.w3.org/2000/svg">
<path d="M7.80968 10.7995C7.57235 10.7995 7.34035 10.8699 7.14302 11.0017C6.94569 11.1336 6.79189 11.321 6.70107 11.5403C6.61025 11.7595 6.58648 12.0008 6.63278 12.2336C6.67909 12.4663 6.79337 12.6801 6.96118 12.848C7.129 13.0158 7.34281 13.1301 7.57558 13.1764C7.80834 13.2227 8.04961 13.1989 8.26888 13.1081C8.48814 13.0173 8.67554 12.8635 8.80739 12.6661C8.93925 12.4688 9.00962 12.2368 9.00962 11.9995C9.00962 11.6812 8.8832 11.376 8.65817 11.151C8.43313 10.9259 8.12792 10.7995 7.80968 10.7995ZM12.6095 10.7995C12.3721 10.7995 12.1401 10.8699 11.9428 11.0017C11.7455 11.1336 11.5917 11.321 11.5009 11.5403C11.41 11.7595 11.3863 12.0008 11.4326 12.2336C11.4789 12.4663 11.5932 12.6801 11.761 12.848C11.9288 13.0158 12.1426 13.1301 12.3754 13.1764C12.6081 13.2227 12.8494 13.1989 13.0687 13.1081C13.2879 13.0173 13.4753 12.8635 13.6072 12.6661C13.739 12.4688 13.8094 12.2368 13.8094 11.9995C13.8094 11.6812 13.683 11.376 13.458 11.151C13.2329 10.9259 12.9277 10.7995 12.6095 10.7995ZM17.4093 10.7995C17.1719 10.7995 16.9399 10.8699 16.7426 11.0017C16.5453 11.1336 16.3915 11.321 16.3006 11.5403C16.2098 11.7595 16.1861 12.0008 16.2324 12.2336C16.2787 12.4663 16.3929 12.6801 16.5608 12.848C16.7286 13.0158 16.9424 13.1301 17.1752 13.1764C17.4079 13.2227 17.6492 13.1989 17.8685 13.1081C18.0877 13.0173 18.2751 12.8635 18.407 12.6661C18.5388 12.4688 18.6092 12.2368 18.6092 11.9995C18.6092 11.6812 18.4828 11.376 18.2577 11.151C18.0327 10.9259 17.7275 10.7995 17.4093 10.7995ZM12.6095 0C11.0337 0 9.47331 0.310375 8.01746 0.913405C6.56162 1.51643 5.23881 2.40031 4.12456 3.51456C1.87422 5.7649 0.609994 8.81701 0.609994 11.9995C0.599504 14.7703 1.5589 17.4575 3.32187 19.5951L0.92198 21.995C0.755478 22.1638 0.642688 22.378 0.597841 22.6108C0.552994 22.8436 0.5781 23.0844 0.669991 23.303C0.769656 23.5189 0.931225 23.7003 1.13419 23.8242C1.33715 23.9481 1.57235 24.0089 1.80994 23.9989H12.6095C15.7919 23.9989 18.844 22.7347 21.0944 20.4844C23.3447 18.234 24.6089 15.1819 24.6089 11.9995C24.6089 8.81701 23.3447 5.7649 21.0944 3.51456C18.844 1.26423 15.7919 0 12.6095 0ZM12.6095 21.599H4.70181L5.81776 20.4831C5.93114 20.372 6.02134 20.2394 6.08314 20.0932C6.14493 19.9469 6.17709 19.7899 6.17775 19.6311C6.17324 19.3146 6.04385 19.0127 5.81776 18.7912C4.24654 17.2217 3.26809 15.156 3.04912 12.946C2.83014 10.736 3.3842 8.51843 4.61689 6.67113C5.84958 4.82383 7.68463 3.46108 9.80941 2.81504C11.9342 2.16901 14.2172 2.27966 16.2696 3.12816C18.3219 3.97665 20.0166 5.51049 21.0648 7.46834C22.1131 9.42619 22.4501 11.6869 22.0184 13.8654C21.5867 16.0439 20.4131 18.0053 18.6974 19.4154C16.9818 20.8256 14.8303 21.5973 12.6095 21.599Z" fill="#9CADC6"/>
</svg>
