<svg width="9" height="10" viewBox="0 0 9 10" fill="none" xmlns="http://www.w3.org/2000/svg">
<path d="M5.08108 7.28586L5.08103 7.28583L2.79564 5.85746C2.79559 5.85742 2.79554 5.85739 2.79548 5.85736C2.73323 5.81906 2.68518 5.76148 2.65862 5.69338C2.63205 5.62523 2.62846 5.55025 2.64842 5.47987C2.66837 5.40948 2.71076 5.34754 2.76916 5.30347C2.82753 5.25941 2.89869 5.23562 2.97182 5.23571C2.97184 5.23571 2.97187 5.23571 2.97189 5.23571M5.08108 7.28586L2.97182 5.28571L2.97189 5.23571M5.08108 7.28586C5.15674 7.33303 5.24805 7.34822 5.33491 7.32808C5.42177 7.30794 5.49707 7.25412 5.54425 7.17845C5.59143 7.10279 5.60662 7.01149 5.58647 6.92463C5.56633 6.83777 5.51251 6.76246 5.43685 6.71529L4.10294 5.88146C4.36727 5.83144 4.61392 5.71012 4.81558 5.52943C5.04187 5.32668 5.20005 5.05947 5.26917 4.76429H5.82896C5.918 4.76429 6.00339 4.72892 6.06635 4.66596C6.12931 4.603 6.16468 4.51761 6.16468 4.42857C6.16468 4.33953 6.12931 4.25414 6.06635 4.19118C6.00339 4.12823 5.918 4.09286 5.82896 4.09286H5.26861C5.22803 3.9246 5.15801 3.76501 5.06192 3.62143H5.82896C5.918 3.62143 6.00339 3.58606 6.06635 3.5231C6.12931 3.46014 6.16468 3.37475 6.16468 3.28571C6.16468 3.19668 6.12931 3.11129 6.06635 3.04833C6.00339 2.98537 5.918 2.95 5.82896 2.95H2.97182C2.88278 2.95 2.79739 2.98537 2.73443 3.04833C2.67148 3.11129 2.63611 3.19668 2.63611 3.28571C2.63611 3.37475 2.67148 3.46014 2.73443 3.5231C2.79739 3.58606 2.88278 3.62143 2.97182 3.62143H3.82887C3.99517 3.62214 4.15719 3.67421 4.29278 3.7705C4.40879 3.8529 4.5006 3.96422 4.55943 4.09286H2.97182C2.88278 4.09286 2.79739 4.12823 2.73443 4.19118C2.67148 4.25414 2.63611 4.33953 2.63611 4.42857C2.63611 4.51761 2.67148 4.603 2.73443 4.66596C2.79739 4.72892 2.88278 4.76429 2.97182 4.76429H4.55943C4.5006 4.89292 4.40879 5.00425 4.29278 5.08664C4.15719 5.18294 3.99517 5.235 3.82887 5.23571M5.08108 7.28586L3.82887 5.23571M2.97189 5.23571H3.82876M2.97189 5.23571H3.82876M3.82876 5.23571C3.82879 5.23571 3.82883 5.23571 3.82887 5.23571M3.82876 5.23571L3.82887 5.23571M4.40045 0.95H4.40039C3.59938 0.95 2.81635 1.18753 2.15033 1.63255C1.48431 2.07757 0.965215 2.71009 0.65868 3.45013C0.352145 4.19017 0.271942 5.00449 0.428212 5.79011C0.584482 6.57574 0.970207 7.29738 1.53661 7.86378C2.10301 8.43018 2.82465 8.81591 3.61028 8.97218C4.3959 9.12845 5.21022 9.04825 5.95026 8.74171C6.6903 8.43518 7.32282 7.91608 7.76784 7.25006C8.21286 6.58404 8.45039 5.80101 8.45039 5V4.99995C8.44924 3.92619 8.02218 2.89673 7.26292 2.13747C6.50366 1.37821 5.47421 0.951149 4.40045 0.95ZM4.40034 8.37857C3.73214 8.37856 3.07895 8.18041 2.52336 7.80918C1.96776 7.43794 1.53472 6.91028 1.279 6.29292C1.02328 5.67557 0.956376 4.99625 1.08674 4.34087C1.2171 3.68549 1.53888 3.08349 2.01138 2.61099C2.48388 2.13849 3.08589 1.81671 3.74127 1.68635C4.39664 1.55598 5.07596 1.62289 5.69332 1.87861C6.31067 2.13432 6.83833 2.56736 7.20957 3.12297C7.5808 3.67855 7.77895 4.33175 7.77896 4.99995C7.77799 5.89571 7.42172 6.75452 6.78832 7.38792C6.15491 8.02133 5.29611 8.3776 4.40034 8.37857Z" fill="#A3B8E0" stroke="#A3B8E0" stroke-width="0.1"/>
</svg>
