<svg width="16" height="16" viewBox="0 0 16 16" fill="none" xmlns="http://www.w3.org/2000/svg">
<path d="M8.46874 10.8125C8.72758 10.8125 8.93749 10.6026 8.93749 10.3437V8.46875C8.93749 8.2099 8.72768 8 8.46874 8H7.53125C7.2724 8 7.0625 8.20981 7.0625 8.46875V10.3437C7.0625 10.6026 7.27237 10.8125 7.53125 10.8125H8.46874Z" fill="white"/>
<path d="M14.5936 2.84374H11.2812V2.37499C11.2812 1.59956 10.6504 0.96875 9.87493 0.96875H6.12496C5.34952 0.96875 4.71872 1.59953 4.71872 2.37499V2.84374H1.40624C0.630808 2.84374 0 3.47451 0 4.24998C0 5.168 0.112499 5.97196 0.335873 6.65712C0.559246 7.34227 0.893525 7.90864 1.33712 8.35151C2.08358 9.09697 3.03438 9.40619 4.102 9.40619H6.12496V8.4687C6.12496 7.69326 6.75573 7.06246 7.5312 7.06246H8.46869C9.24412 7.06246 9.87493 7.69323 9.87493 8.4687V9.40619H10.9165C11.8496 9.36741 13.3759 9.65116 14.6623 8.37073C15.1061 7.92898 15.4405 7.36161 15.6639 6.67324C15.8874 5.98487 15.9999 5.17556 15.9999 4.24998C15.9999 3.47454 15.3691 2.84374 14.5936 2.84374ZM5.65621 2.37499C5.65621 2.11637 5.8663 1.90624 6.12496 1.90624H9.87493C10.1336 1.90624 10.3437 2.11634 10.3437 2.37499V2.84374H5.65621V2.37499Z" fill="white"/>
<path d="M10.9293 10.3443H9.87493C9.87493 11.1198 9.24415 11.7506 8.46869 11.7506H7.5312C6.75576 11.7506 6.12496 11.1198 6.12496 10.3443H4.1061C2.7691 10.3443 1.59477 9.93407 0.674714 9.01545C0.414809 8.75599 0.192874 8.46383 0 8.15137V14.563C0 14.8221 0.209655 15.0318 0.468747 15.0318H15.5311C15.7902 15.0318 15.9999 14.8221 15.9999 14.563V8.17065C15.8044 8.48786 15.5816 8.77933 15.3238 9.03605C13.8447 10.5074 12.2695 10.281 10.9293 10.3443Z" fill="white"/>
</svg>
