<svg width="16" height="14" viewBox="0 0 16 14" fill="none" xmlns="http://www.w3.org/2000/svg">
<path d="M5.39829 5.18813C5.48164 5.23961 5.57676 5.26896 5.67463 5.27339C5.77249 5.27782 5.86987 5.25719 5.95753 5.21344L6.98683 4.69851H9.7278C10.033 4.69851 10.3257 4.57727 10.5415 4.36147C10.7573 4.14567 10.8785 3.85299 10.8785 3.5478V1.2464C10.8785 0.941219 10.7573 0.648534 10.5415 0.432735C10.3257 0.216937 10.033 0.0957031 9.7278 0.0957031H6.2757C5.97052 0.0957031 5.67783 0.216937 5.46203 0.432735C5.24623 0.648534 5.125 0.941219 5.125 1.2464V4.69851C5.12501 4.79665 5.15013 4.89316 5.19796 4.97886C5.2458 5.06456 5.31476 5.1366 5.39829 5.18813Z" fill="white"/>
<path d="M3.97328 10.4524C5.2443 10.4524 6.27468 9.42204 6.27468 8.15101C6.27468 6.87998 5.2443 5.84961 3.97328 5.84961C2.70225 5.84961 1.67188 6.87998 1.67188 8.15101C1.67188 9.42204 2.70225 10.4524 3.97328 10.4524Z" fill="white"/>
<path d="M6.65368 10.3252C6.33003 10.7243 5.92137 11.046 5.45753 11.2671C4.99369 11.4881 4.48636 11.6028 3.97255 11.6028C3.45874 11.6028 2.95141 11.4881 2.48757 11.2671C2.02372 11.046 1.61507 10.7243 1.29142 10.3252C0.63494 10.9103 0.188307 11.6944 0.0198912 12.5576C-0.0109915 12.7189 -0.00586083 12.8851 0.034917 13.0442C0.0756949 13.2033 0.151113 13.3515 0.255785 13.4781C0.364818 13.6108 0.501804 13.7177 0.656958 13.7913C0.812113 13.8649 0.981606 13.9034 1.15333 13.9039H6.79176C6.96349 13.9034 7.13298 13.8649 7.28814 13.7913C7.44329 13.7177 7.58028 13.6108 7.68931 13.4781C7.79426 13.3517 7.86986 13.2035 7.91065 13.0443C7.95144 12.8851 7.95641 12.7189 7.9252 12.5576C7.75679 11.6944 7.31015 10.9103 6.65368 10.3252Z" fill="white"/>
<path d="M12.028 10.4524C13.299 10.4524 14.3294 9.42204 14.3294 8.15101C14.3294 6.87998 13.299 5.84961 12.028 5.84961C10.7569 5.84961 9.72656 6.87998 9.72656 8.15101C9.72656 9.42204 10.7569 10.4524 12.028 10.4524Z" fill="white"/>
<path d="M15.9802 12.5576C15.8118 11.6944 15.3652 10.9103 14.7087 10.3252C14.385 10.7243 13.9764 11.046 13.5125 11.2671C13.0487 11.4881 12.5414 11.6028 12.0276 11.6028C11.5138 11.6028 11.0064 11.4881 10.5426 11.2671C10.0787 11.046 9.67009 10.7243 9.34643 10.3252C8.68996 10.9103 8.24332 11.6944 8.07491 12.5576C8.0437 12.7189 8.04867 12.8851 8.08946 13.0443C8.13025 13.2035 8.20585 13.3517 8.3108 13.4781C8.41983 13.6108 8.55682 13.7177 8.71197 13.7913C8.86713 13.8649 9.03662 13.9034 9.20835 13.9039H14.8468C15.0185 13.9034 15.188 13.8649 15.3432 13.7913C15.4983 13.7177 15.6353 13.6108 15.7443 13.4781C15.849 13.3515 15.9244 13.2033 15.9652 13.0442C16.006 12.8851 16.0111 12.7189 15.9802 12.5576Z" fill="white"/>
</svg>
