<svg width="20" height="19" viewBox="0 0 20 19" fill="none" xmlns="http://www.w3.org/2000/svg">
<path d="M10 18.8093C14.968 18.8093 19 14.7773 19 9.80933C19 4.84133 14.968 0.809326 10 0.809326C5.032 0.809326 1 4.84133 1 9.80933C1 14.7773 5.032 18.8093 10 18.8093ZM10 2.60933C13.978 2.60933 17.2 5.83133 17.2 9.80933C17.2 11.4743 16.633 13.0043 15.679 14.2193L5.59 4.13033C6.805 3.17633 8.335 2.60933 10 2.60933ZM4.321 5.39933L14.41 15.4883C13.195 16.4423 11.665 17.0093 10 17.0093C6.022 17.0093 2.8 13.7873 2.8 9.80933C2.8 8.14433 3.367 6.61433 4.321 5.39933Z" fill="#A3B8E0" stroke="#A3B8E0" stroke-width="0.27"/>
</svg>
