<svg width="22" height="24" viewBox="0 0 22 24" fill="none" xmlns="http://www.w3.org/2000/svg">
<path d="M21.0117 15.8483L18.8518 13.6764V8.32473C18.8806 6.33744 18.1893 4.40686 16.9057 2.88947C15.6221 1.37207 13.8328 0.370336 11.8682 0.0692322C10.7281 -0.0809182 9.56902 0.0138134 8.46837 0.347106C7.36773 0.680399 6.35082 1.24459 5.48549 2.00203C4.62017 2.75947 3.92633 3.69275 3.45028 4.73958C2.97422 5.78642 2.72689 6.92275 2.72479 8.07275V13.6764L0.564921 15.8483C0.293624 16.1241 0.109649 16.4738 0.035993 16.8536C-0.0376625 17.2334 0.00227028 17.6265 0.150799 17.9837C0.299328 18.341 0.549862 18.6465 0.871083 18.8621C1.1923 19.0777 1.56996 19.1939 1.95684 19.1961H5.98859V19.6041C6.04464 20.8222 6.5813 21.9685 7.48098 22.7917C8.38065 23.6149 9.56996 24.0479 10.7883 23.9958C12.0066 24.0479 13.196 23.6149 14.0956 22.7917C14.9953 21.9685 15.532 20.8222 15.588 19.6041V19.1961H19.6198C20.0067 19.1939 20.3843 19.0777 20.7055 18.8621C21.0267 18.6465 21.2773 18.341 21.4258 17.9837C21.5743 17.6265 21.6143 17.2334 21.5406 16.8536C21.467 16.4738 21.283 16.1241 21.0117 15.8483ZM13.1882 19.6041C13.1216 20.1812 12.835 20.7105 12.3879 21.0815C11.9408 21.4526 11.3679 21.6368 10.7883 21.5959C10.2088 21.6368 9.63577 21.4526 9.18872 21.0815C8.74166 20.7105 8.455 20.1812 8.38845 19.6041V19.1961H13.1882V19.6041ZM3.00077 16.7962L4.41669 15.3803C4.64128 15.1571 4.81946 14.8916 4.94096 14.5991C5.06247 14.3067 5.1249 13.9931 5.12465 13.6764V8.07275C5.1253 7.26328 5.2991 6.46331 5.63437 5.72654C5.96964 4.98977 6.45863 4.33324 7.06853 3.80101C7.6702 3.25586 8.38314 2.84796 9.15801 2.60556C9.93289 2.36315 10.7512 2.29202 11.5563 2.39709C12.944 2.62241 14.2035 3.34145 15.1031 4.42182C16.0027 5.5022 16.4817 6.87119 16.452 8.27674V13.6764C16.4501 13.9922 16.5107 14.3053 16.6301 14.5977C16.7495 14.8901 16.9255 15.1561 17.1479 15.3803L18.5758 16.7962H3.00077Z" fill="#9CADC6"/>
</svg>
