<svg width="16" height="14" viewBox="0 0 16 14" fill="none" xmlns="http://www.w3.org/2000/svg">
<path d="M2.44599 0.88775H2.44465C2.37012 0.88759 2.2963 0.902194 2.22746 0.93072C2.15861 0.959245 2.09609 1.00113 2.04351 1.05395C1.98991 1.10714 1.94742 1.17046 1.91849 1.24022C1.88956 1.30998 1.87478 1.38479 1.875 1.4603V10.0457C1.875 10.3605 2.13213 10.6172 2.44826 10.618C3.78095 10.6212 6.01374 10.899 7.55405 12.5109V3.52609C7.55405 3.41937 7.52679 3.31911 7.47534 3.23615C6.21112 1.20021 3.7817 0.890875 2.44599 0.88775ZM14.122 10.0457V1.46025C14.122 1.30661 14.0621 1.16228 13.9535 1.05389C13.9009 1.00109 13.8384 0.959213 13.7696 0.930688C13.7007 0.902164 13.6269 0.887552 13.5524 0.887696H13.551C12.2153 0.890875 9.78592 1.20021 8.52165 3.23615C8.4702 3.31911 8.443 3.41937 8.443 3.52609V12.5108C9.98331 10.8989 12.2161 10.6212 13.5488 10.618C13.8649 10.6172 14.122 10.3604 14.122 10.0457Z" fill="white"/>
<path d="M15.4276 2.86914H15.0124V10.0471C15.0124 10.851 14.3575 11.5064 13.5524 11.5084C12.422 11.5111 10.5581 11.7321 9.23812 12.9815C11.5211 12.4225 13.9278 12.7859 15.2994 13.0985C15.3834 13.1178 15.4707 13.1179 15.5548 13.0988C15.6389 13.0796 15.7175 13.0417 15.7848 12.9878C15.8521 12.9343 15.9064 12.8663 15.9437 12.7889C15.981 12.7114 16.0002 12.6266 16 12.5406V3.44159C16.0001 3.12595 15.7432 2.86914 15.4276 2.86914ZM0.987586 10.0471V2.86914H0.572446C0.256863 2.86914 0 3.12595 0 3.44159V12.5404C0 12.7155 0.078438 12.8785 0.215166 12.9876C0.282472 13.0415 0.361114 13.0795 0.44519 13.0987C0.529265 13.1178 0.61659 13.1177 0.700608 13.0983C2.0722 12.7857 4.47894 12.4224 6.76183 12.9813C5.44185 11.732 3.57798 11.5111 2.44758 11.5084C1.64256 11.5064 0.987586 10.851 0.987586 10.0471Z" fill="white"/>
</svg>
