<svg width="25" height="24" viewBox="0 0 25 24" fill="none" xmlns="http://www.w3.org/2000/svg">
<path d="M3.00942 24C2.57021 24 2.1334 23.88 1.747 23.6424C1.39941 23.4267 1.11254 23.126 0.91349 22.7686C0.714438 22.4112 0.609771 22.009 0.609375 21.6V2.39961C0.609375 1.5668 1.04138 0.793984 1.747 0.357176C2.09535 0.142999 2.49245 0.0209353 2.90096 0.00246201C3.30947 -0.0160113 3.71597 0.0697126 4.08224 0.251575L23.2826 9.85175C23.6812 10.0514 24.0165 10.3581 24.2507 10.7375C24.485 11.1168 24.6091 11.5539 24.6091 11.9998C24.6091 12.4457 24.485 12.8827 24.2507 13.2621C24.0165 13.6415 23.6812 13.9481 23.2826 14.1478L4.08224 23.748C3.74623 23.916 3.37422 24 3.00942 24Z" fill="#F0F4FA"/>
</svg>
