<svg width="33" height="33" viewBox="0 0 33 33" fill="none" xmlns="http://www.w3.org/2000/svg">
<circle cx="16.5" cy="16.5" r="15.5" fill="#D2DCF0" stroke="white" stroke-width="2"/>
<path fill-rule="evenodd" clip-rule="evenodd" d="M17.95 10.7C17.95 9.89919 17.3008 9.25 16.5 9.25C15.6992 9.25 15.05 9.89919 15.05 10.7L15.05 15.05H10.7C9.89919 15.05 9.25 15.6992 9.25 16.5C9.25 17.3008 9.89919 17.95 10.7 17.95H15.05L15.05 22.3C15.05 23.1008 15.6992 23.75 16.5 23.75C17.3008 23.75 17.95 23.1008 17.95 22.3V17.95H22.3C23.1008 17.95 23.75 17.3008 23.75 16.5C23.75 15.6992 23.1008 15.05 22.3 15.05H17.95V10.7Z" fill="white"/>
</svg>
