<svg width="25" height="24" viewBox="0 0 25 24" fill="none" xmlns="http://www.w3.org/2000/svg">
<path d="M8.2003 10.7995C7.96297 10.7995 7.73098 10.8699 7.53365 11.0017C7.33632 11.1336 7.18252 11.321 7.09169 11.5403C7.00087 11.7595 6.97711 12.0008 7.02341 12.2336C7.06971 12.4663 7.18399 12.6801 7.35181 12.848C7.51963 13.0158 7.73344 13.1301 7.9662 13.1764C8.19897 13.2227 8.44024 13.1989 8.6595 13.1081C8.87876 13.0173 9.06617 12.8635 9.19802 12.6661C9.32987 12.4688 9.40025 12.2368 9.40025 11.9995C9.40025 11.6812 9.27382 11.376 9.04879 11.151C8.82376 10.9259 8.51855 10.7995 8.2003 10.7995ZM13.0001 10.7995C12.7628 10.7995 12.5308 10.8699 12.3334 11.0017C12.1361 11.1336 11.9823 11.321 11.8915 11.5403C11.8007 11.7595 11.7769 12.0008 11.8232 12.2336C11.8695 12.4663 11.9838 12.6801 12.1516 12.848C12.3194 13.0158 12.5332 13.1301 12.766 13.1764C12.9988 13.2227 13.24 13.1989 13.4593 13.1081C13.6785 13.0173 13.866 12.8635 13.9978 12.6661C14.1297 12.4688 14.2 12.2368 14.2 11.9995C14.2 11.6812 14.0736 11.376 13.8486 11.151C13.6235 10.9259 13.3183 10.7995 13.0001 10.7995ZM17.7999 10.7995C17.5625 10.7995 17.3306 10.8699 17.1332 11.0017C16.9359 11.1336 16.7821 11.321 16.6913 11.5403C16.6004 11.7595 16.5767 12.0008 16.623 12.2336C16.6693 12.4663 16.7836 12.6801 16.9514 12.848C17.1192 13.0158 17.333 13.1301 17.5658 13.1764C17.7985 13.2227 18.0398 13.1989 18.2591 13.1081C18.4783 13.0173 18.6657 12.8635 18.7976 12.6661C18.9294 12.4688 18.9998 12.2368 18.9998 11.9995C18.9998 11.6812 18.8734 11.376 18.6484 11.151C18.4233 10.9259 18.1181 10.7995 17.7999 10.7995ZM13.0001 0C11.4243 0 9.86393 0.310375 8.40809 0.913405C6.95225 1.51643 5.62944 2.40031 4.51518 3.51456C2.26485 5.7649 1.00062 8.81701 1.00062 11.9995C0.990129 14.7703 1.94953 17.4575 3.7125 19.5951L1.31261 21.995C1.1461 22.1638 1.03331 22.378 0.988466 22.6108C0.943619 22.8436 0.968725 23.0844 1.06062 23.303C1.16028 23.5189 1.32185 23.7003 1.52481 23.8242C1.72777 23.9481 1.96298 24.0089 2.20057 23.9989H13.0001C16.1825 23.9989 19.2347 22.7347 21.485 20.4844C23.7353 18.234 24.9996 15.1819 24.9996 11.9995C24.9996 8.81701 23.7353 5.7649 21.485 3.51456C19.2347 1.26423 16.1825 0 13.0001 0ZM13.0001 21.599H5.09244L6.20839 20.4831C6.32177 20.372 6.41197 20.2394 6.47376 20.0932C6.53556 19.9469 6.56771 19.7899 6.56837 19.6311C6.56386 19.3146 6.43448 19.0127 6.20839 18.7912C4.63716 17.2217 3.65871 15.156 3.43974 12.946C3.22077 10.736 3.77483 8.51843 5.00751 6.67113C6.2402 4.82383 8.07525 3.46108 10.2 2.81504C12.3248 2.16901 14.6078 2.27966 16.6602 3.12816C18.7125 3.97665 20.4072 5.51049 21.4554 7.46834C22.5037 9.42619 22.8407 11.6869 22.409 13.8654C21.9774 16.0439 20.8037 18.0053 19.0881 19.4154C17.3724 20.8256 15.2209 21.5973 13.0001 21.599Z" fill="#A3B8E0"/>
</svg>
