<svg width="20" height="20" viewBox="0 0 20 20" fill="none" xmlns="http://www.w3.org/2000/svg">
<path d="M10 8.07153C11.8769 8.07153 13.3984 6.55 13.3984 4.6731C13.3984 2.79619 11.8769 1.27466 10 1.27466C8.12309 1.27466 6.60156 2.79619 6.60156 4.6731C6.60156 6.55 8.12309 8.07153 10 8.07153Z" fill="#A3B8E0"/>
<path d="M16.875 8.07141C18.0615 8.07141 19.0234 7.10952 19.0234 5.92297C19.0234 4.73642 18.0615 3.77454 16.875 3.77454C15.6885 3.77454 14.7266 4.73642 14.7266 5.92297C14.7266 7.10952 15.6885 8.07141 16.875 8.07141Z" fill="#A3B8E0"/>
<path d="M3.125 8.07141C4.31155 8.07141 5.27344 7.10952 5.27344 5.92297C5.27344 4.73642 4.31155 3.77454 3.125 3.77454C1.93845 3.77454 0.976562 4.73642 0.976562 5.92297C0.976562 7.10952 1.93845 8.07141 3.125 8.07141Z" fill="#A3B8E0"/>
<path d="M5.2418 10.0008C4.39609 9.30787 3.6302 9.39959 2.65234 9.39959C1.18984 9.39959 0 10.5824 0 12.0359V16.3019C0 16.9332 0.515234 17.4465 1.14883 17.4465C3.88422 17.4465 3.55469 17.496 3.55469 17.3285C3.55469 14.3056 3.19664 12.0888 5.2418 10.0008Z" fill="#A3B8E0"/>
<path d="M10.9307 9.41523C9.22271 9.27277 7.73814 9.41687 6.45763 10.4738C4.31478 12.1902 4.72717 14.5013 4.72717 17.3285C4.72717 18.0765 5.33576 18.6965 6.09513 18.6965C14.3405 18.6965 14.6687 18.9625 15.1576 17.8797C15.318 17.5135 15.274 17.6299 15.274 14.127C15.274 11.3447 12.8649 9.41523 10.9307 9.41523ZM17.3483 9.39961C16.3651 9.39961 15.6034 9.30883 14.7588 10.0008C16.7887 12.0733 16.4459 14.1389 16.4459 17.3285C16.4459 17.497 16.1724 17.4465 18.8108 17.4465C19.467 17.4465 20.0006 16.9148 20.0006 16.2613V12.0359C20.0006 10.5824 18.8108 9.39961 17.3483 9.39961Z" fill="#A3B8E0"/>
</svg>
