<svg width="147" height="147" viewBox="0 0 147 147" fill="none" xmlns="http://www.w3.org/2000/svg">
<rect width="146.25" height="146.25" rx="73.125" fill="#A3B8E0"/>
<path fill-rule="evenodd" clip-rule="evenodd" d="M73.125 0C32.7392 0 0 32.7392 0 73.125C0 89.4308 5.33698 104.49 14.3594 116.651C22.9688 102.385 36.5703 91.8104 52.7245 86.8396C52.91 86.7823 53.1077 86.7761 53.2965 86.8218C53.4852 86.8675 53.6579 86.9634 53.7959 87.0991C60.1109 93.2762 70.7335 100.146 73.2553 101.745C75.6178 100.343 85.0679 94.5387 92.673 87.0991C92.811 86.9633 92.9836 86.8675 93.1724 86.8217C93.3612 86.776 93.5589 86.7822 93.7444 86.8396C109.835 91.7904 123.395 102.303 132.012 116.487C140.961 104.354 146.25 89.3573 146.25 73.125C146.25 32.7392 113.511 0 73.125 0ZM46.3973 42.0414C46.3973 27.3573 58.4352 15.4106 73.2355 15.4106C88.037 15.4106 100.074 27.3573 100.074 42.0414V55.8381C100.074 70.5234 88.037 82.47 73.2355 82.47C58.4352 82.47 46.3973 70.5234 46.3973 55.8381V42.0414ZM108.582 126.153C109.173 126.153 109.737 125.704 109.737 125.116V118.716C109.737 118.129 109.173 117.632 108.582 117.632H101.241C100.647 117.632 100.074 117.175 100.074 116.586V109.097C100.074 108.51 99.6848 108.047 99.0936 108.047H92.6357C92.0434 108.047 91.4852 108.51 91.4852 109.097V116.564C91.4852 117.153 91.0808 117.633 90.4885 117.633H82.9065C82.3142 117.633 81.8241 118.107 81.8241 118.695V125.116C81.8241 125.703 82.3142 126.153 82.9065 126.153H90.4885C91.0808 126.153 91.4852 126.659 91.4874 127.246V134.705C91.4874 135.291 92.0456 135.739 92.6379 135.739H99.1661C99.7584 135.739 100.075 135.291 100.075 134.705V127.246C100.075 126.658 100.721 126.153 101.313 126.153H108.582Z" fill="#F0F4FA"/>
</svg>
