<svg width="50" height="42" viewBox="0 0 50 42" fill="none" xmlns="http://www.w3.org/2000/svg">
<path d="M25 0C18.3676 0 13 5.367 13 12C13 18.6323 18.367 24 25 24C31.6324 24 37 18.633 37 12C37 5.36761 31.633 0 25 0ZM24.6449 17.6165C23.9657 17.6165 23.4445 17.0479 23.4445 16.4002C23.4445 15.7368 23.9815 15.184 24.6449 15.184C25.3084 15.184 25.8611 15.7368 25.8611 16.4002C25.8611 17.0478 25.3241 17.6165 24.6449 17.6165ZM26.4456 11.472C25.5768 12.1512 25.561 12.6251 25.561 13.4464C25.561 13.7466 25.403 14.0941 24.6291 14.0941C23.9814 14.0941 23.7603 13.8571 23.7603 13.0358C23.7603 11.6774 24.3606 11.0297 24.8186 10.6349C25.3399 10.1925 26.2245 9.70294 26.2245 8.85C26.2245 8.12334 25.5926 7.77586 24.8028 7.77586C23.1917 7.77586 23.5392 8.99217 22.6862 8.99217C22.2597 8.99217 21.7385 8.70778 21.7385 8.0918C21.7385 7.23886 22.7178 5.97516 24.8502 5.97516C26.872 5.97516 28.2147 7.09669 28.2147 8.58145C28.2147 10.0662 26.872 11.1403 26.4456 11.472Z" fill="#3B5D8F"/>
<path d="M10.6931 40.88L8.57306 38.104L9.28506 37.632L11.3811 40.384L10.6931 40.88ZM8.91706 40.08C8.5224 40.08 8.15706 40.008 7.82106 39.864C7.4904 39.72 7.19973 39.52 6.94906 39.264C6.70373 39.0027 6.51173 38.6987 6.37306 38.352C6.23973 38 6.17306 37.616 6.17306 37.2C6.17306 36.784 6.23973 36.4027 6.37306 36.056C6.51173 35.704 6.70373 35.4 6.94906 35.144C7.19973 34.8827 7.4904 34.68 7.82106 34.536C8.15706 34.392 8.5224 34.32 8.91706 34.32C9.31173 34.32 9.6744 34.392 10.0051 34.536C10.3411 34.68 10.6317 34.8827 10.8771 35.144C11.1277 35.4053 11.3197 35.712 11.4531 36.064C11.5917 36.4107 11.6611 36.7893 11.6611 37.2C11.6611 37.6107 11.5917 37.992 11.4531 38.344C11.3197 38.6907 11.1277 38.9947 10.8771 39.256C10.6317 39.5173 10.3411 39.72 10.0051 39.864C9.6744 40.008 9.31173 40.08 8.91706 40.08ZM8.91706 39.24C9.18906 39.24 9.43706 39.1893 9.66106 39.088C9.8904 38.9867 10.0877 38.8453 10.2531 38.664C10.4184 38.4773 10.5464 38.2613 10.6371 38.016C10.7331 37.7653 10.7811 37.4933 10.7811 37.2C10.7811 36.9067 10.7331 36.6373 10.6371 36.392C10.5464 36.1413 10.4184 35.9253 10.2531 35.744C10.0877 35.5573 9.8904 35.4133 9.66106 35.312C9.43706 35.2107 9.18906 35.16 8.91706 35.16C8.64506 35.16 8.3944 35.2107 8.16506 35.312C7.94106 35.4133 7.74373 35.5547 7.57306 35.736C7.40773 35.9173 7.27973 36.1333 7.18906 36.384C7.0984 36.6293 7.05306 36.9013 7.05306 37.2C7.05306 37.4933 7.0984 37.7653 7.18906 38.016C7.27973 38.2667 7.40773 38.4827 7.57306 38.664C7.74373 38.8453 7.94106 38.9867 8.16506 39.088C8.3944 39.1893 8.64506 39.24 8.91706 39.24ZM14.0949 40.08C13.7962 40.08 13.5349 40.0107 13.3109 39.872C13.0922 39.7333 12.9215 39.5387 12.7989 39.288C12.6815 39.0373 12.6229 38.7387 12.6229 38.392V35.8H13.4469V38.168C13.4469 38.4133 13.4842 38.6267 13.5589 38.808C13.6389 38.984 13.7509 39.12 13.8949 39.216C14.0442 39.312 14.2229 39.36 14.4309 39.36C14.5855 39.36 14.7269 39.336 14.8549 39.288C14.9829 39.2347 15.0922 39.1627 15.1829 39.072C15.2789 38.9813 15.3535 38.872 15.4069 38.744C15.4602 38.616 15.4869 38.4773 15.4869 38.328V35.8H16.3109V40H15.4869V39.12L15.6309 39.024C15.5669 39.2213 15.4575 39.4 15.3029 39.56C15.1535 39.72 14.9749 39.848 14.7669 39.944C14.5589 40.0347 14.3349 40.08 14.0949 40.08ZM19.4266 40.08C18.9946 40.08 18.6106 39.9893 18.2746 39.808C17.944 39.6213 17.6826 39.368 17.4906 39.048C17.304 38.728 17.2106 38.36 17.2106 37.944C17.2106 37.6133 17.264 37.312 17.3706 37.04C17.4773 36.768 17.624 36.5333 17.8106 36.336C18.0026 36.1333 18.2293 35.9787 18.4906 35.872C18.7573 35.76 19.0453 35.704 19.3546 35.704C19.6266 35.704 19.88 35.7573 20.1146 35.864C20.3493 35.9653 20.552 36.1067 20.7226 36.288C20.8986 36.4693 21.032 36.6853 21.1226 36.936C21.2186 37.1813 21.264 37.4507 21.2586 37.744L21.2506 38.096H17.8186L17.6346 37.44H20.5386L20.4186 37.576V37.384C20.4026 37.208 20.344 37.0507 20.2426 36.912C20.1413 36.7733 20.0133 36.664 19.8586 36.584C19.704 36.504 19.536 36.464 19.3546 36.464C19.0666 36.464 18.824 36.52 18.6266 36.632C18.4293 36.7387 18.28 36.8987 18.1786 37.112C18.0773 37.32 18.0266 37.5787 18.0266 37.888C18.0266 38.1813 18.088 38.4373 18.2106 38.656C18.3333 38.8693 18.5066 39.0347 18.7306 39.152C18.9546 39.2693 19.2133 39.328 19.5066 39.328C19.7146 39.328 19.9066 39.2933 20.0826 39.224C20.264 39.1547 20.4586 39.0293 20.6666 38.848L21.0826 39.432C20.9546 39.56 20.7973 39.672 20.6106 39.768C20.4293 39.864 20.2346 39.9413 20.0266 40C19.824 40.0533 19.624 40.08 19.4266 40.08ZM23.5541 40.08C23.2021 40.08 22.8848 40.0187 22.6021 39.896C22.3195 39.7733 22.0848 39.592 21.8981 39.352L22.4581 38.872C22.6181 39.0587 22.7915 39.1947 22.9781 39.28C23.1701 39.36 23.3861 39.4 23.6261 39.4C23.7221 39.4 23.8101 39.3893 23.8901 39.368C23.9755 39.3413 24.0475 39.304 24.1061 39.256C24.1701 39.208 24.2181 39.152 24.2501 39.088C24.2821 39.0187 24.2981 38.944 24.2981 38.864C24.2981 38.7253 24.2475 38.6133 24.1461 38.528C24.0928 38.4907 24.0075 38.4507 23.8901 38.408C23.7781 38.36 23.6315 38.312 23.4501 38.264C23.1408 38.184 22.8875 38.0933 22.6901 37.992C22.4928 37.8907 22.3408 37.776 22.2341 37.648C22.1541 37.5467 22.0955 37.4373 22.0581 37.32C22.0208 37.1973 22.0021 37.064 22.0021 36.92C22.0021 36.744 22.0395 36.584 22.1141 36.44C22.1941 36.2907 22.3008 36.1627 22.4341 36.056C22.5728 35.944 22.7328 35.8587 22.9141 35.8C23.1008 35.7413 23.2981 35.712 23.5061 35.712C23.7035 35.712 23.8981 35.7387 24.0901 35.792C24.2875 35.8453 24.4688 35.9227 24.6341 36.024C24.7995 36.1253 24.9381 36.2453 25.0501 36.384L24.5781 36.904C24.4768 36.8027 24.3648 36.7147 24.2421 36.64C24.1248 36.56 24.0048 36.4987 23.8821 36.456C23.7595 36.4133 23.6475 36.392 23.5461 36.392C23.4341 36.392 23.3328 36.4027 23.2421 36.424C23.1515 36.4453 23.0741 36.4773 23.0101 36.52C22.9515 36.5627 22.9061 36.616 22.8741 36.68C22.8421 36.744 22.8261 36.816 22.8261 36.896C22.8315 36.9653 22.8475 37.032 22.8741 37.096C22.9061 37.1547 22.9488 37.2053 23.0021 37.248C23.0608 37.2907 23.1488 37.336 23.2661 37.384C23.3835 37.432 23.5328 37.4773 23.7141 37.52C23.9808 37.5893 24.1995 37.6667 24.3701 37.752C24.5461 37.832 24.6848 37.9253 24.7861 38.032C24.8928 38.1333 24.9675 38.2507 25.0101 38.384C25.0528 38.5173 25.0741 38.6667 25.0741 38.832C25.0741 39.072 25.0048 39.288 24.8661 39.48C24.7328 39.6667 24.5515 39.8133 24.3221 39.92C24.0928 40.0267 23.8368 40.08 23.5541 40.08ZM26.5023 40V34.728H27.3263V40H26.5023ZM25.6303 36.6V35.8H28.3023V36.6H25.6303ZM29.1886 40V35.8H30.0126V40H29.1886ZM29.5886 34.872C29.4126 34.872 29.2766 34.8267 29.1806 34.736C29.0846 34.6453 29.0366 34.5173 29.0366 34.352C29.0366 34.1973 29.0846 34.072 29.1806 33.976C29.2819 33.88 29.4179 33.832 29.5886 33.832C29.7646 33.832 29.9006 33.8773 29.9966 33.968C30.0926 34.0587 30.1406 34.1867 30.1406 34.352C30.1406 34.5067 30.0899 34.632 29.9886 34.728C29.8926 34.824 29.7592 34.872 29.5886 34.872ZM33.1671 40.08C32.7565 40.08 32.3885 39.9867 32.0631 39.8C31.7431 39.608 31.4898 39.3493 31.3031 39.024C31.1165 38.6933 31.0231 38.3173 31.0231 37.896C31.0231 37.4747 31.1165 37.1013 31.3031 36.776C31.4898 36.4453 31.7431 36.1867 32.0631 36C32.3885 35.808 32.7565 35.712 33.1671 35.712C33.5725 35.712 33.9351 35.808 34.2551 36C34.5805 36.1867 34.8365 36.4453 35.0231 36.776C35.2098 37.1013 35.3031 37.4747 35.3031 37.896C35.3031 38.3173 35.2098 38.6933 35.0231 39.024C34.8365 39.3493 34.5805 39.608 34.2551 39.8C33.9351 39.9867 33.5725 40.08 33.1671 40.08ZM33.1671 39.328C33.4178 39.328 33.6418 39.2667 33.8391 39.144C34.0365 39.016 34.1911 38.8453 34.3031 38.632C34.4151 38.4133 34.4685 38.168 34.4631 37.896C34.4685 37.6187 34.4151 37.3733 34.3031 37.16C34.1911 36.9413 34.0365 36.7707 33.8391 36.648C33.6418 36.5253 33.4178 36.464 33.1671 36.464C32.9165 36.464 32.6898 36.528 32.4871 36.656C32.2898 36.7787 32.1351 36.9493 32.0231 37.168C31.9111 37.3813 31.8578 37.624 31.8631 37.896C31.8578 38.168 31.9111 38.4133 32.0231 38.632C32.1351 38.8453 32.2898 39.016 32.4871 39.144C32.6898 39.2667 32.9165 39.328 33.1671 39.328ZM36.201 40V35.8H37.025V36.664L36.881 36.76C36.9343 36.5733 37.0383 36.4027 37.193 36.248C37.3477 36.088 37.5317 35.96 37.745 35.864C37.9583 35.7627 38.177 35.712 38.401 35.712C38.721 35.712 38.9877 35.776 39.201 35.904C39.4143 36.0267 39.5743 36.216 39.681 36.472C39.7877 36.728 39.841 37.0507 39.841 37.44V40H39.017V37.496C39.017 37.256 38.985 37.0587 38.921 36.904C38.857 36.744 38.7583 36.6293 38.625 36.56C38.4917 36.4853 38.3263 36.4533 38.129 36.464C37.969 36.464 37.8223 36.4907 37.689 36.544C37.5557 36.592 37.4383 36.6613 37.337 36.752C37.241 36.8427 37.1637 36.9493 37.105 37.072C37.0517 37.1893 37.025 37.3173 37.025 37.456V40H36.617C36.5477 40 36.4783 40 36.409 40C36.3397 40 36.2703 40 36.201 40ZM42.3588 40.08C42.0068 40.08 41.6895 40.0187 41.4068 39.896C41.1241 39.7733 40.8895 39.592 40.7028 39.352L41.2628 38.872C41.4228 39.0587 41.5961 39.1947 41.7828 39.28C41.9748 39.36 42.1908 39.4 42.4308 39.4C42.5268 39.4 42.6148 39.3893 42.6948 39.368C42.7801 39.3413 42.8521 39.304 42.9108 39.256C42.9748 39.208 43.0228 39.152 43.0548 39.088C43.0868 39.0187 43.1028 38.944 43.1028 38.864C43.1028 38.7253 43.0521 38.6133 42.9508 38.528C42.8975 38.4907 42.8121 38.4507 42.6948 38.408C42.5828 38.36 42.4361 38.312 42.2548 38.264C41.9455 38.184 41.6921 38.0933 41.4948 37.992C41.2975 37.8907 41.1455 37.776 41.0388 37.648C40.9588 37.5467 40.9001 37.4373 40.8628 37.32C40.8255 37.1973 40.8068 37.064 40.8068 36.92C40.8068 36.744 40.8441 36.584 40.9188 36.44C40.9988 36.2907 41.1055 36.1627 41.2388 36.056C41.3775 35.944 41.5375 35.8587 41.7188 35.8C41.9055 35.7413 42.1028 35.712 42.3108 35.712C42.5081 35.712 42.7028 35.7387 42.8948 35.792C43.0921 35.8453 43.2735 35.9227 43.4388 36.024C43.6041 36.1253 43.7428 36.2453 43.8548 36.384L43.3828 36.904C43.2815 36.8027 43.1695 36.7147 43.0468 36.64C42.9295 36.56 42.8095 36.4987 42.6868 36.456C42.5641 36.4133 42.4521 36.392 42.3508 36.392C42.2388 36.392 42.1375 36.4027 42.0468 36.424C41.9561 36.4453 41.8788 36.4773 41.8148 36.52C41.7561 36.5627 41.7108 36.616 41.6788 36.68C41.6468 36.744 41.6308 36.816 41.6308 36.896C41.6361 36.9653 41.6521 37.032 41.6788 37.096C41.7108 37.1547 41.7535 37.2053 41.8068 37.248C41.8655 37.2907 41.9535 37.336 42.0708 37.384C42.1881 37.432 42.3375 37.4773 42.5188 37.52C42.7855 37.5893 43.0041 37.6667 43.1748 37.752C43.3508 37.832 43.4895 37.9253 43.5908 38.032C43.6975 38.1333 43.7721 38.2507 43.8148 38.384C43.8575 38.5173 43.8788 38.6667 43.8788 38.832C43.8788 39.072 43.8095 39.288 43.6708 39.48C43.5375 39.6667 43.3561 39.8133 43.1268 39.92C42.8975 40.0267 42.6415 40.08 42.3588 40.08Z" fill="#747474"/>
</svg>
