<svg width="26" height="26" viewBox="0 0 26 26" fill="none" xmlns="http://www.w3.org/2000/svg">
<path fill-rule="evenodd" clip-rule="evenodd" d="M1 13C1 6.367 6.36761 1 13 1C19.633 1 25 6.36761 25 13C25 19.633 19.6324 25 13 25C6.367 25 1 19.6323 1 13ZM2.67442 13C2.67442 18.6936 7.30647 23.3256 13 23.3256C18.6936 23.3256 23.3256 18.6936 23.3256 13C23.3256 7.30642 18.6936 2.67442 13 2.67442C7.30647 2.67442 2.67442 7.30642 2.67442 13ZM11.4443 17.4001C11.4443 16.7368 11.9813 16.1839 12.6447 16.1839C13.3081 16.1839 13.8609 16.7368 13.8609 17.4001C13.8609 18.0478 13.3239 18.6165 12.6447 18.6165C11.9655 18.6165 11.4443 18.0478 11.4443 17.4001ZM9.73828 9.09174C9.73828 8.2388 10.7176 6.9751 12.85 6.9751C14.8718 6.9751 16.2144 8.09658 16.2144 9.58135C16.2144 11.0661 14.8718 12.1403 14.4454 12.4719C13.5766 13.1512 13.5608 13.625 13.5608 14.4464C13.5608 14.7466 13.4028 15.094 12.6289 15.094C11.9813 15.094 11.7601 14.8571 11.7601 14.0357C11.7601 12.6773 12.3603 12.0296 12.8184 11.6348C12.9132 11.5544 13.0199 11.4725 13.1312 11.3871C13.632 11.0025 14.2243 10.5479 14.2243 9.84994C14.2243 9.12333 13.5924 8.7758 12.8026 8.7758C11.8701 8.7758 11.5937 9.18332 11.3609 9.52659C11.1916 9.77636 11.0452 9.99211 10.686 9.99211C10.2595 9.99211 9.73828 9.70777 9.73828 9.09174Z" fill="#A3B8E0"/>
<path d="M14.4454 12.4719L14.3226 12.3141L14.3222 12.3144L14.4454 12.4719ZM12.8184 11.6348L12.689 11.4823L12.6879 11.4833L12.8184 11.6348ZM13.1312 11.3871L13.253 11.5457L13.253 11.5457L13.1312 11.3871ZM11.3609 9.52659L11.5265 9.63884L11.5265 9.63884L11.3609 9.52659ZM13 0.8C6.25716 0.8 0.8 6.25654 0.8 13H1.2C1.2 6.47746 6.47806 1.2 13 1.2V0.8ZM25.2 13C25.2 6.25716 19.7435 0.8 13 0.8V1.2C19.5225 1.2 24.8 6.47806 24.8 13H25.2ZM13 25.2C19.7428 25.2 25.2 19.7435 25.2 13H24.8C24.8 19.5225 19.5219 24.8 13 24.8V25.2ZM0.8 13C0.8 19.7427 6.25654 25.2 13 25.2V24.8C6.47746 24.8 1.2 19.5218 1.2 13H0.8ZM13 23.1256C7.41693 23.1256 2.87442 18.5831 2.87442 13H2.47442C2.47442 18.804 7.19601 23.5256 13 23.5256V23.1256ZM23.1256 13C23.1256 18.5831 18.5831 23.1256 13 23.1256V23.5256C18.804 23.5256 23.5256 18.804 23.5256 13H23.1256ZM13 2.87442C18.5831 2.87442 23.1256 7.41688 23.1256 13H23.5256C23.5256 7.19597 18.804 2.47442 13 2.47442V2.87442ZM2.87442 13C2.87442 7.41688 7.41693 2.87442 13 2.87442V2.47442C7.19601 2.47442 2.47442 7.19596 2.47442 13H2.87442ZM12.6447 15.9839C11.8675 15.9839 11.2443 16.6297 11.2443 17.4001H11.6443C11.6443 16.8438 12.0951 16.3839 12.6447 16.3839V15.9839ZM14.0609 17.4001C14.0609 16.6263 13.4186 15.9839 12.6447 15.9839V16.3839C13.1976 16.3839 13.6609 16.8472 13.6609 17.4001H14.0609ZM12.6447 18.8165C13.4378 18.8165 14.0609 18.1549 14.0609 17.4001H13.6609C13.6609 17.9408 13.2101 18.4165 12.6447 18.4165V18.8165ZM11.2443 17.4001C11.2443 18.1514 11.8483 18.8165 12.6447 18.8165V18.4165C12.0827 18.4165 11.6443 17.9442 11.6443 17.4001H11.2443ZM12.85 6.7751C10.6445 6.7751 9.53828 8.09433 9.53828 9.09174H9.93828C9.93828 8.38328 10.7906 7.1751 12.85 7.1751V6.7751ZM16.4144 9.58135C16.4144 7.94515 14.9363 6.7751 12.85 6.7751V7.1751C14.8074 7.1751 16.0144 8.24801 16.0144 9.58135H16.4144ZM14.5682 12.6298C14.7842 12.4618 15.2425 12.0981 15.6472 11.5825C16.0512 11.0677 16.4144 10.3853 16.4144 9.58135H16.0144C16.0144 10.2621 15.7064 10.8592 15.3325 11.3356C14.9592 11.8112 14.533 12.1504 14.3226 12.3141L14.5682 12.6298ZM13.7608 14.4464C13.7608 14.0295 13.7668 13.742 13.865 13.4749C13.9603 13.2158 14.1515 12.9556 14.5686 12.6295L14.3222 12.3144C13.8705 12.6675 13.6194 12.9839 13.4896 13.3368C13.3627 13.6818 13.3608 14.0419 13.3608 14.4464H13.7608ZM12.6289 15.294C13.0415 15.294 13.3322 15.2019 13.5199 15.0305C13.7115 14.8555 13.7608 14.6306 13.7608 14.4464H13.3608C13.3608 14.5623 13.3311 14.6612 13.2502 14.7351C13.1655 14.8124 12.9902 14.894 12.6289 14.894V15.294ZM11.5601 14.0357C11.5601 14.4504 11.6127 14.7807 11.7986 15.0017C11.9942 15.2341 12.2902 15.294 12.6289 15.294V14.894C12.32 14.894 12.1816 14.8355 12.1047 14.7441C12.0182 14.6413 11.9601 14.4424 11.9601 14.0357H11.5601ZM12.6879 11.4833C12.45 11.6883 12.1654 11.9673 11.9418 12.3783C11.7175 12.7906 11.5601 13.3254 11.5601 14.0357H11.9601C11.9601 13.3877 12.1029 12.9193 12.2932 12.5695C12.4842 12.2184 12.7287 11.9762 12.949 11.7863L12.6879 11.4833ZM13.0094 11.2284C12.899 11.3131 12.7882 11.3982 12.689 11.4823L12.9478 11.7873C13.0381 11.7107 13.1408 11.6318 13.253 11.5457L13.0094 11.2284ZM14.0243 9.84994C14.0243 10.1368 13.9041 10.3808 13.7129 10.6068C13.5185 10.8366 13.2631 11.0336 13.0094 11.2284L13.253 11.5457C13.5001 11.3559 13.7913 11.1334 14.0182 10.8652C14.2483 10.5933 14.4243 10.261 14.4243 9.84994H14.0243ZM12.8026 8.9758C13.172 8.9758 13.4831 9.05763 13.6958 9.20483C13.8999 9.34615 14.0243 9.55395 14.0243 9.84994H14.4243C14.4243 9.41932 14.2327 9.09005 13.9235 8.87595C13.6227 8.66774 13.223 8.5758 12.8026 8.5758V8.9758ZM11.5265 9.63884C11.6441 9.4653 11.7524 9.30884 11.9312 9.1883C12.1059 9.07048 12.3669 8.9758 12.8026 8.9758V8.5758C12.3058 8.5758 11.9623 8.68488 11.7076 8.85664C11.4568 9.02568 11.3105 9.24461 11.1954 9.41434L11.5265 9.63884ZM10.686 10.1921C10.9123 10.1921 11.0838 10.1219 11.2224 10.0069C11.351 9.90026 11.4455 9.75824 11.5265 9.63884L11.1954 9.41434C11.107 9.54471 11.0437 9.63545 10.967 9.69909C10.9002 9.75447 10.819 9.79211 10.686 9.79211V10.1921ZM9.53828 9.09174C9.53828 9.46307 9.69822 9.74438 9.92666 9.92862C10.1496 10.1084 10.4322 10.1921 10.686 10.1921V9.79211C10.5134 9.79211 10.3221 9.73363 10.1778 9.61726C10.039 9.50532 9.93828 9.33643 9.93828 9.09174H9.53828Z" fill="#A3B8E0"/>
</svg>
