<svg width="50" height="43" viewBox="0 0 50 43" fill="none" xmlns="http://www.w3.org/2000/svg">
<path fill-rule="evenodd" clip-rule="evenodd" d="M13 13C13 6.367 18.3676 1 25 1C31.633 1 37 6.36761 37 13C37 19.633 31.6324 25 25 25C18.367 25 13 19.6323 13 13ZM14.6744 13C14.6744 18.6936 19.3065 23.3256 25 23.3256C30.6936 23.3256 35.3256 18.6936 35.3256 13C35.3256 7.30642 30.6936 2.67442 25 2.67442C19.3065 2.67442 14.6744 7.30642 14.6744 13ZM23.4443 17.4001C23.4443 16.7368 23.9813 16.1839 24.6447 16.1839C25.3081 16.1839 25.8609 16.7368 25.8609 17.4001C25.8609 18.0478 25.3239 18.6165 24.6447 18.6165C23.9655 18.6165 23.4443 18.0478 23.4443 17.4001ZM21.7383 9.09174C21.7383 8.2388 22.7176 6.9751 24.85 6.9751C26.8718 6.9751 28.2144 8.09658 28.2144 9.58135C28.2144 11.0661 26.8718 12.1403 26.4454 12.4719C25.5766 13.1512 25.5608 13.625 25.5608 14.4464C25.5608 14.7466 25.4028 15.094 24.6289 15.094C23.9813 15.094 23.7601 14.8571 23.7601 14.0357C23.7601 12.6773 24.3603 12.0296 24.8184 11.6348C24.9132 11.5544 25.0199 11.4725 25.1312 11.3871C25.632 11.0025 26.2243 10.5479 26.2243 9.84994C26.2243 9.12333 25.5924 8.7758 24.8026 8.7758C23.8701 8.7758 23.5937 9.18332 23.3609 9.52659C23.1916 9.77636 23.0452 9.99211 22.686 9.99211C22.2595 9.99211 21.7383 9.70777 21.7383 9.09174Z" fill="#A3B8E0"/>
<path d="M26.4454 12.4719L26.3226 12.3141L26.3222 12.3144L26.4454 12.4719ZM24.8184 11.6348L24.689 11.4823L24.6879 11.4833L24.8184 11.6348ZM25.1312 11.3871L25.253 11.5457L25.1312 11.3871ZM23.3609 9.52659L23.5265 9.63884V9.63884L23.3609 9.52659ZM25 0.8C18.2572 0.8 12.8 6.25654 12.8 13H13.2C13.2 6.47746 18.4781 1.2 25 1.2V0.8ZM37.2 13C37.2 6.25716 31.7435 0.8 25 0.8V1.2C31.5225 1.2 36.8 6.47806 36.8 13H37.2ZM25 25.2C31.7428 25.2 37.2 19.7435 37.2 13H36.8C36.8 19.5225 31.5219 24.8 25 24.8V25.2ZM12.8 13C12.8 19.7427 18.2565 25.2 25 25.2V24.8C18.4775 24.8 13.2 19.5218 13.2 13H12.8ZM25 23.1256C19.4169 23.1256 14.8744 18.5831 14.8744 13H14.4744C14.4744 18.804 19.196 23.5256 25 23.5256V23.1256ZM35.1256 13C35.1256 18.5831 30.5831 23.1256 25 23.1256V23.5256C30.804 23.5256 35.5256 18.804 35.5256 13H35.1256ZM25 2.87442C30.5831 2.87442 35.1256 7.41688 35.1256 13H35.5256C35.5256 7.19597 30.804 2.47442 25 2.47442V2.87442ZM14.8744 13C14.8744 7.41688 19.4169 2.87442 25 2.87442V2.47442C19.196 2.47442 14.4744 7.19596 14.4744 13H14.8744ZM24.6447 15.9839C23.8675 15.9839 23.2443 16.6297 23.2443 17.4001H23.6442C23.6442 16.8438 24.0951 16.3839 24.6447 16.3839V15.9839ZM26.0609 17.4001C26.0609 16.6263 25.4186 15.9839 24.6447 15.9839V16.3839C25.1976 16.3839 25.6609 16.8472 25.6609 17.4001H26.0609ZM24.6447 18.8165C25.4378 18.8165 26.0609 18.1549 26.0609 17.4001H25.6609C25.6609 17.9408 25.2101 18.4165 24.6447 18.4165V18.8165ZM23.2443 17.4001C23.2443 18.1514 23.8483 18.8165 24.6447 18.8165V18.4165C24.0827 18.4165 23.6442 17.9442 23.6442 17.4001H23.2443ZM24.85 6.7751C22.6445 6.7751 21.5383 8.09433 21.5383 9.09174H21.9383C21.9383 8.38328 22.7906 7.1751 24.85 7.1751V6.7751ZM28.4144 9.58135C28.4144 7.94515 26.9363 6.7751 24.85 6.7751V7.1751C26.8074 7.1751 28.0144 8.24801 28.0144 9.58135H28.4144ZM26.5682 12.6298C26.7842 12.4618 27.2425 12.0981 27.6472 11.5825C28.0512 11.0677 28.4144 10.3853 28.4144 9.58135H28.0144C28.0144 10.2621 27.7064 10.8592 27.3325 11.3356C26.9592 11.8112 26.533 12.1504 26.3226 12.3141L26.5682 12.6298ZM25.7608 14.4464C25.7608 14.0295 25.7668 13.742 25.865 13.4749C25.9603 13.2158 26.1515 12.9556 26.5686 12.6295L26.3222 12.3144C25.8705 12.6675 25.6194 12.9839 25.4896 13.3368C25.3627 13.6818 25.3608 14.0419 25.3608 14.4464H25.7608ZM24.6289 15.294C25.0415 15.294 25.3322 15.2019 25.5199 15.0305C25.7115 14.8555 25.7608 14.6306 25.7608 14.4464H25.3608C25.3608 14.5623 25.3311 14.6612 25.2502 14.7351C25.1655 14.8124 24.9902 14.894 24.6289 14.894V15.294ZM23.5601 14.0357C23.5601 14.4504 23.6127 14.7807 23.7986 15.0017C23.9942 15.2341 24.2902 15.294 24.6289 15.294V14.894C24.32 14.894 24.1816 14.8355 24.1047 14.7441C24.0182 14.6413 23.9601 14.4424 23.9601 14.0357H23.5601ZM24.6879 11.4833C24.45 11.6883 24.1654 11.9673 23.9418 12.3783C23.7175 12.7906 23.5601 13.3254 23.5601 14.0357H23.9601C23.9601 13.3877 24.1029 12.9193 24.2932 12.5695C24.4842 12.2184 24.7287 11.9762 24.949 11.7863L24.6879 11.4833ZM25.0094 11.2284C24.899 11.3131 24.7882 11.3982 24.689 11.4823L24.9478 11.7873C25.0381 11.7107 25.1408 11.6318 25.253 11.5457L25.0094 11.2284ZM26.0243 9.84994C26.0243 10.1368 25.9041 10.3808 25.7129 10.6068C25.5185 10.8366 25.2631 11.0336 25.0094 11.2284L25.253 11.5457C25.5001 11.3559 25.7913 11.1334 26.0182 10.8652C26.2483 10.5933 26.4243 10.261 26.4243 9.84994H26.0243ZM24.8026 8.9758C25.172 8.9758 25.4831 9.05763 25.6958 9.20483C25.8999 9.34615 26.0243 9.55395 26.0243 9.84994H26.4243C26.4243 9.41932 26.2327 9.09005 25.9235 8.87595C25.6227 8.66774 25.223 8.5758 24.8026 8.5758V8.9758ZM23.5265 9.63884C23.6441 9.4653 23.7524 9.30884 23.9312 9.1883C24.1059 9.07049 24.3669 8.9758 24.8026 8.9758V8.5758C24.3058 8.5758 23.9623 8.68488 23.7076 8.85664C23.4568 9.02568 23.3105 9.24461 23.1954 9.41434L23.5265 9.63884ZM22.686 10.1921C22.9123 10.1921 23.0838 10.1219 23.2224 10.0069C23.351 9.90026 23.4455 9.75824 23.5265 9.63884L23.1954 9.41434C23.107 9.54471 23.0437 9.63545 22.967 9.69909C22.9002 9.75447 22.819 9.79211 22.686 9.79211V10.1921ZM21.5383 9.09174C21.5383 9.46307 21.6982 9.74438 21.9267 9.92862C22.1496 10.1084 22.4322 10.1921 22.686 10.1921V9.79211C22.5134 9.79211 22.3221 9.73363 22.1778 9.61726C22.039 9.50532 21.9383 9.33643 21.9383 9.09174H21.5383Z" fill="#A3B8E0"/>
<path d="M10.6931 41.88L8.57306 39.104L9.28506 38.632L11.3811 41.384L10.6931 41.88ZM8.91706 41.08C8.5224 41.08 8.15706 41.008 7.82106 40.864C7.4904 40.72 7.19973 40.52 6.94906 40.264C6.70373 40.0027 6.51173 39.6987 6.37306 39.352C6.23973 39 6.17306 38.616 6.17306 38.2C6.17306 37.784 6.23973 37.4027 6.37306 37.056C6.51173 36.704 6.70373 36.4 6.94906 36.144C7.19973 35.8827 7.4904 35.68 7.82106 35.536C8.15706 35.392 8.5224 35.32 8.91706 35.32C9.31173 35.32 9.6744 35.392 10.0051 35.536C10.3411 35.68 10.6317 35.8827 10.8771 36.144C11.1277 36.4053 11.3197 36.712 11.4531 37.064C11.5917 37.4107 11.6611 37.7893 11.6611 38.2C11.6611 38.6107 11.5917 38.992 11.4531 39.344C11.3197 39.6907 11.1277 39.9947 10.8771 40.256C10.6317 40.5173 10.3411 40.72 10.0051 40.864C9.6744 41.008 9.31173 41.08 8.91706 41.08ZM8.91706 40.24C9.18906 40.24 9.43706 40.1893 9.66106 40.088C9.8904 39.9867 10.0877 39.8453 10.2531 39.664C10.4184 39.4773 10.5464 39.2613 10.6371 39.016C10.7331 38.7653 10.7811 38.4933 10.7811 38.2C10.7811 37.9067 10.7331 37.6373 10.6371 37.392C10.5464 37.1413 10.4184 36.9253 10.2531 36.744C10.0877 36.5573 9.8904 36.4133 9.66106 36.312C9.43706 36.2107 9.18906 36.16 8.91706 36.16C8.64506 36.16 8.3944 36.2107 8.16506 36.312C7.94106 36.4133 7.74373 36.5547 7.57306 36.736C7.40773 36.9173 7.27973 37.1333 7.18906 37.384C7.0984 37.6293 7.05306 37.9013 7.05306 38.2C7.05306 38.4933 7.0984 38.7653 7.18906 39.016C7.27973 39.2667 7.40773 39.4827 7.57306 39.664C7.74373 39.8453 7.94106 39.9867 8.16506 40.088C8.3944 40.1893 8.64506 40.24 8.91706 40.24ZM14.0949 41.08C13.7962 41.08 13.5349 41.0107 13.3109 40.872C13.0922 40.7333 12.9215 40.5387 12.7989 40.288C12.6815 40.0373 12.6229 39.7387 12.6229 39.392V36.8H13.4469V39.168C13.4469 39.4133 13.4842 39.6267 13.5589 39.808C13.6389 39.984 13.7509 40.12 13.8949 40.216C14.0442 40.312 14.2229 40.36 14.4309 40.36C14.5855 40.36 14.7269 40.336 14.8549 40.288C14.9829 40.2347 15.0922 40.1627 15.1829 40.072C15.2789 39.9813 15.3535 39.872 15.4069 39.744C15.4602 39.616 15.4869 39.4773 15.4869 39.328V36.8H16.3109V41H15.4869V40.12L15.6309 40.024C15.5669 40.2213 15.4575 40.4 15.3029 40.56C15.1535 40.72 14.9749 40.848 14.7669 40.944C14.5589 41.0347 14.3349 41.08 14.0949 41.08ZM19.4266 41.08C18.9946 41.08 18.6106 40.9893 18.2746 40.808C17.944 40.6213 17.6826 40.368 17.4906 40.048C17.304 39.728 17.2106 39.36 17.2106 38.944C17.2106 38.6133 17.264 38.312 17.3706 38.04C17.4773 37.768 17.624 37.5333 17.8106 37.336C18.0026 37.1333 18.2293 36.9787 18.4906 36.872C18.7573 36.76 19.0453 36.704 19.3546 36.704C19.6266 36.704 19.88 36.7573 20.1146 36.864C20.3493 36.9653 20.552 37.1067 20.7226 37.288C20.8986 37.4693 21.032 37.6853 21.1226 37.936C21.2186 38.1813 21.264 38.4507 21.2586 38.744L21.2506 39.096H17.8186L17.6346 38.44H20.5386L20.4186 38.576V38.384C20.4026 38.208 20.344 38.0507 20.2426 37.912C20.1413 37.7733 20.0133 37.664 19.8586 37.584C19.704 37.504 19.536 37.464 19.3546 37.464C19.0666 37.464 18.824 37.52 18.6266 37.632C18.4293 37.7387 18.28 37.8987 18.1786 38.112C18.0773 38.32 18.0266 38.5787 18.0266 38.888C18.0266 39.1813 18.088 39.4373 18.2106 39.656C18.3333 39.8693 18.5066 40.0347 18.7306 40.152C18.9546 40.2693 19.2133 40.328 19.5066 40.328C19.7146 40.328 19.9066 40.2933 20.0826 40.224C20.264 40.1547 20.4586 40.0293 20.6666 39.848L21.0826 40.432C20.9546 40.56 20.7973 40.672 20.6106 40.768C20.4293 40.864 20.2346 40.9413 20.0266 41C19.824 41.0533 19.624 41.08 19.4266 41.08ZM23.5541 41.08C23.2021 41.08 22.8848 41.0187 22.6021 40.896C22.3195 40.7733 22.0848 40.592 21.8981 40.352L22.4581 39.872C22.6181 40.0587 22.7915 40.1947 22.9781 40.28C23.1701 40.36 23.3861 40.4 23.6261 40.4C23.7221 40.4 23.8101 40.3893 23.8901 40.368C23.9755 40.3413 24.0475 40.304 24.1061 40.256C24.1701 40.208 24.2181 40.152 24.2501 40.088C24.2821 40.0187 24.2981 39.944 24.2981 39.864C24.2981 39.7253 24.2475 39.6133 24.1461 39.528C24.0928 39.4907 24.0075 39.4507 23.8901 39.408C23.7781 39.36 23.6315 39.312 23.4501 39.264C23.1408 39.184 22.8875 39.0933 22.6901 38.992C22.4928 38.8907 22.3408 38.776 22.2341 38.648C22.1541 38.5467 22.0955 38.4373 22.0581 38.32C22.0208 38.1973 22.0021 38.064 22.0021 37.92C22.0021 37.744 22.0395 37.584 22.1141 37.44C22.1941 37.2907 22.3008 37.1627 22.4341 37.056C22.5728 36.944 22.7328 36.8587 22.9141 36.8C23.1008 36.7413 23.2981 36.712 23.5061 36.712C23.7035 36.712 23.8981 36.7387 24.0901 36.792C24.2875 36.8453 24.4688 36.9227 24.6341 37.024C24.7995 37.1253 24.9381 37.2453 25.0501 37.384L24.5781 37.904C24.4768 37.8027 24.3648 37.7147 24.2421 37.64C24.1248 37.56 24.0048 37.4987 23.8821 37.456C23.7595 37.4133 23.6475 37.392 23.5461 37.392C23.4341 37.392 23.3328 37.4027 23.2421 37.424C23.1515 37.4453 23.0741 37.4773 23.0101 37.52C22.9515 37.5627 22.9061 37.616 22.8741 37.68C22.8421 37.744 22.8261 37.816 22.8261 37.896C22.8315 37.9653 22.8475 38.032 22.8741 38.096C22.9061 38.1547 22.9488 38.2053 23.0021 38.248C23.0608 38.2907 23.1488 38.336 23.2661 38.384C23.3835 38.432 23.5328 38.4773 23.7141 38.52C23.9808 38.5893 24.1995 38.6667 24.3701 38.752C24.5461 38.832 24.6848 38.9253 24.7861 39.032C24.8928 39.1333 24.9675 39.2507 25.0101 39.384C25.0528 39.5173 25.0741 39.6667 25.0741 39.832C25.0741 40.072 25.0048 40.288 24.8661 40.48C24.7328 40.6667 24.5515 40.8133 24.3221 40.92C24.0928 41.0267 23.8368 41.08 23.5541 41.08ZM26.5023 41V35.728H27.3263V41H26.5023ZM25.6303 37.6V36.8H28.3023V37.6H25.6303ZM29.1886 41V36.8H30.0126V41H29.1886ZM29.5886 35.872C29.4126 35.872 29.2766 35.8267 29.1806 35.736C29.0846 35.6453 29.0366 35.5173 29.0366 35.352C29.0366 35.1973 29.0846 35.072 29.1806 34.976C29.2819 34.88 29.4179 34.832 29.5886 34.832C29.7646 34.832 29.9006 34.8773 29.9966 34.968C30.0926 35.0587 30.1406 35.1867 30.1406 35.352C30.1406 35.5067 30.0899 35.632 29.9886 35.728C29.8926 35.824 29.7592 35.872 29.5886 35.872ZM33.1671 41.08C32.7565 41.08 32.3885 40.9867 32.0631 40.8C31.7431 40.608 31.4898 40.3493 31.3031 40.024C31.1165 39.6933 31.0231 39.3173 31.0231 38.896C31.0231 38.4747 31.1165 38.1013 31.3031 37.776C31.4898 37.4453 31.7431 37.1867 32.0631 37C32.3885 36.808 32.7565 36.712 33.1671 36.712C33.5725 36.712 33.9351 36.808 34.2551 37C34.5805 37.1867 34.8365 37.4453 35.0231 37.776C35.2098 38.1013 35.3031 38.4747 35.3031 38.896C35.3031 39.3173 35.2098 39.6933 35.0231 40.024C34.8365 40.3493 34.5805 40.608 34.2551 40.8C33.9351 40.9867 33.5725 41.08 33.1671 41.08ZM33.1671 40.328C33.4178 40.328 33.6418 40.2667 33.8391 40.144C34.0365 40.016 34.1911 39.8453 34.3031 39.632C34.4151 39.4133 34.4685 39.168 34.4631 38.896C34.4685 38.6187 34.4151 38.3733 34.3031 38.16C34.1911 37.9413 34.0365 37.7707 33.8391 37.648C33.6418 37.5253 33.4178 37.464 33.1671 37.464C32.9165 37.464 32.6898 37.528 32.4871 37.656C32.2898 37.7787 32.1351 37.9493 32.0231 38.168C31.9111 38.3813 31.8578 38.624 31.8631 38.896C31.8578 39.168 31.9111 39.4133 32.0231 39.632C32.1351 39.8453 32.2898 40.016 32.4871 40.144C32.6898 40.2667 32.9165 40.328 33.1671 40.328ZM36.201 41V36.8H37.025V37.664L36.881 37.76C36.9343 37.5733 37.0383 37.4027 37.193 37.248C37.3477 37.088 37.5317 36.96 37.745 36.864C37.9583 36.7627 38.177 36.712 38.401 36.712C38.721 36.712 38.9877 36.776 39.201 36.904C39.4143 37.0267 39.5743 37.216 39.681 37.472C39.7877 37.728 39.841 38.0507 39.841 38.44V41H39.017V38.496C39.017 38.256 38.985 38.0587 38.921 37.904C38.857 37.744 38.7583 37.6293 38.625 37.56C38.4917 37.4853 38.3263 37.4533 38.129 37.464C37.969 37.464 37.8223 37.4907 37.689 37.544C37.5557 37.592 37.4383 37.6613 37.337 37.752C37.241 37.8427 37.1637 37.9493 37.105 38.072C37.0517 38.1893 37.025 38.3173 37.025 38.456V41H36.617C36.5477 41 36.4783 41 36.409 41C36.3397 41 36.2703 41 36.201 41ZM42.3588 41.08C42.0068 41.08 41.6895 41.0187 41.4068 40.896C41.1241 40.7733 40.8895 40.592 40.7028 40.352L41.2628 39.872C41.4228 40.0587 41.5961 40.1947 41.7828 40.28C41.9748 40.36 42.1908 40.4 42.4308 40.4C42.5268 40.4 42.6148 40.3893 42.6948 40.368C42.7801 40.3413 42.8521 40.304 42.9108 40.256C42.9748 40.208 43.0228 40.152 43.0548 40.088C43.0868 40.0187 43.1028 39.944 43.1028 39.864C43.1028 39.7253 43.0521 39.6133 42.9508 39.528C42.8975 39.4907 42.8121 39.4507 42.6948 39.408C42.5828 39.36 42.4361 39.312 42.2548 39.264C41.9455 39.184 41.6921 39.0933 41.4948 38.992C41.2975 38.8907 41.1455 38.776 41.0388 38.648C40.9588 38.5467 40.9001 38.4373 40.8628 38.32C40.8255 38.1973 40.8068 38.064 40.8068 37.92C40.8068 37.744 40.8441 37.584 40.9188 37.44C40.9988 37.2907 41.1055 37.1627 41.2388 37.056C41.3775 36.944 41.5375 36.8587 41.7188 36.8C41.9055 36.7413 42.1028 36.712 42.3108 36.712C42.5081 36.712 42.7028 36.7387 42.8948 36.792C43.0921 36.8453 43.2735 36.9227 43.4388 37.024C43.6041 37.1253 43.7428 37.2453 43.8548 37.384L43.3828 37.904C43.2815 37.8027 43.1695 37.7147 43.0468 37.64C42.9295 37.56 42.8095 37.4987 42.6868 37.456C42.5641 37.4133 42.4521 37.392 42.3508 37.392C42.2388 37.392 42.1375 37.4027 42.0468 37.424C41.9561 37.4453 41.8788 37.4773 41.8148 37.52C41.7561 37.5627 41.7108 37.616 41.6788 37.68C41.6468 37.744 41.6308 37.816 41.6308 37.896C41.6361 37.9653 41.6521 38.032 41.6788 38.096C41.7108 38.1547 41.7535 38.2053 41.8068 38.248C41.8655 38.2907 41.9535 38.336 42.0708 38.384C42.1881 38.432 42.3375 38.4773 42.5188 38.52C42.7855 38.5893 43.0041 38.6667 43.1748 38.752C43.3508 38.832 43.4895 38.9253 43.5908 39.032C43.6975 39.1333 43.7721 39.2507 43.8148 39.384C43.8575 39.5173 43.8788 39.6667 43.8788 39.832C43.8788 40.072 43.8095 40.288 43.6708 40.48C43.5375 40.6667 43.3561 40.8133 43.1268 40.92C42.8975 41.0267 42.6415 41.08 42.3588 41.08Z" fill="#747474"/>
</svg>
