<svg width="9" height="8" viewBox="0 0 9 8" fill="none" xmlns="http://www.w3.org/2000/svg">
<path d="M8.68959 3.20343C8.73152 2.99381 8.56382 2.74226 8.3542 2.74226L5.9645 2.40687L4.87446 0.226792C4.83254 0.142943 4.79061 0.101019 4.70676 0.0590943C4.49714 -0.0666793 4.24559 0.0171698 4.11982 0.226792L3.07171 2.40687L0.682008 2.74226C0.556235 2.74226 0.472386 2.78419 0.430461 2.86804C0.262763 3.03574 0.262763 3.28728 0.430461 3.45498L2.14937 5.13196L1.73012 7.52166C1.73012 7.60551 1.73012 7.68936 1.77205 7.77321C1.89782 7.98283 2.14937 8.06668 2.35899 7.94091L4.49714 6.80894L6.63529 7.94091C6.67722 7.98283 6.76107 7.98283 6.84491 7.98283C6.88684 7.98283 6.88684 7.98283 6.92876 7.98283C7.13839 7.94091 7.30608 7.73128 7.26416 7.47974L6.84491 5.09004L8.56382 3.41306C8.64767 3.37113 8.68959 3.28728 8.68959 3.20343Z" fill="#D9A21B"/>
</svg>
