<svg width="24" height="24" viewBox="0 0 24 24" fill="none" xmlns="http://www.w3.org/2000/svg">
<path fill-rule="evenodd" clip-rule="evenodd" d="M12 24C18.6274 24 24 18.6274 24 12C24 5.37258 18.6274 0 12 0C5.37258 0 0 5.37258 0 12C0 18.6274 5.37258 24 12 24ZM5.49609 11.5922C5.49609 7.94701 8.45091 4.99219 12.0961 4.99219C15.7413 4.99219 18.6961 7.94701 18.6961 11.5922C18.6961 15.2374 15.7413 18.1922 12.0961 18.1922H6.72501C6.55454 18.1922 6.38694 18.1482 6.23846 18.0645C6.08997 17.9807 5.96563 17.8601 5.87747 17.7141C5.78931 17.5682 5.74032 17.402 5.73526 17.2316C5.73019 17.0612 5.76921 16.8924 5.84853 16.7415L6.41217 15.5291C6.50787 15.3225 6.48873 15.0823 6.37455 14.8843C5.81619 13.9154 5.49609 12.7901 5.49609 11.5922ZM9.6494 9.8055C9.77318 9.68172 9.94105 9.61219 10.1161 9.61219H11.4361C11.6111 9.61219 11.779 9.68172 11.9028 9.8055C12.0266 9.92927 12.0961 10.0971 12.0961 10.2722C12.0961 10.4472 12.0266 10.6151 11.9028 10.7389C11.779 10.8627 11.6111 10.9322 11.4361 10.9322H10.1161C9.94105 10.9322 9.77318 10.8627 9.6494 10.7389C9.52563 10.6151 9.45609 10.4472 9.45609 10.2722C9.45609 10.0971 9.52563 9.92927 9.6494 9.8055ZM9.6494 12.4455C9.77318 12.3217 9.94105 12.2522 10.1161 12.2522H14.0761C14.2511 12.2522 14.419 12.3217 14.5428 12.4455C14.6666 12.5693 14.7361 12.7371 14.7361 12.9122C14.7361 13.0872 14.6666 13.2551 14.5428 13.3789C14.419 13.5027 14.2511 13.5722 14.0761 13.5722H10.1161C9.94105 13.5722 9.77318 13.5027 9.6494 13.3789C9.52563 13.2551 9.45609 13.0872 9.45609 12.9122C9.45609 12.7371 9.52563 12.5693 9.6494 12.4455Z" fill="#F0F4FA"/>
</svg>
