<svg width="16" height="16" viewBox="0 0 16 16" fill="none" xmlns="http://www.w3.org/2000/svg">
<path fill-rule="evenodd" clip-rule="evenodd" d="M16 8C16 12.4183 12.4183 16 8 16C3.58172 16 0 12.4183 0 8C0 3.58172 3.58172 0 8 0C12.4183 0 16 3.58172 16 8ZM10.1261 3.27418C10.0795 3.22595 10.0237 3.18747 9.96213 3.161C9.90051 3.13453 9.83424 3.1206 9.76718 3.12002C9.70012 3.11944 9.63362 3.13221 9.57155 3.15761C9.50948 3.183 9.45309 3.2205 9.40567 3.26792C9.35825 3.31534 9.32075 3.37173 9.29536 3.4338C9.26997 3.49587 9.25719 3.56237 9.25777 3.62943C9.25835 3.69649 9.27228 3.76276 9.29875 3.82438C9.32522 3.88599 9.3637 3.94172 9.41193 3.98831L9.81041 4.38729H6.99128C6.05366 4.38729 5.15445 4.75976 4.49146 5.42275C3.82847 6.08574 3.456 6.98495 3.456 7.92257V8.42761C3.456 8.56155 3.50921 8.69001 3.60392 8.78472C3.69864 8.87944 3.8271 8.93265 3.96104 8.93265C4.09498 8.93265 4.22344 8.87944 4.31816 8.78472C4.41287 8.69001 4.46608 8.56155 4.46608 8.42761V7.92257C4.46608 7.25284 4.73213 6.61055 5.20569 6.13698C5.67926 5.66342 6.32155 5.39737 6.99128 5.39737H9.81293L9.41193 5.79787C9.31994 5.89312 9.26903 6.02069 9.27018 6.15311C9.27133 6.28553 9.32445 6.4122 9.41809 6.50584C9.51172 6.59948 9.63839 6.65259 9.77081 6.65374C9.90323 6.65489 10.0308 6.60399 10.1261 6.51199L11.2094 5.42868C11.3514 5.28662 11.4312 5.09396 11.4312 4.89309C11.4312 4.69221 11.3514 4.49956 11.2094 4.35749L10.1261 3.27418ZM11.5105 10.4235C10.8475 11.0865 9.9483 11.459 9.01068 11.459H6.19155L6.59053 11.8575C6.68523 11.9522 6.73841 12.0807 6.73836 12.2147C6.73831 12.3487 6.68505 12.4771 6.59028 12.5718C6.49551 12.6665 6.36701 12.7197 6.23304 12.7197C6.09907 12.7196 5.9706 12.6664 5.8759 12.5716L4.79259 11.4883C4.65057 11.3462 4.57079 11.1536 4.57079 10.9527C4.57079 10.7518 4.65057 10.5592 4.79259 10.4171L5.8759 9.33378C5.92279 9.28686 5.97847 9.24963 6.03974 9.22422C6.10102 9.19882 6.1667 9.18573 6.23304 9.1857C6.29938 9.18568 6.36507 9.19872 6.42636 9.22409C6.48766 9.24945 6.54336 9.28664 6.59028 9.33353C6.6372 9.38042 6.67443 9.43609 6.69984 9.49737C6.72525 9.55865 6.73834 9.62433 6.73836 9.69067C6.73838 9.757 6.72534 9.82269 6.69998 9.88399C6.67461 9.94529 6.63742 10.001 6.59053 10.0479L6.18953 10.4489H9.01068C9.68041 10.4489 10.3227 10.1829 10.7963 9.7093C11.2698 9.23573 11.5359 8.59344 11.5359 7.92371V7.41867C11.5359 7.28473 11.5891 7.15627 11.6838 7.06156C11.7785 6.96684 11.907 6.91363 12.0409 6.91363C12.1749 6.91363 12.3033 6.96684 12.398 7.06156C12.4928 7.15627 12.546 7.28473 12.546 7.41867V7.92371C12.546 8.86133 12.1735 9.76054 11.5105 10.4235Z" fill="#A3B8E0"/>
</svg>
