<svg width="20" height="20" viewBox="0 0 20 20" fill="none" xmlns="http://www.w3.org/2000/svg">
<path d="M19 10C18.4 10 18 10.4 18 11C18 12.7 16.7 14 15 14H3.4L4.7 12.7C5.1 12.3 5.1 11.7 4.7 11.3C4.3 10.9 3.7 10.9 3.3 11.3L0.3 14.3C0.2 14.4 0.0999999 14.5 0.0999999 14.6C-1.00583e-07 14.7 0 14.9 0 15C0 15.1 -1.00583e-07 15.3 0.0999999 15.4C0.0999999 15.5 0.2 15.6 0.3 15.7L3.3 18.7C3.5 18.9 3.7 19 4 19C4.3 19 4.5 18.9 4.7 18.7C5.1 18.3 5.1 17.7 4.7 17.3L3.4 16H15C17.8 16 20 13.8 20 11C20 10.4 19.6 10 19 10ZM19.9 4.6C19.9 4.5 19.8 4.4 19.7 4.3L16.7 1.3C16.3 0.9 15.7 0.9 15.3 1.3C14.9 1.7 14.9 2.3 15.3 2.7L16.6 4H5C2.2 4 0 6.2 0 9C0 9.6 0.4 10 1 10C1.6 10 2 9.6 2 9C2 7.3 3.3 6 5 6H16.6L15.3 7.3C14.9 7.7 14.9 8.3 15.3 8.7C15.7 9.1 16.3 9.1 16.7 8.7L19.7 5.7C19.8 5.6 19.9 5.5 19.9 5.4C20 5.3 20 5.1 20 5C20 4.9 20 4.7 19.9 4.6Z" fill="#3B5D8F"/>
</svg>
