<svg width="24" height="24" viewBox="0 0 24 24" fill="none" xmlns="http://www.w3.org/2000/svg">
<path fill-rule="evenodd" clip-rule="evenodd" d="M12 0C5.37258 0 0 5.37258 0 12C0 18.6274 5.37258 24 12 24C18.6274 24 24 18.6274 24 12C24 5.37258 18.6274 0 12 0ZM13.4077 6.66521C14.123 6.11202 14.9345 5.83154 15.8196 5.83154C18.2896 5.83154 20.1523 7.85191 20.1523 10.5311C20.1523 13.4256 17.8285 15.4059 14.3109 18.4036C13.7131 18.913 13.036 19.49 12.3321 20.1056C12.2393 20.1868 12.1202 20.2315 11.9966 20.2315C11.873 20.2315 11.7538 20.1868 11.661 20.1056C10.9575 19.4903 10.2806 18.9135 9.68335 18.4045L9.68266 18.4039C6.16467 15.4059 3.84082 13.4256 3.84082 10.5311C3.84082 7.85191 5.70352 5.83154 8.17356 5.83154C9.05869 5.83154 9.87018 6.11202 10.5855 6.66521C11.2478 7.17747 11.6964 7.82512 11.9684 8.31136C11.9807 8.33333 12.0124 8.33333 12.0247 8.31136C12.2968 7.82514 12.7453 7.17747 13.4077 6.66521Z" fill="#F0F4FA"/>
</svg>
