<svg width="14" height="20" viewBox="0 0 14 20" fill="none" xmlns="http://www.w3.org/2000/svg">
<path d="M10.992 0H2.99355C2.19806 0 1.43515 0.316008 0.872654 0.878505C0.310156 1.441 -0.00585149 2.20391 -0.00585149 2.9994V18.9962C-0.00655092 19.1724 0.0393142 19.3456 0.1271 19.4984C0.214886 19.6511 0.341475 19.778 0.494049 19.8661C0.646038 19.9538 0.818448 20 0.99395 20C1.16945 20 1.34186 19.9538 1.49385 19.8661L6.99276 16.6867L12.4917 19.8661C12.644 19.9524 12.8164 19.9972 12.9916 19.996C13.1667 19.9972 13.3391 19.9524 13.4915 19.8661C13.644 19.778 13.7706 19.6511 13.8584 19.4984C13.9462 19.3456 13.9921 19.1724 13.9914 18.9962V2.9994C13.9914 2.20391 13.6754 1.441 13.1129 0.878505C12.5504 0.316008 11.7875 0 10.992 0Z" fill="#EAEDF2"/>
</svg>
