<svg width="24" height="24" viewBox="0 0 24 24" fill="none" xmlns="http://www.w3.org/2000/svg">
<path fill-rule="evenodd" clip-rule="evenodd" d="M12 24C18.6274 24 24 18.6274 24 12C24 5.37258 18.6274 0 12 0C5.37258 0 0 5.37258 0 12C0 18.6274 5.37258 24 12 24ZM8.15734 6.06719L18.7106 11.2156C18.8576 11.2873 18.9809 11.3989 19.0675 11.5376C19.1542 11.6762 19.2001 11.8365 19.2001 12C19.2001 12.1635 19.1542 12.3238 19.0675 12.4624C18.9809 12.6011 18.857 12.7127 18.7101 12.7843L8.15734 17.9328C8.05596 17.9822 7.94369 18.005 7.83108 17.9991C7.71846 17.9931 7.60921 17.9587 7.51359 17.8989C7.41797 17.8391 7.33912 17.756 7.28447 17.6573C7.22982 17.5587 7.20115 17.4478 7.20117 17.335V17.3159C7.20123 17.2267 7.21222 17.1379 7.2339 17.0514L8.24625 13.0025C8.25982 12.9486 8.28956 12.9001 8.33148 12.8635C8.3734 12.827 8.4255 12.8041 8.48079 12.798L12.93 12.3033C13.004 12.2944 13.0722 12.2586 13.1217 12.2029C13.1712 12.1471 13.1985 12.0751 13.1985 12.0005C13.1985 11.926 13.1712 11.854 13.1217 11.7982C13.0722 11.7424 13.004 11.7067 12.93 11.6978L8.48079 11.2031C8.4255 11.197 8.3734 11.1741 8.33148 11.1376C8.28956 11.101 8.25982 11.0525 8.24625 10.9986L7.2339 6.94918C7.21222 6.86267 7.20123 6.77382 7.20117 6.68464V6.66555C7.20106 6.55273 7.22966 6.44174 7.28427 6.34302C7.33889 6.24431 7.41772 6.16111 7.51336 6.10126C7.60899 6.04142 7.71828 6.00689 7.83094 6.00093C7.9436 5.99497 8.05592 6.01777 8.15734 6.06719Z" fill="#F0F4FA"/>
</svg>
