<svg width="14" height="20" viewBox="0 0 14 20" fill="none" xmlns="http://www.w3.org/2000/svg">
<path d="M10.9949 0H2.99648C2.20099 0 1.43808 0.316008 0.875583 0.878505C0.313086 1.441 -0.00292181 2.20391 -0.00292181 2.9994V18.9962C-0.00362123 19.1724 0.0422439 19.3456 0.13003 19.4984C0.217816 19.6511 0.344405 19.778 0.496979 19.8661C0.648968 19.9538 0.821378 20 0.99688 20C1.17238 20 1.34479 19.9538 1.49678 19.8661L6.99569 16.6867L12.4946 19.8661C12.647 19.9524 12.8194 19.9972 12.9945 19.996C13.1696 19.9972 13.342 19.9524 13.4944 19.8661C13.647 19.778 13.7736 19.6511 13.8613 19.4984C13.9491 19.3456 13.995 19.1724 13.9943 18.9962V2.9994C13.9943 2.20391 13.6783 1.441 13.1158 0.878505C12.5533 0.316008 11.7904 0 10.9949 0Z" fill="#A3B8E0"/>
</svg>
