<svg width="14" height="20" viewBox="0 0 14 20" fill="none" xmlns="http://www.w3.org/2000/svg">
<path d="M10.9978 0H2.99941C2.20392 0 1.44101 0.316008 0.878513 0.878505C0.316016 1.441 7.88136e-06 2.20391 7.88136e-06 2.9994V18.9962C-0.000691547 19.1724 0.0451736 19.3456 0.132959 19.4984C0.220745 19.6511 0.347334 19.778 0.499909 19.8661C0.651897 19.9538 0.824307 20 0.999809 20C1.17531 20 1.34772 19.9538 1.49971 19.8661L6.99862 16.6867L12.4975 19.8661C12.6499 19.9524 12.8223 19.9972 12.9974 19.996C13.1726 19.9972 13.345 19.9524 13.4973 19.8661C13.6499 19.778 13.7765 19.6511 13.8643 19.4984C13.9521 19.3456 13.9979 19.1724 13.9972 18.9962V2.9994C13.9972 2.20391 13.6812 1.441 13.1187 0.878505C12.5562 0.316008 11.7933 0 10.9978 0ZM11.9976 17.2666L7.49852 14.6671C7.34653 14.5793 7.17412 14.5331 6.99862 14.5331C6.82312 14.5331 6.65071 14.5793 6.49872 14.6671L1.99961 17.2666V2.9994C1.99961 2.73424 2.10495 2.47994 2.29245 2.29244C2.47994 2.10494 2.73425 1.9996 2.99941 1.9996H10.9978C11.263 1.9996 11.5173 2.10494 11.7048 2.29244C11.8923 2.47994 11.9976 2.73424 11.9976 2.9994V17.2666Z" fill="#B2C3E5"/>
</svg>
