<svg width="20" height="20" viewBox="0 0 20 20" fill="none" xmlns="http://www.w3.org/2000/svg">
<path d="M13.9978 0H5.99941C5.20392 0 4.44101 0.316008 3.87851 0.878505C3.31602 1.441 3.00001 2.20391 3.00001 2.9994V18.9962C2.99931 19.1724 3.04517 19.3456 3.13296 19.4984C3.22075 19.6511 3.34733 19.778 3.49991 19.8661C3.6519 19.9538 3.82431 20 3.99981 20C4.17531 20 4.34772 19.9538 4.49971 19.8661L9.99862 16.6867L15.4975 19.8661C15.6499 19.9524 15.8223 19.9972 15.9974 19.996C16.1726 19.9972 16.345 19.9524 16.4973 19.8661C16.6499 19.778 16.7765 19.6511 16.8643 19.4984C16.9521 19.3456 16.9979 19.1724 16.9972 18.9962V2.9994C16.9972 2.20391 16.6812 1.441 16.1187 0.878505C15.5562 0.316008 14.7933 0 13.9978 0Z" fill="#3B5D8F"/>
</svg>
