<svg width="16" height="22" viewBox="0 0 16 22" fill="none" xmlns="http://www.w3.org/2000/svg">
<path d="M11.9978 1H3.99941C3.20392 1 2.44101 1.31601 1.87851 1.87851C1.31602 2.441 1.00001 3.20391 1.00001 3.9994V19.9962C0.999308 20.1724 1.04517 20.3456 1.13296 20.4984C1.22075 20.6511 1.34733 20.778 1.49991 20.8661C1.6519 20.9538 1.82431 21 1.99981 21C2.17531 21 2.34772 20.9538 2.49971 20.8661L7.99862 17.6867L13.4975 20.8661C13.6499 20.9524 13.8223 20.9972 13.9974 20.996C14.1726 20.9972 14.345 20.9524 14.4973 20.8661C14.6499 20.778 14.7765 20.6511 14.8643 20.4984C14.9521 20.3456 14.9979 20.1724 14.9972 19.9962V3.9994C14.9972 3.20391 14.6812 2.441 14.1187 1.87851C13.5562 1.31601 12.7933 1 11.9978 1ZM12.9976 18.2666L8.49852 15.6671C8.34653 15.5793 8.17412 15.5331 7.99862 15.5331C7.82312 15.5331 7.65071 15.5793 7.49872 15.6671L2.99961 18.2666V3.9994C2.99961 3.73424 3.10495 3.47994 3.29245 3.29244C3.47995 3.10494 3.73425 2.9996 3.99941 2.9996H11.9978C12.263 2.9996 12.5173 3.10494 12.7048 3.29244C12.8923 3.47994 12.9976 3.73424 12.9976 3.9994V18.2666Z" fill="#3B5D8F" stroke="white" stroke-width="0.625"/>
</svg>
