<svg width="10" height="11" viewBox="0 0 10 11" fill="none" xmlns="http://www.w3.org/2000/svg">
<path d="M0.168032 7.63917L0.584699 8.36125C0.750878 8.64812 1.02398 8.85743 1.34418 8.94334C1.66438 9.02924 2.00558 8.98474 2.29303 8.81958L2.63345 8.62292C2.76392 8.70961 2.89975 8.78796 3.04012 8.8575V9.25C3.04012 9.58152 3.17181 9.89946 3.40623 10.1339C3.64065 10.3683 3.9586 10.5 4.29012 10.5H5.12345C5.45497 10.5 5.77291 10.3683 6.00733 10.1339C6.24175 9.89946 6.37345 9.58152 6.37345 9.25V8.8575C6.51399 8.78757 6.64996 8.7088 6.78053 8.62167L7.12095 8.81833C7.26319 8.9005 7.42023 8.95383 7.5831 8.97526C7.74596 8.9967 7.91146 8.98582 8.07011 8.94325C8.22877 8.90069 8.37748 8.82726 8.50775 8.72718C8.63801 8.62711 8.74727 8.50233 8.82928 8.36L9.24595 7.63792C9.32812 7.49567 9.38144 7.33863 9.40288 7.17577C9.42431 7.0129 9.41343 6.84741 9.37087 6.68875C9.3283 6.53009 9.25488 6.38138 9.1548 6.25112C9.05472 6.12085 8.92995 6.01159 8.78762 5.92958L8.44803 5.73333C8.4597 5.57661 8.4597 5.41923 8.44803 5.2625L8.78762 5.06625C8.92995 4.98424 9.05472 4.87498 9.1548 4.74472C9.25488 4.61445 9.3283 4.46574 9.37087 4.30708C9.41343 4.14842 9.42431 3.98293 9.40288 3.82007C9.38144 3.6572 9.32812 3.50016 9.24595 3.35792L8.82928 2.63583C8.6631 2.34897 8.39 2.13965 8.0698 2.05375C7.7496 1.96784 7.4084 2.01234 7.12095 2.1775L6.78053 2.37417C6.64985 2.28845 6.51388 2.21108 6.37345 2.1425V1.75C6.37345 1.41848 6.24175 1.10054 6.00733 0.866116C5.77291 0.631696 5.45497 0.5 5.12345 0.5L4.29012 0.5C3.9586 0.5 3.64065 0.631696 3.40623 0.866116C3.17181 1.10054 3.04012 1.41848 3.04012 1.75V2.1425C2.89957 2.21243 2.76361 2.2912 2.63303 2.37833L2.29262 2.18167C2.00516 2.01651 1.66396 1.972 1.34376 2.05791C1.02356 2.14382 0.750461 2.35313 0.584282 2.64L0.167615 3.36208C0.0854472 3.50433 0.0321215 3.66137 0.010687 3.82423C-0.0107475 3.9871 0.000129653 4.15259 0.0426965 4.31125C0.0852633 4.46991 0.158685 4.61862 0.258764 4.74888C0.358842 4.87915 0.483615 4.98841 0.625949 5.07042L0.965532 5.26667C0.953865 5.42339 0.953865 5.58077 0.965532 5.7375L0.625949 5.93375C0.339351 6.09944 0.130183 6.37205 0.0443356 6.69177C-0.0415116 7.01149 0.00297396 7.35221 0.168032 7.63917ZM1.04303 6.65333L1.61762 6.32C1.68912 6.27861 1.74671 6.21691 1.78306 6.14272C1.81942 6.06852 1.83289 5.9852 1.82178 5.90333C1.78553 5.63539 1.78553 5.36378 1.82178 5.09583C1.83289 5.01397 1.81942 4.93064 1.78306 4.85645C1.74671 4.78226 1.68912 4.72055 1.61762 4.67917L1.04303 4.34583C0.94749 4.29065 0.877735 4.19983 0.849068 4.09328C0.820401 3.98674 0.835163 3.87317 0.890115 3.7775L1.30678 3.05583C1.36204 2.96014 1.45304 2.89031 1.55978 2.86171C1.66652 2.83311 1.78025 2.84808 1.87595 2.90333L2.45012 3.23667C2.52224 3.27792 2.60505 3.29667 2.68791 3.29051C2.77077 3.28435 2.84989 3.25355 2.91512 3.20208C3.12784 3.03547 3.36274 2.8993 3.61303 2.7975C3.68997 2.76638 3.75586 2.71298 3.80226 2.64417C3.84866 2.57535 3.87345 2.49425 3.87345 2.41125V1.75C3.87345 1.63949 3.91735 1.53351 3.99549 1.45537C4.07363 1.37723 4.17961 1.33333 4.29012 1.33333H5.12345C5.23396 1.33333 5.33994 1.37723 5.41808 1.45537C5.49622 1.53351 5.54012 1.63949 5.54012 1.75V2.41125C5.54012 2.49425 5.56491 2.57535 5.6113 2.64417C5.6577 2.71298 5.72359 2.76638 5.80053 2.7975C6.05083 2.8993 6.28572 3.03547 6.49845 3.20208C6.56389 3.25323 6.64312 3.28365 6.72598 3.28944C6.80883 3.29523 6.89153 3.27613 6.96345 3.23458L7.53762 2.90333C7.63332 2.84808 7.74704 2.83311 7.85378 2.86171C7.96052 2.89031 8.05153 2.96014 8.10678 3.05583L8.52345 3.7775C8.5787 3.8732 8.59367 3.98693 8.56507 4.09367C8.53647 4.2004 8.46665 4.29141 8.37095 4.34667L7.79637 4.68C7.72486 4.72138 7.66727 4.78309 7.63092 4.85728C7.59456 4.93148 7.58109 5.0148 7.5922 5.09667C7.61177 5.23024 7.62221 5.365 7.62345 5.5C7.62223 5.63514 7.61178 5.77003 7.5922 5.90375C7.58109 5.98562 7.59456 6.06894 7.63092 6.14313C7.66727 6.21732 7.72486 6.27903 7.79637 6.32042L8.37095 6.65375C8.46665 6.709 8.53647 6.80001 8.56507 6.90675C8.59367 7.01349 8.5787 7.12722 8.52345 7.22292L8.10678 7.94458C8.05153 8.04028 7.96052 8.11011 7.85378 8.13871C7.74704 8.16731 7.63332 8.15233 7.53762 8.09708L6.96345 7.76583C6.89153 7.72429 6.80883 7.70518 6.72598 7.71098C6.64312 7.71677 6.56389 7.74719 6.49845 7.79833C6.28572 7.96494 6.05083 8.10111 5.80053 8.20292C5.72359 8.23404 5.6577 8.28743 5.6113 8.35625C5.56491 8.42507 5.54012 8.50617 5.54012 8.58917V9.25C5.54012 9.36051 5.49622 9.46649 5.41808 9.54463C5.33994 9.62277 5.23396 9.66667 5.12345 9.66667H4.29012C4.17961 9.66667 4.07363 9.62277 3.99549 9.54463C3.91735 9.46649 3.87345 9.36051 3.87345 9.25V8.58875C3.87345 8.50575 3.84866 8.42465 3.80226 8.35583C3.75586 8.28702 3.68997 8.23362 3.61303 8.2025C3.36274 8.1007 3.12784 7.96453 2.91512 7.79792C2.84874 7.7488 2.76972 7.71965 2.68735 7.71389C2.60498 7.70814 2.52268 7.72601 2.45012 7.76542L1.87595 8.09667C1.78025 8.15192 1.66652 8.16689 1.55978 8.13829C1.45304 8.10969 1.36204 8.03986 1.30678 7.94417L0.890115 7.2225C0.834864 7.1268 0.819892 7.01307 0.848491 6.90633C0.87709 6.79959 0.947335 6.70859 1.04303 6.65333Z" fill="#A3B8E0"/>
<path d="M4.70833 7.58464C5.12038 7.58464 5.52317 7.46245 5.86577 7.23353C6.20837 7.00461 6.4754 6.67924 6.63308 6.29856C6.79077 5.91788 6.83202 5.49899 6.75164 5.09486C6.67125 4.69074 6.47283 4.31952 6.18147 4.02816C5.89011 3.7368 5.5189 3.53839 5.11477 3.458C4.71064 3.37761 4.29176 3.41887 3.91108 3.57655C3.5304 3.73424 3.20502 4.00126 2.9761 4.34387C2.74719 4.68647 2.625 5.08926 2.625 5.5013C2.62566 6.05363 2.84537 6.58315 3.23592 6.97371C3.62648 7.36427 4.156 7.58397 4.70833 7.58464ZM4.70833 4.2513C4.95556 4.2513 5.19723 4.32461 5.4028 4.46197C5.60836 4.59932 5.76857 4.79454 5.86318 5.02295C5.95779 5.25136 5.98255 5.50269 5.93432 5.74517C5.88608 5.98764 5.76703 6.21037 5.59222 6.38519C5.4174 6.56 5.19467 6.67905 4.9522 6.72728C4.70972 6.77552 4.45839 6.75076 4.22998 6.65615C4.00157 6.56154 3.80635 6.40133 3.669 6.19577C3.53164 5.9902 3.45833 5.74853 3.45833 5.5013C3.45833 5.16978 3.59003 4.85184 3.82445 4.61742C4.05887 4.383 4.37681 4.2513 4.70833 4.2513Z" fill="#A3B8E0"/>
</svg>
