<svg width="20" height="18" viewBox="0 0 20 18" fill="none" xmlns="http://www.w3.org/2000/svg">
<path d="M19.0563 5.76511L14.6907 1.39949C14.3192 1.02801 13.9291 0.826371 13.5317 0.826371C13.2583 0.826371 12.9613 0.930595 12.7336 1.18086C12.5057 1.43119 12.3559 1.81762 12.3559 2.36651V3.75426C9.19566 3.91608 6.24725 5.22397 3.99333 7.47777C1.58117 9.88974 0.252418 13.0973 0.252152 16.5084C0.252109 16.6487 0.296189 16.7854 0.37815 16.8992C0.46011 17.013 0.575798 17.0981 0.70883 17.1425C0.841858 17.1869 0.985489 17.1884 1.11938 17.1466C1.25326 17.1049 1.37062 17.0221 1.45483 16.9099C4.08201 13.4129 8.0258 11.335 12.3559 11.1407V12.4964C12.3559 13.0453 12.5057 13.4317 12.7335 13.682C12.9613 13.9323 13.2582 14.0366 13.5317 14.0366H13.5317C13.9291 14.0366 14.3192 13.8349 14.6907 13.4635L19.0563 9.09782C19.0563 9.09782 19.0563 9.09781 19.0563 9.09781C19.5001 8.6541 19.7445 8.06193 19.7445 7.4315C19.7445 6.80102 19.5001 6.20885 19.0563 5.76511ZM18.1112 8.15266L13.7455 12.5183C13.7276 12.5363 13.7105 12.5526 13.6942 12.5675C13.6932 12.5455 13.6926 12.5218 13.6926 12.4964V10.4575C13.6926 10.0884 13.3934 9.78914 13.0243 9.78914C10.4976 9.78914 8.08265 10.3681 5.84746 11.51C4.3407 12.2797 2.95565 13.2994 1.76401 14.5087C2.71297 9.15394 7.40154 5.07385 13.0243 5.07385C13.3934 5.07385 13.6926 4.77462 13.6926 4.40552V2.36651C13.6926 2.34116 13.6932 2.31752 13.6942 2.29552C13.7105 2.31037 13.7276 2.3267 13.7455 2.34465L18.1112 6.7103L18.1842 6.63724L18.1112 6.7103C18.3024 6.90152 18.4078 7.15719 18.4078 7.4315C18.4078 7.70577 18.3024 7.96144 18.1112 8.15265L18.1842 8.22571L18.1112 8.15266Z" fill="#3B5D8F" stroke="#3B5D8F" stroke-width="0.206633"/>
</svg>
