<svg width="40" height="40" viewBox="0 0 40 40" fill="none" xmlns="http://www.w3.org/2000/svg">
<g clip-path="url(#clip0_2484_29168)">
<path d="M38.6956 13.0435H1.30437C0.584297 13.0435 0 12.4597 0 11.7391V3.91305C0 1.75531 1.75531 0 3.91305 0H36.087C38.2447 0 40 1.75531 40 3.91305V11.7391C40 12.4597 39.4157 13.0435 38.6956 13.0435Z" fill="#5E81AB"/>
<path d="M36.087 0H20V13.0435H38.6956C39.4157 13.0435 40 12.4597 40 11.7391V3.91305C40 1.75531 38.2447 0 36.087 0Z" fill="#9CAEC6"/>
<path d="M36.087 39.9998H3.91305C1.75188 39.9998 0 38.2479 0 36.0868V10.4346H40V36.0868C40 38.2479 38.2481 39.9998 36.087 39.9998Z" fill="#9CAEC6"/>
<path d="M20 40.0009H36.087C38.2482 40.0009 40 38.249 40 36.0879V10.4357H20V40.0009Z" fill="#5E81AB"/>
<path d="M33.4759 6.95738H22.1716C21.4515 6.95738 20.8672 6.37355 20.8672 5.65301C20.8672 4.93246 21.4515 4.34863 22.1716 4.34863H33.4759C34.196 4.34863 34.7803 4.93246 34.7803 5.65301C34.7803 6.37355 34.196 6.95738 33.4759 6.95738Z" fill="#5E81AB"/>
<path d="M6.52312 6.95689C7.24351 6.95689 7.8275 6.37291 7.8275 5.65252C7.8275 4.93213 7.24351 4.34814 6.52312 4.34814C5.80274 4.34814 5.21875 4.93213 5.21875 5.65252C5.21875 6.37291 5.80274 6.95689 6.52312 6.95689Z" fill="#F9F6F9"/>
<path d="M11.738 6.95689C12.4584 6.95689 13.0423 6.37291 13.0423 5.65252C13.0423 4.93213 12.4584 4.34814 11.738 4.34814C11.0176 4.34814 10.4336 4.93213 10.4336 5.65252C10.4336 6.37291 11.0176 6.95689 11.738 6.95689Z" fill="white"/>
<path d="M16.9567 6.95689C17.6771 6.95689 18.2611 6.37291 18.2611 5.65252C18.2611 4.93213 17.6771 4.34814 16.9567 4.34814C16.2363 4.34814 15.6523 4.93213 15.6523 5.65252C15.6523 6.37291 16.2363 6.95689 16.9567 6.95689Z" fill="#F9F6F9"/>
<path d="M33.4797 34.7828H6.52312C5.80305 34.7828 5.21875 34.199 5.21875 33.4784C5.21875 32.7579 5.80305 32.1741 6.52312 32.1741H33.4796C34.1997 32.1741 34.784 32.7579 34.784 33.4784C34.784 34.199 34.1998 34.7828 33.4797 34.7828Z" fill="#F9F6F9"/>
<path d="M33.4783 32.1741H20V34.7827H33.4783C34.1984 34.7827 34.7827 34.1989 34.7827 33.4784C34.7827 32.7578 34.1984 32.1741 33.4783 32.1741Z" fill="#F9F6F9"/>
<path d="M26.7891 20.2032L20.0013 15.8841L17.2239 14.1163C16.8213 13.8607 16.3109 13.8441 15.8952 14.0737C15.4778 14.3032 15.2188 14.7415 15.2188 15.2172V27.3911C15.2188 27.8667 15.4779 28.305 15.8952 28.5346C16.3144 28.7642 16.8222 28.7468 17.2239 28.4921L20.0013 26.7241L26.7891 22.405C27.1648 22.165 27.3927 21.7502 27.3927 21.3041C27.3927 20.858 27.1648 20.4432 26.7891 20.2032Z" fill="#F9F6F9"/>
<path d="M27.3913 21.3044C27.3913 21.7505 27.1635 22.1653 26.7878 22.4053L20 26.7244V15.8844L26.7878 20.2035C27.1635 20.4435 27.3913 20.8583 27.3913 21.3044Z" fill="#F9F6F9"/>
</g>
<defs>
<clipPath id="clip0_2484_29168">
<rect width="40" height="40" fill="white"/>
</clipPath>
</defs>
</svg>
