<svg width="40" height="34" viewBox="0 0 40 34" fill="none" xmlns="http://www.w3.org/2000/svg">
<path fill-rule="evenodd" clip-rule="evenodd" d="M1.4375 18.4902V31.0819C1.4375 32.3776 2.49915 33.4392 3.79483 33.4392H28.4264C29.722 33.4392 30.7837 32.3776 30.7837 31.0819V18.4902H1.4375Z" fill="#9CAEC6"/>
<path fill-rule="evenodd" clip-rule="evenodd" d="M20.1668 11.3782H22.4005V8.29787C22.4005 6.90897 21.2646 5.77313 19.8777 5.77313H12.3432C10.9562 5.77313 9.82031 6.90897 9.82031 8.29787V11.3782H12.054V8.29787C12.054 8.14191 12.1891 8.00675 12.3432 8.00675H19.8777C20.0318 8.00675 20.1668 8.14191 20.1668 8.29787V11.3782Z" fill="#9CAEC6"/>
<path fill-rule="evenodd" clip-rule="evenodd" d="M20.1668 11.3782H22.4005H21.101V8.29787C21.101 8.14191 20.9679 8.00675 20.8118 8.00675H19.8777C20.0318 8.00675 20.1668 8.14191 20.1668 8.29787V11.3782ZM13.2793 5.77313H12.3432C10.9562 5.77313 9.82031 6.90897 9.82031 8.29787V11.3782H10.7564V8.29787C10.7564 6.90897 11.8922 5.77313 13.2793 5.77313Z" fill="#5E81AB"/>
<path fill-rule="evenodd" clip-rule="evenodd" d="M1.4375 18.4902V31.0819C1.4375 32.3776 2.49915 33.4392 3.79483 33.4392H5.66701C4.3694 33.4392 3.30968 32.3776 3.30968 31.0819V18.4902H1.4375Z" fill="#5E81AB"/>
<path fill-rule="evenodd" clip-rule="evenodd" d="M30.0483 21.0095C30.3071 20.8459 30.5545 20.6708 30.7828 20.4825C31.6313 19.788 32.2192 18.9185 32.2192 17.777V12.029C32.2192 11.3632 31.6751 10.8209 31.011 10.8209H1.20818C0.544173 10.8209 0 11.3632 0 12.029V17.777C0 18.9166 0.587963 19.7861 1.43656 20.4825C1.66486 20.6708 1.91218 20.8459 2.17097 21.0095C7.07593 24.1127 25.1795 24.0899 30.0483 21.0095Z" fill="#5E81AB"/>
<path fill-rule="evenodd" clip-rule="evenodd" d="M7.69922 10.8209H24.5224V14.7498C24.5224 15.5813 23.8412 16.2644 23.0078 16.2644H9.21376C8.3804 16.2644 7.69922 15.5813 7.69922 14.7498V10.8209Z" fill="#9CAEC6"/>
<path fill-rule="evenodd" clip-rule="evenodd" d="M3.30874 10.8209H1.20818C0.544173 10.8209 0 11.3632 0 12.029V17.777C0 18.9166 0.587963 19.7861 1.43656 20.4825C1.66486 20.6708 1.91218 20.8459 2.17097 21.0095C2.49442 21.2131 2.87682 21.4053 3.30874 21.5822V10.8209Z" fill="#5E81AB"/>
<path fill-rule="evenodd" clip-rule="evenodd" d="M11.0156 23.7075C11.0156 26.5221 13.2971 28.8034 16.1116 28.8034C18.9262 28.8034 21.2075 26.5221 21.2075 23.7075C21.2075 20.9038 18.937 18.6152 16.1116 18.6152C13.2898 18.6152 11.0156 20.9038 11.0156 23.7075Z" fill="white"/>
<path fill-rule="evenodd" clip-rule="evenodd" d="M15.6875 28.7864C18.3051 28.5723 20.3624 26.3803 20.3624 23.7075C20.3624 21.0446 18.3143 18.8464 15.6878 18.6323C15.8265 18.621 15.9668 18.6152 16.1086 18.6152C18.934 18.6152 21.2045 20.9038 21.2045 23.7075C21.2045 26.5221 18.9231 28.8034 16.1086 28.8034C15.9668 28.8034 15.8264 28.7977 15.6875 28.7864Z" fill="white"/>
<path fill-rule="evenodd" clip-rule="evenodd" d="M13.1406 23.7079C13.1406 25.348 14.4699 26.6772 16.1098 26.6772C17.7498 26.6772 19.0791 25.348 19.0791 23.7079C19.0791 22.0743 17.7562 20.7408 16.1098 20.7408C14.4657 20.7408 13.1406 22.0743 13.1406 23.7079Z" fill="#9CAEC6"/>
<path fill-rule="evenodd" clip-rule="evenodd" d="M16.5311 20.7704C15.0874 20.9749 13.9827 22.2163 13.9827 23.7079C13.9827 25.205 15.0904 26.4431 16.5309 26.6476C16.3934 26.6671 16.2528 26.6772 16.1098 26.6772C14.4699 26.6772 13.1406 25.348 13.1406 23.7079C13.1406 22.0743 14.4657 20.7408 16.1098 20.7408C16.253 20.7408 16.3936 20.7509 16.5311 20.7704Z" fill="#5E81AB"/>
<path fill-rule="evenodd" clip-rule="evenodd" d="M39.6684 6.67186C39.8191 6.70437 39.94 6.81662 39.9835 6.9645C40.0271 7.11237 39.9864 7.2722 39.8773 7.38126C38.2998 8.95811 33.7942 13.462 32.8823 14.3736C32.7813 14.4746 32.6358 14.5175 32.4961 14.4874C31.4104 14.2538 26.7496 13.2512 26.7496 13.2512C26.7496 13.2512 25.7469 8.59028 25.5133 7.50463C25.4833 7.36492 25.5261 7.21949 25.6272 7.11843C26.5388 6.20643 31.0426 1.70087 32.6195 0.123426C32.7285 0.014372 32.8884 -0.0263863 33.0363 0.0171509C33.1841 0.0606881 33.2964 0.181615 33.3289 0.332354C33.6753 1.93868 34.4534 5.54739 34.4534 5.54739C34.4534 5.54739 38.0621 6.3255 39.6684 6.67186Z" fill="#9CAEC6"/>
<path fill-rule="evenodd" clip-rule="evenodd" d="M39.0513 6.53864L39.6691 6.67186C39.8199 6.70436 39.9407 6.81662 39.9842 6.96449C40.0279 7.11237 39.9871 7.2722 39.878 7.38125L32.883 14.3736C32.782 14.4746 32.6366 14.5175 32.4968 14.4874L26.7503 13.2512L26.5195 12.1789L31.9647 13.3502C32.1044 13.3803 32.2499 13.3374 32.3509 13.2364L39.0513 6.53864Z" fill="#5E81AB"/>
<path fill-rule="evenodd" clip-rule="evenodd" d="M37.6882 2.31261C38.1837 2.80827 38.1837 3.61763 37.6882 4.11026L17.3921 24.4064C16.8993 24.902 16.09 24.902 15.5944 24.4064C15.0987 23.9109 15.0987 23.1014 15.5944 22.6058L35.8905 2.31261C36.3832 1.81702 37.1926 1.81702 37.6882 2.31261Z" fill="white"/>
</svg>
