<svg width="21" height="21" viewBox="0 0 21 21" fill="none" xmlns="http://www.w3.org/2000/svg">
<path fill-rule="evenodd" clip-rule="evenodd" d="M0.669128 2.17371C0.669263 1.83171 0.756302 1.49535 0.922075 1.19622C1.08785 0.897081 1.32692 0.644976 1.61684 0.46357C1.90676 0.282164 2.23803 0.177407 2.57954 0.159134C2.92105 0.14086 3.2616 0.209669 3.56923 0.3591L19.3407 8.03209C19.7389 8.22608 20.0745 8.5281 20.3094 8.90368C20.5442 9.27927 20.6687 9.7133 20.6687 10.1562C20.6687 10.5992 20.5442 11.0332 20.3094 11.4088C20.0745 11.7844 19.7389 12.0864 19.3407 12.2804L3.56923 19.9534C3.26153 20.1029 2.9209 20.1717 2.57931 20.1534C2.23773 20.135 1.9064 20.0302 1.61646 19.8487C1.32651 19.6672 1.08745 19.4149 0.921745 19.1157C0.756036 18.8164 0.669109 18.48 0.669128 18.1379C0.669128 17.9624 0.65731 17.7851 0.70913 17.6151L2.52737 11.7058C2.57339 11.5563 2.65724 11.4211 2.77079 11.3135C2.88435 11.2058 3.02378 11.1293 3.17558 11.0913L6.92116 10.1558L3.17558 9.2194C3.02378 9.18141 2.88435 9.10488 2.77079 8.99721C2.65724 8.88955 2.57339 8.7544 2.52737 8.60483L0.70913 2.69554C0.65731 2.52554 0.669128 2.34826 0.669128 2.17371ZM2.68738 1.9737C2.66111 1.9737 2.63511 1.97887 2.61084 1.98892C2.58657 1.99898 2.56452 2.01371 2.54595 2.03228C2.52738 2.05085 2.51265 2.0729 2.5026 2.09717C2.49255 2.12143 2.48737 2.14744 2.48737 2.17371V2.29189L4.1147 7.58025L10.8904 9.27395C11.087 9.32321 11.2614 9.43675 11.3861 9.59652C11.5108 9.75629 11.5785 9.95314 11.5785 10.1558C11.5785 10.3585 11.5108 10.5553 11.3861 10.7151C11.2614 10.8748 11.087 10.9884 10.8904 11.0376L4.1147 12.7313L2.48737 18.0197V18.1379C2.48744 18.1717 2.49605 18.2049 2.51241 18.2344C2.52878 18.2639 2.55235 18.2889 2.58094 18.3068C2.60953 18.3248 2.6422 18.3352 2.67592 18.3372C2.70963 18.3391 2.74329 18.3325 2.77375 18.3179L18.5452 10.6449C18.6367 10.6001 18.7138 10.5305 18.7678 10.444C18.8217 10.3576 18.8503 10.2577 18.8503 10.1558C18.8503 10.0539 18.8217 9.95402 18.7678 9.86755C18.7138 9.78109 18.6367 9.71149 18.5452 9.66669L2.77375 1.9937C2.74654 1.98052 2.71761 1.97369 2.68738 1.9737Z" fill="#6688CC"/>
</svg>
