<svg width="22" height="19" viewBox="0 0 22 19" fill="none" xmlns="http://www.w3.org/2000/svg">
<path d="M1.72915 17.8093C1.6524 17.8097 1.57611 17.7974 1.50338 17.7729C1.35128 17.7235 1.21967 17.6254 1.12885 17.4938C1.03803 17.3622 0.993055 17.2043 1.00087 17.0446C1.00087 16.9354 1.751 6.36076 12.3547 5.53053V1.72892C12.3546 1.58413 12.3976 1.44258 12.4783 1.32237C12.559 1.20215 12.6737 1.10872 12.8078 1.054C12.9418 0.999288 13.0892 0.985772 13.2309 1.01518C13.3727 1.04459 13.5025 1.1156 13.6037 1.21912L20.7918 8.56016C20.9253 8.6963 21 8.87933 21 9.06995C21 9.26058 20.9253 9.44361 20.7918 9.57975L13.6037 16.9208C13.5025 17.0243 13.3727 17.0953 13.2309 17.1247C13.0892 17.1541 12.9418 17.1406 12.8078 17.0859C12.6737 17.0312 12.559 16.9378 12.4783 16.8175C12.3976 16.6973 12.3546 16.5558 12.3547 16.411V12.6822C5.27586 12.9517 2.37367 17.416 2.34454 17.4706C2.27884 17.5744 2.18797 17.6599 2.08037 17.7191C1.97278 17.7783 1.85196 17.8093 1.72915 17.8093ZM13.8113 3.5132V6.21146C13.8114 6.40028 13.7382 6.58176 13.6071 6.71763C13.4759 6.8535 13.2972 6.93313 13.1085 6.93974C6.24811 7.191 3.79382 11.7609 2.9126 14.6995C4.73329 13.1265 7.97777 11.2038 13.0393 11.2038H13.0721C13.2652 11.2038 13.4505 11.2805 13.587 11.4171C13.7236 11.5537 13.8004 11.7389 13.8004 11.9321V14.6304L19.2624 9.0736L13.8113 3.5132Z" fill="#A3B8E0" stroke="#A3B8E0" stroke-width="0.5"/>
</svg>
