<svg width="40" height="40" viewBox="0 0 40 40" fill="none" xmlns="http://www.w3.org/2000/svg">
<g clip-path="url(#clip0_2484_29395)">
<path d="M30 8.75L21.25 0H5C3.67392 0 2.40215 0.526784 1.46447 1.46447C0.526784 2.40215 0 3.67392 0 5L0 35C0 36.3261 0.526784 37.5979 1.46447 38.5355C2.40215 39.4732 3.67392 40 5 40H25C26.3261 40 27.5979 39.4732 28.5355 38.5355C29.4732 37.5979 30 36.3261 30 35V8.75Z" fill="#9CAEC6"/>
<path d="M39.875 5.69103L37.375 0.69103C37.2595 0.497309 37.0957 0.336899 36.8996 0.225503C36.7035 0.114107 36.4818 0.055542 36.2562 0.055542C36.0307 0.055542 35.809 0.114107 35.6129 0.225503C35.4168 0.336899 35.253 0.497309 35.1375 0.69103L32.6375 5.69103C32.5488 5.86405 32.5018 6.05537 32.5 6.24978V36.2498C32.5 37.2443 32.8951 38.1982 33.5983 38.9014C34.3016 39.6047 35.2554 39.9998 36.25 39.9998C37.2446 39.9998 38.1984 39.6047 38.9017 38.9014C39.6049 38.1982 40 37.2443 40 36.2498V6.24978C40.0021 6.05637 39.9593 5.8651 39.875 5.69103Z" fill="#9CAEC6"/>
<path d="M21.25 0V7.5C21.25 7.83152 21.3817 8.14946 21.6161 8.38388C21.8505 8.6183 22.1685 8.75 22.5 8.75H30L21.25 0Z" fill="#5E81AB"/>
<path d="M16.25 10H6.25C5.91848 10 5.60054 9.8683 5.36612 9.63388C5.1317 9.39946 5 9.08152 5 8.75C5 8.41848 5.1317 8.10054 5.36612 7.86612C5.60054 7.6317 5.91848 7.5 6.25 7.5H16.25C16.5815 7.5 16.8995 7.6317 17.1339 7.86612C17.3683 8.10054 17.5 8.41848 17.5 8.75C17.5 9.08152 17.3683 9.39946 17.1339 9.63388C16.8995 9.8683 16.5815 10 16.25 10Z" fill="#F9F6F9"/>
<path d="M23.75 17.5H6.25C5.91848 17.5 5.60054 17.3683 5.36612 17.1339C5.1317 16.8995 5 16.5815 5 16.25C5 15.9185 5.1317 15.6005 5.36612 15.3661C5.60054 15.1317 5.91848 15 6.25 15H23.75C24.0815 15 24.3995 15.1317 24.6339 15.3661C24.8683 15.6005 25 15.9185 25 16.25C25 16.5815 24.8683 16.8995 24.6339 17.1339C24.3995 17.3683 24.0815 17.5 23.75 17.5Z" fill="#F9F6F9"/>
<path d="M23.75 25H6.25C5.91848 25 5.60054 24.8683 5.36612 24.6339C5.1317 24.3995 5 24.0815 5 23.75C5 23.4185 5.1317 23.1005 5.36612 22.8661C5.60054 22.6317 5.91848 22.5 6.25 22.5H23.75C24.0815 22.5 24.3995 22.6317 24.6339 22.8661C24.8683 23.1005 25 23.4185 25 23.75C25 24.0815 24.8683 24.3995 24.6339 24.6339C24.3995 24.8683 24.0815 25 23.75 25Z" fill="#F9F6F9"/>
<path d="M23.75 32.5H6.25C5.91848 32.5 5.60054 32.3683 5.36612 32.1339C5.1317 31.8995 5 31.5815 5 31.25C5 30.9185 5.1317 30.6005 5.36612 30.3661C5.60054 30.1317 5.91848 30 6.25 30H23.75C24.0815 30 24.3995 30.1317 24.6339 30.3661C24.8683 30.6005 25 30.9185 25 31.25C25 31.5815 24.8683 31.8995 24.6339 32.1339C24.3995 32.3683 24.0815 32.5 23.75 32.5Z" fill="#F9F6F9"/>
</g>
<defs>
<clipPath id="clip0_2484_29395">
<rect width="40" height="40" fill="white"/>
</clipPath>
</defs>
</svg>
