<svg width="40" height="40" viewBox="0 0 40 40" fill="none" xmlns="http://www.w3.org/2000/svg">
<path d="M33.4156 6.79681C33.1383 6.79681 32.8773 6.90463 32.6813 7.10072L32.0789 7.70385C31.6211 8.16088 30.8789 8.16088 30.4211 7.70385L29.8187 7.10072C29.6227 6.90463 29.3617 6.79681 29.0844 6.79681C28.5125 6.79681 28.0469 7.26244 28.0469 7.83431C28.0469 9.50267 29.2621 11.0681 30.8352 11.6968L31.25 11.8624L31.6648 11.6968C33.2354 11.069 34.4531 9.50424 34.4531 7.83431C34.4531 7.26244 33.9875 6.79681 33.4156 6.79681Z" fill="#5E81AB"/>
<path d="M31.1719 -6.10352e-05C26.2961 -6.10352e-05 22.3438 3.95228 22.3438 8.82806C22.3438 13.7038 26.2961 17.6562 31.1719 17.6562C36.0477 17.6562 40 13.7038 40 8.82806C40 3.95228 36.0477 -6.10352e-05 31.1719 -6.10352e-05ZM32.5352 13.8734L31.6852 14.2132C31.4098 14.3224 31.1013 14.3269 30.8148 14.2132L29.9648 13.8734C27.5028 12.8885 25.7031 10.4672 25.7031 7.83431C25.7031 5.97025 27.2203 4.45306 29.0844 4.45306C29.8852 4.45306 30.643 4.72963 31.25 5.23666C31.857 4.72963 32.6148 4.45306 33.4156 4.45306C35.2797 4.45306 36.7969 5.97025 36.7969 7.83431C36.7969 10.4651 34.9991 12.8878 32.5352 13.8734Z" fill="#9CAEC6"/>
<path d="M3.52162 36.6968L3.12497 37.1183L2.72833 36.6968C2.28474 36.2254 1.5431 36.203 1.07185 36.6466C0.600521 37.0902 0.578099 37.8318 1.02162 38.3031L2.27162 39.6312C2.73427 40.1229 3.51607 40.1224 3.97833 39.6312L5.22833 38.3031C5.67193 37.8318 5.64943 37.0902 5.1781 36.6466C4.70685 36.2029 3.96513 36.2255 3.52162 36.6968Z" fill="#9CAEC6"/>
<path d="M28.75 36.9531H8.75C8.10281 36.9531 7.57812 37.4778 7.57812 38.1249C7.57812 38.7721 8.10281 39.2968 8.75 39.2968H28.75C29.3972 39.2968 29.9219 38.7721 29.9219 38.1249C29.9219 37.4778 29.3972 36.9531 28.75 36.9531Z" fill="#9CAEC6"/>
<path d="M1.17188 3.04681H3.75C4.39719 3.04681 4.92188 2.52213 4.92188 1.87494C4.92188 1.22775 4.39719 0.703064 3.75 0.703064H1.17188C0.524687 0.703064 0 1.22775 0 1.87494C0 2.52213 0.524687 3.04681 1.17188 3.04681Z" fill="#9CAEC6"/>
<path d="M8.75 3.04681H17.5C18.1472 3.04681 18.6719 2.52213 18.6719 1.87494C18.6719 1.22775 18.1472 0.703064 17.5 0.703064H8.75C8.10281 0.703064 7.57812 1.22775 7.57812 1.87494C7.57812 2.52213 8.10281 3.04681 8.75 3.04681Z" fill="#9CAEC6"/>
<path d="M20.4453 5.70306H1.17188C0.525 5.70306 0 6.22806 0 6.87494V21.9531H7.66375C8.23289 18.0695 11.5859 15.0781 15.625 15.0781C19.6641 15.0781 23.0172 18.0695 23.5863 21.9531H31.1719V19.9999C23.7346 19.9999 18.3634 12.8299 20.4453 5.70306ZM7.07859 11.4535L5.82859 12.7035C5.37102 13.1612 4.62898 13.1613 4.17133 12.7035L2.92133 11.4535C2.46367 10.9959 2.46367 10.2539 2.92133 9.79627C3.37891 9.33861 4.12094 9.33861 4.57859 9.79627L5 10.2177L5.42141 9.79634C5.87898 9.33869 6.62102 9.33869 7.07867 9.79634C7.53625 10.254 7.53625 10.996 7.07859 11.4535Z" fill="#9CAEC6"/>
<path d="M15.6245 17.4218C12.8813 17.4218 10.5849 19.3687 10.043 21.9531H21.206C20.664 19.3687 18.3676 17.4218 15.6245 17.4218Z" fill="#5E81AB"/>
<path d="M0 33.1249C0 33.7718 0.525 34.2968 1.17188 34.2968H30C30.6469 34.2968 31.1719 33.7718 31.1719 33.1249V24.2968H0V33.1249ZM10 28.8281H21.25C21.8972 28.8281 22.4219 29.3528 22.4219 29.9999C22.4219 30.6471 21.8972 31.1718 21.25 31.1718H10C9.35281 31.1718 8.82812 30.6471 8.82812 29.9999C8.82812 29.3528 9.35281 28.8281 10 28.8281Z" fill="#9CAEC6"/>
</svg>
