<svg width="16" height="16" viewBox="0 0 16 16" fill="none" xmlns="http://www.w3.org/2000/svg">
<path fill-rule="evenodd" clip-rule="evenodd" d="M8 16C12.4183 16 16 12.4183 16 8C16 3.58172 12.4183 0 8 0C3.58172 0 0 3.58172 0 8C0 12.4183 3.58172 16 8 16ZM5.43744 4.0448L12.473 7.4771C12.5709 7.5249 12.6531 7.59926 12.7109 7.69171C12.7687 7.78416 12.7993 7.89099 12.7993 8C12.7993 8.10901 12.7687 8.21583 12.7109 8.30829C12.6531 8.40074 12.5706 8.4751 12.4726 8.5229L5.43744 11.9552C5.36986 11.9881 5.29501 12.0033 5.21994 11.9994C5.14486 11.9954 5.07202 11.9724 5.00828 11.9326C4.94453 11.8927 4.89197 11.8373 4.85553 11.7716C4.8191 11.7058 4.79999 11.6318 4.8 11.5567V11.5439C4.80004 11.4845 4.80736 11.4253 4.82182 11.3676L5.49672 8.66835C5.50576 8.63239 5.52559 8.60005 5.55354 8.57568C5.58149 8.55131 5.61622 8.53606 5.65308 8.53199L8.61921 8.20218C8.66856 8.19624 8.71402 8.17243 8.74701 8.13524C8.77999 8.09805 8.7982 8.05007 8.7982 8.00036C8.7982 7.95066 8.77999 7.90267 8.74701 7.86549C8.71402 7.8283 8.66856 7.80448 8.61921 7.79855L5.65308 7.46874C5.61622 7.46466 5.58149 7.44942 5.55354 7.42505C5.52559 7.40067 5.50576 7.36834 5.49672 7.33238L4.82182 4.63278C4.80736 4.57511 4.80004 4.51588 4.8 4.45642V4.4437C4.79993 4.36849 4.81899 4.29449 4.8554 4.22868C4.89181 4.16287 4.94437 4.10741 5.00812 4.06751C5.07188 4.02761 5.14474 4.00459 5.21985 4.00062C5.29495 3.99665 5.36983 4.01185 5.43744 4.0448Z" fill="#A3B8E0"/>
</svg>
