<svg width="20" height="20" viewBox="0 0 20 20" fill="none" xmlns="http://www.w3.org/2000/svg">
<path d="M19.0563 6.76511L14.6907 2.39949C14.3192 2.02801 13.9291 1.82637 13.5317 1.82637C13.2583 1.82637 12.9613 1.93059 12.7336 2.18086C12.5057 2.43119 12.3559 2.81762 12.3559 3.36651V4.75426C9.19566 4.91608 6.24725 6.22397 3.99333 8.47777C1.58117 10.8897 0.252418 14.0973 0.252152 17.5084C0.252109 17.6487 0.296189 17.7854 0.37815 17.8992C0.46011 18.013 0.575798 18.0981 0.70883 18.1425C0.841858 18.1869 0.985489 18.1884 1.11938 18.1466C1.25326 18.1049 1.37062 18.0221 1.45483 17.9099C4.08201 14.4129 8.0258 12.335 12.3559 12.1407V13.4964C12.3559 14.0453 12.5057 14.4317 12.7335 14.682C12.9613 14.9323 13.2582 15.0366 13.5317 15.0366H13.5317C13.9291 15.0366 14.3192 14.8349 14.6907 14.4635L19.0563 10.0978C19.0563 10.0978 19.0563 10.0978 19.0563 10.0978C19.5001 9.6541 19.7445 9.06193 19.7445 8.4315C19.7445 7.80102 19.5001 7.20885 19.0563 6.76511ZM18.1112 9.15266L13.7455 13.5183C13.7276 13.5363 13.7105 13.5526 13.6942 13.5675C13.6932 13.5455 13.6926 13.5218 13.6926 13.4964V11.4575C13.6926 11.0884 13.3934 10.7891 13.0243 10.7891C10.4976 10.7891 8.08265 11.3681 5.84746 12.51C4.3407 13.2797 2.95565 14.2994 1.76401 15.5087C2.71297 10.1539 7.40154 6.07385 13.0243 6.07385C13.3934 6.07385 13.6926 5.77462 13.6926 5.40552V3.36651C13.6926 3.34116 13.6932 3.31752 13.6942 3.29552C13.7105 3.31037 13.7276 3.3267 13.7455 3.34465L18.1112 7.7103L18.1842 7.63724L18.1112 7.7103C18.3024 7.90152 18.4078 8.15719 18.4078 8.4315C18.4078 8.70577 18.3024 8.96144 18.1112 9.15265L18.1842 9.22571L18.1112 9.15266Z" fill="#3B5D8F" stroke="#3B5D8F" stroke-width="0.206633"/>
</svg>
