<svg width="9" height="8" viewBox="0 0 9 8" fill="none" xmlns="http://www.w3.org/2000/svg">
<path fill-rule="evenodd" clip-rule="evenodd" d="M4.40221 0C2.19772 0 0.400391 1.79478 0.400391 3.99891C0.400391 6.20304 2.19808 8 4.40221 8C6.60633 8 8.40039 6.20304 8.40039 3.99891C8.40039 1.79478 6.60633 0 4.40221 0ZM4.40221 0.727074C4.83204 0.726356 5.25778 0.810499 5.65502 0.974679C6.05227 1.13886 6.41319 1.37984 6.71709 1.68381C7.02099 1.98779 7.2619 2.34876 7.42599 2.74604C7.59008 3.14332 7.67413 3.56908 7.67332 3.99891C7.67418 4.42886 7.59018 4.85475 7.42613 5.25217C7.26208 5.64959 7.02121 6.01073 6.71733 6.31488C6.41344 6.61903 6.05252 6.86022 5.65525 7.02463C5.25797 7.18903 4.83216 7.27341 4.40221 7.27293C3.97208 7.27345 3.54606 7.18913 3.14856 7.02479C2.75106 6.86045 2.38988 6.61932 2.0857 6.31521C1.78152 6.01109 1.5403 5.64996 1.37588 5.2525C1.21145 4.85503 1.12703 4.42904 1.12747 3.99891C1.12747 2.18777 2.59107 0.727074 4.40221 0.727074ZM4.39639 1.44906C4.34834 1.44953 4.30086 1.45952 4.25669 1.47846C4.21253 1.4974 4.17255 1.5249 4.13909 1.55938C4.10562 1.59387 4.07932 1.63464 4.06171 1.67935C4.0441 1.72406 4.03553 1.77182 4.03649 1.81987V3.99891C4.03669 4.04675 4.04633 4.09408 4.06486 4.13818C4.08339 4.18229 4.11044 4.2223 4.14446 4.25593L5.59861 5.71081C5.63225 5.74542 5.67244 5.77299 5.71684 5.79191C5.76124 5.81082 5.80897 5.82071 5.85723 5.82098C5.9055 5.82126 5.95334 5.81193 5.99795 5.79352C6.04257 5.77512 6.08308 5.74801 6.11711 5.71378C6.15114 5.67956 6.17802 5.6389 6.19617 5.59418C6.21432 5.54946 6.22339 5.50157 6.22284 5.45331C6.22229 5.40505 6.21213 5.35738 6.19296 5.31308C6.1738 5.26879 6.146 5.22875 6.1112 5.19531L4.76429 3.8484V1.81987C4.76527 1.77115 4.75644 1.72273 4.73834 1.67749C4.72023 1.63225 4.69322 1.59112 4.6589 1.55652C4.62458 1.52193 4.58365 1.49459 4.53856 1.47613C4.49346 1.45767 4.44512 1.44846 4.39639 1.44906Z" fill="#A3B8E0"/>
</svg>
