<svg width="37" height="24" viewBox="0 0 37 24" fill="none" xmlns="http://www.w3.org/2000/svg">
<rect x="0.5" width="36" height="24" rx="12" fill="#4F6E9B"/>
<path d="M15.7727 5C16.7372 5 17.6621 5.36875 18.344 6.02513C19.026 6.6815 19.4091 7.57174 19.4091 8.5C19.4091 9.42826 19.026 10.3185 18.344 10.9749C17.6621 11.6313 16.7372 12 15.7727 12C14.8083 12 13.8834 11.6313 13.2014 10.9749C12.5195 10.3185 12.1364 9.42826 12.1364 8.5C12.1364 7.57174 12.5195 6.6815 13.2014 6.02513C13.8834 5.36875 14.8083 5 15.7727 5ZM15.7727 6.6625C15.522 6.6625 15.2738 6.71003 15.0421 6.80237C14.8105 6.89471 14.6001 7.03006 14.4228 7.20069C14.2455 7.37132 14.1049 7.57388 14.009 7.79682C13.913 8.01976 13.8636 8.2587 13.8636 8.5C13.8636 8.7413 13.913 8.98025 14.009 9.20318C14.1049 9.42612 14.2455 9.62868 14.4228 9.79931C14.6001 9.96994 14.8105 10.1053 15.0421 10.1976C15.2738 10.29 15.522 10.3375 15.7727 10.3375C16.0234 10.3375 16.2717 10.29 16.5033 10.1976C16.7349 10.1053 16.9454 9.96994 17.1227 9.79931C17.2999 9.62868 17.4406 9.42612 17.5365 9.20318C17.6324 8.98025 17.6818 8.7413 17.6818 8.5C17.6818 8.01266 17.4807 7.54529 17.1227 7.20069C16.7646 6.85609 16.279 6.6625 15.7727 6.6625ZM25.7727 7.625V10.25H28.5V12H25.7727V14.625H23.9545V12H21.2273V10.25H23.9545V7.625H25.7727ZM15.7727 12.875C18.2 12.875 23.0455 14.0387 23.0455 16.375V19H8.5V16.375C8.5 14.0387 13.3455 12.875 15.7727 12.875ZM15.7727 14.5375C13.0727 14.5375 10.2273 15.815 10.2273 16.375V17.3375H21.3182V16.375C21.3182 15.815 18.5 14.5375 15.7727 14.5375Z" fill="white"/>
</svg>
