<svg width="50" height="42" viewBox="0 0 50 42" fill="none" xmlns="http://www.w3.org/2000/svg">
<path fill-rule="evenodd" clip-rule="evenodd" d="M19 24H31C34.3 24 37 21.3 37 18V6C37 2.7 34.3 0 31 0H19C15.7 0 13 2.7 13 6V18C13 21.3 15.7 24 19 24ZM15 18V8H35V18C35 20.2 33.2 22 31 22H19C16.8 22 15 20.2 15 18ZM35 6H30.5L27.9 2H31C33.2 2 35 3.8 35 6ZM28.1 6H23.5L20.9 2H25.4L28.1 6ZM21.1 6H15C15 4 16.5 2.3 18.5 2L21.1 6ZM24 16.2999V13.8L26.1 15.1L24 16.2999ZM22 18C22 18.5 22.5 19 23 19C23.2 19 23.4 19 23.5 18.9L28.5 15.9C28.8 15.7 29 15.4 29 15C29 14.6 28.8 14.3 28.5 14.1L23.5 11.1C23.2 10.9 22.8 10.9 22.5 11.1C22.2 11.3 22 11.6 22 12V18Z" fill="#9CADC6"/>
<path d="M14.2054 40L11.9654 34.4H12.9494L14.2854 37.8C14.3494 37.9653 14.4054 38.1147 14.4534 38.248C14.5068 38.3813 14.5521 38.504 14.5894 38.616C14.6268 38.7227 14.6614 38.824 14.6934 38.92C14.7254 39.016 14.7574 39.112 14.7894 39.208L14.5814 39.216C14.6188 39.088 14.6588 38.9547 14.7014 38.816C14.7441 38.6773 14.7921 38.5253 14.8454 38.36C14.9041 38.1947 14.9734 38.008 15.0534 37.8L16.2934 34.4H17.3014L15.0454 40H14.2054ZM18.2042 40V35.8H19.0282V40H18.2042ZM18.6042 34.872C18.4282 34.872 18.2922 34.8267 18.1962 34.736C18.1002 34.6453 18.0522 34.5173 18.0522 34.352C18.0522 34.1973 18.1002 34.072 18.1962 33.976C18.2975 33.88 18.4335 33.832 18.6042 33.832C18.7802 33.832 18.9162 33.8773 19.0122 33.968C19.1082 34.0587 19.1562 34.1867 19.1562 34.352C19.1562 34.5067 19.1055 34.632 19.0042 34.728C18.9082 34.824 18.7749 34.872 18.6042 34.872ZM22.0468 40.08C21.6628 40.08 21.3188 39.9867 21.0148 39.8C20.7161 39.608 20.4788 39.3493 20.3028 39.024C20.1268 38.6933 20.0388 38.3173 20.0388 37.896C20.0388 37.4747 20.1241 37.1013 20.2948 36.776C20.4708 36.4453 20.7081 36.1867 21.0068 36C21.3054 35.808 21.6441 35.712 22.0228 35.712C22.2308 35.712 22.4308 35.7467 22.6228 35.816C22.8201 35.88 22.9961 35.9707 23.1508 36.088C23.3054 36.2 23.4254 36.3253 23.5108 36.464C23.6014 36.5973 23.6468 36.7333 23.6468 36.872L23.4068 36.888V34.08H24.2308V40H23.4068V39H23.5668C23.5668 39.128 23.5241 39.256 23.4388 39.384C23.3534 39.5067 23.2388 39.6213 23.0948 39.728C22.9561 39.8347 22.7934 39.92 22.6068 39.984C22.4254 40.048 22.2388 40.08 22.0468 40.08ZM22.1588 39.368C22.4094 39.368 22.6308 39.304 22.8228 39.176C23.0148 39.048 23.1641 38.8747 23.2708 38.656C23.3828 38.432 23.4388 38.1787 23.4388 37.896C23.4388 37.6133 23.3828 37.3627 23.2708 37.144C23.1641 36.92 23.0148 36.744 22.8228 36.616C22.6308 36.488 22.4094 36.424 22.1588 36.424C21.9081 36.424 21.6868 36.488 21.4948 36.616C21.3028 36.744 21.1508 36.92 21.0388 37.144C20.9321 37.3627 20.8788 37.6133 20.8788 37.896C20.8788 38.1787 20.9321 38.432 21.0388 38.656C21.1508 38.8747 21.3028 39.048 21.4948 39.176C21.6868 39.304 21.9081 39.368 22.1588 39.368ZM27.3251 40.08C26.8931 40.08 26.5091 39.9893 26.1731 39.808C25.8424 39.6213 25.5811 39.368 25.3891 39.048C25.2024 38.728 25.1091 38.36 25.1091 37.944C25.1091 37.6133 25.1624 37.312 25.2691 37.04C25.3757 36.768 25.5224 36.5333 25.7091 36.336C25.9011 36.1333 26.1277 35.9787 26.3891 35.872C26.6557 35.76 26.9437 35.704 27.2531 35.704C27.5251 35.704 27.7784 35.7573 28.0131 35.864C28.2477 35.9653 28.4504 36.1067 28.6211 36.288C28.7971 36.4693 28.9304 36.6853 29.0211 36.936C29.1171 37.1813 29.1624 37.4507 29.1571 37.744L29.1491 38.096H25.7171L25.5331 37.44H28.4371L28.3171 37.576V37.384C28.3011 37.208 28.2424 37.0507 28.1411 36.912C28.0397 36.7733 27.9117 36.664 27.7571 36.584C27.6024 36.504 27.4344 36.464 27.2531 36.464C26.9651 36.464 26.7224 36.52 26.5251 36.632C26.3277 36.7387 26.1784 36.8987 26.0771 37.112C25.9757 37.32 25.9251 37.5787 25.9251 37.888C25.9251 38.1813 25.9864 38.4373 26.1091 38.656C26.2317 38.8693 26.4051 39.0347 26.6291 39.152C26.8531 39.2693 27.1117 39.328 27.4051 39.328C27.6131 39.328 27.8051 39.2933 27.9811 39.224C28.1624 39.1547 28.3571 39.0293 28.5651 38.848L28.9811 39.432C28.8531 39.56 28.6957 39.672 28.5091 39.768C28.3277 39.864 28.1331 39.9413 27.9251 40C27.7224 40.0533 27.5224 40.08 27.3251 40.08ZM31.9406 40.08C31.5299 40.08 31.1619 39.9867 30.8366 39.8C30.5166 39.608 30.2632 39.3493 30.0766 39.024C29.8899 38.6933 29.7966 38.3173 29.7966 37.896C29.7966 37.4747 29.8899 37.1013 30.0766 36.776C30.2632 36.4453 30.5166 36.1867 30.8366 36C31.1619 35.808 31.5299 35.712 31.9406 35.712C32.3459 35.712 32.7086 35.808 33.0286 36C33.3539 36.1867 33.6099 36.4453 33.7966 36.776C33.9832 37.1013 34.0766 37.4747 34.0766 37.896C34.0766 38.3173 33.9832 38.6933 33.7966 39.024C33.6099 39.3493 33.3539 39.608 33.0286 39.8C32.7086 39.9867 32.3459 40.08 31.9406 40.08ZM31.9406 39.328C32.1912 39.328 32.4152 39.2667 32.6126 39.144C32.8099 39.016 32.9646 38.8453 33.0766 38.632C33.1886 38.4133 33.2419 38.168 33.2366 37.896C33.2419 37.6187 33.1886 37.3733 33.0766 37.16C32.9646 36.9413 32.8099 36.7707 32.6126 36.648C32.4152 36.5253 32.1912 36.464 31.9406 36.464C31.6899 36.464 31.4632 36.528 31.2606 36.656C31.0632 36.7787 30.9086 36.9493 30.7966 37.168C30.6846 37.3813 30.6312 37.624 30.6366 37.896C30.6312 38.168 30.6846 38.4133 30.7966 38.632C30.9086 38.8453 31.0632 39.016 31.2606 39.144C31.4632 39.2667 31.6899 39.328 31.9406 39.328ZM36.3744 40.08C36.0224 40.08 35.7051 40.0187 35.4224 39.896C35.1398 39.7733 34.9051 39.592 34.7184 39.352L35.2784 38.872C35.4384 39.0587 35.6118 39.1947 35.7984 39.28C35.9904 39.36 36.2064 39.4 36.4464 39.4C36.5424 39.4 36.6304 39.3893 36.7104 39.368C36.7958 39.3413 36.8678 39.304 36.9264 39.256C36.9904 39.208 37.0384 39.152 37.0704 39.088C37.1024 39.0187 37.1184 38.944 37.1184 38.864C37.1184 38.7253 37.0678 38.6133 36.9664 38.528C36.9131 38.4907 36.8278 38.4507 36.7104 38.408C36.5984 38.36 36.4518 38.312 36.2704 38.264C35.9611 38.184 35.7078 38.0933 35.5104 37.992C35.3131 37.8907 35.1611 37.776 35.0544 37.648C34.9744 37.5467 34.9158 37.4373 34.8784 37.32C34.8411 37.1973 34.8224 37.064 34.8224 36.92C34.8224 36.744 34.8598 36.584 34.9344 36.44C35.0144 36.2907 35.1211 36.1627 35.2544 36.056C35.3931 35.944 35.5531 35.8587 35.7344 35.8C35.9211 35.7413 36.1184 35.712 36.3264 35.712C36.5238 35.712 36.7184 35.7387 36.9104 35.792C37.1078 35.8453 37.2891 35.9227 37.4544 36.024C37.6198 36.1253 37.7584 36.2453 37.8704 36.384L37.3984 36.904C37.2971 36.8027 37.1851 36.7147 37.0624 36.64C36.9451 36.56 36.8251 36.4987 36.7024 36.456C36.5798 36.4133 36.4678 36.392 36.3664 36.392C36.2544 36.392 36.1531 36.4027 36.0624 36.424C35.9718 36.4453 35.8944 36.4773 35.8304 36.52C35.7718 36.5627 35.7264 36.616 35.6944 36.68C35.6624 36.744 35.6464 36.816 35.6464 36.896C35.6518 36.9653 35.6678 37.032 35.6944 37.096C35.7264 37.1547 35.7691 37.2053 35.8224 37.248C35.8811 37.2907 35.9691 37.336 36.0864 37.384C36.2038 37.432 36.3531 37.4773 36.5344 37.52C36.8011 37.5893 37.0198 37.6667 37.1904 37.752C37.3664 37.832 37.5051 37.9253 37.6064 38.032C37.7131 38.1333 37.7878 38.2507 37.8304 38.384C37.8731 38.5173 37.8944 38.6667 37.8944 38.832C37.8944 39.072 37.8251 39.288 37.6864 39.48C37.5531 39.6667 37.3718 39.8133 37.1424 39.92C36.9131 40.0267 36.6571 40.08 36.3744 40.08Z" fill="#747474"/>
</svg>
